<svg width="132" height="104" viewBox="0 0 132 104" fill="none" xmlns="http://www.w3.org/2000/svg">
<path d="M104.541 64.5017C104.53 66.3571 104.507 68.224 104.495 70.0794C104.495 70.5375 104.484 70.9956 104.484 71.4423C104.484 71.7516 104.415 72.141 104.541 72.4387C104.736 72.9427 105.389 72.8052 105.629 73.229C105.652 73.1488 105.675 73.0687 105.686 72.9885C104.85 73.4008 104.633 74.3285 104.564 75.1875C104.507 76.0121 104.472 77.3407 105.549 77.5011C105.537 77.398 105.526 77.2949 105.503 77.1918C103.877 77.9363 104.53 80.8454 105.217 82.0136C105.721 82.8726 106.465 83.5713 107.233 84.1897C107.668 84.5448 108.103 84.8769 108.55 85.2205C108.813 85.4267 109.077 85.6214 109.329 85.8275C109.466 85.9306 110.05 86.2513 110.073 86.446C110.119 86.3888 110.153 86.3315 110.199 86.2857C110.21 86.2857 110.21 86.2857 110.222 86.2857C110.245 86.3659 110.268 86.446 110.279 86.5262C110.291 86.5147 110.291 86.5033 110.302 86.4918C110.394 86.2971 110.107 86.1253 110.004 86.32C109.993 86.3315 109.993 86.3429 109.981 86.3544C109.936 86.446 109.958 86.5262 110.039 86.5949C110.119 86.6636 110.176 86.6636 110.279 86.6293C110.348 86.6064 110.417 86.5376 110.405 86.4689C110.359 86.1139 110.004 85.9535 109.729 85.7474C109.329 85.4267 108.916 85.1175 108.515 84.7968C107.759 84.2126 106.992 83.6285 106.339 82.9413C105.606 82.174 105.102 81.2806 104.953 80.2155C104.827 79.345 104.713 77.9477 105.675 77.5011C105.801 77.4438 105.778 77.2033 105.629 77.1918C104.713 77.0544 104.839 75.7487 104.908 75.0501C104.976 74.3629 105.171 73.6413 105.847 73.3092C105.927 73.2634 105.95 73.1488 105.904 73.0687C105.663 72.6564 105.079 72.7365 104.862 72.37C104.69 72.0951 104.804 71.4538 104.816 71.1216C104.816 70.6635 104.827 70.2054 104.827 69.7587C104.839 68.0178 104.85 66.2655 104.873 64.5246C104.885 64.2841 104.541 64.2726 104.541 64.5017V64.5017Z" fill="#E8E8E8"/>
<path d="M104.724 64.5933C106.328 64.6735 107.45 65.899 108.412 67.0443C108.87 67.594 109.351 68.1094 109.821 68.6248C110.302 69.1402 110.932 70.1825 110.061 70.6864C109.912 70.778 109.981 71.0071 110.153 71.0071C111.481 71.0415 112.066 72.6564 112.478 73.6757C112.97 74.9126 113.36 76.184 113.646 77.4782C114.23 80.1353 114.345 82.8726 114.013 85.5641C113.99 85.7817 114.333 85.7817 114.356 85.5641C114.711 82.5634 114.528 79.5168 113.784 76.5963C113.44 75.2219 112.982 73.836 112.363 72.5533C111.928 71.637 111.252 70.6864 110.153 70.6635C110.187 70.7666 110.21 70.8811 110.245 70.9842C111.917 70.0221 109.844 68.1896 109.168 67.3993C107.965 66.002 106.751 64.3413 104.736 64.2383C104.506 64.2383 104.506 64.5818 104.724 64.5933V64.5933Z" fill="#E8E8E8"/>
<path d="M110.474 68.7165C111.276 65.8761 112.398 63.1388 113.841 60.5618C113.761 60.5847 113.681 60.6076 113.601 60.619C113.91 60.8023 114.23 60.9856 114.54 61.1688C114.7 61.2604 114.849 61.0772 114.78 60.9283C113.956 59.279 116.429 58.2253 117.266 57.2404C117.197 57.2518 117.128 57.2633 117.059 57.2633C117.22 57.3549 117.392 57.4465 117.552 57.5381C117.632 57.5839 117.735 57.561 117.792 57.4809C118.709 55.9232 120.324 55.0528 121.881 54.2511C121.801 54.1823 121.709 54.1251 121.629 54.0564C121.137 55.6713 121.916 57.4351 122.064 59.05C122.145 59.9204 122.156 60.8023 122.087 61.6842C122.053 62.1194 122.087 62.7723 121.916 63.1617C121.916 63.448 121.755 63.6083 121.423 63.6656C121.32 63.6771 121.228 63.6885 121.125 63.7C120.896 63.7229 120.656 63.7458 120.427 63.7687C120.335 63.7801 120.243 63.8374 120.255 63.9405C120.266 64.1695 120.335 64.2383 120.507 64.3872C120.724 64.5704 120.896 64.5933 120.999 64.914C121.057 65.0858 121.057 65.2805 121.057 65.4523C121.045 66.38 120.908 67.3306 120.747 68.2469C120.587 69.1402 120.358 70.0221 120.083 70.8811C119.843 71.6027 119.522 72.6793 118.628 72.7938C118.514 72.8053 118.399 72.9313 118.48 73.0572C119.144 74.0766 118.159 75.3135 117.678 76.1954C117.151 77.1346 116.67 78.0967 116.223 79.0702C115.33 81.0058 114.597 83.0101 114.001 85.0602C113.944 85.2778 114.276 85.3694 114.334 85.1518C115.009 82.7925 115.891 80.5018 116.968 78.3028C117.472 77.2606 118.079 76.2756 118.606 75.2448C118.984 74.5003 119.281 73.6299 118.789 72.874C118.743 72.9656 118.686 73.0458 118.64 73.1374C119.316 73.0572 119.751 72.5762 120.049 71.9921C120.495 71.0987 120.736 70.0679 120.953 69.0944C121.194 68.0178 121.354 66.9183 121.412 65.8188C121.435 65.4523 121.469 65.04 121.309 64.6964C121.217 64.4673 120.633 64.1123 120.621 63.9519C120.564 64.0092 120.507 64.0665 120.45 64.1237C121.091 64.055 122.007 64.2154 122.225 63.4824C122.511 62.5661 122.5 61.4322 122.488 60.4931C122.488 59.4852 122.385 58.4888 122.202 57.5038C121.996 56.3928 121.629 55.2819 121.973 54.1594C122.019 54.0105 121.847 53.896 121.721 53.9647C120.106 54.8008 118.445 55.7056 117.506 57.3205C117.586 57.2976 117.666 57.2747 117.747 57.2633C117.586 57.1716 117.414 57.08 117.254 56.9884C117.197 56.954 117.094 56.954 117.048 57.0113C116.086 58.1452 113.555 59.2218 114.505 61.1115C114.585 61.0314 114.666 60.9512 114.746 60.871C114.437 60.6878 114.116 60.5045 113.807 60.3213C113.726 60.2755 113.612 60.2984 113.566 60.3785C112.123 62.9899 110.978 65.7501 110.165 68.6134C110.073 68.8425 110.405 68.9341 110.474 68.7165V68.7165Z" fill="#E8E8E8"/>
<path d="M102.376 57.0113C100.452 57.1487 99.4327 54.8924 99.7534 53.2661C100.063 51.6741 101.62 50.5517 103.212 50.5975C105.308 50.6433 106.385 52.6934 106.007 54.6061C105.675 56.3126 103.957 57.5725 102.239 56.8967C102.033 56.8166 101.941 57.1487 102.147 57.2289C103.521 57.7672 105.125 57.1373 105.881 55.8889C106.683 54.5603 106.591 52.6591 105.663 51.4221C104.724 50.1623 102.926 49.9905 101.563 50.5975C100.2 51.193 99.3067 52.5331 99.341 54.022C99.3754 55.6483 100.578 57.4809 102.365 57.3549C102.594 57.3434 102.605 56.9998 102.376 57.0113V57.0113Z" fill="#E8E8E8"/>
<path d="M119.957 31.8486C119.293 33.0855 118.525 34.2537 117.655 35.3533C117.517 35.5251 117.758 35.7656 117.895 35.5938C118.789 34.4714 119.579 33.2802 120.255 32.0204C120.358 31.8257 120.06 31.6539 119.957 31.8486V31.8486Z" fill="#E8E8E8"/>
<path d="M119.946 32.1235C120.358 33.2115 120.793 34.2996 121.24 35.3762C121.32 35.5823 121.652 35.4907 121.572 35.2845C121.125 34.2079 120.69 33.1199 120.278 32.0318C120.198 31.8257 119.866 31.9173 119.946 32.1235V32.1235Z" fill="#E8E8E8"/>
<path d="M119.865 32.2838C119.785 36.5444 119.235 40.7821 118.216 44.9167C118.159 45.1343 118.491 45.2259 118.548 45.0083C119.579 40.8393 120.129 36.5788 120.209 32.2838C120.22 32.0547 119.877 32.0547 119.865 32.2838V32.2838Z" fill="#E8E8E8"/>
<path d="M121.847 39.2817C122.145 41.7327 122.076 44.2066 121.629 46.6347C121.595 46.8523 121.916 46.9439 121.961 46.7263C122.408 44.2639 122.488 41.7671 122.19 39.2817C122.156 39.0641 121.813 39.0641 121.847 39.2817V39.2817Z" fill="#E8E8E8"/>
<path d="M120.53 44.0462C120.931 44.9625 121.629 45.7986 121.675 46.8294C121.687 47.0012 121.904 47.0699 121.996 46.921C122.397 46.2224 122.809 45.5237 123.21 44.8251C123.324 44.6304 123.027 44.4586 122.912 44.6533C122.511 45.3519 122.099 46.0506 121.698 46.7492C121.801 46.7836 121.916 46.8065 122.019 46.8408C121.973 45.7299 121.251 44.8709 120.828 43.8859C120.736 43.6683 120.438 43.8401 120.53 44.0462V44.0462Z" fill="#E8E8E8"/>
<path d="M42.3844 102.034C49.2907 101.392 56.2084 100.556 63.1376 100.27C70.1241 99.9837 77.1449 100.167 84.1314 100.35C88.14 100.453 92.1486 100.648 96.1343 101.026C96.3519 101.049 96.3519 100.705 96.1343 100.682C89.125 100.018 82.0927 99.9379 75.0604 99.8578C71.5328 99.8119 68.0052 99.7776 64.4891 99.8921C61.0646 99.9952 57.6515 100.282 54.2385 100.591C50.2871 100.957 46.3358 101.324 42.3844 101.69C42.1668 101.702 42.1668 102.045 42.3844 102.034V102.034Z" fill="#E8E8E8"/>
<path d="M78.3246 96.9715C81.1994 97.5098 84.0398 97.4869 86.9374 97.2235C89.9153 96.9486 92.8817 96.7768 95.8709 96.6394C101.872 96.376 107.874 96.1355 113.864 95.8835C117.288 95.7346 120.713 95.5972 124.137 95.4483C124.355 95.4368 124.355 95.0932 124.137 95.1047C118.125 95.3566 112.123 95.6086 106.11 95.8606C100.2 96.1125 94.256 96.2385 88.3576 96.7425C86.7542 96.8799 85.1507 97.0632 83.5473 97.0861C81.8293 97.109 80.1113 96.9486 78.4162 96.6279C78.1986 96.605 78.107 96.9372 78.3246 96.9715V96.9715Z" fill="#E8E8E8"/>
<path d="M0.396896 94.5435C5.73409 94.6923 11.0713 94.6694 16.4085 94.4747C16.6261 94.4633 16.6261 94.1197 16.4085 94.1311C11.0713 94.3258 5.73409 94.3488 0.396896 94.1999C0.167832 94.1884 0.167832 94.532 0.396896 94.5435V94.5435Z" fill="#E8E8E8"/>
<path d="M6.22658 99.1476C8.17363 98.7353 10.2352 98.9988 12.2052 99.0904C14.1866 99.1935 16.1565 99.2851 18.1379 99.3882C22.1695 99.5943 26.1895 99.8005 30.2211 99.9952C30.4387 100.007 30.4387 99.663 30.2211 99.6516C26.1208 99.4454 22.0091 99.2393 17.9089 99.0331C15.8587 98.93 13.8086 98.827 11.7585 98.7239C9.89161 98.6322 7.99037 98.4146 6.14641 98.8155C5.9288 98.8613 6.02042 99.1935 6.22658 99.1476V99.1476Z" fill="#E8E8E8"/>
<path d="M37.1044 90.4203C44.1825 90.9013 51.146 89.0688 58.2126 89.0917C58.4303 89.0917 58.4303 88.7481 58.2126 88.7481C51.146 88.7252 44.1825 90.5463 37.1044 90.0767C36.8868 90.0538 36.8868 90.4089 37.1044 90.4203V90.4203Z" fill="#E8E8E8"/>
<path d="M31.8016 54.8237C31.8589 54.629 31.9161 54.4343 32.0078 54.2511C32.065 54.1709 32.1109 54.1022 32.1681 54.022C32.4086 53.9991 32.6606 53.9647 32.9011 53.9418C32.9698 53.9876 33.0271 54.1251 33.0729 54.1938C33.2447 54.4343 33.428 54.6405 33.6914 54.8008C34.1953 55.0986 34.8024 55.1673 35.3407 54.9612C36.7494 54.4458 37.2763 52.5789 38.9942 52.7621C39.4524 52.8079 39.8876 52.9912 40.2197 53.3119C40.4717 53.5524 40.6664 53.8502 40.9298 54.0793C41.3994 54.4687 41.9835 54.5259 42.5447 54.3198C43.2319 54.0793 43.7588 53.5639 44.2742 53.0714C44.9728 52.4185 45.9921 51.6283 46.9199 52.3269C47.5269 52.7736 47.8819 53.4608 48.6378 53.7013C49.3479 53.9304 50.1039 53.7929 50.6994 53.3462C50.8712 53.2203 50.6994 52.911 50.5276 53.0485C49.703 53.6669 48.6722 53.5639 47.9506 52.8423C47.4696 52.3727 47.0573 51.7886 46.3472 51.7084C44.675 51.5023 43.8046 53.541 42.3844 54.0105C41.3078 54.3656 40.9527 53.4035 40.2426 52.8767C39.7158 52.4873 39.0515 52.3269 38.3987 52.43C37.7115 52.5331 37.1846 52.9454 36.7036 53.415C36.1424 53.9762 35.5468 54.7435 34.6764 54.7435C34.0923 54.7435 33.6456 54.4229 33.3249 53.9647C33.1416 53.7128 32.9927 53.5066 32.6606 53.4722C31.9391 53.4035 31.6298 54.1594 31.458 54.7206C31.4008 54.9382 31.7329 55.0299 31.8016 54.8237V54.8237Z" fill="#E8E8E8"/>
<path d="M49.4625 48.9024C49.8748 47.6998 51.3179 48.7192 51.8677 49.1658C52.3487 49.5553 52.9099 49.9561 53.5627 49.9332C54.6393 49.8874 55.212 48.7879 56.0939 48.3298C57.3194 47.6998 58.0638 49.3376 59.255 49.1773C59.7818 49.1086 60.0567 48.6848 60.3889 48.3183C60.7439 47.9289 61.1104 47.9289 61.6143 48.0434C62.0839 48.158 62.565 48.2725 63.0345 48.387C63.2522 48.4443 63.3438 48.1121 63.1262 48.0549C62.6566 47.9403 62.1756 47.8258 61.706 47.7113C61.3853 47.6311 61.0646 47.5395 60.7439 47.6311C60.114 47.8258 59.9307 48.6619 59.3008 48.8108C58.6251 48.9711 57.9608 48.2152 57.3767 47.9747C56.8842 47.7685 56.4031 47.7685 55.9336 48.0205C55.4296 48.2839 55.0517 48.7306 54.605 49.0857C54.3072 49.3262 53.9751 49.5438 53.5856 49.5667C52.9901 49.6011 52.4976 49.1887 52.0624 48.8452C51.5355 48.4328 50.9743 47.9403 50.2528 47.9976C49.7374 48.032 49.3136 48.3069 49.1418 48.7993C49.0616 49.0169 49.3938 49.1086 49.4625 48.9024V48.9024Z" fill="#E8E8E8"/>
<path d="M101.242 15.4819C101.139 17.6237 101.071 19.7769 101.048 21.9301C101.048 22.1477 101.391 22.1477 101.391 21.9301C101.414 19.7769 101.483 17.6351 101.586 15.4819C101.597 15.2643 101.254 15.2643 101.242 15.4819V15.4819Z" fill="#E8E8E8"/>
<path d="M101.471 15.6423C104.117 15.2758 106.809 14.9207 109.443 15.5392C109.66 15.585 109.752 15.2643 109.534 15.2071C106.843 14.5657 104.083 14.9322 101.38 15.3101C101.162 15.333 101.254 15.6652 101.471 15.6423V15.6423Z" fill="#E8E8E8"/>
<path d="M109.225 15.6537C109.283 20.006 109.202 24.3696 108.973 28.7218C108.962 28.9395 109.306 28.9395 109.317 28.7218C109.546 24.3696 109.626 20.0174 109.569 15.6537C109.569 15.4361 109.225 15.4361 109.225 15.6537V15.6537Z" fill="#E8E8E8"/>
<path d="M101.334 27.5536C101.391 28.1034 101.414 28.676 101.517 29.2143C101.575 29.4778 101.666 29.661 101.895 29.8214C102.617 30.2909 103.785 30.0161 104.575 29.9702C105.698 29.9015 106.832 29.8328 107.954 29.7641C108.458 29.7297 109.26 29.5923 108.95 28.8936C108.859 28.6875 108.561 28.8707 108.653 29.0654C108.71 29.1914 108.069 29.3976 107.954 29.4205C107.771 29.4549 107.576 29.4434 107.393 29.4549C107.061 29.4778 106.717 29.5007 106.385 29.5121C105.709 29.5579 105.033 29.5923 104.358 29.6381C103.739 29.6725 103.052 29.7984 102.434 29.661C101.655 29.4778 101.758 28.2179 101.678 27.5651C101.655 27.336 101.311 27.336 101.334 27.5536V27.5536Z" fill="#E8E8E8"/>
<path d="M99.2497 27.1298C98.2418 28.6073 97.1996 30.0619 96.1459 31.505C96.1115 31.5508 96.1115 31.631 96.1459 31.6768C96.3291 31.9631 96.6384 32.0776 96.9705 31.9746C97.463 31.8257 97.7035 31.2645 97.9555 30.875C98.3678 30.2337 98.8374 29.6266 99.3413 29.0425C99.5589 28.802 99.7766 28.5615 100.006 28.3324C100.269 28.069 100.716 27.5078 101.094 27.4505C101.311 27.4162 101.22 27.084 101.002 27.1184C100.658 27.1757 100.429 27.4505 100.177 27.6796C99.8453 27.9888 99.5246 28.3095 99.2153 28.6531C98.6198 29.3174 98.07 30.0275 97.589 30.772C97.4516 30.9781 97.337 31.2301 97.1652 31.4133C96.982 31.6768 96.7873 31.6997 96.5582 31.4821C96.6269 31.3904 96.6956 31.2988 96.7529 31.2072C97.0621 30.7834 97.3714 30.3597 97.6692 29.9359C98.2991 29.054 98.9176 28.1721 99.5246 27.2787C99.6735 27.1184 99.3757 26.9466 99.2497 27.1298V27.1298Z" fill="#E8E8E8"/>
<path d="M101.036 27.5536C102.456 27.588 103.819 26.729 104.381 25.4233C104.885 24.2436 104.61 22.7089 103.545 21.9301C102.319 21.0482 100.75 21.7125 99.7993 22.6745C99.2381 23.2472 98.7685 23.9688 98.654 24.7705C98.6082 25.0912 98.6196 25.4119 98.6998 25.7211C98.7456 25.9043 98.8143 26.0761 98.906 26.2365C98.9289 26.2823 99.4557 27.0268 99.2267 27.0153C99.009 26.9924 99.009 27.336 99.2267 27.3589C99.5817 27.3933 99.765 27.0726 99.6619 26.7519C99.5817 26.4885 99.3297 26.3052 99.1923 26.0647C98.9861 25.6867 98.9403 25.2515 98.9976 24.8277C99.1923 23.3617 100.75 21.827 102.262 21.8499C103.751 21.8614 104.529 23.5221 104.22 24.8277C103.877 26.2479 102.479 27.2444 101.036 27.1986C100.807 27.21 100.807 27.5536 101.036 27.5536V27.5536Z" fill="#E8E8E8"/>
<path d="M102.663 16.8563L102.651 16.8449C102.651 16.925 102.651 17.0052 102.651 17.0854C102.8 16.9136 103.831 16.925 104.106 16.8907C104.541 16.8449 104.988 16.8105 105.423 16.7876C105.858 16.7647 106.305 16.7418 106.751 16.7303C106.946 16.7303 107.965 16.822 108.034 16.6387C107.954 16.8449 108.286 16.9365 108.366 16.7303C108.378 16.7074 108.378 16.696 108.389 16.6731C108.412 16.6158 108.389 16.5471 108.343 16.5013C108.091 16.2493 107.633 16.3638 107.301 16.3638C106.671 16.3638 106.053 16.3867 105.423 16.4326C104.839 16.4669 104.255 16.5242 103.659 16.5814C103.361 16.6158 102.617 16.57 102.399 16.822C102.342 16.8907 102.33 16.9938 102.399 17.0625L102.411 17.0739C102.582 17.2572 102.823 17.0052 102.663 16.8563V16.8563Z" fill="#E8E8E8"/>
<path d="M102.502 18.5285C103.659 18.6888 104.782 18.643 105.938 18.5972C106.156 18.5858 106.156 18.2422 105.938 18.2536C104.804 18.2994 103.716 18.3452 102.594 18.1964C102.376 18.1734 102.285 18.5056 102.502 18.5285V18.5285Z" fill="#E8E8E8"/>
<path d="M101.723 19.8227C101.689 19.8571 101.655 19.9029 101.62 19.9372C101.517 20.0518 101.586 20.2236 101.746 20.235C103.739 20.2694 105.732 20.1778 107.713 19.9601C107.931 19.9372 107.931 19.5936 107.713 19.6165C105.732 19.8342 103.739 19.9258 101.746 19.8914C101.792 19.9945 101.827 20.0861 101.872 20.1892C101.907 20.1548 101.941 20.109 101.975 20.0747C102.113 19.9029 101.872 19.6624 101.723 19.8227V19.8227Z" fill="#E8E8E8"/>
<path d="M104.186 21.701C105.228 21.7812 106.27 21.7354 107.301 21.5636C107.519 21.5292 107.427 21.1971 107.21 21.2314C106.202 21.3918 105.194 21.4376 104.186 21.3574C103.957 21.346 103.957 21.6896 104.186 21.701V21.701Z" fill="#E8E8E8"/>
<path d="M101.391 26.3396C100.463 26.3854 99.6731 25.5722 99.9709 24.6331C100.2 23.8886 101.059 23.0983 101.838 22.9723C102.216 22.9151 102.628 23.0067 102.914 23.2701C103.338 23.6595 103.224 24.2322 103.029 24.7018C102.697 25.5264 102.09 26.2709 101.162 26.3739C100.944 26.3968 100.944 26.7404 101.162 26.7175C102.353 26.5916 103.201 25.5722 103.487 24.4498C103.762 23.3961 102.983 22.5257 101.895 22.6173C100.887 22.7089 99.7762 23.7282 99.5929 24.7247C99.3982 25.8356 100.303 26.7404 101.391 26.6832C101.609 26.6717 101.609 26.3281 101.391 26.3396V26.3396Z" fill="#E8E8E8"/>
<path d="M101.586 23.1212C101.128 24.1062 100.704 25.1026 100.326 26.1105C100.246 26.3167 100.578 26.4083 100.658 26.2021C101.036 25.2172 101.437 24.2436 101.884 23.293C101.975 23.0869 101.689 22.9151 101.586 23.1212V23.1212Z" fill="#E8E8E8"/>
<path d="M102.113 24.1062C101.815 24.7247 101.529 25.3431 101.231 25.9616C101.139 26.1563 101.437 26.3396 101.529 26.1334C101.826 25.5149 102.113 24.8965 102.411 24.278C102.502 24.0833 102.216 23.9 102.113 24.1062V24.1062Z" fill="#E8E8E8"/>
<path d="M16.9697 5.40311C16.9697 6.44535 16.9697 7.49905 16.9697 8.54129C16.9697 8.7589 17.3133 8.7589 17.3133 8.54129C17.3133 7.49905 17.3133 6.44535 17.3133 5.40311C17.3133 5.1855 16.9697 5.1855 16.9697 5.40311V5.40311Z" fill="#E8E8E8"/>
<path d="M17.1871 8.69018C18.1607 8.69018 19.1227 8.69018 20.0963 8.69018C20.3139 8.69018 20.3139 8.34659 20.0963 8.34659C19.1227 8.34659 18.1607 8.34659 17.1871 8.34659C16.9695 8.34659 16.9695 8.69018 17.1871 8.69018V8.69018Z" fill="#E8E8E8"/>
<path d="M20.3026 8.32367C20.3026 7.1898 20.3026 6.04448 20.3026 4.91061C20.3026 4.693 19.959 4.693 19.959 4.91061C19.959 6.04448 19.959 7.1898 19.959 8.32367C19.959 8.54128 20.3026 8.54128 20.3026 8.32367V8.32367Z" fill="#E8E8E8"/>
<path d="M20.1767 4.69301C19.1803 4.69301 18.1838 4.69301 17.1989 4.69301C16.9812 4.69301 16.9812 5.0366 17.1989 5.0366C18.1953 5.0366 19.1917 5.0366 20.1767 5.0366C20.3943 5.0366 20.3943 4.69301 20.1767 4.69301V4.69301Z" fill="#E8E8E8"/>
<path d="M18.4243 8.87343C18.4243 10.0417 18.4243 11.1984 18.4243 12.3667C18.4243 12.5843 18.7679 12.5843 18.7679 12.3667C18.7679 11.1984 18.7679 10.0417 18.7679 8.87343C18.7679 8.65582 18.4243 8.65582 18.4243 8.87343V8.87343Z" fill="#E8E8E8"/>
<path d="M14.3925 12.3209C15.6638 11.1068 16.9924 9.93858 18.3668 8.82762C18.5386 8.69018 18.2981 8.44967 18.1263 8.5871C16.7519 9.69807 15.4348 10.8548 14.152 12.0803C13.9917 12.2292 14.2322 12.4697 14.3925 12.3209V12.3209Z" fill="#E8E8E8"/>
<path d="M18.7906 8.94215C20.165 9.98439 21.5394 11.0266 22.9138 12.0689C23.0856 12.2063 23.2574 11.9085 23.0856 11.7711C21.7112 10.7288 20.3368 9.68661 18.9624 8.64436C18.7906 8.50693 18.6188 8.80471 18.7906 8.94215V8.94215Z" fill="#E8E8E8"/>
<path d="M13.0641 12.7332C13.82 12.7332 14.5759 12.7332 15.3433 12.7332C15.5609 12.7332 15.5609 12.3896 15.3433 12.3896C14.5874 12.3896 13.8315 12.3896 13.0641 12.3896C12.8465 12.3896 12.8465 12.7332 13.0641 12.7332V12.7332Z" fill="#E8E8E8"/>
<path d="M15.1372 12.8019C15.1372 13.6609 15.1372 14.5313 15.1372 15.3903C15.1372 15.6079 15.4808 15.6079 15.4808 15.3903C15.4808 14.5313 15.4808 13.6609 15.4808 12.8019C15.4808 12.5728 15.1372 12.5728 15.1372 12.8019V12.8019Z" fill="#E8E8E8"/>
<path d="M12.8123 12.6415C12.8123 13.6494 12.8123 14.6573 12.8123 15.6652C12.8123 15.8828 13.1559 15.8828 13.1559 15.6652C13.1559 14.6573 13.1559 13.6494 13.1559 12.6415C13.1559 12.4125 12.8123 12.4125 12.8123 12.6415V12.6415Z" fill="#E8E8E8"/>
<path d="M12.9496 15.8713C13.6597 15.8713 14.3583 15.8713 15.0684 15.8713C15.286 15.8713 15.286 15.5277 15.0684 15.5277C14.3583 15.5277 13.6597 15.5277 12.9496 15.5277C12.732 15.5277 12.732 15.8713 12.9496 15.8713V15.8713Z" fill="#E8E8E8"/>
<path d="M17.3706 12.7217C17.3706 13.7181 17.3706 14.7146 17.3706 15.6995C17.3706 15.9172 17.7142 15.9172 17.7142 15.6995C17.7142 14.7031 17.7142 13.7067 17.7142 12.7217C17.7142 12.4926 17.3706 12.4926 17.3706 12.7217V12.7217Z" fill="#E8E8E8"/>
<path d="M17.5424 15.7912C18.241 15.7912 18.9282 15.7912 19.6268 15.7912C19.8445 15.7912 19.8445 15.4476 19.6268 15.4476C18.9282 15.4476 18.241 15.4476 17.5424 15.4476C17.3247 15.4476 17.3247 15.7912 17.5424 15.7912V15.7912Z" fill="#E8E8E8"/>
<path d="M17.6569 12.8935C18.2753 12.8935 18.8824 12.8935 19.5008 12.8935C19.7184 12.8935 19.7184 12.5499 19.5008 12.5499C18.8824 12.5499 18.2753 12.5499 17.6569 12.5499C17.4392 12.5499 17.4392 12.8935 17.6569 12.8935V12.8935Z" fill="#E8E8E8"/>
<path d="M19.375 12.6759C19.375 13.6151 19.375 14.5542 19.375 15.5048C19.375 15.7225 19.7186 15.7225 19.7186 15.5048C19.7186 14.5657 19.7186 13.6265 19.7186 12.6759C19.7186 12.4583 19.375 12.4583 19.375 12.6759V12.6759Z" fill="#E8E8E8"/>
<path d="M22.2267 12.6759C22.1923 13.4204 22.1694 14.1648 22.1694 14.9093C22.1694 15.1269 22.513 15.1269 22.513 14.9093C22.513 14.1648 22.5359 13.4204 22.5703 12.6759C22.5817 12.4583 22.2382 12.4583 22.2267 12.6759V12.6759Z" fill="#E8E8E8"/>
<path d="M22.3755 12.7561C23.1315 12.6759 23.8874 12.5843 24.6433 12.5041C24.8609 12.4812 24.8609 12.1376 24.6433 12.1605C23.8874 12.2407 23.1315 12.3323 22.3755 12.4125C22.1579 12.4354 22.1465 12.779 22.3755 12.7561V12.7561Z" fill="#E8E8E8"/>
<path d="M24.5288 12.401C24.4486 13.1684 24.4715 13.9243 24.609 14.6802C24.6433 14.8978 24.9755 14.8062 24.9411 14.5886C24.8151 13.8556 24.7922 13.134 24.8724 12.401C24.8953 12.1834 24.5517 12.1834 24.5288 12.401V12.401Z" fill="#E8E8E8"/>
<path d="M22.4902 15.2071C23.2461 15.0925 24.002 14.978 24.758 14.8635C24.9756 14.8291 24.8839 14.497 24.6663 14.5313C23.9104 14.6459 23.1545 14.7604 22.3986 14.8749C22.181 14.9093 22.2726 15.23 22.4902 15.2071V15.2071Z" fill="#E8E8E8"/>
<path d="M18.3785 15.8942C17.9547 16.5356 17.5882 17.2114 17.2561 17.8986C17.1644 18.0933 17.4622 18.2765 17.5539 18.0704C17.886 17.3717 18.264 16.7074 18.6763 16.066C18.7908 15.8828 18.493 15.711 18.3785 15.8942V15.8942Z" fill="#E8E8E8"/>
<path d="M18.4814 16.0317C18.9051 16.6043 19.2716 17.1999 19.5809 17.8298C19.684 18.0245 19.9817 17.8527 19.8787 17.658C19.558 17.0281 19.1915 16.4211 18.7792 15.8599C18.6532 15.6766 18.3554 15.8484 18.4814 16.0317V16.0317Z" fill="#E8E8E8"/>
<path d="M16.6376 18.3452C16.8781 18.3452 17.1186 18.3452 17.3706 18.3567C17.4851 18.3567 17.5882 18.3681 17.7027 18.3796C17.9089 18.3911 17.886 18.3223 17.9203 18.5056C18.0005 18.9408 17.9089 19.502 17.8745 19.9487C17.8516 20.1663 18.1952 20.1663 18.2181 19.9487C18.241 19.6051 18.2639 19.25 18.2639 18.9064C18.2639 18.7117 18.3212 18.3911 18.2181 18.2078C18.115 18.036 17.8745 18.0589 17.7027 18.0475C17.3477 18.0246 16.9926 18.0131 16.6376 18.0131C16.42 18.0016 16.42 18.3452 16.6376 18.3452V18.3452Z" fill="#E8E8E8"/>
<path d="M16.4086 18.3338C16.4429 18.7347 16.4773 19.1241 16.5116 19.5249C16.5346 19.8456 16.4887 20.3152 16.6147 20.6244C16.6605 20.7504 16.7178 20.7962 16.8438 20.8191C17.1416 20.8764 17.5882 20.7275 17.886 20.6817C18.1036 20.6473 18.012 20.3266 17.7944 20.3496C17.5882 20.3725 17.2676 20.4984 17.0729 20.4526C16.8552 20.3954 16.9011 20.0976 16.8896 19.8685C16.8438 19.3531 16.798 18.8492 16.7522 18.3338C16.7293 18.1162 16.3857 18.1047 16.4086 18.3338V18.3338Z" fill="#E8E8E8"/>
<path d="M18.9967 18.288C18.9738 18.6201 18.9624 18.9637 18.9738 19.2959C18.9738 19.376 19.0769 20.1319 19.0426 20.1548C19.0998 20.1434 19.1571 20.1205 19.2144 20.109C19.2029 20.109 19.1914 20.0976 19.1685 20.0976C19.2144 20.1548 19.2487 20.2121 19.2945 20.2579C19.2945 20.2465 19.2945 20.235 19.2945 20.2121C19.2487 20.2694 19.2144 20.3266 19.1685 20.3725C19.18 20.3725 19.1914 20.3725 19.2029 20.361C19.4205 20.3152 19.3289 19.983 19.1113 20.0289C19.0998 20.0289 19.0884 20.0289 19.0769 20.0403C18.9967 20.0518 18.9509 20.1319 18.9509 20.2007C18.9509 20.2121 18.9509 20.2236 18.9509 20.2465C18.9509 20.3152 19.0082 20.3954 19.0769 20.4068C19.3747 20.4641 19.3747 20.1892 19.3632 19.9716C19.3174 19.3989 19.2945 18.8377 19.3403 18.2536C19.3518 18.0589 19.0082 18.0704 18.9967 18.288V18.288Z" fill="#E8E8E8"/>
<path d="M19.2032 18.3682C19.2032 18.288 19.9362 18.2651 20.0393 18.2765C20.3256 18.3223 20.2684 18.3452 20.3142 18.5514C20.3485 18.6888 20.3027 18.8835 20.2913 19.021C20.2798 19.3073 20.2798 19.5822 20.2913 19.8685C20.2913 20.0289 20.4058 20.5099 20.3256 20.6244C20.4058 20.6015 20.486 20.5786 20.5661 20.5672C20.5547 20.5672 20.5432 20.5557 20.5318 20.5557C20.5547 20.6244 20.5891 20.6817 20.612 20.7504C20.612 20.739 20.6234 20.7275 20.6234 20.7161C20.6807 20.4985 20.3485 20.4068 20.2913 20.6244C20.2913 20.6359 20.2798 20.6473 20.2798 20.6588C20.2569 20.7275 20.2913 20.8191 20.36 20.8535C20.3714 20.8535 20.3829 20.865 20.3943 20.865C20.486 20.8993 20.5776 20.8879 20.6349 20.8077C20.715 20.6932 20.6807 20.5786 20.6692 20.4412C20.6578 20.1319 20.6349 19.8113 20.6349 19.502C20.6349 19.1928 20.6463 18.8721 20.6578 18.5629C20.6692 18.4254 20.7036 18.2422 20.612 18.1162C20.4173 17.8528 19.7988 17.9329 19.5468 17.9673C19.2605 18.0017 18.8825 18.036 18.8596 18.3796C18.8596 18.5858 19.2032 18.5858 19.2032 18.3682V18.3682Z" fill="#E8E8E8"/>
<path d="M19.2375 20.6931C19.5811 20.6702 19.9247 20.7046 20.2568 20.7848C20.4744 20.842 20.566 20.5099 20.3484 20.4526C19.9819 20.3496 19.6154 20.3152 19.2375 20.3381C19.0084 20.361 19.0084 20.7046 19.2375 20.6931V20.6931Z" fill="#E8E8E8"/>
<path d="M23.5438 15.2758C23.2689 15.8828 23.0284 16.5127 22.8108 17.1426C22.7421 17.3488 23.0742 17.4404 23.143 17.2343C23.3491 16.6273 23.5782 16.0317 23.8416 15.4476C23.9332 15.2414 23.6355 15.0696 23.5438 15.2758V15.2758Z" fill="#E8E8E8"/>
<path d="M21.7915 17.9902C22.3642 17.8298 22.9483 17.7497 23.5553 17.7726C23.7729 17.784 23.7729 17.4404 23.5553 17.429C22.9254 17.4061 22.3069 17.4862 21.6999 17.658C21.4823 17.7153 21.5739 18.0474 21.7915 17.9902V17.9902Z" fill="#E8E8E8"/>
<path d="M21.78 17.8298C21.6769 18.1505 21.7571 18.4483 21.7915 18.769C21.8258 19.1584 21.8258 19.5364 21.8144 19.9258C21.7915 20.4297 21.9175 20.487 22.4214 20.4412C22.765 20.4068 23.2346 20.4984 23.3606 20.1205C23.4751 19.754 23.4407 19.2615 23.4751 18.8721C23.5095 18.4598 23.5553 18.036 23.5896 17.6237C23.6125 17.4061 23.2689 17.4061 23.246 17.6237C23.2002 18.1047 23.1544 18.5972 23.1086 19.0782C23.0857 19.273 23.0971 19.5135 23.0513 19.7082C22.9826 20.0289 22.9482 20.0518 22.6161 20.0861C22.513 20.0976 22.4214 20.109 22.3183 20.1205C22.1236 20.1892 22.0663 20.1319 22.1465 19.9372C22.1007 19.7769 22.1694 19.5249 22.158 19.3531C22.1465 18.9179 21.9747 18.3338 22.1007 17.9215C22.1809 17.7039 21.8487 17.6122 21.78 17.8298V17.8298Z" fill="#E8E8E8"/>
<path d="M24.0248 15.5965C24.2882 15.9973 24.5173 16.4211 24.7349 16.8563C24.8265 17.051 25.1243 16.8792 25.0327 16.6845C24.8265 16.2493 24.586 15.837 24.3226 15.4247C24.1966 15.23 23.8988 15.4018 24.0248 15.5965V15.5965Z" fill="#E8E8E8"/>
<path d="M24.4142 17.3603C24.9869 17.3603 25.5596 17.3603 26.1322 17.3603C26.3498 17.3603 26.3498 17.0167 26.1322 17.0167C26.0979 17.0167 26.0635 17.0167 26.0291 17.0167C25.8115 17.0167 25.8115 17.3603 26.0291 17.3603C26.0635 17.3603 26.0979 17.3603 26.1322 17.3603C26.3498 17.3603 26.3498 17.0167 26.1322 17.0167C25.5596 17.0167 24.9869 17.0167 24.4142 17.0167C24.1852 17.0167 24.1852 17.3603 24.4142 17.3603V17.3603Z" fill="#E8E8E8"/>
<path d="M24.2426 17.3488C24.2884 17.784 24.3227 18.2193 24.3342 18.6545C24.3456 18.9637 24.2426 19.4906 24.38 19.7769C24.4602 19.9487 24.5632 19.9716 24.7465 19.9716C25.1703 19.9601 25.6284 19.8571 26.0522 19.7998C26.1209 19.7883 26.1781 19.6967 26.1781 19.6395C26.1667 18.8606 26.1552 18.0933 26.1438 17.3145C26.1438 17.0968 25.8002 17.0968 25.8002 17.3145C25.8116 18.0933 25.8231 18.8606 25.8345 19.6395C25.8804 19.5822 25.9147 19.5249 25.9605 19.4791C25.6857 19.5135 25.4108 19.5478 25.1359 19.5936C25.0443 19.6051 24.7809 19.6853 24.7007 19.6165C24.6434 19.5707 24.7007 19.2157 24.7007 19.147C24.6892 18.5514 24.6549 17.9558 24.5976 17.3717C24.5632 17.1312 24.2196 17.1312 24.2426 17.3488V17.3488Z" fill="#E8E8E8"/>
<path d="M11.5295 18.288C12.125 17.7382 12.7321 17.2228 13.3849 16.7532C13.5567 16.6273 13.3849 16.3295 13.2131 16.4555C12.5374 16.9479 11.896 17.4748 11.289 18.0475C11.1286 18.1963 11.3691 18.4369 11.5295 18.288V18.288Z" fill="#E8E8E8"/>
<path d="M13.2817 16.6043C13.6253 17.0968 13.9116 17.6122 14.1407 18.1505C14.2323 18.3567 14.5301 18.1734 14.4384 17.9787C14.1979 17.429 13.9116 16.9136 13.5794 16.4325C13.4535 16.2493 13.1557 16.4211 13.2817 16.6043V16.6043Z" fill="#E8E8E8"/>
<path d="M10.0063 18.9179C10.3155 18.895 10.6133 18.8721 10.9225 18.8492C11.06 18.8377 11.2089 18.8034 11.3349 18.8148C11.4952 18.7576 11.541 18.769 11.4723 18.8606C11.4265 18.9294 11.4036 18.9981 11.415 19.0783C11.289 19.6395 11.2661 20.235 11.2432 20.8077C11.3463 20.7619 11.4379 20.7275 11.541 20.6817C11.5296 20.6702 11.5181 20.6588 11.5067 20.6359C11.3578 20.4755 11.1172 20.7161 11.2661 20.8764C11.2776 20.8879 11.289 20.8993 11.3005 20.9222C11.4036 21.0368 11.5868 20.9451 11.5983 20.7962C11.6097 20.3037 11.6555 19.8113 11.7243 19.3302C11.7586 19.1241 11.9075 18.7805 11.7815 18.5743C11.6785 18.414 11.5067 18.4483 11.3463 18.4598C10.8996 18.4941 10.4644 18.5285 10.0177 18.5629C9.78868 18.5972 9.78868 18.9408 10.0063 18.9179V18.9179Z" fill="#E8E8E8"/>
<path d="M10.2353 18.5858C10.2238 18.5858 10.2124 18.5858 10.1894 18.5858C10.1322 18.5858 10.0749 18.6201 10.0406 18.6659C9.8573 18.9752 9.86876 19.5135 9.81149 19.8685C9.73132 20.3725 9.65115 20.8764 9.57097 21.3803C9.55952 21.472 9.59388 21.575 9.68551 21.5865C10.2238 21.701 10.7277 21.6781 11.2431 21.4834C11.4493 21.4032 11.3577 21.0711 11.1515 21.1513C10.6934 21.3231 10.2582 21.3574 9.77713 21.2544C9.81149 21.3231 9.8573 21.3918 9.89166 21.4605C9.92602 21.2314 10.3269 18.9294 10.2124 18.9179C10.4529 18.9523 10.4529 18.6087 10.2353 18.5858V18.5858Z" fill="#E8E8E8"/>
<path d="M13.3504 18.5285L13.339 18.5399C13.4192 18.5399 13.4993 18.5399 13.5795 18.5399C13.568 18.5399 13.568 18.5285 13.5566 18.5285C13.5566 18.6087 13.5566 18.6888 13.5566 18.769C13.568 18.7575 13.7742 18.7575 13.82 18.7575C13.946 18.7461 14.0834 18.7346 14.2094 18.7346C14.4499 18.7232 14.6905 18.7346 14.931 18.7575C14.8852 18.6545 14.8508 18.5628 14.805 18.4598C14.7821 18.4712 14.7592 18.4941 14.7477 18.5056C14.5301 18.5285 14.5301 18.8721 14.7477 18.8492C14.8737 18.8377 14.9653 18.8034 15.057 18.7003C15.16 18.5857 15.0913 18.4139 14.931 18.4025C14.5988 18.3796 14.2667 18.3681 13.9345 18.391C13.7742 18.4025 13.4421 18.3681 13.3275 18.517C13.2703 18.5857 13.2474 18.7003 13.3275 18.7575C13.339 18.7575 13.339 18.769 13.3504 18.769C13.4192 18.8263 13.5337 18.8492 13.591 18.769L13.6024 18.7575C13.7398 18.6087 13.4993 18.3681 13.3504 18.5285V18.5285Z" fill="#E8E8E8"/>
<path d="M13.2131 18.6087C13.1788 19.0782 13.1444 19.5478 13.1215 20.0174C13.11 20.2808 12.9611 20.9566 13.1215 21.1971C13.2017 21.3116 13.2818 21.3574 13.4307 21.346C13.5796 21.346 13.74 21.2429 13.8774 21.2085C14.1523 21.1284 14.4386 21.1055 14.7249 21.1055C14.9425 21.1055 14.9425 20.7619 14.7249 20.7619C14.473 20.7619 14.221 20.7848 13.969 20.842C13.8545 20.8649 13.6369 20.9909 13.5338 20.968C13.4536 21.0253 13.4193 21.0138 13.4422 20.9222C13.4307 20.8306 13.4307 20.739 13.4422 20.6359C13.4536 19.9716 13.5109 19.2959 13.5567 18.6316C13.5796 18.3796 13.236 18.3796 13.2131 18.6087V18.6087Z" fill="#E8E8E8"/>
<path d="M14.6905 18.643C14.5988 19.4104 14.553 20.1778 14.5645 20.9566C14.5645 21.1742 14.9081 21.1742 14.9081 20.9566C14.8966 20.1778 14.9424 19.4104 15.0341 18.643C15.0684 18.4254 14.7248 18.4254 14.6905 18.643V18.643Z" fill="#E8E8E8"/>
<path d="M106.179 66.6893C108.882 72.6335 110.771 78.9098 111.814 85.358C111.848 85.5756 112.18 85.484 112.146 85.2664C111.092 78.7953 109.191 72.4846 106.476 66.5175C106.385 66.3228 106.087 66.4946 106.179 66.6893V66.6893Z" fill="#E8E8E8"/>
<path d="M120.438 56.6333C117.094 61.7415 114.185 67.1245 112.123 72.8854C112.043 73.0916 112.375 73.1832 112.455 72.9771C114.505 67.239 117.403 61.8904 120.736 56.8051C120.85 56.6219 120.553 56.4501 120.438 56.6333V56.6333Z" fill="#E8E8E8"/>
<path d="M105.011 72.9656C106.866 73.4695 108.458 74.6149 109.523 76.2183C109.649 76.4016 109.947 76.2298 109.821 76.0465C108.71 74.3743 107.049 73.1603 105.102 72.6335C104.885 72.5762 104.793 72.9083 105.011 72.9656V72.9656Z" fill="#E8E8E8"/>
<path d="M109.477 68.2125C108.847 69.2548 108.424 70.3886 108.252 71.6027C108.217 71.8203 108.55 71.9119 108.584 71.6943C108.756 70.5146 109.157 69.4037 109.775 68.3843C109.89 68.2011 109.592 68.0293 109.477 68.2125V68.2125Z" fill="#E8E8E8"/>
<path d="M113.039 61.7758C113.601 62.3943 113.99 63.1044 114.288 63.8717C114.425 64.2153 114.54 64.5704 114.643 64.914C114.746 65.2461 114.986 65.7386 114.849 66.0708C114.769 66.2769 115.101 66.3685 115.181 66.1624C115.319 65.8302 115.181 65.4981 115.078 65.1774C114.941 64.7078 114.792 64.2382 114.608 63.7801C114.288 62.9555 113.864 62.1881 113.268 61.5238C113.131 61.3635 112.891 61.604 113.039 61.7758V61.7758Z" fill="#E8E8E8"/>
<path d="M116.922 63.0929C118.353 61.4437 120.209 60.2755 122.316 59.7028C122.534 59.6455 122.442 59.3134 122.225 59.3707C120.071 59.9548 118.147 61.1574 116.681 62.841C116.544 63.0128 116.784 63.2647 116.922 63.0929V63.0929Z" fill="#E8E8E8"/>
<path d="M112.879 72.2899C113.91 71.3736 115.124 70.7322 116.406 70.2512C116.991 70.0336 117.575 69.8618 118.17 69.69C118.502 69.5984 118.823 69.5182 119.155 69.4266C119.316 69.3922 119.991 69.1173 120.117 69.186C120.094 69.1059 120.072 69.0257 120.06 68.9455C120.049 68.957 120.049 68.9684 120.037 68.9799C120.117 68.957 120.198 68.9341 120.278 68.9226C120.266 68.9226 120.255 68.9112 120.243 68.9112C120.049 68.8081 119.877 69.1059 120.072 69.2089C120.083 69.2089 120.094 69.2204 120.106 69.2204C120.186 69.2662 120.289 69.2433 120.346 69.1631C120.358 69.1517 120.358 69.1402 120.369 69.1288C120.415 69.0486 120.392 68.9455 120.312 68.8883C120.152 68.7966 119.98 68.8768 119.808 68.9112C119.419 69.0028 119.029 69.0944 118.64 69.1975C117.895 69.3922 117.151 69.6098 116.418 69.8618C115.044 70.3543 113.738 71.03 112.65 72.015C112.478 72.1868 112.719 72.4388 112.879 72.2899V72.2899Z" fill="#E8E8E8"/>
<path d="M107.038 86.4231C109.637 87.0531 112.283 86.5835 114.883 86.2742C117.701 85.9421 120.529 85.8848 123.358 85.839C123.576 85.839 123.576 85.4954 123.358 85.4954C120.598 85.5412 117.838 85.5985 115.101 85.9077C112.455 86.217 109.763 86.7324 107.129 86.091C106.923 86.0337 106.831 86.3659 107.038 86.4231V86.4231Z" fill="#E8E8E8"/>
<path d="M115.238 85.4496C119.865 85.2091 124.492 84.9571 129.119 84.7166C129.337 84.7051 129.337 84.3616 129.119 84.373C124.492 84.6135 119.865 84.8655 115.238 85.106C115.021 85.1175 115.021 85.4611 115.238 85.4496V85.4496Z" fill="#E8E8E8"/>
<path d="M101.987 52.3842C100.853 52.6018 99.4672 51.5137 99.5016 50.3112C99.5474 48.9482 101.254 48.4901 102.342 48.4786C103.545 48.4786 104.392 49.4063 104.106 50.6204C103.98 51.1472 103.648 51.5825 103.235 51.9146C102.995 52.1093 102.021 52.8194 101.746 52.4758C101.609 52.304 101.368 52.5445 101.506 52.7163C101.872 53.1745 102.628 52.7049 103.018 52.4873C103.613 52.1322 104.152 51.5939 104.381 50.9296C104.839 49.5896 104.026 48.2496 102.617 48.1465C101.277 48.0434 99.2038 48.6619 99.1694 50.3112C99.1465 51.7543 100.727 52.9683 102.09 52.7163C102.296 52.682 102.205 52.3498 101.987 52.3842V52.3842Z" fill="#E8E8E8"/>
<path d="M14.0721 57.7786C13.6483 58.2597 13.2818 58.7865 12.9725 59.3592C12.8695 59.5539 13.1672 59.7257 13.2703 59.531C13.5681 58.9927 13.9117 58.4887 14.324 58.0192C14.4615 57.8588 14.2209 57.6068 14.0721 57.7786V57.7786Z" fill="#161616"/>
<path d="M14.0605 57.9161C14.4041 58.3971 14.7477 58.8667 15.0913 59.3477C15.2173 59.531 15.5151 59.3592 15.3891 59.176C15.0455 58.6949 14.7019 58.2253 14.3583 57.7443C14.2209 57.561 13.9231 57.7328 14.0605 57.9161V57.9161Z" fill="#161616"/>
<path d="M14.0376 58.5918C14.1407 62.6348 14.2323 66.6778 14.3354 70.7322C14.3354 70.9498 14.679 70.9498 14.679 70.7322C14.5759 66.6892 14.4843 62.6463 14.3812 58.5918C14.3698 58.3742 14.0262 58.3628 14.0376 58.5918V58.5918Z" fill="#161616"/>
<path d="M14.7135 71.0529C19.7987 71.0529 24.884 71.0529 29.9692 71.0529C30.1868 71.0529 30.1868 70.7093 29.9692 70.7093C24.884 70.7093 19.7987 70.7093 14.7135 70.7093C14.4959 70.7093 14.4959 71.0529 14.7135 71.0529V71.0529Z" fill="#161616"/>
<path d="M29.3048 70.7093C29.6598 70.8468 30.0034 70.9842 30.3585 71.1216C30.3127 70.9957 30.2554 70.8697 30.2096 70.7437C30.0378 71.0529 29.7973 71.2934 29.4995 71.4767C29.2131 71.6485 29.4766 72.0952 29.7629 71.9234C30.1409 71.7058 30.4501 71.3851 30.6677 71.0071C30.7593 70.8468 30.6677 70.6864 30.5188 70.6292C30.1638 70.4917 29.8202 70.3543 29.4651 70.2168C29.133 70.0909 28.9955 70.5833 29.3048 70.7093V70.7093Z" fill="#161616"/>
<path d="M117.265 8.85052C116.807 8.2435 117.46 7.31579 118.17 7.77391C118.491 7.98007 118.64 8.40384 118.411 8.73598C118.205 9.03377 117.781 9.15975 117.46 8.99941C117.265 8.89633 117.094 9.19411 117.288 9.29719C117.758 9.52626 118.331 9.38882 118.663 8.9765C119.018 8.52983 118.892 7.8999 118.457 7.5563C118.033 7.22416 117.437 7.22416 117.071 7.63648C116.739 8.01443 116.681 8.62145 116.991 9.03377C117.094 9.19411 117.391 9.02231 117.265 8.85052V8.85052Z" fill="#5222D0"/>
<path d="M126.795 52.4071C126.772 51.8688 127.173 51.5023 127.7 51.5023C127.917 51.5023 128.089 51.5596 128.295 51.4679C128.685 51.2961 128.833 50.8495 128.959 50.4715C129.143 49.9217 129.28 49.6583 129.967 49.8301C130.151 49.8759 130.265 49.9676 130.46 49.8988C131.032 49.6812 130.689 48.6963 131.559 48.8566C131.777 48.9024 131.869 48.5703 131.651 48.5245C131.376 48.4672 131.113 48.4901 130.872 48.6619C130.654 48.8222 130.632 49.0169 130.506 49.2231C130.494 49.4407 130.345 49.5323 130.07 49.498C130.013 49.4636 129.944 49.4293 129.887 49.4064C129.761 49.3949 129.692 49.3262 129.555 49.3376C129.303 49.3491 129.108 49.5094 128.959 49.6927C128.742 49.9561 128.685 50.2768 128.559 50.5975C128.433 50.9182 128.307 51.1472 127.917 51.1816C127.745 51.1931 127.585 51.1358 127.413 51.1587C126.806 51.2503 126.417 51.8115 126.44 52.4071C126.463 52.6362 126.806 52.6362 126.795 52.4071V52.4071Z" fill="#5222D0"/>
<path d="M18.1381 70.4001C19.753 67.1588 20.0049 63.5053 20.9556 60.0579C21.1961 59.176 21.4366 58.1452 22.1009 57.4809C23.0744 56.5074 24.3113 57.1946 24.7122 58.3399C25.01 59.2103 25.0214 60.2182 25.0787 61.1345C25.136 62.1194 25.1818 63.1044 25.2391 64.0894C25.365 66.1968 25.5827 68.3156 26.2927 70.3199C26.3615 70.5261 26.6936 70.4345 26.6249 70.2283C25.8804 68.1209 25.6743 65.8875 25.5597 63.6656C25.5025 62.5776 25.4567 61.4781 25.3765 60.39C25.3078 59.5196 25.2734 58.5689 24.8611 57.7787C24.5404 57.1602 23.9219 56.6562 23.2004 56.6562C22.4559 56.6562 21.8375 57.1716 21.4595 57.7672C20.967 58.5575 20.7379 59.5539 20.5089 60.4473C20.2569 61.4437 20.0507 62.4516 19.8446 63.4595C19.3865 65.773 18.9169 68.098 17.8517 70.2283C17.7372 70.423 18.035 70.5948 18.1381 70.4001V70.4001Z" fill="#5222D0"/>
<path d="M19.7071 56.1981C19.4781 55.866 19.9476 55.4193 20.2225 55.7858C20.4859 56.1294 19.9935 56.473 19.7186 56.2095C19.5582 56.0607 19.3177 56.3012 19.4781 56.4501C19.7186 56.6791 20.108 56.702 20.3829 56.5073C20.6921 56.2897 20.7265 55.8774 20.4974 55.5796C20.2683 55.2818 19.8446 55.2017 19.5582 55.4536C19.3063 55.6827 19.2261 56.0836 19.4208 56.3699C19.5353 56.5531 19.8331 56.3813 19.7071 56.1981V56.1981Z" fill="#5222D0"/>
<path d="M22.238 54.6748C22.0548 54.4114 22.4556 54.1709 22.6274 54.4458C22.8107 54.7436 22.2953 55.0757 22.1235 54.7436C22.0204 54.5489 21.7341 54.7207 21.8257 54.9154C21.9746 55.2246 22.3754 55.3048 22.6618 55.133C22.9596 54.9612 23.097 54.5718 22.9137 54.2625C22.7534 53.9991 22.3754 53.8617 22.1006 54.0335C21.8371 54.2053 21.7455 54.5718 21.9173 54.8352C22.0662 55.0299 22.364 54.8581 22.238 54.6748V54.6748Z" fill="#5222D0"/>
<path d="M21.2418 52.1551C21.1502 51.8917 21.4365 51.6168 21.6656 51.8344C21.8946 52.0521 21.6312 52.3613 21.3678 52.2697C21.1616 52.2009 21.07 52.5331 21.2761 52.6018C21.8717 52.7965 22.3757 52.0406 21.9061 51.5939C21.6999 51.3878 21.3792 51.3534 21.1387 51.5252C20.9211 51.6856 20.8066 51.9833 20.9096 52.2468C20.9898 52.4529 21.322 52.3727 21.2418 52.1551V52.1551Z" fill="#5222D0"/>
<path d="M25.6171 55.2131C25.5827 55.1902 25.6285 55.2246 25.64 55.2475C25.64 55.2589 25.64 55.2704 25.64 55.2819C25.64 55.2933 25.64 55.2933 25.64 55.2704V55.2819C25.6629 55.2704 25.64 55.2819 25.64 55.2819C25.6285 55.2819 25.6743 55.2819 25.6858 55.2819C25.7201 55.2819 25.7545 55.2933 25.7889 55.3048C25.743 55.2475 25.7087 55.1902 25.6629 55.1444C25.6629 55.236 25.6629 55.3277 25.6629 55.4193C25.7087 55.362 25.743 55.3048 25.7889 55.2589C25.6972 55.2933 25.6056 55.3048 25.514 55.2819C25.3078 55.2131 25.2162 55.5453 25.4224 55.614C25.5713 55.6598 25.743 55.6598 25.8805 55.5911C25.9492 55.5567 26.0065 55.5109 26.0065 55.4307C26.0065 55.3391 26.0065 55.2475 26.0065 55.1559C26.0065 55.0757 25.9492 55.007 25.8805 54.9955C25.6972 54.9497 25.4796 54.9268 25.3651 55.1101C25.2735 55.2475 25.2849 55.4651 25.4567 55.5338C25.5369 55.5796 25.64 55.5567 25.6972 55.4766C25.7316 55.3735 25.7087 55.2589 25.6171 55.2131V55.2131Z" fill="#5222D0"/>
<path d="M44.744 9.61789C44.8012 9.6408 44.6752 10.2135 44.7325 10.3509C44.8127 10.5227 44.9959 10.6258 45.1792 10.6487C45.4311 10.6945 45.6488 10.58 45.8549 10.454C46.0611 10.328 46.5536 9.89277 46.7025 10.3738C46.7368 10.4769 46.6223 10.7289 46.6566 10.8663C46.7597 11.3244 47.1949 11.3015 47.5042 11.061C47.6187 10.9694 47.6874 10.8548 47.7791 10.7518C47.8936 10.4769 48.0654 10.4196 48.283 10.58C48.283 10.6487 48.2945 10.7174 48.3174 10.7747C48.4319 10.9465 48.4892 11.061 48.7182 11.0495C48.9358 11.0381 48.9358 10.6945 48.7182 10.7059C48.7297 10.7059 48.4777 10.1906 48.3403 10.1333C48.1799 10.0646 47.9967 10.1218 47.8478 10.2135C47.7447 10.2707 47.6645 10.3624 47.5844 10.4425C47.4126 10.6143 47.424 10.8663 47.1491 10.6945C46.8857 10.5341 47.1033 10.2822 46.9201 10.0531C46.6223 9.67516 46.1183 9.88132 45.7977 10.0875C45.6144 10.202 45.1563 10.6143 45.0417 10.0073C45.0303 9.92713 45.099 9.80114 45.099 9.72097C45.099 9.53772 45.0646 9.43464 44.9043 9.35447C44.721 9.21703 44.5493 9.51481 44.744 9.61789V9.61789Z" fill="#5222D0"/>
<path d="M32.7638 36.407C32.9012 38.0104 33.0387 39.6139 33.1876 41.2173C33.2105 41.4349 33.5082 41.4349 33.5312 41.2173C33.5312 41.1829 33.5426 41.1371 33.5426 41.1028C33.5655 40.8852 33.2219 40.8852 33.199 41.1028C33.199 41.1371 33.1876 41.1829 33.1876 41.2173C33.3021 41.2173 33.4166 41.2173 33.5312 41.2173C33.3937 39.6139 33.2563 38.0104 33.1074 36.407C33.0845 36.1893 32.7409 36.1779 32.7638 36.407V36.407Z" fill="#EC615B"/>
<path d="M33.0271 36.5329C33.5081 36.4299 34.3442 36.281 34.7107 36.6818C35.0429 37.0369 34.9627 37.7355 35.0085 38.2166C35.0887 39.1786 35.1688 40.1407 35.249 41.0913C35.2719 41.3089 35.6155 41.3089 35.5926 41.0913C35.4781 39.7169 35.4666 38.2738 35.2376 36.9109C35.0658 35.8457 33.7372 36.0404 32.9355 36.2008C32.7179 36.2466 32.8095 36.5787 33.0271 36.5329V36.5329Z" fill="#EC615B"/>
<path d="M35.9591 30.0733C36.3256 33.7384 36.4516 37.4148 36.3371 41.1028C36.3256 41.3204 36.6692 41.3204 36.6807 41.1028C36.7952 37.4263 36.6692 33.7384 36.3027 30.0733C36.2798 29.8557 35.9362 29.8443 35.9591 30.0733V30.0733Z" fill="#EC615B"/>
<path d="M36.3713 30.0733C36.8408 30.142 37.4135 30.142 37.8487 30.3024C38.4328 30.5085 38.3412 31.5622 38.3985 32.1005C38.5016 33.1428 38.5703 34.185 38.639 35.2273C38.765 37.3919 38.8108 39.5566 38.8566 41.7212C38.8566 41.9389 39.2002 41.9389 39.2002 41.7212C39.1429 39.2244 39.0857 36.7162 38.9139 34.2194C38.8337 33.0512 38.7764 31.8715 38.5932 30.7147C38.4328 29.7297 37.2532 29.8557 36.4629 29.7297C36.2453 29.7183 36.1536 30.039 36.3713 30.0733V30.0733Z" fill="#EC615B"/>
<path d="M39.2806 27.9201C39.67 32.2723 40.0708 36.6131 40.4602 40.9653C40.4831 41.1829 40.8267 41.1829 40.8038 40.9653C40.4144 36.6131 40.0136 32.2723 39.6241 27.9201C39.6127 27.7025 39.2691 27.7025 39.2806 27.9201V27.9201Z" fill="#EC615B"/>
<path d="M39.4983 28.0919C40.048 27.9888 40.6092 27.9545 41.1704 28.0118C41.64 28.0576 41.9722 28.1492 41.9951 28.6531C42.0065 28.8249 42.0065 29.0082 42.0065 29.18C42.0409 30.039 42.0753 30.898 42.1211 31.757C42.27 35.044 42.4418 38.3196 42.6136 41.6067C42.625 41.8243 42.9686 41.8243 42.9572 41.6067C42.7739 38.0562 42.5906 34.5172 42.4303 30.9667C42.3959 30.2222 42.3616 29.4892 42.3387 28.7448C42.3272 28.4126 42.3272 28.0805 42.018 27.8629C41.7317 27.6682 41.285 27.6567 40.9528 27.6453C40.4374 27.6109 39.922 27.6567 39.4067 27.7598C39.189 27.8056 39.2807 28.1377 39.4983 28.0919V28.0919Z" fill="#EC615B"/>
<path d="M30.3013 26.8206C29.9233 27.5651 29.5568 28.3095 29.1788 29.054C29.0758 29.2487 29.3735 29.4205 29.4766 29.2258C29.8546 28.4813 30.2211 27.7369 30.599 26.9924C30.6907 26.7977 30.3929 26.6145 30.3013 26.8206V26.8206Z" fill="#161616"/>
<path d="M30.3472 27.1642C30.5075 27.8285 30.8626 28.4126 31.3894 28.8478C31.5612 28.9853 31.8017 28.7448 31.6299 28.6073C31.1489 28.2065 30.8282 27.6911 30.6793 27.084C30.6221 26.855 30.2899 26.9466 30.3472 27.1642V27.1642Z" fill="#161616"/>
<path d="M30.1065 27.3246C30.0378 32.3411 30.6906 37.3461 32.0535 42.1794C32.1108 42.397 32.4429 42.3054 32.3857 42.0877C31.0342 37.2888 30.3813 32.3182 30.4501 27.3246C30.4501 27.1069 30.1065 27.1069 30.1065 27.3246V27.3246Z" fill="#161616"/>
<path d="M32.4659 42.4772C35.146 42.2252 37.8375 42.0877 40.529 42.0763C43.0373 42.0648 45.7517 41.9618 48.0652 43.0956C48.2599 43.1873 48.4317 42.9009 48.237 42.7978C45.9922 41.6983 43.4267 41.7212 40.9757 41.7327C38.1353 41.7327 35.2949 41.8701 32.4659 42.1336C32.2483 42.1565 32.2483 42.5001 32.4659 42.4772V42.4772Z" fill="#161616"/>
<path d="M46.6565 41.916C47.2749 42.2939 47.8705 42.7062 48.4202 43.1644C48.4317 43.0727 48.4432 42.9811 48.4546 42.8895C47.985 43.2445 47.5269 43.5996 47.0573 43.9546C46.8855 44.0921 47.0573 44.3899 47.2291 44.2524C47.6987 43.8974 48.1568 43.5423 48.6264 43.1873C48.7066 43.13 48.7524 42.9926 48.6608 42.9124C48.0766 42.4314 47.4696 41.9961 46.8282 41.6182C46.6335 41.5151 46.4617 41.8014 46.6565 41.916V41.916Z" fill="#161616"/>
<path d="M31.1719 33.1313C31.3436 33.3375 31.5154 33.5437 31.6872 33.7498C31.756 33.83 31.9049 33.8071 31.9621 33.7155C32.8784 31.9173 33.7832 30.1077 34.7109 28.3095C34.9514 27.8514 35.2836 28.2294 35.6272 28.3553C35.8448 28.4355 36.0738 28.4126 36.2914 28.3324C36.8412 28.1263 37.2077 27.5536 37.4597 27.0497C37.872 26.1907 38.2385 25.2973 38.6393 24.4269C38.7424 24.1864 38.857 23.9459 38.96 23.7168C39.0173 23.5794 39.086 23.293 39.2006 23.1899C39.5556 22.8693 40.426 23.6023 40.7238 23.7855C41.2163 24.0833 41.9264 24.7476 42.5678 24.5758C43.0488 24.4498 43.2779 23.923 43.4153 23.4877C44.0796 21.5292 44.9272 19.754 46.2328 18.1391C46.3359 18.0131 46.2443 17.7955 46.061 17.8528C45.4655 18.0475 44.9272 18.3452 44.4347 18.7232C44.2743 18.8492 44.4805 19.0782 44.6408 18.9981C45.0875 18.7805 45.5456 18.5514 45.9923 18.3338C45.9121 18.2994 45.8205 18.2651 45.7403 18.2307C45.8778 18.9179 46.0152 19.6051 46.1412 20.2923C46.187 20.5099 46.5192 20.4183 46.4733 20.2007C46.3359 19.5135 46.1985 18.8263 46.0725 18.1391C46.0496 18.0245 45.9121 17.9902 45.8205 18.036C45.3738 18.2536 44.9157 18.4827 44.469 18.7003C44.5377 18.7919 44.6065 18.8835 44.6752 18.9752C45.1219 18.6201 45.6029 18.3681 46.1527 18.1849C46.0954 18.0933 46.0381 17.9902 45.9809 17.8986C44.9844 19.1355 44.1598 20.4984 43.5642 21.9759C43.4039 22.3653 43.2664 22.7662 43.1405 23.167C43.0374 23.4877 42.877 24.1749 42.4533 24.2436C41.9722 24.3238 41.3538 23.7741 40.9643 23.5335C40.5749 23.293 40.197 23.0296 39.7961 22.812C39.338 22.5715 39.0517 22.6631 38.8226 23.1098C38.3874 23.9688 38.0323 24.885 37.6315 25.7669C37.3337 26.4312 36.9557 27.7712 36.1425 27.9888C35.5928 28.1377 35.0888 27.3131 34.5964 27.7941C34.31 28.069 34.1611 28.5844 33.9893 28.928C33.7259 29.4434 33.4739 29.9473 33.2105 30.4627C32.6951 31.4821 32.1683 32.5014 31.6529 33.5207C31.7445 33.5093 31.8361 33.4978 31.9278 33.4864C31.756 33.2802 31.5842 33.0741 31.4124 32.8679C31.2635 32.719 31.023 32.9595 31.1719 33.1313V33.1313Z" fill="#161616"/>
<path d="M81.0276 4.6701C79.9052 4.05163 79.4242 2.48254 80.1343 1.37158C80.8558 0.23771 82.6081 0.0315517 83.6275 0.867636C84.6697 1.73808 84.6812 3.52478 83.6848 4.42959C82.654 5.3802 80.9245 5.12823 80.077 4.07454C79.9395 3.90274 79.699 4.14326 79.8365 4.31505C80.6267 5.27712 82.0355 5.62072 83.1923 5.13968C84.3147 4.6701 84.8988 3.45606 84.7499 2.27638C84.601 1.06234 83.6962 0.157537 82.4822 0.0200985C81.3254 -0.11734 80.0884 0.455321 79.6532 1.57774C79.1722 2.81468 79.7105 4.31505 80.8673 4.94498C81.0505 5.07097 81.2223 4.77318 81.0276 4.6701V4.6701Z" fill="#EC615B"/>
<path d="M85.9982 6.77749C85.5172 5.88414 86.7541 4.89917 87.3726 5.86124C87.9223 6.70877 86.5709 7.35015 86.1356 6.55988C86.0326 6.36518 85.7348 6.53698 85.8378 6.73168C86.1127 7.23562 86.7541 7.37306 87.258 7.15545C87.8536 6.90348 88.0025 6.21629 87.6704 5.68944C87.3268 5.13968 86.6167 4.92207 86.0669 5.31148C85.5515 5.67798 85.3912 6.39954 85.689 6.96074C85.8149 7.144 86.1127 6.9722 85.9982 6.77749V6.77749Z" fill="#EC615B"/>
<path d="M79.9738 93.4096C88.9875 93.4096 97.9897 93.4096 107.003 93.4096C107.221 93.4096 107.221 93.066 107.003 93.066C97.9897 93.066 88.9875 93.066 79.9738 93.066C79.7447 93.066 79.7447 93.4096 79.9738 93.4096V93.4096Z" fill="#161616"/>
<path d="M112.661 93.4096C114.379 93.4096 116.097 93.4096 117.815 93.4096C118.033 93.4096 118.033 93.066 117.815 93.066C116.097 93.066 114.379 93.066 112.661 93.066C112.444 93.066 112.444 93.4096 112.661 93.4096V93.4096Z" fill="#161616"/>
<path d="M54.0094 98.6093C59.9994 98.6093 66.0009 98.6093 71.9909 98.6093C72.2086 98.6093 72.2086 98.2657 71.9909 98.2657C66.0009 98.2657 59.9994 98.2657 54.0094 98.2657C53.7918 98.2657 53.7918 98.6093 54.0094 98.6093V98.6093Z" fill="#161616"/>
<path d="M71.7618 97.235C76.9501 97.235 82.1499 97.235 87.3382 97.235C87.5558 97.235 87.5558 96.8914 87.3382 96.8914C82.1499 96.8914 76.9501 96.8914 71.7618 96.8914C71.5442 96.8914 71.5442 97.235 71.7618 97.235V97.235Z" fill="#161616"/>
<path d="M29.9005 96.2958C31.4696 96.2958 33.0272 96.2958 34.5963 96.2958C34.9284 96.2958 34.9284 95.7804 34.5963 95.7804C33.0272 95.7804 31.4696 95.7804 29.9005 95.7804C29.5683 95.7804 29.5683 96.2958 29.9005 96.2958V96.2958Z" fill="#161616"/>
<path d="M36.1998 96.2958C36.7381 96.2958 37.2649 96.2958 37.8032 96.2958C38.1354 96.2958 38.1354 95.7804 37.8032 95.7804C37.2649 95.7804 36.7381 95.7804 36.1998 95.7804C35.8676 95.7804 35.8676 96.2958 36.1998 96.2958V96.2958Z" fill="#161616"/>
<path d="M23.2346 75.4968C23.4523 75.5311 23.75 75.806 23.9791 77.1117C24.6548 77.1575 25.3306 77.2033 26.0063 77.2491C26.5675 76.7795 27.1287 76.31 27.6899 75.8289C27.7701 76.287 27.8732 76.9628 27.9648 77.7874C28.171 79.7001 28.045 80.1582 28.171 81.2234C28.2282 81.693 28.4917 83.6744 29.7172 85.5985C30.6563 87.076 31.2748 87.1218 32.0078 88.5649C32.5805 89.6988 32.7523 90.7639 32.821 91.4626C32.9355 91.4511 34.3901 91.3366 35.3178 92.4704C35.7415 92.9973 36.2111 93.9823 35.8561 94.7611C35.5125 95.517 34.7222 95.4025 33.2906 96.6509C32.7866 97.0861 32.3056 97.5213 32.4201 97.8649C32.5346 98.2199 33.1531 98.1512 34.2412 98.7353C34.8138 99.0446 35.0887 99.2049 35.1803 99.4798C35.5239 100.476 33.3478 102.011 33.0271 102.24C31.9734 102.973 30.6907 103.546 30.5303 103.317C30.2898 102.973 32.8782 101.083 32.4888 100.35C32.2025 99.8005 30.5761 100.488 30.1982 99.8807C29.7859 99.2164 31.2404 97.5557 32.0193 96.6509C33.5196 94.91 34.4702 94.4747 34.3099 93.8906C34.1381 93.2722 32.8324 92.8598 32.1567 93.2836C31.584 93.6387 31.6986 94.4404 31.481 94.9672C31.0686 95.9751 29.0987 96.7997 22.3184 96.0438C22.41 95.8606 22.5474 95.643 22.7192 95.4368C23.3034 94.7611 24.0364 94.5206 24.4029 94.4289C24.2998 94.2571 23.7042 93.2378 24.0707 92.0009C24.3456 91.0617 24.9984 90.5463 25.216 90.3859C24.7579 89.4811 24.2998 88.4962 23.8646 87.4196C23.5897 86.7209 23.3377 86.0452 23.1201 85.3923C22.4787 85.3923 21.7343 85.2778 21.1616 84.7853C20.3026 84.0294 20.6462 83.1017 19.7529 82.426C18.9168 81.7846 17.9203 82.0709 17.7485 81.5212C17.6684 81.2577 17.8287 80.9485 18.0005 80.7882C18.4357 80.3758 19.2146 80.582 20.0621 80.8111C20.6462 80.9714 21.4823 81.2692 22.41 81.8304C22.1008 81.3837 21.5396 80.4446 21.5052 79.1962C21.425 77.3178 22.5704 75.4051 23.2346 75.4968Z" fill="#161616"/>
<path d="M22.8338 83.7202C22.0436 84.0638 22.3413 86.3888 22.6277 88.5076C22.8109 89.8477 23.1202 91.6229 23.7043 93.6959C22.1008 94.9329 22.181 95.2879 22.2268 95.3796C22.3757 95.6888 23.4409 95.5055 23.773 95.4483C24.1281 95.391 24.632 95.2994 24.9183 95.1161C25.7315 94.5778 25.3077 92.94 25.0558 90.3287C24.6893 86.5491 25.1245 84.9686 23.9104 84.0638C23.7501 83.9378 23.2232 83.5484 22.8338 83.7202Z" fill="#161616"/>
<path d="M14.9996 88.4618C15.034 88.4504 15.3318 88.3015 15.3203 88.29C15.2974 88.2786 15.2974 88.4618 15.2974 88.5076C15.286 88.6565 15.2402 88.8398 15.2631 89.0001C15.3089 89.2292 15.4807 89.3437 15.7097 89.3208C15.8357 89.3094 15.9273 89.2521 16.0304 89.1719C16.0533 89.149 16.2137 89.0116 16.2251 89.0116C16.248 89.023 16.248 89.275 16.2595 89.2979C16.3053 89.5155 16.4656 89.6988 16.7062 89.6759C16.9238 89.653 16.9238 89.3094 16.7062 89.3323C16.5916 89.3437 16.5573 88.7252 16.3626 88.6565C16.2824 88.6222 16.1908 88.6451 16.122 88.6794C15.9503 88.7596 15.6983 89.1261 15.6181 88.8054C15.5608 88.5649 15.8014 88.2213 15.5837 88.0151C15.3776 87.8204 15.034 88.0495 14.8393 88.1526C14.6331 88.2671 14.8049 88.5649 14.9996 88.4618V88.4618Z" fill="white"/>
<path d="M22.8794 79.2305C23.0741 79.0473 23.4063 79.0931 23.5437 79.3222C23.6353 79.4596 23.8529 79.3336 23.7613 79.1962C23.5323 78.8297 23.0054 78.761 22.6962 79.0473C22.5816 79.1618 22.7649 79.3451 22.8794 79.2305V79.2305Z" fill="white"/>
<path d="M25.3306 79.1504C25.5368 78.9442 25.8804 78.9328 26.098 79.1275C26.2239 79.242 26.4072 79.0587 26.2812 78.9442C25.9605 78.6464 25.4566 78.6579 25.1473 78.9671C25.0328 79.0816 25.2161 79.2649 25.3306 79.1504V79.1504Z" fill="white"/>
<path d="M23.3263 80.4904C23.2003 80.7424 22.662 81.6128 23.2461 81.6815C23.4866 81.7044 23.7157 81.4868 23.8531 81.3265C24.0478 81.0974 24.1624 80.8111 24.2655 80.5362C24.3456 80.33 24.0135 80.2384 23.9333 80.4446C23.8073 80.7653 23.6699 81.063 23.395 81.2921C23.3377 81.3379 23.3034 81.4181 23.3263 81.315C23.3377 81.2463 23.3721 81.1776 23.4065 81.1203C23.4752 80.9714 23.5439 80.8225 23.6241 80.6736C23.7157 80.456 23.4179 80.2842 23.3263 80.4904V80.4904Z" fill="#EC615B"/>
<path d="M23.6354 80.6736C23.7843 80.6049 23.8988 80.5133 24.0363 80.4217C23.9904 80.4331 23.9446 80.4331 23.8988 80.4446C23.9103 80.4446 23.9217 80.456 23.9332 80.456C23.8988 80.4331 23.8645 80.3988 23.8301 80.3759C23.8301 80.3071 23.8186 80.3071 23.7728 80.3873C23.7385 80.4217 23.7156 80.456 23.6812 80.5018C23.6239 80.5706 23.5781 80.6393 23.5323 80.708C23.4292 80.8683 23.3376 81.0287 23.246 81.2005C23.1429 81.3952 23.4407 81.567 23.5438 81.3723C23.6468 81.189 23.7499 80.9943 23.8645 80.8225C23.9561 80.6851 24.1508 80.5362 24.1622 80.3644C24.1737 80.2384 24.0706 80.1239 23.9561 80.1239C23.8759 80.1124 23.8186 80.1582 23.7614 80.2041C23.6583 80.2842 23.5667 80.3415 23.4407 80.3988C23.2689 80.456 23.4407 80.7538 23.6354 80.6736V80.6736Z" fill="#EC615B"/>
<path d="M23.2919 80.4789C23.6699 80.4904 24.0249 80.2155 24.0937 79.8375C24.1166 79.6772 23.876 79.6085 23.8417 79.7688C23.7959 80.0437 23.5668 80.2384 23.2919 80.227C23.1201 80.2155 23.1201 80.4675 23.2919 80.4789V80.4789Z" fill="white"/>
<path d="M23.8761 79.7574C23.9219 80.2155 24.3228 80.582 24.7924 80.5477C24.9527 80.5362 24.9527 80.2728 24.7924 80.2842C24.4717 80.3071 24.1624 80.0895 24.1281 79.7574C24.1166 79.597 23.8647 79.597 23.8761 79.7574V79.7574Z" fill="white"/>
<path d="M93.4773 58.1681C89.6863 62.7608 85.9067 67.3421 82.1157 71.9348C88.0599 73.4123 94.0042 74.8898 99.9484 76.3672C100.143 73.9048 100.189 68.8768 97.4516 63.6198C96.2146 61.2375 94.7372 59.4508 93.4773 58.1681Z" fill="#5222D0"/>
<path d="M81.0046 72.8625C87.0061 74.3744 93.0191 75.8747 99.0205 77.3866C98.9518 78.3486 98.7571 79.6886 98.1845 81.1776C97.5087 82.9643 96.5581 84.2585 95.8709 85.0602C90.9231 80.9943 85.9639 76.9284 81.0046 72.8625Z" fill="#EC615B"/>
<ellipse cx="80.1226" cy="72.7709" rx="19.963" ry="20.4669" stroke="#161616" stroke-width="0.4"/>
<path d="M80.3746 72.3357C80.4204 72.2899 80.5349 72.3242 80.5578 72.3815C80.5693 72.3357 80.5693 72.2899 80.5807 72.2441C80.5693 72.267 80.5349 72.2555 80.5235 72.2441C80.4319 72.2097 80.3402 72.2784 80.3173 72.3586C80.2944 72.4502 80.3517 72.5419 80.4319 72.5648C80.5693 72.6106 80.7296 72.5762 80.8213 72.4731C80.9358 72.3586 80.9014 72.1983 80.7984 72.0952C80.6151 71.9119 80.3288 71.9005 80.1455 72.0723C79.9623 72.2326 80.2028 72.4846 80.3746 72.3357V72.3357Z" fill="#161616"/>
<path d="M92.4466 56.8051C88.793 62.1194 84.8645 67.2505 80.6841 72.1639C80.5467 72.3357 80.7872 72.5762 80.9246 72.4044C85.128 67.4681 89.0679 62.3256 92.7443 56.9769C92.8703 56.7937 92.5725 56.6219 92.4466 56.8051V56.8051Z" fill="#161616"/>
<path d="M80.5121 72.5533C86.9717 73.7101 93.3855 75.073 99.7535 76.6536C99.9711 76.7108 100.063 76.3787 99.8451 76.3214C93.4772 74.7523 87.0634 73.3779 80.6037 72.2212C80.3861 72.1868 80.2945 72.5189 80.5121 72.5533V72.5533Z" fill="#161616"/>
<path d="M80.4892 72.496C85.3798 76.9743 90.4192 81.2807 95.6075 85.4267C95.7793 85.5642 96.0198 85.3236 95.848 85.1862C90.6711 81.0516 85.6203 76.7337 80.7298 72.2555C80.5694 72.1066 80.3174 72.3472 80.4892 72.496V72.496Z" fill="#161616"/>
<path opacity="0.21" d="M80.1342 52.3498C80.558 54.2396 80.8443 56.9311 79.8021 59.6799C77.4313 65.9563 70.5479 66.2655 67.9365 71.3851C66.5163 74.1682 66.1613 78.7724 70.6509 86.7897C70.6509 88.1411 70.6509 89.4812 70.6509 90.8326C69.3224 90.0882 67.8564 89.0803 66.4476 87.7059C61.099 82.4718 60.2743 75.6342 60.1025 73.0344C60.114 71.156 60.3774 65.0515 64.8785 59.5997C65.8979 58.3628 69.5171 54.1251 75.6789 52.7622C77.4771 52.3728 79.0347 52.3155 80.1342 52.3498Z" fill="#6D6C6C"/>
<path d="M46.2326 84.4646C47.0228 86.4575 47.8131 88.4389 48.5919 90.4318C48.1224 91.4626 47.4008 92.9858 46.4044 94.8069C45.0987 97.1892 44.4802 97.9909 44.6864 98.2314C44.9842 98.575 46.9198 97.716 54.4331 92.0925C53.9635 90.7868 53.4825 89.4697 53.0129 88.1297C52.3257 86.1826 51.6614 84.2585 51.0086 82.3458C49.428 83.0559 47.836 83.766 46.2326 84.4646Z" fill="#161616"/>
<path d="M67.3524 49.5552C68.6237 51.7199 67.7189 55.0757 67.5929 55.5224C66.8943 58.1222 65.3137 58.3742 59.5184 63.8603C55.8877 67.3077 54.8455 68.705 54.0781 70.2397C53.0359 72.3471 52.6579 74.3056 52.509 75.6342C52.9786 78.383 53.4482 81.1203 53.9178 83.8691C52.7152 84.6479 51.0316 85.5756 48.8784 86.2284C47.3665 86.6866 45.9921 86.9156 44.8583 87.0187C43.8046 84.3501 42.2928 79.4252 43.1059 73.4352C44.0909 66.1395 47.9506 61.3635 51.1575 57.4007C56.0366 51.3763 61.6831 47.4708 66.5163 44.951C66.356 45.81 66.2643 47.047 66.7454 48.3527C66.9744 48.9711 67.2264 49.3376 67.3524 49.5552Z" fill="#EC615B"/>
<path opacity="0.2" d="M65.4513 46.4514C64.0197 50.3226 62.3017 53.3234 60.744 55.5796C56.1055 62.3256 52.681 62.8753 49.9437 69.1402C48.1913 73.1489 47.8134 76.9742 47.6988 78.3486C47.4125 81.5441 47.6645 84.2585 47.9852 86.2513C48.6265 86.2284 49.4283 86.1368 50.3102 85.8848C52.0167 85.3924 53.2307 84.5334 53.9294 83.9263C53.7347 82.9986 53.4483 81.6242 53.1276 79.9406C52.6924 77.6042 52.4748 76.4245 52.4748 75.5884C52.4748 73.126 53.5171 71.2705 54.3646 69.7931C54.7655 69.0944 55.9337 67.1588 60.0225 63.4136C64.3403 59.4623 66.1385 58.7751 67.2724 55.8774C67.9481 54.148 67.9366 52.7736 67.9252 52.3269C67.8221 49.3147 66.127 47.2073 65.4513 46.4514Z" fill="#6D6C6C"/>
<path opacity="0.27" d="M67.9137 53.2661C65.5658 55.236 62.21 58.1795 58.3503 61.9591C52.7497 67.4566 51.7533 69.0601 51.318 69.8618C50.104 72.0952 48.0195 77.1804 50.0811 85.6672C50.7568 85.3923 51.4555 85.0831 52.1885 84.7281C52.7726 84.4417 53.3338 84.1439 53.8606 83.8576C53.4025 81.1776 52.9444 78.4975 52.4863 75.806C52.5206 74.7981 52.681 73.2863 53.3567 71.6027C53.517 71.2018 53.9866 70.0909 55.1663 68.4874C56.1055 67.2046 57.0103 66.3342 58.7855 64.6506C60.2057 63.2991 61.5801 61.8789 63.0576 60.5961C65.7147 58.294 66.9059 57.6641 67.5472 55.8889C67.9252 54.8466 67.9481 53.896 67.9137 53.2661Z" fill="#6D6C6C"/>
<path d="M58.8428 84.2127C60.5837 85.5527 62.3245 86.8927 64.0654 88.2328C61.7519 94.0968 61.7519 95.6201 62.2215 95.8835C63.0003 96.3302 65.5544 93.57 67.0089 91.5428C68.3031 89.7217 69.059 88.0152 69.4943 86.824C68.7842 85.9192 67.971 84.9801 67.0662 84.018C65.8178 82.6894 64.5923 81.5555 63.4355 80.5706C61.9122 81.7961 60.3775 82.9987 58.8428 84.2127Z" fill="#161616"/>
<path d="M76.7096 49.5553C77.7289 52.2582 77.1104 54.8696 76.9501 55.5224C75.7819 60.3785 71.4411 64.3872 69.9064 65.7845C67.2836 68.1896 65.1075 69.3922 63.8934 72.5991C63.4697 73.6986 63.2979 74.6722 63.2291 75.3364C64.0652 77.2491 64.9013 79.1618 65.7374 81.063C65.1876 82.2427 63.9851 84.4188 61.557 86.0796C60.5262 86.7897 59.5183 87.2249 58.6937 87.5112C56.9528 85.736 52.2341 80.4675 52.486 73.4238C52.6807 68.0178 55.7387 63.6656 58.0981 60.2869C60.4689 56.9082 61.0759 57.3205 64.0652 53.0027C66.6537 49.2575 67.1461 47.5509 69.3223 46.795C71.5098 46.0277 74.7167 46.4514 76.1255 48.3527C76.4003 48.7535 76.5263 49.0857 76.7096 49.5553Z" fill="#EC615B"/>
<path opacity="0.24" d="M71.384 49.0399C71.51 50.0936 71.6016 51.9032 71.0747 53.9877C69.2422 61.0772 62.5306 61.6957 59.3008 69.3693C58.6709 70.8697 57.2049 74.5004 58.3617 78.7037C59.255 81.9793 61.3395 84.1096 62.5192 85.1404C62.9773 84.8999 63.7332 84.4188 64.3975 83.5713C65.2221 82.5176 65.4856 81.441 65.5772 80.9027C64.764 78.9442 63.9508 76.9743 63.1491 75.0158C63.298 74.1453 63.6072 72.8969 64.3288 71.5569C65.3138 69.7015 66.5049 68.7623 68.0396 67.3765C70.8571 64.8453 72.6553 63.2419 74.2129 61.0314C75.1979 59.6226 76.6295 57.5496 77.0991 54.5145C77.4885 52.0406 77.0762 49.9676 76.7212 48.7192C74.9459 48.8337 73.1592 48.9368 71.384 49.0399Z" fill="#6D6C6C"/>
<path opacity="0.25" d="M77.2134 52.7164C76.3086 54.3771 74.751 56.9655 72.3458 59.7372C67.7187 65.0629 64.5806 66.1739 62.4273 70.2741C61.4996 72.0379 60.6521 74.947 61.6943 79.62C63.0115 80.1468 64.34 80.6736 65.6572 81.2119C64.8211 79.242 63.9964 77.2835 63.1604 75.3135C63.2405 74.34 63.481 72.8969 64.2942 71.408C65.0158 70.0794 65.8175 69.3808 67.5813 67.7773C70.5019 65.1202 71.9679 63.7916 72.5634 63.1273C73.9264 61.627 75.4153 59.9433 76.3545 57.3435C77.0416 55.4995 77.1905 53.8388 77.2134 52.7164Z" fill="#6D6C6C"/>
<path d="M49.3364 33.5895C49.0272 32.9023 48.4889 31.9058 47.5039 31.001C46.267 29.8672 44.5375 29.054 44.2627 29.3861C44.1481 29.5236 44.1596 30.0046 46.2441 32.3067" fill="white"/>
<path d="M49.3364 33.5895C49.0272 32.9023 48.4889 31.9058 47.5039 31.001C46.267 29.8672 44.5375 29.054 44.2627 29.3861C44.1481 29.5236 44.1596 30.0046 46.2441 32.3067" stroke="#161616" stroke-width="0.4"/>
<path d="M45.0186 31.7111C44.5719 31.986 43.7816 32.5701 43.3579 33.578C43.1975 33.9674 42.9914 34.4714 43.1403 35.0555C43.4037 36.0634 44.6177 36.4871 44.7208 36.5329C45.2133 36.7047 45.3393 36.5788 45.6943 36.7849C46.267 37.1171 46.2441 37.5637 46.6679 37.976C47.5383 38.8121 49.3021 38.48 49.3823 38.1249C49.4281 37.9302 48.9241 37.747 48.97 37.3919C48.9929 37.1743 49.2105 37.0827 49.3594 36.9453C50.1611 36.2122 49.3937 34.0705 49.2563 33.7154C49.1303 33.3833 48.9356 32.9023 48.592 32.364" fill="white"/>
<path d="M45.0186 31.7111C44.5719 31.986 43.7816 32.5701 43.3579 33.578C43.1975 33.9674 42.9914 34.4714 43.1403 35.0555C43.4037 36.0634 44.6177 36.4871 44.7208 36.5329C45.2133 36.7047 45.3393 36.5788 45.6943 36.7849C46.267 37.1171 46.2441 37.5637 46.6679 37.976C47.5383 38.8121 49.3021 38.48 49.3823 38.1249C49.4281 37.9302 48.9241 37.747 48.97 37.3919C48.9929 37.1743 49.2105 37.0827 49.3594 36.9453C50.1611 36.2122 49.3937 34.0705 49.2563 33.7154C49.1303 33.3833 48.9356 32.9023 48.592 32.364" stroke="#161616" stroke-width="0.4"/>
<path d="M42.9457 34.9066C43.2092 35.5938 43.7131 36.2008 44.4117 36.4757C45.1218 36.762 45.6487 36.3841 45.6601 35.6281C45.6601 35.4105 45.3166 35.4105 45.3166 35.6281C45.3051 36.51 44.4347 36.1893 43.9994 35.8343C43.6673 35.5709 43.4268 35.2158 43.2779 34.815C43.1977 34.6088 42.8656 34.689 42.9457 34.9066V34.9066Z" fill="#161616"/>
<path d="M43.8046 33.9674C44.1482 34.6088 44.6063 35.3189 45.3164 35.5823C45.9578 35.8228 46.3357 35.4334 46.4045 34.8264C46.4274 34.6088 46.0838 34.6088 46.0609 34.8264C45.9578 35.7312 45.0759 35.1013 44.7666 34.7806C44.4918 34.4943 44.2856 34.1507 44.1024 33.7956C43.9993 33.6009 43.7015 33.7727 43.8046 33.9674V33.9674Z" fill="#161616"/>
<path d="M44.8354 32.4212C45.0416 32.8794 45.2477 33.349 45.5341 33.7613C45.7288 34.0476 46.0036 34.4599 46.3816 34.5286C47.2749 34.7004 46.9886 33.4291 46.8168 32.9939C46.7366 32.7878 46.4045 32.8794 46.4847 33.0855C46.5649 33.2802 46.7366 33.6811 46.6679 33.8987C46.4732 34.5286 45.9464 33.7498 45.8318 33.5895C45.5455 33.1772 45.3394 32.7076 45.1332 32.2495C45.0416 32.0433 44.7438 32.2151 44.8354 32.4212V32.4212Z" fill="#161616"/>
<path d="M45.0072 31.9058C45.3508 31.734 45.7746 32.0433 46.0151 32.2723C46.2556 32.5014 46.4159 32.7992 46.5419 33.097C46.6221 33.3031 46.9542 33.2115 46.8741 33.0053C46.5877 32.2952 45.7402 31.1614 44.8354 31.6081C44.6407 31.6997 44.8125 31.9975 45.0072 31.9058V31.9058Z" fill="#161616"/>
<path d="M69.8493 28.3897C70.2158 29.4778 69.6546 30.4055 68.0855 33.2C65.4512 37.8501 65.2909 38.2624 64.6839 38.9954C63.2522 40.7134 62.439 41.6869 60.9387 42.3168C58.2013 43.4621 55.1662 42.4542 53.5055 41.8243C51.9593 41.2288 50.814 40.4614 50.0696 39.8887C49.5656 39.4764 49.1762 39.1557 48.9242 38.961C48.3974 38.5372 48.1569 38.354 47.9507 37.9875C47.9393 37.976 47.7446 37.621 47.6987 37.2201C47.527 35.9946 48.741 34.9638 48.8326 34.8837C47.3781 35.2273 46.8741 35.1585 46.7825 34.9524C46.5649 34.4943 48.1454 32.8106 49.2564 33.1886C49.7832 33.3604 50.0467 33.956 50.2414 34.3912C50.6193 35.2158 50.5735 35.9832 50.5277 36.3726C51.2263 36.8536 52.2228 37.4148 53.4941 37.7928C56.0023 38.5258 58.1555 38.1364 59.2207 37.8615C59.8048 36.9223 60.7554 35.3876 61.9122 33.4749C65.0733 28.2294 65.9094 26.5686 67.3639 26.5457C68.452 26.5343 69.5286 27.4391 69.8493 28.3897Z" fill="white" stroke="#161616" stroke-width="0.4"/>
<path d="M48.7293 35.1815C47.7444 35.1357 47.6069 36.407 47.4809 37.1285C47.5955 37.14 47.71 37.1629 47.8131 37.1743C47.8245 36.7162 48.0307 36.3382 48.2483 35.9488C48.3628 35.7541 48.0651 35.5823 47.9505 35.777C47.5039 36.4986 47.229 37.3919 47.8474 38.102C47.9276 38.0219 48.0078 37.9417 48.088 37.8615C47.9162 37.7126 47.8245 37.5179 47.8131 37.2774C47.6986 37.2889 47.584 37.3118 47.4809 37.3232C47.5382 37.5065 47.6069 37.6783 47.6986 37.8501C47.8016 38.0448 48.0994 37.873 47.9963 37.6783C47.9162 37.5408 47.8474 37.3919 47.8131 37.2316C47.7673 37.0483 47.458 37.0827 47.4809 37.2774C47.5153 37.6096 47.6184 37.8615 47.8589 38.102C48.0192 38.2624 48.2483 38.0219 48.0994 37.8615C47.5955 37.2774 47.9162 36.533 48.2598 35.9488C48.1567 35.8916 48.0651 35.8343 47.962 35.777C47.71 36.2237 47.4924 36.6475 47.4809 37.1743C47.4695 37.369 47.7902 37.4148 47.8131 37.2201C47.9047 36.6933 47.9849 35.5022 48.7293 35.5251C48.947 35.5365 48.947 35.1929 48.7293 35.1815V35.1815Z" fill="white"/>
<path opacity="0.21" d="M68.0968 27.0153C67.3753 28.9509 66.2071 31.7111 64.3631 34.8379C62.4848 38.0333 61.4998 39.6368 59.8047 40.4843C56.3229 42.2137 50.9514 41.0455 49.1418 37.7355C48.592 36.7276 48.466 35.7083 48.466 34.9409C48.0308 35.0898 47.3551 35.2502 46.7022 34.9982C45.2362 34.4141 45.0988 32.2265 44.32 32.2494C43.8046 32.2723 43.4266 33.2459 43.2892 33.6009C43.1632 33.9216 42.957 34.4485 43.083 34.9982C43.2663 35.8114 44.1253 36.4528 45.2019 36.6589C45.7631 36.9338 46.1181 37.243 46.3357 37.4836C46.7137 37.8959 46.8168 38.2166 47.2176 38.4113C47.5727 38.5831 47.9506 38.5602 48.2026 38.5143C48.7409 38.9496 49.5884 39.6024 50.6879 40.2781C53.0473 41.7212 55.8992 43.4621 59.129 42.8666C60.6522 42.5917 61.6945 41.893 62.3359 41.4693C63.3781 40.7706 64.5005 39.7169 66.6308 35.8801C67.5127 34.2881 68.6008 32.1693 69.6888 29.5579C69.7346 29.4434 69.9866 28.7677 69.6316 28.0576C69.1963 27.1184 68.1541 27.0153 68.0968 27.0153Z" fill="#6D6C6C"/>
<path opacity="0.22" d="M46.4273 34.9753C46.267 35.0898 46.3357 35.3189 46.141 35.4907C46.0036 35.6052 45.8203 35.6052 45.7058 35.6052C45.7058 35.7656 45.6829 35.9717 45.5569 36.155C45.3965 36.3841 45.1789 36.4299 45.1904 36.5215C45.2133 36.6246 45.534 36.5673 45.8432 36.7391C46.0608 36.8651 46.1983 37.0598 46.2784 37.2087C47.0343 36.4871 47.7903 35.777 48.5462 35.0555C47.9735 35.2731 47.5497 35.2387 47.2634 35.17C46.8969 35.0555 46.622 34.8379 46.4273 34.9753Z" fill="#6D6C6C"/>
<path d="M69.7575 26.1449C68.9902 26.9122 68.5893 27.7827 67.8105 29.5236C67.192 30.8865 66.1956 33.1657 65.8634 36.2008C65.4969 39.5909 66.3559 40.3583 65.6687 42.878C65.1533 44.7792 64.1798 46.1765 63.4583 47.0241C64.386 47.9518 66.0696 49.3834 68.5778 50.2653C72.827 51.7543 76.5607 50.6318 77.7862 50.1966C78.8056 47.4478 79.8134 44.6991 80.8328 41.9618C80.8442 39.6368 80.9359 37.6553 81.0275 36.1206C81.2565 32.4556 81.6345 29.6496 81.875 27.943C82.1499 25.9387 82.4362 24.2551 82.6538 23.0181C80.0769 23.1556 77.9466 23.4534 76.4233 23.7282C71.4297 24.6445 70.25 25.6524 69.7575 26.1449Z" fill="white" stroke="#161616" stroke-width="0.4"/>
<path opacity="0.19" d="M75.8279 23.8084C76.3433 25.0339 77.0076 27.0153 77.1565 29.5007C77.5115 35.4105 74.6597 40.0376 72.495 43.5423C71.51 45.1343 69.9868 47.3448 67.7305 49.7385C68.6009 50.1966 69.8493 50.712 71.4184 50.964C74.2588 51.4221 76.5723 50.7349 77.7177 50.2997C78.6797 47.528 79.6304 44.7678 80.5924 41.9961C80.6497 40.1063 80.7528 38.1478 80.9017 36.155C81.2453 31.505 81.8065 27.1413 82.4937 23.0869C80.2717 23.3274 78.0498 23.5679 75.8279 23.8084Z" fill="#6D6C6C"/>
<path opacity="0.11" d="M77.8778 23.4534C78.7024 25.5837 79.5614 28.6875 79.3667 32.4212C78.8169 42.8093 70.5935 49.0971 69.1733 50.1508C70.0438 50.46 71.2235 50.7807 72.6551 50.8724C74.7854 51.0098 76.5148 50.5746 77.58 50.2081C78.6337 47.4364 79.6988 44.6762 80.7525 41.9045C80.7525 39.3733 80.8442 36.6704 81.0618 33.8071C81.3596 29.9473 81.852 26.3739 82.4476 23.1441C80.9243 23.2472 79.4011 23.3503 77.8778 23.4534Z" fill="#6D6C6C"/>
<path d="M82.2302 22.8693C83.1579 23.2129 84.5208 23.8771 85.5058 25.2172C86.6053 26.7175 86.8458 28.5271 86.2159 34.2652C85.6318 39.6024 85.1278 40.7477 84.9331 43.9546C84.7155 47.4822 85.0476 50.3684 85.3569 52.2124C86.6626 51.9032 87.9682 51.5939 89.2739 51.2847C90.6941 51.6626 91.5531 52.3613 91.9768 52.7851C92.4006 53.1974 93.294 54.0678 93.042 54.7779C92.8816 55.236 92.2975 55.4651 92.0456 55.5567C91.5531 55.7514 91.1408 55.7285 90.6941 55.6942C89.7435 55.6369 88.7928 55.6025 87.8422 55.5567C87.3497 55.5338 86.6396 55.5109 85.7807 55.5567C86.9374 56.5532 87.4299 57.1945 87.281 57.4809C87.0749 57.8588 85.7005 57.5954 83.1464 56.7021C83.0319 55.7743 82.8486 54.3656 82.5738 52.6476C81.8637 48.158 81.3483 46.5545 81.0047 44.1722C80.6496 41.7098 80.7641 39.4879 81.0047 35.0555C81.1879 31.9173 81.5201 27.7712 82.2302 22.8693Z" fill="white" stroke="#161616" stroke-width="0.4"/>
<path d="M87.5444 54.0334C88.4263 53.6669 89.3425 53.8731 90.1901 54.2511C90.9116 54.5603 91.6217 54.9383 92.1829 55.488C92.3433 55.6369 92.5838 55.3964 92.4234 55.2475C91.7706 54.6176 90.9574 54.1938 90.1214 53.8616C89.2624 53.5066 88.3347 53.3463 87.4413 53.7128C87.258 53.7815 87.3497 54.1136 87.5444 54.0334V54.0334Z" fill="#161616"/>
<path d="M88.6667 52.9798C90.19 52.682 91.9996 53.5868 92.8357 54.881C92.9617 55.0642 93.2595 54.8924 93.1335 54.7092C92.1943 53.2775 90.2702 52.3269 88.5751 52.6591C88.3575 52.6934 88.4491 53.0256 88.6667 52.9798V52.9798Z" fill="#161616"/>
<path d="M89.984 52.1895C90.591 52.2124 91.1179 52.4758 91.6447 52.7621C91.8394 52.8652 92.0112 52.5674 91.8165 52.4644C91.2324 52.1551 90.6483 51.8688 89.984 51.8459C89.7664 51.8344 89.7664 52.178 89.984 52.1895V52.1895Z" fill="#161616"/>
<path opacity="0.16" d="M82.3904 23.1441C82.963 24.4383 83.7762 26.5457 84.1885 29.2487C85.185 35.8687 82.734 39.3161 83.1692 46.4743C83.2723 48.2496 83.6044 50.8953 84.6581 54.1136C85.5744 53.8158 86.9717 53.5181 88.6095 53.7013C89.7662 53.8387 90.3389 53.9075 90.9116 54.3198C91.4842 54.7321 91.8164 55.2818 92.4005 55.2475C92.6296 55.236 92.9388 55.133 93.0648 54.8924C93.374 54.3312 92.5265 53.3692 92.2401 53.0485C91.8278 52.5789 90.9803 51.7772 89.4227 51.3076C88.0712 51.5825 86.7197 51.8573 85.3682 52.1322C85.1048 50.964 84.7383 49.0169 84.7039 46.6003C84.6696 44.5387 85.0361 42.0419 85.7805 37.1171C85.918 36.2008 86.0898 34.3568 86.4448 30.6574C86.5594 29.4434 86.651 28.3553 86.2387 27.0153C86.0325 26.3396 85.5286 24.8049 84.0396 23.8428C83.4097 23.4076 82.8027 23.2358 82.3904 23.1441Z" fill="#6D6C6C"/>
<path opacity="0.22" d="M84.8987 55.488C85.0476 55.8545 85.3683 56.4845 86.0211 56.9769C86.422 57.2747 87.1206 57.6412 87.2466 57.4923C87.4069 57.3091 86.7999 56.3012 85.8608 55.7973C85.5057 55.6026 85.1507 55.5224 84.8987 55.488Z" fill="#6D6C6C"/>
<path opacity="0.4" d="M86.1814 32.5701C85.1392 35.4334 83.8908 40.0262 84.2344 45.6955C84.4062 48.5932 84.9674 51.09 85.563 53.0714C84.9674 50.8036 84.7956 48.9253 84.7383 47.6426C84.6009 44.218 85.2194 42.2939 85.8607 36.0061C86.0211 34.5515 86.1242 33.3489 86.1814 32.5701Z" fill="#6D6C6C"/>
<path opacity="0.22" d="M88.495 52.7163C88.4721 52.5789 89.6174 52.052 90.7513 52.304C92.2745 52.6476 92.9846 54.2511 93.1106 54.5603C92.5723 53.9533 91.7019 53.163 90.442 52.8652C89.3769 52.6247 88.5064 52.8309 88.495 52.7163Z" fill="#6D6C6C"/>
<path d="M65.5428 20.5213C65.0617 20.968 64.9586 21.9072 64.7639 23.7511C64.5463 25.87 64.4547 26.9466 64.9014 27.4849C65.7146 28.4699 67.4669 28.5271 68.6809 27.9888C70.1126 27.3474 70.6051 25.9616 70.7311 25.618C71.2923 24.026 71.109 21.6208 69.4139 20.5213C68.2686 19.7654 66.4934 19.6394 65.5428 20.5213Z" fill="#5222D0"/>
<path d="M68.0169 22.1935C68.1887 23.0182 69.1049 23.0869 69.8837 24.404C70.4449 25.3546 70.5595 26.3281 70.5709 27.0268C71.2696 27.0153 72.5638 26.8779 73.9611 26.1563C75.0491 25.5837 75.7821 24.8621 76.2059 24.3696C75.9196 23.9001 75.4958 23.2129 74.9919 22.3882C72.8158 18.895 72.4951 18.6201 72.0599 18.5056C70.2961 18.0818 67.6847 20.6588 68.0169 22.1935Z" fill="white" stroke="#161616" stroke-width="0.4"/>
<path d="M71.5786 20.8077C71.0518 21.9186 70.5135 23.0181 69.7805 24.0146C69.8721 24.0031 69.9637 23.9917 70.0554 23.9802C69.9866 23.9 69.9179 23.8084 69.8607 23.7282C69.8492 23.797 69.8378 23.8657 69.8378 23.9344C70.1355 23.6824 70.3646 23.4076 70.5708 23.0754C70.4677 23.0181 70.3761 22.9609 70.273 22.9036C70.1126 23.2472 69.9065 23.4534 69.5743 23.6023C69.643 23.6939 69.7118 23.7855 69.7805 23.8771C70.3761 23.3159 70.9144 22.6975 71.3954 22.0332C71.5214 21.8499 71.2236 21.6781 71.0976 21.8614C70.6395 22.5028 70.1126 23.0983 69.54 23.6366C69.3911 23.7741 69.5858 23.9802 69.7461 23.9115C70.1241 23.7397 70.399 23.4648 70.5708 23.0869C70.6624 22.8922 70.399 22.7204 70.273 22.9151C70.0783 23.2128 69.8607 23.4648 69.5972 23.7053C69.54 23.7512 69.5285 23.8542 69.5743 23.9115C69.6774 24.0718 69.6889 24.0947 69.8263 24.2322C69.9065 24.3238 70.0325 24.278 70.1012 24.1978C70.8342 23.2128 71.3725 22.1019 71.8993 20.9909C71.968 20.7848 71.6703 20.613 71.5786 20.8077V20.8077Z" fill="#161616"/>
<path d="M60.4806 12.0116C59.9537 12.9851 60.0797 13.9701 60.3317 15.8942C60.6295 18.0704 61.0189 19.8914 61.4885 21.094C61.5572 21.2773 61.7404 21.3803 61.9351 21.3574C62.1871 21.3345 62.5651 21.1398 62.7827 21.0711C63.0576 21.5636 63.5157 22.2279 64.2258 22.8463C65.6345 24.0604 67.1807 24.3467 67.8679 24.4269C68.5436 24.1749 70.2158 23.4305 71.3268 21.6438C72.0598 20.4526 72.2087 19.3531 72.243 19.1011C72.4377 17.4519 71.888 16.1691 71.6246 15.6423C71.8651 15.4934 72.2316 15.23 72.4835 14.7833C73.0104 13.8556 72.9875 12.3208 72.1514 11.9085C71.5215 11.5993 70.525 11.9429 69.8493 12.8248C69.6317 12.4468 69.2996 11.9429 68.7956 11.4389C68.6696 11.313 67.7419 10.3738 66.6882 9.95003C64.6266 9.13685 61.5572 10.0302 60.4806 12.0116Z" fill="white" stroke="#161616" stroke-width="0.4"/>
<path d="M63.5039 22.1248C64.2942 21.9186 64.7523 21.2544 65.1532 20.6015C65.2677 20.4183 64.9699 20.2465 64.8554 20.4297C64.5003 21.0024 64.0995 21.6094 63.4123 21.8041C63.1947 21.8499 63.2863 22.1821 63.5039 22.1248V22.1248Z" fill="#161616"/>
<path d="M64.5463 20.5786C64.7754 20.5901 64.9586 20.6817 65.1075 20.8535C65.2564 21.0253 65.4969 20.7733 65.348 20.613C65.1419 20.3724 64.8555 20.2465 64.5463 20.235C64.3172 20.235 64.3172 20.5786 64.5463 20.5786V20.5786Z" fill="#161616"/>
<path d="M63.6759 18.6888C63.6759 18.6774 63.6759 18.6659 63.6759 18.6545C63.6759 18.5628 63.5957 18.4827 63.5041 18.4827C63.4124 18.4827 63.3323 18.5628 63.3323 18.6545C63.3323 18.6659 63.3323 18.6774 63.3323 18.6888C63.3323 18.7804 63.4124 18.8606 63.5041 18.8606C63.5957 18.8492 63.6759 18.7804 63.6759 18.6888V18.6888Z" fill="#161616"/>
<path d="M64.4435 17.7726C64.6611 17.7726 64.6611 17.429 64.4435 17.429C64.2259 17.429 64.2259 17.7726 64.4435 17.7726V17.7726Z" fill="#161616"/>
<path d="M64.34 18.643C64.5576 18.643 64.5576 18.2994 64.34 18.2994C64.1224 18.2994 64.1224 18.643 64.34 18.643V18.643Z" fill="#161616"/>
<path d="M59.988 15.9171C59.6215 15.7912 58.8427 15.459 58.396 14.6917C57.6974 13.5005 58.2586 12.1147 58.5334 11.4618C58.6823 11.0953 59.0946 10.1905 61.0875 8.41529C62.5993 7.05236 63.3667 6.37662 64.2257 5.99866C67.2951 4.65864 70.4333 5.9414 71.006 6.18191C71.8535 6.52551 72.472 6.94928 73.6975 7.77391C75.1864 8.78179 76.137 9.43463 76.8815 10.557C77.7863 11.9314 77.2365 12.2865 78.0153 13.8327C79.2523 16.2836 80.9588 15.9859 81.9782 18.2536C82.15 18.6316 83.1006 20.7389 82.024 22.5829C81.1421 24.0833 79.3439 24.6216 78.0153 24.5872C75.5529 24.5185 74.0067 22.4111 73.1935 21.3116C71.6474 19.2157 71.3496 16.9937 71.2809 15.8026C72.2544 15.3101 72.6323 14.2564 72.2773 13.5234C72.0024 12.9393 71.2007 12.4468 70.502 12.7446C70.021 12.9508 69.7118 13.5005 69.7232 14.1075C69.2651 14.1877 67.8564 14.3595 66.4018 13.5578C65.3252 12.9737 64.7411 12.149 64.4891 11.7367C63.8477 11.9887 62.8169 12.4697 61.7976 13.4203C60.8241 14.3366 60.2743 15.2987 59.988 15.9171Z" fill="#5222D0"/>
<path opacity="0.24" d="M67.4555 16.5814C68.7268 17.7726 69.3452 19.0897 69.5399 19.5364C70.3417 21.3689 70.2959 23.0525 70.2157 23.9115C70.628 23.2129 71.0289 22.5142 71.4412 21.8041C72.1055 23.293 72.7583 24.7819 73.4226 26.2594C73.7776 26.1792 74.4763 25.9731 75.152 25.3775C75.6674 24.9194 75.9423 24.4269 76.0797 24.1177C75.1177 23.4305 73.2279 21.8728 72.1284 19.1928C71.6015 17.91 71.3954 16.7189 71.3266 15.8255C72.2544 15.3216 72.6438 14.3137 72.3345 13.5578C72.1169 13.008 71.4412 12.3896 70.6967 12.5957C70.0668 12.7675 69.6316 13.4433 69.7346 14.1992C69.2536 14.2564 68.1083 14.3366 66.837 13.7754C65.5199 13.1913 64.7983 12.2407 64.5234 11.8398C64.8327 13.867 65.6115 14.9665 66.2643 15.5965C66.6766 16.0202 66.8484 16.0202 67.4555 16.5814Z" fill="#6D6C6C"/>
<path opacity="0.24" d="M71.3496 17.1312C71.2694 17.1312 71.3152 18.3109 71.2007 19.3989C71.0518 20.7962 70.6395 21.9072 70.2959 22.6516C70.6051 22.4569 71.0633 22.0904 71.4641 21.5178C72.0368 20.6817 72.1399 19.8571 72.1742 19.4562C72.0711 19.2959 71.9337 19.0668 71.8077 18.7805C71.4069 17.8642 71.4183 17.1312 71.3496 17.1312Z" fill="#6D6C6C"/>
<path opacity="0.19" d="M71.7505 21.1055C72.0254 21.3918 72.4148 21.7697 72.9187 22.1821C74.442 23.4534 75.9195 24.1749 75.9653 24.0947C76.0111 24.0146 74.568 23.4305 73.4685 21.8499C72.7813 20.8649 72.3804 19.6967 72.2086 19.754C72.1284 19.7769 72.1972 20.0518 72.0597 20.4984C71.9681 20.7619 71.8421 20.968 71.7505 21.1055Z" fill="#6D6C6C"/>
<path opacity="0.74" d="M73.0217 7.35014C74.3732 9.6866 75.3353 11.7253 75.9881 13.2371C77.8092 17.4862 77.6603 18.6545 77.4083 19.4104C76.8471 21.1169 75.2895 22.079 74.3618 22.5371C74.5908 22.8578 75.5414 24.1291 77.2823 24.4842C77.6145 24.5529 79.6188 24.9308 81.1421 23.545C82.2759 22.5257 82.4477 21.1742 82.4821 20.8191C82.6882 18.895 81.5429 17.4519 81.1764 17.0396C80.6954 16.5013 80.5923 16.6272 79.4699 15.5392C78.5994 14.7031 78.1757 14.2793 77.9237 13.7525C77.5228 12.8935 77.7863 12.527 77.3167 11.4389C77.0647 10.8434 76.7669 10.4425 76.5493 10.1333C75.4384 8.6329 73.8349 7.75101 73.0217 7.35014Z" fill="#2C167C"/>
<path opacity="0.52" d="M64.8785 24.3582C64.9815 25.6867 66.1956 26.6488 67.4669 26.4656C68.6924 26.2823 69.5743 25.0912 69.3567 23.8199C69.5857 24.0833 69.9064 24.5185 70.1355 25.1141C70.3187 25.5837 70.3875 26.0074 70.4104 26.3167C70.2386 26.603 69.3452 28.0232 67.6731 28.2981C67.3867 28.3439 65.7604 28.5844 64.993 27.6109C64.6265 27.1298 64.5921 26.5457 64.5692 26.0762C64.5463 25.3088 64.741 24.7018 64.8785 24.3582Z" fill="#2C167C"/>
<path d="M62.7251 16.7991C62.8396 17.0281 62.8396 17.3603 62.6907 17.429C62.5418 17.5092 62.2555 17.2915 62.1524 17.0396C62.0723 16.822 62.0952 16.5127 62.2441 16.4555C62.4044 16.3982 62.6335 16.6044 62.7251 16.7991Z" fill="#161616"/>
<path d="M61.7862 16.5356C62.1871 16.3982 62.5994 16.2951 63.0231 16.2264C63.1835 16.2035 63.1148 15.9515 62.9544 15.9744C62.5307 16.0432 62.1183 16.1462 61.7175 16.2837C61.5571 16.3409 61.6259 16.5815 61.7862 16.5356V16.5356Z" fill="#161616"/>
</svg>
