<svg width="1898" height="1259" viewBox="0 0 1898 1259" fill="none" xmlns="http://www.w3.org/2000/svg">
<path d="M0.0336914 358.702L302.268 638.634L519.248 575.64L633.034 358.702V1258.08H0.0336914V358.702Z" fill="#FFECA0"/>
<path d="M629.073 358.702L761.393 558.142L942.708 656.133L1124.69 558.142L1264.68 358.702V1258.08H629.073V358.702Z" fill="#CECECE"/>
<path d="M1264.68 358.702L1367.92 558.163L1555.15 666.632L1897.68 358.702V1258.08H1264.68V358.702Z" fill="#9EDEC5"/>
<path fill-rule="evenodd" clip-rule="evenodd" d="M591.423 358.702C591.423 358.702 591.423 358.702 591.423 358.702C591.423 556.621 751.868 717.067 949.787 717.067C1147.71 717.067 1308.15 556.621 1308.15 358.702C1308.15 358.702 1308.15 358.702 1308.15 358.702H1177.29C1177.29 484.348 1075.43 586.205 949.787 586.205C824.141 586.205 722.285 484.348 722.284 358.702H591.423Z" fill="black"/>
<path fill-rule="evenodd" clip-rule="evenodd" d="M1897.83 358.702C1897.83 358.702 1897.83 358.702 1897.83 358.702C1897.83 160.783 1737.39 0.337661 1539.47 0.337678C1341.55 0.337695 1181.1 160.783 1181.1 358.702C1181.1 358.702 1181.1 358.702 1181.1 358.702L1311.97 358.702C1311.97 233.056 1413.82 131.2 1539.47 131.199C1665.11 131.199 1766.97 233.056 1766.97 358.702L1897.83 358.702Z" fill="#50A684"/>
<path fill-rule="evenodd" clip-rule="evenodd" d="M716.763 358.702C716.763 358.702 716.763 358.702 716.763 358.702C716.762 160.783 556.317 0.337661 358.398 0.337678C160.479 0.337695 0.0337351 160.783 0.0337524 358.702C0.0337524 358.702 0.0337524 358.702 0.0337524 358.702L130.895 358.702C130.895 233.056 232.752 131.2 358.398 131.199C484.044 131.199 585.901 233.056 585.901 358.702L716.763 358.702Z" fill="#FFCD00"/>
<path fill-rule="evenodd" clip-rule="evenodd" d="M0.0336914 358.702C0.0336914 358.702 0.0336914 358.702 0.0336914 358.702C0.0336914 556.621 160.479 717.067 358.398 717.067C556.317 717.067 716.762 556.621 716.762 358.702C716.762 358.702 716.762 358.702 716.762 358.702H585.901C585.901 484.348 484.044 586.205 358.398 586.205C232.752 586.205 130.895 484.348 130.895 358.702H0.0336914Z" fill="#FFCD00"/>
<path fill-rule="evenodd" clip-rule="evenodd" d="M1181.1 358.702C1181.1 358.702 1181.1 358.702 1181.1 358.702C1181.1 556.621 1341.55 717.067 1539.47 717.067C1737.39 717.067 1897.83 556.621 1897.83 358.702C1897.83 358.702 1897.83 358.702 1897.83 358.702H1766.97C1766.97 484.348 1665.11 586.205 1539.47 586.205C1413.82 586.205 1311.97 484.348 1311.97 358.702H1181.1Z" fill="#50A684"/>
<path fill-rule="evenodd" clip-rule="evenodd" d="M1306.44 358.702C1306.44 358.702 1306.44 358.702 1306.44 358.702C1306.44 160.783 1146 0.337661 948.079 0.337678C750.16 0.337695 589.715 160.783 589.715 358.702C589.715 358.702 589.715 358.702 589.715 358.702L720.576 358.702C720.576 233.056 822.433 131.2 948.079 131.199C1073.73 131.199 1175.58 233.056 1175.58 358.702L1306.44 358.702Z" fill="black"/>
</svg>
