<svg width="281" height="224" viewBox="0 0 281 224" fill="none" xmlns="http://www.w3.org/2000/svg">
<path d="M103.842 94.9022C100.828 96.3298 96.7043 98.639 92.4321 102.289C89.3407 104.939 84.0497 109.575 80.5253 117.357C75.4258 128.597 77.3169 139.1 78.0197 142.311C80.5737 154.001 87.5921 161.048 90.2422 163.488C89.2618 164.404 87.8355 165.871 86.3523 167.834C86.0049 168.312 79.2373 177.42 81.4264 180.03C83.0845 181.982 89.0517 179.426 89.9702 179.025C95.4296 176.666 98.8368 172.425 102.66 167.527C104.275 165.441 105.491 163.661 106.274 162.454C104.207 159.975 101.26 155.875 99.2747 150.202C98.0292 146.665 93.7885 134.574 99.3387 126.022C101.889 122.1 103.638 123.287 111.293 116.06C116.908 110.743 120.067 107.776 119.698 104.498C119.211 100.062 112.508 96.4177 103.842 94.9022Z" fill="white" stroke="#161616" stroke-width="0.7"/>
<path d="M86.6736 159.495C91.4114 158.695 95.8271 156.545 99.3611 153.285C99.5682 153.105 99.261 152.784 99.0672 152.988C95.5666 156.197 91.2395 158.313 86.5667 159.09C86.2979 159.136 86.4047 159.54 86.6736 159.495Z" fill="#161616"/>
<path d="M91.4505 137.212C92.4519 143.091 94.4003 148.754 97.2121 154.001C97.3407 154.253 97.7148 154.04 97.5862 153.787C94.7877 148.563 92.8711 142.929 91.8596 137.087C91.8095 136.836 91.4054 136.943 91.4505 137.212Z" fill="#161616"/>
<path d="M77.3258 133.714C78.3379 132.826 79.8258 132.797 80.9514 133.519C82.0952 134.245 82.7364 135.585 82.9116 136.896C83.1202 138.374 82.8329 139.933 82.0662 141.224C81.2712 142.547 79.6412 143.602 78.2234 142.505C78.0147 142.329 77.7942 142.703 78.003 142.879C79.2754 143.858 80.8987 143.333 81.8924 142.223C83.1467 140.809 83.6262 138.689 83.3425 136.836C83.1122 135.293 82.2823 133.704 80.8378 132.994C79.5854 132.376 78.0674 132.515 77.0269 133.435C76.8064 133.592 77.1137 133.913 77.3258 133.714Z" fill="#161616"/>
<path d="M84.1966 111.352C86.1171 111.619 87.9624 112.162 89.6991 113.03C91.3306 113.85 93.064 114.876 93.807 116.638C93.9172 116.885 94.2913 116.671 94.1811 116.424C93.4648 114.709 91.8149 113.667 90.2252 112.838C88.3799 111.861 86.3793 111.236 84.3069 110.947C84.0397 110.914 83.9294 111.318 84.1966 111.352Z" fill="#161616"/>
<path d="M83.0957 112.926C85.083 113.311 86.9333 114.052 88.6282 115.146C88.8653 115.29 89.0808 114.934 88.8487 114.772C87.117 113.668 85.23 112.916 83.211 112.504C82.9438 112.47 82.8335 112.875 83.0957 112.926Z" fill="#161616"/>
<path d="M104.456 102.925C101.923 104.977 99.2721 106.879 96.5365 108.659C96.2977 108.811 96.5114 109.185 96.7502 109.033C99.5092 107.24 102.188 105.306 104.745 103.241C104.976 103.047 104.682 102.75 104.456 102.925Z" fill="#161616"/>
<path d="M94.3241 121.615C92.1178 124.131 90.5177 127.03 89.5304 130.215C89.4603 130.472 89.8644 130.582 89.9529 130.33C90.9018 127.214 92.4869 124.37 94.6364 121.917C94.8117 121.708 94.5178 121.411 94.3241 121.615Z" fill="#161616"/>
<path d="M98.8237 116.625C100.271 118.481 101.298 120.577 101.901 122.853C101.964 123.127 102.392 123.006 102.305 122.746C101.681 120.405 100.614 118.238 99.1026 116.326C98.964 116.111 98.6667 116.405 98.8237 116.625Z" fill="#161616"/>
<path d="M104.621 160.7C101.832 162.387 101.675 165.857 100.141 168.439C99.1876 170.053 97.8415 171.443 96.6423 172.872C95.4665 174.288 94.2957 175.686 93.1015 177.097C92.9261 177.306 93.215 177.621 93.3954 177.394C95.5666 174.789 97.9299 172.276 99.9058 169.519C101.786 166.894 101.869 162.831 104.798 161.064C105.069 160.941 104.855 160.567 104.621 160.7Z" fill="#161616"/>
<path d="M90.1035 163.706C91.6517 163.241 93.2081 163.034 94.823 163.119C95.0952 163.134 95.0953 162.7 94.823 162.685C93.1714 162.59 91.5549 162.8 89.9833 163.279C89.7412 163.371 89.843 163.793 90.1035 163.706Z" fill="#161616"/>
<path opacity="0.23" d="M107.982 117.13C105.864 117.441 98.3107 118.794 93.2099 125.337C88.9025 130.853 88.8201 136.869 88.7579 141.293C88.6167 151.36 92.7342 159.056 95.2021 162.887C94.8346 163.872 94.1798 165.332 92.9473 166.811C90.5723 169.657 88.2142 169.98 85.9328 171.904C84.413 173.207 82.5574 175.523 81.6485 180.012C82.1662 180.212 82.9327 180.441 83.8779 180.521C85.3024 180.653 87.6204 180.476 91.8608 177.666C94.6582 175.804 96.6674 173.866 98.3075 172.122C100.42 169.876 103.193 166.587 105.957 162.17C101.726 156.555 99.4667 151.379 98.2262 147.824C96.5549 143.026 96.288 139.953 96.223 138.889C96.0796 136.521 95.8462 132.313 97.9608 127.817C98.7008 126.263 99.1267 125.352 100.09 124.352C102.566 121.791 105.394 121.911 107.13 119.168C107.646 118.361 107.875 117.594 107.982 117.13Z" fill="#6D6C6C"/>
<path opacity="0.24" d="M100.725 122.966C98.7793 125.396 96.0585 129.509 94.6769 135.152C91.8201 146.925 96.9344 156.61 98.3905 159.158C98.4788 161.294 98.2948 164.5 96.8432 168.012C93.4156 176.235 85.6432 179.404 83.9063 180.055C85.2841 179.997 87.5386 179.763 90.0587 178.773C94.9169 176.881 97.828 173.373 101.367 169.01C102.638 167.462 104.402 165.12 106.227 162.046C101.924 156.333 99.7239 151.015 98.5802 147.466C97.3665 143.741 96.2462 140.178 96.5556 135.427C96.9519 129.634 99.267 125.272 100.725 122.966Z" fill="#6D6C6C"/>
<path d="M137.539 113.471C138.162 117.193 136.508 120.867 135.224 123.694C133.43 127.665 131.075 130.437 129.446 132.065C128.327 134.286 126.786 138.129 126.737 143.01C126.666 148.912 128.815 153.189 130.814 157.149C132.515 160.534 135.637 165.728 141.186 170.854C140.448 172.113 139.299 174.01 137.827 176.293C131.619 185.809 128.932 187.267 127.975 187.736C125.356 189.015 120.917 190.094 119.582 188.407C118.493 187.044 119.101 183.44 126.928 173.418C125.139 172.16 122.671 170.283 120.004 167.759C117.237 165.169 109.626 157.98 106.13 148.658C100.848 134.526 106.966 120.564 108.798 116.741C107.659 115.779 105.669 113.815 105.514 111.128C105.22 106.272 111.083 102.364 115.303 101.147C124.418 98.4829 136.192 105.386 137.539 113.471Z" fill="white" stroke="#161616" stroke-width="0.7"/>
<path d="M107.512 105.397C105.954 106.768 105.262 108.869 105.551 110.921C105.691 111.926 106.058 112.895 106.589 113.77C106.848 114.196 107.13 114.608 107.459 114.994C107.595 115.15 108.763 116.218 108.436 116.405C108.551 116.417 108.667 116.429 108.777 116.459C106.883 114.067 105.758 110.958 106.64 107.942C106.72 107.648 106.249 107.421 106.127 107.723C104.956 110.206 105.31 113.105 107.038 115.235C107.157 115.089 107.276 114.944 107.394 114.799C105.038 113.307 105.245 110.305 106.538 108.171C106.359 108.102 106.186 108.015 106.025 107.952C105.548 110.427 105.14 113.079 106.603 115.313C106.795 115.622 107.286 115.342 107.094 115.033C105.514 112.431 105.108 108.925 107.622 106.729C107.462 106.666 107.301 106.603 107.146 106.521C107.104 106.963 107.012 107.372 106.824 107.775C107.007 107.825 107.173 107.87 107.356 107.92C107.328 106.649 107.786 105.55 108.714 104.679C108.554 104.615 108.394 104.552 108.238 104.47C108.051 106.531 106.78 108.296 106.519 110.337C106.431 111.023 106.429 111.753 106.636 112.441C106.74 112.785 106.89 113.102 107.087 113.393C107.297 113.707 107.862 114.098 107.807 114.517C107.947 114.437 108.087 114.356 108.228 114.276C107.857 114.116 107.468 113.951 107.097 113.79C106.918 113.722 106.639 113.803 106.676 114.031C106.773 114.906 107.119 115.592 107.79 116.17C107.835 116.005 107.875 115.858 107.92 115.692C107.736 115.642 107.534 115.587 107.351 115.537C107.232 115.682 107.137 115.814 107.018 115.959C107.209 116.13 107.399 116.3 107.571 116.466C107.69 116.32 107.785 116.188 107.903 116.043C107.476 115.946 107.272 114.884 107.192 114.527C107.074 114.021 107.02 113.493 107.009 112.957C107.004 111.89 107.224 110.864 107.647 109.894C107.476 109.867 107.306 109.841 107.131 109.832C107.458 111.165 107.314 112.488 106.683 113.717C106.826 113.697 106.988 113.682 107.132 113.662C107.085 113.471 107.039 113.281 106.973 113.085C106.806 113.119 106.653 113.176 106.486 113.209C106.748 113.478 106.992 113.742 107.259 113.992C107.521 114.261 107.927 113.859 107.665 113.59C107.403 113.321 107.159 113.057 106.892 112.807C106.751 112.67 106.446 112.705 106.404 112.93C106.339 113.386 106.411 113.702 106.708 114.059C106.825 114.209 107.075 114.159 107.157 114.004C107.847 112.633 108.031 111.163 107.665 109.682C107.605 109.468 107.256 109.373 107.149 109.62C106.576 110.924 106.316 112.314 106.461 113.735C106.549 114.568 106.709 116.369 107.725 116.626C107.982 116.696 108.154 116.427 108.057 116.203C107.858 115.774 107.599 115.565 107.145 115.422C106.911 115.338 106.693 115.634 106.813 115.844C107.085 116.293 107.529 116.474 108.037 116.277C108.214 116.207 108.344 115.946 108.167 115.799C107.605 115.33 107.297 114.792 107.221 114.061C107.08 114.141 106.94 114.221 106.8 114.301C107.17 114.462 107.559 114.627 107.93 114.787C108.141 114.884 108.328 114.777 108.351 114.547C108.435 113.879 107.795 113.546 107.478 113.045C106.955 112.212 106.932 111.14 107.091 110.196C107.452 108.222 108.606 106.524 108.778 104.518C108.806 104.27 108.462 104.156 108.302 104.31C107.27 105.272 106.725 106.544 106.774 107.958C106.782 108.217 107.189 108.388 107.306 108.104C107.525 107.591 107.655 107.114 107.709 106.556C107.742 106.289 107.388 106.212 107.233 106.347C104.536 108.71 104.898 112.519 106.616 115.337C106.78 115.243 106.943 115.15 107.107 115.056C105.724 112.962 106.147 110.472 106.585 108.144C106.647 107.845 106.231 107.633 106.072 107.925C104.602 110.346 104.522 113.68 107.129 115.338C107.416 115.515 107.678 115.133 107.484 114.902C105.936 112.98 105.614 110.326 106.66 108.085C106.481 108.017 106.308 107.93 106.147 107.867C105.21 111.085 106.419 114.395 108.429 116.937C108.501 117.035 108.676 117.043 108.77 116.99C109.284 116.696 109.263 116.197 108.93 115.751C108.234 114.831 107.394 114.148 106.853 113.092C105.648 110.711 105.887 107.736 107.963 105.915C108.197 105.564 107.794 105.158 107.512 105.397Z" fill="white"/>
<path d="M131.41 116.259C131.238 118.482 129.533 120.247 128.195 121.895C127.061 123.303 125.908 124.705 124.838 126.17C122.81 128.972 121.212 132.009 120.386 135.396C118.888 141.54 119.802 148.243 123.025 153.721C125.147 157.3 128.058 160.305 130.993 163.217C131.197 163.411 131.494 163.117 131.291 162.924C128.699 160.342 126.117 157.723 124.095 154.645C122.225 151.806 120.976 148.642 120.416 145.272C119.89 141.991 120.027 138.594 120.826 135.378C121.674 131.978 123.314 128.932 125.384 126.121C126.673 124.361 128.095 122.696 129.429 120.988C130.545 119.575 131.652 118.121 131.803 116.267C131.864 115.968 131.425 115.987 131.41 116.259Z" fill="#161616"/>
<path d="M124.578 171.395C125.645 169.436 127.137 167.731 128.695 166.143C130.14 164.682 131.743 163.363 133.794 162.936C134.068 162.872 133.961 162.468 133.687 162.531C131.66 162.945 130.053 164.204 128.618 165.629C126.943 167.284 125.362 169.102 124.222 171.18C124.079 171.417 124.435 171.632 124.578 171.395Z" fill="#161616"/>
<path d="M138.46 168.551C137.291 169.436 136.487 170.716 136.23 172.166C136.115 172.806 136.133 173.462 136.235 174.101C136.365 174.926 136.171 175.347 135.769 176.027C135.481 176.501 135.199 176.957 134.917 177.413C132.627 181.032 130.15 184.54 127.514 187.907C127.339 188.115 127.646 188.436 127.808 188.204C130.32 185.001 132.71 181.666 134.89 178.235C135.439 177.378 136.031 176.513 136.517 175.599C136.844 174.978 136.747 174.537 136.637 173.856C136.36 171.905 137.214 170.007 138.777 168.835C138.974 168.691 138.667 168.37 138.46 168.551Z" fill="#161616"/>
<path d="M127.028 173.701C128.103 173.087 129.301 172.822 130.537 172.922C130.809 172.937 130.804 172.521 130.537 172.488C129.227 172.367 127.96 172.673 126.814 173.327C126.58 173.461 126.794 173.835 127.028 173.701Z" fill="#161616"/>
<path d="M120.965 148.975C121.673 149.563 123.144 148.8 123.871 148.524C125.058 148.078 126.12 147.441 127.049 146.569C127.238 146.384 126.949 146.068 126.755 146.272C126 147.013 125.12 147.562 124.16 147.972C123.67 148.174 121.761 149.094 121.299 148.691C121.072 148.511 120.756 148.8 120.965 148.975Z" fill="#161616"/>
<path d="M104.468 140.645C104.538 138.868 106.772 138.925 107.769 139.829C108.621 140.614 108.985 141.739 109.011 142.872C109.036 143.865 108.858 144.882 108.629 145.866C108.328 147.185 107.05 147.962 105.85 147.082C105.636 146.925 105.421 147.28 105.629 147.456C106.548 148.14 107.987 148 108.65 147.017C109.141 146.302 109.202 145.213 109.312 144.375C109.422 143.536 109.477 142.683 109.31 141.848C109.035 140.47 108.077 139.064 106.637 138.77C105.386 138.508 104.067 139.292 103.997 140.635C104.037 140.922 104.453 140.917 104.468 140.645Z" fill="#161616"/>
<path d="M114.143 130.574C114.131 131.124 114.059 131.676 113.914 132.209C113.844 132.466 114.243 132.595 114.336 132.324C114.492 131.755 114.574 131.165 114.595 130.579C114.574 130.297 114.158 130.302 114.143 130.574Z" fill="#161616"/>
<path d="M112.715 159.968C115.58 159.308 118.222 158.016 120.52 156.176C120.745 156.001 120.433 155.698 120.226 155.879C117.998 157.679 115.408 158.926 112.609 159.564C112.335 159.627 112.442 160.031 112.715 159.968Z" fill="#161616"/>
<path d="M122.096 122.185C121.408 126.083 118.505 128.981 116.915 132.495C115.447 135.706 115.116 139.307 115.855 142.745C115.919 143.019 116.328 142.894 116.259 142.638C115.44 138.843 116.013 134.933 117.864 131.55C119.517 128.527 121.875 125.815 122.495 122.314C122.552 122.033 122.13 121.918 122.096 122.185Z" fill="#161616"/>
<path opacity="0.19" d="M116.822 104.404C114.265 109.075 107.345 123.154 110.613 140.328C111.065 142.722 112.935 151.639 119.435 161.091C123.167 166.51 127.197 170.333 130.193 172.808C129.384 173.022 128.571 173.254 127.744 173.463C125.855 177.131 124.467 179.832 123.787 181.166C121.392 185.822 120.22 188.166 120.857 189.011C121.873 190.354 125.689 189.461 128.321 187.988C130.654 186.671 131.845 184.983 134.694 180.688C137.233 176.88 139.311 173.677 140.839 171.331C139.139 169.604 136.91 167.141 134.614 163.909C132.376 160.753 129.524 156.738 128.003 151.606C125.853 144.368 127.115 137.646 128.488 133.264C129.435 132.398 130.771 131.045 132.122 129.203C133.316 127.575 138.678 120.294 137.327 114.538C135.952 108.656 127.467 103.874 116.822 104.404Z" fill="#6D6C6C"/>
<path opacity="0.29" d="M128.268 112.658C125.814 116.153 122.166 122.362 120.769 130.882C119.282 139.95 121.127 147.006 122.364 151.587C124.937 161.111 129.507 168.161 133.092 172.672C132.354 174.799 131.316 177.299 129.828 179.933C127.72 183.68 125.363 186.53 123.361 188.589C123.613 188.678 123.944 188.768 124.308 188.808C125.627 188.892 126.594 188.169 126.923 187.903C127.89 187.397 129.28 186.572 130.729 185.31C132.748 183.552 133.886 181.77 136.081 178.283C138.586 174.309 140.236 171.66 140.901 170.598C138.495 168.422 135.195 165.035 132.138 160.254C130.685 157.982 128.782 154.976 127.581 151.057C125.356 143.66 126.848 136.745 128.321 132.429C130.587 130.561 135.002 126.318 136.507 119.643C136.879 117.988 137.023 116.448 137.02 115.086C134.109 114.252 131.188 113.455 128.268 112.658Z" fill="#6D6C6C"/>
<path d="M123.371 56.6713C120.848 54.7789 112.101 62.6756 110.769 63.8712C108.018 66.3575 104.253 70.2449 100.631 75.9276C95.2567 75.8035 89.8776 75.6978 84.5219 75.5788C80.4359 71.168 78.9029 70.276 78.3968 70.6117C78.0311 70.8671 77.9943 71.9426 78.1996 72.7092C78.43 73.601 78.9142 73.8515 78.8157 74.1404C78.5885 74.8284 75.8364 74.1368 73.47 74.2017C68.6821 74.3165 64.5603 77.4156 64.789 78.1688C65.1096 79.1642 73.8104 77.5117 73.8087 77.5902C73.8121 77.6503 69.7456 77.508 67.566 80.0712C66.7276 81.0464 66.011 82.5877 66.5537 83.3476C66.8543 83.7652 67.5223 83.8487 70.0557 83.5333C73.2605 83.1445 75.3914 82.6404 75.4298 82.789C75.4983 83.0445 68.6077 84.9343 68.7629 85.8846C68.8898 86.6494 73.5274 86.4344 74.0451 86.4178C77.6005 86.2628 80.5164 85.5583 82.6039 84.9239C84.2688 86.1281 87.3331 87.9905 91.5614 88.7691C99.1581 90.1509 105.05 87.0018 106.583 86.1569C109.766 84.4003 112.248 81.0906 117.244 74.4996C120.182 70.6038 123.982 65.0681 124.036 58.8657C124.044 58.0391 123.976 57.1323 123.371 56.6713Z" fill="white" stroke="#161616" stroke-width="0.7"/>
<path d="M66.9846 83.0704C69.1291 81.2871 72.0683 81.2205 74.7153 80.7782C75.0676 80.7165 74.9224 80.1637 74.57 80.2255C71.8161 80.6978 68.8485 80.7961 66.6006 82.6696C66.2999 82.9034 66.7024 83.3092 66.9846 83.0704Z" fill="#161616"/>
<path d="M77.9754 77.1479C78.6783 78.8396 80.1311 80.0255 81.9146 80.4331C82.2686 80.51 82.419 79.9589 82.0649 79.882C80.41 79.5095 79.1259 78.4289 78.4848 76.8724C78.3211 76.5317 77.8301 76.8122 77.9754 77.1479Z" fill="#161616"/>
<path d="M110.687 64.0263C111.24 65.4008 112.046 66.5682 113.156 67.5619C113.15 67.4417 113.12 67.3348 113.113 67.2146C112.248 68.7943 111.224 70.2321 110.027 71.583C109.776 71.8502 110.178 72.256 110.429 71.9888C111.655 70.6062 112.712 69.1183 113.606 67.5069C113.654 67.4016 113.657 67.2447 113.562 67.1595C112.529 66.2459 111.739 65.162 111.221 63.8761C111.113 63.5504 110.56 63.6956 110.687 64.0263Z" fill="#161616"/>
<path d="M103.327 87.6763C103.698 84.7972 106.587 83.1776 109.239 84.2366C109.578 84.3686 109.728 83.8175 109.389 83.6855C106.343 82.4795 103.155 84.4715 102.754 87.6779C102.695 88.0369 103.268 88.0353 103.327 87.6763Z" fill="#161616"/>
<path d="M89.1045 75.7828C88.296 77.5162 87.7398 79.3381 87.4406 81.2302C87.3822 81.5892 87.9333 81.7395 87.9917 81.3805C88.2808 79.5252 88.7987 77.7717 89.5971 76.0751C89.7474 75.7411 89.2548 75.4488 89.1045 75.7828Z" fill="#161616"/>
<path opacity="0.24" d="M123.701 61.9719C120.864 64.1978 118.829 66.2283 117.497 67.641C112.812 72.6589 111.422 75.2206 107.327 78.3665C105.801 79.5487 103.312 81.2185 99.7432 82.6527C97.3585 82.4955 93.93 82.3298 89.8201 82.2743C84.8001 82.2271 82.2183 82.2135 79.1872 82.6892C76.6939 83.0747 73.0916 83.9077 68.8647 85.8729C70.5948 86.1871 72.8392 86.4244 75.4662 86.2727C78.412 86.1093 80.8453 85.51 82.6272 84.9106C83.7778 85.7574 85.5462 86.8715 87.8741 87.7434C93.7957 89.9116 98.9845 88.7614 100.693 88.3591C102.276 87.9819 105.174 87.2724 108.121 85.0766C109.008 84.4304 109.875 83.6406 112.389 80.5763C116.372 75.7421 118.625 72.9818 120.885 68.6049C121.67 67.102 122.721 64.8426 123.701 61.9719Z" fill="#6D6C6C"/>
<path opacity="0.26" d="M67.7697 82.0018C68.1171 81.7413 69.1909 80.9882 72.2137 80.6879C73.3292 80.5778 76.4488 80.2841 76.6408 81.0273C76.6959 81.2594 76.5121 81.6435 75.2997 82.3982C73.825 82.8841 71.9262 83.3331 69.6967 83.4749C68.4893 83.5599 67.3721 83.5315 66.3901 83.4412C66.6707 83.0638 67.0983 82.5094 67.7697 82.0018Z" fill="#6D6C6C"/>
<path opacity="0.34" d="M121.785 67.5477C120.053 69.2659 117.065 72.26 113.331 76.0372C107.982 81.4658 105.091 84.0324 102.959 85.1878C100.394 86.5603 94.018 89.0246 82.4804 84.6532C84.2137 85.8958 89.6993 89.4451 97.1743 88.9581C102.563 88.5929 106.303 86.317 107.206 85.7543C108.138 85.1599 110.055 83.8475 114.396 78.2817C116.382 75.7051 118.999 72.1165 121.785 67.5477Z" fill="#6D6C6C"/>
<path opacity="0.47" d="M69.86 85.9865C72.2231 85.8615 75.1573 85.5962 78.499 85.0671C80.9139 84.6799 82.492 84.321 82.5304 84.4697C82.5822 84.6417 80.0019 85.6351 77.1746 86.0874C74.2086 86.5414 71.6686 86.3023 69.86 85.9865Z" fill="#6D6C6C"/>
<path d="M138.563 61.2501C139.7 61.2051 156.116 60.7891 163.314 72.1675C171.12 84.5011 161.226 99.8608 156.645 106.96C151.742 114.583 147.671 115.978 145.625 116.387C141.677 117.185 138.439 115.67 135.176 114.247C129.62 111.823 121.678 108.67 111.141 105.479C116.292 91.1544 121.467 76.8163 126.619 62.4915C130.6 62.0777 134.581 61.6639 138.563 61.2501Z" fill="#161616" stroke="#161616" stroke-width="0.7"/>
<path d="M150.469 71.7222C154.514 72.8849 160.706 75.3637 165.134 81.0521C167.926 84.6362 170.147 89.6631 170.501 107.247C170.985 130.214 167.461 133.654 171.207 142.492C171.735 143.741 176.824 155.255 188.42 159.701C202.838 165.233 217.617 156.062 227.738 149.783C245.274 138.896 255.18 123.856 260.433 113.644C262.488 114.935 264.526 116.221 266.581 117.512C254.573 133.677 242.558 144.945 233.614 152.334C216.522 166.44 208.147 168.419 203.085 169.031C199.449 169.48 187.08 170.98 176.262 162.957C166.213 155.517 163.724 144.457 162.891 140.855C161.958 136.751 162.26 135.136 162.858 121.444C164.031 94.8629 163.361 89.6475 159.818 85.5623C157.821 83.2609 153.995 80.2829 146.181 79.3353C147.626 76.7887 149.048 74.2555 150.469 71.7222Z" fill="white" stroke="#161616" stroke-width="0.7"/>
<path d="M160.082 85.3185C160.829 83.4499 162.355 82.0505 164.257 81.4445C164.601 81.341 164.456 80.7882 164.112 80.8917C161.991 81.5762 160.351 83.1025 159.531 85.1682C159.394 85.5255 159.95 85.6575 160.082 85.3185Z" fill="#161616"/>
<path d="M163.695 93.9229C165.066 92.4417 166.903 91.6403 168.922 91.6188C169.296 91.6221 169.295 91.0493 168.921 91.0459C166.768 91.0508 164.754 91.9223 163.298 93.4987C163.042 93.7842 163.444 94.1901 163.695 93.9229Z" fill="#161616"/>
<path d="M163.886 89.3168C165.005 88.1813 166.555 87.637 168.134 87.8509C168.493 87.9094 168.644 87.3583 168.285 87.2998C166.498 87.0492 164.763 87.6218 163.483 88.9109C163.233 89.1781 163.635 89.584 163.886 89.3168Z" fill="#161616"/>
<path d="M164.019 108.36C165.594 107.072 167.69 106.697 169.617 107.302C169.961 107.415 170.112 106.864 169.768 106.75C167.625 106.067 165.347 106.531 163.617 107.954C163.316 108.188 163.719 108.594 164.019 108.36Z" fill="#161616"/>
<path d="M164.912 102.268C166.264 100.999 168.186 100.97 169.923 101.188C170.287 101.228 170.286 100.655 169.922 100.615C168.015 100.371 165.989 100.489 164.509 101.862C164.245 102.106 164.648 102.511 164.912 102.268Z" fill="#161616"/>
<path d="M163.73 98.5702C165.041 97.3095 166.871 96.822 168.631 97.243C168.985 97.3199 169.136 96.7688 168.782 96.6919C166.819 96.2158 164.799 96.75 163.332 98.146C163.063 98.4082 163.466 98.814 163.73 98.5702Z" fill="#161616"/>
<path d="M163.156 121.289C165.156 120.038 167.504 119.751 169.756 120.464C170.1 120.578 170.251 120.027 169.907 119.913C167.525 119.165 164.992 119.48 162.876 120.798C162.549 120.985 162.847 121.481 163.156 121.289Z" fill="#161616"/>
<path d="M163.315 117.74C165.177 116.413 167.512 116.102 169.666 116.887C170.005 117.019 170.156 116.468 169.817 116.336C167.539 115.498 165.019 115.837 163.035 117.249C162.726 117.441 163.001 117.951 163.315 117.74Z" fill="#161616"/>
<path d="M163.509 113.846C164.869 112.914 166.471 112.542 168.114 112.813C168.473 112.871 168.623 112.32 168.264 112.261C166.487 111.974 164.734 112.325 163.229 113.355C162.915 113.565 163.196 114.056 163.509 113.846Z" fill="#161616"/>
<path d="M165.911 111.264C167.266 110.785 168.642 110.805 169.979 111.328C170.318 111.46 170.469 110.909 170.13 110.777C168.719 110.234 167.209 110.197 165.766 110.711C165.412 110.852 165.557 111.404 165.911 111.264Z" fill="#161616"/>
<path d="M163.517 142.249C165.089 140.684 167.144 139.805 169.354 139.736C169.715 139.716 169.731 139.148 169.352 139.163C166.986 139.228 164.795 140.17 163.115 141.843C162.846 142.105 163.248 142.511 163.517 142.249Z" fill="#161616"/>
<path d="M162.562 136.778C164.199 135.192 166.477 134.511 168.708 134.942C169.062 135.018 169.212 134.467 168.858 134.391C166.42 133.923 163.952 134.651 162.16 136.372C161.896 136.616 162.298 137.022 162.562 136.778Z" fill="#161616"/>
<path d="M162.813 130.215C164.599 128.807 166.967 128.447 169.103 129.227C169.441 129.359 169.592 128.808 169.253 128.676C166.92 127.822 164.351 128.266 162.411 129.809C162.11 130.043 162.513 130.449 162.813 130.215Z" fill="#161616"/>
<path d="M164.096 132.025C165.762 131.414 167.478 131.349 169.181 131.834C169.53 131.929 169.68 131.378 169.331 131.283C167.536 130.773 165.706 130.826 163.951 131.473C163.601 131.594 163.747 132.147 164.096 132.025Z" fill="#161616"/>
<path d="M180.237 155.475C180.289 156.733 180.142 157.995 179.756 159.193C179.39 160.317 178.816 161.699 177.673 162.197C177.338 162.342 177.618 162.833 177.954 162.688C179.059 162.18 179.629 161.033 180.082 159.953C180.671 158.515 180.888 156.995 180.815 155.455C180.79 155.113 180.217 155.115 180.237 155.475Z" fill="#161616"/>
<path d="M186.114 159.98C186.434 162.061 185.684 164.086 184.134 165.499C183.87 165.743 184.273 166.148 184.537 165.905C186.242 164.357 187.015 162.101 186.667 159.834C186.61 159.464 186.057 159.609 186.114 159.98Z" fill="#161616"/>
<path d="M198.158 161.845C199.158 164.111 198.848 166.691 197.429 168.712C197.21 169.007 197.703 169.299 197.921 169.004C199.483 166.825 199.737 164.012 198.667 161.569C198.503 161.228 198.012 161.509 198.158 161.845Z" fill="#161616"/>
<path d="M229.217 149.279C230.313 150.111 230.815 151.452 230.667 152.793C230.627 153.157 231.199 153.155 231.239 152.791C231.43 151.225 230.75 149.737 229.51 148.786C229.214 148.568 228.922 149.06 229.217 149.279Z" fill="#161616"/>
<path d="M242.48 138.647C243.543 139.451 244.215 140.68 244.288 142.003C244.308 142.363 244.881 142.362 244.861 142.001C244.769 140.456 244.018 139.087 242.772 138.155C242.476 137.936 242.202 138.434 242.48 138.647Z" fill="#161616"/>
<path d="M212.441 158.321C213.323 160.515 213.286 162.893 212.307 165.034C212.157 165.368 212.649 165.66 212.8 165.326C213.837 163.044 213.919 160.5 212.994 158.175C212.849 157.84 212.296 157.985 212.441 158.321Z" fill="#161616"/>
<path d="M206.021 161.089C206.977 163.086 207.928 165.458 206.527 167.483C206.326 167.784 206.819 168.076 207.02 167.775C208.531 165.563 207.556 162.988 206.517 160.79C206.344 160.486 205.853 160.766 206.021 161.089Z" fill="#161616"/>
<path d="M166.777 150.915C167.838 149.053 169.62 147.802 171.721 147.408C172.073 147.347 171.928 146.794 171.576 146.856C169.331 147.27 167.417 148.642 166.285 150.623C166.098 150.947 166.59 151.239 166.777 150.915Z" fill="#161616"/>
<path d="M169.112 154.947C170.779 153.033 172.923 151.684 175.39 151.034C175.752 150.936 175.607 150.383 175.245 150.482C172.694 151.148 170.438 152.545 168.728 154.546C168.459 154.808 168.856 155.232 169.112 154.947Z" fill="#161616"/>
<path d="M165.681 145.82C166.711 144.719 168.071 144.005 169.562 143.819C169.928 143.781 169.926 143.208 169.56 143.247C167.907 143.447 166.404 144.181 165.278 145.414C165.051 145.668 165.43 146.087 165.681 145.82Z" fill="#161616"/>
<path d="M220.945 154.206C222.667 155.347 223.637 157.289 223.547 159.357C223.525 159.726 224.098 159.724 224.119 159.355C224.223 157.094 223.128 154.96 221.256 153.719C220.937 153.513 220.645 154.006 220.945 154.206Z" fill="#161616"/>
<path d="M224.778 153.614C225.529 154.332 225.985 155.266 226.037 156.306C226.057 156.667 226.63 156.665 226.61 156.305C226.538 155.121 226.044 154.038 225.184 153.212C224.917 152.961 224.511 153.364 224.778 153.614Z" fill="#161616"/>
<path d="M233.818 146.015C234.715 146.634 235.366 147.503 235.737 148.532C235.859 148.881 236.412 148.735 236.29 148.386C235.862 147.204 235.121 146.232 234.111 145.522C233.81 145.322 233.518 145.814 233.818 146.015Z" fill="#161616"/>
<path d="M249.783 129.962C251.238 130.636 252.363 131.791 252.923 133.286C253.049 133.617 253.602 133.472 253.475 133.141C252.854 131.511 251.672 130.201 250.076 129.47C249.742 129.32 249.449 129.812 249.783 129.962Z" fill="#161616"/>
<path d="M193.433 162.667C193.844 164.418 193.469 166.151 192.385 167.592C192.167 167.888 192.659 168.18 192.878 167.884C194.034 166.325 194.422 164.398 193.986 162.522C193.906 162.165 193.353 162.31 193.433 162.667Z" fill="#161616"/>
<path d="M219.013 158.179C219.771 159.452 219.953 160.883 219.525 162.306C219.43 162.655 219.981 162.805 220.076 162.456C220.539 160.905 220.347 159.293 219.504 157.899C219.317 157.571 218.821 157.87 219.013 158.179Z" fill="#161616"/>
<path opacity="0.29" d="M148.822 73.7793C154.709 77.3787 162.851 83.7054 166.233 93.8058C169.456 103.409 165.851 108.011 166.172 124.993C166.406 137.373 166.641 149.101 174.561 156.966C184.657 166.983 201.068 164.632 204.026 164.136C212.277 162.756 218.283 158.829 227.494 152.776C234.343 148.289 239.178 144.023 241.524 141.86C247.343 136.52 255.427 127.87 262.649 115.216C263.908 115.954 265.162 116.711 266.403 117.444C261.962 123.811 257.823 128.781 254.666 132.321C248.154 139.623 242.792 144.16 232.074 153.275C227.864 156.844 224.884 159.228 220.714 161.781C216.858 164.124 213.563 166.146 208.885 167.594C205.932 168.505 196.622 171.235 185.821 167.637C179.652 165.579 175.661 162.338 174.318 161.183C173.166 160.197 167.472 155.17 164.245 146.237C162.038 140.148 162.24 134.558 162.65 123.361C162.995 113.705 163.964 109.43 163.518 99.203C163.196 91.7732 162.485 89.1713 161.025 86.7797C157.188 80.4434 149.906 78.417 146.617 77.737C147.412 76.4144 148.111 75.0852 148.822 73.7793Z" fill="#6D6C6C"/>
<path d="M121.853 56.8096C118.648 59.1523 116.879 65.4197 113.299 77.9627C112.145 82.0491 111.315 85.4541 110.785 87.757C107.233 90.7944 103.68 93.8318 100.104 96.8826C102.193 99.6433 104.955 102.686 108.534 105.557C119.278 114.212 131.033 116.196 137.04 116.749C141.257 110.696 144.496 105.48 146.78 101.663C157.473 83.7383 157.753 78.229 156.983 74.2493C156.207 70.1494 154.285 67.3553 153.402 66.1077C146.195 55.7731 129.751 51.0105 121.853 56.8096Z" fill="white" stroke="#161616" stroke-width="0.7"/>
<path d="M113.635 92.5016C113.982 93.1095 114.438 93.6089 114.974 94.0315C115.27 94.2503 115.562 93.7576 115.267 93.5388C114.794 93.1731 114.425 92.7171 114.126 92.2211C113.934 91.9121 113.443 92.1927 113.635 92.5016Z" fill="#161616"/>
<path d="M111.124 85.7181C110.692 87.1593 110.738 88.6523 111.281 90.0634C111.368 90.324 111.795 90.2038 111.685 89.9566C111.164 88.6105 111.111 87.2144 111.542 85.8517C111.617 85.5762 111.213 85.4659 111.124 85.7181Z" fill="#161616"/>
<path d="M133.361 89.5742C133.111 90.0585 132.356 91.017 132.51 91.6115C132.682 92.2111 133.782 92.5903 134.271 92.8224C135.971 93.681 137.792 94.3157 139.664 94.6883C143.476 95.4719 147.436 95.2101 151.116 93.9446C151.377 93.8577 151.275 93.4352 151.01 93.5404C147.827 94.6457 144.438 94.9844 141.113 94.5114C139.497 94.2875 137.912 93.8749 136.391 93.3019C135.552 92.9745 134.729 92.592 133.934 92.1778C133.35 91.8604 132.907 91.8187 133.124 90.9503C133.211 90.5595 133.52 90.1504 133.694 89.803C133.861 89.5526 133.487 89.3321 133.361 89.5742Z" fill="#161616"/>
<path d="M106.393 91.6311C107.95 94.6021 110.038 97.2242 112.606 99.3854C112.815 99.5608 113.13 99.2719 112.903 99.0915C110.367 96.9587 108.288 94.3784 106.743 91.4307C106.638 91.1651 106.264 91.3789 106.393 91.6311Z" fill="#161616"/>
<path d="M120.588 69.3326C119.962 69.2407 119.724 68.0116 119.716 67.5356C119.695 66.8192 119.927 66.1128 120.359 65.5401C121.229 64.3761 122.823 63.9621 124.047 64.829C125.189 65.634 125.426 67.2974 124.663 68.4312C124.228 69.0825 123.527 69.4832 122.762 69.6101C122.081 69.7202 120.967 69.7518 120.437 69.2324C120.234 69.0387 119.936 69.3326 120.14 69.5263C120.76 70.1493 121.979 70.1661 122.785 70.0309C123.587 69.9141 124.307 69.5184 124.833 68.8922C125.9 67.5846 125.722 65.5623 124.367 64.5217C122.9 63.391 120.897 63.9302 119.91 65.378C119.419 66.0927 119.197 66.9795 119.317 67.8412C119.4 68.4758 119.741 69.6148 120.483 69.7184C120.74 69.7886 120.868 69.3894 120.588 69.3326Z" fill="#161616"/>
<path d="M112.385 81.3845C114.154 83.8011 116.648 85.5081 119.561 86.2632C119.818 86.3334 119.952 85.9159 119.676 85.8407C116.892 85.1207 114.474 83.4939 112.759 81.1708C112.602 80.9503 112.228 81.164 112.385 81.3845Z" fill="#161616"/>
<path d="M119.187 97.0364C123.679 100.176 128.718 102.4 134.05 103.618C134.312 103.669 134.441 103.27 134.165 103.195C128.87 101.987 123.868 99.774 119.408 96.6623C119.176 96.5003 118.955 96.8744 119.187 97.0364Z" fill="#161616"/>
<path d="M132.067 114.287C131.853 114.781 131.584 115.261 131.265 115.706C131.103 115.939 131.477 116.159 131.639 115.927C131.958 115.481 132.222 115.02 132.441 114.508C132.548 114.26 132.173 114.04 132.067 114.287Z" fill="#161616"/>
<path d="M134.076 114.736C133.955 115.177 133.748 115.575 133.441 115.905C133.247 116.109 133.559 116.411 133.735 116.202C134.099 115.808 134.363 115.347 134.485 114.828C134.573 114.576 134.151 114.461 134.076 114.736Z" fill="#161616"/>
<path d="M136.218 114.985C136.118 115.353 135.931 115.677 135.644 115.934C135.437 116.114 135.744 116.435 135.938 116.231C136.277 115.929 136.507 115.518 136.627 115.077C136.711 114.843 136.288 114.728 136.218 114.985Z" fill="#161616"/>
<path d="M131.202 71.3012C130.496 73.0229 129.812 74.7312 129.106 76.4529C128.974 76.7919 128.63 77.3296 128.783 77.7071C128.985 78.1964 129.827 78.3668 130.248 78.5606C133.414 79.977 136.662 81.2382 139.927 82.3657C140.179 82.4543 140.294 82.0318 140.042 81.9432C137.14 80.9343 134.281 79.8385 131.475 78.6191C131.141 78.4688 130.807 78.3185 130.455 78.1631C130.171 78.0462 129.633 77.9192 129.435 77.7071C128.947 77.1794 129.687 76.0589 129.916 75.5095C130.467 74.1401 131.018 72.7708 131.593 71.3881C131.737 71.1509 131.314 71.0357 131.202 71.3012Z" fill="#161616"/>
<path d="M131.519 71.3679C134.861 71.7072 137.994 72.9567 141.031 74.338C141.718 74.6437 142.913 74.891 142.903 75.7961C142.895 76.4057 142.476 77.2189 142.26 77.7917C141.692 79.2946 140.927 80.7241 140.044 82.0817C139.9 82.3188 140.256 82.5343 140.418 82.3022C141.425 80.7809 142.245 79.1494 142.855 77.421C143.052 76.8432 143.489 76.035 143.388 75.3954C143.311 74.881 142.862 74.719 142.441 74.5252C138.961 72.8849 135.395 71.3399 131.533 70.9571C131.247 70.9187 131.247 71.3529 131.519 71.3679Z" fill="#161616"/>
<path d="M130.698 73.5123C134.893 73.9068 138.87 75.3868 142.31 77.8253C142.543 77.9873 142.745 77.6082 142.531 77.4512C139.022 74.9743 134.971 73.4743 130.698 73.0781C130.425 73.063 130.43 73.4789 130.698 73.5123Z" fill="#161616"/>
<path d="M135.898 76.8058C135.455 77.8495 135.012 78.8932 134.601 79.9653C134.494 80.2125 134.917 80.3278 135.024 80.0806C135.42 79.0636 135.839 78.0333 136.272 77.0263C136.379 76.7792 136.004 76.5587 135.898 76.8058Z" fill="#161616"/>
<path d="M136.026 77.0581C137.76 77.8665 139.488 78.6933 141.221 79.5018C141.469 79.6087 141.684 79.253 141.442 79.1277C139.709 78.3193 137.98 77.4925 136.247 76.684C136.005 76.5588 135.784 76.9328 136.026 77.0581Z" fill="#161616"/>
<path d="M123.352 104.054C122.874 105.443 121.882 106.692 121.057 107.908C120.227 109.142 119.378 110.371 118.498 111.572C118.336 111.804 118.715 112.006 118.872 111.792C119.819 110.491 120.734 109.162 121.636 107.81C122.405 106.657 123.317 105.485 123.756 104.164C123.844 103.912 123.44 103.802 123.352 104.054Z" fill="#161616"/>
<path d="M123.527 104.062C126.6 105.532 129.756 106.768 132.986 107.807C132.932 107.714 132.879 107.62 132.839 107.55C132.177 110.409 130.869 113.033 128.96 115.255C128.785 115.464 129.079 115.761 129.254 115.552C131.22 113.266 132.566 110.575 133.248 107.642C133.278 107.532 133.211 107.415 133.101 107.385C129.908 106.356 126.789 105.13 123.748 103.688C123.5 103.581 123.28 103.955 123.527 104.062Z" fill="#161616"/>
<path d="M121.413 108.124C124.195 110.225 127.441 111.564 130.904 112.036C131.172 112.069 131.282 111.665 131.02 111.613C127.593 111.152 124.402 109.827 121.633 107.75C121.419 107.593 121.204 107.948 121.413 108.124Z" fill="#161616"/>
<path d="M128.236 109.156C127.97 109.696 127.705 110.235 127.439 110.774C127.314 111.016 127.688 111.237 127.813 110.995C128.079 110.455 128.345 109.916 128.61 109.377C128.735 109.135 128.361 108.914 128.236 109.156Z" fill="#161616"/>
<path d="M121.429 111.681C121.269 111.617 121.315 111.373 121.382 111.273C121.459 111.136 121.581 111.051 121.73 111.013C122.032 110.918 122.306 111.071 122.401 111.374C122.573 111.973 121.798 112.354 121.421 111.856C121.264 111.636 120.889 111.849 121.046 112.07C121.365 112.492 121.958 112.634 122.407 112.362C122.88 112.077 122.969 111.39 122.655 110.949C122.327 110.485 121.668 110.443 121.235 110.799C120.803 111.155 120.741 111.888 121.309 112.122C121.566 112.192 121.676 111.788 121.429 111.681Z" fill="#161616"/>
<path d="M124.471 112.827C124.211 112.696 124.126 112.357 124.356 112.164C124.597 111.933 124.964 112.033 125.125 112.314C125.258 112.548 125.246 112.88 124.949 112.957C124.735 113.017 124.46 112.942 124.263 112.868C124.006 112.798 123.895 113.202 124.147 113.291C124.547 113.42 125.094 113.51 125.425 113.166C125.789 112.772 125.627 112.135 125.236 111.831C124.846 111.527 124.258 111.584 123.954 111.975C123.645 112.384 123.793 112.997 124.246 113.219C124.493 113.326 124.714 112.952 124.471 112.827Z" fill="#161616"/>
<path d="M127.481 113.805C126.933 113.498 127.462 112.715 127.953 113.086C128.135 113.214 128.189 113.525 128.079 113.712C127.935 113.949 127.601 114.016 127.359 113.891C127.117 113.765 126.896 114.139 127.138 114.265C127.586 114.505 128.17 114.388 128.429 113.946C128.655 113.553 128.538 112.969 128.15 112.725C127.763 112.481 127.184 112.58 126.935 112.985C126.662 113.405 126.844 113.967 127.255 114.198C127.502 114.305 127.718 113.949 127.481 113.805Z" fill="#161616"/>
<path d="M143.846 63.0074C146.273 64.8931 148.368 67.1227 150.106 69.6496C150.322 69.9452 150.813 69.6647 150.597 69.369C148.806 66.7487 146.647 64.4622 144.139 62.5148C143.848 62.2776 143.574 62.7753 143.846 63.0074Z" fill="#161616"/>
<path d="M144.149 62.6951C144.57 62.4547 145.066 62.1558 145.562 62.074C146.303 61.9605 146.717 62.2512 147.257 62.7338C147.814 63.2215 148.315 63.7727 148.769 64.3505C149.813 65.6616 150.66 67.1162 151.506 68.5709C151.693 68.8982 152.189 68.5993 151.997 68.2903C150.923 66.4382 149.836 64.5627 148.35 62.9928C147.858 62.4834 147.051 61.5331 146.296 61.4061C145.523 61.2741 144.518 61.8485 143.887 62.2091C143.546 62.3728 143.821 62.8821 144.149 62.6951Z" fill="#161616"/>
<path d="M150.571 69.7566C150.965 69.4694 151.364 69.1638 151.772 68.9C152.067 68.6846 151.787 68.1936 151.491 68.409C151.05 68.7229 150.609 69.0368 150.168 69.3508C150.046 69.4359 150.065 69.658 150.155 69.7616C150.3 69.8802 150.449 69.8418 150.571 69.7566Z" fill="#161616"/>
<path opacity="0.18" d="M122.302 57.623C124.592 58.9976 127.08 60.3673 129.73 61.7219C132.951 63.3705 136.039 64.7852 138.965 65.9979C131.539 81.7152 128.839 87.6301 127.844 89.9046C127.668 90.3304 126.551 92.9071 124.999 96.3522C124.51 97.4226 124.117 98.2826 123.898 98.7953C123.038 98.6199 122.155 98.4578 121.295 98.2824C118.137 101.25 114.997 104.222 111.844 107.171C113.996 108.903 116.837 110.862 120.414 112.509C127.018 115.574 133.087 116.263 136.97 116.355C138.109 114.712 139.802 112.193 141.85 109.101C151.947 93.7962 153.659 89.3291 154.387 87.2383C156.39 81.4887 157.613 77.875 156.67 73.1571C154.765 63.7165 143.87 58.0007 143.326 57.7535C133.313 53.1468 123.929 56.9418 122.302 57.623Z" fill="#6D6C6C"/>
<path opacity="0.28" d="M110.721 87.9173C110.601 87.924 110.349 90.2236 111.685 91.9104C112.269 92.6619 113.054 93.1129 113.134 93.0361C113.238 92.9459 112.257 92.1259 111.523 90.6228C110.761 89.073 110.805 87.9006 110.721 87.9173Z" fill="#6D6C6C"/>
<path opacity="0.33" d="M119.244 96.9729C120.078 98.1871 121.433 99.8004 123.506 101.175C128.051 104.191 132.853 103.883 134.496 103.719C132.275 103.252 129.529 102.463 126.55 101.157C123.539 99.8223 121.11 98.3107 119.244 96.9729Z" fill="#6D6C6C"/>
<path opacity="0.38" d="M155.313 78.491C151.486 86.5851 147.778 93.0143 144.955 97.5731C139.323 106.714 136.983 108.563 134.902 109.751C127.828 113.762 119.659 111.731 116.016 110.54C118.593 111.874 121.778 113.296 125.508 114.452C129.84 115.791 133.743 116.461 136.951 116.784C140.834 111.449 143.804 106.713 145.999 103.009C152.374 92.1563 153.864 86.8392 154.574 83.4408C154.973 81.3984 155.186 79.68 155.313 78.491Z" fill="#6D6C6C"/>
<path d="M154.529 67.1849C157.455 68.1805 157.681 74.6568 157.808 78.6781C157.961 83.1805 158.306 93.4193 151.258 101.819C146.992 106.892 141.701 109.356 136.192 111.899C132.94 113.4 130.116 114.347 128.094 114.959C127.995 115.683 127.504 118.568 124.932 120.689C121.687 123.396 117.776 122.684 117.251 122.58C120.346 120.208 120.87 119.66 120.799 119.561C120.7 119.416 119.152 120.75 117.125 120.947C115.019 121.142 113.195 120.013 112.041 119.106C113.148 118.954 114.745 118.601 116.402 117.592C117.37 117.008 118.241 116.278 118.134 116.091C117.992 115.815 116.088 117.151 114.079 116.702C112.796 116.411 111.901 115.496 111.412 114.829C112.177 114.92 114.022 115.028 115.956 114.016C117.105 113.422 117.87 112.644 118.329 112.118C117.887 111.859 117.379 111.622 116.788 111.401C115.422 110.91 114.21 110.797 113.323 110.791C115.778 108.955 117.887 108.385 119.369 108.237C121.952 107.955 123.371 108.757 125.97 107.985C127.495 107.533 128.55 106.775 129.711 105.848C135.812 100.92 140.183 97.4156 142.102 91.6827C144.06 85.8813 141.144 84.8489 142.952 78.9473C145.051 72.1189 151.241 66.0707 154.529 67.1849Z" fill="white" stroke="#161616" stroke-width="0.7"/>
<path d="M112.382 119.377C114.483 120.503 117.759 119.778 119.613 118.409C119.909 118.193 119.628 117.702 119.333 117.918C117.676 119.143 114.606 119.905 112.674 118.884C112.345 118.715 112.053 119.208 112.382 119.377Z" fill="#161616"/>
<path d="M143.153 88.1204C145.558 86.4673 148.485 86.7331 151.199 87.2761C151.461 87.3279 151.576 86.9054 151.314 86.8536C148.485 86.2989 145.442 86.0214 142.939 87.7463C142.719 87.9033 142.932 88.2774 143.153 88.1204Z" fill="#161616"/>
<path d="M151.014 87.3046C150.917 89.0347 150.526 90.6847 149.868 92.3012C149.761 92.5483 150.183 92.6636 150.29 92.4164C150.953 90.7816 151.341 89.0715 151.448 87.3047C151.463 87.0325 151.029 87.0324 151.014 87.3046Z" fill="#161616"/>
<path d="M142.02 92.7062C144.478 91.5808 147.149 91.9936 149.717 92.418C149.979 92.4698 150.095 92.0473 149.832 91.9955C147.135 91.536 144.377 91.1583 141.806 92.3321C141.559 92.4423 141.773 92.8164 142.02 92.7062Z" fill="#161616"/>
<path d="M142.845 89.9712C145.299 88.6471 148.123 88.3517 150.795 89.1202C151.052 89.1904 151.162 88.7862 150.91 88.6977C148.133 87.8808 145.184 88.2012 142.637 89.5787C142.398 89.7306 142.593 90.0997 142.845 89.9712Z" fill="#161616"/>
<path d="M157.153 76.2298C157.187 76.6139 157.304 76.9814 157.509 77.3137C157.661 77.5525 158.035 77.3388 157.883 77.1C157.718 76.8378 157.604 76.5305 157.588 76.2299C157.561 75.966 157.145 75.971 157.153 76.2298Z" fill="#161616"/>
<path d="M154.079 96.9041C150.196 97.4632 147.494 100.93 147.849 104.836C147.876 105.1 148.305 105.118 148.283 104.836C147.943 101.092 150.483 97.8573 154.204 97.3132C154.468 97.2865 154.366 96.864 154.079 96.9041Z" fill="#161616"/>
<path d="M128.806 106.706C129.146 108.062 129.348 109.637 130.02 110.866C130.602 111.914 131.579 112.674 132.573 113.3C132.81 113.444 133.025 113.088 132.793 112.926C131.763 112.289 130.791 111.511 130.27 110.382C129.722 109.206 129.531 107.812 129.22 106.563C129.165 106.331 128.737 106.451 128.806 106.706Z" fill="#161616"/>
<path d="M137.688 106.702C138.181 107.863 138.785 108.975 139.507 110.021C139.664 110.241 140.038 110.027 139.881 109.807C139.159 108.761 138.55 107.668 138.062 106.488C137.957 106.223 137.583 106.437 137.688 106.702Z" fill="#161616"/>
<path d="M138.156 106.652C138.462 106.4 138.849 105.993 139.24 105.862C139.868 105.659 140.017 106.054 140.346 106.44C140.945 107.137 141.498 107.86 142.022 108.615C142.179 108.835 142.553 108.621 142.396 108.401C142.015 107.843 141.611 107.299 141.184 106.768C140.828 106.335 140.414 105.61 139.935 105.341C139.25 104.957 138.338 105.912 137.854 106.313C137.642 106.512 137.949 106.832 138.156 106.652Z" fill="#161616"/>
<path opacity="0.25" d="M148.936 69.3103C150.188 71.6651 152.725 77.2715 152.066 84.5326C151.436 91.3278 148.336 95.8899 146.542 98.5584C139.903 108.352 130.086 111.852 126.581 112.909C126.068 113.775 125.32 115.071 124.426 116.683C123.187 118.91 123.06 119.231 122.567 119.807C120.563 122.161 117.869 122.413 117.933 122.687C118.023 123.008 122.24 123.25 125.286 120.549C127.602 118.496 128.127 115.778 128.277 114.792C131.607 113.944 135.437 112.641 139.44 110.555C143.116 108.657 146.955 106.665 150.643 102.48C154.241 98.4088 155.871 94.3142 156.566 92.2735C158.001 88.0268 158.078 84.6334 158.12 81.3685C158.199 75.9427 158.256 68.9321 154.905 67.544C154.245 67.2851 152.422 66.8073 148.936 69.3103Z" fill="#6D6C6C"/>
<path opacity="0.28" d="M152.666 99.262C148.953 102.887 145.431 105.38 142.762 107.06C137.931 110.084 133.719 112.645 128.485 112.007C127.07 111.838 125.947 111.472 125.158 111.178C125.709 111.546 126.795 112.414 127.157 113.835C127.66 115.828 126.357 117.564 125.425 118.81C123.808 120.974 121.715 122.061 120.393 122.569C121.31 122.464 122.776 122.153 124.242 121.191C127.559 119.017 128.197 115.303 128.314 114.585C133.126 113.372 136.888 111.734 139.509 110.376C142.857 108.665 146.426 106.796 149.833 102.989C151.129 101.566 152.068 100.224 152.666 99.262Z" fill="#6D6C6C"/>
<path d="M123.781 37.5197C121.666 41.3639 122.631 45.2784 123.412 48.4916C124.172 51.6396 124.804 54.2398 127.277 56.0988C127.505 56.2791 130.803 58.6592 134.819 57.6826C139.281 56.5908 141.125 52.219 141.962 50.2367C142.624 48.6804 144.458 44.3452 142.541 39.796C140.479 34.911 134.611 31.0996 129.517 32.552C125.939 33.5887 124.165 36.8351 123.781 37.5197Z" fill="#C7C7C7" stroke="#161616" stroke-width="0.7"/>
<path d="M132.972 33.4157C133.156 33.9 133.537 34.6749 134.252 35.3831C135.459 36.6006 136.875 36.908 137.441 37.0033C137.346 37.7865 137.118 40.4284 138.813 42.825C139.88 44.3398 142.236 46.4826 144.005 45.8599C146.034 45.1503 146.51 41.0171 145.726 38.178C144.733 34.5123 141.331 32.8737 139.352 31.8799C138.136 31.2719 134.892 29.6367 133.529 30.9425C133.242 31.1997 132.771 31.8409 132.972 33.4157Z" fill="#5D5D5D"/>
<path d="M131.139 31.672C131.484 31.9242 131.698 32.0812 131.822 32.3518C132.368 33.606 130.534 36.2043 128.149 36.9155C126.885 37.2812 125.768 37.0356 125.111 36.8368C125.105 37.5849 125.004 39.2549 123.929 40.9549C123.269 41.9986 122.479 42.6515 121.921 43.0322C121.711 42.5011 121.487 41.7295 121.415 40.7626C121.253 38.3895 122.252 36.6094 122.808 35.6559C123.518 34.4285 125.543 30.915 128.656 30.9353C130.134 30.9438 131.139 31.672 131.139 31.672Z" fill="#5D5D5D"/>
<path d="M120.737 43.321C120.963 42.0601 122.336 34.6388 128.173 32.9944C133.392 31.5169 137.937 35.8359 138.598 36.4505C142.155 39.9078 143.082 44.9763 142.066 49.061C141.819 50.0396 140.728 54.3999 137.037 56.1363C135.156 57.0246 133.405 56.8624 131.072 56.6602C127.623 56.3509 124.924 55.3186 123.209 54.5152C123.029 55.6107 122.843 56.7245 122.663 57.82C126.3 59.6808 129.533 60.5628 131.778 61.0173C134.956 61.6672 137.509 61.7125 139.199 61.7394C142.168 61.7797 144.682 61.5378 146.595 61.2507C147.534 59.2568 148.742 56.3495 149.753 52.7173C151.174 47.5789 152.12 44.1855 151.4 40.0222C151.108 38.3438 150.048 32.1731 144.474 28.4418C138.167 24.2144 131.126 26.4382 129.907 26.8556C128.232 27.4249 124.075 29.133 121.182 33.5148C120.748 34.166 118.535 37.6478 118.456 42.6394C118.323 50.3598 123.375 56.08 123.734 55.9214C122.941 54.7773 119.556 49.7487 120.737 43.321Z" fill="#161616"/>
<path d="M129.643 42.2178C129.665 44.4539 129.548 46.6917 129.315 48.9178C129.275 49.2819 129.848 49.2803 129.888 48.9162C130.121 46.6901 130.238 44.4523 130.216 42.2162C130.215 41.8605 129.642 41.8621 129.643 42.2178Z" fill="#161616"/>
<path d="M129.412 49.1416C130.418 49.6527 131.528 49.7781 132.634 49.4876C132.996 49.3891 132.851 48.8363 132.488 48.9348C131.532 49.1869 130.591 49.0883 129.705 48.649C129.376 48.4803 129.083 48.9729 129.412 49.1416Z" fill="#161616"/>
<path d="M126.131 45.7595C125.679 44.8861 125.677 43.8791 126.116 42.9923C125.959 42.989 125.784 42.9806 125.622 42.9956C125.871 43.4583 125.976 43.9409 125.993 44.4586C126.003 44.639 126.008 44.8377 126.013 45.0364C126.019 45.1567 126.002 45.2903 126.009 45.4105C125.964 45.5758 126.012 45.6877 126.186 45.7746C126.083 45.4305 125.53 45.5758 125.633 45.9198C125.688 46.1519 125.884 46.3039 126.134 46.2539C126.463 46.2055 126.554 45.8748 126.574 45.5842C126.64 44.6156 126.565 43.5886 126.113 42.7151C126.024 42.5331 125.71 42.5264 125.619 42.7184C125.087 43.7972 125.081 44.9796 125.635 46.0584C125.804 46.3807 126.3 46.0819 126.131 45.7595Z" fill="#161616"/>
<path d="M125.628 43.333C125.583 44.1497 125.635 44.973 125.794 45.7662C125.855 46.1186 126.408 45.9734 126.346 45.621C126.196 44.8695 126.166 44.1113 126.201 43.3314C126.223 42.9624 125.65 42.964 125.628 43.333Z" fill="#161616"/>
<path d="M134.852 44.4678C134.563 43.718 134.677 42.9398 135.129 42.2935C134.986 42.3135 134.824 42.3286 134.68 42.3486C135.037 42.7027 134.947 43.2504 134.942 43.703C134.932 43.9568 134.922 44.2107 134.894 44.4595C134.843 45.0774 134.805 44.0603 134.822 43.9268C134.899 43.5727 134.348 43.4224 134.271 43.7764C134.174 44.2039 134.217 44.7684 134.566 45.0807C134.838 45.3129 135.222 45.2795 135.373 44.9455C135.582 44.4696 135.515 43.7014 135.498 43.1837C135.485 42.7261 135.406 42.2902 135.067 41.9411C134.927 41.8042 134.718 41.8459 134.618 41.9962C134.075 42.756 133.948 43.7279 134.281 44.6081C134.421 44.9621 134.974 44.8169 134.852 44.4678Z" fill="#161616"/>
<path d="M134.682 42.4872C134.586 43.2704 134.575 44.0369 134.678 44.8151C134.716 45.1809 135.289 45.1792 135.251 44.8135C135.166 44.0403 135.159 43.2688 135.254 42.4855C135.313 42.1265 134.74 42.1281 134.682 42.4872Z" fill="#161616"/>
<path d="M124.358 41.4074C124.737 40.524 125.752 40.13 126.631 40.5275C126.965 40.6778 127.257 40.1852 126.923 40.0349C125.674 39.477 124.328 39.9979 123.807 41.257C123.651 41.6094 124.207 41.7414 124.358 41.4074Z" fill="#161616"/>
<path d="M133.364 40.154C134.602 39.5245 135.993 39.9238 136.721 41.0895C136.913 41.3985 137.404 41.118 137.212 40.809C136.305 39.3577 134.602 38.8732 133.084 39.663C132.761 39.8316 133.042 40.3227 133.364 40.154Z" fill="#161616"/>
<path d="M129.141 52.5218C131.533 53.2335 134.078 52.8028 136.114 51.3451C136.409 51.1297 136.129 50.6387 135.833 50.8541C133.938 52.2317 131.555 52.6473 129.31 51.9758C128.929 51.8521 128.779 52.4032 129.141 52.5218Z" fill="#161616"/>
<path d="M135.264 50.6986C135.661 50.9057 135.953 51.2815 135.99 51.7257C136.028 52.0914 136.601 52.0898 136.563 51.7241C136.503 51.0761 136.146 50.505 135.556 50.206C135.227 50.0373 134.935 50.5299 135.264 50.6986Z" fill="#161616"/>
<path opacity="0.29" d="M139.752 37.7917C140.091 42.2657 139.65 45.8361 139.192 48.2375C138.448 52.1202 137.591 53.3074 136.953 53.9821C134.709 56.3499 131.38 56.4682 130.18 56.4564C131.02 56.7053 134.106 57.5473 137.174 55.9961C140.868 54.1027 141.738 50.1165 142.071 48.6085C143.254 43.1878 140.442 38.8088 139.752 37.7917Z" fill="#6D6C6C"/>
<path d="M54.1318 112.323C48.3966 116.778 45.7495 118.523 43.3712 120.44C41.4773 121.956 38.76 124.392 35.8839 127.989C35.124 128.532 34.0168 129.118 32.9413 128.864C30.428 128.238 30.9712 123.787 27.9438 120.415C25.6161 117.806 21.6733 116.415 18.2531 116.942C11.7517 117.912 8.47284 125.445 8.93038 125.866C9.36956 126.282 13.5317 120.43 18.7938 121.037C20.6091 121.256 21.9801 122.163 22.3809 122.43C24.7337 124.079 24.9206 126.143 26.6972 128.818C27.6056 130.191 29.1368 132.03 31.8203 133.769C31.336 134.387 30.8098 135.23 30.4908 136.327C29.4701 139.996 31.8913 143.203 32.2737 143.682C32.3621 144.298 32.4639 145.372 32.0947 146.653C31.6403 148.246 30.7084 149.275 30.2507 149.722C30.8301 151.36 31.4729 152.621 31.9671 153.486C33.1393 155.484 33.7338 155.764 33.9626 155.866C35.4288 156.424 37.0371 155.304 37.3795 155.062C37.0254 154.768 35.2988 153.211 35.1237 150.598C34.9519 148.044 36.4217 146.274 36.7958 145.843C37.2033 145.362 37.6175 145.002 37.9181 144.768C38.7547 145.608 39.7349 146.862 39.9168 148.511C40.1687 150.77 38.6957 151.829 39.3185 153.38C39.9813 155.002 42.2775 155.628 43.8022 155.61C45.4422 155.604 47.3427 154.859 47.3595 154.074C47.3829 153.192 44.898 153.185 44.0932 151.505C43.3719 150.026 44.4141 148.159 45.1641 146.784C47.5659 142.466 50.5402 142.054 51.5308 138.712C51.9886 137.179 51.8067 135.748 51.5646 134.754C56.6403 128.955 61.0609 127.003 64.3041 126.329C66.2297 125.926 69.2173 125.972 73.2104 124.357C75.0274 123.629 76.4286 122.906 78.0503 122.026C80.0176 120.964 84.303 118.64 84.0326 117.895C83.8005 117.299 80.7427 117.945 79.8425 118.134C75.5272 119.048 74.662 120.411 72.0084 120.299C69.9409 120.209 67.4026 119.24 67.2224 117.947C67.0104 116.409 70.4206 115.918 71.2776 112.994C71.4212 112.54 71.4981 111.969 70.1893 107.072C68.9906 102.64 68.5398 101.688 68.1006 101.706C67.4209 101.738 67.5376 104.277 65.936 105.083C65.0675 105.517 64.0889 105.27 63.4427 105.034C61.429 101.347 60.5022 100.62 60.0095 100.762C59.1027 101.048 60.1762 104.419 58.4859 107.866C57.6607 109.516 56.6119 110.394 54.1318 112.323Z" fill="#161616"/>
<path d="M64.4043 109.757C64.4176 109.78 64.4126 109.799 64.4076 109.817C64.4176 109.78 64.4126 109.799 64.4076 109.817C64.441 109.767 64.3842 109.83 64.4076 109.817C64.431 109.804 64.3842 109.83 64.3842 109.83C64.3608 109.844 64.4026 109.835 64.3842 109.83C64.3658 109.825 64.3475 109.82 64.3291 109.815C64.3291 109.815 64.279 109.782 64.3107 109.81C64.3241 109.834 64.2974 109.787 64.2974 109.787C64.3107 109.81 64.2924 109.805 64.2974 109.787C64.3024 109.769 64.3074 109.75 64.3124 109.732C64.3174 109.714 64.3408 109.7 64.3174 109.714C64.3408 109.7 64.3458 109.682 64.3642 109.687C64.3224 109.695 64.3642 109.687 64.3825 109.692C64.3091 109.672 64.4193 109.702 64.3825 109.692C64.3458 109.682 64.4326 109.725 64.4009 109.697C64.3692 109.668 64.446 109.749 64.4009 109.697C64.2924 109.588 64.0936 109.593 63.9901 109.683C63.8815 109.792 63.8915 109.972 63.9767 110.094C64.1253 110.273 64.4109 110.311 64.6029 110.186C64.8368 110.053 64.9169 109.759 64.8017 109.53C64.6865 109.301 64.4394 109.194 64.2022 109.268C63.9417 109.354 63.8114 109.615 63.8565 109.884C63.8949 110.032 64.0686 110.119 64.2172 110.081C64.3608 110.061 64.4243 109.901 64.4043 109.757Z" fill="white"/>
<path d="M68.6777 109.285C68.656 109.22 68.6861 109.326 68.6577 109.358C68.6527 109.377 68.6293 109.39 68.6243 109.408C68.5541 109.448 68.4389 109.437 68.4038 109.348C68.3554 109.236 68.459 109.146 68.5375 109.148C68.4957 109.156 68.5375 109.148 68.5558 109.153C68.5926 109.163 68.6243 109.191 68.6377 109.215C68.5575 109.074 68.3738 109.024 68.2519 109.109C68.1116 109.189 68.0665 109.355 68.1467 109.495C68.2351 109.677 68.4689 109.761 68.6643 109.696C68.9015 109.622 69.0134 109.357 68.9349 109.138C68.8565 108.919 68.6143 108.794 68.3905 108.891C68.1901 108.974 68.0648 109.216 68.1249 109.43C68.1817 109.584 68.3136 109.679 68.4856 109.627C68.6159 109.584 68.7395 109.42 68.6777 109.285Z" fill="white"/>
<path d="M67.0945 110.965C67.1462 111.354 67.0359 112.626 66.3695 112.464C66.1859 112.414 66.1107 112.69 66.2944 112.74C67.2362 112.977 67.4618 111.499 67.3684 110.901C67.345 110.698 67.0661 110.779 67.0945 110.965Z" fill="white"/>
<path d="M67.1613 111.082C67.198 111.526 67.3482 112.06 67.7256 112.341C68.0395 112.565 68.4938 112.491 68.6174 112.11C68.6859 111.932 68.4103 111.857 68.3419 112.035C68.2032 112.471 67.7423 111.99 67.6355 111.803C67.5203 111.574 67.4468 111.337 67.4385 111.078C67.4285 110.898 67.1513 110.901 67.1613 111.082Z" fill="white"/>
<path d="M63.5942 110.266C63.9449 110.283 64.2522 110.387 64.511 110.595C64.6563 110.714 64.8049 110.458 64.6546 110.358C64.3457 110.116 63.9833 109.997 63.5909 109.989C63.4155 109.981 63.4188 110.258 63.5942 110.266Z" fill="white"/>
<path d="M69.2254 108.941C68.9566 109.203 68.7561 109.504 68.6192 109.861C68.5507 110.04 68.8262 110.115 68.8947 109.936C69.0166 109.634 69.1887 109.365 69.4292 109.135C69.5611 109.013 69.3574 108.819 69.2254 108.941Z" fill="white"/>
<path d="M61.8162 120.4C63.1107 117.97 65.7075 118.146 70.9949 115.838C74.5572 114.284 76.6732 112.749 77.119 113.285C77.4613 113.695 76.5544 115.066 76.2354 115.511C75.3819 116.759 74.3832 117.453 73.989 117.741C72.344 118.851 69.3712 120.704 64.0538 122.471C63.0117 122.818 61.9379 123.137 61.4953 122.661C60.9677 122.063 61.7343 120.555 61.8162 120.4Z" fill="#161616"/>
<path opacity="0.73" d="M54.272 112.894C52.4971 110.14 52.651 107.261 52.6911 106.68C53.0389 101.86 56.7382 99.0801 57.4981 98.5374C61.5698 95.622 68.1731 95.0748 72.2358 98.8477C75.4286 101.831 75.4583 106.062 75.4281 107.258C75.2975 110.992 73.3449 115.038 69.5972 117.055C64.0876 120.033 57.124 117.343 54.272 112.894Z" fill="white" stroke="#161616" stroke-width="0.7"/>
</svg>
