<svg width="229" height="188" viewBox="0 0 229 188" fill="none" xmlns="http://www.w3.org/2000/svg">
<path d="M25.0867 137.964C1.97323 100.093 69.2525 98.6662 99.897 74.4248C130.542 50.1834 140.519 -17.3129 184.398 20.9536C227.929 58.9167 207.482 107.397 168.163 139.379C125.49 174.089 53.6974 184.842 25.0867 137.964Z" fill="#FFCD00" stroke="#FFCD00"/>
<mask id="mask0_539_1004" style="mask-type:alpha" maskUnits="userSpaceOnUse" x="19" y="8" width="191" height="162">
<path d="M25.0867 137.964C1.97323 100.093 69.2525 98.6664 99.897 74.425C130.542 50.1836 140.519 -17.3127 184.398 20.9539C227.929 58.9169 207.482 107.397 168.163 139.379C125.49 174.09 53.6974 184.842 25.0867 137.964Z" fill="#D9D9D9" stroke="black"/>
</mask>
<g mask="url(#mask0_539_1004)">
<path d="M111.966 154.367C112.423 156.214 112.314 158.08 111.606 159.842C111.484 160.159 111.97 160.366 112.092 160.048C112.822 158.201 112.965 156.226 112.474 154.296C112.404 153.979 111.872 154.04 111.966 154.367Z" fill="#E8E8E8"/>
<path d="M112.145 154.621C113.343 155.786 114.686 156.739 116.181 157.497C116.495 157.658 116.695 157.156 116.387 157.011C114.923 156.28 113.626 155.346 112.473 154.2C112.238 153.95 111.909 154.371 112.145 154.621Z" fill="#E8E8E8"/>
<path d="M112.183 159.896C112.154 159.87 112.101 159.834 112.071 159.808C111.979 159.96 111.887 160.112 111.795 160.264C113.239 160.755 114.542 161.514 115.681 162.53C115.926 162.757 116.255 162.337 116.01 162.11C114.841 161.067 113.502 160.265 112.011 159.755C111.724 159.66 111.504 160.017 111.735 160.211C111.765 160.238 111.818 160.274 111.848 160.3C112.116 160.537 112.445 160.117 112.183 159.896Z" fill="#E8E8E8"/>
<path d="M116.099 162.189C116.098 160.617 116.245 159.082 116.544 157.542C116.602 157.212 116.09 157.131 116.016 157.468C115.713 159.047 115.569 160.639 115.574 162.266C115.572 162.593 116.103 162.532 116.099 162.189Z" fill="#E8E8E8"/>
<path d="M33.8337 122.319C33.9219 124.2 33.9771 126.095 33.4081 127.916C33.31 128.243 33.7959 128.45 33.894 128.123C34.4859 126.216 34.4535 124.235 34.3651 122.258C34.3443 121.921 33.8129 121.982 33.8337 122.319Z" fill="#E8E8E8"/>
<path d="M33.8868 122.451C34.5755 123.112 35.0701 124.006 35.6896 124.733C36.2661 125.402 36.8853 126.034 37.5474 126.629C37.7924 126.856 38.1213 126.436 37.8763 126.209C37.0884 125.492 36.3598 124.731 35.707 123.921C35.2066 123.299 34.7852 122.587 34.2157 122.031C33.9641 121.787 33.6583 122.217 33.8868 122.451Z" fill="#E8E8E8"/>
<path d="M33.6565 128.199C34.2144 128.204 34.9234 129.011 35.3008 129.376C35.857 129.9 36.3375 130.473 36.7817 131.098C36.9905 131.378 37.4155 131.054 37.2066 130.774C36.6464 130.003 36.0237 129.315 35.3251 128.676C34.8418 128.239 34.2888 127.676 33.5955 127.668C33.2455 127.656 33.323 128.18 33.6565 128.199Z" fill="#E8E8E8"/>
<path d="M37.3161 130.998C37.381 129.496 37.5647 128.003 37.8508 126.526C37.9257 126.189 37.3973 126.115 37.3223 126.452C37.0362 127.928 36.8525 129.421 36.7877 130.924C36.7755 131.274 37.304 131.348 37.3161 130.998Z" fill="#E8E8E8"/>
<path d="M43.0251 85.9426C43.1913 87.4476 43.0339 88.9106 42.5529 90.3316C42.4383 90.6654 42.9407 90.8653 43.0388 90.5382C43.5592 89.0245 43.7328 87.4591 43.5564 85.8816C43.5191 85.5515 42.9878 85.6126 43.0251 85.9426Z" fill="#E8E8E8"/>
<path d="M43.0918 86.2034C43.8875 87.3203 44.7697 88.6514 45.9998 89.3245C46.2975 89.492 46.504 89.0061 46.2064 88.8386C45.0821 88.2378 44.2396 86.9098 43.5234 85.8951C43.3244 85.592 42.8995 85.9168 43.0918 86.2034Z" fill="#E8E8E8"/>
<path d="M42.6304 90.8563C43.1754 90.924 43.9372 91.7669 44.3378 92.1421C44.8874 92.6489 45.3776 93.1988 45.8251 93.7851C46.0339 94.0651 46.4588 93.7403 46.25 93.4603C45.6999 92.762 45.1136 92.1167 44.4515 91.5211C43.998 91.1098 43.3455 90.3953 42.6981 90.3114C42.3646 90.2926 42.2836 90.8045 42.6304 90.8563Z" fill="#E8E8E8"/>
<path d="M46.2896 93.4633C46.1962 92.044 46.2217 90.6342 46.3594 89.2175C46.3947 88.8773 45.8663 88.8029 45.831 89.1431C45.6901 90.5995 45.668 92.0654 45.7582 93.5243C45.7791 93.861 46.3104 93.8 46.2896 93.4633Z" fill="#E8E8E8"/>
<path d="M165.533 90.7498C165.543 91.8194 165.526 92.9189 164.971 93.8713C164.804 94.169 165.29 94.3755 165.457 94.0779C166.058 93.0493 166.074 91.8541 166.048 90.6954C166.06 90.3454 165.529 90.4064 165.533 90.7498Z" fill="#E8E8E8"/>
<path d="M165.814 90.924C166.401 91.6651 167.092 92.287 167.899 92.7666C168.18 92.9407 168.526 92.5138 168.228 92.3463C167.468 91.8864 166.796 91.314 166.239 90.5992C166.014 90.3259 165.589 90.6507 165.814 90.924Z" fill="#E8E8E8"/>
<path d="M165.23 94.2271C166.047 94.6835 166.732 95.2889 167.295 96.0202C167.504 96.3002 167.929 95.9754 167.72 95.6954C167.1 94.8719 166.322 94.2271 165.43 93.7246C165.139 93.5736 164.932 94.0596 165.23 94.2271Z" fill="#E8E8E8"/>
<path d="M167.823 95.999C167.863 94.8137 168.028 93.6544 168.334 92.5145C168.433 92.1873 167.904 92.113 167.806 92.4401C167.499 93.58 167.318 94.746 167.295 95.9247C167.276 96.2582 167.804 96.3325 167.823 95.999Z" fill="#E8E8E8"/>
<path d="M210.894 116.983C210.957 118.089 210.805 119.185 210.441 120.233C210.327 120.567 210.829 120.767 210.927 120.439C211.33 119.299 211.488 118.123 211.425 116.922C211.404 116.585 210.873 116.646 210.894 116.983Z" fill="#E8E8E8"/>
<path fill-rule="evenodd" clip-rule="evenodd" d="M189.203 48.3974L187.239 48.4231L186.144 50.0342L185.511 48.1806L183.625 47.6382L185.203 46.4648L185.137 44.4974L186.752 45.648L188.592 44.9822L188.003 46.8493L189.203 48.3974Z" stroke="#E8E8E8" stroke-width="3"/>
<path d="M183.993 43.847C184.789 38.5986 186.299 33.5032 188.53 28.6732C188.674 28.3657 188.188 28.1591 188.044 28.4666C185.804 33.3198 184.257 38.4681 183.464 43.7726C183.413 44.1194 183.941 44.1938 183.993 43.847Z" fill="#E8E8E8"/>
<path d="M187.222 41.5857C188.817 33.9447 191.756 26.643 195.893 20.0278C196.067 19.7466 195.663 19.4111 195.473 19.6989C191.29 26.3902 188.311 33.7844 186.71 41.5047C186.618 41.8483 187.147 41.9227 187.222 41.5857Z" fill="#E8E8E8"/>
<path d="M190.028 45.9752C191.009 42.7996 192.155 39.6532 193.43 36.589C193.568 36.265 193.065 36.0651 192.944 36.3824C191.652 39.4533 190.523 42.5931 189.542 45.7687C189.437 46.0794 189.93 46.3024 190.028 45.9752Z" fill="#E8E8E8"/>
<path d="M121.598 39.1145C119.195 36.9592 121 33.2595 123.267 31.8463C126.088 30.0947 129.679 29.8727 132.812 28.896C138.776 27.0459 144.389 23.9951 149.191 20.0256C151.618 18.011 153.823 15.7793 155.813 13.3468C157.945 10.7422 159.881 7.98627 162.042 5.40799C164.197 2.81321 166.626 0.376088 169.536 -1.39228C172.397 -3.14069 175.606 -3.97564 178.948 -3.96252C182.081 -3.94217 185.483 -3.39769 188.395 -2.21457C191.4 -0.99211 193.236 1.56432 193.131 4.86609C192.899 11.4201 186.099 15.1414 180.844 17.511C175.183 20.0635 169.054 21.8844 164.087 25.7289C159.051 29.6396 156.513 35.5139 152.771 40.4937C148.957 45.5795 143.949 50.0349 137.82 52.0473C132.659 53.7464 126.636 53.4541 121.871 50.7182C120.696 50.0416 119.614 49.2129 118.654 48.2584C118.403 48.0148 118.08 48.4516 118.325 48.6786C122.295 52.579 128.031 54.0607 133.46 53.4997C139.734 52.8471 145.3 49.3937 149.628 44.9634C152.028 42.4999 154.037 39.7339 155.874 36.8265C157.664 33.9951 159.399 31.0714 161.686 28.6149C166.523 23.404 173.516 21.2537 179.847 18.5077C185.119 16.2272 191.775 13.0049 193.318 6.89922C193.961 4.35848 193.582 1.42463 191.774 -0.58715C189.78 -2.77335 186.622 -3.47372 183.84 -4.00025C180.643 -4.60806 177.298 -4.77304 174.137 -3.95805C170.848 -3.12946 167.939 -1.26535 165.436 0.990412C160.129 5.79667 156.668 12.2349 151.516 17.1893C146.562 21.9681 140.554 25.6572 134.057 27.8952C132.293 28.5113 130.475 28.9954 128.647 29.4069C127.047 29.765 125.424 30.1132 123.931 30.8308C121.616 31.9371 119.771 34.0621 119.897 36.7524C119.954 37.8417 120.395 38.7945 121.206 39.5217C121.531 39.7551 121.843 39.3415 121.598 39.1145Z" fill="#E8E8E8"/>
<path d="M128.028 34.2385C137.004 31.9205 145.407 27.5144 152.404 21.432C159.161 15.5617 164.141 7.28326 172.297 3.1684C176.355 1.10937 181.096 0.174103 185.488 1.69945C185.805 1.82066 186.028 1.32807 185.695 1.21352C177.75 -1.56236 169.754 3.13968 164.208 8.54091C160.817 11.8261 157.847 15.5359 154.463 18.8375C150.993 22.2121 147.113 25.1388 142.937 27.5713C138.218 30.319 133.13 32.391 127.852 33.7537C127.495 33.8208 127.695 34.3155 128.028 34.2385Z" fill="#E8E8E8"/>
<path d="M144.882 38.5197C148.089 36.9188 150.422 34.1947 152.576 31.4085C154.934 28.3674 157.196 25.3266 160.375 23.0853C167.231 18.2678 175.911 17.0666 182.873 12.4171C185.966 10.3445 189.224 6.63385 187.251 2.69451C187.092 2.39456 186.597 2.59412 186.756 2.89408C188.769 6.93233 185 10.4662 181.892 12.4102C178.491 14.53 174.709 15.9411 170.989 17.3652C167.401 18.7361 163.777 20.16 160.565 22.3188C157.589 24.3053 155.336 26.94 153.172 29.7494C150.741 32.8963 148.305 36.2182 144.666 38.0317C144.375 38.1679 144.575 38.6625 144.882 38.5197Z" fill="#E8E8E8"/>
<path d="M159.311 37.0307C162.042 32.8231 165.123 28.7234 169.208 25.7333C173.649 22.4846 178.959 20.8213 184.147 19.1881C184.474 19.0947 184.274 18.6 183.948 18.6935C178.703 20.3301 173.35 22.0299 168.883 25.3084C164.772 28.3283 161.641 32.4479 158.891 36.7018C158.707 37.0061 159.127 37.335 159.311 37.0307Z" fill="#E8E8E8"/>
<path d="M51.6724 69.7432C50.4238 69.4993 49.217 68.9317 48.4578 67.8577C47.7483 66.8595 47.602 65.404 48.3087 64.352C49.0252 63.2769 50.4474 63.0482 51.5353 62.5134C52.4155 62.0816 53.2127 61.4915 53.8907 60.7962C56.9881 57.6869 57.8429 53.201 59.558 49.3266C60.4336 47.3629 61.6028 45.3191 63.4182 44.069C65.0985 42.9118 67.7347 42.3658 69.0678 44.3394C70.6296 46.6424 69.0401 49.4501 67.7089 51.425C66.1805 53.6713 64.6454 55.901 63.1169 58.1473C61.4537 60.5821 59.8566 63.0861 58.0875 65.4486C56.45 67.6622 54.1224 69.8283 51.1431 69.3816C50.7963 69.3298 50.722 69.8582 51.0688 69.91C53.5196 70.2824 55.7376 68.9849 57.3467 67.2237C59.4265 64.9659 61.0325 62.1516 62.7582 59.634C64.5562 57.0106 66.3609 54.4037 68.1523 51.7638C69.4639 49.8351 70.7546 47.5697 70.0309 45.1585C69.4273 43.1399 67.5097 42.1882 65.4971 42.6168C63.3228 43.0723 61.6671 44.718 60.4938 46.5142C57.6183 50.9336 57.2993 56.8903 53.3455 60.6328C52.7496 61.1991 52.0808 61.6798 51.3655 62.0451C50.66 62.3873 49.9013 62.5975 49.2091 62.9726C48.1675 63.5271 47.4901 64.4139 47.3715 65.5929C47.1183 68.149 49.3353 69.8426 51.6212 70.2814C51.9284 70.33 52.0094 69.8181 51.6724 69.7432Z" fill="#E8E8E8"/>
<path d="M57.7428 43.924C56.5581 41.8905 59.0092 40.173 60.1972 38.8885C60.8093 38.2198 61.2924 37.4689 61.7986 36.7279C62.0517 36.3574 62.3048 35.9869 62.5877 35.6427C62.9232 35.2389 63.3045 34.6633 63.8534 34.9786C64.2503 35.2019 64.1681 35.3309 64.1496 35.7601C64.1337 35.9583 64.1244 36.1729 64.092 36.3777C64.0275 36.883 63.93 37.4016 63.74 37.8809C63.35 38.8626 62.4172 39.354 61.683 40.0528C61.1135 40.5893 60.587 41.1852 60.13 41.8105C59.5547 42.6178 59.0276 44.1149 57.8122 43.9535C57.4654 43.9017 57.391 44.4301 57.7378 44.4819C58.8112 44.624 59.456 43.8462 59.9851 43.0193C60.8066 41.7292 61.7542 40.6567 62.9398 39.6991C63.8785 38.9369 64.3349 38.1201 64.5591 36.9177C64.6859 36.2339 65.0249 34.7935 64.2477 34.3402C63.5532 33.9494 62.7893 34.6219 62.3517 35.1052C61.437 36.1644 60.7937 37.4209 59.8559 38.4703C58.4377 40.0394 55.9142 41.8627 57.308 44.2719C57.4937 44.5421 57.9186 44.2173 57.7428 43.924Z" fill="#E8E8E8"/>
<path d="M51.3095 66.4197C50.7651 66.5435 50.6515 66.0717 50.6471 65.7284C50.6492 65.3058 50.9092 65.0475 51.2254 64.7857C51.5745 64.5106 52.013 64.3146 52.4053 64.0988C53.2687 63.5779 54.0592 62.9714 54.7769 62.2792C56.1529 60.938 57.2607 59.3599 58.2 57.6965C59.2607 55.8115 60.1132 53.838 61.0284 51.8775C61.9173 49.9468 62.8314 47.6033 64.9849 46.8111C64.8692 46.762 64.7535 46.7128 64.6378 46.6636C65.5975 48.5195 64.3357 50.5239 63.3334 52.0786C62.1307 53.9442 60.9511 55.8196 59.7483 57.6852C58.6442 59.4152 57.5765 61.188 56.4128 62.8653C55.8276 63.6957 55.2028 64.5229 54.4456 65.2119C53.7146 65.8711 52.5721 66.888 51.5371 66.3662C51.2297 66.2218 51.0231 66.7078 51.3306 66.8521C52.964 67.6693 54.8036 65.7192 55.7544 64.6071C57.3995 62.6973 58.6439 60.4122 60.0109 58.2886C61.4173 56.0725 62.8931 53.8858 64.2631 51.6268C65.1928 50.0823 66.0554 48.1813 65.1588 46.4343C65.0891 46.309 64.9601 46.2269 64.8117 46.2867C62.5593 47.1188 61.5561 49.479 60.6278 51.5023C59.4502 54.0479 58.3718 56.6494 56.8205 58.9816C56.0777 60.0865 55.2356 61.1355 54.2611 62.0463C53.313 62.9274 52.245 63.5116 51.1676 64.2147C50.5448 64.6194 49.9787 65.212 50.1462 66.0072C50.2734 66.6077 50.7767 67.0948 51.4266 66.9476C51.7037 66.8741 51.6592 66.3361 51.3095 66.4197Z" fill="#E8E8E8"/>
<path d="M48.4424 99.1323C48.2639 100.163 48.9503 101.151 49.9548 101.455C51.4352 101.893 52.2529 100.451 52.9498 99.4226C53.5216 98.5592 54.5129 97.7375 55.4827 98.5731C55.9296 98.968 56.2449 99.5118 56.6819 99.9298C56.9998 100.242 57.3637 100.479 57.8259 100.484C58.7173 100.508 59.2264 99.6316 60.0479 99.4344C60.3811 99.3575 60.3201 98.8261 59.9869 98.903C59.3931 99.0468 59.0277 99.4242 58.5169 99.7262C57.6402 100.214 57.1467 99.7039 56.6232 99.0716C56.0997 98.4392 55.5461 97.6849 54.6547 97.6611C53.5089 97.6249 52.7991 98.7165 52.2371 99.5568C51.7901 100.255 51.192 101.148 50.2241 100.982C49.4148 100.83 48.8413 100.026 48.9775 99.2232C49.0227 98.8599 48.4942 98.7855 48.4424 99.1323Z" fill="#E8E8E8"/>
<path d="M57.5467 94.3276C57.5696 95.3344 58.4888 95.8071 59.3999 95.7846C60.1988 95.769 63.8992 94.4869 64.1537 95.6878C64.2306 96.021 64.7455 95.9667 64.6851 95.6268C64.1321 92.8784 58.1359 97.0231 58.0781 94.2666C58.0738 93.9232 57.5424 93.9842 57.5467 94.3276Z" fill="#E8E8E8"/>
<path d="M91.9029 155.579C92.4157 155.947 92.8701 155.553 92.908 154.982C93.0032 153.697 92.458 152.441 93.3724 151.286C94.3229 150.078 95.5866 150.93 96.8104 150.589C97.7571 150.322 98.4545 149.485 98.8118 148.612C99.241 147.538 99.2243 146.356 99.3562 145.21C99.4335 144.546 99.7161 144.106 100.456 144.325C100.698 144.401 100.919 144.522 101.144 144.604C101.454 144.709 101.775 144.79 102.118 144.786C103.782 144.824 105.297 143.542 105.523 141.917C105.575 141.57 105.047 141.496 104.995 141.842C104.859 142.837 104.178 143.667 103.239 144.046C102.15 144.485 101.462 144.015 100.422 143.764C98.4657 143.288 98.804 146.027 98.6293 147.21C98.4187 148.541 97.7299 150.065 96.1917 150.149C95.3269 150.191 94.5236 149.863 93.7129 150.325C93.0372 150.693 92.6067 151.384 92.4207 152.111C92.3163 152.518 92.2911 152.93 92.2824 153.336C92.2833 153.624 92.3006 153.904 92.3246 154.201C92.3249 154.297 92.3772 155.234 92.2482 155.152C91.9439 154.968 91.6151 155.389 91.9029 155.579Z" fill="#E8E8E8"/>
<path d="M101.663 149.36C101.142 147.404 104.352 147.661 105.381 147.361C106.345 147.088 107.01 146.455 107.115 145.435C107.179 144.738 106.992 143.989 107.618 143.449C108.132 143.012 108.894 142.857 109.471 142.529C110.542 141.905 111.424 141.051 112.098 140.012C112.288 139.724 111.868 139.395 111.677 139.683C111.204 140.411 110.642 141.06 109.953 141.587C109.274 142.09 108.542 142.367 107.794 142.745C106.621 143.353 106.735 144.208 106.61 145.37C106.369 147.48 103.772 146.745 102.374 147.367C101.497 147.759 100.941 148.616 101.192 149.569C101.246 149.893 101.74 149.693 101.663 149.36Z" fill="#E8E8E8"/>
<path d="M95.9901 107.977C96.2836 108.99 96.1679 110.033 95.7019 110.969C95.5575 111.276 96.0435 111.483 96.1878 111.175C96.7293 110.094 96.815 108.929 96.4847 107.777C96.3913 107.451 95.8967 107.65 95.9901 107.977Z" fill="#E8E8E8"/>
<path d="M96.4503 108.5C96.8948 109.222 97.5766 109.771 98.3928 110.036C98.7266 110.151 98.9265 109.648 98.5994 109.55C97.869 109.308 97.2767 108.838 96.8752 108.175C96.6994 107.882 96.2744 108.207 96.4503 108.5Z" fill="#E8E8E8"/>
<path d="M95.9353 111.737C96.7388 112.161 97.3844 112.763 97.8654 113.527C98.0577 113.814 98.4826 113.489 98.2903 113.203C97.7431 112.369 97.0214 111.721 96.1418 111.251C95.8442 111.084 95.6443 111.586 95.9353 111.737Z" fill="#E8E8E8"/>
<path d="M98.5675 113.129C98.4492 112.218 98.5126 111.33 98.7674 110.441C98.8655 110.114 98.3796 109.907 98.2815 110.234C97.9806 111.199 97.9011 112.19 98.0361 113.19C98.0801 113.536 98.6114 113.475 98.5675 113.129Z" fill="#E8E8E8"/>
<path d="M173.398 114.378C173.679 115.453 174.842 115.866 175.865 115.549C177.642 114.966 177.923 112.667 179.419 111.719C180.536 111.019 181.367 111.795 182.329 112.327C182.888 112.62 183.499 112.756 184.126 112.695C185.404 112.582 186.54 111.74 186.995 110.541C187.117 110.223 186.631 110.017 186.509 110.334C186.034 111.58 184.693 112.39 183.359 112.123C182.179 111.909 181.413 110.722 180.149 110.868C179.014 111 178.224 111.99 177.666 112.886C177.308 113.471 176.963 114.09 176.439 114.55C175.787 115.12 174.25 115.491 173.956 114.287C173.836 113.99 173.321 114.045 173.398 114.378Z" fill="#E8E8E8"/>
<path d="M181.277 116.989C182.234 115.893 183.602 115.245 185.052 115.274C186.118 115.304 187.08 115.74 188.116 115.265C189.042 114.853 189.677 114.002 190.305 113.231C191.091 112.281 192.751 110.787 193.91 112.141C194.129 112.398 194.554 112.073 194.335 111.816C193.699 111.095 192.721 110.953 191.834 111.272C190.469 111.785 189.803 113.223 188.779 114.154C187.996 114.872 187.217 115.033 186.176 114.878C185.499 114.768 184.852 114.684 184.166 114.788C182.849 114.993 181.702 115.667 180.833 116.65C180.636 116.921 181.05 117.234 181.277 116.989Z" fill="#E8E8E8"/>
<path d="M173.661 153.707C174.349 155.174 174.396 156.765 173.797 158.273C173.969 158.318 174.14 158.364 174.312 158.41C174.498 157.587 174.548 156.762 174.496 155.92C174.475 155.583 173.944 155.644 173.965 155.981C174.02 156.783 173.966 157.552 173.784 158.335C173.712 158.633 174.181 158.75 174.299 158.473C174.941 156.833 174.89 155.09 174.156 153.508C174.013 153.201 173.518 153.401 173.661 153.707Z" fill="#E8E8E8"/>
<path d="M173.704 153.767C174.553 155.015 175.688 155.976 177.067 156.589C177.374 156.733 177.597 156.241 177.273 156.103C175.981 155.513 174.928 154.615 174.129 153.442C173.937 153.155 173.512 153.48 173.704 153.767Z" fill="#E8E8E8"/>
<path d="M174.03 159.041C175.283 159.629 176.411 160.381 177.428 161.332C177.68 161.576 178.002 161.139 177.757 160.912C176.711 159.935 175.546 159.139 174.237 158.555C173.923 158.395 173.723 158.897 174.03 159.041Z" fill="#E8E8E8"/>
<path d="M177.807 161.18C177.829 159.714 177.874 158.258 177.896 156.792C177.908 156.442 177.38 156.367 177.368 156.717C177.346 158.183 177.3 159.639 177.278 161.105C177.283 161.449 177.811 161.523 177.807 161.18Z" fill="#E8E8E8"/>
<path d="M175.135 81.5266C176.924 84.5817 179.151 87.345 181.75 89.7473C181.995 89.9743 182.324 89.5541 182.079 89.327C179.51 86.951 177.319 84.2306 175.56 81.2018C175.385 80.9085 174.96 81.2333 175.135 81.5266Z" fill="#E8E8E8"/>
<path d="M182.355 68.0121C184.229 70.8986 186.35 73.5895 188.734 76.0783C188.97 76.3285 189.395 76.0037 189.159 75.7535C186.791 73.2581 184.654 70.5738 182.78 67.6873C182.588 67.4007 182.163 67.7255 182.355 68.0121Z" fill="#E8E8E8"/>
<path d="M188.702 74.1934C191.087 76.7779 193.801 79.0378 196.804 80.8744C197.085 81.0485 197.414 80.6283 197.133 80.4541C194.176 78.6373 191.482 76.4267 189.127 73.8685C188.892 73.6183 188.467 73.9431 188.702 74.1934Z" fill="#E8E8E8"/>
<path d="M101.664 72.2909C101.101 69.4698 101.284 66.597 102.22 63.8804C102.334 63.5466 101.832 63.3468 101.734 63.6739C100.775 66.4764 100.553 69.4418 101.133 72.3519C101.193 72.6918 101.724 72.6307 101.664 72.2909Z" fill="#E8E8E8"/>
<path d="M99.7224 73.132C99.3747 71.7002 99.4332 70.2771 99.9044 68.8792C100.019 68.5454 99.5166 68.3455 99.4185 68.6726C98.9178 70.14 98.8266 71.6721 99.191 73.193C99.2613 73.5097 99.7993 73.4652 99.7224 73.132Z" fill="#E8E8E8"/>
<path d="M115.123 9.90279C117.662 11.1597 119.843 13.0019 121.507 15.3212C121.716 15.6012 122.141 15.2764 121.932 14.9964C120.225 12.6178 117.984 10.7229 115.346 9.41021C115.038 9.26586 114.815 9.75845 115.123 9.90279Z" fill="#E8E8E8"/>
<path d="M120.211 10.3038C122.056 12.0712 123.58 14.14 124.729 16.4178C124.889 16.7178 125.383 16.5182 125.224 16.2183C124.035 13.8415 122.467 11.7134 120.54 9.88358C120.289 9.64003 119.96 10.0603 120.211 10.3038Z" fill="#E8E8E8"/>
<ellipse cx="171.779" cy="4.64239" rx="9.42274" ry="9.26273" transform="rotate(-21.9726 171.779 4.64239)" fill="#919191"/>
<ellipse cx="178.712" cy="33.3243" rx="5.1025" ry="5.22695" transform="rotate(-21.9726 178.712 33.3243)" fill="#B7B7B7"/>
<ellipse cx="29.23" cy="74.369" rx="11.0406" ry="10.8273" transform="rotate(-21.9726 29.23 74.369)" fill="#B7B7B7"/>
<ellipse cx="189.681" cy="124.276" rx="10.4183" ry="10.2583" transform="rotate(-21.9726 189.681 124.276)" fill="#B7B7B7"/>
<path d="M39.5197 99.492C39.8329 99.3657 39.6333 98.871 39.3201 98.9974C39.0068 99.1238 39.1899 99.6251 39.5197 99.492Z" fill="#5222D0"/>
<path d="M39.6049 100.32C40.8744 99.8082 40.0762 97.8297 38.8066 98.3419C37.5371 98.8541 38.3354 100.833 39.6049 100.32Z" fill="#191919"/>
<path d="M151.893 19.4527C153.162 18.9405 152.364 16.962 151.095 17.4742C149.825 17.9865 150.623 19.9649 151.893 19.4527Z" fill="#191919"/>
<path d="M174.176 86.2274C175.445 85.7152 174.647 83.7367 173.377 84.2489C172.108 84.7611 172.906 86.7396 174.176 86.2274Z" fill="#191919"/>
<path d="M33.2931 144.737C32.6437 146.169 34.1761 147.448 35.5385 147.071C35.9706 146.954 36.3331 146.712 36.6888 146.454C36.8074 146.367 36.9819 146.182 37.1337 146.178C37.1502 146.172 37.0475 146.06 37.1736 146.277C37.5088 146.87 37.5074 147.485 38.0997 147.955C38.6259 148.356 39.3325 148.397 39.9359 148.134C40.2425 147.991 40.4993 147.773 40.7629 147.571C40.8222 147.527 41.066 147.372 41.079 147.309C41.2471 147.203 41.1843 147.19 40.8774 147.237C40.9205 147.296 40.9636 147.355 41.0067 147.415C41.2132 148.021 42.076 148.402 42.6571 148.417C43.4925 148.444 44.0423 147.954 44.2249 147.171C44.5477 145.833 42.4339 145.535 42.1044 146.857C42.8435 146.693 43.0309 146.445 42.7064 146.115C42.6633 146.056 42.6202 145.997 42.5771 145.937C42.4246 145.75 42.2624 145.585 42.0738 145.45C41.6801 145.187 41.1945 145.077 40.7326 145.167C40.2706 145.258 39.8984 145.523 39.5492 145.798C39.5327 145.805 39.0552 146.189 39.0552 146.189C39.3528 146.357 39.4717 146.366 39.4118 146.218C39.3786 146.135 39.3618 146.046 39.3352 145.98C39.2302 145.102 38.4979 144.19 37.6093 144.031C37.137 143.953 36.6585 144.05 36.2267 144.263C35.986 144.379 35.7587 144.528 35.5313 144.678C35.4127 144.764 35.2941 144.85 35.1591 144.943C35.0937 145.161 35.1405 145.372 35.2666 145.59C35.8307 144.327 33.8639 143.491 33.2931 144.737Z" fill="#191919"/>
<path d="M38.2789 142.649C38.604 143.17 38.9522 143.7 39.2773 144.221C39.526 144.6 40.1207 144.743 40.5263 144.56C41.0967 144.311 41.7521 143.797 42.0078 143.196C42.0637 143.097 42.1328 143.03 42.2251 142.974C41.8282 142.751 41.7293 142.79 41.9051 143.084C41.9257 143.325 42.1545 143.654 42.2673 143.839C43.2255 145.216 44.7013 144.122 46.0165 144.531C47.3152 144.946 48.1677 142.973 46.8525 142.564C46.0429 142.315 45.2237 142.186 44.3823 142.334C44.4153 142.32 43.5773 142.524 43.934 142.553C44.0366 142.665 44.0598 142.675 43.9967 142.566C43.9568 142.467 43.9235 142.384 43.8836 142.286C43.7341 141.962 43.5846 141.639 43.3263 141.379C42.7866 140.849 42.0039 140.763 41.3345 141.052C40.9949 141.208 40.7051 141.44 40.4584 141.731C40.2215 141.999 40.0577 142.449 39.7346 142.598C40.1477 142.719 40.5706 142.817 40.9836 142.938C40.6585 142.417 40.3103 141.887 39.9852 141.366C39.2257 140.196 37.5425 141.489 38.2789 142.649Z" fill="#191919"/>
<path d="M67.6645 51.9793C67.8016 51.4639 68.1047 51.2649 68.5872 51.4153C68.8848 51.5828 69.0902 51.8067 69.2166 52.1199C69.3528 52.41 69.334 52.7435 69.4372 53.047C69.5272 53.3174 69.6599 53.5514 69.9408 53.6298C70.5421 53.7898 70.9957 53.1083 71.123 52.616C71.1817 52.3815 71.1574 51.9887 71.2922 51.8001C71.8247 51.0292 72.0547 51.7417 72.3063 51.9852C72.505 52.1926 72.7101 52.3208 72.9875 52.343C73.955 52.4128 74.2952 51.3553 74.4283 50.5923C74.4867 50.262 73.9583 50.1876 73.8998 50.5179C73.8055 50.9969 73.5914 52.2719 72.6418 51.5814C72.4764 51.4565 72.3931 51.2025 72.221 51.0611C71.996 50.8835 71.7348 50.7588 71.4412 50.8389C71.0981 50.939 70.9043 51.2664 70.7831 51.5837C70.6128 52.0167 70.4201 53.8199 69.8584 52.5703C69.5359 51.8185 69.358 50.855 68.3312 50.8284C67.6312 50.8041 67.0617 51.3406 67.0935 52.0371C67.1539 52.377 67.6853 52.316 67.6645 51.9793Z" fill="#2B2B2B"/>
<path d="M67.0274 49.7824C67.3357 49.1212 68.2824 48.8543 68.9011 49.2948C69.2783 49.5644 69.3063 50.1091 69.6933 50.3555C69.9282 50.51 70.1362 50.5028 70.38 50.3469C70.5316 50.2474 70.5808 50.1317 70.6959 49.9894C71.0904 49.4468 71.4989 49.1286 72.2064 49.4566C72.5138 49.601 72.7204 49.115 72.4129 48.9707C71.8442 48.7017 71.1874 48.7367 70.6933 49.1277C70.4365 49.3464 70.1709 49.9711 69.873 49.7079C69.6711 49.5401 69.604 49.1838 69.4119 48.9929C68.5512 48.1899 67.0566 48.5245 66.5744 49.5626C66.3806 49.89 66.883 50.0899 67.0274 49.7824Z" fill="#2B2B2B"/>
<path d="M160.84 96.6499C161.244 97.1769 162.423 99.4811 163.391 98.5538C163.763 98.1929 163.604 97.0874 164.003 96.9838C164.297 96.9037 164.278 97.0457 164.45 97.2829C164.609 97.4871 164.761 97.6749 164.947 97.8493C165.258 98.1455 165.589 98.3954 165.946 98.6155C166.098 98.7075 166.366 98.6572 166.375 98.4426C166.431 97.3463 167.658 97.062 168.235 97.922C168.428 98.2086 168.853 97.8838 168.66 97.5972C167.798 96.3155 165.931 96.8196 165.846 98.3682C165.995 98.3084 166.127 98.2551 166.275 98.1953C165.865 97.939 165.488 97.6694 165.15 97.3072C164.908 97.0405 164.718 96.5228 164.424 96.3157C164.153 96.1184 163.836 96.1887 163.589 96.3842C163.22 96.7055 163.297 97.1345 163.16 97.5542C163.114 97.726 162.901 98.1954 162.657 98.1599C162.531 98.1338 162.236 97.6395 162.126 97.5111C161.831 97.1125 161.52 96.7205 161.225 96.3219C161.062 96.0616 160.637 96.3864 160.84 96.6499Z" fill="#2B2B2B"/>
<path d="M165.522 95.7581C165.535 94.7941 166.621 94.7776 167.131 95.2812C167.353 95.4984 167.555 95.7619 167.876 95.8435C168.791 96.0686 169.094 94.5853 170.027 95.5697C170.865 96.4586 172.328 96.4245 172.654 95.0468C172.729 94.7098 172.2 94.6355 172.125 94.9725C172.031 95.3557 171.711 95.6571 171.302 95.688C170.82 95.7291 170.601 95.3765 170.307 95.0736C170.108 94.8662 169.919 94.6357 169.632 94.5408C169.344 94.4459 169.083 94.5127 168.84 94.6686C168.704 94.7615 168.609 94.9532 168.474 95.0461C167.97 95.3645 167.751 95.1077 167.394 94.7918C166.464 93.9593 165 94.5117 164.974 95.8258C164.978 96.1691 165.509 96.1081 165.522 95.7581Z" fill="#2B2B2B"/>
<path d="M191.602 19.3243C190.637 18.9277 190.352 17.4132 191.159 16.7042C192.17 15.8362 193.751 17.0002 193.6 18.1925C193.548 18.5393 194.076 18.6137 194.128 18.2669C194.344 16.665 192.356 15.2051 190.936 16.1998C189.684 17.0883 190.004 19.2597 191.379 19.8168C191.697 19.9381 191.903 19.4521 191.602 19.3243Z" fill="#2B2B2B"/>
<path d="M102.356 170.13C100.908 169.392 100.68 167.164 102.388 166.551C103.882 166.025 105.175 167.804 104.136 169.029C103.915 169.29 104.335 169.619 104.556 169.358C105.878 167.789 104.28 165.443 102.327 166.02C100.048 166.69 100.219 169.631 102.133 170.623C102.447 170.784 102.654 170.298 102.356 170.13Z" fill="#2B2B2B"/>
<path d="M90.94 148.107C90.1998 147.888 88.5734 147.183 89.9505 146.225C90.2207 146.04 90.5542 146.058 90.8044 145.823C91.3048 145.353 91.2432 144.63 90.9873 144.043C90.8111 143.654 90.5262 143.328 90.2908 142.982C90.0122 142.577 89.6082 142.146 90.228 141.876C90.3435 141.83 90.4788 141.833 90.6107 141.779C91.1878 141.547 91.4403 140.985 91.4319 140.394C91.4276 140.05 90.8963 140.111 90.9006 140.455C90.9439 141.703 89.1226 140.942 89.3808 142.295C89.5919 143.341 91.673 144.84 90.0147 145.624C89.3521 145.93 88.7519 146.153 88.8965 147.034C89.0544 147.948 89.9502 148.315 90.7366 148.554C91.0441 148.698 91.2671 148.205 90.94 148.107Z" fill="#2B2B2B"/>
<path d="M93.6685 144.323C93.2549 144.01 92.55 143.451 92.5252 142.867C92.5035 142.243 93.4468 141.92 93.7291 141.384C94.1132 140.673 94.0282 139.845 93.5377 139.199C93.3288 138.919 92.9039 139.244 93.1128 139.524C93.4309 139.932 93.5281 140.411 93.3612 140.9C93.1876 141.373 92.8347 141.496 92.4989 141.804C92.2322 142.046 92.0283 142.3 91.9831 142.664C91.9131 143.535 92.7077 144.269 93.3396 144.743C93.611 144.94 93.9398 144.52 93.6685 144.323Z" fill="#2B2B2B"/>
<path d="M24.3711 87.8897C24.0359 88.3892 23.4611 89.388 22.6781 89.2054C21.8159 89.0165 22.082 87.4905 22.1364 86.9126C22.258 85.5982 22.538 84.2966 22.9337 83.0442C23.7284 80.4997 24.9262 78.0993 26.1605 75.7417C26.4724 75.1366 25.5005 74.7235 25.1887 75.3286C23.4915 78.5823 21.841 81.9514 21.2346 85.6277C21.0303 86.8796 20.5712 89.0203 21.7493 89.9444C23.0928 90.9936 24.4853 89.6457 25.2018 88.5706C25.5929 87.9719 24.7524 87.3141 24.3711 87.8897Z" fill="#161616"/>
<path d="M28.5532 71.0765C29.5515 69.2743 30.5498 67.472 31.548 65.6697C31.883 65.0745 30.888 64.6515 30.5761 65.2566C29.5779 67.0589 28.5796 68.8612 27.5814 70.6635C27.2299 71.2654 28.2183 71.6718 28.5532 71.0765Z" fill="#161616"/>
<path d="M34.7629 62.091C35.3616 61.3893 37.4631 58.6626 38.4832 59.7655C39.3643 60.7137 38.9676 62.7717 38.6243 63.8688C38.4281 64.5231 39.4 64.9362 39.5961 64.2819C40.0998 62.6792 40.5207 59.9212 38.9258 58.7243C37.1192 57.3827 34.9191 60.245 33.9058 61.4399C33.465 61.9628 34.322 62.6139 34.7629 62.091Z" fill="#161616"/>
<path d="M26.4916 81.5513C27.7028 78.0911 29.2709 74.7552 31.1896 71.623C31.5477 71.0376 30.7072 70.3798 30.349 70.9652C28.3844 74.1735 26.7636 77.5689 25.5197 81.1382C25.2773 81.7728 26.2558 82.2024 26.4916 81.5513Z" fill="#161616"/>
<path d="M180.462 118.487C179.965 116.54 182.79 116.32 184.005 116.386C185.22 116.452 186.433 116.653 187.605 116.946C190.192 117.609 192.656 118.82 194.836 120.375C197.175 122.038 199.212 124.092 200.975 126.372C201.777 127.409 206.655 133.608 203.431 134.027C202.754 134.108 202.876 135.171 203.553 135.09C204.609 134.951 205.353 134.134 205.548 133.096C205.775 131.854 205.105 130.668 204.484 129.653C202.971 127.138 201.201 124.747 199.118 122.673C195.303 118.825 190.326 115.945 184.857 115.41C183.464 115.282 181.846 115.168 180.623 115.987C179.622 116.64 179.156 117.767 179.463 118.909C179.65 119.562 180.633 119.146 180.462 118.487Z" fill="#161616"/>
<path d="M195.442 123.255C198.191 125.175 200.25 127.853 201.408 131.009C201.651 131.659 202.64 131.26 202.397 130.61C201.189 127.283 199.001 124.427 196.1 122.415C195.534 122.011 194.876 122.851 195.442 123.255Z" fill="#161616"/>
<path d="M181.107 114.239C182.885 113.752 184.747 113.901 186.436 114.619C187.061 114.885 187.491 113.906 186.85 113.647C184.876 112.795 182.763 112.689 180.708 113.25C180.055 113.436 180.454 114.426 181.107 114.239Z" fill="#161616"/>
<path fill-rule="evenodd" clip-rule="evenodd" d="M39.5983 70.4164L39.5185 70.2185C39.5185 70.2185 39.4919 70.1526 39.399 70.0175L39.399 70.0174C39.3458 69.8856 39.266 69.6877 39.1497 69.4471C38.927 68.9426 38.5452 68.234 37.9254 67.4105C37.3122 66.6034 36.4807 65.6353 35.3029 64.8068C34.1184 63.9619 32.6404 63.1971 30.8928 62.8094C30.0305 62.6205 29.0893 62.521 28.1154 62.5305C27.1415 62.54 26.1483 62.6916 25.1454 62.962C23.1563 63.4962 21.1853 64.5981 19.6187 66.2271C18.0454 67.8396 16.8863 69.956 16.4211 72.2717C16.3106 72.8531 16.2397 73.4377 16.2085 74.0254C16.1839 74.6297 16.2087 75.2139 16.2567 75.8081C16.3212 76.3955 16.4418 76.9795 16.5789 77.5569C16.7324 78.1275 16.9421 78.6948 17.1617 79.2389C18.086 81.4349 19.6762 83.2855 21.5983 84.5805C23.5367 85.8689 25.7839 86.5918 27.9929 86.6975C28.5575 86.7189 29.1088 86.7073 29.6468 86.6628C30.1848 86.6183 30.726 86.5341 31.2539 86.417C31.3407 86.3947 31.4283 86.3743 31.5159 86.3539C31.6912 86.313 31.8664 86.2721 32.0357 86.2166C32.1578 86.1865 32.2963 86.1498 32.4117 86.1032C32.4799 86.0757 32.5454 86.0544 32.6087 86.0338C32.668 86.0145 32.7253 85.9958 32.7811 85.9733C32.9498 85.918 33.1053 85.8511 33.2632 85.7831C33.343 85.7488 33.4235 85.7142 33.5066 85.6806C33.5824 85.6436 33.6609 85.6076 33.74 85.5714C33.8947 85.5005 34.0516 85.4286 34.1956 85.3451C34.2673 85.3044 34.3382 85.2659 34.408 85.2279C34.5658 85.1421 34.7184 85.059 34.8646 84.9602C34.9667 84.8806 35.0755 84.8176 35.1842 84.7545C35.2353 84.7148 35.288 84.6791 35.3407 84.6435C35.3934 84.6078 35.4461 84.5722 35.4972 84.5324C35.6916 84.3965 35.8958 84.2374 36.0835 84.085C36.2712 83.9325 36.459 83.7801 36.64 83.6112C37.3545 82.9587 37.9631 82.2338 38.4528 81.4994C39.4586 80.0009 39.992 78.4245 40.2486 77.0173C40.4986 75.5936 40.4486 74.3293 40.33 73.3228C40.2048 72.2997 39.9879 71.5245 39.8147 71.0001C39.7314 70.7461 39.6515 70.5483 39.5983 70.4164ZM39.3728 70.0476L39.4526 70.2454C39.4526 70.2454 39.4627 70.318 39.5258 70.4268C39.5409 70.484 39.5663 70.5502 39.5955 70.6265C39.637 70.7351 39.6864 70.8641 39.7256 71.0171C39.8922 71.5251 40.1091 72.3003 40.1947 73.3201C40.2491 73.835 40.2606 74.3863 40.2195 74.9972C40.1784 75.6081 40.0945 76.2554 39.9282 76.936C39.5955 78.2972 38.9661 79.7781 37.9698 81.1578C37.4668 81.8592 36.8712 82.5213 36.1996 83.1374C35.5279 83.7535 34.7339 84.3039 33.8902 84.7785C33.6891 84.8979 33.465 85.0076 33.2408 85.1172C33.1254 85.1637 33.0116 85.2144 32.8979 85.2651C32.7841 85.3158 32.6704 85.3665 32.555 85.4131L32.1923 85.5594C32.1345 85.5827 32.0752 85.6019 32.0158 85.621C31.9564 85.6402 31.8971 85.6593 31.8394 85.6826C31.7206 85.7209 31.5961 85.7568 31.4716 85.7927C31.3471 85.8285 31.2225 85.8644 31.1038 85.9027C30.6222 86.0395 30.1108 86.15 29.5795 86.211C29.0548 86.2885 28.5266 86.3099 27.9918 86.3148C26.9155 86.3081 25.8189 86.1562 24.7516 85.8392C23.6843 85.5221 22.6627 85.0332 21.7166 84.3989C21.2469 84.09 20.7968 83.7347 20.3731 83.3497C19.9658 82.9581 19.5684 82.5433 19.2138 82.0921C18.8592 81.6408 18.5474 81.1531 18.2521 80.6588C17.9733 80.1578 17.7373 79.6204 17.5244 79.0928C17.3214 78.5421 17.1646 78.011 17.0342 77.4501C16.9038 76.8893 16.8294 76.325 16.7948 75.7638C16.7601 75.2027 16.7583 74.6282 16.8029 74.0734C16.8475 73.5187 16.9317 72.9671 17.0555 72.4187C17.5574 70.2415 18.674 68.2573 20.1816 66.7672C20.2293 66.7191 20.2787 66.6753 20.3281 66.6314C20.3775 66.5875 20.4269 66.5436 20.4746 66.4956L20.4746 66.4956C20.57 66.3995 20.6655 66.3035 20.7676 66.224C20.8697 66.1444 20.9701 66.0608 21.0706 65.9771C21.171 65.8934 21.2715 65.8098 21.3736 65.7302C21.782 65.4121 22.2202 65.1202 22.6553 64.868C22.8728 64.7419 23.0903 64.6158 23.3145 64.5062C23.3722 64.4829 23.4282 64.4555 23.4843 64.4281C23.5403 64.4007 23.5964 64.3733 23.6541 64.35C23.7628 64.287 23.8782 64.2404 23.9936 64.1938L24.1585 64.1273L24.3399 64.0541L24.6861 63.9145C24.7639 63.8893 24.8393 63.8632 24.914 63.8372C25.0673 63.784 25.2179 63.7316 25.3821 63.6912C26.3123 63.4309 27.2659 63.2762 28.1704 63.2371C29.0815 63.2146 29.9698 63.278 30.8121 63.4174C32.4967 63.6963 33.9611 64.3324 35.1453 65.0816C35.7374 65.4562 36.247 65.8641 36.7005 66.2754C37.1541 66.6867 37.535 67.1082 37.8465 67.5001C38.4926 68.2938 38.8744 69.0025 39.107 69.4838C39.2397 69.7178 39.3195 69.9157 39.3728 70.0476Z" fill="#161616"/>
<path fill-rule="evenodd" clip-rule="evenodd" d="M201.717 121.51C201.567 121.091 201.49 120.854 201.49 120.854C201.49 120.854 201.404 120.64 201.175 120.214C201.135 120.116 201.088 120 201.018 119.875C200.994 119.832 200.965 119.786 200.934 119.736C200.885 119.659 200.833 119.576 200.786 119.489C200.736 119.414 200.691 119.336 200.645 119.259C200.6 119.181 200.554 119.104 200.504 119.028C200.433 118.939 200.366 118.842 200.295 118.739C200.249 118.673 200.203 118.606 200.153 118.537C199.649 117.858 198.963 117.062 197.99 116.361C197.861 116.269 197.721 116.181 197.579 116.091C197.457 116.014 197.332 115.935 197.21 115.852C197.081 115.77 196.935 115.694 196.79 115.619L196.79 115.619L196.353 115.392C196.331 115.383 196.308 115.372 196.284 115.36C196.234 115.336 196.18 115.309 196.122 115.294C196.1 115.284 196.077 115.273 196.053 115.262C196.002 115.237 195.949 115.211 195.89 115.196L195.405 114.989C195.071 114.874 194.721 114.767 194.36 114.682C193.63 114.535 192.857 114.425 192.042 114.448C191.999 114.448 191.954 114.447 191.909 114.447C191.754 114.446 191.59 114.444 191.435 114.463C191.334 114.475 191.229 114.488 191.124 114.502C191.02 114.515 190.915 114.529 190.814 114.541C190.761 114.552 190.711 114.558 190.661 114.564C190.61 114.57 190.56 114.576 190.507 114.588L190.191 114.658L189.557 114.798C189.445 114.805 189.346 114.845 189.247 114.885C189.198 114.905 189.146 114.921 189.095 114.937C189.044 114.953 188.993 114.969 188.944 114.989C188.894 115.008 188.843 115.024 188.792 115.04C188.741 115.056 188.69 115.072 188.64 115.092L188.485 115.135L188.452 115.148L188.436 115.155L188.403 115.168L188.32 115.202C188.253 115.232 188.185 115.262 188.117 115.292C187.778 115.442 187.439 115.592 187.124 115.8C186.339 116.231 185.621 116.827 184.953 117.5C184.789 117.662 184.631 117.841 184.473 118.019C184.433 118.064 184.399 118.111 184.366 118.158C184.332 118.206 184.298 118.253 184.259 118.297L184.045 118.575L183.838 118.87C183.81 118.919 183.778 118.971 183.746 119.022C183.714 119.073 183.682 119.124 183.654 119.174C183.602 119.281 183.537 119.384 183.473 119.487C183.409 119.589 183.345 119.692 183.293 119.799C182.85 120.649 182.512 121.571 182.307 122.536C182.125 123.51 182.085 124.504 182.174 125.484L182.282 126.227L182.315 126.405L182.365 126.576L182.456 126.943L182.546 127.309C182.576 127.431 182.616 127.53 182.662 127.645L182.919 128.328C183.324 129.238 183.838 130.085 184.465 130.829C184.584 130.976 184.709 131.108 184.838 131.245C184.874 131.284 184.911 131.323 184.948 131.362C184.993 131.402 185.035 131.447 185.077 131.492C185.12 131.538 185.162 131.583 185.207 131.622L185.475 131.859L185.743 132.096C185.769 132.114 185.792 132.134 185.814 132.154C185.836 132.174 185.859 132.193 185.885 132.211L186.027 132.327L186.027 132.327C186.223 132.478 186.418 132.629 186.607 132.764C187.41 133.283 188.27 133.703 189.162 134.014C189.271 134.047 189.384 134.078 189.498 134.109C189.611 134.14 189.724 134.171 189.833 134.204C189.888 134.22 189.946 134.235 190.005 134.249C190.063 134.264 190.122 134.279 190.177 134.295L190.53 134.363L190.884 134.432C191.009 134.458 191.111 134.474 191.23 134.483C191.349 134.493 191.464 134.504 191.579 134.515C191.694 134.527 191.808 134.538 191.927 134.547C192.858 134.574 193.763 134.535 194.65 134.311C194.988 134.261 195.295 134.159 195.599 134.058C195.702 134.024 195.804 133.99 195.907 133.958L195.973 133.931L196.006 133.918L196.022 133.911L196.055 133.898L196.204 133.838C196.296 133.781 196.395 133.742 196.494 133.702C196.57 133.663 196.649 133.63 196.728 133.597C196.845 133.547 196.963 133.497 197.074 133.429C198.59 132.626 199.799 131.486 200.617 130.236C200.672 130.142 200.728 130.05 200.784 129.959C200.922 129.73 201.057 129.508 201.172 129.284L201.379 128.798L201.477 128.566C201.523 128.49 201.552 128.421 201.575 128.335L201.732 127.869C201.745 127.831 201.758 127.795 201.771 127.758C201.812 127.645 201.851 127.535 201.873 127.41C201.954 127.089 202.026 126.792 202.081 126.501C202.312 125.315 202.237 124.272 202.145 123.427C202.137 123.372 202.13 123.317 202.123 123.264C202.102 123.108 202.082 122.963 202.057 122.83C202.044 122.714 202.016 122.61 201.99 122.512C201.97 122.44 201.952 122.371 201.94 122.302C201.913 122.14 201.877 122.002 201.84 121.863C201.803 121.725 201.757 121.609 201.717 121.51ZM201.132 120.251C201.315 120.656 201.424 120.881 201.424 120.881C201.424 120.881 201.517 121.111 201.601 121.557C201.614 121.613 201.633 121.673 201.654 121.737C201.672 121.793 201.691 121.852 201.708 121.916C201.725 121.98 201.738 122.045 201.752 122.111C201.768 122.19 201.785 122.271 201.808 122.355C201.811 122.363 201.813 122.371 201.815 122.38C201.857 122.528 201.903 122.691 201.919 122.867C201.936 123.051 201.96 123.253 201.983 123.454C201.983 123.507 201.991 123.564 201.998 123.623C202.005 123.67 202.011 123.718 202.014 123.768C202.017 123.824 202.017 123.881 202.016 123.939C202.015 123.997 202.015 124.055 202.018 124.111C202.017 124.162 202.017 124.21 202.018 124.256C202.018 124.332 202.019 124.403 202.013 124.477C202.009 124.521 202.009 124.567 202.008 124.612C202.008 124.691 202.007 124.771 201.991 124.85C201.955 125.095 201.926 125.356 201.904 125.633C201.887 125.715 201.869 125.799 201.851 125.885C201.812 126.064 201.772 126.253 201.735 126.449C201.444 127.582 200.933 128.786 200.091 129.93C199.243 131.059 198.12 132.125 196.709 132.905C196.598 132.975 196.474 133.034 196.353 133.092C196.29 133.121 196.228 133.15 196.169 133.181C196.129 133.197 196.088 133.218 196.044 133.24C195.997 133.264 195.947 133.29 195.895 133.311L195.753 133.387L195.737 133.394L195.704 133.407L195.638 133.433C195.523 133.474 195.407 133.519 195.292 133.563C195.004 133.673 194.714 133.784 194.424 133.846C194.321 133.868 194.215 133.896 194.107 133.924C194.011 133.949 193.913 133.975 193.814 133.997C193.705 134.012 193.598 134.031 193.491 134.051C193.383 134.07 193.276 134.089 193.167 134.104C192.983 134.145 192.801 134.156 192.608 134.167C192.58 134.169 192.552 134.171 192.524 134.172L192.187 134.193C192.161 134.193 192.133 134.194 192.104 134.194C192.029 134.196 191.946 134.198 191.86 134.191C191.645 134.182 191.431 134.172 191.2 134.17C191.14 134.165 191.085 134.158 191.03 134.152C190.974 134.146 190.919 134.139 190.86 134.134L190.519 134.099L190.179 134.064C190.06 134.054 189.951 134.022 189.842 133.989C189.733 133.956 189.622 133.929 189.51 133.902C189.399 133.875 189.287 133.849 189.178 133.816C189.043 133.758 188.903 133.71 188.76 133.662C188.683 133.635 188.606 133.609 188.527 133.58L188.372 133.528C188.329 133.519 188.291 133.499 188.256 133.481C188.24 133.473 188.224 133.465 188.21 133.459L187.902 133.315L187.595 133.17C187.533 133.144 187.466 133.103 187.398 133.062C187.364 133.042 187.33 133.021 187.297 133.003C187.195 132.939 187.094 132.879 186.993 132.819C186.892 132.759 186.791 132.699 186.689 132.635C185.901 132.109 185.213 131.447 184.61 130.713C184.04 129.965 183.581 129.115 183.229 128.241L183.012 127.562C182.998 127.503 182.979 127.445 182.962 127.39C182.943 127.33 182.924 127.273 182.912 127.219L182.852 126.879L182.775 126.545L182.741 126.367L182.724 126.182L182.653 125.483C182.6 124.545 182.683 123.611 182.876 122.709C183.091 121.817 183.415 120.957 183.845 120.17C183.904 120.079 183.966 119.983 184.028 119.886C184.089 119.789 184.151 119.692 184.21 119.602C184.266 119.502 184.322 119.403 184.384 119.32L184.588 119.066L184.792 118.811C184.809 118.788 184.826 118.764 184.842 118.74C184.887 118.676 184.934 118.609 184.996 118.556C185.154 118.377 185.302 118.222 185.45 118.066L185.45 118.066C185.512 117.983 185.598 117.91 185.684 117.837L185.924 117.625C185.974 117.583 186.021 117.54 186.068 117.498C186.184 117.393 186.297 117.291 186.428 117.211C186.517 117.147 186.602 117.084 186.687 117.021C186.771 116.958 186.856 116.895 186.945 116.83C187.067 116.742 187.187 116.672 187.31 116.6C187.367 116.567 187.424 116.534 187.482 116.498C187.723 116.337 187.975 116.223 188.224 116.11C188.349 116.053 188.474 115.996 188.597 115.934L188.728 115.88L188.877 115.821C188.982 115.797 189.081 115.757 189.18 115.717C189.286 115.694 189.385 115.654 189.484 115.614C189.583 115.574 189.681 115.534 189.771 115.518C189.868 115.497 189.964 115.473 190.059 115.449C190.155 115.425 190.251 115.401 190.348 115.38C190.43 115.347 190.536 115.324 190.625 115.307C190.67 115.299 190.72 115.293 190.77 115.287C190.821 115.281 190.871 115.275 190.915 115.266C191.006 115.256 191.094 115.242 191.182 115.228C191.289 115.211 191.394 115.195 191.496 115.186C191.589 115.177 191.683 115.173 191.777 115.168C191.871 115.164 191.965 115.159 192.057 115.151C192.803 115.099 193.54 115.166 194.233 115.27C195.634 115.51 196.854 116.015 197.833 116.636C198.068 116.79 198.302 116.945 198.521 117.106C198.666 117.213 198.797 117.327 198.928 117.44C198.994 117.496 199.059 117.553 199.127 117.609C199.193 117.655 199.25 117.712 199.304 117.768C199.337 117.801 199.368 117.833 199.401 117.862C199.431 117.892 199.46 117.92 199.488 117.947C199.551 118.007 199.609 118.063 199.66 118.123C199.696 118.165 199.737 118.206 199.777 118.248C199.818 118.289 199.858 118.33 199.895 118.373C199.932 118.411 199.966 118.457 200.001 118.505C200.029 118.543 200.058 118.582 200.09 118.62L200.09 118.62C200.213 118.781 200.336 118.943 200.452 119.087C200.498 119.158 200.54 119.23 200.582 119.3C200.63 119.381 200.677 119.46 200.727 119.532C200.768 119.609 200.812 119.679 200.855 119.747C200.892 119.805 200.927 119.861 200.959 119.918C201.01 119.988 201.042 120.06 201.071 120.126C201.09 120.171 201.109 120.213 201.132 120.251Z" fill="#161616"/>
<path fill-rule="evenodd" clip-rule="evenodd" d="M183.097 32.3609C183.021 32.1234 182.967 31.9915 182.967 31.9915C182.967 31.9915 182.898 31.8663 182.828 31.6453C182.809 31.6239 182.796 31.5909 182.782 31.5559C182.768 31.5208 182.753 31.4837 182.731 31.4541C182.706 31.4162 182.686 31.3766 182.665 31.3371C182.644 31.2975 182.623 31.258 182.599 31.2201C182.565 31.1376 182.509 31.0454 182.453 30.9531C182.427 30.9119 182.399 30.8721 182.37 30.8309C182.333 30.7798 182.295 30.7267 182.26 30.6664C181.965 30.2678 181.587 29.8068 181.032 29.3792C180.482 28.9682 179.781 28.5609 178.929 28.3489C178.506 28.2511 178.05 28.1666 177.578 28.1845C177.522 28.188 177.46 28.189 177.398 28.19C177.336 28.191 177.274 28.192 177.218 28.1955C177.119 28.22 177.026 28.2292 176.925 28.2391C176.902 28.2413 176.879 28.2436 176.855 28.2461L176.67 28.2632C176.634 28.2682 176.603 28.2758 176.573 28.2833C176.542 28.2908 176.512 28.2983 176.476 28.3034C176.337 28.3401 176.215 28.3702 176.093 28.4003C176.032 28.4153 175.977 28.4328 175.921 28.4503C175.866 28.4678 175.811 28.4853 175.75 28.5003L175.578 28.5504L175.496 28.5836L175.463 28.5969L175.446 28.6036L175.43 28.6102L175.38 28.6302C175.322 28.6587 175.263 28.6864 175.202 28.7146C175.029 28.795 174.85 28.8783 174.682 28.9888C174.207 29.2379 173.779 29.6023 173.397 29.9864C173.015 30.3705 172.706 30.8403 172.427 31.3363C172.171 31.8422 171.985 32.3776 171.867 32.9425C171.75 33.5074 171.736 34.0885 171.793 34.6595C171.796 34.6789 171.799 34.6982 171.801 34.7175C171.839 34.9866 171.874 35.243 171.964 35.5107C172.015 35.7496 172.095 35.9403 172.182 36.1494C172.204 36.2032 172.227 36.2581 172.251 36.3154C172.496 36.8297 172.808 37.3174 173.173 37.7455C173.221 37.7932 173.27 37.8451 173.32 37.8969C173.37 37.9488 173.419 38.0006 173.467 38.0483L173.467 38.0483C173.563 38.1438 173.659 38.2392 173.772 38.328C173.933 38.496 174.118 38.6293 174.298 38.7594C174.34 38.79 174.382 38.8204 174.424 38.851C174.894 39.16 175.393 39.3995 175.905 39.5762C176.427 39.7298 176.959 39.8603 177.491 39.895C178.039 39.9231 178.551 39.9084 179.078 39.7912C179.346 39.7409 179.567 39.6709 179.804 39.5943L179.854 39.5743L179.87 39.5677L179.887 39.561L179.903 39.5544L179.986 39.5211L180.167 39.4479L180.167 39.4479C180.282 39.4014 180.398 39.3548 180.506 39.2918C181.39 38.8203 182.098 38.1513 182.564 37.4071C183.037 36.6793 183.26 35.8995 183.37 35.2224C183.48 34.5453 183.425 33.9347 183.368 33.4595C183.351 33.3919 183.342 33.3273 183.333 33.2652C183.325 33.2151 183.318 33.1667 183.307 33.1196C183.296 33.069 183.281 33.0199 183.267 32.9727C183.251 32.9215 183.236 32.8724 183.227 32.826C183.217 32.7784 183.204 32.7356 183.193 32.6962C183.179 32.6481 183.166 32.6053 183.161 32.5654C183.15 32.4928 183.124 32.4268 183.097 32.3609ZM182.739 31.662C182.848 31.8862 182.901 32.0181 182.901 32.0181C182.901 32.0181 182.938 32.1566 183.084 32.4236C183.111 32.4895 183.137 32.5555 183.148 32.6281C183.174 32.694 183.191 32.7831 183.208 32.8722L183.208 32.8722C183.214 32.9033 183.221 32.9335 183.229 32.9645C183.244 33.0224 183.26 33.0828 183.265 33.156C183.281 33.2451 183.295 33.3738 183.302 33.486C183.304 33.5141 183.307 33.5462 183.31 33.5784C183.314 33.6106 183.317 33.6428 183.319 33.6708C183.321 33.6989 183.32 33.7327 183.319 33.7666C183.319 33.8004 183.318 33.8343 183.32 33.8623C183.31 33.9333 183.308 34.001 183.307 34.0687C183.306 34.1364 183.304 34.2041 183.294 34.2751C183.275 34.4171 183.256 34.5591 183.243 34.7176C183.23 34.7714 183.215 34.826 183.199 34.8816C183.172 34.9799 183.144 35.0813 183.125 35.1868C182.956 35.8113 182.631 36.4791 182.157 37.1111C181.677 37.7266 181.048 38.3062 180.27 38.7543C180.224 38.7825 180.172 38.8082 180.12 38.8339C180.069 38.8597 180.017 38.8854 179.971 38.9136L179.812 38.9966L179.73 39.0299L179.713 39.0365L179.697 39.0432L179.647 39.0632C179.553 39.0937 179.458 39.1305 179.364 39.1667C179.223 39.2214 179.085 39.2747 178.958 39.3029C178.516 39.4429 178.008 39.5138 177.519 39.5383C177.024 39.5464 176.502 39.4885 176.003 39.3448L175.63 39.227C175.541 39.1984 175.456 39.1592 175.375 39.1217C175.336 39.1035 175.298 39.0857 175.26 39.0697C175.022 38.9548 174.794 38.8169 174.565 38.6789L174.565 38.6789C174.119 38.3798 173.735 37.998 173.393 37.5797C173.069 37.1548 172.836 36.6735 172.636 36.1788C172.616 36.0942 172.588 36.0052 172.561 35.9144C172.508 35.7431 172.454 35.5652 172.436 35.397C172.391 35.2139 172.374 35.0196 172.356 34.8253C172.351 34.7605 172.345 34.6957 172.338 34.6313C172.323 34.1197 172.381 33.5979 172.485 33.0957C172.629 32.5968 172.803 32.1242 173.046 31.681C173.295 31.2544 173.591 30.8474 173.937 30.5163C174.282 30.1851 174.658 29.8802 175.067 29.6578C175.201 29.5782 175.341 29.5132 175.48 29.4482C175.55 29.4157 175.62 29.3832 175.69 29.3489L175.723 29.3356L175.739 29.329L175.756 29.3223L175.838 29.2891L176.003 29.2225C176.118 29.176 176.234 29.1294 176.339 29.106C176.438 29.0661 176.544 29.0426 176.649 29.0192C176.699 28.9993 176.748 28.9793 176.804 28.9758L176.966 28.9489C177.019 28.9372 177.073 28.9296 177.128 28.922C177.182 28.9145 177.237 28.9069 177.29 28.8951C177.374 28.8765 177.451 28.8725 177.536 28.8682C177.558 28.8671 177.58 28.8659 177.603 28.8645C178.012 28.8336 178.425 28.8587 178.812 28.9137C179.584 29.0236 180.288 29.2956 180.844 29.6274C180.996 29.7193 181.125 29.8015 181.254 29.8836C181.373 29.9889 181.486 30.0777 181.598 30.1665L181.598 30.1665C181.711 30.2553 181.807 30.3508 181.903 30.4462C181.921 30.4677 181.945 30.4915 181.969 30.5154C181.993 30.5392 182.017 30.5631 182.035 30.5845C182.054 30.6059 182.074 30.6314 182.093 30.657C182.113 30.6825 182.133 30.708 182.151 30.7294C182.208 30.8217 182.281 30.9073 182.354 30.9929C182.41 31.0852 182.466 31.1775 182.516 31.2533C182.549 31.3357 182.599 31.4115 182.642 31.4708C182.685 31.5301 182.712 31.596 182.739 31.662Z" fill="#161616"/>
<path fill-rule="evenodd" clip-rule="evenodd" d="M182.034 1.21476C181.891 0.812408 181.821 0.59142 181.821 0.59142C181.821 0.59142 181.718 0.383737 181.505 -0.0481177C181.465 -0.147042 181.419 -0.262453 181.355 -0.371212C181.276 -0.47332 181.206 -0.598566 181.13 -0.7403C181.116 -0.764418 181.103 -0.789759 181.088 -0.81604C181.028 -0.926236 180.958 -1.05295 180.878 -1.17534C180.814 -1.25532 180.753 -1.34236 180.69 -1.43143C180.64 -1.50374 180.588 -1.5774 180.533 -1.64971C180.026 -2.28868 179.386 -3.06591 178.443 -3.73989C178.225 -3.90098 177.967 -4.06525 177.709 -4.22952L177.709 -4.22961C177.623 -4.29754 177.522 -4.34804 177.413 -4.40182C177.38 -4.41835 177.346 -4.43518 177.312 -4.45292L176.876 -4.67942C176.683 -4.77926 176.482 -4.85886 176.275 -4.94114C176.168 -4.98331 176.06 -5.02617 175.95 -5.07283C175.616 -5.18738 175.273 -5.27879 174.929 -5.37021C174.232 -5.52989 173.482 -5.63 172.707 -5.60457C172.622 -5.5968 172.535 -5.59587 172.447 -5.59492C172.341 -5.59379 172.232 -5.59262 172.122 -5.57971L171.518 -5.50858C171.479 -5.50124 171.439 -5.49706 171.397 -5.49272C171.344 -5.48713 171.287 -5.48128 171.228 -5.46809C171.139 -5.45132 171.033 -5.4279 170.928 -5.40447L170.928 -5.40447C170.749 -5.34911 170.578 -5.31143 170.396 -5.27153C170.37 -5.26578 170.344 -5.25998 170.317 -5.25408C170.205 -5.24714 170.123 -5.21388 170.024 -5.17397C169.974 -5.15401 169.927 -5.13984 169.88 -5.12567C169.833 -5.1115 169.786 -5.09732 169.737 -5.07737C169.687 -5.05741 169.64 -5.04324 169.593 -5.02907C169.546 -5.0149 169.499 -5.00072 169.45 -4.98077L169.302 -4.9209L169.269 -4.90759L169.252 -4.90094L169.219 -4.88764L169.153 -4.86103C169.088 -4.83167 169.023 -4.80277 168.958 -4.77388C168.633 -4.62938 168.308 -4.48489 168.006 -4.28315C167.254 -3.86492 166.563 -3.29831 165.921 -2.65591C165.828 -2.54228 165.731 -2.43584 165.631 -2.32518C165.58 -2.26824 165.527 -2.21018 165.474 -2.14945C165.402 -2.08839 165.339 -2.00419 165.284 -1.92984C165.274 -1.91544 165.263 -1.9014 165.253 -1.88798L165.056 -1.61667L164.859 -1.34536C164.78 -1.25599 164.724 -1.15678 164.668 -1.05757L164.668 -1.05757C164.612 -0.958356 164.552 -0.857484 164.492 -0.756611C164.432 -0.655737 164.372 -0.554863 164.316 -0.455653C163.883 0.371004 163.566 1.24684 163.364 2.17184C163.185 3.10669 163.132 4.06757 163.224 5.0082L163.335 5.71108L163.368 5.88926L163.418 6.06078L163.502 6.41049L163.585 6.76019C163.615 6.88225 163.655 6.98118 163.702 7.09659L163.945 7.74625L164.26 8.38579C164.325 8.54654 164.418 8.69607 164.511 8.84559C164.541 8.89543 164.572 8.94527 164.602 8.99553L164.785 9.30532L164.884 9.45689L165 9.60181L165.434 10.1552C165.587 10.3429 165.749 10.5075 165.911 10.6721C165.984 10.7577 166.057 10.8433 166.146 10.9223L166.415 11.1592L166.683 11.3961L166.809 11.5178L166.944 11.6165L167.51 12.0209C168.291 12.5303 169.104 12.9306 169.973 13.2317C170.082 13.2644 170.19 13.293 170.297 13.3216C170.404 13.3501 170.512 13.3787 170.621 13.4114C170.723 13.4276 170.832 13.4603 170.941 13.493L171.272 13.5514L171.602 13.6098C171.711 13.6425 171.813 13.6587 171.932 13.6683C172.043 13.6812 172.152 13.6899 172.261 13.6987C172.37 13.7074 172.479 13.7162 172.589 13.729C173.487 13.7693 174.352 13.7271 175.207 13.5165C175.533 13.4711 175.827 13.3741 176.119 13.2778C176.217 13.2454 176.315 13.213 176.414 13.1828L176.48 13.1562L176.513 13.1429L176.53 13.1362L176.563 13.1229L176.711 13.063C176.803 13.0066 176.902 12.9667 177.001 12.9268C177.077 12.8884 177.156 12.8553 177.233 12.8225C177.349 12.7732 177.464 12.7248 177.565 12.661C179.015 11.8841 180.18 10.7813 180.963 9.58382C181.125 9.35299 181.259 9.11006 181.39 8.87247C181.426 8.807 181.462 8.74192 181.498 8.67762C181.528 8.61393 181.558 8.55094 181.588 8.48833C181.703 8.24875 181.815 8.01482 181.898 7.76853L182.055 7.30256C182.114 7.16372 182.167 7.0084 182.202 6.85972C182.226 6.73691 182.256 6.61466 182.287 6.49301C182.328 6.32671 182.369 6.16152 182.391 5.99748C182.603 4.85785 182.54 3.8478 182.445 3.04253C182.422 2.84121 182.398 2.63989 182.364 2.46171C182.348 2.3751 182.325 2.29552 182.304 2.21803C182.28 2.13612 182.258 2.05655 182.244 1.97346C182.228 1.85621 182.196 1.73256 182.169 1.62502C182.162 1.59938 182.156 1.57466 182.15 1.55116C182.12 1.42909 182.074 1.31368 182.034 1.21476ZM181.475 0.021397C181.651 0.410441 181.754 0.618125 181.754 0.618125C181.754 0.618125 181.824 0.839112 181.994 1.21167C182.006 1.26634 182.024 1.32364 182.043 1.38314C182.061 1.43855 182.079 1.49586 182.094 1.55472C182.106 1.60417 182.117 1.65743 182.128 1.71359C182.144 1.79606 182.162 1.8848 182.188 1.97703C182.231 2.13206 182.274 2.2871 182.292 2.47193C182.309 2.65676 182.326 2.84159 182.349 3.04291C182.353 3.09903 182.359 3.14936 182.365 3.19969C182.371 3.25002 182.377 3.30034 182.38 3.35645C182.38 3.39081 182.379 3.42815 182.378 3.46709C182.376 3.53666 182.373 3.61135 182.378 3.6833C182.381 3.73942 182.38 3.79719 182.38 3.85497C182.379 3.91275 182.379 3.97053 182.382 4.02664C182.389 4.13887 182.379 4.25775 182.37 4.37663C182.355 4.50707 182.343 4.63172 182.331 4.75637C182.319 4.88105 182.307 5.00573 182.293 5.13619C182.272 5.23469 182.253 5.33572 182.233 5.43869C182.203 5.59821 182.171 5.76238 182.133 5.92902C181.879 7.00935 181.371 8.17298 180.565 9.26486C179.76 10.3567 178.673 11.3702 177.329 12.1237C177.217 12.1944 177.099 12.2506 176.981 12.3067C176.922 12.3347 176.863 12.3628 176.804 12.3927C176.755 12.4126 176.711 12.435 176.668 12.4575C176.624 12.4799 176.58 12.5023 176.531 12.5222L176.406 12.5919L176.389 12.5986L176.356 12.6119L176.29 12.6385C176.18 12.6776 176.069 12.7199 175.958 12.7622C175.682 12.868 175.404 12.9742 175.126 13.0316C175.029 13.0517 174.929 13.0775 174.829 13.1034C174.729 13.1293 174.629 13.1552 174.532 13.1753C174.431 13.1872 174.328 13.2048 174.225 13.2224C174.122 13.2401 174.019 13.2577 173.918 13.2696C173.707 13.3164 173.499 13.3236 173.291 13.3309L173.291 13.3309L172.971 13.345C172.865 13.3685 172.753 13.3754 172.651 13.3592L172.007 13.3314C171.895 13.3383 171.792 13.3221 171.69 13.3059L171.366 13.264L171.043 13.222C170.991 13.2139 170.939 13.2017 170.886 13.1895C170.833 13.1773 170.78 13.165 170.729 13.1569C170.62 13.1243 170.514 13.0998 170.408 13.0754C170.303 13.0509 170.197 13.0265 170.088 12.9938C169.945 12.9332 169.798 12.8835 169.655 12.8351C169.589 12.8127 169.524 12.7906 169.46 12.7679L169.305 12.7155C169.281 12.7057 169.257 12.6917 169.232 12.6778C169.207 12.6638 169.182 12.6498 169.159 12.64L168.852 12.4957C168.8 12.4705 168.749 12.4462 168.698 12.4223C168.538 12.3465 168.385 12.2738 168.246 12.1838L168.246 12.1838C168.048 12.0722 167.85 11.9605 167.668 11.8422C166.927 11.336 166.251 10.7075 165.678 9.99935C165.138 9.27795 164.693 8.46052 164.36 7.63616C164.057 6.74237 163.863 5.88127 163.808 4.98344C163.769 4.07896 163.832 3.19069 164.021 2.32844C164.233 1.47604 164.538 0.662972 164.958 -0.100918C165.06 -0.276199 165.178 -0.458132 165.296 -0.640065C165.328 -0.681426 165.357 -0.72691 165.387 -0.772393C165.416 -0.817876 165.446 -0.863359 165.477 -0.904721L165.681 -1.15954L165.868 -1.40771C165.931 -1.49043 165.993 -1.57316 166.079 -1.64604C166.153 -1.72385 166.223 -1.79999 166.293 -1.87613C166.363 -1.95227 166.433 -2.02842 166.507 -2.10622C167.119 -2.6792 167.745 -3.21921 168.453 -3.60099C168.663 -3.73342 168.892 -3.83636 169.12 -3.9386C169.257 -4.00026 169.393 -4.06166 169.525 -4.12912L169.64 -4.17569L169.789 -4.23556C169.894 -4.25898 169.977 -4.29224 170.076 -4.33216C170.181 -4.35558 170.264 -4.38884 170.363 -4.42876C170.445 -4.46202 170.544 -4.50193 170.633 -4.5187C170.719 -4.54372 170.81 -4.56628 170.902 -4.58884C170.993 -4.6114 171.085 -4.63396 171.171 -4.65897C171.253 -4.69223 171.342 -4.70901 171.431 -4.72578C171.476 -4.73417 171.522 -4.73843 171.568 -4.7427C171.615 -4.74696 171.661 -4.75123 171.705 -4.75961C171.794 -4.77639 171.885 -4.78904 171.976 -4.80169C172.067 -4.81434 172.157 -4.82699 172.246 -4.84377C172.339 -4.8523 172.429 -4.85504 172.519 -4.85779C172.609 -4.86053 172.699 -4.86328 172.791 -4.87181C173.497 -4.92674 174.201 -4.84631 174.871 -4.75257C176.186 -4.5353 177.366 -4.0337 178.309 -3.45547C178.473 -3.33401 178.647 -3.21634 178.814 -3.10381C178.868 -3.06706 178.922 -3.03086 178.974 -2.99525C179.169 -2.84397 179.371 -2.6762 179.55 -2.51826C179.639 -2.4393 179.728 -2.36033 179.801 -2.27471C179.838 -2.2319 179.878 -2.19075 179.919 -2.1496C179.959 -2.10846 180 -2.06731 180.036 -2.0245C180.126 -1.94553 180.192 -1.8764 180.265 -1.79078C180.297 -1.75289 180.326 -1.7137 180.354 -1.67578C180.39 -1.62802 180.423 -1.5823 180.46 -1.54376C180.583 -1.38235 180.699 -1.23744 180.815 -1.09252C180.86 -1.02341 180.901 -0.956341 180.94 -0.891018C180.988 -0.813079 181.033 -0.737622 181.084 -0.664133C181.129 -0.579814 181.178 -0.503684 181.223 -0.432944C181.254 -0.384775 181.284 -0.339104 181.309 -0.295046C181.357 -0.234149 181.387 -0.166153 181.415 -0.101612C181.434 -0.0579359 181.453 -0.0158428 181.475 0.021397Z" fill="#161616"/>
<path d="M70.1123 81.0911C69.924 81.0521 69.8572 80.7915 69.8699 80.633C69.8922 80.3556 70.2283 80.1433 70.4592 80.0501C70.9141 79.8474 71.4623 79.8755 71.9375 79.8179C72.6042 79.7598 73.2707 79.6059 73.8009 79.162C74.736 78.3437 74.6892 77.0398 74.6858 75.8909C74.6838 75.2207 74.7824 73.9923 75.5542 73.7192C76.194 73.4994 76.8957 74.0982 77.5948 73.8353C78.8019 73.4058 79.0877 71.8335 79.1207 70.7274C79.1352 70.0505 78.0881 69.8787 78.0638 70.5787C78.0369 71.5098 77.8864 73.085 76.6276 72.7685C75.947 72.6022 75.3358 72.4653 74.7232 72.9426C73.4155 73.9303 73.7243 75.6462 73.6031 77.0562C73.4911 78.2517 72.8287 78.6531 71.6703 78.7755C70.8584 78.8538 69.9837 78.9192 69.3383 79.5054C68.4758 80.3136 68.7051 81.9273 69.9636 82.148C70.6407 82.2583 70.7961 81.2178 70.1123 81.0911Z" fill="#161616"/>
<path d="M77.6204 77.9852C77.2754 77.415 77.527 76.5658 78.1038 76.2372C78.6146 75.9353 79.2131 76.2306 79.7641 76.1233C80.7704 75.909 81.1832 74.8414 81.2399 73.9367C81.2778 73.3654 81.1702 72.7186 81.4361 72.1896C81.6658 71.7135 82.1667 71.4347 82.5951 71.166C83.3926 70.6717 84.1704 70.2237 84.501 69.2851C84.7203 68.6407 83.7485 68.2276 83.5292 68.872C83.1462 69.9659 81.767 70.254 80.9869 71.0289C80.006 72.0189 80.4352 73.1302 80.0988 74.3396C79.8081 75.3771 78.8822 74.8879 78.1235 75.0982C77.6749 75.2217 77.2696 75.5002 76.9703 75.8511C76.3058 76.6751 76.2364 77.7384 76.7871 78.6281C77.1388 79.2147 77.9886 78.5651 77.6204 77.9852Z" fill="#161616"/>
<path d="M99.3811 125.742C98.3855 125.127 98.4764 123.499 99.7867 123.373C101.057 123.244 101.607 124.844 100.635 125.619C100.098 126.047 100.748 126.896 101.285 126.469C102.991 125.091 102.098 122.211 99.8165 122.307C97.5685 122.39 96.8149 125.416 98.7233 126.582C99.2923 126.947 99.9665 126.1 99.3811 125.742Z" fill="#161616"/>
<path d="M186.738 65.0935C186.536 64.83 186.717 64.661 187.271 64.6099C187.535 64.5992 187.783 64.5951 188.037 64.6076C188.308 64.6134 188.572 64.6027 188.839 64.5524C189.334 64.4485 189.756 64.1634 190.015 63.7136C190.564 62.7446 190.016 61.7195 190.191 60.7285C190.373 59.6583 190.998 60.1154 191.594 60.4503C191.921 60.6441 192.261 60.7752 192.657 60.7113C193.07 60.6407 193.396 60.3558 193.593 59.9888C193.724 59.7441 193.803 59.4632 193.848 59.1957C193.851 59.156 194.151 57.8081 194.28 58.0818C194.566 58.695 195.562 58.3123 195.27 57.6826C195.014 57.0958 194.402 56.8632 193.802 57.0862C193.103 57.3491 192.943 58.0462 192.843 58.7001C192.739 59.298 192.576 59.8432 191.924 59.416C191.666 59.2517 191.441 59.0741 191.137 58.9859C190.459 58.7799 189.83 59.0723 189.472 59.6577C189.061 60.3027 189.086 61.0785 189.164 61.7947C189.218 62.2138 189.319 62.7483 189.135 63.1484C188.84 63.7468 187.994 63.5512 187.459 63.5561C186.717 63.5683 185.882 63.8283 185.673 64.6411C185.52 65.2589 185.76 65.8524 186.338 66.0983C186.956 66.3474 187.363 65.359 186.738 65.0935Z" fill="#161616"/>
<path d="M195.123 62.8799C194.656 62.2441 195.582 61.7362 196.061 61.639C196.466 61.552 196.873 61.5607 197.292 61.5066C197.952 61.432 198.651 61.2648 199.158 60.811C199.553 60.4599 199.75 59.9971 199.831 59.4851C199.928 58.8708 199.748 58.1384 200.126 57.6024C200.514 57.0433 199.673 56.3856 199.285 56.9447C198.835 57.5865 198.853 58.25 198.809 58.9963C198.705 60.3997 197.533 60.3933 196.414 60.5188C195.569 60.6105 194.728 60.854 194.245 61.6049C193.844 62.2267 193.849 62.953 194.297 63.5393C194.685 64.073 195.534 63.4234 195.123 62.8799Z" fill="#161616"/>
</g>
</svg>
