<svg width="140" height="129" viewBox="0 0 140 129" fill="none" xmlns="http://www.w3.org/2000/svg">
<path d="M84.2355 10.4549C81.3166 12.1558 80.4827 15.0884 80.1372 16.2967C80.0538 16.59 79.0768 20.1912 80.7686 23.945C81.269 25.0594 81.8051 26.209 83.0203 26.7604C83.7232 27.0888 84.3546 27.0654 86.8327 26.8542C87.9883 26.7604 89.2392 26.6431 90.5736 26.5023C91.5147 25.3175 93.135 22.9479 93.6115 19.6164C93.6949 18.9947 94.6719 11.581 90.5736 9.61027C87.893 8.30818 84.6644 10.1968 84.2355 10.4549Z" fill="#EC615B"/>
<ellipse cx="30.3375" cy="25.0125" rx="2.69249" ry="2.93264" fill="#EC615B"/>
<ellipse cx="91.3953" cy="73.0374" rx="2.0015" ry="1.90035" fill="#EC615B"/>
<ellipse cx="30.3615" cy="61.999" rx="1.48921" ry="1.46632" fill="#EC615B"/>
<ellipse cx="27.5857" cy="24.5198" rx="2.37082" ry="2.45169" fill="#5222D0"/>
<ellipse cx="90.8472" cy="70.4333" rx="1.46538" ry="1.50151" fill="#5222D0"/>
<ellipse cx="110.434" cy="28.8367" rx="1.60835" ry="1.6892" fill="#5222D0"/>
<path d="M75.5025 40.9661C75.2404 40.5555 74.8115 40.9426 74.6328 41.2241C74.2635 41.8107 74.0252 42.538 74.2993 43.2066C74.5018 43.711 75.0022 44.1333 75.5859 44.0512C76.122 43.9808 76.5271 43.5468 76.5152 43.0189C76.5152 42.8782 76.3127 42.7726 76.2054 42.8899C75.574 43.6758 74.7996 44.7902 75.4311 45.7991C75.8719 46.4912 76.956 46.585 77.3849 45.8343C77.2777 45.8225 77.1705 45.8108 77.0632 45.7873C77.1228 46.1158 77.1824 46.4442 77.23 46.7727C77.2658 46.9956 77.6113 46.9017 77.5755 46.6789C77.516 46.3504 77.4564 46.0219 77.4087 45.6935C77.3849 45.541 77.1466 45.5293 77.0871 45.6466C76.8964 45.975 76.4675 46.0923 76.122 45.9281C75.7408 45.7404 75.574 45.3181 75.574 44.9075C75.574 44.2272 76.0625 43.6289 76.4675 43.1245C76.3603 43.0776 76.265 43.0424 76.1578 42.9955C76.1697 43.4412 75.7289 43.7697 75.2881 43.6758C74.9545 43.6054 74.7401 43.3239 74.6209 43.0189C74.5018 42.7022 74.5137 42.3855 74.609 42.0687C74.6209 42.0453 75.1094 41.0013 75.1809 41.1186C75.3119 41.3297 75.6217 41.1538 75.5025 40.9661V40.9661Z" fill="#EC615B"/>
<path d="M26.8588 42.0218C27.1209 41.318 27.9906 41.623 28.2646 42.1157C28.3599 42.2799 28.4076 42.4676 28.4314 42.6553C28.479 43.0072 28.4433 43.148 28.1335 43.3591C27.8 43.6876 27.7166 43.5585 27.8953 42.972C27.9787 42.9368 28.074 42.9016 28.1574 42.8664C28.3837 42.8078 28.6458 42.8195 28.8722 42.8899C29.4441 43.0776 29.73 43.6758 29.6466 44.2272C29.6228 44.3679 29.7657 44.5087 29.9087 44.4266C30.6831 43.9926 31.7077 44.4735 31.8864 45.3298C31.934 45.5527 32.2795 45.4589 32.2319 45.236C32.0055 44.1568 30.7069 43.5937 29.73 44.1333C29.8134 44.2037 29.9087 44.2624 29.9921 44.3327C30.147 43.3004 29.3487 42.3385 28.2408 42.5028C27.8595 42.5614 27.2877 42.796 27.24 43.2418C27.2043 43.6054 27.5498 43.8752 27.8953 43.9104C28.9198 44.0043 28.896 42.538 28.5624 41.9514C28.1097 41.1538 26.8588 40.9543 26.5014 41.9397C26.4299 42.1391 26.7754 42.233 26.8588 42.0218V42.0218Z" fill="#EC615B"/>
<path d="M89.5843 86.1757C90.5017 86.7739 91.2761 87.5364 91.8956 88.4279C92.0266 88.6156 92.3364 88.4397 92.2054 88.252C91.5501 87.3135 90.74 86.5159 89.775 85.8824C89.5724 85.7416 89.3937 86.0466 89.5843 86.1757V86.1757Z" fill="#5222D0"/>
<path d="M91.9074 86.8209C92.0981 87.0437 92.2768 87.2783 92.4674 87.5012C92.6103 87.6772 92.8605 87.4308 92.7176 87.2549C92.5269 87.032 92.3482 86.7974 92.1576 86.5745C92.0147 86.3986 91.7645 86.6566 91.9074 86.8209V86.8209Z" fill="#5222D0"/>
<path d="M90.8116 83.5363C91.6336 84.2871 92.3127 85.1434 92.8369 86.117C92.9441 86.3164 93.2539 86.1405 93.1467 85.9411C92.6106 84.944 91.9077 84.0524 91.0618 83.29C90.895 83.1257 90.6448 83.3838 90.8116 83.5363V83.5363Z" fill="#5222D0"/>
<path d="M8.44035 96.7449C8.70245 99.2905 9.15517 101.801 9.7866 104.288C9.84616 104.511 10.1917 104.417 10.1321 104.194C9.51258 101.742 9.05986 99.2553 8.79776 96.7449C8.77393 96.522 8.41652 96.522 8.44035 96.7449V96.7449Z" fill="#E8E8E8"/>
<path d="M9.85818 104.405C12.2052 105.003 14.6475 105.003 16.9945 104.405C17.2208 104.346 17.1255 104.006 16.8992 104.065C14.6117 104.651 12.2409 104.651 9.95349 104.065C9.73905 104.006 9.64374 104.346 9.85818 104.405V104.405Z" fill="#E8E8E8"/>
<path d="M17.2683 104.053C17.4232 101.554 17.6258 99.0558 17.864 96.5572C17.8879 96.3344 17.5304 96.3344 17.5066 96.5572C17.2683 99.0558 17.0658 101.554 16.9109 104.053C16.899 104.276 17.2564 104.276 17.2683 104.053V104.053Z" fill="#E8E8E8"/>
<path d="M8.6431 96.9326C11.6096 97.5309 14.6595 97.5074 17.626 96.8505C17.8524 96.8036 17.7571 96.4634 17.5307 96.5103C14.6357 97.1438 11.6454 97.179 8.73841 96.5924C8.51205 96.5455 8.41674 96.8857 8.6431 96.9326V96.9326Z" fill="#E8E8E8"/>
<path d="M8.60692 97.7772C8.70223 98.2582 9.32174 98.2347 9.70298 98.2699C10.668 98.352 11.6449 98.3755 12.6099 98.352C13.5392 98.3286 14.4685 98.2582 15.3977 98.1526C16.1364 98.0588 16.8512 97.9649 17.5065 97.6013C17.709 97.4957 17.5303 97.1907 17.3277 97.2963C16.1483 97.9414 14.5161 97.918 13.1937 97.9766C12.5384 98.0001 11.8713 98.0118 11.216 98.0001C10.8705 97.9884 9.0239 98.0705 8.95242 97.6834C8.90476 97.4605 8.57118 97.5543 8.60692 97.7772V97.7772Z" fill="#E8E8E8"/>
<path d="M9.28615 101.848C9.858 102.845 10.5847 103.725 11.4544 104.487C11.6212 104.64 11.8833 104.393 11.7046 104.241C10.8468 103.502 10.1439 102.645 9.5959 101.672C9.48868 101.472 9.17892 101.648 9.28615 101.848V101.848Z" fill="#E8E8E8"/>
<path d="M8.82172 99.138C10.0369 101.156 11.5142 103.009 13.206 104.675C13.3727 104.839 13.6229 104.581 13.4561 104.428C11.7882 102.786 10.3348 100.956 9.13147 98.962C9.01234 98.7743 8.70258 98.9503 8.82172 99.138V99.138Z" fill="#E8E8E8"/>
<path d="M10.811 98.2934C12.0739 100.51 13.5393 102.61 15.1953 104.569C15.3383 104.745 15.5884 104.499 15.4455 104.323C13.8133 102.387 12.3598 100.311 11.1208 98.1174C11.0136 97.918 10.7038 98.0939 10.811 98.2934V98.2934Z" fill="#E8E8E8"/>
<path d="M13.0866 98.3755C14.3137 100.182 15.5527 101.977 16.8037 103.772C16.9347 103.959 17.2445 103.783 17.1134 103.596C15.8625 101.801 14.6235 100.006 13.3964 98.1995C13.2653 98.0118 12.9555 98.1878 13.0866 98.3755V98.3755Z" fill="#E8E8E8"/>
<path d="M14.9929 98.2699C15.6124 99.2553 16.2795 100.217 16.9705 101.156C17.1016 101.332 17.4113 101.156 17.2803 100.98C16.5893 100.041 15.9221 99.0793 15.3026 98.0939C15.1835 97.9062 14.8737 98.0822 14.9929 98.2699V98.2699Z" fill="#E8E8E8"/>
<path d="M4.68786 86.422C4.83082 87.2314 4.97378 88.0526 5.12866 88.862C5.17632 89.0849 5.21206 89.3195 5.40268 89.4602C5.53373 89.5658 5.96262 89.5541 6.04602 89.6714C6.05793 89.601 6.06984 89.5306 6.06984 89.4602C5.89114 89.6362 5.71243 89.8122 5.52181 89.9764C5.47416 90.0233 5.46225 90.0937 5.47416 90.1523C5.58138 90.4691 5.65286 90.9383 5.86731 91.2081C5.97453 91.3489 6.16515 91.3254 6.24855 91.4075C6.32003 91.4779 6.2962 91.431 6.26046 91.6421C6.23664 91.8181 6.23664 92.0058 6.26046 92.1935C6.2962 92.475 6.3796 92.7448 6.48682 93.0029C7.10634 94.4809 8.30962 95.6774 9.46525 96.7801C9.63204 96.9326 9.88223 96.6863 9.71543 96.5338C8.97679 95.8299 8.23814 95.1026 7.63054 94.2815C7.03485 93.4721 6.33195 92.3812 6.70127 91.3489C6.7251 91.2902 6.70127 91.2081 6.65362 91.1729C6.42725 90.9969 6.20089 91.0673 6.04602 90.7858C5.74817 90.2579 5.91497 90.082 6.2962 89.7183C6.35577 89.6714 6.36769 89.5658 6.32003 89.5072C6.22472 89.3664 6.15324 89.3195 5.99836 89.2726C5.90305 89.2374 5.76009 89.2726 5.66478 89.2256C5.46225 89.1201 5.46225 88.862 5.4265 88.6743C5.28354 87.9001 5.14058 87.1141 5.00953 86.3399C4.9857 86.1053 4.6402 86.1991 4.68786 86.422V86.422Z" fill="#E8E8E8"/>
<path d="M4.94974 86.3751C9.59608 87.9001 12.777 92.17 12.8723 97.003C12.8723 97.2259 13.2298 97.2259 13.2298 97.003C13.1344 92.0175 9.84626 87.6185 5.04505 86.0349C4.8306 85.9645 4.73529 86.3047 4.94974 86.3751V86.3751Z" fill="#E8E8E8"/>
<path d="M12.0859 92.1935C13.2415 89.0379 14.9452 85.988 17.6734 83.9117C17.8521 83.7709 17.6734 83.4659 17.4947 83.6067C14.6831 85.7534 12.9318 88.8503 11.7404 92.0996C11.6689 92.3108 12.0144 92.4046 12.0859 92.1935V92.1935Z" fill="#E8E8E8"/>
<path d="M17.3638 83.8413C17.4472 84.9205 17.5425 85.9997 17.6259 87.0907C17.6497 87.3135 18.0072 87.3135 17.9833 87.0907C17.8999 86.0114 17.8046 84.9322 17.7212 83.8413C17.7093 83.6184 17.3519 83.6184 17.3638 83.8413V83.8413Z" fill="#E8E8E8"/>
<path d="M17.7809 86.9734C17.626 87.0086 17.4711 87.0437 17.3282 87.0907C17.1018 87.1493 17.1971 87.4895 17.4235 87.4309C17.5783 87.3957 17.7332 87.3605 17.8762 87.3135C18.1026 87.2549 18.0072 86.9264 17.7809 86.9734V86.9734Z" fill="#E8E8E8"/>
<path d="M17.1494 87.4074C17.197 87.6303 17.3877 87.771 17.6021 87.7945C17.6974 87.8062 17.7808 87.7124 17.7808 87.6185C17.7808 87.513 17.6974 87.4543 17.6021 87.4426C17.6378 87.4426 17.6021 87.4426 17.5902 87.4426C17.5783 87.4426 17.5544 87.4309 17.5783 87.4426C17.5664 87.4309 17.5544 87.4309 17.5425 87.4191C17.5187 87.4074 17.5664 87.4426 17.5306 87.4074C17.5187 87.3957 17.5187 87.3957 17.5068 87.3839C17.5306 87.4074 17.5068 87.3839 17.5068 87.3722C17.4949 87.3605 17.4949 87.337 17.4949 87.3605C17.4949 87.3487 17.483 87.3253 17.483 87.3135C17.4591 87.2197 17.3519 87.1611 17.2685 87.1962C17.1732 87.2197 17.1256 87.3135 17.1494 87.4074V87.4074Z" fill="#E8E8E8"/>
<path d="M17.4232 87.6655C17.4351 88.3341 17.4113 88.991 17.3398 89.6479C17.316 89.8591 17.3517 90.3518 17.2088 90.516C17.1969 90.5277 16.9824 90.5629 16.9348 90.5981C16.7561 90.7389 17.0063 90.9852 17.185 90.8445C17.2445 90.7975 17.3875 90.8445 17.4828 90.7389C17.6258 90.5981 17.6019 90.2697 17.6258 90.1054C17.733 89.296 17.7806 88.4749 17.7687 87.6537C17.7806 87.4426 17.4232 87.4426 17.4232 87.6655V87.6655Z" fill="#E8E8E8"/>
<path d="M16.7919 90.9031C17.1731 91.3489 17.0659 92.0879 17.0302 92.6275C16.9825 93.2492 16.8753 93.824 16.5655 94.3636C16.1247 95.1613 15.5052 95.8299 15.1835 96.698C15.1001 96.9092 15.4456 97.003 15.529 96.7919C15.9579 95.654 16.9468 94.8094 17.2446 93.6129C17.4591 92.7565 17.6616 91.3841 17.0421 90.6568C16.8991 90.4925 16.6489 90.7389 16.7919 90.9031V90.9031Z" fill="#E8E8E8"/>
<path d="M13.9804 96.8622C14.314 93.5308 15.2075 90.2814 16.6371 87.2549C16.7324 87.0555 16.4227 86.8678 16.3274 87.0789C14.8739 90.1758 13.9565 93.4721 13.623 96.874C13.5991 97.0968 13.9565 97.0851 13.9804 96.8622V96.8622Z" fill="#E8E8E8"/>
<path d="M6.95113 88.3341C9.03603 90.9148 10.561 93.8827 11.4545 97.0499C11.5141 97.2728 11.8596 97.179 11.8 96.9561C10.8827 93.7184 9.32196 90.7154 7.20132 88.0878C7.05836 87.9118 6.80817 88.1582 6.95113 88.3341V88.3341Z" fill="#E8E8E8"/>
<path d="M7.17748 92.6627C8.17823 92.604 9.1075 92.8387 9.95337 93.3548C10.144 93.4721 10.3346 93.1671 10.1321 93.0498C9.23855 92.5102 8.22589 92.2521 7.17748 92.3108C6.93921 92.3225 6.93921 92.6744 7.17748 92.6627V92.6627Z" fill="#E8E8E8"/>
<path d="M9.3577 91.0908C9.28622 90.4456 9.36961 89.8239 9.6198 89.2139C9.7032 89.0028 9.3577 88.9089 9.2743 89.1201C9.0122 89.7535 8.92881 90.4104 9.00029 91.0908C9.02412 91.3137 9.38153 91.3137 9.3577 91.0908V91.0908Z" fill="#E8E8E8"/>
<path d="M13.2177 89.1435C13.6109 90.0937 14.1827 91.1025 14.3257 92.1114C14.3614 92.3342 14.7069 92.2404 14.6712 92.0175C14.5163 90.997 13.9445 89.9881 13.5632 89.0497C13.4798 88.8385 13.1343 88.9324 13.2177 89.1435V89.1435Z" fill="#E8E8E8"/>
<path d="M15.41 90.2579C15.7555 89.8708 16.0891 89.4133 16.5299 89.1201C16.8992 88.8737 17.3043 88.7095 17.5902 88.3693C17.7332 88.1933 17.483 87.947 17.34 88.123C17.0303 88.4866 16.5775 88.6391 16.2082 88.9206C15.8032 89.2256 15.4934 89.6362 15.1598 90.0116C15.0049 90.1875 15.2551 90.4339 15.41 90.2579V90.2579Z" fill="#E8E8E8"/>
<path d="M15.5292 96.7449C16.101 96.5924 16.6848 96.5338 17.2805 96.569C17.5068 96.5807 17.5068 96.2288 17.2805 96.217C16.6491 96.1819 16.0415 96.2405 15.4339 96.4047C15.2194 96.4634 15.3028 96.8036 15.5292 96.7449V96.7449Z" fill="#E8E8E8"/>
<path d="M15.4813 96.8857C16.1485 96.9443 16.7918 96.8622 17.4351 96.6628C17.6496 96.5924 17.5543 96.2522 17.3398 96.3226C16.7322 96.5103 16.1127 96.5807 15.4813 96.5338C15.2549 96.522 15.2549 96.874 15.4813 96.8857V96.8857Z" fill="#E8E8E8"/>
<path d="M8.7977 96.827C8.95258 96.827 9.09554 96.827 9.25042 96.827C9.47678 96.827 9.47678 96.4751 9.25042 96.4751C9.09554 96.4751 8.95258 96.4751 8.7977 96.4751C8.57134 96.4751 8.57134 96.827 8.7977 96.827V96.827Z" fill="#E8E8E8"/>
<path d="M17.5304 99.6658C21.307 99.6658 25.0956 99.6658 28.8722 99.6658C29.0986 99.6658 29.0986 99.3139 28.8722 99.3139C25.0956 99.3139 21.307 99.3139 17.5304 99.3139C17.304 99.3139 17.304 99.6658 17.5304 99.6658V99.6658Z" fill="#E8E8E8"/>
<path d="M81.4593 97.3432C83.711 97.3432 85.9508 97.3432 88.2025 97.3432C88.4288 97.3432 88.4288 96.9913 88.2025 96.9913C85.9508 96.9913 83.711 96.9913 81.4593 96.9913C81.233 96.9913 81.233 97.3432 81.4593 97.3432V97.3432Z" fill="#E8E8E8"/>
<path d="M101.903 97.5543C111.613 97.5543 121.322 97.5543 131.032 97.5543C133.796 97.5543 136.56 97.5543 139.324 97.5543C139.55 97.5543 139.55 97.2024 139.324 97.2024C129.614 97.2024 119.905 97.2024 110.195 97.2024C107.431 97.2024 104.667 97.2024 101.903 97.2024C101.677 97.2024 101.677 97.5543 101.903 97.5543V97.5543Z" fill="#E8E8E8"/>
<path d="M87.5235 59.0429C86.6181 60.8846 85.6411 62.6911 84.6047 64.4624C84.557 64.5563 84.5927 64.7087 84.7119 64.7205C89.8228 65.483 94.3977 67.9816 98.8058 70.5037C99.0083 70.621 99.187 70.316 98.9845 70.1987C94.5407 67.6649 89.942 65.1545 84.7953 64.3803C84.831 64.4624 84.8668 64.5563 84.9025 64.6384C85.9509 62.8671 86.9159 61.0605 87.8213 59.2188C87.9286 59.0194 87.6307 58.8317 87.5235 59.0429V59.0429Z" fill="#E8E8E8"/>
<path d="M88.3098 65.436C88.6672 64.4272 89.0246 63.4067 89.382 62.3978C89.5369 61.9755 89.6441 61.5063 89.8466 61.0957C89.8943 60.8494 90.0492 60.6617 90.2874 60.5209C90.4304 60.5561 90.5734 60.5913 90.7163 60.6265C90.9308 60.6852 91.1452 60.7321 91.3478 60.7907C91.8362 60.908 92.6225 60.908 92.5391 61.5532C92.4796 62.0107 92.2055 62.5034 92.0507 62.9492C91.6933 63.9463 91.3478 64.9434 90.9903 65.9405C90.9189 66.1516 91.2644 66.2455 91.3358 66.0343C91.8005 64.7205 92.2651 63.3949 92.7297 62.0811C92.837 61.7761 93.1348 61.26 92.8965 60.9315C92.6344 60.5796 91.8481 60.5561 91.4431 60.4506C91.0499 60.3567 90.3589 60.0048 89.9539 60.1925C89.6084 60.345 89.5369 60.9315 89.4297 61.2248C88.9412 62.5973 88.4527 63.9815 87.9643 65.3539C87.8928 65.5534 88.2383 65.6472 88.3098 65.436V65.436Z" fill="#E8E8E8"/>
<path d="M92.9085 66.6912C93.671 65.1076 94.4454 63.5122 95.2079 61.9286C95.5891 61.1309 95.9703 60.345 96.3635 59.5473C96.5422 59.1837 96.6852 58.7496 96.9115 58.4094C97.1021 58.1162 97.1498 58.0458 97.4834 58.1748C97.6621 58.2452 97.8765 58.4212 98.0314 58.5267C98.2339 58.6675 98.5556 58.82 98.6986 59.0077C98.8773 59.2306 98.8058 59.4652 98.6986 59.7467C98.5556 60.1221 98.3412 60.4857 98.1625 60.8494C97.7693 61.6471 97.3762 62.4448 96.9592 63.2424C96.1729 64.7557 95.3508 66.2572 94.505 67.747C94.3858 67.9464 94.6956 68.1223 94.8147 67.9229C95.8512 66.1164 96.84 64.2864 97.7693 62.433C98.2339 61.518 98.7462 60.5796 99.1394 59.6294C99.4134 58.9373 98.8177 58.6558 98.2935 58.2921C97.8765 58.0106 97.2213 57.3654 96.7686 57.8933C96.4826 58.2217 96.3278 58.7731 96.1371 59.1719C95.8989 59.6529 95.6725 60.1338 95.4342 60.6265C94.4811 62.5972 93.528 64.568 92.5869 66.5387C92.5035 66.7147 92.8132 66.9024 92.9085 66.6912V66.6912Z" fill="#E8E8E8"/>
<path d="M96.8637 69.1312C97.8883 67.5475 99.0439 66.046 100.319 64.6618C100.247 64.6736 100.176 64.6853 100.104 64.6853C100.557 64.9903 100.998 65.2835 101.451 65.5885C101.427 65.5064 101.403 65.4243 101.391 65.3422C100.378 66.9024 99.3656 68.4508 98.353 70.011C98.2338 70.1987 98.5317 70.3746 98.6627 70.1869C99.6754 68.6268 100.688 67.0783 101.701 65.5182C101.76 65.436 101.713 65.3305 101.641 65.2718C101.188 64.9668 100.748 64.6736 100.295 64.3686C100.235 64.3216 100.128 64.3451 100.08 64.392C98.7818 65.8114 97.6024 67.3247 96.5659 68.9318C96.4348 69.1546 96.7446 69.3306 96.8637 69.1312V69.1312Z" fill="#E8E8E8"/>
<path d="M111.077 57.9754C109.885 57.5296 109.135 56.3566 109.349 55.1014C109.563 53.8228 110.838 52.6849 112.149 53.4474C113.054 53.9753 113.519 55.1718 113.173 56.1454C112.816 57.1895 111.648 57.8112 110.564 57.6469C110.338 57.6118 110.243 57.9519 110.469 57.9871C111.744 58.1748 113.09 57.4827 113.519 56.2393C113.948 54.9958 113.257 53.4943 112.018 52.9899C110.564 52.4034 109.242 53.6351 108.992 55.0076C108.73 56.4622 109.599 57.7994 110.969 58.3156C111.196 58.3977 111.291 58.0575 111.077 57.9754V57.9754Z" fill="#E8E8E8"/>
<path d="M113.519 57.7525C111.148 57.6821 112.042 53.9401 114.139 54.0809C116.236 54.2333 115.378 58.4446 113.078 57.6704C112.864 57.6 112.769 57.9402 112.983 58.0106C115.64 58.9021 116.831 54.1395 114.294 53.7407C113.055 53.5412 111.935 54.6908 111.744 55.8287C111.554 56.9548 112.328 58.0575 113.519 58.0927C113.746 58.1162 113.746 57.7642 113.519 57.7525V57.7525Z" fill="#E8E8E8"/>
<path d="M111.744 47.1364C111.541 46.9252 111.446 46.585 111.601 46.3269C111.756 46.0806 112.137 45.9633 112.375 46.151C112.59 46.3152 112.637 46.6671 112.435 46.8431C112.197 47.0542 111.815 46.9487 111.589 46.7727C111.41 46.6319 111.16 46.8783 111.339 47.0191C111.708 47.3006 112.28 47.4414 112.673 47.1012C113.031 46.7844 112.995 46.1979 112.637 45.8929C112.268 45.5762 111.684 45.67 111.375 46.022C111.029 46.4208 111.124 47.0191 111.482 47.3827C111.649 47.5469 111.899 47.3006 111.744 47.1364V47.1364Z" fill="#E8E8E8"/>
<path d="M77.1703 55.9695C76.8367 53.9753 78.0162 51.5705 80.3036 51.594C81.4712 51.6057 82.603 52.0749 83.7824 51.9107C84.6164 51.7934 85.3312 51.3242 85.8316 50.679C86.3319 50.0338 86.6179 49.2244 86.6655 48.415C86.7251 47.2185 86.2605 45.9985 86.594 44.8137C86.7608 44.2155 87.1182 43.6641 87.7258 43.4412C88.3096 43.2418 88.941 43.3591 89.5486 43.3357C90.4303 43.3005 91.1212 42.9251 91.5621 42.1626C92.1816 41.0951 92.0386 39.8165 92.4675 38.6904C92.9798 37.3296 94.4213 36.1683 95.9463 36.8369C96.1488 36.9308 96.3394 36.6258 96.125 36.5319C94.052 35.6169 92.3245 37.4586 91.9195 39.3121C91.6574 40.5203 91.705 42.3972 90.2396 42.8782C89.2151 43.2184 88.0594 42.6905 87.1182 43.3826C86.3439 43.9456 86.1175 44.9779 86.1294 45.8812C86.1652 47.2067 86.5821 48.4971 85.9864 49.764C85.4384 50.9605 84.3543 51.6761 83.008 51.594C81.8167 51.5236 80.6372 51.0426 79.4339 51.3476C77.3967 51.8521 76.527 54.2216 76.8486 56.0751C76.8725 56.2745 77.218 56.1806 77.1703 55.9695V55.9695Z" fill="#E8E8E8"/>
<path d="M92.2296 47.6056C91.7888 46.6202 92.3963 45.6818 93.3614 45.365C94.0643 45.1304 94.8387 45.1187 95.4463 44.6495C95.9228 44.2858 96.0777 43.8283 96.0181 43.2418C95.9585 42.6905 95.9585 42.2564 96.3993 41.8811C96.7687 41.5643 97.2571 41.447 97.7337 41.4236C99.0442 41.3766 100.843 42.0336 101.796 40.7784C102.237 40.1919 102.106 39.4646 102.309 38.8076C102.583 37.8927 103.476 37.3296 104.429 37.3765C104.656 37.3882 104.656 37.0363 104.429 37.0246C103.702 36.9894 103 37.2592 102.499 37.7754C101.88 38.4205 101.963 39.1478 101.772 39.9572C101.26 42.1743 98.1268 40.6142 96.6495 41.3063C96.1015 41.5643 95.6607 42.0218 95.613 42.6318C95.5535 43.3474 95.8871 43.9339 95.1484 44.4266C94.7553 44.6847 94.3025 44.7668 93.8498 44.8724C93.0993 45.0483 92.3606 45.2712 91.9794 45.9868C91.6696 46.5498 91.6696 47.195 91.9317 47.7698C92.0151 47.9927 92.313 47.805 92.2296 47.6056V47.6056Z" fill="#E8E8E8"/>
<path d="M113.46 31.9805C113.412 31.8749 113.364 31.7576 113.329 31.6403C113.483 31.4643 113.626 31.2884 113.781 31.1124C113.829 31.1007 114.043 31.2414 114.115 31.2414C114.294 31.2649 114.448 31.218 114.591 31.1124C115.032 30.7722 114.877 30.2326 115.008 29.7751C115.223 28.9892 116.164 29.5288 116.593 28.9422C117.022 28.3674 116.867 27.1475 118.011 27.4759C118.237 27.5346 118.332 27.1944 118.106 27.1357C117.451 26.948 116.855 27.253 116.617 27.8748C116.545 28.0507 116.521 28.2501 116.45 28.4261C116.295 28.8367 116.128 28.8953 115.676 28.9188C115.342 28.9422 115.08 28.9188 114.854 29.2003C114.663 29.4467 114.663 29.7634 114.627 30.0566C114.591 30.4907 114.627 30.8543 113.972 30.8074C113.841 30.7957 113.734 30.6784 113.591 30.6784C112.804 30.6666 112.935 31.6168 113.126 32.0743C113.198 32.2855 113.555 32.1916 113.46 31.9805V31.9805Z" fill="#E8E8E8"/>
<path d="M115.699 32.9541C115.509 32.7078 115.187 31.9922 115.747 31.8045C115.949 31.7341 116.212 31.8162 116.426 31.8162C116.617 31.8162 116.783 31.8162 116.938 31.6872C117.415 31.3118 117.069 30.6432 117.32 30.174C117.725 29.4115 118.535 30.0097 119.107 29.6109C119.512 29.3293 119.619 28.7897 119.69 28.344C119.726 28.1211 119.381 28.0273 119.345 28.2501C119.261 28.778 119.166 29.3645 118.499 29.4232C118.154 29.4584 117.891 29.3411 117.57 29.4936C117.046 29.7399 116.879 30.1974 116.867 30.7253C116.855 31.171 116.962 31.3939 116.2 31.4291C116.104 31.4291 116.009 31.4057 115.914 31.4057C115.64 31.4291 115.401 31.5699 115.247 31.7928C114.913 32.262 115.104 32.8016 115.437 33.2122C115.592 33.3881 115.842 33.1301 115.699 32.9541V32.9541Z" fill="#E8E8E8"/>
<path d="M14.4094 39.3121C15.3982 38.139 16.804 37.1771 18.4243 37.3413C20.1875 37.5173 21.0572 38.9015 21.224 40.5203C21.5099 43.2066 20.8428 46.4208 22.6894 48.7082C23.4161 49.6115 24.5003 50.0925 25.6678 49.8109C27.0736 49.4825 28.1697 48.3915 29.4206 47.7463C30.8979 46.9839 32.9351 46.5733 34.2695 47.8519C35.2464 48.7904 35.4609 50.2215 35.7825 51.4649C36.0804 52.5911 36.5927 53.8345 37.6172 54.5031C38.2367 54.902 38.9158 54.9372 39.6306 54.8903C40.4289 54.8316 42.061 54.7847 41.8942 56.0164C41.8704 56.2393 42.2278 56.2393 42.2517 56.0164C42.3112 55.5354 42.0849 55.1483 41.6917 54.8668C41.0722 54.421 40.3574 54.4914 39.6306 54.5383C38.8086 54.597 38.1057 54.5266 37.4743 53.9518C36.9024 53.4357 36.5569 52.7084 36.3067 51.9928C35.8897 50.7611 35.7706 49.4121 35.0558 48.2859C34.3529 47.1715 33.1377 46.6319 31.8272 46.6789C30.1712 46.7375 28.7773 47.676 27.4548 48.544C26.8234 48.9546 26.1443 49.3886 25.37 49.5177C24.4407 49.6702 23.6186 49.2713 23.023 48.5909C21.9031 47.3006 21.7244 45.4589 21.6648 43.8401C21.6052 42.3268 21.8078 40.6845 21.2955 39.2182C20.8308 37.8809 19.6514 37.0481 18.2337 36.9777C16.5896 36.8956 15.148 37.8692 14.1353 39.0657C14.0043 39.2417 14.2545 39.488 14.4094 39.3121V39.3121Z" fill="#E8E8E8"/>
<path d="M8.39276 57.4123C10.2513 60.4623 11.9073 63.6178 13.3727 66.8672C13.468 67.0783 13.7778 66.8906 13.6824 66.6912C12.2171 63.4418 10.5491 60.2863 8.70252 57.2364C8.58338 57.037 8.27363 57.2129 8.39276 57.4123V57.4123Z" fill="#E8E8E8"/>
<path d="M8.61887 57.2716C11.5139 55.5003 14.4923 53.8462 17.5541 52.3447C17.7567 52.2392 17.578 51.9342 17.3754 52.0397C14.3255 53.5412 11.3471 55.1953 8.44017 56.9666C8.23763 57.0956 8.41634 57.4006 8.61887 57.2716V57.2716Z" fill="#E8E8E8"/>
<path d="M17.3401 52.1922C18.8531 55.3243 20.4495 58.4094 22.1413 61.4477C22.2485 61.6471 22.5583 61.4711 22.451 61.2717C20.7593 58.2335 19.151 55.1483 17.6498 52.0163C17.5426 51.8051 17.2448 51.9811 17.3401 52.1922V52.1922Z" fill="#E8E8E8"/>
<path d="M13.7778 66.9376C16.6251 65.2484 19.4368 63.5122 22.2246 61.7292C22.4152 61.6119 22.2365 61.3069 22.0459 61.4242C19.2581 63.2072 16.4464 64.9434 13.5991 66.6326C13.4085 66.7499 13.5872 67.0549 13.7778 66.9376V66.9376Z" fill="#E8E8E8"/>
<path d="M13.5514 56.2393C13.4799 58.4915 13.611 60.7321 13.9445 62.9609C13.9803 63.1838 14.3258 63.0899 14.29 62.867C13.9565 60.6734 13.8373 58.4564 13.9088 56.2393C13.9207 56.0164 13.5633 56.0164 13.5514 56.2393V56.2393Z" fill="#E8E8E8"/>
<path d="M13.5634 56.122C15.2194 57.4006 16.8754 58.6558 18.5553 59.8992C18.734 60.04 18.9127 59.735 18.734 59.5942C17.078 58.3742 15.4339 57.1308 13.8136 55.8756C13.6349 55.7349 13.3847 55.9812 13.5634 56.122V56.122Z" fill="#E8E8E8"/>
<path d="M14.314 63.0313C15.6841 61.823 17.4711 61.1779 18.7697 59.8758C18.9365 59.7115 18.6744 59.4652 18.5195 59.6294C17.221 60.9198 15.4458 61.5767 14.0638 62.7849C13.8851 62.9257 14.1472 63.172 14.314 63.0313V63.0313Z" fill="#E8E8E8"/>
<path d="M8.86936 59.254C9.2506 59.0663 9.63184 58.8904 10.0131 58.7027C10.2156 58.6088 10.0369 58.3038 9.83437 58.3977C9.45313 58.5854 9.07189 58.7613 8.69066 58.949C8.48812 59.0546 8.66683 59.3479 8.86936 59.254V59.254Z" fill="#E8E8E8"/>
<path d="M10.0964 61.2482C10.418 61.0371 10.7635 60.8611 11.121 60.7086C11.3354 60.6265 11.2401 60.2863 11.0256 60.3684C10.6325 60.5327 10.2632 60.7204 9.90576 60.9432C9.72705 61.0723 9.90576 61.3773 10.0964 61.2482V61.2482Z" fill="#E8E8E8"/>
<path d="M11.4426 63.5474C11.7762 63.3832 12.1098 63.219 12.4434 63.0665C12.6459 62.9609 12.4672 62.6676 12.2646 62.7615C11.9311 62.9257 11.5975 63.0899 11.2639 63.2424C11.0614 63.3363 11.2401 63.6413 11.4426 63.5474V63.5474Z" fill="#E8E8E8"/>
<path d="M12.1334 65.8466C12.5028 65.5299 12.884 65.2601 13.3129 65.0255C13.5154 64.9082 13.3367 64.6149 13.1342 64.7205C12.6934 64.9668 12.2764 65.2601 11.8833 65.6003C11.7046 65.7528 11.9547 65.9991 12.1334 65.8466V65.8466Z" fill="#E8E8E8"/>
<path d="M18.019 54.5031C18.293 54.3155 18.5789 54.1864 18.9006 54.1043C19.127 54.0457 19.0316 53.7172 18.8053 53.7641C18.4598 53.8462 18.1262 53.987 17.8284 54.1982C17.6497 54.3272 17.8284 54.6322 18.019 54.5031V54.5031Z" fill="#E8E8E8"/>
<path d="M19.0793 56.5091C19.4606 56.2745 19.8418 56.0399 20.2111 55.7935C20.4017 55.6762 20.223 55.3712 20.0324 55.4885C19.6512 55.7231 19.2699 55.9577 18.9006 56.2041C18.6981 56.3331 18.8768 56.6381 19.0793 56.5091V56.5091Z" fill="#E8E8E8"/>
<path d="M20.2948 58.9139C20.6999 58.7379 21.1168 58.5619 21.5219 58.386C21.7364 58.2921 21.5457 57.9871 21.3432 58.081C20.9381 58.2569 20.5212 58.4329 20.1161 58.6089C19.9017 58.7027 20.0923 59.0077 20.2948 58.9139V58.9139Z" fill="#E8E8E8"/>
<path d="M21.1643 60.4857C21.486 60.1807 21.8434 59.9227 22.2366 59.6998C22.4391 59.5942 22.2604 59.2892 22.0579 59.3948C21.6409 59.6294 21.2596 59.8992 20.9141 60.2277C20.7473 60.3919 20.9975 60.6382 21.1643 60.4857V60.4857Z" fill="#E8E8E8"/>
<path d="M14.7905 65.3891C15.0883 65.8232 15.3385 66.2807 15.5291 66.7616C15.6125 66.9728 15.958 66.8789 15.8746 66.6678C15.6721 66.1516 15.4219 65.6589 15.1002 65.2014C14.9692 65.0255 14.6594 65.2014 14.7905 65.3891V65.3891Z" fill="#E8E8E8"/>
<path d="M16.6131 64.4155C16.8394 64.8143 17.0539 65.2014 17.2802 65.6003C17.3874 65.7997 17.6972 65.6237 17.59 65.4243C17.3636 65.0255 17.1492 64.6384 16.9228 64.2395C16.8156 64.0401 16.5058 64.2161 16.6131 64.4155V64.4155Z" fill="#E8E8E8"/>
<path d="M18.7217 62.9257C18.96 63.348 19.1982 63.7703 19.4365 64.1926C19.5437 64.392 19.8535 64.2161 19.7463 64.0166C19.508 63.5943 19.2697 63.172 19.0314 62.7497C18.9242 62.5503 18.6145 62.7263 18.7217 62.9257V62.9257Z" fill="#E8E8E8"/>
<path d="M20.6164 61.8113C20.807 62.2571 20.9976 62.7028 21.2002 63.1368C21.2955 63.348 21.5933 63.1603 21.5099 62.9609C21.3193 62.5151 21.1287 62.0694 20.9261 61.6353C20.8308 61.4359 20.5211 61.6119 20.6164 61.8113V61.8113Z" fill="#E8E8E8"/>
<path d="M9.81049 55.4651C10.0368 55.8287 10.2513 56.1924 10.4777 56.5443C10.5968 56.7437 10.9065 56.556 10.7874 56.3683C10.561 56.0047 10.3466 55.641 10.1202 55.2891C10.0011 55.1014 9.69135 55.2774 9.81049 55.4651V55.4651Z" fill="#E8E8E8"/>
<path d="M11.8596 54.292C12.0741 54.7612 12.2885 55.2304 12.5029 55.6997C12.5983 55.9108 12.908 55.7231 12.8127 55.5237C12.5983 55.0545 12.3838 54.5853 12.1694 54.116C12.0621 53.9049 11.7643 54.0808 11.8596 54.292V54.292Z" fill="#E8E8E8"/>
<path d="M13.7062 53.1659C14.0279 53.5882 14.2781 54.0457 14.4449 54.5383C14.5164 54.7495 14.8619 54.6556 14.7904 54.4445C14.6117 53.9166 14.3615 53.4239 14.016 52.9899C13.8849 52.8139 13.5752 52.9782 13.7062 53.1659V53.1659Z" fill="#E8E8E8"/>
<path d="M15.6957 52.2626C15.9459 52.638 16.1842 53.0016 16.4344 53.377C16.5535 53.5647 16.8633 53.3888 16.7441 53.2011C16.4939 52.8257 16.2557 52.462 16.0055 52.0867C15.8744 51.899 15.5647 52.0749 15.6957 52.2626V52.2626Z" fill="#E8E8E8"/>
<path d="M34.2215 29.0009C33.0658 28.649 33.0063 27.4407 33.5543 26.5375C34.0904 25.6577 35.1269 25.4231 35.937 26.1504C36.6042 26.7604 36.6638 27.8044 36.0442 28.473C35.4247 29.1534 34.4121 29.1417 33.6972 28.6255C33.5185 28.4848 33.3398 28.7898 33.5185 28.9305C34.424 29.5874 35.7464 29.4819 36.4255 28.5551C37.1284 27.6167 36.8782 26.3029 35.8894 25.6694C33.5066 24.1562 31.4575 28.5199 34.1261 29.3411C34.3525 29.4115 34.4478 29.0713 34.2215 29.0009V29.0009Z" fill="#E8E8E8"/>
<path d="M36.1397 29.3059C35.2462 29.5757 35.0317 28.5199 35.4249 27.9569C35.7466 27.4994 36.378 27.2296 36.9499 27.3821C37.4979 27.5228 37.891 28.0742 37.7481 28.6255C37.5694 29.3176 36.8307 29.564 36.1755 29.4584C35.9491 29.4232 35.8538 29.7634 36.0802 29.7986C36.9618 29.9511 37.9149 29.5757 38.1055 28.6372C38.2723 27.8278 37.6289 27.0888 36.8307 26.995C35.9491 26.8894 34.9841 27.5228 34.865 28.4144C34.7577 29.1886 35.4726 29.8807 36.2589 29.6343C36.4614 29.5757 36.3661 29.2355 36.1397 29.3059V29.3059Z" fill="#E8E8E8"/>
<path d="M28.5386 36.9425C28.2527 37.5173 28.6577 38.0921 29.2534 38.2446C29.7061 38.3619 30.1827 38.2563 30.6473 38.2798C31.1477 38.3032 31.6481 38.4205 32.1008 38.62C33.1015 39.0657 33.7449 39.8751 33.7806 40.9661C33.8163 41.8811 33.5423 42.8312 33.9474 43.6993C34.8052 45.5293 37.1641 44.1333 38.3793 45.3181C39.392 46.3152 38.975 48.1335 40.3331 48.8959C40.5357 49.0132 40.7144 48.7082 40.5118 48.5909C39.2966 47.9106 39.5826 46.1393 38.7248 45.1539C38.2721 44.6377 37.6168 44.497 36.9496 44.4501C36.1395 44.4031 35.0911 44.5674 34.4954 43.887C33.8044 43.0893 34.1738 41.8928 34.138 40.9543C34.1142 40.2153 33.864 39.5467 33.3398 39.0188C32.8752 38.5613 32.2676 38.2446 31.6361 38.0804C31.3145 37.9982 30.9809 37.9396 30.6473 37.9279C30.2184 37.9044 28.3599 38.1155 28.8603 37.1184C28.9556 36.919 28.6458 36.7431 28.5386 36.9425V36.9425Z" fill="#E8E8E8"/>
<path d="M0.684565 100.264C2.84094 100.264 4.98541 100.264 7.14179 100.264C7.36815 100.264 7.36815 99.9122 7.14179 99.9122C4.98541 99.9122 2.84094 99.9122 0.684565 99.9122C0.446291 99.9122 0.446291 100.264 0.684565 100.264V100.264Z" fill="#E8E8E8"/>
<path d="M4.16332 108.217C8.30929 108.217 12.4433 108.217 16.5893 108.217C16.8157 108.217 16.8157 107.866 16.5893 107.866C12.4433 107.866 8.30929 107.866 4.16332 107.866C3.92505 107.866 3.92505 108.217 4.16332 108.217V108.217Z" fill="#E8E8E8"/>
<path d="M16.0889 106.012C19.937 106.012 23.797 106.012 27.6451 106.012C27.8715 106.012 27.8715 105.66 27.6451 105.66C23.797 105.66 19.937 105.66 16.0889 105.66C15.8506 105.66 15.8506 106.012 16.0889 106.012V106.012Z" fill="#E8E8E8"/>
<path d="M80.1725 105.402C82.1144 104.933 84.0683 104.886 86.046 105.191C86.8799 105.32 87.7258 105.449 88.5717 105.379C89.3937 105.308 90.1919 105.062 90.9901 104.851C91.8956 104.604 92.801 104.417 93.7541 104.487C94.731 104.557 95.6722 104.827 96.6253 105.038C97.4474 105.226 98.2813 105.355 99.1272 105.343C100.021 105.32 100.902 105.167 101.772 105.038C104.155 104.663 106.395 104.898 108.753 105.285C108.98 105.32 109.075 104.98 108.849 104.945C106.943 104.64 105.024 104.323 103.083 104.511C101.057 104.71 99.1749 105.203 97.1257 104.792C95.4101 104.452 93.778 103.924 92.0147 104.252C91.0735 104.428 90.18 104.757 89.2388 104.933C88.1904 105.132 87.1778 105.015 86.1294 104.851C84.0921 104.546 82.0787 104.569 80.0653 105.062C79.8628 105.121 79.9581 105.461 80.1725 105.402V105.402Z" fill="#E8E8E8"/>
<path d="M98.4721 101.836C102.213 101.637 105.954 101.437 109.695 101.249C111.541 101.156 113.328 101.191 115.163 101.437C115.985 101.543 116.772 101.566 117.594 101.472C118.511 101.367 119.464 101.226 120.322 101.66C120.524 101.766 120.703 101.461 120.5 101.355C119.047 100.628 117.367 101.308 115.806 101.167C114.877 101.085 113.972 100.909 113.043 100.862C112.078 100.815 111.112 100.839 110.147 100.886C106.252 101.062 102.356 101.296 98.4602 101.496C98.2457 101.496 98.2457 101.848 98.4721 101.836V101.836Z" fill="#E8E8E8"/>
<path d="M25.215 111.913C26.9783 112.077 28.7534 112.241 30.5166 112.042C31.3387 111.948 32.125 111.772 32.9232 111.537C33.9597 111.232 34.889 111.15 35.9612 111.338C36.7832 111.479 37.5934 111.678 38.4154 111.748C39.2851 111.819 40.1548 111.772 41.0245 111.69C42.8473 111.514 44.6701 111.209 46.481 111.608C46.7073 111.654 46.8026 111.314 46.5763 111.267C44.8369 110.892 43.0975 111.138 41.3462 111.314C40.4765 111.396 39.6068 111.479 38.7371 111.432C37.7482 111.385 36.7951 111.127 35.8301 110.974C35.02 110.845 34.2456 110.845 33.4474 111.033C32.5896 111.244 31.7795 111.525 30.8979 111.654C29.0155 111.924 27.0974 111.737 25.215 111.572C24.9768 111.537 24.9887 111.889 25.215 111.913V111.913Z" fill="#E8E8E8"/>
<path d="M44.0623 17.2586C43.5976 16.9419 42.9662 16.4375 43.1568 15.804C43.3594 15.1471 43.8597 15.4638 44.3244 15.3113C44.9439 15.1119 44.9081 14.3729 44.7294 13.8919C44.5507 13.4227 44.1695 12.2848 45.1583 12.672C45.3847 12.7658 45.5515 12.9183 45.8136 12.8362C46.0518 12.7658 46.171 12.5546 46.2306 12.3318C46.2782 12.1323 46.2425 11.9212 46.2306 11.71C46.2067 11.5693 46.1948 11.4168 46.1948 11.276C46.1472 10.9358 46.3616 10.7951 46.8143 10.8537C46.8262 11.0766 47.1836 11.0766 47.1717 10.8537C47.1479 10.5253 46.8977 10.2906 46.5403 10.3024C46.1233 10.3141 45.897 10.7129 45.8493 11.0883C45.8136 11.3464 46.028 11.9447 45.9089 12.1558C45.7659 12.2497 45.623 12.3552 45.4681 12.4491C45.4085 12.4139 45.3489 12.3787 45.2894 12.3435C45.1821 12.3083 45.0988 12.2379 44.9915 12.2145C44.6222 12.1323 44.3244 12.3552 44.1933 12.6837C43.967 13.2467 44.372 13.716 44.4912 14.2438C44.646 14.9711 44.0861 14.889 43.5976 14.9711C43.3832 15.0063 43.2045 15.1119 43.0615 15.2644C42.3109 16.1207 43.1806 17.0709 43.8955 17.5636C44.0742 17.6926 44.2529 17.3876 44.0623 17.2586V17.2586Z" fill="#E8E8E8"/>
<path d="M46.4094 16.9301C46.0163 16.4844 45.7184 15.8744 46.4809 15.6398C46.6715 15.5811 46.886 15.6046 47.0647 15.4873C47.4578 15.2175 47.291 14.8538 47.2196 14.4785C47.1838 14.2673 47.1004 13.9858 47.2315 13.7746C47.3268 13.6221 47.6723 13.5635 47.851 13.5283C48.1012 13.4696 48.3633 13.4344 48.5777 13.2937C48.8994 13.0708 49.0185 12.672 48.8041 12.3318C48.6849 12.1441 48.3752 12.32 48.4943 12.5077C48.8517 13.0708 47.1838 13.2233 46.8979 13.6339C46.5643 14.1148 47.2672 14.9594 46.6834 15.2644C46.4571 15.3817 46.1711 15.2996 45.9567 15.4521C45.8018 15.5577 45.6946 15.7219 45.6469 15.8979C45.5159 16.4023 45.8614 16.8363 46.1711 17.1882C46.3141 17.3524 46.5643 17.1061 46.4094 16.9301V16.9301Z" fill="#E8E8E8"/>
<path d="M32.3393 14.15C32.0296 13.9389 31.9938 13.5635 32.0891 13.235C32.1487 13.0121 32.4346 12.4021 32.7086 12.3787C33.1614 12.3318 33.3877 12.8948 33.5069 13.2233C33.6141 13.54 33.6498 13.8567 33.6617 14.1852C33.6617 14.4081 34.0192 14.4081 34.0192 14.1852C34.0072 13.5283 33.5664 11.5106 32.4704 12.0972C32.0534 12.32 31.7436 12.9652 31.696 13.411C31.6483 13.8333 31.8151 14.2087 32.1606 14.455C32.3393 14.584 32.518 14.279 32.3393 14.15V14.15Z" fill="#E8E8E8"/>
<path d="M32.1963 14.3377C31.7675 14.4433 31.3386 14.5488 30.8978 14.6544C30.6476 14.7131 30.2187 14.7365 30.0161 14.9242C29.6706 15.2409 29.766 16.2146 29.766 16.6251C29.766 16.7425 29.8851 16.8246 29.9923 16.7894C30.0519 16.7776 30.1115 16.7542 30.1829 16.7425C30.4927 16.5782 30.6476 16.6838 30.6595 17.0357C30.8978 17.2703 30.8978 17.4111 30.6595 17.4346C30.5165 17.4932 30.3736 17.5167 30.2187 17.5167C30.1234 17.5284 30.04 17.5871 30.04 17.6926C30.0638 18.4434 30.1234 19.1824 30.2068 19.9332C30.2306 20.156 30.588 20.156 30.5642 19.9332C30.4808 19.1824 30.4212 18.4434 30.3974 17.6926C30.3378 17.7513 30.2782 17.8099 30.2187 17.8686C30.7191 17.8099 31.5173 17.6105 31.41 16.9419C31.2909 16.2263 30.4093 16.3084 29.9089 16.4492C29.9804 16.5078 30.0638 16.5665 30.1353 16.6134C30.1353 16.3436 30.1353 16.0855 30.1591 15.8157C30.1948 15.3934 30.171 15.2409 30.5642 15.0884C31.1003 14.8773 31.7317 14.8069 32.2917 14.6661C32.518 14.6309 32.4227 14.2908 32.1963 14.3377V14.3377Z" fill="#E8E8E8"/>
<path d="M33.912 14.4433C34.4123 14.4198 34.9246 14.4198 35.425 14.4785C35.9015 14.5371 35.8777 14.6075 35.9492 15.0181C35.9969 15.2761 36.0088 15.5459 36.0326 15.804C36.1279 16.8128 36.1994 17.8217 36.259 18.8305C36.2709 19.0534 36.6283 19.0534 36.6164 18.8305C36.5449 17.458 36.4972 16.0504 36.2709 14.6896C36.2113 14.3494 36.1517 14.2438 35.7943 14.1852C35.1748 14.0679 34.5315 14.0679 33.912 14.1031C33.6856 14.1031 33.6856 14.455 33.912 14.4433V14.4433Z" fill="#E8E8E8"/>
<path d="M30.4686 20.1795C31.1715 20.0622 31.8745 19.9449 32.5654 19.8276C33.3637 19.6986 34.1261 19.7572 34.9244 19.6986C35.2937 19.6634 37.045 19.4874 36.4017 18.7718C36.2468 18.6076 35.9966 18.854 36.1515 19.0182C36.2468 19.1238 34.6265 19.3584 34.5908 19.3584C34.0904 19.3701 33.59 19.3466 33.0896 19.4053C32.1842 19.5109 31.2788 19.6986 30.3733 19.8511C30.147 19.8745 30.2423 20.2147 30.4686 20.1795V20.1795Z" fill="#E8E8E8"/>
<path d="M93.7544 87.7358C93.7187 88.9676 93.683 90.1993 93.6472 91.4427C95.2317 91.5483 96.8043 91.6421 98.3889 91.7477C98.3889 90.4808 98.3889 89.2139 98.3889 87.947C96.8401 87.8766 95.3032 87.8062 93.7544 87.7358Z" fill="white" stroke="#161616" stroke-width="0.4"/>
<path d="M95.8154 101.425C96.0299 102.786 96.1252 103.912 96.1729 104.722C96.3277 107.408 96.2086 108.03 95.9703 108.522C95.3866 109.731 94.3262 110.235 94.4215 110.399C94.493 110.505 95.0172 110.388 97.3523 109.179C97.2093 106.505 97.0783 103.842 96.9353 101.167C96.566 101.261 96.1967 101.343 95.8154 101.425Z" fill="white" stroke="#161616" stroke-width="0.4"/>
<path d="M92.7297 92.8034C94.7551 92.8152 96.7804 92.8386 98.8057 92.8504C98.5794 95.5249 98.3649 98.1878 98.1386 100.862C96.3753 100.722 94.6002 100.593 92.837 100.452C92.7893 97.9062 92.7536 95.3607 92.7297 92.8034Z" fill="white" stroke="#161616" stroke-width="0.4"/>
<path d="M93.5517 101.332C94.195 102.868 94.4095 104.194 94.481 105.085C94.5882 106.399 94.6597 107.408 94.0163 108.077C93.7781 108.335 93.3849 108.581 92.6224 109.085C91.9434 109.531 91.6217 109.695 91.6455 109.742C91.6813 109.813 92.3365 109.672 95.1958 108.675C95.3864 107.725 95.5413 106.505 95.5056 105.074C95.4579 103.549 95.2077 102.247 94.9337 101.273C94.481 101.296 94.0163 101.308 93.5517 101.332Z" fill="white" stroke="#161616" stroke-width="0.4"/>
<path d="M94.5883 110.505C94.9458 110.212 95.2793 109.895 95.601 109.555C95.9703 109.156 96.5184 108.546 97.0902 109.074C97.1021 108.98 97.114 108.886 97.126 108.792C96.2801 109.203 95.4461 109.613 94.6003 110.012C94.4335 110.094 94.5169 110.341 94.6956 110.341C95.4938 110.352 95.9942 108.98 96.8162 109.238C97.0306 109.308 97.126 108.968 96.9115 108.898C96.5541 108.792 96.2801 108.886 95.9822 109.097C95.6367 109.344 95.1483 109.989 94.7075 109.989C94.7432 110.094 94.767 110.212 94.8028 110.317C95.6487 109.907 96.4826 109.496 97.3285 109.097C97.4357 109.05 97.4476 108.898 97.3642 108.816C97.0426 108.522 96.4707 108.417 96.0656 108.605C95.7678 108.734 95.5772 109.074 95.3627 109.297C95.0411 109.637 94.7075 109.942 94.3501 110.247C94.1594 110.399 94.4096 110.657 94.5883 110.505V110.505Z" fill="#161616"/>
<path d="M96.0538 108.675C96.4112 108.687 96.7567 108.757 97.0903 108.898C97.2928 108.992 97.4834 108.687 97.269 108.593C96.8758 108.417 96.4827 108.323 96.0538 108.311C95.8274 108.323 95.8274 108.675 96.0538 108.675V108.675Z" fill="#161616"/>
<path d="M94.0999 108.264C94.3739 108.335 94.6122 108.475 94.8028 108.687C94.9577 108.851 95.2079 108.605 95.053 108.44C94.8147 108.194 94.5169 108.018 94.1833 107.936C93.9808 107.865 93.8854 108.206 94.0999 108.264V108.264Z" fill="#161616"/>
<path d="M92.1697 109.684C92.539 109.414 92.9203 109.168 93.3134 108.933C93.4921 108.827 93.6827 108.687 93.8734 108.628C94.1712 108.522 94.3499 108.593 94.6239 108.71C94.6239 108.605 94.6239 108.511 94.6239 108.405C94.2427 108.569 93.8138 108.558 93.4206 108.722C93.0394 108.874 92.682 109.25 92.2888 109.32C92.3365 109.426 92.3842 109.531 92.4318 109.637C93.1347 109.297 93.921 109.238 94.6239 108.898C94.8265 108.792 94.6478 108.499 94.4452 108.593C93.7423 108.933 92.956 108.992 92.2531 109.332C92.0625 109.426 92.2054 109.684 92.3961 109.649C92.825 109.578 93.1705 109.191 93.5755 109.039C93.9806 108.886 94.4214 108.874 94.8145 108.71C94.9337 108.663 94.9337 108.452 94.8145 108.405C94.3618 108.206 94.1593 108.088 93.7066 108.323C93.1109 108.628 92.5509 108.992 92.0148 109.379C91.8004 109.508 91.9791 109.813 92.1697 109.684V109.684Z" fill="#161616"/>
<path d="M94.2072 103.126C94.505 103.021 94.8028 103.033 95.0769 103.173C95.2794 103.279 95.4581 102.974 95.2556 102.868C94.8981 102.681 94.4931 102.645 94.1118 102.786C93.8974 102.868 93.9927 103.208 94.2072 103.126V103.126Z" fill="#161616"/>
<path d="M94.505 104.299C94.7552 104.276 94.9934 104.335 95.1841 104.499C95.3628 104.64 95.6129 104.393 95.4342 104.252C95.1721 104.041 94.8505 103.924 94.505 103.947C94.2786 103.959 94.2786 104.311 94.505 104.299V104.299Z" fill="#161616"/>
<path d="M94.6362 105.766C94.8626 105.742 95.077 105.824 95.208 106.012C95.3272 106.2 95.6369 106.024 95.5178 105.836C95.3391 105.543 94.9936 105.367 94.6481 105.414C94.5528 105.426 94.4694 105.484 94.4694 105.59C94.4575 105.672 94.5409 105.777 94.6362 105.766V105.766Z" fill="#161616"/>
<path d="M96.1728 103.044C96.3873 102.927 96.6613 102.939 96.8638 103.103C97.0425 103.244 97.2927 102.997 97.114 102.857C96.7923 102.598 96.3634 102.54 95.9941 102.739C95.7916 102.857 95.9703 103.162 96.1728 103.044V103.044Z" fill="#161616"/>
<path d="M96.3754 105.261C96.5661 105.179 96.7805 105.214 96.9354 105.355C97.1022 105.508 97.3643 105.261 97.1856 105.109C96.9115 104.862 96.5303 104.804 96.1848 104.968C95.9823 105.05 96.1729 105.355 96.3754 105.261V105.261Z" fill="#161616"/>
<path d="M96.423 107.138C96.6137 107.021 96.8519 107.021 97.0306 107.162C97.2093 107.302 97.4595 107.056 97.2808 106.915C96.983 106.669 96.566 106.634 96.2443 106.845C96.0537 106.962 96.2324 107.267 96.423 107.138V107.138Z" fill="#161616"/>
<path d="M99.0915 92.8386C98.8533 95.5367 98.615 98.2347 98.3767 100.933" stroke="#161616" stroke-width="0.4"/>
<path d="M92.801 100.557C94.7906 100.698 96.7802 100.827 98.7698 100.968" stroke="#161616" stroke-width="0.4"/>
<path d="M98.7818 87.8414C98.7342 89.1787 98.6746 90.5043 98.627 91.8415" stroke="#161616" stroke-width="0.4"/>
<path d="M99.032 94.4223C100.14 94.2228 101.319 95.0792 101.403 96.2053C101.522 97.613 99.8897 97.8593 98.8175 97.7068C98.5912 97.6716 98.4958 98.0118 98.7222 98.047C100.033 98.2347 101.879 97.8711 101.76 96.2053C101.665 94.8328 100.271 93.8357 98.9367 94.0821C98.7103 94.1173 98.8056 94.4575 99.032 94.4223V94.4223Z" fill="#161616"/>
<path d="M98.7698 98.3285C99.2344 98.4224 99.6038 98.7508 99.7348 99.1966C99.7944 99.4195 100.14 99.3256 100.08 99.1028C99.9254 98.5397 99.4608 98.0939 98.877 97.9884C98.6387 97.9532 98.5434 98.2816 98.7698 98.3285V98.3285Z" fill="#161616"/>
<path d="M98.5913 98.2112C98.8772 98.6218 99.0083 99.0793 98.9606 99.5837C98.9487 99.8066 99.3061 99.8066 99.318 99.5837C99.3538 99.0324 99.2108 98.4928 98.8891 98.0353C98.77 97.8476 98.4602 98.0236 98.5913 98.2112V98.2112Z" fill="#161616"/>
<path d="M92.7178 94.258C91.9315 93.7654 90.49 95.1848 90.3113 95.8769C89.9539 97.2845 91.7886 97.1203 92.5511 97.5895C92.7417 97.7068 92.9204 97.4018 92.7298 97.2845C92.1817 96.9443 91.3716 97.0734 90.8951 96.6511C90.3113 96.1349 90.8474 95.5132 91.2525 95.1496C91.4669 94.9619 92.1936 94.3402 92.5391 94.5513C92.7298 94.6921 92.9204 94.3871 92.7178 94.258V94.258Z" fill="#161616"/>
<path d="M92.5274 97.4253C92.2176 97.5426 91.9317 97.7186 91.6934 97.9649C91.5147 98.1526 91.2884 98.4459 91.4671 98.7039C91.5981 98.8916 91.9079 98.7157 91.7768 98.528C91.6934 98.4107 92.0032 98.1526 92.0866 98.0822C92.2415 97.9414 92.4202 97.8359 92.6227 97.7655C92.8371 97.6834 92.7537 97.3432 92.5274 97.4253V97.4253Z" fill="#161616"/>
<path d="M92.3844 97.6716C92.158 98.0235 92.0865 98.4224 92.1699 98.8212C92.2176 99.0441 92.5631 98.9503 92.5154 98.7274C92.4439 98.4107 92.5154 98.1174 92.6941 97.8476C92.8252 97.6599 92.5154 97.4839 92.3844 97.6716V97.6716Z" fill="#161616"/>
<path d="M93.5162 94.0352C93.4566 94.8915 93.4686 95.7596 93.5281 96.6159C93.552 96.8388 93.9094 96.8388 93.8855 96.6159C93.8141 95.7596 93.8141 94.8915 93.8736 94.0352C93.8975 93.8123 93.54 93.8123 93.5162 94.0352V94.0352Z" fill="#161616"/>
<path d="M93.7782 94.129C95.041 94.1994 96.292 94.2463 97.5548 94.2698C97.4952 94.2111 97.4357 94.1525 97.3761 94.0938C97.3404 94.9736 97.3046 95.8651 97.257 96.7449C97.2451 96.9678 97.6025 96.9678 97.6144 96.7449C97.6501 95.8651 97.6859 94.9736 97.7335 94.0938C97.7335 94 97.6501 93.9179 97.5548 93.9179C96.292 93.8944 95.041 93.8475 93.7782 93.7771C93.5518 93.7654 93.5518 94.1173 93.7782 94.129V94.129Z" fill="#161616"/>
<path d="M93.635 96.7684C94.1592 96.9091 94.743 96.874 95.2672 96.9091C95.9106 96.9443 96.5658 96.9913 97.2092 97.0264C97.4355 97.0382 97.4355 96.6863 97.2092 96.6745C96.6373 96.6393 96.0654 96.6041 95.4936 96.569C94.9217 96.5338 94.2784 96.569 93.7184 96.4282C93.5159 96.3695 93.4206 96.7097 93.635 96.7684V96.7684Z" fill="#161616"/>
<path d="M94.0402 98.5866C94.2547 99.0441 94.7193 98.6453 95.0767 98.8095C95.2435 98.8799 95.2078 98.9855 95.4341 98.9972C95.6962 99.0089 96.3396 98.4928 96.4706 98.9737C96.5064 99.1028 96.6732 99.138 96.7685 99.0558C96.8876 99.0206 97.0187 98.9855 97.1378 98.962C97.2808 99.138 97.5429 98.8799 97.388 98.7157C97.114 98.3989 96.7685 98.5749 96.5064 98.8095C96.6017 98.833 96.7089 98.8564 96.8042 98.8916C96.697 98.481 96.2562 98.2112 95.8392 98.3989C95.6367 98.4928 95.6128 98.6687 95.3031 98.5514C95.2435 98.528 95.2197 98.4341 95.1601 98.4107C95.0291 98.3637 94.3381 98.4341 94.3381 98.4224C94.2547 98.1995 93.9449 98.3755 94.0402 98.5866V98.5866Z" fill="#161616"/>
<path d="M94.6715 89.3547C94.6953 89.2256 94.8502 89.1904 94.9574 89.2374C95.1123 89.296 95.1957 89.472 95.2672 89.601C95.3625 89.8004 95.6723 89.6245 95.577 89.425C95.4459 89.167 95.2434 88.8972 94.9217 88.862C94.6596 88.8385 94.3856 88.991 94.3379 89.2491C94.2784 89.4837 94.6239 89.5775 94.6715 89.3547V89.3547Z" fill="#161616"/>
<path d="M96.864 89.5189C96.8878 89.4016 96.995 89.3312 97.1141 89.3781C97.2571 89.425 97.3167 89.601 97.3405 89.73C97.3762 89.9529 97.7217 89.8591 97.686 89.6362C97.6383 89.3547 97.4477 89.0614 97.138 89.0145C96.864 88.9793 96.5661 89.1435 96.5185 89.425C96.4827 89.6479 96.8282 89.7418 96.864 89.5189V89.5189Z" fill="#161616"/>
<path d="M94.8506 90.0937C95.2557 90.7975 96.2207 90.9031 96.7449 90.2696C96.8878 90.0937 96.6377 89.8473 96.4947 90.0233C96.1135 90.4808 95.4582 90.4456 95.1604 89.9177C95.0531 89.7183 94.7434 89.8943 94.8506 90.0937V90.0937Z" fill="#161616"/>
<path d="M82.3528 26.3498C80.8517 25.7515 79.9463 24.3204 79.3983 22.8893C78.8145 21.3995 78.5643 19.7807 78.6477 18.1853C78.7907 15.2409 80.0654 12.2614 82.4243 10.3845C84.6522 8.60144 87.9523 8.09703 90.4303 9.71585C93.0156 11.4051 93.4802 14.889 93.5041 17.6926C93.5279 20.813 92.7892 24.0858 90.4422 26.3263C90.2755 26.4788 90.5256 26.7369 90.6924 26.5727C92.9203 24.4377 93.7662 21.3878 93.8496 18.4082C93.933 15.4873 93.5755 11.7922 91.1332 9.78623C88.8458 7.90934 85.4504 8.00319 83.0081 9.52816C80.3037 11.2174 78.7073 14.279 78.3618 17.3642C78.1473 19.2763 78.3856 21.2587 79.1004 23.0652C79.708 24.5902 80.673 26.0448 82.2695 26.6782C82.472 26.7721 82.5554 26.4319 82.3528 26.3498V26.3498Z" fill="#161616"/>
<path d="M82.1858 26.5727C81.7807 27.1357 81.8641 27.9686 82.4598 28.3909C82.9125 28.7076 83.5797 28.7546 84.1158 28.8249C84.7592 28.9188 85.4144 28.954 86.0697 28.954C87.2372 28.9422 88.5715 28.8601 89.6557 28.4144C90.442 28.0859 91.0377 27.3117 90.6207 26.4788C90.5254 26.2794 90.2156 26.4554 90.3109 26.6548C91.2045 28.4496 86.9751 28.6021 86.0578 28.6021C85.2119 28.6021 84.366 28.5317 83.544 28.3792C83.1508 28.3088 82.71 28.2384 82.4598 27.8982C82.2096 27.5463 82.2573 27.0888 82.4956 26.7604C82.6266 26.5609 82.3169 26.385 82.1858 26.5727V26.5727Z" fill="#161616"/>
<path d="M82.5674 28.473C82.5674 29.0595 82.5793 29.6578 82.6508 30.2443C82.6865 30.5141 82.7461 30.7487 82.9724 30.913C83.2941 31.1476 83.8302 31.1359 84.2115 31.171C84.8548 31.218 85.5101 31.218 86.1534 31.1945C86.761 31.1711 87.3686 31.1241 87.9762 31.0655C88.3336 31.0303 88.7387 31.042 89.0127 30.7722C89.6203 30.1857 89.6322 29.0713 89.4773 28.3323C89.4297 28.1094 89.0842 28.2032 89.1318 28.4261C89.2152 28.8249 89.2391 29.2238 89.1557 29.6343C89.0365 30.2091 88.8697 30.5845 88.2145 30.7018C87.452 30.8426 86.5942 30.8426 85.8198 30.8543C85.0573 30.8661 84.1996 30.9012 83.449 30.7253C82.758 30.5611 82.9367 29.0361 82.9367 28.473C82.9248 28.2501 82.5674 28.2501 82.5674 28.473V28.473Z" fill="#161616"/>
<path d="M82.6864 15.8392C84.116 16.719 85.2002 18.0094 85.8078 19.5578C85.8912 19.7689 86.2367 19.6751 86.1533 19.464C85.5099 17.8217 84.3781 16.4609 82.877 15.5342C82.6745 15.4052 82.4958 15.7102 82.6864 15.8392V15.8392Z" fill="#161616"/>
<path d="M86.0936 19.5578C86.7965 18.1032 87.8211 16.8598 89.1316 15.8978C89.3103 15.7688 89.1316 15.4521 88.9529 15.5929C87.5947 16.59 86.5225 17.8803 85.7839 19.3818C85.6886 19.5812 85.9983 19.7572 86.0936 19.5578V19.5578Z" fill="#161616"/>
<path d="M85.8078 19.1472C85.9865 21.5637 86.0699 23.9802 86.0341 26.3967C86.0341 26.6196 86.3916 26.6196 86.3916 26.3967C86.4273 23.9802 86.3439 21.552 86.1652 19.1472C86.1414 18.9126 85.784 18.9126 85.8078 19.1472V19.1472Z" fill="#161616"/>
<path d="M71.8568 25.0594C73.4413 24.5316 75.0139 24.0037 76.5985 23.4758C76.8129 23.4054 76.7176 23.0652 76.5032 23.1356C74.9186 23.6635 73.346 24.1914 71.7615 24.7192C71.5352 24.7896 71.6305 25.1298 71.8568 25.0594V25.0594Z" fill="#161616"/>
<path d="M73.6678 22.7133C74.2159 22.5608 74.7639 22.3966 75.3119 22.2441C75.5264 22.1854 75.443 21.8453 75.2166 21.9039C74.6686 22.0564 74.1206 22.2206 73.5725 22.3731C73.3581 22.4435 73.4415 22.7837 73.6678 22.7133V22.7133Z" fill="#161616"/>
<path d="M69.7008 18.807C71.7976 18.7836 73.8825 18.8422 75.9674 18.9713C76.1937 18.983 76.1937 18.6311 75.9674 18.6193C73.8825 18.4903 71.7857 18.4434 69.7008 18.4551C69.4744 18.4551 69.4744 18.807 69.7008 18.807V18.807Z" fill="#161616"/>
<path d="M74.1324 17.2117C74.6327 17.3407 75.145 17.3994 75.6573 17.4111C75.8837 17.4111 75.8837 17.0592 75.6573 17.0592C75.1689 17.0474 74.6923 16.9888 74.2277 16.8715C74.0013 16.8128 73.906 17.153 74.1324 17.2117V17.2117Z" fill="#161616"/>
<path d="M73.358 6.29051C75.2285 7.87414 76.9321 9.61026 78.469 11.5106C78.612 11.6866 78.8621 11.4402 78.7192 11.2643C77.1823 9.36392 75.4787 7.61607 73.6082 6.04417C73.4414 5.89167 73.1793 6.13801 73.358 6.29051V6.29051Z" fill="#161616"/>
<path d="M78.5883 9.622C78.91 9.95046 79.2197 10.2789 79.5414 10.6191C79.6963 10.7833 79.9464 10.537 79.7916 10.3728C79.4699 10.0443 79.1601 9.71585 78.8385 9.37566C78.6836 9.21143 78.4334 9.45778 78.5883 9.622V9.622Z" fill="#161616"/>
<path d="M71.3327 10.2789C71.9165 10.6191 72.5122 10.9358 73.1198 11.2291C73.3223 11.3347 73.501 11.0297 73.2985 10.9241C72.6909 10.6191 72.0952 10.3024 71.5115 9.97392C71.3089 9.85662 71.1302 10.1616 71.3327 10.2789V10.2789Z" fill="#161616"/>
<path d="M92.0625 7.60433C93.8257 5.86821 95.589 4.13208 97.3522 2.39596C97.519 2.23173 97.2569 1.98539 97.102 2.14962C95.3388 3.88574 93.5756 5.62187 91.8123 7.35799C91.6455 7.52222 91.8957 7.76856 92.0625 7.60433V7.60433Z" fill="#161616"/>
<path d="M93.8376 8.41375C94.2903 8.0853 94.743 7.76857 95.1958 7.44011C95.3745 7.31108 95.2077 7.00608 95.017 7.13512C94.5643 7.46358 94.1116 7.7803 93.6589 8.10876C93.4683 8.23779 93.647 8.54279 93.8376 8.41375V8.41375Z" fill="#161616"/>
<path d="M86.5582 5.30515C86.9157 3.60422 87.1897 1.89155 87.3565 0.167161C87.3803 -0.0557202 87.0229 -0.0557202 86.9991 0.167161C86.8323 1.85636 86.5702 3.54556 86.2128 5.2113C86.1651 5.43419 86.5106 5.52803 86.5582 5.30515V5.30515Z" fill="#161616"/>
<path d="M96.5778 16.0973C99.8184 15.804 103.047 15.5107 106.287 15.2175C106.514 15.194 106.514 14.8421 106.287 14.8656C103.047 15.1588 99.8184 15.4521 96.5778 15.7454C96.3515 15.7571 96.3396 16.109 96.5778 16.0973V16.0973Z" fill="#161616"/>
<path d="M82.9605 26.995C84.9739 27.429 87.0231 27.4173 89.0246 26.9715C89.2509 26.9246 89.1556 26.5844 88.9292 26.6313C86.9873 27.0654 84.9977 27.0771 83.0558 26.6548C82.8294 26.6079 82.7341 26.948 82.9605 26.995V26.995Z" fill="#161616"/>
<path d="M83.2584 29.9745C84.7953 30.1739 86.3321 30.2209 87.8809 30.1153C88.1073 30.1036 88.1073 29.7516 87.8809 29.7634C86.3321 29.869 84.7953 29.822 83.2584 29.6226C83.032 29.5992 83.032 29.9511 83.2584 29.9745V29.9745Z" fill="#161616"/>
<path d="M94.3259 25.8102C96.7444 27.4877 99.2105 29.1065 101.712 30.6666C101.903 30.7839 102.082 30.479 101.891 30.3616C99.3892 28.8015 96.9231 27.1827 94.5046 25.5052C94.314 25.3762 94.1353 25.6811 94.3259 25.8102V25.8102Z" fill="#161616"/>
<path d="M63.8866 108.323C61.623 111.056 59.3713 113.778 57.1077 116.511C59.7644 125.708 61.2655 128.124 62.1591 127.995C62.8024 127.901 63.1122 126.529 63.4577 124.992C64.3154 121.156 63.8032 117.86 63.279 115.807C64.7086 114.235 66.1263 112.652 67.556 111.08C66.3289 110.165 65.1137 109.25 63.8866 108.323Z" fill="#161616" stroke="#161616" stroke-width="2"/>
<path d="M55.535 94.2463C56.9527 95.3255 58.3109 94.9384 61.1225 95.4076C63.5172 95.8065 66.2097 96.6863 69.069 98.4459C66.0191 101.965 62.9692 105.684 59.9431 109.602C59.2163 110.552 58.4896 111.502 57.7867 112.452C58.9542 112.722 60.3601 113.144 61.885 113.825C63.3742 114.482 64.5894 115.221 65.5544 115.889C70.0935 111.995 74.1442 108.229 77.754 104.675C79.422 103.033 81.7809 100.522 82.1502 96.9678C82.174 96.7684 82.174 96.5924 82.174 96.4165C82.0906 90.516 74.5493 86.2461 69.9625 84.6742C64.9468 82.9615 56.3213 82.0348 53.9147 86.1288C52.497 88.5453 53.331 92.5688 55.535 94.2463Z" fill="#EC615B"/>
<path opacity="0.26" d="M64.3396 88.3458C64.2562 89.4602 64.0537 90.7858 63.6367 92.2521C63.3388 93.2961 62.9814 94.2229 62.624 95.0088C62.2309 95.1613 61.8496 95.3138 61.4565 95.4663C64.0179 96.4634 66.5913 97.4605 69.1527 98.4576C67.2465 100.604 65.3284 102.857 63.3984 105.203C61.4088 107.619 59.5145 109.989 57.7156 112.323C58.9903 112.734 60.2532 113.144 61.528 113.543C66.0909 108.593 70.6538 103.631 75.2168 98.6805C75.6933 97.3315 75.6695 96.2757 75.5265 95.5367C74.8713 91.9237 70.3798 88.9793 64.3396 88.3458Z" fill="#6D6C6C"/>
<path opacity="0.23" d="M69.1288 98.4341C69.5458 99.0558 69.9508 99.6893 70.3678 100.311C66.8175 104.522 63.2673 108.722 59.717 112.933C59.0856 112.769 58.4422 112.593 57.8108 112.429C60.0863 109.355 62.5405 106.2 65.1973 103.021C66.5197 101.437 67.8302 99.9122 69.1288 98.4341Z" fill="#6D6C6C"/>
<path d="M57.2746 103.865C60.7892 104.499 64.3156 105.121 67.8302 105.754C71.8927 114.482 72.3454 117.297 71.583 117.778C71.0349 118.118 69.8912 117.273 68.6165 116.323C65.4236 113.942 63.6485 111.103 62.6834 109.191C60.5628 108.91 58.4422 108.616 56.3215 108.335C56.6313 106.845 56.953 105.355 57.2746 103.865Z" fill="#161616" stroke="#161616" stroke-width="2"/>
<path d="M50.0311 84.4278C43.6215 86.2813 39.7139 90.1289 37.2001 92.6627C33.8047 96.0997 29.6349 100.311 30.8382 103.42C31.4577 105.003 33.34 105.977 42.1085 107.478C48.7325 108.616 54.4749 109.226 58.9545 109.566C59.5144 107.549 60.0744 105.543 60.6224 103.525C56.119 102.094 51.6275 100.675 47.1242 99.2435C49.8881 98.6687 52.7951 97.9884 55.8212 97.1555C58.1205 96.522 60.3126 95.8651 62.3975 95.173C64.3275 91.3371 64.7445 87.1962 62.7311 84.8501C59.9195 81.5656 53.6171 83.3838 50.0311 84.4278Z" fill="#EC615B"/>
<path opacity="0.29" d="M64.2919 88.4866C64.2323 89.6479 64.0298 91.1377 63.4818 92.78C63.1482 93.7771 62.7669 94.6452 62.3857 95.3607C62.064 95.3842 61.7424 95.4194 61.4207 95.4428C58.7044 96.3226 55.8094 97.1555 52.7475 97.9297C50.7699 98.4341 48.8398 98.8682 46.9694 99.267C51.4847 100.663 56 102.047 60.5153 103.443C60.42 103.924 60.3008 104.428 60.1579 104.956C59.9911 105.566 59.8004 106.129 59.6217 106.646C53.3909 105.132 47.16 103.619 40.9292 102.106C40.6432 101.766 39.702 100.534 39.845 98.9034C39.9999 97.132 41.7155 95.8769 43.9076 94.7273C50.2457 91.4193 60.8727 89.1787 64.2919 88.4866Z" fill="#6D6C6C"/>
<path opacity="0.24" d="M43.7644 99.5133C44.8962 99.4312 46.0399 99.3491 47.1717 99.2553C51.6155 100.71 56.0593 102.176 60.5031 103.631C60.3125 104.323 60.1219 105.027 59.9313 105.719C54.5463 103.643 49.1494 101.578 43.7644 99.5133Z" fill="#6D6C6C"/>
<path d="M48.3513 57.8464C50.1145 56.8258 53.1764 55.3712 57.2508 54.9489C63.4936 54.3037 68.2829 56.5091 70.1772 57.5062C69.8317 62.1163 69.2956 65.7997 68.8667 68.3335C68.3544 71.36 67.9374 73.0375 67.7468 75.8176C67.5085 79.3016 67.8064 82.1638 68.0804 84.0407C66.0074 84.6742 62.8741 85.3663 59.0141 85.2842C55.297 85.202 52.2948 84.4044 50.2813 83.7123C50.8175 79.5127 50.6387 76.1812 50.3766 73.9172C50.0788 71.3952 49.6737 70.1635 49.1853 67.1135C48.5539 63.172 48.3871 59.9461 48.3513 57.8464Z" fill="white" stroke="#161616" stroke-width="0.4"/>
<path opacity="0.14" d="M61.2419 56.3448C61.4921 57.2364 61.778 58.4681 61.9686 59.9461C62.0997 60.9432 62.6358 65.4595 60.9679 71.4186C59.9433 75.0903 58.8592 78.9731 55.3089 82.1638C54.1652 83.1961 53.0572 83.8882 52.2471 84.3222C54.046 84.7797 56.393 85.2138 59.1689 85.2372C62.8026 85.2724 65.8049 84.6272 67.8897 83.9938C67.7706 83.114 67.6157 81.7884 67.5562 80.1931C67.5085 78.7971 67.5085 76.5683 68.4854 70.2925C69.2598 65.3539 69.8079 63.2307 70.0819 58.7613C70.1176 58.2452 70.1295 57.8112 70.1534 57.5179C69.2837 57.0135 68.1519 56.4621 66.7579 56.0164C65.4713 55.6058 64.3156 55.3947 63.3625 55.3008C62.6716 55.641 61.9567 55.9929 61.2419 56.3448Z" fill="#6D6C6C"/>
<path opacity="0.17" d="M69.808 59.43C69.1408 63.1486 68.2592 66.1516 67.5682 68.2396C65.5429 74.3395 64.1252 78.4452 60.3009 81.4483C57.9301 83.3134 55.4639 84.0994 53.8794 84.4747C55.4877 84.9205 57.7633 85.3545 60.5153 85.2959C63.6844 85.2255 66.2458 84.5217 67.9256 83.9234C67.6993 82.4923 67.4372 80.3456 67.5087 77.7297C67.5921 74.3395 68.152 72.2984 68.7715 68.5798C69.117 66.3979 69.5578 63.2776 69.808 59.43Z" fill="#6D6C6C"/>
<path d="M48.2797 57.7877C46.7309 58.8435 44.7413 60.5092 43.0019 62.9843C39.0823 68.5916 39.1896 74.539 39.3444 76.7326C40.0593 78.6212 41.2864 81.0963 43.4308 83.5246C44.6818 84.944 46.5165 86.9851 49.6498 88.2989C50.6982 88.7447 51.6155 88.991 52.2827 89.1318C52.8546 88.6274 53.4145 88.123 53.9864 87.6185C52.1517 85.507 50.305 83.29 48.4584 81.0025C47.0407 79.2546 45.6825 77.5185 44.372 75.8059C44.4197 74.363 44.7294 71.7471 46.3259 69.0139C47.2313 67.4654 48.2916 66.3393 49.1375 65.5768C48.8516 62.9843 48.5656 60.3919 48.2797 57.7877Z" fill="white" stroke="#161616" stroke-width="0.4"/>
<path opacity="0.13" d="M48.5061 60.4036C45.075 64.2161 43.4428 67.8291 42.6326 70.1048C41.2149 74.0463 41.5128 76.1108 41.7272 77.0962C41.9059 77.8704 42.2991 79.196 43.7406 81.2136C44.9916 82.9615 47.6245 86.0936 52.6401 88.6743C53.081 88.252 53.5218 87.8414 53.9626 87.4191C52.5448 85.8472 51.1152 84.1932 49.6736 82.4688C47.7794 80.2048 46.0161 77.976 44.384 75.7941C44.4316 74.6093 44.6341 72.9553 45.3371 71.1019C46.3974 68.3218 48.0653 66.4918 49.1018 65.5181C48.8873 63.8172 48.6967 62.1163 48.5061 60.4036Z" fill="#6D6C6C"/>
<path opacity="0.16" d="M44.3721 75.9466C44.5865 77.3191 45.0273 79.0669 45.9566 80.9556C48.0057 85.0613 51.2105 87.3253 52.8427 88.3106C53.1644 88.0291 53.4741 87.7593 53.7958 87.4778C50.6506 83.6301 47.5173 79.7825 44.3721 75.9466Z" fill="#6D6C6C"/>
<path d="M70.3559 57.5766C72.0953 58.6206 74.335 60.2511 76.277 62.6794C80.685 68.181 80.554 74.0228 80.3872 76.1812C79.5771 78.0347 78.207 80.4629 75.8004 82.8559C74.3946 84.2401 72.3335 86.2461 68.819 87.5482C67.6395 87.9822 66.603 88.2285 65.8525 88.3693C65.2211 87.8766 64.5777 87.3839 63.9463 86.8912C65.9954 84.8149 68.0803 82.6448 70.1533 80.3925C71.7378 78.6681 73.2628 76.9672 74.7401 75.2897C74.6805 73.882 74.3469 71.3131 72.548 68.615C71.5234 67.0901 70.3439 65.9874 69.3908 65.2366C69.7244 62.6794 70.0461 60.1338 70.3559 57.5766Z" fill="white" stroke="#161616" stroke-width="0.4"/>
<path opacity="0.16" d="M70.2723 60.4271C71.7853 61.9873 73.8464 64.4859 75.4547 67.9698C76.2172 69.6239 77.4562 72.3102 77.4801 74.844C77.5634 82.5509 66.4837 87.8532 65.8404 88.1581C65.2089 87.7593 64.5894 87.3722 63.958 86.9734C67.544 83.1023 71.1181 79.2312 74.7042 75.3601C74.6327 74.0932 74.3348 71.7354 72.9052 69.225C71.7257 67.1604 70.2604 65.8231 69.2953 65.0841C69.6289 63.5357 69.9506 61.9873 70.2723 60.4271Z" fill="#6D6C6C"/>
<path opacity="0.12" d="M74.8237 75.3953C74.645 76.4159 74.3471 77.5303 73.8825 78.6799C71.7857 83.8882 67.5444 86.7388 65.4 87.9587C64.8877 87.6303 64.3873 87.3018 63.875 86.9734C67.5206 83.114 71.1662 79.2547 74.8237 75.3953Z" fill="#6D6C6C"/>
<rect x="43.8003" y="76.2634" width="29.2958" height="18.2645" fill="white" stroke="#161616" stroke-width="0.4"/>
<path d="M58.0252 87.1376C56.4764 87.3253 55.7259 85.4718 56.1309 84.2401C56.5241 83.0202 57.9895 82.4454 59.1808 82.8677C60.3603 83.29 60.9321 84.7094 60.5152 85.8472C60.0505 87.1141 58.4303 87.6303 57.2389 87.0672C57.0364 86.9734 56.8457 87.2784 57.0602 87.3722C58.1205 87.8766 59.4191 87.6889 60.265 86.8678C61.087 86.0584 61.2062 84.7797 60.6939 83.7826C59.5263 81.5069 55.9165 82.2342 55.6663 84.7328C55.5352 86.0701 56.5122 87.6772 58.0252 87.5012C58.2516 87.466 58.2516 87.1141 58.0252 87.1376V87.1376Z" fill="#161616"/>
<path opacity="0.14" d="M54.7964 76.2165C58.7637 77.5773 61.4681 81.0613 61.5515 84.8033C61.6587 89.4955 57.6557 93.9062 52.1992 94.352C59.1449 94.4106 66.0906 94.4693 73.0482 94.5279C73.0244 88.4046 73.0124 82.2812 72.9886 76.1696C66.9245 76.1696 60.8605 76.1931 54.7964 76.2165Z" fill="#6D6C6C"/>
<path opacity="0.26" d="M73.0483 76.1578C72.9411 79.8881 72.1906 82.7973 71.5591 84.7094C70.6299 87.4895 69.9627 89.5189 68.0446 91.3137C65.4355 93.7771 62.1831 94.2346 60.7534 94.3519C64.816 94.3871 68.8786 94.4223 72.9411 94.4692C72.953 90.9852 72.9769 87.5012 73.0007 84.0055C73.0007 81.3896 73.0245 78.7737 73.0483 76.1578Z" fill="#6D6C6C"/>
<path d="M57.5843 48.3798C56.929 49.1658 57.5604 50.1277 57.4413 52.6967C57.3817 53.9753 57.1673 55.0076 57.0005 55.6997C57.5604 55.9578 58.5493 56.3214 59.824 56.3566C61.3966 56.3918 62.588 55.9108 63.1718 55.6293C62.9097 55.1132 62.5642 54.3155 62.3497 53.2832C61.8136 50.6555 62.7667 49.4238 61.9804 48.4502C61.0631 47.3241 58.4659 47.3123 57.5843 48.3798Z" fill="white" stroke="#161616" stroke-width="0.4"/>
<path d="M53.4265 37.095C52.6759 38.9953 52.9618 40.708 53.1286 41.447C53.0572 41.4588 51.6633 41.752 51.282 42.8078C50.9008 43.8753 51.6871 45.3885 53.3312 45.8812C53.9269 47.3123 55.3684 50.0807 58.4064 51.594C58.9187 51.8403 59.4072 52.0397 59.8956 52.1805C60.3364 52.0163 60.9321 51.7582 61.6112 51.3711C63.7318 50.1628 64.9113 48.6613 65.1853 48.2977C65.6857 47.6408 66.3647 46.585 66.8413 45.1304C67.1034 45.1774 67.568 45.2008 68.0208 44.9779C69.0453 44.4618 69.5576 42.8547 68.8428 41.8107C68.2471 40.9426 67.0915 40.9074 66.9485 40.9074C67.1034 40.2974 67.5799 38.1038 66.3767 35.9337C64.9947 33.4351 62.0282 32.1212 59.2404 32.4966C55.1182 33.0245 53.498 36.9073 53.4265 37.095Z" fill="white" stroke="#161616" stroke-width="0.4"/>
<path d="M57.4295 51.4884C58.1562 51.9107 58.9544 52.5676 59.848 52.4972C60.5866 52.4386 61.4087 52.0163 61.9686 51.5705C62.1473 51.4298 61.8971 51.1834 61.7184 51.3242C61.1942 51.7347 60.3483 52.1688 59.6573 52.157C58.9306 52.1453 58.192 51.5471 57.5963 51.1834C57.4176 51.0661 57.2389 51.3711 57.4295 51.4884V51.4884Z" fill="#161616"/>
<path d="M57.3819 51.6409C58.061 52.2157 58.8354 52.8609 59.7885 52.814C60.7177 52.767 61.5874 52.157 62.195 51.5001C62.3499 51.3359 62.0997 51.0896 61.9449 51.2538C61.4207 51.8169 60.682 52.3682 59.8719 52.4503C58.9783 52.5324 58.2635 51.9342 57.6321 51.3946C57.4653 51.2421 57.2151 51.4884 57.3819 51.6409V51.6409Z" fill="#161616"/>
<path d="M57.8346 51.7113C57.8346 51.6996 57.8346 51.6996 57.8346 51.7113C57.7631 51.6057 57.6321 51.5822 57.5487 51.6644C57.5487 51.6644 57.5487 51.6644 57.5368 51.6761C57.4653 51.7347 57.4653 51.8638 57.5368 51.9224C58.8473 53.1541 61.2538 53.553 62.195 51.6644C62.2903 51.4649 61.9925 51.2773 61.8853 51.4884C61.0513 53.1776 58.9426 52.767 57.7989 51.6761C57.7989 51.7582 57.7989 51.8403 57.7989 51.9224C57.7989 51.9224 57.7989 51.9224 57.8108 51.9107C57.7155 51.899 57.6202 51.8872 57.5249 51.8755V51.8872C57.644 52.0749 57.9537 51.899 57.8346 51.7113V51.7113Z" fill="#161616"/>
<path d="M59.2641 40.8605C59.1093 42.7609 59.1927 44.6495 59.5024 46.5264C59.5143 46.6202 59.6335 46.6789 59.7169 46.6437C60.1815 46.4912 60.5151 46.2214 60.7653 45.8108C60.8844 45.6114 60.5747 45.4354 60.4555 45.6349C60.253 45.975 60.0028 46.1745 59.6216 46.3035C59.693 46.3387 59.7645 46.3856 59.836 46.4208C59.5263 44.5791 59.4548 42.7139 59.6096 40.8488C59.6454 40.6259 59.288 40.6259 59.2641 40.8605V40.8605Z" fill="#161616"/>
<path d="M57.1436 42.7257C57.1674 42.8312 57.3461 43.4882 57.1436 43.5937C56.9411 43.6993 56.3692 43.277 56.1905 42.7257C56.0475 42.2564 56.1667 41.6699 56.393 41.623C56.6313 41.5643 57.0006 42.2095 57.1436 42.7257Z" fill="#161616" stroke="#161616" stroke-width="0.4"/>
<path d="M63.2913 42.7257C63.3151 42.8312 63.4938 43.4882 63.2913 43.5937C63.0888 43.6993 62.5169 43.277 62.3382 42.7257C62.1952 42.2564 62.3144 41.6699 62.5407 41.623C62.779 41.5643 63.1483 42.2095 63.2913 42.7257Z" fill="#161616" stroke="#161616" stroke-width="0.4"/>
<path d="M58.8352 48.0748C60.2887 48.6848 61.6111 47.8285 62.6833 46.9018C62.862 46.7493 62.5999 46.5029 62.4331 46.6554C61.5039 47.4531 60.3125 48.3094 59.0258 47.7698C58.7995 47.6877 58.6207 47.9927 58.8352 48.0748V48.0748Z" fill="#161616"/>
<path d="M63.0289 44.5908C63.2553 44.5908 63.2553 44.2389 63.0289 44.2389C62.8025 44.2389 62.8025 44.5908 63.0289 44.5908V44.5908Z" fill="#161616"/>
<path d="M64.3514 43.9339C64.3633 43.9222 64.3752 43.9105 64.3871 43.8987C64.4586 43.8283 64.4586 43.7228 64.3871 43.6524C64.3157 43.582 64.2084 43.582 64.137 43.6524C64.125 43.6641 64.1131 43.6759 64.1012 43.6876C64.0297 43.758 64.0297 43.8635 64.1012 43.9339C64.1727 44.0043 64.2799 44.0043 64.3514 43.9339V43.9339Z" fill="#161616"/>
<path d="M63.9582 44.7903C63.9702 44.7903 63.9821 44.7903 63.994 44.7903C64.0893 44.7903 64.1727 44.7081 64.1727 44.6143C64.1727 44.5205 64.0893 44.4383 63.994 44.4383C63.9821 44.4383 63.9702 44.4383 63.9582 44.4383C63.8629 44.4383 63.7795 44.5205 63.7795 44.6143C63.7795 44.7081 63.851 44.7903 63.9582 44.7903V44.7903Z" fill="#161616"/>
<path d="M55.7376 40.6259C56.1904 40.2505 56.8575 40.2388 57.3102 40.6024C57.489 40.7432 57.7391 40.4969 57.5604 40.3561C56.9409 39.8634 56.0831 39.8634 55.4755 40.3796C55.3087 40.5203 55.5708 40.7667 55.7376 40.6259V40.6259Z" fill="#161616"/>
<path d="M61.5514 40.4969C62.0637 40.0511 62.7904 39.969 63.398 40.2857C63.6006 40.3913 63.7793 40.0863 63.5767 39.9807C62.8262 39.5819 61.9327 39.6875 61.3012 40.2505C61.1225 40.403 61.3727 40.6494 61.5514 40.4969V40.4969Z" fill="#161616"/>
<path d="M55.8331 44.5556C56.0595 44.5556 56.0595 44.2037 55.8331 44.2037C55.6067 44.2037 55.6067 44.5556 55.8331 44.5556V44.5556Z" fill="#161616"/>
<path d="M57.0958 44.3914C57.3222 44.3914 57.3222 44.0395 57.0958 44.0395C56.8694 44.0395 56.8694 44.3914 57.0958 44.3914V44.3914Z" fill="#161616"/>
<path d="M56.4646 44.6612C56.4527 44.6729 56.4408 44.6847 56.4289 44.6964C56.3574 44.7668 56.3574 44.8724 56.4289 44.9428C56.5003 45.0131 56.6076 45.0131 56.679 44.9428C56.691 44.931 56.7029 44.9193 56.7148 44.9076C56.7863 44.8372 56.7863 44.7316 56.7148 44.6612C56.6433 44.5908 56.5361 44.5908 56.4646 44.6612V44.6612Z" fill="#161616"/>
<path d="M55.3686 33.2826C54.6538 33.7166 53.0931 34.6668 52.0327 36.614C50.9724 38.5496 50.9843 40.3795 51.032 41.1655C49.2926 44.2506 48.5063 46.9721 48.125 48.8256C47.5055 51.7699 47.8391 52.8491 48.268 53.5647C49.3164 55.3243 51.4251 55.7583 51.9374 55.8639C54.5704 56.4152 56.6672 55.0897 57.1437 54.7847C57.2748 54.3976 57.4058 53.9166 57.4773 53.377C57.6083 52.4503 57.5369 51.6526 57.4296 51.0778C56.834 50.5969 56.143 49.9517 55.4758 49.1071C54.4631 47.8167 53.8913 46.5498 53.5696 45.6348C52.5212 45.5293 51.7349 44.8254 51.6634 44.0395C51.5919 43.3005 52.1161 42.3503 52.8071 42.3503C53.3194 42.3503 53.6887 42.8664 53.7602 42.9603C54.1534 42.7374 54.7014 42.3503 55.1899 41.7403C55.8928 40.8605 56.0119 40.0745 56.3336 39.2534C56.6433 38.4557 57.239 37.3531 58.5257 36.2035C59.7647 36.6375 60.7536 37.0598 61.4326 37.3765C63.6128 38.3736 64.8519 38.9601 65.8169 40.2388C66.353 40.9426 66.627 41.6347 66.77 42.0687C67.878 41.2359 68.3307 41.4588 68.426 41.5057C69.1289 41.8928 69.1051 44.016 68.009 44.6025C67.592 44.8254 67.1155 44.7668 66.8176 44.6964C66.4721 45.8812 65.7097 47.8167 63.9583 49.5294C63.3746 50.1042 62.7789 50.5499 62.2428 50.8901C62.1951 51.3242 62.1713 51.9224 62.2904 52.6263C62.3977 53.2714 62.5883 53.7993 62.767 54.1747C65.662 56.0516 69.2599 55.7114 71.2138 53.6937C72.9532 51.8872 72.9532 49.154 72.2979 47.2888C71.7022 45.5879 70.5466 44.5674 69.9748 44.1216C70.1296 43.4647 70.9874 39.5701 68.4975 35.9923C67.8541 35.0656 66.0552 32.8251 62.8146 32.0508C59.3835 31.2297 56.5599 32.567 55.3686 33.2826Z" fill="#5222D0"/>
<path opacity="0.17" d="M62.9217 38.1038C64.2679 39.7696 64.6253 41.3063 64.7445 42.104C65.2329 45.4589 63.2553 48.1804 62.2545 49.5763C61.4325 50.7142 60.5866 51.5236 59.979 52.0515C60.5032 53.4357 61.0155 54.8082 61.5397 56.1924C62.0758 56.0164 62.6119 55.8404 63.148 55.6645C62.8979 55.2305 62.6358 54.6908 62.4332 54.0339C62.0639 52.8609 62.0401 51.8286 62.0758 51.1248C62.7311 50.6673 63.4935 50.0455 64.2322 49.2244C65.7095 47.5821 66.4481 45.8929 66.8294 44.7551C67.0677 44.802 67.5799 44.8606 68.0684 44.5908C69.093 44.016 68.9262 42.5849 68.9143 42.4911C68.8785 42.1861 68.807 41.6934 68.4496 41.494C68.0327 41.2711 67.3417 41.4822 66.7936 42.1157C66.6268 41.5409 66.1503 40.2153 64.8636 39.1596C64.1488 38.5731 63.4221 38.2681 62.9217 38.1038Z" fill="#6D6C6C"/>
<path opacity="0.19" d="M59.431 40.9661C59.3595 40.9544 59.1213 41.9749 58.3945 46.4795C58.8115 46.4795 59.2285 46.4795 59.6455 46.4795C59.5621 45.8812 59.4668 45.0131 59.4191 43.9574C59.3595 42.1509 59.5025 40.9778 59.431 40.9661Z" fill="#6D6C6C"/>
<path opacity="0.54" d="M69.903 44.2389C69.7005 44.3562 70.463 45.3651 70.3557 46.8666C70.32 47.3358 70.2485 48.4033 69.3907 49.1188C69.3312 49.1658 68.0564 50.198 66.7935 49.5411C66.043 49.154 65.5903 48.3329 65.6141 47.4414C65.2567 48.0983 64.6729 48.9663 63.7555 49.8109C63.1837 50.3388 62.6237 50.7259 62.1353 51.0192C62.0995 51.5353 62.0995 52.2392 62.2902 53.0368C62.3974 53.4709 62.5284 53.8463 62.6595 54.1512C63.0288 54.3859 63.5768 54.7026 64.2917 54.9489C64.7444 55.1014 67.2343 55.9578 69.6647 54.773C70.0936 54.5618 71.0467 54.0809 71.7377 53.0486C71.8211 52.9195 72.1309 52.462 72.3572 51.6878C73.1674 49.0367 71.976 46.6437 71.8688 46.4443C71.2135 45.1422 70.1532 44.0982 69.903 44.2389Z" fill="#341999"/>
<path opacity="0.35" d="M53.5573 45.6818C53.4501 45.6935 53.6884 46.6554 53.4263 47.6056C53.2357 48.3094 52.6281 49.459 51.5916 49.6936C50.5074 49.9282 49.1612 49.1423 48.5417 47.676C48.2557 48.3211 47.8745 49.3534 47.8149 50.6673C47.7792 51.5236 47.7315 52.4386 48.1604 53.3418C49.1254 55.3595 51.9609 56.1454 54.0696 55.9577C55.4754 55.8287 56.5357 55.2891 57.1076 54.9255C57.2506 54.5266 57.3935 54.0457 57.4888 53.4943C57.6437 52.5442 57.608 51.7113 57.5246 51.1013C56.5834 50.4327 55.9401 49.7405 55.535 49.2361C54.9631 48.5206 54.1888 47.5587 53.7956 46.2214C53.736 46.0689 53.6288 45.67 53.5573 45.6818Z" fill="#341999"/>
</svg>
