<svg width="130" height="222" viewBox="0 0 130 222" fill="none" xmlns="http://www.w3.org/2000/svg">
<path d="M107.713 151.889C107.652 154.022 107.591 156.154 107.53 158.307C110.231 158.489 112.911 158.652 115.612 158.835C115.612 156.641 115.612 154.448 115.612 152.255C112.972 152.133 110.353 152.011 107.713 151.889Z" fill="white" stroke="#161616" stroke-width="0.3"/>
<path d="M111.226 175.589C111.591 177.945 111.754 179.895 111.835 181.296C112.099 185.946 111.896 187.023 111.49 187.876C110.495 189.968 108.687 190.841 108.85 191.125C108.971 191.308 109.865 191.105 113.845 189.013C113.602 184.383 113.378 179.773 113.135 175.143C112.505 175.305 111.876 175.447 111.226 175.589Z" fill="white" stroke="#161616" stroke-width="0.3"/>
<path d="M105.966 160.662C109.418 160.683 112.87 160.723 116.323 160.744C115.937 165.374 115.571 169.984 115.185 174.614C112.18 174.37 109.154 174.147 106.148 173.903C106.067 169.496 106.006 165.09 105.966 160.662Z" fill="white" stroke="#161616" stroke-width="0.3"/>
<path d="M107.368 175.426C108.464 178.087 108.83 180.381 108.952 181.925C109.134 184.199 109.256 185.946 108.16 187.103C107.753 187.55 107.083 187.977 105.784 188.85C104.626 189.622 104.078 189.906 104.118 189.987C104.179 190.109 105.296 189.865 110.17 188.139C110.495 186.494 110.759 184.382 110.698 181.905C110.617 179.264 110.19 177.01 109.723 175.325C108.952 175.365 108.16 175.386 107.368 175.426Z" fill="white" stroke="#161616" stroke-width="0.3"/>
<path d="M109.134 191.307C109.743 190.8 110.312 190.251 110.86 189.662C111.489 188.972 112.424 187.916 113.398 188.83C113.419 188.667 113.439 188.505 113.459 188.342C112.017 189.053 110.596 189.764 109.154 190.454C108.87 190.597 109.012 191.023 109.316 191.023C110.677 191.043 111.53 188.667 112.931 189.114C113.297 189.236 113.459 188.647 113.094 188.525C112.485 188.342 112.017 188.505 111.51 188.87C110.921 189.297 110.088 190.414 109.337 190.414C109.398 190.597 109.438 190.8 109.499 190.983C110.941 190.272 112.363 189.561 113.805 188.87C113.987 188.789 114.008 188.525 113.866 188.383C113.317 187.875 112.342 187.693 111.652 188.018C111.144 188.241 110.819 188.83 110.454 189.216C109.905 189.805 109.337 190.333 108.728 190.861C108.403 191.125 108.829 191.571 109.134 191.307Z" fill="#161616"/>
<path d="M111.632 188.139C112.241 188.16 112.83 188.281 113.399 188.525C113.744 188.688 114.069 188.16 113.703 187.997C113.033 187.693 112.363 187.53 111.632 187.51C111.246 187.53 111.246 188.139 111.632 188.139Z" fill="#161616"/>
<path d="M108.301 187.429C108.768 187.55 109.174 187.794 109.499 188.16C109.763 188.444 110.19 188.018 109.926 187.733C109.52 187.307 109.012 187.002 108.443 186.86C108.098 186.738 107.936 187.327 108.301 187.429Z" fill="#161616"/>
<path d="M105.011 189.886C105.641 189.419 106.291 188.992 106.961 188.586C107.266 188.403 107.591 188.16 107.915 188.058C108.423 187.875 108.728 187.997 109.195 188.2C109.195 188.017 109.195 187.855 109.195 187.672C108.545 187.957 107.814 187.936 107.144 188.221C106.494 188.485 105.885 189.134 105.215 189.256C105.296 189.439 105.377 189.622 105.458 189.805C106.656 189.216 107.997 189.114 109.195 188.525C109.54 188.342 109.236 187.835 108.89 187.997C107.692 188.586 106.352 188.688 105.154 189.277C104.829 189.439 105.072 189.886 105.397 189.825C106.128 189.703 106.717 189.033 107.408 188.769C108.098 188.505 108.85 188.485 109.52 188.2C109.723 188.119 109.723 187.753 109.52 187.672C108.748 187.327 108.403 187.124 107.631 187.53C106.616 188.058 105.661 188.688 104.747 189.358C104.382 189.581 104.686 190.109 105.011 189.886Z" fill="#161616"/>
<path d="M108.484 178.534C108.992 178.351 109.5 178.371 109.967 178.615C110.312 178.798 110.617 178.27 110.272 178.087C109.662 177.762 108.972 177.701 108.322 177.945C107.956 178.087 108.119 178.676 108.484 178.534Z" fill="#161616"/>
<path d="M108.991 180.565C109.418 180.524 109.824 180.625 110.149 180.91C110.453 181.153 110.88 180.727 110.575 180.483C110.129 180.118 109.58 179.915 108.991 179.955C108.605 179.976 108.605 180.585 108.991 180.565Z" fill="#161616"/>
<path d="M109.215 183.103C109.601 183.062 109.966 183.204 110.19 183.529C110.393 183.854 110.921 183.55 110.718 183.225C110.413 182.717 109.824 182.412 109.235 182.494C109.073 182.514 108.931 182.615 108.931 182.798C108.91 182.94 109.052 183.123 109.215 183.103Z" fill="#161616"/>
<path d="M111.835 178.391C112.2 178.188 112.668 178.209 113.013 178.493C113.317 178.737 113.744 178.31 113.439 178.066C112.891 177.62 112.16 177.518 111.53 177.863C111.185 178.066 111.49 178.594 111.835 178.391Z" fill="#161616"/>
<path d="M112.18 182.229C112.505 182.087 112.87 182.148 113.134 182.392C113.419 182.656 113.866 182.229 113.561 181.965C113.094 181.539 112.444 181.437 111.855 181.722C111.51 181.864 111.835 182.392 112.18 182.229Z" fill="#161616"/>
<path d="M112.261 185.479C112.586 185.276 112.992 185.276 113.297 185.52C113.601 185.763 114.028 185.337 113.723 185.093C113.215 184.667 112.505 184.606 111.956 184.971C111.631 185.175 111.936 185.703 112.261 185.479Z" fill="#161616"/>
<path d="M116.811 160.723C116.405 165.394 115.998 170.065 115.592 174.736" stroke="#161616" stroke-width="0.3"/>
<path d="M106.088 174.086C109.479 174.33 112.871 174.553 116.262 174.797" stroke="#161616" stroke-width="0.3"/>
<path d="M116.282 152.072C116.201 154.387 116.1 156.682 116.018 158.997" stroke="#161616" stroke-width="0.3"/>
<path d="M116.709 163.465C118.598 163.12 120.608 164.602 120.751 166.552C120.954 168.989 118.172 169.415 116.344 169.151C115.958 169.09 115.795 169.679 116.181 169.74C118.415 170.065 121.563 169.435 121.36 166.552C121.197 164.176 118.821 162.449 116.547 162.876C116.161 162.937 116.323 163.526 116.709 163.465Z" fill="#161616"/>
<path d="M116.262 170.228C117.054 170.39 117.684 170.959 117.907 171.73C118.009 172.116 118.598 171.954 118.496 171.568C118.232 170.593 117.44 169.821 116.445 169.639C116.039 169.578 115.876 170.146 116.262 170.228Z" fill="#161616"/>
<path d="M115.957 170.024C116.445 170.735 116.668 171.527 116.587 172.4C116.567 172.786 117.176 172.786 117.196 172.4C117.257 171.446 117.013 170.512 116.465 169.72C116.262 169.395 115.734 169.699 115.957 170.024Z" fill="#161616"/>
<path d="M105.946 163.181C104.606 162.328 102.148 164.785 101.844 165.983C101.234 168.42 104.362 168.136 105.662 168.948C105.987 169.151 106.291 168.623 105.966 168.42C105.032 167.831 103.651 168.055 102.839 167.323C101.844 166.43 102.758 165.354 103.448 164.724C103.814 164.399 105.052 163.323 105.641 163.688C105.966 163.932 106.291 163.404 105.946 163.181Z" fill="#161616"/>
<path d="M105.62 168.664C105.092 168.867 104.605 169.172 104.199 169.598C103.894 169.923 103.508 170.431 103.813 170.877C104.036 171.202 104.564 170.898 104.341 170.573C104.199 170.37 104.727 169.923 104.869 169.801C105.133 169.557 105.438 169.375 105.783 169.253C106.148 169.111 106.006 168.522 105.62 168.664Z" fill="#161616"/>
<path d="M105.377 169.09C104.991 169.699 104.869 170.39 105.011 171.08C105.092 171.466 105.681 171.304 105.6 170.918C105.478 170.369 105.6 169.862 105.905 169.395C106.128 169.07 105.6 168.765 105.377 169.09Z" fill="#161616"/>
<path d="M107.306 162.795C107.205 164.277 107.225 165.78 107.327 167.263C107.367 167.648 107.976 167.648 107.936 167.263C107.814 165.78 107.814 164.277 107.916 162.795C107.956 162.409 107.347 162.409 107.306 162.795Z" fill="#161616"/>
<path d="M107.753 162.957C109.905 163.079 112.038 163.16 114.19 163.201C114.089 163.099 113.987 162.998 113.886 162.896C113.825 164.419 113.764 165.963 113.683 167.486C113.662 167.872 114.272 167.872 114.292 167.486C114.353 165.963 114.414 164.419 114.495 162.896C114.495 162.734 114.353 162.592 114.19 162.592C112.038 162.551 109.905 162.47 107.753 162.348C107.367 162.328 107.367 162.937 107.753 162.957Z" fill="#161616"/>
<path d="M107.51 167.527C108.403 167.77 109.398 167.709 110.292 167.77C111.388 167.831 112.505 167.913 113.602 167.973C113.988 167.994 113.988 167.385 113.602 167.364C112.627 167.303 111.652 167.242 110.678 167.181C109.703 167.121 108.606 167.181 107.652 166.938C107.306 166.836 107.144 167.425 107.51 167.527Z" fill="#161616"/>
<path d="M108.199 170.675C108.565 171.467 109.357 170.776 109.966 171.061C110.25 171.182 110.189 171.365 110.575 171.386C111.022 171.406 112.119 170.512 112.342 171.345C112.403 171.568 112.687 171.629 112.85 171.487C113.053 171.426 113.276 171.365 113.479 171.325C113.723 171.629 114.17 171.182 113.906 170.898C113.439 170.35 112.85 170.654 112.403 171.061C112.565 171.101 112.748 171.142 112.911 171.203C112.728 170.492 111.976 170.025 111.266 170.35C110.92 170.512 110.88 170.817 110.352 170.614C110.25 170.573 110.21 170.411 110.108 170.37C109.885 170.289 108.707 170.411 108.707 170.39C108.565 170.005 108.037 170.309 108.199 170.675Z" fill="#161616"/>
<path d="M109.276 154.692C109.317 154.468 109.581 154.407 109.763 154.488C110.027 154.59 110.169 154.895 110.291 155.118C110.454 155.463 110.982 155.159 110.819 154.813C110.596 154.367 110.251 153.899 109.702 153.839C109.256 153.798 108.789 154.062 108.707 154.509C108.606 154.915 109.195 155.077 109.276 154.692Z" fill="#161616"/>
<path d="M113.013 154.976C113.053 154.773 113.236 154.651 113.439 154.732C113.683 154.814 113.784 155.118 113.825 155.342C113.886 155.728 114.475 155.565 114.414 155.179C114.333 154.692 114.008 154.184 113.48 154.103C113.013 154.042 112.505 154.326 112.424 154.814C112.363 155.2 112.952 155.362 113.013 154.976Z" fill="#161616"/>
<path d="M109.58 155.972C110.271 157.19 111.916 157.373 112.809 156.276C113.053 155.972 112.627 155.545 112.383 155.85C111.733 156.642 110.616 156.581 110.108 155.667C109.926 155.322 109.398 155.626 109.58 155.972Z" fill="#161616"/>
<path d="M88.2783 45.6173C85.7194 44.5816 84.176 42.104 83.2418 39.6264C82.2467 37.0473 81.8203 34.2447 81.9624 31.4828C82.2061 26.3855 84.3791 21.2272 88.4001 17.9779C92.1977 14.8911 97.8231 14.0178 102.047 16.8204C106.454 19.7447 107.246 25.7762 107.287 30.6299C107.327 36.0318 106.068 41.6978 102.067 45.5767C101.783 45.8407 102.21 46.2874 102.494 46.0031C106.292 42.3071 107.733 37.0269 107.876 31.8687C108.018 26.812 107.408 20.4149 103.245 16.9422C99.3462 13.6929 93.5584 13.8554 89.3952 16.4954C84.7853 19.4198 82.064 24.7202 81.475 30.0613C81.1095 33.3715 81.5156 36.8036 82.7341 39.931C83.7699 42.5711 85.4148 45.0893 88.1361 46.1859C88.4813 46.3484 88.6235 45.7594 88.2783 45.6173Z" fill="#161616"/>
<path d="M87.9942 46.0033C87.3037 46.9781 87.4459 48.42 88.4613 49.1511C89.233 49.6994 90.3703 49.7806 91.2841 49.9025C92.3808 50.0649 93.4977 50.1258 94.6147 50.1258C96.6049 50.1055 98.8794 49.9634 100.727 49.1917C102.068 48.623 103.083 47.2827 102.372 45.8408C102.21 45.4956 101.682 45.8002 101.844 46.1455C103.367 49.2526 96.1581 49.5166 94.5944 49.5166C93.1525 49.5166 91.7106 49.3948 90.3093 49.1307C89.6392 49.0089 88.8878 48.8871 88.4613 48.2981C88.0348 47.6889 88.1161 46.8969 88.5222 46.3282C88.7456 45.983 88.2176 45.6784 87.9942 46.0033Z" fill="#161616"/>
<path d="M88.6438 49.2932C88.6438 50.3086 88.6641 51.3443 88.786 52.3597C88.8469 52.8268 88.9484 53.233 89.3343 53.5173C89.8826 53.9234 90.7965 53.9031 91.4463 53.964C92.543 54.0453 93.6599 54.0453 94.7565 54.0047C95.7923 53.964 96.828 53.8828 97.8637 53.7813C98.4729 53.7204 99.1634 53.7407 99.6305 53.2736C100.666 52.2582 100.687 50.3289 100.423 49.0495C100.341 48.6636 99.7523 48.8261 99.8336 49.212C99.9757 49.9024 100.016 50.5929 99.8742 51.3037C99.6711 52.2988 99.3868 52.9486 98.2698 53.1517C96.9701 53.3954 95.5079 53.3954 94.1879 53.4157C92.8882 53.436 91.426 53.497 90.1466 53.1923C88.9687 52.908 89.2734 50.268 89.2734 49.2932C89.253 48.9073 88.6438 48.9073 88.6438 49.2932Z" fill="#161616"/>
<path d="M88.8464 27.4211C91.2833 28.9442 93.1314 31.1781 94.1671 33.8588C94.3092 34.2243 94.8982 34.0618 94.756 33.6963C93.6594 30.8532 91.7301 28.4974 89.1713 26.8931C88.8261 26.6697 88.5214 27.1977 88.8464 27.4211Z" fill="#161616"/>
<path d="M94.6546 33.8587C95.8528 31.3404 97.5993 29.1878 99.8332 27.5225C100.138 27.2991 99.8332 26.7508 99.5286 26.9945C97.2135 28.7207 95.3857 30.9546 94.1266 33.554C93.9642 33.8993 94.4922 34.2039 94.6546 33.8587Z" fill="#161616"/>
<path d="M94.1672 33.1481C94.4718 37.3316 94.614 41.5151 94.5531 45.6985C94.5531 46.0844 95.1623 46.0844 95.1623 45.6985C95.2232 41.5151 95.0811 37.3113 94.7765 33.1481C94.7359 32.742 94.1266 32.742 94.1672 33.1481Z" fill="#161616"/>
<path d="M70.3865 43.3837C73.0875 42.4698 75.7682 41.5559 78.4691 40.6421C78.8347 40.5202 78.6722 39.9313 78.3067 40.0531C75.6057 40.967 72.925 41.8809 70.224 42.7947C69.8382 42.9166 70.0007 43.5055 70.3865 43.3837Z" fill="#161616"/>
<path d="M73.4737 39.3219C74.4079 39.0579 75.342 38.7736 76.2762 38.5096C76.6418 38.408 76.4996 37.8191 76.1137 37.9207C75.1796 38.1847 74.2454 38.469 73.3112 38.733C72.9457 38.8548 73.0878 39.4438 73.4737 39.3219Z" fill="#161616"/>
<path d="M66.7105 32.5593C70.2848 32.5187 73.8387 32.6202 77.3926 32.8436C77.7785 32.8639 77.7785 32.2546 77.3926 32.2343C73.8387 32.011 70.2645 31.9297 66.7105 31.95C66.3247 31.95 66.3247 32.5593 66.7105 32.5593Z" fill="#161616"/>
<path d="M74.2653 29.7972C75.1182 30.0206 75.9915 30.1221 76.8647 30.1424C77.2506 30.1424 77.2506 29.5332 76.8647 29.5332C76.0321 29.5129 75.2198 29.4113 74.4278 29.2083C74.0419 29.1067 73.8795 29.6956 74.2653 29.7972Z" fill="#161616"/>
<path d="M72.9454 10.8904C76.1338 13.632 79.0378 16.6376 81.6576 19.9275C81.9013 20.2321 82.3277 19.8057 82.084 19.501C79.4643 16.2111 76.5602 13.1852 73.3719 10.4639C73.0876 10.1999 72.6408 10.6264 72.9454 10.8904Z" fill="#161616"/>
<path d="M81.8609 16.6582C82.4092 17.2268 82.9372 17.7954 83.4856 18.3844C83.7496 18.6687 84.176 18.2422 83.912 17.9579C83.3637 17.3893 82.8357 16.8206 82.2874 16.2317C82.0234 15.9474 81.5969 16.3739 81.8609 16.6582Z" fill="#161616"/>
<path d="M69.4932 17.7954C70.4883 18.3843 71.5037 18.9326 72.5394 19.4403C72.8846 19.6231 73.1893 19.0951 72.844 18.9123C71.8083 18.3843 70.7929 17.836 69.7978 17.2674C69.4526 17.0643 69.1479 17.5923 69.4932 17.7954Z" fill="#161616"/>
<path d="M104.829 13.165C107.835 10.1594 110.84 7.15376 113.846 4.14816C114.13 3.86385 113.683 3.43738 113.419 3.72169C110.414 6.72729 107.408 9.73289 104.403 12.7385C104.118 13.0228 104.545 13.4493 104.829 13.165Z" fill="#161616"/>
<path d="M107.855 14.5664C108.627 13.9978 109.398 13.4494 110.17 12.8808C110.475 12.6574 110.19 12.1294 109.865 12.3528C109.094 12.9214 108.322 13.4697 107.55 14.0384C107.225 14.2618 107.53 14.7898 107.855 14.5664Z" fill="#161616"/>
<path d="M95.4469 9.18434C96.0562 6.23967 96.5233 3.27468 96.8076 0.289391C96.8482 -0.0964635 96.239 -0.0964635 96.1983 0.289391C95.914 3.21376 95.4673 6.13813 94.858 9.02188C94.7768 9.40773 95.3657 9.5702 95.4469 9.18434Z" fill="#161616"/>
<path d="M112.526 27.8679C118.05 27.3602 123.553 26.8525 129.077 26.3448C129.463 26.3042 129.463 25.695 129.077 25.7356C123.553 26.2433 118.05 26.751 112.526 27.2587C112.14 27.279 112.12 27.8882 112.526 27.8679Z" fill="#161616"/>
<path d="M89.3139 46.7344C92.746 47.4858 96.239 47.4655 99.6507 46.6938C100.037 46.6125 99.8741 46.0236 99.4883 46.1048C96.178 46.8562 92.7866 46.8765 89.4764 46.1455C89.0905 46.0642 88.928 46.6532 89.3139 46.7344Z" fill="#161616"/>
<path d="M89.8214 51.8924C92.4411 52.2377 95.0609 52.3189 97.7009 52.1361C98.0868 52.1158 98.0868 51.5066 97.7009 51.5269C95.0609 51.7097 92.4411 51.6284 89.8214 51.2832C89.4355 51.2426 89.4355 51.8518 89.8214 51.8924Z" fill="#161616"/>
<path d="M108.688 44.6831C112.81 47.5871 117.014 50.3896 121.279 53.0906C121.604 53.2937 121.908 52.7657 121.583 52.5626C117.319 49.8616 113.115 47.0591 108.992 44.155C108.667 43.9317 108.363 44.4597 108.688 44.6831Z" fill="#161616"/>
<path d="M56.8007 187.531C52.9421 192.262 49.1039 196.974 45.2454 201.706C49.7741 217.627 52.3329 221.811 53.856 221.587C54.9526 221.425 55.4806 219.049 56.0696 216.388C57.5318 209.748 56.6585 204.041 55.765 200.487C58.2019 197.766 60.6186 195.024 63.0556 192.303C60.9638 190.719 58.8924 189.135 56.8007 187.531Z" fill="#161616" stroke="#161616" stroke-width="0.3"/>
<path d="M42.5646 163.16C44.9812 165.029 47.2964 164.359 52.0891 165.171C56.171 165.861 60.7606 167.385 65.6346 170.431C60.4357 176.523 55.2368 182.961 50.0786 189.744C48.8398 191.389 47.601 193.034 46.4028 194.679C48.393 195.146 50.7894 195.877 53.3888 197.055C55.9273 198.192 57.9987 199.471 59.6437 200.629C67.3811 193.887 74.2859 187.368 80.4392 181.214C83.2823 178.371 87.3033 174.025 87.9329 167.872C87.9735 167.527 87.9735 167.222 87.9735 166.917C87.8314 156.702 74.9763 149.31 67.1577 146.589C58.608 143.624 43.9049 142.02 39.8027 149.107C37.386 153.291 38.8076 160.256 42.5646 163.16Z" fill="#4C4C4C"/>
<path opacity="0.29" d="M57.5726 152.946C57.4304 154.875 57.0852 157.17 56.3744 159.708C55.8667 161.516 55.2574 163.12 54.6482 164.481C53.978 164.745 53.3282 165.009 52.658 165.273C57.0242 166.999 61.4108 168.725 65.777 170.451C62.5277 174.168 59.2581 178.067 55.9682 182.129C52.5768 186.312 49.3478 190.414 46.2812 194.456C48.4542 195.166 50.6069 195.877 52.7798 196.568C60.5579 187.998 68.3359 179.407 76.1139 170.837C76.9262 168.502 76.8856 166.674 76.6419 165.395C75.5249 159.14 67.8688 154.042 57.5726 152.946Z" fill="#282828"/>
<path opacity="0.24" d="M65.7366 170.41C66.4473 171.486 67.1378 172.583 67.8486 173.659C61.7968 180.95 55.745 188.22 49.6931 195.511C48.6168 195.227 47.5202 194.922 46.4438 194.638C50.3227 189.317 54.5062 183.854 59.0349 178.351C61.2891 175.609 63.523 172.969 65.7366 170.41Z" fill="#111111"/>
<path d="M45.5302 179.813C51.5211 180.91 57.5323 181.986 63.5232 183.083C70.4482 198.192 71.2199 203.066 69.9202 203.898C68.986 204.487 67.0365 203.025 64.8635 201.38C59.4209 197.258 56.395 192.343 54.7501 189.033C51.1352 188.545 47.5204 188.038 43.9055 187.55C44.4335 184.971 44.9818 182.392 45.5302 179.813Z" fill="#161616" stroke="#161616" stroke-width="0.3"/>
<path d="M33.1822 146.163C22.2564 149.371 15.5954 156.032 11.3104 160.419C5.52255 166.369 -1.58529 173.66 0.465826 179.042C1.52185 181.783 4.73053 183.469 19.6773 186.068C30.9686 188.038 40.7571 189.094 48.393 189.683C49.3475 186.19 50.3019 182.717 51.2361 179.224C43.5596 176.747 35.9035 174.289 28.227 171.812C32.9385 170.817 37.8937 169.639 43.0519 168.197C46.9714 167.1 50.7081 165.963 54.262 164.765C57.5519 158.124 58.2627 150.955 54.8306 146.894C50.0379 141.208 39.2949 144.355 33.1822 146.163Z" fill="#4C4C4C"/>
<path opacity="0.29" d="M57.4915 153.189C57.3899 155.2 57.0447 157.779 56.1105 160.622C55.5419 162.348 54.892 163.851 54.2422 165.09C53.6938 165.13 53.1455 165.191 52.5972 165.232C47.967 166.755 43.0321 168.197 37.8129 169.537C34.4418 170.41 31.1518 171.162 27.9635 171.852C35.6602 174.269 43.357 176.665 51.0538 179.082C50.8913 179.915 50.6882 180.788 50.4445 181.702C50.1602 182.758 49.8353 183.733 49.5307 184.626C38.9095 182.006 28.2884 179.387 17.6673 176.767C17.1799 176.178 15.5755 174.046 15.8192 171.223C16.0832 168.156 19.0076 165.983 22.7443 163.993C33.5482 158.266 51.663 154.387 57.4915 153.189Z" fill="#282828"/>
<path opacity="0.24" d="M22.5002 172.279C24.4295 172.137 26.3791 171.994 28.3084 171.832C35.8833 174.35 43.4582 176.889 51.0331 179.407C50.7082 180.605 50.3833 181.824 50.0584 183.022C40.8791 179.427 31.6795 175.853 22.5002 172.279Z" fill="#111111"/>
<path d="M30.3188 100.144C33.3244 98.3776 38.5436 95.8594 45.489 95.1283C56.1305 94.0113 64.2943 97.8292 67.5233 99.5554C66.9344 107.537 66.0205 113.913 65.2894 118.3C64.4162 123.539 63.7054 126.443 63.3805 131.256C62.9743 137.288 63.482 142.243 63.9491 145.492C60.4155 146.589 55.0744 147.787 48.4946 147.645C42.1585 147.503 37.0408 146.122 33.6088 144.924C34.5226 137.653 34.218 131.886 33.7712 127.966C33.2635 123.6 32.573 121.468 31.7404 116.188C30.6641 109.364 30.3798 103.78 30.3188 100.144Z" fill="white" stroke="#161616" stroke-width="0.3"/>
<path opacity="0.14" d="M52.2921 97.545C52.7186 99.0884 53.206 101.221 53.5309 103.78C53.7543 105.506 54.6681 113.324 51.825 123.641C50.0785 129.997 48.2305 136.719 42.1787 142.243C40.2291 144.03 38.3404 145.228 36.9595 145.98C40.026 146.772 44.0267 147.523 48.7585 147.564C54.9525 147.625 60.0701 146.508 63.624 145.411C63.4209 143.888 63.1569 141.593 63.0554 138.831C62.9742 136.415 62.9742 132.556 64.6394 121.691C65.9595 113.142 66.8936 109.466 67.3607 101.728C67.4216 100.835 67.4419 100.083 67.4826 99.5758C66.0001 98.7025 64.0708 97.7481 61.6948 96.9763C59.5015 96.2656 57.5316 95.9 55.9069 95.7375C54.7291 96.3265 53.5106 96.9357 52.2921 97.545Z" fill="#6D6C6C"/>
<path opacity="0.17" d="M66.8939 102.886C65.7566 109.324 64.2538 114.523 63.076 118.138C59.6236 128.698 57.2069 135.806 50.688 141.005C46.6467 144.234 42.4429 145.594 39.7419 146.244C42.4835 147.016 46.3624 147.767 51.0536 147.666C56.4555 147.544 60.8218 146.325 63.6852 145.29C63.2994 142.812 62.8526 139.096 62.9744 134.567C63.1166 128.698 64.0711 125.164 65.1271 118.727C65.716 114.949 66.4674 109.547 66.8939 102.886Z" fill="#6D6C6C"/>
<path d="M30.1969 100.043C27.5569 101.871 24.1654 104.754 21.2004 109.039C14.5191 118.747 14.7018 129.043 14.9658 132.841C16.1843 136.11 18.2761 140.395 21.9315 144.599C24.0639 147.056 27.1913 150.59 32.5324 152.864C34.3195 153.636 35.8832 154.063 37.0205 154.306C37.9952 153.433 38.9497 152.56 39.9245 151.687C36.7971 148.031 33.6493 144.193 30.5016 140.233C28.0849 137.207 25.7698 134.201 23.5359 131.236C23.6171 128.738 24.1451 124.21 26.8664 119.478C28.4098 116.797 30.2172 114.848 31.6591 113.528C31.1717 109.039 30.6843 104.551 30.1969 100.043Z" fill="white" stroke="#161616" stroke-width="0.3"/>
<path opacity="0.13" d="M30.5828 104.572C24.7341 111.172 21.9519 117.427 20.5709 121.367C18.1543 128.19 18.662 131.765 19.0275 133.47C19.3321 134.811 20.0023 137.106 22.4596 140.599C24.5919 143.625 29.08 149.047 37.6298 153.515C38.3812 152.783 39.1326 152.073 39.884 151.342C37.4673 148.62 35.0303 145.757 32.573 142.772C29.344 138.852 26.3384 134.994 23.5562 131.216C23.6375 129.165 23.9827 126.302 25.1809 123.093C26.9883 118.28 29.8314 115.112 31.5982 113.426C31.2327 110.482 30.9078 107.537 30.5828 104.572Z" fill="#6D6C6C"/>
<path opacity="0.16" d="M23.5361 131.48C23.9017 133.856 24.6531 136.882 26.2371 140.152C29.7301 147.26 35.193 151.179 37.9752 152.885C38.5235 152.398 39.0515 151.93 39.5998 151.443C34.2385 144.782 28.8975 138.121 23.5361 131.48Z" fill="#6D6C6C"/>
<path d="M67.8276 99.6772C70.7926 101.485 74.6105 104.307 77.9208 108.511C85.4348 118.036 85.2114 128.149 84.927 131.886C83.5461 135.095 81.2107 139.298 77.1084 143.441C74.7121 145.838 71.1988 149.31 65.2079 151.564C63.1974 152.316 61.4306 152.742 60.1512 152.986C59.0748 152.133 57.9782 151.28 56.9019 150.427C60.3949 146.833 63.9488 143.076 67.4824 139.177C70.1834 136.191 72.7828 133.247 75.301 130.342C75.1995 127.906 74.6308 123.458 71.5643 118.787C69.8178 116.147 67.8073 114.238 66.1827 112.938C66.7513 108.511 67.2996 104.104 67.8276 99.6772Z" fill="white" stroke="#161616" stroke-width="0.3"/>
<path opacity="0.16" d="M67.6849 104.613C70.2641 107.314 73.7774 111.639 76.519 117.671C77.8187 120.534 79.9307 125.185 79.9713 129.571C80.1135 142.914 61.227 152.093 60.1303 152.621C59.054 151.93 57.998 151.26 56.9216 150.57C63.0344 143.868 69.1268 137.166 75.2395 130.465C75.1177 128.272 74.61 124.19 72.173 119.844C70.1625 116.269 67.6646 113.954 66.0197 112.675C66.5883 109.994 67.1366 107.314 67.6849 104.613Z" fill="#6D6C6C"/>
<path opacity="0.12" d="M75.4429 130.525C75.1383 132.292 74.6306 134.221 73.8386 136.212C70.2644 145.228 63.0347 150.163 59.3792 152.275C58.506 151.707 57.653 151.138 56.7798 150.569C62.9941 143.888 69.2084 137.207 75.4429 130.525Z" fill="#6D6C6C"/>
<rect x="22.561" y="132.029" width="49.9377" height="31.6197" fill="white" stroke="#161616" stroke-width="0.3"/>
<path d="M46.8093 150.854C44.1693 151.179 42.8899 147.97 43.5804 145.838C44.2505 143.726 46.7484 142.731 48.7792 143.462C50.7897 144.193 51.7645 146.65 51.0537 148.62C50.2617 150.813 47.4998 151.707 45.469 150.732C45.1238 150.57 44.7988 151.098 45.1644 151.26C46.9718 152.133 49.1854 151.808 50.6273 150.387C52.0285 148.986 52.2316 146.772 51.3584 145.046C49.3682 141.106 43.2148 142.365 42.7883 146.691C42.5649 149.006 44.2302 151.788 46.8093 151.484C47.1952 151.423 47.1952 150.813 46.8093 150.854Z" fill="#161616"/>
<path opacity="0.14" d="M41.3053 131.947C48.0679 134.303 52.6779 140.334 52.82 146.812C53.0028 154.936 46.1793 162.572 36.8782 163.343C48.7178 163.445 60.5574 163.546 72.4174 163.648C72.3768 153.047 72.3564 142.446 72.3158 131.866C61.979 131.866 51.6422 131.906 41.3053 131.947Z" fill="#6D6C6C"/>
<path opacity="0.26" d="M72.4174 131.845C72.2347 138.303 70.9553 143.34 69.8789 146.65C68.2949 151.463 67.1576 154.976 63.888 158.083C59.4406 162.348 53.8964 163.14 51.4595 163.343C58.3845 163.404 65.3096 163.465 72.2347 163.546C72.255 157.515 72.2956 151.483 72.3362 145.431C72.3362 140.903 72.3768 136.374 72.4174 131.845Z" fill="#6D6C6C"/>
<path d="M46.0576 83.756C44.9407 85.1167 46.017 86.7819 45.8139 91.2294C45.7124 93.443 45.3468 95.2301 45.0625 96.4283C46.017 96.8751 47.7026 97.5046 49.8755 97.5655C52.5562 97.6265 54.587 96.7938 55.5821 96.3064C55.1353 95.4129 54.5464 94.0319 54.1808 92.2448C53.267 87.6958 54.8916 85.5634 53.5513 83.8779C51.9876 81.9283 47.5604 81.908 46.0576 83.756Z" fill="#9A9A9A" stroke="#161616" stroke-width="0.3"/>
<path d="M38.9698 64.22C37.6904 67.5099 38.1778 70.4749 38.4621 71.7543C38.3403 71.7746 35.9642 72.2823 35.3144 74.11C34.6645 75.9581 36.0048 78.5778 38.8074 79.4308C39.8228 81.9083 42.28 86.7011 47.4586 89.3208C48.3319 89.7473 49.1645 90.0925 49.9971 90.3362C50.7485 90.0519 51.7639 89.6051 52.9215 88.9349C56.5363 86.8432 58.5468 84.2438 59.0139 83.6142C59.8669 82.477 61.0244 80.6492 61.8368 78.131C62.2835 78.2123 63.0756 78.2529 63.8473 77.867C65.5938 76.9735 66.467 74.1913 65.2485 72.3838C64.2331 70.881 62.2632 70.8201 62.0195 70.8201C62.2835 69.7641 63.0959 65.9665 61.0447 62.2095C58.689 57.8838 53.6323 55.6093 48.8802 56.2592C41.8536 57.1731 39.0917 63.895 38.9698 64.22Z" fill="#9A9A9A" stroke="#161616" stroke-width="0.3"/>
<path d="M45.7938 89.1379C47.0326 89.869 48.3932 91.0062 49.9163 90.8844C51.1754 90.7829 52.5767 90.0518 53.5312 89.2801C53.8358 89.0364 53.4093 88.6099 53.1047 88.8536C52.2111 89.5644 50.7693 90.3158 49.5914 90.2955C48.3526 90.2752 47.0935 89.2394 46.0781 88.6099C45.7735 88.4068 45.4688 88.9348 45.7938 89.1379Z" fill="#161616"/>
<path d="M45.7127 89.4016C46.8702 90.3967 48.1902 91.5137 49.8149 91.4324C51.3989 91.3512 52.8814 90.2952 53.9171 89.1579C54.1811 88.8736 53.7547 88.4471 53.4907 88.7315C52.5971 89.7062 51.338 90.6607 49.9571 90.8029C48.4339 90.945 47.2155 89.9093 46.1391 88.9752C45.8548 88.7111 45.4283 89.1376 45.7127 89.4016Z" fill="#161616"/>
<path d="M46.4843 89.5238C46.4843 89.5035 46.4843 89.5035 46.4843 89.5238C46.3625 89.341 46.1391 89.3004 45.9969 89.4425C45.9969 89.4425 45.9969 89.4425 45.9766 89.4628C45.8548 89.5644 45.8548 89.7878 45.9766 89.8893C48.2105 92.0217 52.3128 92.7121 53.9171 89.4425C54.0796 89.0973 53.5719 88.7724 53.3891 89.1379C51.9675 92.0623 48.373 91.3515 46.4234 89.4628C46.4234 89.605 46.4234 89.7472 46.4234 89.8893C46.4234 89.8893 46.4234 89.8893 46.4437 89.869C46.2813 89.8487 46.1188 89.8284 45.9563 89.8081V89.8284C46.1594 90.1533 46.6874 89.8487 46.4843 89.5238Z" fill="#161616"/>
<path d="M48.9209 70.7388C48.6569 74.0288 48.7991 77.2984 49.3271 80.5477C49.3474 80.7101 49.5505 80.8117 49.6926 80.7507C50.4846 80.4867 51.0533 80.0197 51.4797 79.3089C51.6828 78.9636 51.1548 78.659 50.9517 79.0043C50.6065 79.5932 50.18 79.9384 49.5302 80.1618C49.652 80.2227 49.7739 80.304 49.8957 80.3649C49.3677 77.1765 49.2458 73.9475 49.5098 70.7185C49.5708 70.3327 48.9615 70.3327 48.9209 70.7388Z" fill="#161616"/>
<path d="M45.3057 73.9674C45.3463 74.1502 45.6509 75.2874 45.3057 75.4702C44.9604 75.653 43.9856 74.9219 43.681 73.9674C43.4373 73.1551 43.6404 72.1397 44.0263 72.0585C44.4324 71.9569 45.062 73.0739 45.3057 73.9674Z" fill="#161616" stroke="#161616" stroke-width="0.3"/>
<path d="M55.7854 73.9674C55.826 74.1502 56.1306 75.2874 55.7854 75.4702C55.4402 75.653 54.4654 74.9219 54.1608 73.9674C53.9171 73.1551 54.1201 72.1397 54.506 72.0585C54.9122 71.9569 55.5417 73.0739 55.7854 73.9674Z" fill="#161616" stroke="#161616" stroke-width="0.3"/>
<path d="M48.19 83.2281C50.6676 84.2841 52.9218 82.8016 54.7495 81.1973C55.0541 80.9333 54.6074 80.5068 54.323 80.7708C52.739 82.1518 50.7082 83.6343 48.5149 82.7001C48.1291 82.5579 47.8245 83.0859 48.19 83.2281Z" fill="#161616"/>
<path d="M42.9097 70.3325C43.6814 69.6827 44.8186 69.6623 45.5903 70.2919C45.895 70.5356 46.3214 70.1091 46.0168 69.8654C44.9608 69.0125 43.4986 69.0125 42.4629 69.906C42.1786 70.1497 42.6253 70.5762 42.9097 70.3325Z" fill="#161616"/>
<path d="M52.8198 70.1095C53.6931 69.3377 54.9319 69.1956 55.9676 69.7439C56.3128 69.9267 56.6175 69.3987 56.2722 69.2159C54.9928 68.5254 53.4697 68.7082 52.3934 69.683C52.0887 69.947 52.5152 70.3735 52.8198 70.1095Z" fill="#161616"/>
<path d="M42.2804 57.6193C41.0619 58.3707 38.4016 60.0157 36.5942 63.3868C34.7867 66.7377 34.807 69.9057 34.8883 71.2664C31.9233 76.6074 30.583 81.3189 29.9331 84.5276C28.8771 89.6249 29.4457 91.4933 30.1768 92.7321C31.9639 95.7783 35.5584 96.5297 36.4317 96.7125C40.9198 97.6669 44.494 95.3721 45.3063 94.8441C45.5297 94.1739 45.7531 93.3413 45.875 92.4071C46.0984 90.8028 45.9765 89.4218 45.7937 88.4268C44.7783 87.5941 43.6005 86.4772 42.4632 85.015C40.737 82.7811 39.7622 80.5878 39.2139 79.0038C37.4268 78.821 36.0865 77.6025 35.9646 76.2419C35.8428 74.9625 36.7363 73.3175 37.9142 73.3175C38.7874 73.3175 39.417 74.2111 39.5388 74.3735C40.209 73.9877 41.1432 73.3175 41.9758 72.2615C43.174 70.7384 43.3771 69.3777 43.9254 67.9562C44.4534 66.5752 45.4688 64.6663 47.6621 62.6761C49.7741 63.4275 51.4597 64.1586 52.6173 64.7069C56.3336 66.4331 58.4457 67.4485 60.0906 69.662C61.0045 70.8805 61.4716 72.0787 61.7153 72.8301C63.6039 71.3882 64.3757 71.7741 64.5381 71.8553C65.7363 72.5255 65.6957 76.2013 63.8273 77.2167C63.1166 77.6025 62.3042 77.501 61.7965 77.3791C61.2076 79.4303 59.9079 82.7811 56.9226 85.7461C55.9275 86.7412 54.9121 87.5129 53.9982 88.1018C53.917 88.8532 53.8764 89.8889 54.0794 91.1074C54.2622 92.2244 54.5871 93.1382 54.8918 93.7881C59.8266 97.0374 65.9597 96.4485 69.2902 92.9555C72.2552 89.828 72.2552 85.0962 71.1383 81.8672C70.1229 78.9226 68.153 77.1557 67.1782 76.384C67.4422 75.2468 68.9044 68.5045 64.66 62.3105C63.5633 60.7062 60.4968 56.8273 54.973 55.487C49.1243 54.0654 44.3112 56.3805 42.2804 57.6193Z" fill="#191919"/>
<path opacity="0.17" d="M55.156 65.9663C57.4508 68.8501 58.0601 71.5104 58.2631 72.8914C59.0958 78.6995 55.7246 83.411 54.0187 85.8276C52.6175 87.7975 51.1756 89.1988 50.1399 90.1127C51.0334 92.509 51.9067 94.8851 52.8003 97.2814C53.7141 96.9768 54.628 96.6722 55.5419 96.3676C55.1154 95.6162 54.6686 94.682 54.3234 93.5447C53.6938 91.5139 53.6532 89.7268 53.7141 88.5083C54.8311 87.7163 56.1308 86.64 57.3899 85.2184C59.9081 82.3753 61.1672 79.4509 61.8171 77.481C62.2232 77.5622 63.0965 77.6638 63.9291 77.1967C65.6756 76.2016 65.3913 73.724 65.371 73.5615C65.3101 73.0335 65.1882 72.1806 64.579 71.8354C63.8682 71.4495 62.6903 71.815 61.7561 72.9117C61.4718 71.9166 60.6595 69.6218 58.4662 67.794C57.2477 66.7786 56.0089 66.2506 55.156 65.9663Z" fill="#6D6C6C"/>
<path opacity="0.19" d="M49.2053 70.9213C49.0834 70.901 48.6773 72.6678 47.4385 80.4661C48.1493 80.4661 48.86 80.4661 49.5708 80.4661C49.4287 79.4304 49.2662 77.9276 49.185 76.0999C49.0834 72.9724 49.3271 70.9416 49.2053 70.9213Z" fill="#6D6C6C"/>
<path opacity="0.54" d="M67.0561 76.5872C66.7108 76.7903 68.0106 78.5368 67.8278 81.1363C67.7669 81.9486 67.645 83.7966 66.1828 85.0354C66.0813 85.1167 63.9083 86.9038 61.7557 85.7665C60.4763 85.0963 59.7045 83.6748 59.7452 82.1314C59.1359 83.2686 58.1408 84.7714 56.5771 86.2336C55.6023 87.1475 54.6478 87.8176 53.8152 88.3253C53.7543 89.2189 53.7543 90.4374 54.0792 91.8183C54.262 92.5697 54.4854 93.2196 54.7087 93.7476C55.3383 94.1538 56.2725 94.7021 57.491 95.1286C58.2627 95.3926 62.5071 96.8751 66.6499 94.8239C67.381 94.4584 69.0057 93.6258 70.1835 91.8386C70.3257 91.6153 70.8537 90.8232 71.2396 89.4829C72.6205 84.8933 70.5897 80.7504 70.4069 80.4052C69.29 78.151 67.4826 76.3436 67.0561 76.5872Z" fill="#282828"/>
<path opacity="0.35" d="M39.1938 79.0854C39.011 79.1057 39.4172 80.771 38.9704 82.4159C38.6455 83.6344 37.6098 85.6246 35.8429 86.0308C33.9949 86.4369 31.7001 85.0763 30.6441 82.5378C30.1567 83.6547 29.5068 85.4418 29.4053 87.7163C29.3444 89.1988 29.2631 90.7829 29.9942 92.3466C31.6392 95.8396 36.4725 97.2002 40.067 96.8753C42.4634 96.6519 44.2708 95.7177 45.2456 95.0882C45.4893 94.3977 45.733 93.5651 45.8955 92.6106C46.1595 90.9656 46.0985 89.5238 45.9564 88.4677C44.352 87.3102 43.2554 86.112 42.5649 85.2388C41.5901 84 40.2701 82.3347 39.5999 80.0196C39.4984 79.7556 39.3156 79.0651 39.1938 79.0854Z" fill="#282828"/>
</svg>
