<svg width="172" height="183" viewBox="0 0 172 183" fill="none" xmlns="http://www.w3.org/2000/svg">
<path d="M88.7978 119.736C90.4146 115.503 93.1589 112.737 95.9883 109.865C99.7111 106.1 106.625 99.1007 113.667 100.207C119.666 101.143 119.006 106.908 127.239 111.099C135.004 115.077 137.982 111.142 145.726 115.418C146.874 116.056 154.98 120.672 156.83 129.394C157.596 133.011 157.405 137.967 155.809 138.435C154.001 138.967 153.384 128.543 146.151 124.459C140.62 121.332 133.004 122.842 132.387 125.076C131.728 127.437 139.365 128.99 143.683 137.202C145.577 140.775 145.981 144.03 146.555 148.498C147.087 152.71 147.683 161.347 145.726 161.857C144.109 162.283 143.237 156.518 137.301 151.795C134.174 149.306 130.834 148.285 124.154 146.243C118.134 144.413 115.092 143.52 113.454 145.009C111.029 147.221 112.901 152.838 113.241 153.837C115.624 160.985 121.708 163.964 121.261 164.729C120.665 165.687 109.561 162.921 100.498 154.05C92.7547 146.456 84.0964 132.011 88.7978 119.736Z" fill="#515151"/>
<path d="M158.256 144.392C158.171 144.988 157.724 148.307 159.681 150.434C161.851 152.774 164.489 150.987 167.148 153.306C169.595 155.433 169.275 158.624 170.02 158.561C170.871 158.497 172.169 154.178 170.339 151.562C169.765 150.732 168.361 149.987 165.574 148.541C162.723 147.052 162.34 147.115 161.596 146.307C159.745 144.307 160.021 141.691 159.362 141.691C158.851 141.691 158.405 143.265 158.256 144.392Z" fill="#515151"/>
<path d="M139.961 169.367C138.769 171.154 138.897 173.069 139.003 175.09C139.131 177.153 139.216 178.834 140.429 180.344C141.811 182.068 144.109 182.791 144.407 182.408C144.641 182.11 143.598 181.302 142.662 179.536C142.556 179.323 141.173 176.707 141.237 173.643C141.301 169.814 143.556 167.538 142.981 167.134C142.556 166.814 140.918 167.921 139.961 169.367Z" fill="#515151"/>
<path d="M148.491 134.096C152.065 136.458 150.108 141.925 152.448 145.116C152.682 145.435 153.235 145.116 153.001 144.797C150.576 141.478 152.639 136.075 148.81 133.543C148.47 133.309 148.151 133.862 148.491 134.096Z" fill="#989899"/>
<path d="M147.215 118.694C151.044 121.63 153.703 125.82 154.767 130.522C154.852 130.926 155.469 130.756 155.384 130.352C154.278 125.48 151.512 121.183 147.555 118.162C147.193 117.885 146.874 118.439 147.215 118.694Z" fill="#989899"/>
<path d="M134.876 130.479C137.939 132.99 140.343 136.202 141.832 139.882C141.981 140.265 142.598 140.095 142.449 139.712C140.896 135.925 138.493 132.628 135.323 130.033C135.025 129.777 134.557 130.224 134.876 130.479Z" fill="#989899"/>
<path d="M143.322 143.392C143.896 144.924 144.279 146.477 144.428 148.094C144.471 148.498 145.109 148.498 145.066 148.094C144.896 146.413 144.513 144.796 143.917 143.222C143.811 142.839 143.194 143.009 143.322 143.392Z" fill="#989899"/>
<path d="M110.582 146.924C110.05 150.136 110.667 153.349 112.411 156.114C112.624 156.455 113.177 156.135 112.964 155.795C111.326 153.2 110.688 150.136 111.199 147.094C111.262 146.69 110.645 146.52 110.582 146.924Z" fill="#989899"/>
<path d="M113.262 157.859C114.028 159.263 115.007 160.518 116.177 161.603C116.474 161.879 116.921 161.433 116.623 161.156C115.496 160.092 114.56 158.88 113.815 157.539C113.624 157.178 113.071 157.497 113.262 157.859Z" fill="#989899"/>
<path d="M88.8403 125.437C88.6701 127.458 88.8616 129.458 89.436 131.415C89.5423 131.819 90.1593 131.649 90.0529 131.245C89.4998 129.33 89.3083 127.416 89.4785 125.437C89.5211 125.033 88.8829 125.033 88.8403 125.437Z" fill="#989899"/>
<path d="M90.0742 133.585C90.4146 135.245 91.0315 136.777 91.925 138.223C92.1377 138.563 92.6908 138.244 92.4781 137.904C91.6272 136.5 91.0315 135.032 90.6911 133.415C90.606 133.032 89.9891 133.203 90.0742 133.585Z" fill="#989899"/>
<path d="M34.5288 0.604492C33.9332 2.22128 33.2099 4.43372 32.5078 7.11417C31.7845 9.901 30.0827 17.2403 30.2529 26.8985C30.423 36.2163 32.2526 43.0663 33.9332 49.1718C36.5498 58.7023 39.7408 65.5524 41.6342 69.5305C41.6342 69.5305 47.6546 82.2734 57.6318 95.9309C59.3975 98.3348 61.6525 101.377 61.6525 101.377C63.2906 103.568 64.6946 105.398 65.6732 106.717C66.4603 107.61 67.4602 108.61 68.7578 109.567C71.183 111.375 73.5869 112.29 75.2675 112.758C78.0331 110.397 80.7986 108.014 83.5642 105.653C84.8193 106.844 86.0957 108.014 87.3508 109.206C89.0953 107.419 90.6482 105.993 91.8608 104.951C97.1367 100.377 101.498 98.037 102.519 97.4839C103.391 97.0159 104.136 96.6542 104.646 96.4202C103.859 94.846 103.072 93.2717 102.285 91.6762C103.561 90.57 105.029 89.4 106.667 88.2512C108.88 86.6982 111.007 85.4431 112.943 84.4645C112.922 82.6776 112.688 79.9758 111.518 76.9975C110.645 74.7638 109.603 73.2534 109.156 72.6152C104.242 65.5311 118.729 85.0602 99.7958 58.0429C92.4565 47.5763 88.7974 42.3218 87.1168 40.1519C81.8623 33.2805 77.7352 28.5791 74.7995 25.2392C69.1833 18.8359 66.6518 16.4532 64.6095 14.7088C61.8227 12.2836 58.738 9.66699 54.0791 7.24182C51.1434 5.7314 48.7182 4.90173 45.1868 3.68915C40.8258 2.2 37.1455 1.22142 34.5288 0.604492Z" fill="white"/>
<path d="M33.8698 0.987267C29.2535 15.2192 29.2535 30.5787 32.5721 45.0872C33.4018 48.7249 34.4442 52.3202 35.678 55.8303C36.295 57.6173 37.0395 59.3617 37.699 61.1274C37.933 61.7443 37.9756 62.3612 38.2521 62.9782C38.6563 63.9355 39.0818 64.8928 39.5073 65.8501C40.2944 67.6371 41.124 69.4028 41.9963 71.1685C42.8685 72.9129 43.9321 74.5722 44.7193 76.3379C45.0171 76.9974 45.2724 77.6994 45.6128 78.3376C46.0595 79.146 46.719 79.7629 47.187 80.5501C48.1656 82.1881 49.1016 83.8687 50.1227 85.4855C54.7816 92.995 60.0787 100.079 65.5035 107.036C65.7587 107.355 66.2055 106.908 65.9502 106.589C61.1637 100.441 56.4835 94.2076 52.2713 87.6767C51.2289 86.0599 50.2291 84.4431 49.2505 82.7838C48.7825 81.9967 48.3145 81.1883 47.8677 80.3799C47.421 79.5928 46.8253 79.0396 46.3573 78.2738C45.9744 77.6356 45.6978 76.9548 45.4213 76.2741C45.0384 75.3593 44.5278 74.5297 44.0598 73.6575C43.1663 72.0194 42.3366 70.3601 41.5495 68.6795C40.7199 66.9138 39.9327 65.1268 39.1456 63.3398C38.8052 62.5527 38.6776 61.723 38.3585 60.9146C38.0181 60.0424 37.6565 59.1702 37.3161 58.2767C36.0184 54.8517 34.8909 51.3629 33.9549 47.8102C32.0828 40.6197 30.9979 33.2379 30.8915 25.7921C30.7851 17.4317 31.9339 9.07119 34.5293 1.09363C34.5931 0.774532 33.9762 0.604344 33.8698 0.987267Z" fill="black"/>
<path d="M34.1672 0.987114C37.7199 1.26367 41.3364 2.49753 44.6763 3.66757C47.9737 4.83761 51.2286 6.11402 54.2494 7.85845C60.2698 11.3473 65.5882 15.9211 70.4385 20.8991C75.4378 26.026 79.9903 31.6635 84.3939 37.3009C88.7762 42.9171 92.9671 48.7248 97.0091 54.5963C101.477 61.1272 105.774 67.7858 109.986 74.5082C110.199 74.8486 110.752 74.5295 110.539 74.1891C102.817 61.9143 94.8392 49.7885 85.9681 38.3008C77.3949 27.1748 68.2048 15.8147 56.164 8.26264C52.8879 6.19912 49.3778 4.70997 45.7613 3.36974C42.1022 2.02951 38.1028 0.646739 34.1885 0.327637C33.763 0.327637 33.763 0.965841 34.1672 0.987114Z" fill="black"/>
<path d="M66.418 106.844C76.3314 96.7392 87.4787 87.8682 99.5408 80.465C102.945 78.3802 106.391 76.4231 109.922 74.5935C110.284 74.4021 109.965 73.849 109.603 74.0404C97.0731 80.5927 85.3301 88.6553 74.7572 98.0369C71.7364 100.717 68.8006 103.504 65.9713 106.397C65.6734 106.695 66.1202 107.142 66.418 106.844Z" fill="black"/>
<path d="M65.8009 107.334C68.3324 110.163 71.6298 112.163 75.3101 113.056C75.7143 113.163 75.8845 112.546 75.4803 112.439C71.8851 111.546 68.7154 109.631 66.2476 106.866C65.9711 106.568 65.5243 107.036 65.8009 107.334Z" fill="black"/>
<path d="M109.816 74.7641C111.475 77.6785 112.432 80.8908 112.645 84.2308C112.666 84.635 113.304 84.635 113.283 84.2308C113.07 80.7632 112.071 77.4658 110.369 74.445C110.177 74.0833 109.624 74.4024 109.816 74.7641Z" fill="black"/>
<path d="M75.6932 112.886C87.2021 102.377 99.6684 92.9745 112.964 84.8268C113.305 84.6141 112.986 84.0609 112.645 84.2737C99.328 92.4427 86.7979 101.888 75.2464 112.44C74.9486 112.716 75.3953 113.163 75.6932 112.886Z" fill="black"/>
<path d="M83.713 106.035C84.883 107.184 86.053 108.333 87.2231 109.503C87.3507 109.631 87.5635 109.631 87.6698 109.503C91.1161 105.844 94.9879 102.61 99.2213 99.9087C100.242 99.2493 101.285 98.6323 102.349 98.0367C103.029 97.6538 104.327 97.2921 104.731 96.5688C105.157 95.8455 104.518 94.8669 104.178 94.25C103.582 93.165 102.88 92.1652 102.115 91.2292C101.859 90.9101 101.412 91.3568 101.668 91.6759C102.412 92.5907 103.072 93.548 103.625 94.5691C103.753 94.7818 104.029 95.1435 104.05 95.3988C103.965 95.7817 103.88 96.1433 103.795 96.5263C103.689 96.5901 103.582 96.6326 103.476 96.6964C103.051 97.0155 102.497 97.207 102.029 97.4836C100.179 98.526 98.3704 99.6535 96.626 100.866C93.2222 103.27 90.0737 106.014 87.2231 109.035C87.372 109.035 87.5209 109.035 87.6698 109.035C86.4998 107.886 85.3297 106.738 84.1597 105.567C83.8619 105.291 83.4151 105.738 83.713 106.035Z" fill="black"/>
<path d="M35.38 53.5972C40.6132 47.4279 46.74 42.0882 53.0157 37.0039C59.3126 31.9195 65.9074 27.1542 73.2893 23.7718C73.6722 23.6016 73.3318 23.0485 72.9702 23.2187C65.6521 26.5586 59.1212 31.2813 52.8668 36.3018C46.4847 41.45 40.2516 46.8748 34.9332 53.1292C34.6567 53.4695 35.1034 53.9163 35.38 53.5972Z" fill="black"/>
<path d="M73.4168 26.7506C72.7148 26.7931 72.417 25.6231 73.2041 25.5593C73.4807 25.538 73.7998 25.6656 73.9061 25.9422C74.055 26.3464 73.6721 26.7718 73.2679 26.7718C72.9701 26.7718 72.9488 27.2611 73.2679 27.2611C73.9274 27.2611 74.5018 26.6442 74.3954 25.9847C74.3103 25.4316 73.7359 25.0912 73.2041 25.1125C72.6297 25.1551 72.183 25.6231 72.2468 26.1975C72.3106 26.7718 72.8212 27.3037 73.4168 27.2611C73.7359 27.2186 73.7359 26.7293 73.4168 26.7506Z" fill="black"/>
<path d="M105.901 73.807C105.923 73.807 105.923 73.807 105.944 73.7857C105.88 73.7857 105.816 73.7645 105.752 73.7645C105.986 73.8708 105.859 73.4241 105.837 73.3603C105.837 73.2964 105.859 73.2113 105.88 73.1475C105.944 73.0199 106.05 72.8922 106.178 72.8284C106.454 72.7008 106.752 72.9135 106.837 73.1901C107.007 73.7432 106.199 74.0197 105.986 73.5304C105.859 73.2539 105.455 73.4879 105.582 73.7645C105.837 74.3601 106.71 74.4027 107.135 73.9559C107.624 73.4241 107.263 72.5306 106.603 72.3391C105.901 72.1477 105.22 72.8922 105.391 73.573C105.455 73.8496 105.816 74.1899 106.093 73.9134C106.305 73.7006 106.093 73.2326 105.774 73.3603C105.497 73.4666 105.625 73.9134 105.901 73.807Z" fill="black"/>
<path opacity="0.15" d="M34.5288 0.731934C37.89 2.90183 42.4425 6.09285 47.4205 10.3688C50.5052 13.028 58.504 20.1546 68.5025 33.9824C79.352 48.9802 84.7768 56.4684 85.8617 64.8289C86.4148 69.19 87.1807 81.6137 76.2248 96.888C80.7561 93.4417 85.3086 89.9742 89.8398 86.5279C91.8183 89.7827 93.7754 93.0375 95.7539 96.2924C93.6265 97.8666 91.4992 99.4196 89.3718 100.994C90.4142 102.249 91.4566 103.483 92.499 104.738C93.7754 103.504 95.3071 102.185 97.0728 100.887C99.7958 98.8877 102.412 97.4624 104.667 96.42C103.817 94.782 102.987 93.1226 102.136 91.4846C105.795 89.0807 109.454 86.6555 113.113 84.2516C112.922 82.4434 112.475 79.8267 111.305 76.891C109.943 73.4447 108.22 71.1471 107.561 70.2536C102.795 63.8078 105.114 65.3608 95.1369 51.3415C87.9678 41.2579 84.0109 35.6204 77.6714 28.3236C73.6082 23.6435 70.9064 20.5588 66.5879 16.7509C61.9929 12.6876 56.4192 7.85855 47.9098 4.32715C42.4851 2.11471 37.7198 1.17868 34.5288 0.731934Z" fill="#494949"/>
<path opacity="0.11" d="M102.838 62.5315C102.646 63.893 102.264 65.9778 101.306 68.3392C99.0938 73.8064 95.69 76.1891 88.5847 83.3795C85.2235 86.7833 80.2242 91.8251 80.6923 92.3782C81.139 92.91 86.6063 88.6979 96.1581 82.4009C101.753 78.6993 106.454 75.8274 109.539 73.9553C107.305 70.1474 105.072 66.3394 102.838 62.5315Z" fill="#494949"/>
<path opacity="0.08" d="M109.986 74.5933C109.688 74.6571 110.411 76.9759 109.539 79.8691C108.901 81.9965 107.816 83.0176 105.157 86.2299C104.008 87.6126 102.327 89.6974 100.328 92.3779C104.497 89.5273 108.667 86.6766 112.836 83.826C110.943 76.2952 110.241 74.5507 109.986 74.5933Z" fill="#494949"/>
<path d="M74.0548 144.222C74.1187 144.839 74.3527 145.328 74.7143 145.924C76.246 148.391 78.7775 149.902 80.6071 150.774C79.8838 153.05 79.0116 156.326 78.3734 160.326C77.7777 164.176 77.0757 168.665 77.9904 168.963C78.3095 169.069 79.2456 168.771 87.9464 151.54C89.159 149.136 90.1589 147.136 90.8183 145.775C86.1807 143.69 81.5644 141.584 76.9268 139.499C76.48 139.839 73.8208 141.775 74.0548 144.222Z" fill="#161616" stroke="#161616" stroke-width="2"/>
<path d="M64.3544 97.1652C60.4401 99.8883 57.9085 102.526 55.6535 104.909C54.7388 105.866 50.3564 110.525 45.7401 117.843C43.6978 121.077 42.1874 123.927 41.145 126.076C41.2727 126.948 41.5705 128.203 42.3576 129.458C43.2298 130.862 44.2084 131.479 45.7401 132.841C47.6122 134.5 48.2929 135.479 49.3779 136.585C51.4839 138.755 54.4409 140.393 60.2699 143.605C67.5879 147.626 71.5235 149.094 72.7361 149.541C74.2253 150.072 75.4804 150.477 76.3739 150.753C76.7994 148.775 77.3099 146.669 77.9481 144.456C78.5225 142.478 79.1394 140.627 79.7564 138.904C75.2251 135.585 70.5662 131.862 65.8435 127.65C64.2055 126.204 62.6312 124.736 61.1208 123.289C62.6525 121.438 64.8011 119.013 67.5241 116.396C68.3112 115.631 69.9706 114.056 71.9916 112.397C74.5444 110.334 78.3949 107.568 83.7132 105.015C84.628 98.9097 83.5431 93.2084 80.2031 91.3576C76.0335 89.0601 69.694 93.4637 64.3544 97.1652Z" fill="white"/>
<path d="M60.057 100.335C52.5262 106.717 46.293 114.609 41.8682 123.438C41.4214 124.353 40.7832 125.374 40.6981 126.395C40.613 127.48 41.2725 128.309 41.8682 129.139C43.2935 131.075 44.9103 132.883 46.6334 134.564C50.2925 138.074 54.5046 140.967 58.9295 143.414C64.3755 146.434 70.1406 148.838 75.8844 151.221C76.2674 151.37 76.4376 150.753 76.0546 150.604C66.6518 146.69 57.0574 142.69 49.2075 136.032C47.4418 134.521 45.7612 132.905 44.2508 131.139C43.4637 130.203 42.6766 129.245 41.9958 128.246C41.5703 127.629 41.2512 127.054 41.3576 126.267C41.464 125.501 41.9107 124.778 42.2511 124.076C44.2933 119.928 46.7398 115.992 49.5479 112.312C52.7602 108.078 56.4405 104.228 60.5037 100.803C60.8228 100.526 60.3761 100.08 60.057 100.335Z" fill="black"/>
<path d="M78.097 107.674C70.8002 112.397 64.4181 118.374 59.2487 125.352C59.0147 125.693 59.5678 126.012 59.8018 125.671C64.9074 118.779 71.2256 112.865 78.4161 108.206C78.7565 108.014 78.4374 107.461 78.097 107.674Z" fill="black"/>
<path d="M60.7589 123.607C66.7367 129.011 72.8847 134.202 79.2242 139.158C79.5433 139.414 79.9901 138.967 79.671 138.712C73.3315 133.755 67.1622 128.564 61.2056 123.161C60.9078 122.884 60.461 123.331 60.7589 123.607Z" fill="black"/>
<path d="M79.2456 139.074C77.9054 142.86 76.863 146.732 76.0971 150.668C76.0121 151.072 76.629 151.242 76.7141 150.838C77.4799 146.902 78.5436 143.03 79.8626 139.244C79.9902 138.861 79.3733 138.691 79.2456 139.074Z" fill="black"/>
<path opacity="0.11" d="M72.5874 105.291C69.6517 105.547 67.4393 107.695 60.6105 117.183C57.9938 120.821 55.8027 123.991 54.1221 126.501C56.5472 128.203 58.4619 129.607 59.6744 130.522C66.4607 135.606 69.3113 138.457 75.0764 141.563C76.3316 142.243 77.374 142.733 77.9909 143.009C78.4802 141.669 78.9695 140.329 79.4375 138.988C77.8207 137.584 76.2039 136.202 74.5659 134.798C70.0559 130.968 65.5885 127.267 61.1423 123.672C62.9931 121.076 64.7375 119.119 66.0139 117.779C69.7793 113.843 73.5235 111.184 76.4379 109.142C77.4378 108.44 78.2887 107.887 78.8418 107.525C76.0976 105.419 73.9489 105.164 72.5874 105.291Z" fill="#494949"/>
<path opacity="0.08" d="M73.4378 110.844C71.6083 111.27 69.1618 112.099 66.6728 113.759C60.5886 117.822 58.5463 124.034 57.9507 126.161C61.2268 128.714 64.6093 131.288 68.1194 133.862C71.5232 136.372 74.9056 138.755 78.203 141.053C78.6923 140.351 79.1816 139.627 79.6496 138.925C75.1184 135.628 70.4169 131.82 65.7155 127.459C64.2264 126.097 62.801 124.715 61.4395 123.353C62.1841 122.374 62.9925 121.375 63.8434 120.353C67.0345 116.567 70.3106 113.44 73.4378 110.844Z" fill="#494949"/>
<path d="M113.709 137.265C115.964 139.393 118.24 141.541 120.495 143.669C119.899 157.241 121.027 160.432 122.218 160.666C124.069 161.028 127.239 154.625 128.621 149.583C129.664 145.754 129.77 142.392 129.664 140.116C126.132 136.968 122.601 133.819 119.07 130.649C117.283 132.862 115.496 135.074 113.709 137.265Z" fill="#161616" stroke="#161616" stroke-width="2"/>
<path d="M69.4387 98.9946C69.6301 102.526 72.0979 104.675 72.0979 104.675C73.6296 106.015 75.3527 106.376 76.2037 106.483C76.8844 106.759 77.5652 107.057 78.2672 107.334C79.3309 108.865 80.9051 111.035 82.9899 113.503C85.7554 116.822 89.4783 120.779 98.5833 128.267C103.072 131.947 108.858 136.478 115.857 141.456C116.857 140.967 118.049 140.244 119.24 139.18C121.857 136.861 123.069 134.16 123.622 132.628C122.388 131.437 120.559 129.65 118.432 127.437C108.986 117.673 102.689 109.312 97.8813 102.888C94.7116 98.6542 90.6483 93.0167 86.1596 86.2092C75.8846 89.0173 69.1834 94.4633 69.4387 98.9946Z" fill="white"/>
<path d="M72.7361 105.483C74.438 106.078 76.1186 106.653 77.8205 107.248C78.2034 107.376 78.3736 106.759 77.9907 106.631C76.2888 106.036 74.6082 105.461 72.9063 104.866C72.5234 104.738 72.3532 105.355 72.7361 105.483Z" fill="black"/>
<path d="M77.1184 106.61C85.1173 117.609 95.4775 126.501 106.221 134.734C109.305 137.095 112.432 139.435 115.56 141.754C115.9 142.01 116.198 141.435 115.879 141.201C105.114 133.224 94.2861 125.14 85.1385 115.311C82.4794 112.461 79.9904 109.44 77.6928 106.291C77.4376 105.972 76.8844 106.291 77.1184 106.61Z" fill="black"/>
<path d="M89.6697 91.783C97.2005 103.334 105.689 114.226 115.049 124.353C117.751 127.288 120.537 130.139 123.367 132.926C123.665 133.224 124.111 132.756 123.814 132.479C113.964 122.821 104.944 112.333 96.8601 101.165C94.5626 97.9948 92.3501 94.7613 90.2015 91.4639C89.9888 91.1235 89.4357 91.4426 89.6697 91.783Z" fill="black"/>
<path d="M123.005 132.522C121.772 136.181 119.389 139.585 115.794 141.201C115.411 141.372 115.751 141.925 116.113 141.754C119.857 140.074 122.325 136.5 123.601 132.692C123.75 132.309 123.133 132.139 123.005 132.522Z" fill="black"/>
<path opacity="0.09" d="M89.6907 91.4425C88.4781 89.8045 87.457 88.4643 86.7763 87.592C86.0955 88.8472 85.1595 90.9532 85.0744 93.5699C84.8829 99.4839 89.2227 102.015 101.668 115.801C107.092 121.8 109.964 125.416 116.963 132.564C118.601 134.223 119.984 135.606 120.984 136.585C121.75 135.245 122.516 133.904 123.303 132.564C116.559 125.799 111.219 119.694 107.22 114.865C103.37 110.206 99.9233 106.036 96.3706 100.845C95.4558 99.5477 93.137 96.0802 89.6907 91.4425Z" fill="#494949"/>
<path opacity="0.09" d="M93.4563 97.4204C93.7541 98.8883 94.3711 101.377 95.5836 104.27C99.0938 112.525 104.284 116.013 113.624 126.331C115.411 128.309 118.176 131.437 121.41 135.479C122.154 134.415 122.899 133.373 123.643 132.309C122.963 131.671 121.878 130.671 120.559 129.394C118.134 127.054 111.56 120.523 99.0087 104.59C97.6472 102.888 95.7326 100.42 93.4563 97.4204Z" fill="#494949"/>
<path d="M24.4025 78.6147C23.977 78.7849 23.3388 79.1466 21.4455 82.1887C19.4032 85.4648 18.0205 87.6985 16.9993 91.2299C16.1058 94.3784 15.8931 97.2503 15.9569 99.5904C16.1058 100.271 16.2122 101.271 15.8718 102.377C15.4251 103.781 14.6167 104.122 13.085 106.036C12.4681 106.802 11.447 108.1 10.6386 109.865C9.74507 111.844 10.1918 112.099 9.34088 114.035C8.31975 116.354 6.80934 117.949 6.55405 118.205C5.15 119.673 4.46925 119.715 3.85232 120.992C3.1503 122.438 3.36303 123.8 3.42685 124.204C3.4694 124.502 3.91614 127.097 5.42656 127.416C5.83076 127.501 6.46896 127.459 6.72424 127.076C7.12844 126.48 6.1924 125.65 6.02222 124.204C5.8733 122.885 6.44769 121.821 6.80934 121.162C7.89428 119.141 9.14942 119.439 10.2982 117.758C11.4044 116.099 10.362 115.588 11.4257 112.461C12.0213 110.716 12.617 108.972 14.2125 107.674C14.9358 107.079 15.6378 106.76 16.2973 105.76C16.8717 104.887 17.0844 104.015 17.1695 103.42C18.3396 105.292 19.5734 106.504 20.4669 107.249C21.6582 108.227 23.0197 109.376 24.1685 108.951C24.7854 108.717 25.3385 108.015 25.2322 107.525C25.1683 107.249 24.9131 107.164 24.2536 106.568C24.2536 106.568 23.9983 106.334 23.4239 105.717C23.041 105.313 22.4879 104.568 21.9986 103.164C22.1901 102.952 22.6793 102.484 23.3388 102.441C24.0621 102.42 24.6152 102.93 25.1683 103.483C26.2107 104.505 26.1682 105.121 26.8277 105.738C27.3382 106.228 28.2743 106.738 30.1251 106.611C30.04 106.377 29.8911 105.994 29.6996 105.568C29.0401 104.143 28.6997 103.994 28.6572 103.398C28.6359 102.93 28.8274 102.803 29.6996 101.314C30.4442 100.037 30.8058 99.3989 30.8271 99.0586C30.9335 97.8034 29.8485 97.3779 29.6145 95.9314C29.4018 94.7188 29.9336 93.7402 30.3165 92.9743C32.529 88.4856 33.933 85.635 33.5288 83.4864C32.9119 80.1252 27.551 77.2958 24.4025 78.6147Z" fill="#161616"/>
<path d="M23.4238 79.3804C20.3391 82.5289 18.3607 86.5283 17.0418 90.6979C15.7653 94.7612 14.808 99.3988 16.829 103.377C17.0205 103.739 17.5736 103.419 17.3821 103.058C15.3824 99.1435 16.4674 94.5059 17.765 90.5277C19.0415 86.5709 20.9348 82.8267 23.8705 79.8272C24.1471 79.5294 23.7003 79.0826 23.4238 79.3804Z" fill="#161616"/>
<path d="M20.2327 97.7601C20.488 97.6324 20.7433 97.5261 20.9985 97.3984C21.19 97.5048 21.3815 97.6324 21.5729 97.7388C21.8069 97.9515 22.0197 98.2281 22.1686 98.5046C22.4664 99.0152 22.6153 99.6321 22.5728 100.228C22.4877 101.377 21.658 102.27 21.4453 103.376C21.3176 104.057 21.7644 104.546 22.1473 105.057C22.8068 105.929 23.5726 106.737 24.4023 107.461C24.7001 107.737 25.1681 107.291 24.849 107.014C24.3172 106.525 23.7854 106.035 23.3174 105.482C22.5515 104.61 21.8708 103.866 22.4026 102.653C22.8706 101.589 23.3599 100.589 23.1472 99.3769C22.977 98.4408 22.4451 97.4835 21.6155 96.973C20.9135 96.5475 20.0625 96.6326 19.6796 97.4197C19.4881 97.8026 20.0412 98.1217 20.2327 97.7601Z" fill="#161616"/>
<path d="M16.8719 103.462C18.1058 105.44 19.8076 107.078 21.8712 108.163C22.4881 108.482 23.6581 109.227 24.4027 108.908C25.1047 108.61 24.9771 107.759 24.7856 107.185C24.658 106.802 24.0411 106.972 24.1687 107.355C24.658 108.908 22.5945 107.823 22.1903 107.61C21.5308 107.27 20.9139 106.866 20.3182 106.398C19.1482 105.483 18.1909 104.377 17.4037 103.121C17.2123 102.802 16.6592 103.121 16.8719 103.462Z" fill="#161616"/>
<path d="M31.5289 83.9327C30.2738 88.1449 29.4866 92.4847 29.125 96.867C29.1037 96.9947 29.2314 97.1436 29.359 97.1648C30.6992 97.5265 30.5078 99.1858 30.0185 100.122C29.5292 101.015 28.7633 101.76 28.3804 102.717C27.6997 104.44 29.7206 104.993 29.6781 106.504C29.7845 106.398 29.8908 106.291 29.9972 106.185C28.0826 106.078 26.4658 105.057 25.5085 103.398C24.8277 102.207 24.0406 101.951 22.6791 102.036C22.2749 102.058 22.2749 102.696 22.6791 102.675C23.1897 102.653 23.8066 102.59 24.2746 102.845C24.6788 103.079 24.8065 103.483 25.0192 103.845C25.3809 104.462 25.8489 105.015 26.402 105.461C27.4444 106.312 28.657 106.738 29.9759 106.823C30.1461 106.823 30.295 106.674 30.295 106.504C30.3163 105.61 29.7206 105.079 29.2314 104.398C28.2102 102.972 29.8908 101.654 30.5503 100.441C31.2736 99.122 31.2523 96.9947 29.5079 96.5479C29.593 96.6543 29.6568 96.7606 29.7419 96.8457C30.0823 92.506 30.8907 88.2513 32.1245 84.0817C32.2522 83.72 31.6353 83.5498 31.5289 83.9327Z" fill="#161616"/>
<path d="M15.7443 99.7814C15.8932 101.058 15.723 102.313 15.1061 103.462C14.5317 104.547 13.5957 105.334 12.6809 106.163C11.0641 107.674 10.3196 109.333 9.80901 111.461C9.2559 113.716 8.59642 115.524 6.95836 117.226C5.7245 118.481 4.27791 119.651 3.51206 121.289C2.76749 122.884 2.87386 124.735 3.83116 126.224C4.38427 127.097 6.27761 128.841 7.00091 127.182C7.29874 126.501 6.95836 125.65 6.72436 124.99C6.51162 124.416 6.23507 123.842 6.23507 123.204C6.23507 122.31 6.74563 121.544 7.34129 120.927C8.78788 119.417 10.6387 118.566 11.2769 116.417C11.6385 115.205 11.3832 113.992 11.4683 112.758C11.5747 111.227 12.298 109.929 13.4042 108.886C15.0848 107.291 17.3185 105.972 17.3185 103.377C17.3185 102.972 16.6803 102.972 16.6803 103.377C16.6591 105.866 14.2339 107.099 12.7022 108.674C11.5109 109.886 10.8301 111.418 10.8089 113.12C10.7876 114.247 10.9791 115.311 10.5961 116.396C10.1707 117.63 9.27717 118.46 8.29859 119.268C7.04346 120.268 5.59686 121.438 5.59686 123.204C5.59686 124.054 6.02233 124.82 6.27761 125.629C6.34143 125.841 6.57544 126.416 6.46907 126.586C6.25634 126.607 6.02233 126.65 5.8096 126.671C5.42668 126.905 5.12885 126.863 4.91611 126.543C4.4481 126.246 4.0439 125.352 3.87371 124.842C3.19296 122.842 4.12899 121.055 5.46922 119.608C6.59672 118.374 7.91567 117.332 8.8517 115.928C9.85156 114.439 10.1494 112.673 10.5749 110.971C10.894 109.737 11.3194 108.546 12.1704 107.568C12.9149 106.695 13.851 106.036 14.6168 105.185C15.9783 103.696 16.5952 101.76 16.3612 99.7814C16.34 99.3772 15.7018 99.3772 15.7443 99.7814Z" fill="#161616"/>
<path d="M1.93774 73.8711C1.491 74.1263 0.661334 74.5731 0.491146 75.5091C0.278411 76.5515 1.02298 77.4025 1.12935 77.5088C1.00171 77.6577 0.618787 78.1045 0.57624 78.7852C0.533693 79.9127 1.53355 80.5722 1.57609 80.6147C1.53355 80.6573 0.916615 81.2955 1.12935 82.1677C1.29954 82.9123 1.95902 83.2314 2.04411 83.2527C2.00156 83.3803 1.85265 83.9334 2.1292 84.444C2.55467 85.2098 3.5758 85.1673 3.68217 85.1673C4.40546 85.1247 5.08622 84.6354 5.40532 83.8909C5.80951 84.1249 6.87319 84.678 8.31978 84.5291C9.29836 84.4227 10.0217 84.0398 10.4046 83.8058C11.1704 85.146 12.3617 86.9542 14.1274 88.805C15.6804 90.4218 18.5736 93.4639 22.8708 94.7191C28.2318 96.2933 32.9757 94.251 35.6987 93.081C43.0168 89.9325 46.6546 84.1461 47.9948 81.9763C50.2498 78.2747 51.0369 75.1049 51.7177 72.233C52.8239 67.6805 52.441 65.8935 52.0793 64.8511C51.8666 64.2129 50.6115 60.5539 47.7183 60.1284C45.3569 59.7667 43.3997 61.7877 43.1657 62.043C42.3573 62.8939 41.9319 64.0214 41.0809 66.2339C40.6555 67.3614 40.3789 68.2123 40.2513 68.5952C38.8685 73.0839 38.1665 75.3177 37.975 75.7857C37.4644 77.0621 36.2519 79.9765 33.3374 82.2528C30.5506 84.4227 27.6361 84.8907 26.3384 85.0822C24.3813 85.3587 21.9774 85.6991 19.4245 84.444C16.5739 83.0399 15.2975 80.4871 14.9571 79.8064C13.936 77.7003 13.7445 75.3602 13.5956 73.7009C13.4041 71.5735 13.5531 69.9142 12.3192 68.5952C12.0852 68.3612 11.5321 67.7656 10.9577 67.8719C10.128 68.0421 9.66001 69.6376 9.23454 71.1481C8.8729 72.4245 8.97926 72.5734 8.68143 72.8712C8.0645 73.4881 7.27738 73.169 4.57565 73.3179C3.00142 73.4243 2.44831 73.5945 1.93774 73.8711Z" fill="white"/>
<path d="M6.34144 72.9563C4.0439 72.5309 0.00194338 73.1265 0.321045 76.275C0.597601 79.1044 3.95881 79.5936 5.97979 78.3598C6.32016 78.1471 6.00106 77.5939 5.66069 77.8067C3.98008 78.8278 0.937976 78.5512 0.937976 75.9984C0.937976 73.5307 4.40555 73.2542 6.17125 73.5733C6.57545 73.6583 6.74563 73.0414 6.34144 72.9563Z" fill="black"/>
<path d="M0.873914 77.3174C-1.42362 80.1255 4.10748 83.6569 5.74554 80.1255C5.91573 79.7639 5.36262 79.4235 5.19243 79.8064C3.91602 82.5294 -0.338674 79.8064 1.34193 77.7642C1.59721 77.4664 1.15047 76.9983 0.873914 77.3174Z" fill="black"/>
<path d="M1.0017 80.1681C0.51241 81.2743 0.852785 82.6784 1.98028 83.2528C3.0865 83.8272 4.46928 83.2953 5.04366 82.2316C5.23512 81.87 4.68201 81.5509 4.49055 81.9125C4.06508 82.6571 3.10777 83.0826 2.29938 82.6997C1.49099 82.3167 1.19316 81.2743 1.55481 80.4872C1.725 80.1256 1.17189 79.8065 1.0017 80.1681Z" fill="black"/>
<path d="M1.51247 83.0185C1.42738 84.146 2.08685 85.1671 3.23562 85.4011C4.29929 85.6138 5.27787 84.9118 5.63952 83.9545C5.78844 83.5716 5.17151 83.4014 5.02259 83.7843C4.74604 84.5076 3.98019 84.9756 3.21435 84.7416C2.42723 84.5076 2.10813 83.7843 2.15067 83.0185C2.17195 82.6143 1.53374 82.6143 1.51247 83.0185Z" fill="black"/>
<path d="M3.53316 76.062C4.08627 75.9982 4.66065 76.0195 5.12867 76.3386C5.57541 76.6364 5.83069 77.2321 5.57541 77.7213C5.38395 78.083 5.93706 78.4021 6.12852 78.0404C6.46889 77.381 6.31998 76.6151 5.80942 76.0833C5.23503 75.4664 4.32027 75.3387 3.51188 75.4238C3.12896 75.4876 3.12896 76.1258 3.53316 76.062Z" fill="black"/>
<path d="M5.5115 84.38C6.61772 83.9758 7.6814 84.8906 8.83016 84.7629C9.70238 84.6566 10.4682 84.1885 11.1915 83.7631C11.5319 83.5503 11.2128 82.9972 10.8724 83.21C9.78747 83.8694 8.85144 84.3375 7.55376 83.9545C6.76664 83.7205 6.14971 83.4652 5.34131 83.7631C4.95839 83.912 5.10731 84.5289 5.5115 84.38Z" fill="black"/>
<path d="M6.17133 73.5099C7.27755 73.8928 8.76669 73.9567 9.38362 72.7441C9.724 72.0633 9.51126 71.2337 9.66018 70.5104C9.83036 69.5318 10.3835 68.7234 11.1493 68.1065C11.4684 67.8512 11.0217 67.4044 10.7026 67.6597C9.87291 68.3405 9.27725 69.2765 9.06452 70.3402C8.95815 70.9358 9.10707 71.6379 8.93688 72.2122C8.55396 73.361 7.27755 73.2121 6.38406 72.893C5.95859 72.7654 5.7884 73.3823 6.17133 73.5099Z" fill="black"/>
<path d="M10.6812 68.1484C12.4894 68.3824 12.7235 71.4245 13.0213 72.8073C13.3829 74.6155 13.5744 76.4451 13.9148 78.2533C14.4679 81.1465 16.1485 83.444 18.8289 84.7417C21.637 86.0819 24.8281 86.0181 27.7638 85.2097C30.7846 84.3588 33.9118 82.8271 35.869 80.2956C36.1243 79.9765 35.6775 79.5297 35.4223 79.8488C33.38 82.4867 30.0613 84.0397 26.8703 84.7843C23.658 85.5288 20.1479 85.2523 17.4674 83.1675C14.5742 80.9338 14.5104 77.5726 13.936 74.2326C13.6595 72.6584 13.4255 70.9565 12.8511 69.4674C12.4894 68.5313 11.9151 67.6804 10.8727 67.5315C10.4472 67.4677 10.277 68.0846 10.6812 68.1484Z" fill="black"/>
<path d="M10.2132 84.1889C12.7873 87.3374 15.2763 90.9326 18.68 93.2514C22.02 95.5064 26.147 95.7404 30.0188 95.1022C37.89 93.7833 44.5698 88.4436 48.3991 81.551C50.5902 77.6367 51.8879 73.2969 52.4623 68.8508C52.5049 68.4466 51.8666 68.4466 51.8241 68.8508C50.8455 76.4454 47.5269 83.8911 41.6128 88.9116C38.6984 91.3794 35.2308 93.2302 31.5079 94.1236C27.6574 95.0597 23.2113 95.1873 19.7012 93.1238C15.957 90.9326 13.3404 87.0183 10.6599 83.7209C10.4046 83.4231 9.95791 83.8698 10.2132 84.1889Z" fill="black"/>
<path d="M48.016 60.0432C46.2503 59.3412 44.3782 60.2559 43.1444 61.5536C41.6978 63.0427 40.9745 65.0212 40.4426 66.9783C39.8257 69.2546 39.2726 71.5096 38.4004 73.7008C37.4643 76.0621 36.273 78.2958 34.9115 80.4232C34.6775 80.7636 35.2306 81.0827 35.4646 80.7423C37.6558 77.3598 39.3364 73.6795 40.3788 69.7864C40.9319 67.7442 41.2936 65.6168 42.3147 63.766C43.3358 61.894 45.5057 59.7241 47.8458 60.6601C48.2287 60.809 48.3989 60.1921 48.016 60.0432Z" fill="black"/>
<path d="M4.49065 82.6785C5.0863 82.7211 4.95866 83.7209 4.8523 84.0826C4.72466 84.4655 5.34159 84.6357 5.46923 84.2528C5.74578 83.4444 5.55432 82.1254 4.49065 82.0403C4.08645 82.019 4.08645 82.6572 4.49065 82.6785Z" fill="black"/>
<path d="M4.85206 80.7211C4.9797 81.2317 4.78824 81.7635 4.38404 82.0614C4.04367 82.2954 4.36277 82.8485 4.70315 82.6145C5.36262 82.1465 5.68173 81.3381 5.46899 80.5509C5.3839 80.1467 4.76697 80.3169 4.85206 80.7211Z" fill="black"/>
<path d="M5.21402 78.5086C5.7884 78.7851 5.40548 79.6999 5.12892 80.0615C4.87364 80.3806 5.42675 80.6998 5.68204 80.3806C6.17133 79.7424 6.42661 78.3809 5.53312 77.9555C5.17147 77.7853 4.85237 78.3384 5.21402 78.5086Z" fill="black"/>
<path opacity="0.11" d="M0.831745 78.5933C1.17212 78.4019 1.72523 79.5932 3.15055 80.1888C3.68239 80.4016 4.34187 80.5505 7.3627 80.1888C8.34128 80.0612 9.61769 79.891 11.1494 79.6145C11.4472 80.8271 12.0641 82.6566 13.3193 84.5499C13.8511 85.337 15.9997 88.4004 20.1481 90.2087C24.5942 92.1658 28.6149 91.5063 30.1679 91.2298C31.4868 90.9958 35.1671 90.2937 38.4432 87.4431C40.6344 85.5498 42.0385 83.2522 44.102 77.2744C45.506 73.2111 47.2079 67.5737 48.463 60.5747C49.314 61.4469 50.6329 63.0212 51.3775 65.3612C51.7392 66.4887 52.0795 68.1481 51.803 70.7434C51.2286 76.3383 48.4205 80.9972 46.7186 83.3799C44.9529 85.8689 41.8045 90.1661 35.9755 92.8253C35.1884 93.1869 30.7422 95.1228 25.0835 94.8675C23.7858 94.8037 22.5945 94.7399 21.1266 94.2081C19.5311 93.6337 17.9356 92.1445 14.7659 89.2088C13.4469 87.9962 12.1492 86.7198 10.8303 84.869C10.575 84.5074 10.3623 84.1883 10.2133 83.9755C9.7666 84.2734 9.10713 84.6137 8.36255 84.5286C7.3627 84.4435 7.02233 83.7202 6.19266 83.8479C5.46936 83.9543 5.46936 84.5499 4.59715 84.869C3.9164 85.103 2.95909 85.0817 2.32089 84.5925C1.85287 84.2308 1.78905 83.8266 1.25721 81.5291C0.746652 79.2741 0.597737 78.721 0.831745 78.5933Z" fill="#494949"/>
<path d="M25.1469 73.0616C24.7427 73.1467 24.5938 73.9551 24.3385 75.2102C24.1896 75.9761 24.1258 76.6356 24.1045 77.1036C23.2536 78.1034 23.1685 79.0182 23.1472 79.3798C23.126 80.1244 23.3812 80.6988 23.8705 81.7625C24.2109 82.5283 24.5725 83.124 24.8278 83.5282C23.9131 83.7409 23.2749 84.3366 23.2323 84.9748C23.1898 85.5917 23.7429 86.081 23.9556 86.2512C24.9129 87.0808 25.6149 86.4639 26.8275 87.1234C27.8061 87.6552 27.721 88.2509 29.1463 89.038C30.0398 89.5273 30.3164 89.4209 30.4228 89.3571C30.7844 89.1231 30.6568 88.3573 30.5929 87.8467C30.5078 87.2298 30.2526 86.2937 29.5505 85.2088C30.3802 84.9109 31.2099 84.6131 32.0183 84.3366C31.4226 84.4004 31.295 84.4217 31.295 84.4217C31.295 84.4004 32.7628 83.8047 34.018 84.3366C35.0604 84.7833 35.1455 85.7193 36.0177 85.7832C36.507 85.8257 37.0601 85.5492 37.2941 85.145C37.7834 84.3153 36.8686 83.1027 36.6559 82.8261C35.7837 81.6774 34.5073 81.337 33.9329 81.2306C34.1243 80.8052 34.3371 80.1244 34.3796 79.2735C34.4222 77.8269 33.8265 76.7632 33.55 76.3165C33.167 75.0613 32.8054 73.8062 32.4225 72.5298C31.8268 73.9126 31.1673 74.338 30.6568 74.4444C30.0824 74.572 29.7633 74.2955 28.8272 74.4444C27.9338 74.5933 27.8912 74.8699 27.3806 74.8486C26.1893 74.721 25.7851 72.934 25.1469 73.0616Z" fill="#161616"/>
<path d="M25.6788 79.7844C26.0404 80.2098 26.6148 80.4864 27.1892 80.3375C27.6998 80.2098 28.0401 79.7844 28.104 79.2738C28.1252 79.0611 27.8061 79.0611 27.7849 79.2738C27.7423 79.7206 27.3594 80.0397 26.9127 80.0609C26.5085 80.0822 26.1681 79.8482 25.9128 79.5504C25.7639 79.4014 25.5512 79.6355 25.6788 79.7844Z" fill="white"/>
<path d="M30.2314 79.0825C30.7632 79.8484 32.4863 79.9122 32.4225 78.6996C32.4012 78.4869 32.0821 78.4869 32.1034 78.6996C32.1672 79.5718 30.8696 79.4442 30.5079 78.9123C30.3803 78.7421 30.1037 78.9123 30.2314 79.0825Z" fill="white"/>
<path d="M29.4016 81.4438C29.4016 81.4651 29.4228 81.4864 29.4228 81.5076C29.4866 81.5289 29.5717 81.5502 29.6356 81.5715C29.593 81.4864 29.5292 81.4438 29.4228 81.4438C29.5079 81.4226 29.5717 81.38 29.6568 81.3587C29.6356 81.3375 29.6143 81.2949 29.593 81.2736C29.4866 81.3162 29.4016 81.3587 29.2952 81.4013C29.4441 81.6353 29.3803 82.0608 29.2952 82.2948C29.1888 82.6139 28.7421 83.0393 28.4655 82.6139C28.3592 82.4437 28.0826 82.5926 28.189 82.7841C28.4655 83.2095 29.0399 83.1883 29.359 82.8266C29.6781 82.465 29.8483 81.6778 29.5717 81.2524C29.4866 81.1035 29.2314 81.1885 29.2739 81.38C29.3165 81.5076 29.3803 81.5927 29.4866 81.6566C29.5717 81.7204 29.6994 81.6566 29.7207 81.5715C29.7632 81.38 29.6994 80.9333 29.4016 81.0609C29.125 81.1673 29.2314 81.5927 29.359 81.7629C29.4016 81.8268 29.5079 81.8693 29.5717 81.8268C29.8057 81.6566 29.8057 81.3375 29.5505 81.2098C29.3803 81.0822 29.2314 81.3587 29.4016 81.4438Z" fill="white"/>
<path d="M29.4233 81.5077C29.5084 81.997 29.6786 82.5927 30.253 82.6778C30.8274 82.7628 30.9976 82.2097 30.9976 81.763C30.9976 81.5503 30.6785 81.5503 30.6785 81.763C30.6785 82.0821 30.5721 82.5288 30.1466 82.3161C29.8275 82.1672 29.785 81.7417 29.7424 81.4226C29.6999 81.2312 29.3808 81.3163 29.4233 81.5077Z" fill="white"/>
<path d="M23.5517 79.891C23.9559 77.6785 25.5514 75.7852 27.7213 75.147C29.8912 74.5088 32.4015 75.381 33.4013 77.4658C33.5715 77.8275 34.1246 77.5084 33.9545 77.1467C32.8695 74.913 30.2103 73.9131 27.849 74.4663C25.3387 75.0619 23.4028 77.2105 22.9348 79.7208C22.871 80.125 23.4879 80.2952 23.5517 79.891Z" fill="#161616"/>
<path d="M24.679 76.6784C24.6577 75.6147 24.8492 74.551 25.2959 73.5937C25.3385 73.5086 25.381 73.4448 25.4023 73.3597C25.5512 73.1044 25.5725 73.0619 25.4448 73.2321C25.3172 73.3384 25.3385 73.4235 25.5299 73.5512C25.5725 73.615 25.6363 73.7001 25.6788 73.7639C25.9979 74.2745 26.2745 74.8063 26.5085 75.3594C26.6574 75.7423 27.2743 75.5722 27.1254 75.1892C26.9127 74.6787 25.9341 72.0833 25.1045 72.6577C24.7003 72.9342 24.445 73.8703 24.3173 74.317C24.0833 75.0829 23.9982 75.8913 24.0195 76.6996C24.0621 77.0826 24.7003 77.0826 24.679 76.6784Z" fill="#161616"/>
<path d="M31.1674 74.9558C31.3801 74.5941 31.5928 74.2325 31.8268 73.8708C31.9332 73.7219 32.0821 73.573 32.1459 73.4028C32.2949 73.3177 32.3161 73.2326 32.231 73.1262C32.1459 72.9773 32.1672 73.0199 32.2736 73.2539C32.6352 74.1686 32.8905 75.0621 32.9969 76.062C33.0394 76.4662 33.6776 76.4662 33.6351 76.062C33.5713 75.36 33.4436 74.6792 33.2522 73.9985C33.1245 73.6155 32.9331 72.7433 32.5714 72.5093C32.2949 72.3391 32.0608 72.4668 31.8694 72.7008C31.3801 73.2752 30.9972 73.9772 30.6143 74.6367C30.4015 74.977 30.9546 75.2961 31.1674 74.9558Z" fill="#161616"/>
<path d="M22.9769 79.5502C22.828 83.1241 26.0615 86.1875 29.6567 85.4429C31.3161 85.1026 32.8478 84.0176 33.6349 82.5072C34.4645 80.9117 34.9326 78.3802 33.8476 76.8059C33.6136 76.4655 33.0605 76.7846 33.2945 77.125C34.2518 78.5503 33.7838 80.8904 33.018 82.3157C32.3159 83.6134 30.9332 84.5282 29.4866 84.826C26.2743 85.4642 23.4874 82.6987 23.6151 79.5502C23.6151 79.1247 22.9769 79.1247 22.9769 79.5502Z" fill="#161616"/>
<path d="M23.424 85.1666C23.9346 83.2733 26.4874 83.3797 27.8276 84.2093C29.2529 85.0603 29.9762 86.7196 30.1251 88.3151C30.1677 88.7619 30.3379 89.2086 29.5933 88.9321C29.3167 88.8257 28.9551 88.4215 28.7424 88.2088C28.3594 87.8258 28.0191 87.4216 27.5936 87.1025C27.1256 86.7409 26.6363 86.5282 26.0619 86.4218C25.1684 86.2516 23.5516 86.358 23.4665 85.0816C23.4453 84.6774 22.8071 84.6774 22.8283 85.0816C22.8922 85.9112 23.424 86.4643 24.1898 86.7409C24.7855 86.9536 25.445 86.9111 26.0619 87.06C26.8278 87.2514 27.3383 87.6556 27.8702 88.2088C28.402 88.7406 29.3167 89.9319 30.2315 89.7617C30.9974 89.6128 30.8272 88.7406 30.7633 88.1662C30.5293 86.124 29.4444 84.103 27.4447 83.3159C25.7641 82.6564 23.3389 83.0393 22.8283 85.0177C22.7007 85.4007 23.3176 85.5708 23.424 85.1666Z" fill="#161616"/>
<path d="M31.9119 82.4015C32.7841 81.2314 34.7625 81.6995 35.6773 82.4866C36.2091 82.9333 36.5708 83.5503 36.741 84.231C36.7835 84.4437 36.8899 84.8905 36.8261 85.1245C36.6133 85.7414 36.1666 85.55 35.7837 85.2521C35.2518 84.8479 34.8476 84.2736 34.1881 84.0183C33.869 83.8906 33.5499 83.8694 33.2096 83.8906C32.8905 83.8906 32.5926 83.9757 32.2735 83.9332C31.6779 83.8481 30.8482 83.295 31.8481 82.5291C32.1672 82.2738 31.7204 81.8271 31.4013 82.0824C30.912 82.4653 30.6567 83.0397 30.8695 83.6566C31.1673 84.465 31.9332 84.6352 32.7203 84.5927C33.5074 84.5501 34.018 84.5714 34.6562 85.1032C34.954 85.3585 35.2093 85.6563 35.5496 85.8903C35.9964 86.2094 36.6559 86.5073 37.1452 86.0605C38.2727 85.0181 36.975 82.6993 36.0815 81.976C34.8051 80.9336 32.465 80.6358 31.4013 82.1037C31.1248 82.4015 31.6779 82.7206 31.9119 82.4015Z" fill="#161616"/>
<path d="M24.6574 83.4008C26.0402 82.9541 28.1462 83.8263 28.9972 84.9538C29.061 85.0389 29.1886 84.9538 29.1248 84.8687C28.2313 83.6561 26.104 82.7626 24.6148 83.2519C24.5085 83.2732 24.551 83.4221 24.6574 83.4008Z" fill="white"/>
<path d="M32.0606 82.487C32.6775 81.7637 33.571 81.4446 34.5071 81.6361C34.6134 81.6573 34.656 81.5084 34.5496 81.4871C33.571 81.2957 32.5925 81.6148 31.9542 82.3806C31.8904 82.4657 31.9968 82.5721 32.0606 82.487Z" fill="white"/>
<path d="M25.4448 73.4243C25.6575 73.9774 25.8064 74.5305 25.8702 75.1049C25.9128 75.0836 25.9553 75.0624 25.9979 75.0411C25.8915 74.9347 25.7852 74.8709 25.6575 74.8071C25.5937 74.7858 25.5299 74.8071 25.5299 74.8709C25.5299 75.0624 25.5086 75.2325 25.5086 75.424C25.5511 75.4027 25.5937 75.3815 25.6362 75.3602C25.3384 75.0198 25.1044 75.7857 25.0193 75.9346C24.9768 76.0197 25.1044 76.1048 25.1469 76.0197C25.1682 75.9771 25.4448 75.3815 25.5086 75.4665C25.5511 75.5304 25.6362 75.4665 25.6362 75.4027C25.6362 75.2113 25.6575 75.0411 25.6575 74.8496C25.615 74.8709 25.5724 74.8922 25.5299 74.9134C25.6575 74.956 25.7426 75.0198 25.8277 75.1262C25.8702 75.1687 25.9766 75.1474 25.9553 75.0624C25.8702 74.4667 25.7426 73.8923 25.5086 73.3392C25.5511 73.2967 25.4022 73.3392 25.4448 73.4243Z" fill="white"/>
<path d="M32.0182 73.1471C31.7842 73.5939 31.6566 74.0406 31.614 74.5512C31.614 74.5937 31.6778 74.6363 31.7204 74.6363C32.0182 74.5512 32.0608 74.7852 32.082 75.0405C32.082 75.1043 32.1671 75.1468 32.2097 75.1043C32.316 75.2745 32.4011 75.4234 32.5075 75.5936C32.4862 75.7 32.6564 75.7425 32.6564 75.6361C32.699 75.3383 32.5075 74.5725 32.1033 74.9979C32.1459 75.0192 32.1884 75.0405 32.2309 75.0617C32.2097 74.8703 32.1671 74.7001 32.1246 74.5086C32.1246 74.4661 32.082 74.4448 32.0395 74.4448C31.8906 74.4448 31.7842 74.4661 31.6566 74.5086C31.6991 74.5299 31.7204 74.5512 31.7629 74.5937C31.7842 74.1257 31.9118 73.7002 32.1459 73.2748C32.2097 73.1259 32.0608 73.0408 32.0182 73.1471Z" fill="white"/>
<path d="M45.3569 60.5326C45.6548 62.5749 46.2291 65.8084 47.4205 69.6377C49.9307 77.6365 52.8877 81.0615 56.8021 90.3368C57.7806 92.6556 59.1634 96.1444 60.5249 100.548C63.0565 101.378 67.7579 102.505 73.5017 101.505C82.9472 99.8673 88.4995 93.6129 90.0525 91.7195C86.8189 85.763 83.5641 79.3171 80.3943 72.4032C77.2459 65.5532 74.5016 58.9584 72.119 52.6827C70.1193 51.9381 64.886 50.2788 58.4614 51.853C50.7817 53.7038 46.5482 58.9584 45.3569 60.5326Z" fill="#757575"/>
<path opacity="0.13" d="M64.0352 51.1289C64.8435 52.8308 65.8647 55.1496 66.9496 57.9577C70.3534 66.8925 71.5872 74.2319 72.034 76.8485C72.9913 82.252 73.821 90.6337 72.4595 101.398C75.4165 101.313 77.6076 100.632 78.9904 100.1C82.9473 98.5262 85.8192 95.7819 88.5847 93.1227C89.2229 92.5271 89.7122 91.9953 90.0313 91.6761C89.1166 90.1019 87.7338 87.6342 86.117 84.5495C81.4369 75.6572 78.3735 68.2753 75.7994 62.0209C74.8846 59.8298 73.6295 56.6813 72.1616 52.8733C70.9916 52.384 69.5237 51.8948 67.8006 51.5756C66.3965 51.2991 65.1201 51.1715 64.0352 51.1289Z" fill="#494949"/>
<path opacity="0.1" d="M78.1179 67.9993C78.4796 71.8072 78.7774 74.9982 78.9901 77.2958C79.7985 86.2945 79.9474 88.7835 80.0113 90.379C80.1814 94.1444 80.1814 97.229 80.1602 99.25C81.4791 98.782 83.181 98.0161 84.9467 96.7823C87.1591 95.2293 88.6483 93.5274 89.6056 92.2723C85.7764 84.1671 81.9471 76.0832 78.1179 67.9993Z" fill="#494949"/>
<path d="M63.0139 47.3854C61.9928 47.6832 61.4397 49.151 61.0993 50.6615C60.4186 53.7461 60.7802 56.384 60.9079 57.2988C61.5248 61.362 62.631 64.4041 62.9927 65.404C63.9287 67.8717 65.2051 71.1691 67.9919 74.6792C69.5875 76.6789 70.949 78.4021 73.4592 79.6785C74.9271 80.4443 77.9692 81.9973 81.0964 80.7634C81.2453 80.6996 84.3087 79.4445 85.0958 76.764C85.266 76.1684 85.3085 75.5727 85.3724 74.4027C85.4149 73.7006 85.4362 72.4668 85.2873 70.9351C85.0745 68.9141 84.6278 67.3399 84.2874 66.2124C82.777 61.2131 82.0324 58.7241 80.4582 56.5542C79.1605 54.7672 77.6926 52.725 75.2675 52.4484C75.0547 52.4272 72.6083 52.1932 71.1617 53.895C70.1618 55.0863 70.2257 56.5542 70.2469 57.5328C70.3107 59.4049 71.034 60.7451 72.1615 62.8086C73.289 64.8509 73.7358 65.1062 75.076 67.5313C76.9055 70.85 76.7141 71.1691 76.629 71.2542C76.2673 71.5733 74.8207 70.5734 74.5016 70.3394C74.2038 70.1267 73.7783 69.8289 73.2465 69.2545C71.5872 67.4037 70.6086 64.6169 70.6086 64.6169C69.7364 62.8937 68.5876 60.4473 67.4176 57.3413C67.7792 55.9586 68.3323 54.98 68.7791 54.3418C69.5024 53.3207 70.3107 52.6186 70.5022 51.3422C70.5873 50.8529 70.5448 50.4275 70.5022 50.1509C70.8639 49.8105 70.9702 49.3 70.7788 48.8745C70.5448 48.3852 69.9704 48.1512 69.4173 48.3214C69.4173 48.2576 69.3534 47.7045 68.8642 47.4066C68.46 47.1513 67.9068 47.1939 67.5027 47.4917C66.8644 47.0024 66.3326 46.8748 65.9497 46.8535C65.5029 46.8322 65.2902 46.9386 64.2265 47.1301C63.3331 47.3641 63.2692 47.3215 63.0139 47.3854Z" fill="white"/>
<path d="M68.3534 56.3626C68.9278 54.9373 69.6511 53.6396 70.4382 52.3206C70.8424 51.6399 71.3104 50.7889 70.7573 50.0444C69.5022 48.4276 67.8003 50.4911 67.2685 51.5548C67.077 51.9164 67.6301 52.2355 67.8216 51.8739C68.1407 51.2357 68.5023 50.4486 69.2469 50.2358C69.4596 50.1295 69.6724 50.1295 69.9064 50.1933C69.9702 50.6826 70.034 51.1719 70.1191 51.6611C70.0553 51.9377 69.6724 52.3844 69.5234 52.6397C68.8427 53.7672 68.2896 54.9585 67.779 56.1711C67.5876 56.5753 68.2045 56.7242 68.3534 56.3626Z" fill="black"/>
<path d="M61.397 59.1066C61.0779 56.8304 61.0354 54.5115 61.2907 52.2353C61.5247 50.1505 61.9714 46.9807 64.8646 47.5764C65.2688 47.6615 65.439 47.0446 65.0348 46.9595C62.7585 46.4914 61.3332 48.1082 60.9503 50.1718C60.3759 53.1713 60.3546 56.2347 60.7801 59.2768C60.8439 59.681 61.4609 59.5108 61.397 59.1066Z" fill="black"/>
<path d="M64.0562 49.2997C64.2902 48.7466 64.5455 48.1722 64.9922 47.7467C65.7581 47.0021 66.7367 47.4063 67.5663 47.8105C67.928 48.002 68.2471 47.4489 67.8854 47.2574C67.0132 46.8107 66.0346 46.3852 65.0986 46.8745C64.2902 47.3 63.8647 48.1722 63.5244 48.9593C63.3542 49.3635 63.9073 49.6826 64.0562 49.2997Z" fill="black"/>
<path d="M65.9497 49.4914C66.7368 48.4703 67.7792 47.4066 69.1407 48.215C69.5024 48.4278 69.8215 47.8747 69.4598 47.6619C67.8431 46.7046 66.4816 47.747 65.503 49.0234C65.2477 49.3638 65.6944 49.8105 65.9497 49.4914Z" fill="black"/>
<path d="M67.3751 49.9594C67.7793 49.5339 68.2047 49.0872 68.7578 48.8744C69.4173 48.5979 70.6299 48.7681 70.3746 49.7679C70.2895 50.1721 70.8852 50.3423 70.9916 49.9381C71.2043 49.0659 70.6299 48.2575 69.7577 48.1086C68.5877 47.8959 67.6729 48.7468 66.9283 49.5127C66.6518 49.8105 67.0985 50.2572 67.3751 49.9594Z" fill="black"/>
<path d="M67.6302 56.0433C66.8856 57.6388 67.8004 59.2556 68.4386 60.7234C69.3321 62.787 70.2681 64.8505 71.4169 66.7651C72.906 69.2754 76.1396 73.7853 79.5221 71.2113C79.8412 70.956 79.5221 70.4029 79.203 70.6581C75.9481 73.1471 72.9273 68.1266 71.6083 65.8078C70.8425 64.4463 70.1617 63.0422 69.5235 61.6169C68.8853 60.1916 67.46 57.9579 68.2046 56.3624C68.3535 56.0007 67.8004 55.6603 67.6302 56.0433Z" fill="black"/>
<path d="M70.3749 54.4264C68.5028 60.7872 74.2467 65.7226 76.3527 71.1687C76.5017 71.5516 77.1186 71.3814 76.9697 70.9985C74.9274 65.7226 69.1836 60.7446 70.9918 54.5966C71.0982 54.1924 70.4813 54.0222 70.3749 54.4264Z" fill="black"/>
<path d="M60.7593 58.9362C61.8442 64.8928 64.3758 70.5303 68.0986 75.3168C69.9069 77.6143 71.9704 79.848 74.821 80.7841C77.2462 81.5712 80.5861 81.9754 82.8411 80.5075C85.3088 78.9333 85.628 75.721 85.7343 73.0618C85.7556 72.6576 85.1174 72.6576 85.0961 73.0618C84.9685 76.4868 84.2026 80.2735 80.1394 80.7628C76.3953 81.2095 72.9064 79.7204 70.3749 77.0187C65.6734 72.0194 62.5888 65.4884 61.3549 58.766C61.3124 58.3618 60.6954 58.532 60.7593 58.9362Z" fill="black"/>
<path d="M70.7998 55.2777C71.4805 52.5547 74.7567 52.3632 76.7989 53.5545C78.8837 54.7671 80.309 56.9583 81.3514 59.0644C82.4364 61.2768 83.2235 63.6594 83.9894 65.9995C84.8616 68.68 85.521 71.4881 85.0743 74.3174C85.0105 74.7216 85.6274 74.8918 85.6912 74.4876C86.2018 71.254 85.3934 68.1268 84.351 65.0635C83.3937 62.2766 82.4577 59.4047 80.8622 56.8945C79.5219 54.7671 77.5222 52.5547 74.8843 52.193C72.8421 51.9165 70.6722 53.0227 70.1616 55.1075C70.0765 55.5117 70.6934 55.6819 70.7998 55.2777Z" fill="black"/>
<path opacity="0.1" d="M63.8011 47.1089C65.503 46.4282 67.1624 47.1727 67.5665 47.3642C66.3752 48.9384 63.8437 52.7464 63.631 58.1286C63.3119 65.787 67.8857 70.8714 69.5024 72.6796C71.5872 74.9984 74.3102 78.0193 77.8204 77.5938C79.7988 77.3598 81.6709 76.0408 82.6282 74.3602C83.5855 72.6796 83.5217 70.8501 82.3729 66.1274C80.6072 58.9795 78.6713 54.7886 78.9479 54.661C79.2244 54.5333 81.5219 58.1286 83.2451 62.6385C83.4153 63.1066 84.8406 66.8932 85.3512 72.1052C85.6703 75.3175 85.3937 76.6365 84.7342 77.8065C83.7131 79.6148 82.0538 80.4232 81.4156 80.6997C78.8415 81.7847 76.3738 81.0188 75.2037 80.6146C71.0129 79.2106 68.7791 75.8068 66.5241 72.3818C63.0566 67.0847 62.0993 62.5534 61.1845 58.1924C60.5463 55.1716 60.1208 51.6614 61.7163 49.0873C61.9929 48.5555 62.6098 47.5982 63.8011 47.1089Z" fill="#494949"/>
<path d="M33.0821 36.7481C33.0183 37.7479 33.38 38.8754 34.1458 41.1304C34.9968 43.662 35.9115 46.3637 38.209 49.0229C39.6769 50.7247 41.4639 52.8095 44.506 53.4052C46.9099 53.8732 48.9309 53.1925 49.952 52.767C50.186 53.4052 50.5051 54.086 50.9093 54.788C51.973 56.66 53.2919 57.979 54.3343 58.8512C55.1215 58.7661 56.6531 58.447 57.9721 57.2557C58.9932 56.3197 59.4825 55.2135 59.7803 54.4902C60.142 53.6392 60.3335 52.8946 60.4186 52.3628C59.7804 51.9799 59.0783 51.4693 58.3976 50.7673C56.2702 48.5974 55.6958 46.0233 55.5257 44.7895C55.8022 42.343 56.1 39.8753 56.3766 37.4288C56.6957 37.4714 57.3764 37.5139 57.9721 37.1097C58.6316 36.663 58.7592 35.9184 58.9294 35.0887C59.0996 34.2591 59.2911 33.1954 58.823 31.9828C58.6103 31.451 57.9296 29.7491 56.483 29.6427C55.5044 29.5576 54.5045 30.2171 53.9301 31.2382C52.6963 30.0469 50.0584 27.9409 46.3568 27.6005C39.9535 27.0048 33.4438 32.0041 33.0821 36.7481Z" fill="white"/>
<path d="M42.5275 46.4702C42.3574 46.9169 42.8466 47.5551 43.2083 47.8742C44.2081 48.7465 45.9738 48.7039 47.2502 48.1082C49.0372 47.2786 49.6116 45.4916 49.8669 44.6832C50.1647 43.7897 50.5476 42.6197 49.9307 41.5773C49.3989 40.6625 48.4628 40.3434 48.1012 40.2371C47.7395 40.9816 47.463 41.5347 47.2502 41.8964C46.995 42.3431 46.9099 42.492 46.761 42.8324C46.5482 43.2792 46.527 43.4494 46.2291 43.8536C45.0165 45.4278 43.3572 46.0022 43.3572 46.0022C42.9743 46.0873 42.6339 46.1724 42.5275 46.4702Z" fill="black"/>
<path d="M33.4226 39.3014C35.1032 44.5559 37.2093 50.6827 42.634 53.1504C44.8464 54.1503 47.4844 54.3417 49.7393 53.3632C52.2709 52.2782 53.76 49.7679 54.7812 47.3428C56.1214 44.173 56.6958 40.7267 56.483 37.3017C56.4618 36.8975 55.8236 36.8975 55.8448 37.3017C56.0576 40.8756 55.4194 44.4708 53.9089 47.7257C52.4411 50.8954 50.1223 53.427 46.3994 53.3844C38.9111 53.2993 35.869 45.0452 33.997 39.1525C33.9119 38.727 33.3162 38.8972 33.4226 39.3014Z" fill="black"/>
<path d="M54.1641 31.834C54.1854 30.5576 55.5043 29.7917 56.6744 30.1534C57.7593 30.515 58.4401 31.5787 58.6741 32.6424C58.8868 33.6635 58.8017 34.8548 58.4826 35.8334C58.2273 36.6418 57.9082 37.0672 56.9296 37.0672C56.5893 37.0672 56.2489 36.9396 55.8872 36.9396C55.483 36.9396 55.483 37.5778 55.8872 37.5778C56.6105 37.5778 57.3126 37.9182 58.0146 37.5565C58.5251 37.3013 58.823 36.7907 59.0357 36.2589C59.5888 34.8123 59.6526 32.8551 58.9506 31.4298C58.3762 30.2597 57.1424 29.2599 55.7809 29.4088C54.5257 29.5364 53.5472 30.5576 53.5259 31.8127C53.5259 32.2382 54.1641 32.2382 54.1641 31.834Z" fill="black"/>
<path d="M55.4194 43.4919C55.3556 47.002 56.9085 50.3632 59.6741 52.5544C59.9932 52.8096 60.4399 52.3629 60.1208 52.1076C57.4829 50.0228 55.9938 46.8744 56.0576 43.4919C56.0576 43.0877 55.4194 43.0877 55.4194 43.4919Z" fill="black"/>
<path d="M49.9307 53.0223C50.7391 55.256 52.0581 57.2131 53.8238 58.7874C54.1216 59.0639 54.5896 58.6172 54.2705 58.3406C52.5687 56.8302 51.3135 54.9794 50.5264 52.8521C50.3988 52.4692 49.7818 52.6393 49.9307 53.0223Z" fill="black"/>
<path d="M53.9725 59.0006C55.8021 59.6601 57.6316 58.1071 58.7591 56.8095C59.9504 55.4479 60.9928 53.6823 60.4822 51.8315C60.3759 51.4273 59.7589 51.5974 59.8653 52.0016C60.2908 53.6184 59.3335 55.1927 58.2911 56.3627C57.3125 57.4689 55.717 58.9581 54.1215 58.3837C53.7598 58.2348 53.5896 58.8517 53.9725 59.0006Z" fill="black"/>
<path d="M35.8048 37.0674C35.5283 36.2803 36.1665 35.4293 36.6345 34.8762C37.3365 34.004 38.4215 33.77 39.2299 34.6635C40.1659 35.6846 40.4212 37.5142 40.5488 38.8331C40.6339 39.7479 40.3148 40.9179 40.8466 41.7263C41.421 42.5985 42.4847 43.1091 43.4846 43.3005C43.8887 43.3856 44.0589 42.7687 43.6547 42.6836C43.1229 42.5772 42.6549 42.407 42.1869 42.1092C41.421 41.5987 41.2508 41.0455 41.2296 40.1308C41.2083 39.3437 41.187 38.5778 41.0594 37.7907C40.8466 36.493 40.485 34.8337 39.4213 33.9615C38.5278 33.2169 37.4216 33.2382 36.5494 33.9828C35.7197 34.7061 34.7624 36.0888 35.1666 37.2163C35.3368 37.6205 35.9537 37.4503 35.8048 37.0674Z" fill="black"/>
<path d="M41.6978 32.472C41.8467 29.898 45.059 28.9619 46.5482 31.068C46.7822 31.4084 47.3353 31.0893 47.1013 30.7489C45.2505 28.111 41.2511 29.2385 41.0596 32.472C41.0383 32.8762 41.6765 32.8762 41.6978 32.472Z" fill="black"/>
<path d="M38.805 38.7693C38.5071 38.3651 38.3369 37.9184 38.3157 37.4291C38.1455 37.5142 37.9966 37.6205 37.8264 37.7056C38.3157 38.0247 38.571 38.5353 38.5497 39.1097C38.6773 39.0033 38.8262 38.8969 38.9539 38.8118C38.422 38.6204 38.0817 38.0247 38.188 37.4716C38.0391 37.5354 37.8689 37.5993 37.72 37.6631C37.9753 37.812 38.188 38.0247 38.3369 38.3013C38.4008 38.4289 38.4433 38.5566 38.4646 38.7055C38.4646 38.8118 38.4646 38.6842 38.4433 38.6417C38.4008 38.5566 38.3582 38.4927 38.3157 38.4076C38.1455 38.0247 37.5924 38.3651 37.7626 38.7268C37.8902 39.0246 38.1029 39.3437 38.4859 39.365C38.805 39.3862 39.0815 39.1735 39.1241 38.8544C39.1879 38.1524 38.6348 37.4503 38.0604 37.1312C37.8902 37.0249 37.6349 37.11 37.5924 37.3227C37.4222 38.2375 37.9328 39.1309 38.805 39.4501C39.0177 39.5139 39.2092 39.3437 39.2092 39.1522C39.2304 38.3438 38.8475 37.6205 38.1668 37.1951C37.9753 37.0674 37.6775 37.2376 37.6775 37.4716C37.6987 38.0673 37.8902 38.6417 38.2519 39.1309C38.5071 39.4288 39.0602 39.1097 38.805 38.7693Z" fill="black"/>
<path d="M44.7608 34.6636C44.6544 34.536 44.5693 34.387 44.5268 34.2169C44.5268 34.1743 44.4842 33.919 44.5268 33.8978C44.5693 33.8765 44.6757 34.2169 44.697 34.2381C44.7395 34.4083 44.7183 34.5998 44.6332 34.7487C44.7821 34.7061 44.931 34.6636 45.0799 34.6423C44.5481 34.3445 44.2928 33.7914 44.3779 33.1957C44.2077 33.2808 44.0588 33.3872 43.8886 33.4723C44.4842 33.7276 44.8246 34.3445 44.6757 34.9827C44.8033 34.9189 44.931 34.8338 45.0586 34.77C44.7395 34.6636 44.4842 34.387 44.4204 34.0467C44.4204 34.0254 44.4204 33.8339 44.3992 33.8339C44.3566 33.8552 44.3141 33.8765 44.2502 33.8978C44.2715 33.9403 44.3141 34.0041 44.3353 34.0467C44.4204 34.2807 44.4204 34.5147 44.3992 34.77C44.5906 34.6849 44.7608 34.6211 44.9523 34.536C44.7608 34.387 44.6119 34.2169 44.5055 33.9829C44.3141 33.6212 43.7609 33.9403 43.9524 34.302C44.0801 34.5572 44.2715 34.7912 44.5055 34.9827C44.7395 35.1742 45.0161 35.0465 45.0586 34.7487C45.1012 34.3232 45.0586 33.7488 44.7395 33.4297C44.4842 33.1745 44.0162 33.1532 43.846 33.5361C43.5057 34.2807 44.229 35.1529 44.8884 35.3869C45.0586 35.4507 45.2501 35.3231 45.2714 35.1742C45.5054 34.2807 45.0586 33.3021 44.1864 32.9405C43.9524 32.8341 43.7397 32.9617 43.6971 33.217C43.5908 34.0254 44.0162 34.8125 44.7183 35.2167C44.8459 35.3018 45.0799 35.2593 45.165 35.1103C45.3352 34.7061 45.3777 34.302 45.2288 33.8978C45.1012 33.5787 44.8246 33.2383 44.463 33.2808C43.5269 33.3872 43.9311 34.7274 44.3141 35.1529C44.5906 35.4294 45.0374 34.9614 44.7608 34.6636Z" fill="black"/>
<path d="M50.3135 52.9584C50.3135 52.9796 50.3135 52.9796 50.2922 53.0009C50.4198 52.9371 50.5475 52.852 50.6751 52.7882C50.6538 52.7882 50.6326 52.7669 50.6113 52.7669C50.6751 52.9158 50.7389 53.086 50.8028 53.2349C50.8453 53.1498 51.4197 52.8733 51.5899 52.7243C51.9728 52.4052 52.2919 51.9798 52.5897 51.5756C53.2492 50.7034 53.7385 49.7461 54.1427 48.7462C53.93 48.6824 53.7385 48.6398 53.5258 48.576C52.8876 50.4055 52.4408 52.9584 50.6538 54.0433C50.8028 54.1922 50.9517 54.3411 51.1006 54.49C51.5261 53.8518 51.9515 53.1924 52.377 52.5542C52.5685 52.2563 52.1217 51.8947 51.8664 52.1712C51.5261 52.5329 51.1644 52.9158 50.824 53.2775C50.9729 53.4264 51.1219 53.5753 51.2708 53.7242C51.5899 53.3413 51.8877 52.9371 52.1643 52.5329C52.377 52.2351 51.909 51.8734 51.6537 52.15C51.3559 52.4691 51.058 52.7031 50.6751 52.8945C50.8453 52.9796 50.9942 53.086 51.1644 53.1711C51.1644 53.1073 51.1431 53.0434 51.1431 52.9796C51.1006 52.5754 50.4624 52.5754 50.5049 52.9796C50.5049 53.0434 50.5262 53.1073 50.5262 53.1711C50.5475 53.4051 50.7815 53.5753 51.0155 53.4476C51.441 53.2136 51.7813 52.9584 52.1217 52.5967C51.9515 52.4691 51.7813 52.3414 51.6112 52.2138C51.3559 52.5754 51.1006 52.9371 50.824 53.2775C50.5688 53.5966 50.9942 54.0433 51.2708 53.7242C51.6112 53.3625 51.9728 52.9796 52.3132 52.618C52.143 52.4903 51.9728 52.3627 51.8026 52.2351C51.3771 52.8733 50.9517 53.5327 50.5262 54.1709C50.356 54.4475 50.6964 54.7666 50.9729 54.6177C52.9301 53.4264 53.4407 50.7885 54.1427 48.7675C54.2703 48.3633 53.6747 48.2356 53.5258 48.5973C53.079 49.6822 52.5046 50.7459 51.7388 51.6394C51.3771 52.0649 50.8028 52.2989 50.4624 52.6818C50.3773 52.7669 50.2922 52.7882 50.2496 52.8945C50.1433 53.086 50.2284 53.2775 50.4411 53.3625C50.4624 53.3625 50.4837 53.3838 50.5049 53.3838C50.6751 53.4476 50.8453 53.32 50.8879 53.1711C50.8879 53.1498 50.8879 53.1498 50.9091 53.1285C51.0793 52.7456 50.4624 52.5754 50.3135 52.9584Z" fill="black"/>
<path d="M52.6748 52.3206C52.8663 52.1078 52.9939 51.8951 53.0577 51.6398C53.1641 51.2569 52.6748 51.1292 52.4833 51.3845C52.0366 51.9802 51.5899 52.5758 51.1431 53.1715C50.8878 53.4906 51.4409 53.8097 51.6962 53.4906C52.143 52.8949 52.5897 52.2993 53.0365 51.7036C52.845 51.6185 52.6535 51.5334 52.4621 51.4483C52.4195 51.5973 52.3557 51.7249 52.2493 51.8525C51.9515 52.1929 52.4195 52.6397 52.6748 52.3206Z" fill="black"/>
<path d="M42.8464 47.0448C42.2507 45.8534 42.8889 45.4067 44.0802 45.0876C44.2291 45.0451 44.3781 45.0238 44.5057 44.96C45.0163 44.726 45.3141 44.2154 45.5268 43.7261C45.8672 43.0028 46.0587 42.2157 46.5054 41.5562C47.4414 40.1309 49.1008 40.1947 49.6326 41.8966C50.1644 43.5985 49.505 45.4918 48.3775 46.7895C47.8244 47.4277 47.1436 48.0233 46.3352 48.2999C45.6332 48.5552 45.0163 48.4701 44.3355 48.1723C43.8462 47.9595 42.9527 47.534 42.8251 46.9809C42.74 46.5767 42.1231 46.7469 42.2082 47.1511C42.4422 48.2573 44.1015 48.9381 45.1014 49.087C46.1863 49.2572 47.2074 48.7254 48.0371 48.0446C49.8879 46.5129 51.0367 43.8112 50.1432 41.4711C49.1859 38.9396 46.5905 39.8756 45.6332 41.8753C45.3354 42.4922 45.1865 43.5346 44.6972 43.9814C44.0802 44.5558 43.2931 44.343 42.6549 44.7898C41.7614 45.428 41.8465 46.5555 42.2933 47.4277C42.4847 47.7468 43.0378 47.4277 42.8464 47.0448Z" fill="black"/>
<path d="M42.4213 46.385C45.7187 46.2999 47.3142 43.2365 48.0375 40.4284C48.1439 40.0242 47.5269 39.854 47.4206 40.2582C46.7824 42.7685 45.3996 45.6617 42.4213 45.7468C42.0171 45.768 42.0171 46.4062 42.4213 46.385Z" fill="black"/>
<path d="M33.6775 38.9612C33.2946 39.174 30.9758 36.6424 29.9972 33.2599C29.2739 30.7922 29.4867 28.601 29.7419 27.2183C30.1036 26.112 30.6142 24.9207 31.3162 23.7081C34.337 18.5174 39.1023 16.071 41.57 15.0286C41.0594 15.5179 40.4638 16.1561 39.9107 16.9645C39.1448 18.0281 38.6555 19.028 38.3364 19.8576C39.0597 19.2407 39.8894 18.6238 40.7829 18.0281C42.7826 16.6879 44.7185 15.7306 46.3991 15.0498C46.1438 16.1348 45.8672 17.2197 45.612 18.2834C46.2076 17.943 47.0373 17.4537 48.0584 16.9645C49.1859 16.4326 51.5047 15.3264 51.8664 15.8157C51.9727 15.9646 51.8451 16.1348 51.6536 16.7517C51.3983 17.5601 51.3132 18.2409 51.2707 18.6876C51.9302 18.5812 52.6747 18.4961 53.4831 18.4749C54.3766 18.4323 55.185 18.4749 55.9083 18.5387C55.653 19.5173 55.3978 20.4746 55.1425 21.4532C55.653 21.6446 56.3763 22.0063 57.1209 22.6019C59.1206 24.24 59.695 26.4524 59.8439 27.3246C60.163 29.4094 59.6524 31.1539 59.2695 32.1112C58.2484 29.9413 56.2274 29.0903 55.0786 29.6222C54.3766 29.9413 53.5682 30.9624 53.6533 32.0048C53.6746 32.2388 53.7384 32.4515 53.8022 32.6005C53.0577 31.9197 51.9302 31.0049 50.4623 30.154C48.9944 29.3031 47.3564 28.3458 45.1865 28.0692C41.102 27.5374 37.911 29.7711 37.06 30.388C35.7411 31.324 33.5924 32.8345 33.2095 35.2384C32.8266 37.2593 33.9754 38.8123 33.6775 38.9612Z" fill="#2B2B2B"/>
<path opacity="0.11" d="M49.867 29.6217C50.5265 31.1109 51.42 33.4297 51.9092 36.3441C52.4198 39.2373 53.058 42.9602 51.505 47.0872C50.9732 48.4913 49.7181 51.193 46.7398 53.7246C47.4418 53.7033 48.6544 53.5756 49.9308 52.8949C52.0156 51.8099 52.9304 50.0017 53.2069 49.3635C54.2068 50.3421 55.547 51.8738 56.5681 54.0437C57.1425 55.2562 57.5042 56.3837 57.7169 57.3198C58.2913 56.8092 59.355 55.703 59.8442 53.9586C60.0357 53.2778 60.0995 52.6609 60.0995 52.1503C58.8657 51.4696 58.0785 50.6399 57.6318 50.1081C57.4403 49.8741 55.547 47.4914 55.6534 44.194C55.6959 43.0027 55.9512 42.9815 56.1427 41.1519C56.3129 39.5139 56.2278 38.1311 56.1427 37.2163C57.2276 37.6631 57.7807 37.4503 58.036 37.3014C58.5253 37.0036 58.6529 36.4718 59.0997 33.77C59.3337 32.3234 59.4613 31.6001 59.5039 31.2172C59.7592 29.1537 59.8868 28.1113 59.7592 27.2816C59.3975 24.9203 57.8871 23.346 57.3765 22.8567C56.5256 22.0271 55.6534 21.5591 55.079 21.3038C55.3343 20.4103 55.5683 19.4955 55.8236 18.6021C54.611 20.0274 53.4835 21.006 52.7176 21.6442C50.803 23.1758 49.6968 23.5375 48.3778 25.0054C47.3354 26.1541 46.7398 27.3242 46.3994 28.1113C47.5695 28.6431 48.7182 29.1324 49.867 29.6217Z" fill="#494949"/>
<path opacity="0.17" d="M41.932 15.7515C41.1662 15.9429 39.358 16.5386 37.8475 18.2192C37.4859 18.6447 36.635 19.6658 36.1669 21.2613C35.6564 23.0057 35.8478 24.4949 35.9967 25.2182C36.3797 23.495 37.2732 20.7507 39.443 18.1554C40.2727 17.1555 41.1449 16.3471 41.932 15.7515Z" fill="#494949"/>
<path opacity="0.08" d="M56.1428 37.3228C56.079 37.3015 55.9514 37.5355 55.4834 39.1523C54.8452 41.3435 54.5048 42.9603 54.3133 43.7687C54.0368 44.9387 53.5687 46.598 52.6965 48.5977C54.2069 48.8956 55.7174 49.1934 57.2278 49.4699C56.6747 48.2574 56.0152 46.5129 55.7599 44.343C55.3557 40.6202 56.3556 37.3653 56.1428 37.3228Z" fill="#494949"/>
</svg>
