<svg width="128" height="99" viewBox="0 0 128 99" fill="none" xmlns="http://www.w3.org/2000/svg">
<path d="M60.9863 6.63594C139.56 34.5131 136.715 65.4614 112.89 78.5732C89.0653 91.6849 21.8193 117.107 9.08256 78.5732C-1.79264 45.6712 -17.5876 -21.2412 60.9863 6.63594Z" fill="#FFCD00"/>
<mask id="mask0_191_1073" style="mask-type:alpha" maskUnits="userSpaceOnUse" x="0" y="0" width="128" height="99">
<path d="M60.9863 6.63594C139.56 34.5131 136.715 65.4614 112.89 78.5732C89.0653 91.6849 21.8193 117.107 9.08256 78.5732C-1.79264 45.6712 -17.5876 -21.2412 60.9863 6.63594Z" fill="#D9D9D9"/>
</mask>
<g mask="url(#mask0_191_1073)">
<path d="M104.715 78.8159C104.513 78.6989 104.301 78.5819 104.099 78.4649C103.918 78.3691 104.077 78.0926 104.258 78.1883C104.46 78.3053 104.673 78.4223 104.875 78.5393C105.056 78.6457 104.896 78.9222 104.715 78.8159Z" fill="#161616"/>
<path d="M107.566 80.188C105.62 79.3584 103.673 78.5287 101.727 77.699C99.7803 76.8693 97.9614 76.0503 95.7808 76.2737C93.7917 76.4758 91.8346 77.231 89.9731 77.933C88.0266 78.667 86.1226 79.4966 84.2718 80.4327C83.9102 80.6135 83.5804 80.0604 83.9527 79.8796C86.8885 78.4117 89.9625 77.114 93.111 76.1886C94.632 75.7418 96.2276 75.444 97.8124 75.6674C99.3973 75.8908 100.886 76.646 102.344 77.2735C104.195 78.0607 106.045 78.8478 107.885 79.6455C108.268 79.7945 107.939 80.3476 107.566 80.188Z" fill="#161616"/>
<path d="M89.526 84.8469C80.623 84.8469 71.7307 84.8469 62.8277 84.8469C60.2855 84.8469 57.7433 84.8469 55.2011 84.8469C54.7863 84.8469 54.7863 84.2087 55.2011 84.2087C64.1041 84.2087 72.9965 84.2087 81.8995 84.2087C84.4416 84.2087 86.9838 84.2087 89.526 84.2087C89.9409 84.2087 89.9409 84.8469 89.526 84.8469Z" fill="#161616"/>
<path d="M60.9451 86.9319C49.7872 86.9319 38.6292 86.9319 27.4712 86.9319C24.2908 86.9319 21.121 86.9319 17.9406 86.9319C17.5258 86.9319 17.5258 86.2937 17.9406 86.2937C29.0986 86.2937 40.2566 86.2937 51.4146 86.2937C54.595 86.2937 57.7647 86.2937 60.9451 86.2937C61.3493 86.2937 61.3493 86.9319 60.9451 86.9319Z" fill="#161616"/>
<path d="M45.1811 84.6022C32.7147 84.6022 20.2591 84.6022 7.79276 84.6022C4.2507 84.6022 0.708649 84.6022 -2.8334 84.6022C-3.24823 84.6022 -3.24823 83.964 -2.8334 83.964C9.63292 83.964 22.0886 83.964 34.5549 83.964C38.097 83.964 41.639 83.964 45.1811 83.964C45.5959 83.964 45.5959 84.6022 45.1811 84.6022Z" fill="#161616"/>
<path d="M82.9204 81.2411C81.027 81.9112 79.1443 82.6239 77.2829 83.3791C76.9 83.5387 76.7404 82.9217 77.1127 82.7622C78.9741 82.007 80.8568 81.2943 82.7502 80.6242C83.1331 80.4859 83.3033 81.1028 82.9204 81.2411Z" fill="#161616"/>
<path d="M106.534 86.3999C101.641 86.3999 96.7378 86.3999 91.8448 86.3999C91.43 86.3999 91.43 85.7617 91.8448 85.7617C96.7378 85.7617 101.641 85.7617 106.534 85.7617C106.938 85.7617 106.938 86.3999 106.534 86.3999Z" fill="#161616"/>
<path d="M62.8598 93.3031C56.6266 93.3031 50.3935 93.3031 44.1603 93.3031C43.7455 93.3031 43.7455 92.6649 44.1603 92.6649C50.3935 92.6649 56.6266 92.6649 62.8598 92.6649C63.2746 92.6649 63.2746 93.3031 62.8598 93.3031Z" fill="#161616"/>
<path d="M115.544 86.4425C117.235 85.3257 118.501 83.7089 119.405 81.9113C119.915 80.9114 120.309 79.869 120.639 78.8053C120.788 78.3479 121.032 77.7948 121.064 77.3162C121.075 77.1034 121.149 77.1354 120.926 77.1247C120.809 77.1247 120.639 77.2098 120.532 77.2417C120.234 77.3268 119.947 77.4225 119.649 77.5076C119.447 77.5715 119.373 77.263 119.564 77.1992C119.926 77.0928 120.288 76.9758 120.649 76.8694C120.809 76.8163 121.053 76.6992 121.234 76.7631C121.532 76.8588 121.436 77.1673 121.383 77.4013C121.053 78.699 120.628 79.9754 120.096 81.1986C119.139 83.3898 117.714 85.3789 115.703 86.7191C115.533 86.8361 115.373 86.5595 115.544 86.4425Z" fill="#E8E8E8"/>
<path d="M119.831 77.1461C121.416 73.2743 121.479 69.0515 121.533 64.9244C121.628 64.967 121.713 64.9989 121.809 65.0414C121.511 65.3392 121.203 65.6477 120.905 65.9455C120.756 66.0945 120.533 65.8604 120.682 65.7222C120.979 65.4243 121.288 65.1159 121.586 64.818C121.681 64.7223 121.862 64.7968 121.862 64.935C121.82 69.0834 121.745 73.3381 120.15 77.2418C120.065 77.4226 119.756 77.3375 119.831 77.1461Z" fill="#E8E8E8"/>
<path d="M120.618 65.6371C120.596 63.0098 120.309 60.3932 119.735 57.8297C119.809 57.8616 119.894 57.8935 119.969 57.9254C116.927 60.0847 115.735 63.9246 114.629 67.3071C113.331 71.2852 112.3 75.3804 111.853 79.55C111.725 80.7094 111.651 81.8688 111.619 83.0389C111.587 84.2515 111.523 85.5173 111.853 86.6979C111.906 86.9 111.598 86.9851 111.544 86.783C111.268 85.7619 111.279 84.6876 111.289 83.6452C111.3 82.5815 111.353 81.5178 111.449 80.4541C111.64 78.3161 111.981 76.1888 112.438 74.0933C112.917 71.9022 113.512 69.7429 114.204 67.6155C114.789 65.7966 115.395 63.9565 116.214 62.2227C117.065 60.4463 118.192 58.8083 119.809 57.6595C119.894 57.6063 120.022 57.6595 120.043 57.7552C120.618 60.3506 120.915 62.9885 120.937 65.6477C120.937 65.8498 120.618 65.8498 120.618 65.6371Z" fill="#E8E8E8"/>
<path d="M113.331 70.934C111.767 66.3176 108.385 62.6266 106.449 58.1911C106.545 58.1592 106.651 58.1379 106.747 58.106C106.555 60.1802 106.396 62.265 106.247 64.3498C106.173 65.3922 106.119 66.4346 106.056 67.477C106.034 67.9663 106.002 68.4449 105.981 68.9342C105.96 69.3065 105.939 69.4023 106.226 69.6469C106.428 69.8171 106.704 69.9447 106.938 70.0937C107.109 70.2 106.949 70.4766 106.779 70.3702C106.428 70.1468 106.066 69.9235 105.715 69.7001C105.673 69.6682 105.63 69.615 105.641 69.5618C105.822 65.7432 106.077 61.914 106.428 58.106C106.438 57.9677 106.651 57.8613 106.726 58.0209C108.683 62.4883 112.065 66.2006 113.64 70.8382C113.703 71.051 113.395 71.1254 113.331 70.934Z" fill="#E8E8E8"/>
<path d="M106.949 70.3598C105.46 70.2748 106.438 73.4871 106.609 74.2742C106.885 75.5719 107.215 76.8589 107.598 78.1247C108.374 80.6882 109.385 83.1665 110.597 85.5492C110.693 85.73 110.417 85.8896 110.321 85.7087C108.917 82.9538 107.789 80.0712 106.96 77.0929C106.545 75.5931 106.204 74.0721 105.949 72.5404C105.811 71.6894 105.566 69.9556 106.938 70.0407C107.151 70.0514 107.151 70.3705 106.949 70.3598Z" fill="#E8E8E8"/>
<path d="M106.864 58.5635C107.662 65.052 110.491 71.0192 112.193 77.2737C112.246 77.4758 111.938 77.5609 111.885 77.3588C110.172 71.0724 107.353 65.0733 106.545 58.5635C106.524 58.3508 106.843 58.3614 106.864 58.5635Z" fill="#E8E8E8"/>
<path d="M120.086 57.8827C117.607 65.2859 115.608 72.8487 114.108 80.5071C113.682 82.6771 113.3 84.8682 112.949 87.0488C112.917 87.2509 112.608 87.1658 112.64 86.9637C113.853 79.252 115.565 71.6148 117.778 64.1265C118.405 61.9991 119.075 59.8824 119.777 57.787C119.841 57.6061 120.15 57.6912 120.086 57.8827Z" fill="#E8E8E8"/>
<path d="M121.638 67.6262C118.841 69.3387 116.618 71.849 115.246 74.8273C115.161 75.0187 114.884 74.8485 114.969 74.6677C116.363 71.6469 118.639 69.094 121.479 67.3496C121.649 67.2432 121.819 67.5198 121.638 67.6262Z" fill="#E8E8E8"/>
<path d="M120.841 79.0181C118.065 79.9967 115.033 81.1242 113.523 83.8366C113.427 84.0174 113.15 83.8578 113.246 83.677C114.81 80.8902 117.905 79.7201 120.756 78.7096C120.947 78.6352 121.032 78.9436 120.841 79.0181Z" fill="#E8E8E8"/>
<path d="M116.98 61.478C117.235 63.1054 117.384 64.7328 117.405 66.3815C117.405 66.5836 117.086 66.5836 117.086 66.3815C117.065 64.7648 116.926 63.1586 116.671 61.5631C116.639 61.361 116.948 61.2759 116.98 61.478Z" fill="#E8E8E8"/>
<path d="M111.385 66.3498C111.108 68.2644 110.842 70.179 110.566 72.1043C110.534 72.3064 110.225 72.2213 110.257 72.0192C110.534 70.1046 110.8 68.19 111.076 66.2647C111.108 66.052 111.417 66.1477 111.385 66.3498Z" fill="#E8E8E8"/>
<path d="M108.63 67.5623C107.609 66.6475 106.737 65.5945 106.045 64.4032C105.939 64.2223 106.215 64.0628 106.322 64.2436C107.002 65.403 107.853 66.4454 108.853 67.3389C109.013 67.4772 108.779 67.7006 108.63 67.5623Z" fill="#E8E8E8"/>
<path d="M12.984 83.7619C13.9625 80.8794 14.5157 77.8904 14.6433 74.8483C14.7284 74.8909 14.8029 74.944 14.8879 74.9866C14.3561 75.2951 13.8349 75.6142 13.3031 75.9226C13.1861 75.9864 13.0265 75.8801 13.0691 75.7418C13.5477 74.3909 13.6328 72.9443 13.2712 71.5509C12.8989 70.1469 12.0798 68.8704 11.3884 67.6047C9.95247 64.9561 8.50587 62.3075 7.0699 59.659C7.16564 59.6483 7.26137 59.6377 7.3571 59.6164C7.01672 61.7119 6.67634 63.818 6.33597 65.9134C6.16578 66.9452 5.99559 67.9769 5.83604 69.0087C5.75094 69.5193 5.51693 70.1681 5.8254 70.6361C6.08068 71.0191 6.5487 71.2318 6.96354 71.4126C7.10182 71.4765 7.03799 71.6573 6.92099 71.6998C6.46361 71.8913 5.91049 72.1359 5.68712 72.604C5.44248 73.1358 5.74031 73.9016 5.87858 74.4548C6.1445 75.5397 6.46361 76.614 6.8359 77.6777C7.59111 79.8157 8.55906 81.858 9.71847 83.8045C9.82483 83.9853 9.54828 84.1449 9.44191 83.964C8.11231 81.7197 7.02736 79.337 6.2296 76.848C6.03814 76.2417 5.85731 75.6248 5.69776 75.0079C5.54884 74.4228 5.34674 73.7953 5.29356 73.189C5.20847 72.1998 6.05941 71.7317 6.84653 71.402C6.83589 71.4977 6.82526 71.5935 6.80399 71.6892C6.17641 71.4126 5.44248 71.0191 5.36802 70.2532C5.32547 69.7533 5.48502 69.2002 5.55948 68.7215C5.65521 68.1046 5.76158 67.4877 5.85731 66.8601C6.25087 64.4136 6.65507 61.9778 7.04863 59.5313C7.0699 59.3931 7.28264 59.3824 7.33582 59.4888C8.87816 62.3182 10.4205 65.1476 11.9628 67.9876C12.6436 69.2427 13.3988 70.4872 13.6754 71.9126C13.9306 73.2209 13.8136 74.5611 13.3669 75.8163C13.2924 75.7524 13.2073 75.6993 13.1329 75.6354C13.6647 75.327 14.1859 75.0079 14.7178 74.6994C14.8241 74.6356 14.9624 74.71 14.9624 74.8377C14.8454 77.9011 14.2816 80.9326 13.2924 83.8364C13.2286 84.0385 12.9201 83.9534 12.984 83.7619Z" fill="#E8E8E8"/>
<path d="M5.67664 66.7644C3.46419 64.4456 1.26238 62.1055 -0.907528 59.7441C-0.822433 59.6909 -0.726703 59.6378 -0.641608 59.5846C-0.301231 61.2652 -0.152316 62.9883 -0.23741 64.7009C-0.279957 65.5837 -0.407598 66.4453 -0.513966 67.3175C-0.56715 67.7111 -0.609697 68.1153 -0.620334 68.5088C-0.630971 68.7216 -0.662882 69.0513 -0.428872 69.1896C-0.23741 69.296 0.241245 69.2747 0.475255 69.296C0.592259 69.3066 0.709265 69.4768 0.59226 69.5725C-0.652245 70.5617 0.422071 72.37 0.943274 73.4762C1.50702 74.6782 2.11332 75.8482 2.7728 76.997C4.11304 79.3371 5.65537 81.5602 7.36789 83.645C7.49554 83.8045 7.27216 84.0279 7.14452 83.8684C5.25117 81.5708 3.57056 79.1031 2.12396 76.5077C1.39002 75.1887 0.709265 73.8272 0.113605 72.4445C-0.311867 71.4446 -0.630971 70.1469 0.35825 69.3598C0.400797 69.4555 0.432707 69.5406 0.475255 69.6363C-0.120406 69.5725 -0.86498 69.6683 -0.939438 68.9343C-1.02453 67.9557 -0.758613 66.9133 -0.652245 65.9454C-0.418235 63.8606 -0.524603 61.7545 -0.950074 59.6909C-0.981985 59.542 -0.801159 59.4144 -0.684155 59.5314C1.49639 61.8928 3.68757 64.2329 5.90002 66.5517C6.04893 66.6899 5.82556 66.9133 5.67664 66.7644Z" fill="#E8E8E8"/>
<path d="M0.591949 61.5843C2.15556 64.786 2.43211 68.4663 3.5277 71.8275C4.68711 75.4015 6.32518 78.7946 8.08025 82.1027C8.17598 82.2835 7.89942 82.443 7.80369 82.2622C6.10181 79.0393 4.50629 75.7419 3.34688 72.2849C2.77249 70.5618 2.34702 68.8173 1.95346 67.041C1.5599 65.2327 1.13443 63.4138 0.315392 61.7439C0.230299 61.563 0.496218 61.4035 0.591949 61.5843Z" fill="#E8E8E8"/>
<path d="M7.71841 61.5631C8.01624 68.4344 10.7499 74.891 11.3349 81.7198C11.3562 81.9219 11.0371 81.9219 11.0158 81.7198C10.4308 74.891 7.69714 68.4344 7.39931 61.5631C7.39931 61.361 7.71841 61.361 7.71841 61.5631Z" fill="#E8E8E8"/>
<path d="M13.0688 70.2427C12.3986 72.1148 11.569 73.9124 10.5797 75.6356C10.4734 75.8164 10.1968 75.6568 10.3032 75.476C11.2818 73.7741 12.1008 71.9978 12.7603 70.1576C12.8241 69.9661 13.1326 70.0512 13.0688 70.2427Z" fill="#E8E8E8"/>
<path d="M9.85641 64.3073C9.47349 65.7539 9.1012 67.2005 8.71827 68.6472C8.66509 68.8493 8.35662 68.7642 8.40981 68.5621C8.79273 67.1155 9.16502 65.6689 9.54794 64.2222C9.60113 64.0201 9.9096 64.1052 9.85641 64.3073Z" fill="#E8E8E8"/>
<path d="M6.73988 63.499C7.21854 64.3818 7.68655 65.2753 8.16521 66.1582C8.26094 66.339 7.98439 66.4986 7.88865 66.3177C7.41 65.4349 6.94198 64.5414 6.46332 63.6585C6.36759 63.4777 6.64415 63.3182 6.73988 63.499Z" fill="#E8E8E8"/>
<path d="M4.46361 64.9987C4.30406 67.3388 4.07005 69.6789 3.75094 72.0084C3.71903 72.2105 3.4212 72.1254 3.44248 71.9233C3.75094 69.6257 3.98495 67.3176 4.1445 64.9987C4.15514 64.7966 4.47424 64.7966 4.46361 64.9987Z" fill="#E8E8E8"/>
<path d="M2.08131 67.3495C1.97494 66.7326 1.38992 66.2539 0.985722 65.7965C0.570887 65.3285 0.145416 64.8605 -0.269419 64.3925C-0.407697 64.2436 -0.184325 64.0095 -0.0460463 64.1691C0.46452 64.7328 0.964449 65.2966 1.47501 65.8603C1.8473 66.2752 2.28341 66.6794 2.38978 67.2538C2.42169 67.4665 2.11322 67.5516 2.08131 67.3495Z" fill="#E8E8E8"/>
<path d="M121.139 55.766C118.309 55.6384 115.671 54.6066 112.927 54.0216C109.885 53.3728 106.864 53.6919 103.864 54.3939C100.929 55.0853 98.0354 55.9788 95.121 56.7446C92.1958 57.5211 89.2707 58.2551 86.335 58.9571C74.5175 61.7865 62.5511 64.0627 50.5209 65.7753C43.7772 66.7326 37.0015 67.5091 30.2153 68.1047C30.0132 68.126 30.0132 67.8069 30.2153 67.7856C42.3838 66.7113 54.4884 65.0626 66.4974 62.8395C72.5072 61.7226 78.4957 60.4781 84.4416 59.0741C90.3238 57.6913 96.1527 56.1064 101.982 54.5322C105.141 53.6812 108.417 52.9898 111.693 53.4579C114.884 53.9152 117.884 55.2874 121.128 55.4257C121.341 55.4469 121.341 55.766 121.139 55.766Z" fill="#E8E8E8"/>
<path d="M69.9864 62.7439C60.4133 61.8185 50.9252 60.1379 41.618 57.7021C36.9379 56.4788 32.3428 54.9897 27.737 53.5112C25.514 52.7985 23.259 52.1284 20.9614 51.7029C18.483 51.2349 15.9834 51.1285 13.4625 51.2881C10.665 51.4689 7.86752 51.8306 5.08068 52.139C2.2832 52.4475 -0.52491 52.7453 -3.32238 53.0538C-3.52448 53.0751 -3.52448 52.756 -3.32238 52.7347C1.67691 52.1922 6.6762 51.5859 11.6861 51.1073C14.1326 50.8733 16.5897 50.7775 19.0255 51.086C21.3231 51.3625 23.5887 51.9263 25.8011 52.5858C30.4281 53.9579 34.9807 55.5747 39.6396 56.8511C44.2879 58.1275 48.9787 59.2125 53.7121 60.106C59.0943 61.1271 64.5297 61.9036 69.9864 62.4248C70.1885 62.4461 70.1885 62.7652 69.9864 62.7439Z" fill="#E8E8E8"/>
<path d="M67.923 78.2735C59.7326 78.2203 53.3825 72.2531 46.1814 69.2429C44.0859 68.3707 41.8841 67.7325 39.6185 67.5623C39.4164 67.5516 39.4164 67.2325 39.6185 67.2432C47.7237 67.8495 53.8718 73.838 61.2112 76.6036C63.3598 77.4119 65.6148 77.9332 67.923 77.9544C68.1357 77.9544 68.1357 78.2735 67.923 78.2735Z" fill="#E8E8E8"/>
<path d="M38.5972 67.0624C29.6729 65.1371 23.0143 58.3402 14.941 54.5535C12.6115 53.4579 10.1438 52.6389 7.58032 52.2985C7.37823 52.2666 7.37823 51.9475 7.58032 51.9794C16.7173 53.192 23.5993 59.9996 31.5025 64.0841C33.7787 65.2648 36.172 66.2221 38.6823 66.7645C38.8844 66.7965 38.7993 67.1049 38.5972 67.0624Z" fill="#E8E8E8"/>
<path d="M46.9791 22.1965C43.0329 20.3776 38.5761 23.9516 34.7043 21.6859C34.5234 21.5796 34.683 21.303 34.8638 21.4094C38.6931 23.6537 43.1818 20.101 47.1387 21.9199C47.3301 22.005 47.1706 22.2816 46.9791 22.1965Z" fill="#E8E8E8"/>
<path d="M65.6576 2.35873C61.3497 1.44397 57.0524 2.79484 52.9147 3.93298C48.7876 5.07111 44.6286 5.77314 40.342 5.68805C37.9275 5.63486 35.5235 5.35831 33.1622 4.87965C32.9601 4.8371 33.0452 4.52864 33.2473 4.57118C37.619 5.46468 42.1396 5.62423 46.5645 5.00729C50.8086 4.41163 54.808 2.84803 59.0096 2.09281C61.2433 1.68862 63.5196 1.58225 65.7427 2.0609C65.9341 2.09281 65.849 2.40128 65.6576 2.35873Z" fill="#E8E8E8"/>
<path d="M115.342 14.8781C111.47 12.6976 106.971 12.5168 102.843 14.0591C100.759 14.8356 98.7696 15.7929 96.6209 16.3885C94.568 16.9629 92.4513 17.3033 90.324 17.4203C87.8775 17.548 85.4204 17.3565 83.0059 16.8778C82.8038 16.8353 82.8889 16.5268 83.091 16.5694C87.569 17.4735 92.228 17.3033 96.6209 16.0588C98.8015 15.4419 100.822 14.4633 102.939 13.6868C104.928 12.9635 106.992 12.5912 109.109 12.7189C111.353 12.8571 113.533 13.4953 115.491 14.6016C115.682 14.6973 115.523 14.9739 115.342 14.8781Z" fill="#E8E8E8"/>
<path d="M12.7817 13.6124C14.7069 11.517 15.4196 8.49614 14.8346 5.73057C14.5368 4.33715 13.9198 2.99692 12.9625 1.9226C12.3243 1.1993 11.601 0.805737 10.6543 0.624911C9.70765 0.444086 8.73971 0.327081 7.77176 0.316444C4.3999 0.295171 1.12377 2.30552 0.240912 5.68802C-0.205832 7.41118 0.123907 9.11307 0.953577 10.6554C1.76197 12.1339 2.85756 13.5592 4.32544 14.4208C7.11228 16.0483 10.9202 15.5802 13.2072 13.304C13.3561 13.155 13.5794 13.3891 13.4305 13.5273C11.2713 15.6653 7.85685 16.2823 5.05938 15.1335C3.49577 14.4953 2.29381 13.2933 1.35777 11.9105C0.326007 10.3895 -0.418569 8.67696 -0.269653 6.80489C0.00690269 3.32666 2.84692 0.667459 6.20815 0.114345C7.19737 -0.0452063 8.20787 -0.0239328 9.19709 0.0930719C10.0906 0.188803 11.0904 0.273897 11.9095 0.678095C13.2816 1.34821 14.2177 2.93309 14.7389 4.30524C15.9514 7.49628 15.3132 11.3149 12.9944 13.8358C12.8668 13.9847 12.6434 13.7613 12.7817 13.6124Z" fill="#E8E8E8"/>
<path d="M104.226 46.6397C99.4288 45.9802 94.823 47.9055 90.3343 49.3202C88.1218 50.0222 85.8668 50.6391 83.548 50.8093C81.1016 50.9901 78.7615 50.5327 76.4533 49.7456C73.9962 48.9053 71.6242 47.8629 69.0714 47.3523C66.6887 46.8737 64.2529 46.778 61.8277 46.895C56.8922 47.1396 52.0631 48.2352 47.2021 49.0223C41.9901 49.852 36.6079 50.3306 31.449 48.9053C31.2469 48.8521 31.332 48.5437 31.5341 48.5968C41.1179 51.2454 50.8718 47.4374 60.4449 46.6716C62.7957 46.4801 65.1783 46.4695 67.529 46.778C70.0393 47.1077 72.39 47.9055 74.7514 48.7883C77.166 49.6924 79.6124 50.5221 82.2291 50.5434C84.633 50.554 86.9837 50.0115 89.2706 49.3202C94.1529 47.8629 99.0884 45.6185 104.311 46.3419C104.513 46.3631 104.417 46.6716 104.226 46.6397Z" fill="#E8E8E8"/>
<path d="M67.1039 42.1828C65.168 41.1616 63.1045 40.2575 60.9133 39.9916C58.7221 39.7257 56.6267 40.2788 54.5738 40.9808C52.5315 41.6722 50.5212 42.3742 48.4044 42.7997C46.3409 43.2145 44.2455 43.4379 42.1394 43.4698C37.8208 43.5336 33.5768 42.7465 29.5242 41.2574C25.4503 39.7576 21.5997 37.7153 17.6003 36.0453C13.0584 34.1414 8.16548 32.7054 3.1981 33.2372C2.996 33.2585 2.996 32.9394 3.1981 32.9181C12.1756 31.9608 20.0787 37.1303 28.0563 40.3532C32.194 42.0232 36.5019 43.0656 40.9693 43.1507C43.1712 43.1933 45.3836 43.0231 47.5535 42.6402C49.7128 42.2572 51.7763 41.619 53.8398 40.8957C56.0629 40.1192 58.3392 39.4172 60.7218 39.6618C63.0407 39.8959 65.2106 40.8425 67.2635 41.9168C67.4443 42.0019 67.2847 42.2785 67.1039 42.1828Z" fill="#E8E8E8"/>
<path d="M89.6113 21.4837C86.048 19.3457 81.8571 20.9093 78.2406 22.0368C74.4964 23.2068 70.5927 23.7599 66.6571 23.5685C64.4447 23.4621 62.2535 23.1217 60.1155 22.5793C59.9134 22.5261 59.9985 22.2176 60.2006 22.2708C64.1575 23.2813 68.2845 23.5472 72.3372 23.026C74.4113 22.7601 76.4323 22.2708 78.432 21.6326C80.2722 21.0476 82.1124 20.4094 84.0483 20.1753C86.0054 19.9413 88.0477 20.1647 89.7602 21.1965C89.941 21.3135 89.7815 21.59 89.6113 21.4837Z" fill="#E8E8E8"/>
<path d="M121.394 42.1934C117.81 42.0126 114.416 43.2783 111.204 44.7249C107.949 46.1928 104.779 47.7883 101.333 48.7669C99.3015 49.352 97.2167 49.7455 95.1107 49.9902C94.9086 50.0114 94.9086 49.6923 95.1107 49.6711C98.9399 49.2349 102.663 48.2138 106.194 46.6715C109.353 45.2887 112.406 43.6187 115.725 42.6295C117.565 42.0764 119.469 41.7786 121.394 41.8743C121.607 41.8743 121.607 42.1934 121.394 42.1934Z" fill="#161616"/>
<path d="M100.674 44.023C94.3661 46.8418 87.282 46.4908 80.6234 45.3207C78.5385 44.9591 76.4644 44.523 74.4008 44.0762C74.1987 44.0337 74.2838 43.7252 74.4859 43.7678C81.2403 45.2037 88.2287 46.661 95.1213 45.3952C96.9721 45.0548 98.791 44.5123 100.504 43.7465C100.695 43.672 100.855 43.9486 100.674 44.023Z" fill="#161616"/>
<path d="M51.4043 67.0411C46.8624 68.8068 41.9801 67.3496 37.6828 65.5945C35.364 64.6479 33.0771 63.6054 30.6838 62.829C28.2586 62.0525 25.759 61.4994 23.2274 61.2015C20.4193 60.8718 17.5793 60.8505 14.7606 61.1164C14.5585 61.1377 14.5585 60.8186 14.7606 60.7973C19.6216 60.3293 24.557 60.7548 29.2585 62.0631C34.0344 63.4034 38.3636 66.0306 43.214 67.0943C45.8944 67.6793 48.7238 67.7325 51.3192 66.7327C51.5107 66.6582 51.5957 66.9667 51.4043 67.0411Z" fill="#161616"/>
<path d="M21.6532 56.2872C15.537 54.4896 8.94221 54.6492 2.92179 56.7446C2.73033 56.8084 2.64523 56.5 2.83669 56.4362C8.9103 54.3301 15.5689 54.1705 21.7383 55.9788C21.9297 56.032 21.8446 56.3404 21.6532 56.2872Z" fill="#161616"/>
<path d="M60.0308 7.43232C57.7439 6.9643 55.457 6.48565 53.1275 6.28355C50.7874 6.08145 48.4899 6.23036 46.1923 6.66647C41.7887 7.51741 37.5021 8.9002 33.0133 9.34694C30.5562 9.59159 28.0779 9.54904 25.6527 9.05975C25.4506 9.0172 25.5357 8.70873 25.7378 8.75128C30.2584 9.66605 34.8641 8.94274 39.2997 7.93225C43.714 6.93239 48.0325 5.59216 52.617 5.91126C55.1485 6.09208 57.6375 6.60265 60.1159 7.11322C60.318 7.1664 60.2329 7.47487 60.0308 7.43232Z" fill="#161616"/>
<path d="M45.4899 9.32607C38.4164 11.6449 30.9919 13.6659 23.4717 12.8362C21.4614 12.6128 19.4723 12.1767 17.5577 11.5172C17.3662 11.4534 17.4513 11.145 17.6428 11.2088C24.695 13.6659 32.3003 12.7618 39.3631 10.8578C41.3947 10.3153 43.4051 9.67709 45.3942 9.02824C45.5963 8.95378 45.6813 9.26225 45.4899 9.32607Z" fill="#161616"/>
</g>
</svg>
