<svg width="183" height="167" viewBox="0 0 183 167" fill="none" xmlns="http://www.w3.org/2000/svg">
<path d="M91.7819 0.288574C140.536 0.288574 199.314 130.403 178.802 150.901C158.289 171.398 27.0582 173.181 4.76194 150.901C-17.5343 128.621 43.0273 0.288574 91.7819 0.288574Z" fill="#FFCD00"/>
<mask id="mask0_191_768" style="mask-type:alpha" maskUnits="userSpaceOnUse" x="0" y="0" width="183" height="167">
<path d="M91.7819 0.288574C140.536 0.288574 199.314 130.403 178.802 150.901C158.289 171.398 27.0582 173.181 4.76194 150.901C-17.5343 128.621 43.0273 0.288574 91.7819 0.288574Z" fill="#D9D9D9"/>
</mask>
<g mask="url(#mask0_191_768)">
<path d="M139.458 25.4112C134.482 28.3558 133.061 33.4329 132.472 35.5246C132.33 36.0323 130.664 42.2669 133.548 48.7655C134.401 50.6948 135.315 52.6849 137.386 53.6394C138.584 54.2081 139.661 54.1674 143.885 53.8019C145.855 53.6394 147.987 53.4363 150.262 53.1927C151.866 51.1415 154.628 47.0393 155.44 41.2718C155.582 40.1955 157.248 27.3607 150.262 23.949C145.692 21.6948 140.189 24.9644 139.458 25.4112Z" fill="#8E8E8E"/>
<ellipse cx="47.584" cy="50.6136" rx="4.58963" ry="5.07703" fill="#898989"/>
<ellipse cx="151.663" cy="133.755" rx="3.41176" ry="3.28991" fill="#898989"/>
<circle cx="47.624" cy="114.645" r="2.53851" fill="#898989"/>
<ellipse cx="42.8929" cy="49.761" rx="4.04131" ry="4.2444" fill="#262626"/>
<ellipse cx="150.729" cy="129.247" rx="2.4979" ry="2.59944" fill="#262626"/>
<ellipse cx="184.115" cy="57.2342" rx="2.7416" ry="2.92437" fill="#262626"/>
<path d="M124.571 78.2328C124.125 77.5221 123.394 78.1922 123.089 78.6796C122.459 79.695 122.053 80.9541 122.52 82.1117C122.866 82.9849 123.718 83.716 124.714 83.5739C125.627 83.452 126.318 82.7006 126.298 81.7868C126.298 81.5431 125.952 81.3603 125.77 81.5634C124.693 82.924 123.373 84.8533 124.45 86.5998C125.201 87.798 127.049 87.9604 127.78 86.6607C127.597 86.6404 127.415 86.6201 127.232 86.5795C127.333 87.1481 127.435 87.7167 127.516 88.2854C127.577 88.6712 128.166 88.5088 128.105 88.1229C128.003 87.5543 127.902 86.9856 127.821 86.417C127.78 86.153 127.374 86.1327 127.272 86.3358C126.947 86.9044 126.216 87.1075 125.627 86.8232C124.978 86.4982 124.693 85.7672 124.693 85.0564C124.693 83.8785 125.526 82.8428 126.216 81.9695C126.034 81.8883 125.871 81.8274 125.688 81.7461C125.709 82.5179 124.957 83.0865 124.206 82.924C123.637 82.8022 123.272 82.3148 123.069 81.7868C122.866 81.2384 122.886 80.6901 123.048 80.1418C123.069 80.1012 123.901 78.2938 124.023 78.4969C124.246 78.8624 124.774 78.5578 124.571 78.2328Z" fill="#3A3A3A"/>
<path d="M41.6538 80.0607C42.1006 78.8422 43.5831 79.3702 44.0502 80.2232C44.2126 80.5075 44.2939 80.8324 44.3345 81.1573C44.4157 81.7666 44.3548 82.0103 43.8268 82.3758C43.2581 82.9444 43.116 82.7211 43.4206 81.7056C43.5628 81.6447 43.7252 81.5838 43.8674 81.5229C44.2532 81.4213 44.7 81.4416 45.0859 81.5635C46.0607 81.8884 46.5481 82.9241 46.4059 83.8786C46.3653 84.1223 46.609 84.366 46.8527 84.2239C48.1727 83.4725 49.9192 84.3051 50.2238 85.7876C50.3051 86.1734 50.894 86.011 50.8128 85.6251C50.4269 83.7568 48.2133 82.782 46.5481 83.7161C46.6902 83.838 46.8527 83.9395 46.9948 84.0614C47.2588 82.2743 45.8982 80.609 44.0095 80.8933C43.3597 80.9949 42.3849 81.401 42.3037 82.1727C42.2427 82.8023 42.8317 83.2694 43.4206 83.3303C45.1671 83.4928 45.1265 80.9542 44.5579 79.9388C43.7862 78.5579 41.6538 78.2126 41.0446 79.9185C40.9227 80.2638 41.5116 80.4262 41.6538 80.0607Z" fill="#3A3A3A"/>
<path d="M148.576 156.5C150.14 157.536 151.46 158.856 152.516 160.399C152.74 160.724 153.268 160.42 153.044 160.095C151.927 158.47 150.546 157.089 148.901 155.993C148.556 155.749 148.251 156.277 148.576 156.5Z" fill="#3A3A3A"/>
<path d="M152.536 157.617C152.861 158.003 153.165 158.409 153.49 158.795C153.734 159.1 154.161 158.673 153.917 158.369C153.592 157.983 153.287 157.577 152.962 157.191C152.719 156.886 152.292 157.333 152.536 157.617Z" fill="#3A3A3A"/>
<path d="M150.668 151.931C152.069 153.231 153.227 154.713 154.12 156.399C154.303 156.744 154.831 156.439 154.648 156.094C153.734 154.368 152.536 152.825 151.094 151.505C150.81 151.22 150.383 151.667 150.668 151.931Z" fill="#3A3A3A"/>
<path d="M3.86022 156.927C4.10392 158.328 4.34762 159.749 4.61162 161.151C4.69285 161.537 4.75378 161.943 5.07871 162.186C5.3021 162.369 6.03319 162.349 6.17534 162.552C6.19565 162.43 6.21596 162.308 6.21596 162.186C5.91134 162.491 5.60672 162.796 5.28179 163.08C5.20056 163.161 5.18025 163.283 5.20056 163.385C5.38333 163.933 5.50518 164.745 5.87072 165.212C6.0535 165.456 6.37843 165.415 6.52058 165.558C6.64243 165.679 6.60182 165.598 6.54089 165.964C6.50027 166.268 6.50027 166.593 6.54089 166.918C6.60182 167.406 6.74397 167.873 6.92674 168.319C7.98277 170.878 10.0339 172.95 12.0038 174.859C12.2881 175.123 12.7146 174.696 12.4302 174.432C11.1711 173.214 9.91204 171.955 8.87632 170.533C7.86092 169.132 6.66274 167.243 7.29229 165.456C7.33291 165.354 7.29229 165.212 7.21106 165.151C6.8252 164.847 6.43935 164.969 6.17534 164.481C5.66764 163.567 5.95196 163.263 6.60182 162.633C6.70336 162.552 6.72366 162.369 6.64243 162.268C6.47997 162.024 6.35812 161.943 6.09411 161.862C5.93165 161.801 5.68795 161.862 5.52549 161.78C5.18025 161.597 5.18025 161.151 5.11932 160.826C4.87563 159.485 4.63193 158.125 4.40854 156.784C4.36792 156.378 3.77899 156.541 3.86022 156.927Z" fill="#E8E8E8"/>
<path d="M4.30737 156.846C12.2275 159.486 17.6498 166.878 17.8123 175.245C17.8123 175.631 18.4215 175.631 18.4215 175.245C18.259 166.614 12.654 158.998 4.46983 156.257C4.10429 156.135 3.94182 156.724 4.30737 156.846Z" fill="#E8E8E8"/>
<path d="M16.4714 166.918C18.4413 161.455 21.3453 156.175 25.9959 152.581C26.3005 152.337 25.9959 151.809 25.6913 152.052C20.8986 155.769 17.9133 161.13 15.8825 166.756C15.7606 167.121 16.3496 167.284 16.4714 166.918Z" fill="#E8E8E8"/>
<path d="M25.4683 152.459C25.6104 154.327 25.7729 156.196 25.915 158.084C25.9557 158.47 26.5649 158.47 26.5243 158.084C26.3821 156.216 26.2197 154.347 26.0775 152.459C26.0572 152.073 25.448 152.073 25.4683 152.459Z" fill="#E8E8E8"/>
<path d="M26.1791 157.882C25.9151 157.943 25.6511 158.004 25.4074 158.085C25.0215 158.186 25.184 158.775 25.5699 158.674C25.8339 158.613 26.0979 158.552 26.3416 158.471C26.7274 158.369 26.565 157.8 26.1791 157.882Z" fill="#E8E8E8"/>
<path d="M25.1026 158.632C25.1839 159.018 25.5088 159.262 25.8743 159.303C26.0368 159.323 26.179 159.16 26.179 158.998C26.179 158.815 26.0368 158.714 25.8743 158.693C25.9353 158.693 25.8743 158.693 25.854 158.693C25.8337 158.693 25.7931 158.673 25.8337 158.693C25.8134 158.673 25.7931 158.673 25.7728 158.653C25.7322 158.632 25.8134 158.693 25.7525 158.632C25.7322 158.612 25.7322 158.612 25.7119 158.592C25.7525 158.632 25.7119 158.592 25.7119 158.572C25.6916 158.551 25.6916 158.511 25.6916 158.551C25.6916 158.531 25.6713 158.49 25.6713 158.47C25.6306 158.308 25.4479 158.206 25.3057 158.267C25.1433 158.308 25.062 158.47 25.1026 158.632Z" fill="#E8E8E8"/>
<path d="M25.5693 159.08C25.5896 160.237 25.549 161.374 25.4271 162.512C25.3865 162.877 25.4474 163.73 25.2037 164.014C25.1834 164.035 24.8179 164.096 24.7366 164.157C24.432 164.4 24.8585 164.827 25.1631 164.583C25.2646 164.502 25.5083 164.583 25.6708 164.4C25.9145 164.157 25.8739 163.588 25.9145 163.304C26.0973 161.902 26.1785 160.481 26.1582 159.059C26.1785 158.694 25.5693 158.694 25.5693 159.08Z" fill="#E8E8E8"/>
<path d="M24.4933 164.685C25.1432 165.456 24.9604 166.736 24.8995 167.67C24.8182 168.746 24.6355 169.741 24.1074 170.675C23.356 172.056 22.3 173.214 21.7517 174.717C21.6095 175.082 22.1985 175.245 22.3406 174.879C23.0717 172.909 24.7573 171.447 25.265 169.376C25.6306 167.893 25.9758 165.517 24.9198 164.258C24.6761 163.974 24.2496 164.4 24.4933 164.685Z" fill="#E8E8E8"/>
<path d="M19.701 175.001C20.2697 169.233 21.7928 163.608 24.2297 158.369C24.3922 158.023 23.8642 157.698 23.7017 158.064C21.2241 163.425 19.6604 169.132 19.0918 175.021C19.0512 175.407 19.6604 175.387 19.701 175.001Z" fill="#E8E8E8"/>
<path d="M7.71876 160.237C11.2727 164.705 13.8721 169.843 15.3952 175.326C15.4968 175.712 16.0857 175.549 15.9842 175.164C14.4204 169.559 11.7601 164.36 8.14523 159.811C7.90153 159.506 7.47506 159.932 7.71876 160.237Z" fill="#E8E8E8"/>
<path d="M11.8209 165.009C11.699 163.892 11.8412 162.816 12.2676 161.76C12.4098 161.395 11.8209 161.232 11.6787 161.598C11.2319 162.694 11.0898 163.832 11.2116 165.009C11.2522 165.395 11.8615 165.395 11.8209 165.009Z" fill="#E8E8E8"/>
<path d="M18.4011 161.638C19.0713 163.283 20.0461 165.03 20.2898 166.776C20.3507 167.162 20.9396 166.999 20.8787 166.614C20.6147 164.847 19.6399 163.1 18.9901 161.476C18.8479 161.11 18.259 161.273 18.4011 161.638Z" fill="#E8E8E8"/>
<path d="M22.1375 163.568C22.7264 162.898 23.295 162.106 24.0464 161.598C24.676 161.171 25.3665 160.887 25.8539 160.298C26.0976 159.993 25.6711 159.567 25.4274 159.872C24.8994 160.501 24.1277 160.765 23.4981 161.253C22.8076 161.781 22.2796 162.491 21.711 163.141C21.447 163.446 21.8735 163.872 22.1375 163.568Z" fill="#E8E8E8"/>
<path d="M145.062 109.528C143.519 112.716 141.854 115.844 140.087 118.91C140.006 119.073 140.067 119.337 140.27 119.357C148.982 120.677 156.78 125.003 164.294 129.369C164.639 129.572 164.944 129.044 164.599 128.841C157.024 124.455 149.185 120.109 140.412 118.768C140.473 118.91 140.534 119.073 140.595 119.215C142.382 116.148 144.027 113.021 145.57 109.833C145.753 109.487 145.245 109.163 145.062 109.528Z" fill="#E8E8E8"/>
<path d="M146.403 120.596C147.012 118.849 147.622 117.082 148.231 115.336C148.495 114.605 148.678 113.792 149.023 113.082C149.104 112.655 149.368 112.33 149.774 112.086C150.018 112.147 150.262 112.208 150.505 112.269C150.871 112.371 151.236 112.452 151.582 112.553C152.414 112.757 153.755 112.757 153.612 113.874C153.511 114.666 153.044 115.518 152.78 116.29C152.171 118.016 151.582 119.743 150.972 121.469C150.851 121.834 151.439 121.997 151.561 121.631C152.353 119.357 153.145 117.062 153.937 114.787C154.12 114.259 154.628 113.366 154.222 112.797C153.775 112.188 152.435 112.147 151.744 111.965C151.074 111.802 149.896 111.193 149.206 111.518C148.617 111.782 148.495 112.797 148.312 113.305C147.479 115.681 146.647 118.077 145.814 120.453C145.692 120.799 146.281 120.961 146.403 120.596Z" fill="#E8E8E8"/>
<path d="M154.242 122.768C155.542 120.027 156.862 117.265 158.161 114.523C158.811 113.142 159.461 111.782 160.131 110.401C160.436 109.771 160.68 109.02 161.066 108.431C161.39 107.923 161.472 107.801 162.04 108.025C162.345 108.146 162.711 108.451 162.975 108.634C163.32 108.878 163.868 109.142 164.112 109.467C164.416 109.852 164.295 110.259 164.112 110.746C163.868 111.396 163.503 112.025 163.198 112.655C162.528 114.036 161.858 115.417 161.147 116.798C159.806 119.417 158.405 122.017 156.963 124.596C156.76 124.941 157.288 125.246 157.491 124.901C159.258 121.773 160.944 118.605 162.528 115.396C163.32 113.812 164.193 112.188 164.863 110.543C165.33 109.345 164.315 108.857 163.421 108.228C162.711 107.74 161.594 106.623 160.822 107.537C160.334 108.106 160.07 109.06 159.746 109.751C159.339 110.583 158.954 111.416 158.547 112.269C156.923 115.681 155.298 119.093 153.694 122.504C153.552 122.809 154.08 123.134 154.242 122.768Z" fill="#E8E8E8"/>
<path d="M160.984 126.992C162.731 124.251 164.701 121.651 166.874 119.255C166.752 119.275 166.63 119.296 166.508 119.296C167.28 119.824 168.031 120.331 168.803 120.859C168.762 120.717 168.722 120.575 168.701 120.433C166.975 123.134 165.249 125.815 163.523 128.516C163.32 128.841 163.828 129.145 164.051 128.82C165.777 126.119 167.503 123.439 169.229 120.738C169.331 120.595 169.25 120.413 169.128 120.311C168.356 119.783 167.605 119.275 166.833 118.747C166.732 118.666 166.549 118.707 166.468 118.788C164.254 121.245 162.243 123.865 160.477 126.647C160.253 127.033 160.781 127.338 160.984 126.992Z" fill="#E8E8E8"/>
<path d="M185.212 107.679C183.181 106.908 181.901 104.877 182.267 102.704C182.633 100.49 184.805 98.5205 187.039 99.8405C188.583 100.754 189.375 102.826 188.786 104.511C188.177 106.319 186.186 107.395 184.338 107.111C183.953 107.05 183.79 107.639 184.176 107.7C186.349 108.025 188.644 106.827 189.375 104.674C190.106 102.521 188.928 99.9218 186.816 99.0485C184.338 98.0331 182.084 100.165 181.658 102.542C181.211 105.06 182.693 107.375 185.029 108.268C185.415 108.411 185.577 107.822 185.212 107.679Z" fill="#E8E8E8"/>
<path d="M127.415 104.207C126.846 100.755 128.857 96.5917 132.756 96.6324C134.746 96.6527 136.675 97.465 138.686 97.1807C140.107 96.9776 141.326 96.1653 142.179 95.0483C143.032 93.9314 143.519 92.5301 143.6 91.1289C143.702 89.0574 142.91 86.9454 143.479 84.8943C143.763 83.8586 144.372 82.9041 145.408 82.5182C146.403 82.173 147.479 82.3761 148.515 82.3354C150.018 82.2745 151.196 81.6247 151.947 80.3046C153.003 78.4566 152.759 76.243 153.49 74.2934C154.364 71.9377 156.821 69.9272 159.42 71.0848C159.766 71.2472 160.091 70.7192 159.725 70.5567C156.191 68.9727 153.247 72.1611 152.556 75.3698C152.109 77.4615 152.191 80.7108 149.693 81.5434C147.946 82.1324 145.976 81.2185 144.372 82.4167C143.052 83.3915 142.666 85.1786 142.687 86.7423C142.747 89.0371 143.458 91.271 142.443 93.4643C141.509 95.5357 139.661 96.7745 137.366 96.6324C135.335 96.5105 133.324 95.6779 131.273 96.2059C127.801 97.0791 126.318 101.181 126.867 104.39C126.907 104.735 127.496 104.573 127.415 104.207Z" fill="#E8E8E8"/>
<path d="M153.084 89.7273C152.332 88.0214 153.368 86.3967 155.013 85.8484C156.211 85.4423 157.531 85.4219 158.567 84.6096C159.379 83.9801 159.643 83.188 159.542 82.1726C159.44 81.2182 159.44 80.4668 160.192 79.8169C160.821 79.2686 161.654 79.0655 162.466 79.0249C164.7 78.9437 167.767 80.0809 169.391 77.9079C170.143 76.8925 169.919 75.6334 170.264 74.4962C170.732 72.9121 172.255 71.9374 173.879 72.0186C174.265 72.0389 174.265 71.4297 173.879 71.4093C172.64 71.3484 171.442 71.8155 170.589 72.7091C169.533 73.826 169.675 75.0851 169.351 76.4864C168.477 80.3246 163.136 77.6236 160.618 78.8218C159.684 79.2686 158.932 80.0606 158.851 81.1166C158.75 82.3554 159.318 83.3708 158.059 84.2238C157.389 84.6705 156.617 84.8127 155.846 84.9955C154.566 85.3001 153.307 85.6859 152.657 86.9247C152.129 87.8995 152.129 89.0165 152.576 90.0116C152.718 90.3974 153.226 90.0725 153.084 89.7273Z" fill="#E8E8E8"/>
<path d="M20.4318 75.3695C22.1173 73.3387 24.5137 71.6734 27.2756 71.9578C30.2812 72.2624 31.7637 74.6587 32.048 77.4613C32.5354 82.1118 31.3981 87.6762 34.5459 91.6363C35.7847 93.2 37.6327 94.0327 39.6229 93.5453C42.0193 92.9767 43.8876 91.088 46.02 89.9711C48.5382 88.651 52.0109 87.9402 54.2854 90.1538C55.9506 91.7785 56.3162 94.2561 56.8645 96.4087C57.3722 98.3583 58.2455 100.511 59.992 101.669C61.048 102.359 62.2055 102.42 63.424 102.339C64.7847 102.237 67.5669 102.156 67.2826 104.288C67.242 104.674 67.8512 104.674 67.8918 104.288C67.9934 103.456 67.6075 102.785 66.9373 102.298C65.8813 101.526 64.6628 101.648 63.424 101.729C62.0228 101.831 60.8246 101.709 59.7483 100.714C58.7735 99.8205 58.1845 98.5614 57.7581 97.3226C57.0473 95.1902 56.8442 92.8548 55.6257 90.9052C54.4275 88.976 52.3561 88.0418 50.1222 88.123C47.2994 88.2246 44.9233 89.8492 42.6691 91.352C41.5928 92.0628 40.4353 92.8142 39.1152 93.0376C37.5312 93.3016 36.1299 92.6111 35.1145 91.4332C33.2056 89.1993 32.9009 86.011 32.7994 83.2084C32.6979 80.5887 33.0431 77.7456 32.1698 75.2071C31.3778 72.8919 29.3673 71.4501 26.9507 71.3282C24.1481 71.186 21.6909 72.8716 19.9647 74.943C19.7413 75.2477 20.1678 75.6741 20.4318 75.3695Z" fill="#E8E8E8"/>
<path d="M10.176 106.705C13.3441 111.985 16.1669 117.448 18.6648 123.073C18.8273 123.438 19.3553 123.113 19.1929 122.768C16.695 117.143 13.8518 111.68 10.7041 106.4C10.501 106.055 9.97297 106.359 10.176 106.705Z" fill="#E8E8E8"/>
<path d="M10.5617 106.461C15.4966 103.395 20.5736 100.531 25.7928 97.9316C26.138 97.7489 25.8334 97.2208 25.4882 97.4036C20.2893 100.003 15.2123 102.866 10.2571 105.933C9.91185 106.156 10.2165 106.684 10.5617 106.461Z" fill="#E8E8E8"/>
<path d="M25.4276 97.6679C28.0067 103.09 30.728 108.431 33.6118 113.691C33.7945 114.036 34.3226 113.732 34.1398 113.386C31.256 108.127 28.5144 102.786 25.9556 97.3633C25.7728 96.9977 25.2651 97.3023 25.4276 97.6679Z" fill="#E8E8E8"/>
<path d="M19.3554 123.195C24.209 120.271 29.0018 117.265 33.7539 114.178C34.0788 113.975 33.7742 113.447 33.4492 113.65C28.6971 116.737 23.9044 119.743 19.0508 122.667C18.7258 122.87 19.0305 123.398 19.3554 123.195Z" fill="#E8E8E8"/>
<path d="M18.9693 104.674C18.8474 108.573 19.0708 112.452 19.6394 116.31C19.7004 116.696 20.2893 116.534 20.2284 116.148C19.6597 112.35 19.4567 108.512 19.5785 104.674C19.5988 104.288 18.9896 104.288 18.9693 104.674Z" fill="#E8E8E8"/>
<path d="M18.9898 104.471C21.8126 106.684 24.6355 108.857 27.4989 111.01C27.8035 111.254 28.1082 110.726 27.8035 110.482C24.9807 108.37 22.1782 106.217 19.4163 104.044C19.1117 103.801 18.6852 104.227 18.9898 104.471Z" fill="#E8E8E8"/>
<path d="M20.2691 116.432C22.6045 114.341 25.6507 113.224 27.8643 110.969C28.1486 110.685 27.7019 110.259 27.4378 110.543C25.2243 112.777 22.1984 113.914 19.8426 116.006C19.538 116.25 19.9848 116.676 20.2691 116.432Z" fill="#E8E8E8"/>
<path d="M10.9882 109.893C11.6381 109.568 12.2879 109.263 12.9378 108.939C13.283 108.776 12.9784 108.248 12.6332 108.411C11.9833 108.735 11.3335 109.04 10.6836 109.365C10.3384 109.548 10.643 110.056 10.9882 109.893Z" fill="#E8E8E8"/>
<path d="M13.0802 113.346C13.6286 112.98 14.2175 112.675 14.8267 112.411C15.1923 112.269 15.0298 111.68 14.6643 111.823C13.9941 112.107 13.3646 112.432 12.7553 112.818C12.4507 113.041 12.7553 113.569 13.0802 113.346Z" fill="#E8E8E8"/>
<path d="M15.3749 117.326C15.9436 117.042 16.5122 116.758 17.0808 116.494C17.4261 116.311 17.1214 115.803 16.7762 115.966C16.2076 116.25 15.639 116.534 15.0703 116.798C14.7251 116.961 15.0297 117.489 15.3749 117.326Z" fill="#E8E8E8"/>
<path d="M16.553 121.306C17.1825 120.758 17.8324 120.291 18.5635 119.885C18.9087 119.682 18.6041 119.174 18.2589 119.357C17.5075 119.783 16.7967 120.291 16.1265 120.88C15.8219 121.144 16.2484 121.57 16.553 121.306Z" fill="#E8E8E8"/>
<path d="M26.5851 101.668C27.0522 101.343 27.5396 101.12 28.0879 100.978C28.4738 100.876 28.3113 100.308 27.9255 100.389C27.3365 100.531 26.7679 100.775 26.2602 101.14C25.9556 101.364 26.2602 101.892 26.5851 101.668Z" fill="#E8E8E8"/>
<path d="M28.3925 105.141C29.0424 104.735 29.6922 104.329 30.3218 103.902C30.6467 103.699 30.3421 103.171 30.0172 103.374C29.3673 103.78 28.7175 104.187 28.0879 104.613C27.7427 104.836 28.0473 105.364 28.3925 105.141Z" fill="#E8E8E8"/>
<path d="M30.4638 109.304C31.1543 109 31.865 108.695 32.5555 108.39C32.9211 108.228 32.5961 107.7 32.2509 107.862C31.5604 108.167 30.8496 108.472 30.1592 108.776C29.7936 108.939 30.1185 109.467 30.4638 109.304Z" fill="#E8E8E8"/>
<path d="M31.9467 112.026C32.4951 111.498 33.1043 111.051 33.7745 110.665C34.1197 110.482 33.8151 109.954 33.4699 110.137C32.7591 110.543 32.1092 111.011 31.5203 111.579C31.236 111.863 31.6624 112.29 31.9467 112.026Z" fill="#E8E8E8"/>
<path d="M21.0818 120.514C21.5895 121.265 22.016 122.057 22.3409 122.89C22.4831 123.256 23.072 123.093 22.9298 122.728C22.5846 121.834 22.1581 120.981 21.6098 120.189C21.3864 119.885 20.8584 120.189 21.0818 120.514Z" fill="#E8E8E8"/>
<path d="M24.1885 118.829C24.5744 119.519 24.9399 120.189 25.3258 120.88C25.5086 121.225 26.0366 120.92 25.8538 120.575C25.4679 119.885 25.1024 119.214 24.7165 118.524C24.5338 118.179 24.0058 118.483 24.1885 118.829Z" fill="#E8E8E8"/>
<path d="M27.7833 116.25C28.1894 116.981 28.5956 117.712 29.0017 118.443C29.1845 118.788 29.7125 118.484 29.5298 118.138C29.1236 117.407 28.7174 116.676 28.3113 115.945C28.1285 115.6 27.6005 115.904 27.7833 116.25Z" fill="#E8E8E8"/>
<path d="M31.0119 114.32C31.3368 115.092 31.6617 115.863 32.007 116.615C32.1694 116.98 32.6771 116.655 32.535 116.31C32.2101 115.539 31.8851 114.767 31.5399 114.015C31.3774 113.67 30.8494 113.975 31.0119 114.32Z" fill="#E8E8E8"/>
<path d="M12.5928 103.334C12.9786 103.963 13.3442 104.593 13.73 105.202C13.9331 105.548 14.4611 105.223 14.2581 104.898C13.8722 104.268 13.5067 103.639 13.1208 103.029C12.9177 102.704 12.3897 103.009 12.5928 103.334Z" fill="#E8E8E8"/>
<path d="M16.0856 101.303C16.4511 102.115 16.8167 102.927 17.1822 103.74C17.3447 104.105 17.8727 103.78 17.7102 103.435C17.3447 102.623 16.9791 101.81 16.6136 100.998C16.4308 100.632 15.9231 100.937 16.0856 101.303Z" fill="#E8E8E8"/>
<path d="M19.2337 99.3535C19.782 100.085 20.2085 100.877 20.4928 101.73C20.6146 102.095 21.2035 101.933 21.0817 101.567C20.7771 100.653 20.3506 99.8003 19.7617 99.0489C19.5383 98.7443 19.0103 99.0286 19.2337 99.3535Z" fill="#E8E8E8"/>
<path d="M22.6253 97.7897C23.0517 98.4396 23.4579 99.0691 23.8844 99.719C24.0874 100.044 24.6155 99.7393 24.4124 99.4144C23.9859 98.7645 23.5797 98.135 23.1533 97.4851C22.9299 97.1602 22.4019 97.4648 22.6253 97.7897Z" fill="#E8E8E8"/>
<path d="M54.2041 57.5187C52.2342 56.9094 52.1327 54.8177 53.0669 53.254C53.9807 51.7309 55.7475 51.3247 57.1285 52.5838C58.2658 53.6398 58.3673 55.4473 57.3113 56.6048C56.2553 57.7827 54.5291 57.7624 53.3106 56.8688C53.006 56.6251 52.7013 57.1531 53.006 57.3968C54.5494 58.5341 56.8036 58.3513 57.9611 56.747C59.1593 55.1223 58.7328 52.8478 57.0473 51.7512C52.9856 49.1314 49.4926 56.6861 54.0417 58.1076C54.4275 58.2295 54.59 57.6405 54.2041 57.5187Z" fill="#E8E8E8"/>
<path d="M57.4742 58.0465C55.9511 58.5136 55.5855 56.6858 56.2557 55.711C56.804 54.919 57.8803 54.4519 58.8551 54.7159C59.7893 54.9596 60.4595 55.9141 60.2158 56.8686C59.9112 58.0668 58.652 58.4933 57.5351 58.3105C57.1492 58.2496 56.9868 58.8385 57.3726 58.8994C58.8754 59.1634 60.5001 58.5136 60.825 56.8889C61.1093 55.4877 60.0127 54.2082 58.652 54.0458C57.1492 53.863 55.5043 54.9596 55.3012 56.5031C55.1184 57.8434 56.3369 59.0416 57.6773 58.6151C58.0225 58.5136 57.86 57.9246 57.4742 58.0465Z" fill="#E8E8E8"/>
<path d="M44.5172 71.2671C44.0298 72.2622 44.7203 73.2573 45.7357 73.5213C46.5074 73.7244 47.3198 73.5416 48.1118 73.5822C48.9647 73.6228 49.8177 73.8259 50.5894 74.1712C52.2952 74.9429 53.3919 76.3441 53.4528 78.2328C53.5137 79.8168 53.0466 81.4618 53.7371 82.9646C55.1993 86.1326 59.2203 83.716 61.2917 85.7671C63.0179 87.4933 62.3071 90.641 64.6223 91.9611C64.9675 92.1642 65.2721 91.6361 64.9269 91.4331C62.8555 90.2552 63.3429 87.1887 61.8807 85.4828C61.109 84.5892 59.992 84.3455 58.8548 84.2643C57.4738 84.1831 55.6867 84.4674 54.6713 83.2895C53.4934 81.9086 54.123 79.8371 54.0621 78.2125C54.0214 76.9331 53.595 75.7755 52.7014 74.8616C51.9094 74.0696 50.8737 73.5213 49.7973 73.237C49.249 73.0948 48.6804 72.9933 48.1118 72.973C47.3807 72.9324 44.2126 73.2979 45.0656 71.5717C45.228 71.2265 44.7 70.9219 44.5172 71.2671Z" fill="#E8E8E8"/>
<path d="M70.979 37.1902C70.187 36.6418 69.1107 35.7686 69.4356 34.672C69.7808 33.5347 70.6338 34.083 71.4258 33.819C72.4818 33.4738 72.4209 32.1944 72.1163 31.3617C71.8116 30.5494 71.1618 28.5795 72.8474 29.2497C73.2332 29.4122 73.5175 29.6762 73.9643 29.534C74.3705 29.4122 74.5736 29.0466 74.6751 28.6608C74.7563 28.3155 74.6954 27.95 74.6751 27.5844C74.6345 27.3407 74.6142 27.0767 74.6142 26.833C74.5329 26.2441 74.8985 26.0004 75.6702 26.1019C75.6905 26.4878 76.2997 26.4878 76.2794 26.1019C76.2388 25.5333 75.8123 25.1271 75.2031 25.1475C74.4923 25.1678 74.1065 25.8582 74.0252 26.5081C73.9643 26.9549 74.3299 27.9906 74.1268 28.3561C73.8831 28.5186 73.6394 28.7014 73.3754 28.8638C73.2738 28.8029 73.1723 28.742 73.0707 28.6811C72.888 28.6201 72.7458 28.4983 72.563 28.4577C71.9335 28.3155 71.4258 28.7014 71.2024 29.27C70.8165 30.2448 71.507 31.0571 71.7101 31.971C71.9741 33.2301 71.0196 33.0879 70.187 33.2301C69.8215 33.291 69.5168 33.4738 69.2731 33.7378C67.9937 35.2203 69.4762 36.8652 70.6947 37.7182C70.9993 37.9416 71.3039 37.4136 70.979 37.1902Z" fill="#E8E8E8"/>
<path d="M74.9792 36.6209C74.3091 35.8492 73.8013 34.7932 75.1011 34.387C75.426 34.2855 75.7915 34.3261 76.0962 34.123C76.7663 33.656 76.482 33.0264 76.3602 32.3765C76.2992 32.011 76.1571 31.5236 76.3805 31.1581C76.5429 30.894 77.1319 30.7925 77.4365 30.7316C77.863 30.63 78.3098 30.5691 78.6753 30.3254C79.2236 29.9396 79.4267 29.2491 79.0612 28.6602C78.8581 28.3352 78.3301 28.6398 78.5331 28.9648C79.1424 29.9396 76.2992 30.2036 75.8119 30.9144C75.2432 31.747 76.4414 33.2092 75.4463 33.7372C75.0605 33.9403 74.5731 33.7981 74.2075 34.0621C73.9435 34.2449 73.7607 34.5292 73.6795 34.8338C73.4561 35.7071 74.045 36.4585 74.5731 37.0677C74.8168 37.352 75.2432 36.9256 74.9792 36.6209Z" fill="#E8E8E8"/>
<path d="M50.9953 31.8086C50.4673 31.443 50.4063 30.7931 50.5688 30.2245C50.6703 29.8387 51.1577 28.7826 51.6248 28.742C52.3965 28.6608 52.7824 29.6356 52.9855 30.2042C53.1682 30.7525 53.2292 31.3009 53.2495 31.8695C53.2495 32.2553 53.8587 32.2553 53.8587 31.8695C53.8384 30.7322 53.087 27.2392 51.2187 28.2546C50.5079 28.6405 49.9799 29.7574 49.8986 30.5291C49.8174 31.2602 50.1017 31.9101 50.6906 32.3366C50.9953 32.56 51.2999 32.0319 50.9953 31.8086Z" fill="#E8E8E8"/>
<path d="M50.752 32.1334C50.0209 32.3162 49.2898 32.499 48.5384 32.6817C48.112 32.7833 47.3809 32.8239 47.0356 33.1488C46.4467 33.6971 46.6092 35.3827 46.6092 36.0935C46.6092 36.2966 46.8122 36.4387 46.995 36.3778C47.0966 36.3575 47.1981 36.3169 47.3199 36.2966C47.848 36.0123 48.112 36.195 48.1323 36.8043C48.5384 37.2104 48.5384 37.4541 48.1323 37.4948C47.8886 37.5963 47.6449 37.6369 47.3809 37.6369C47.2184 37.6572 47.0762 37.7588 47.0762 37.9415C47.1169 39.2412 47.2184 40.5207 47.3606 41.8204C47.4012 42.2062 48.0104 42.2062 47.9698 41.8204C47.8276 40.5207 47.7261 39.2412 47.6855 37.9415C47.584 38.0431 47.4824 38.1446 47.3809 38.2462C48.2338 38.1446 49.5945 37.7994 49.4117 36.6418C49.2086 35.403 47.7058 35.5452 46.8529 35.7889C46.9747 35.8904 47.1169 35.9919 47.2387 36.0732C47.2387 35.6061 47.2387 35.1593 47.2793 34.6922C47.3403 33.9611 47.2996 33.6971 47.9698 33.4331C48.8837 33.0676 49.96 32.9457 50.9145 32.702C51.3003 32.6411 51.1379 32.0522 50.752 32.1334Z" fill="#E8E8E8"/>
<path d="M53.6759 32.3161C54.5288 32.2755 55.4021 32.2755 56.255 32.377C57.0673 32.4785 57.0267 32.6004 57.1486 33.3112C57.2298 33.758 57.2501 34.225 57.2907 34.6718C57.4532 36.4183 57.575 38.1648 57.6766 39.9113C57.6969 40.2972 58.3061 40.2972 58.2858 39.9113C58.164 37.5353 58.0827 35.0983 57.6969 32.7425C57.5953 32.1536 57.4938 31.9708 56.8845 31.8693C55.8285 31.6662 54.7319 31.6662 53.6759 31.7271C53.29 31.7271 53.29 32.3364 53.6759 32.3161Z" fill="#E8E8E8"/>
<path d="M47.8072 42.2468C49.0053 42.0437 50.2035 41.8406 51.3814 41.6376C52.742 41.4142 54.0418 41.5157 55.4024 41.4142C56.032 41.3532 59.0172 41.0486 57.9206 39.8098C57.6566 39.5255 57.2301 39.952 57.4941 40.2363C57.6566 40.4191 54.8947 40.8252 54.8338 40.8252C53.9808 40.8455 53.1279 40.8049 52.275 40.9065C50.7315 41.0892 49.1881 41.4142 47.6447 41.6782C47.2588 41.7188 47.4213 42.3077 47.8072 42.2468Z" fill="#E8E8E8"/>
</g>
</svg>
