<svg width="70" height="106" viewBox="0 0 70 106" fill="none" xmlns="http://www.w3.org/2000/svg">
<path d="M15.4785 94.3029C15.4785 95.246 14.5966 95.9319 13.58 96.7403C12.6246 97.4874 11.0936 98.4428 8.92561 98.847C8.57041 100.072 7.8355 102.436 7.34556 102.313C6.94136 102.215 6.75764 100.317 6.99036 98.7735C7.0761 98.1979 7.16184 97.6589 7.46805 97.1077C8.1907 95.8462 9.13383 96.2626 10.1505 95.2705C11.4243 94.0211 10.9344 92.3798 11.9142 91.7919C13.1758 91.0325 15.4785 92.7595 15.4785 94.3029Z" fill="#161616"/>
<path d="M15.4665 96.1401C15.5767 97.0588 14.7683 97.9039 13.8374 98.896C12.2941 100.537 10.7018 101.358 9.56272 101.774C9.31775 103.501 8.87681 106.012 8.38687 106C7.93368 105.988 7.45599 103.906 7.55398 102.093C7.59073 101.419 7.61522 100.917 7.84794 100.366C8.44812 98.9328 9.51373 99.2757 10.3099 98.0631C11.204 96.6791 10.4446 95.3195 11.1918 94.4743C12.2696 93.2495 15.2705 94.5111 15.4665 96.1401Z" fill="#161616"/>
<path d="M27.4452 92.7226C27.8984 92.6737 28.1067 93.6168 28.9273 95.0988C29.3805 95.9317 30.5074 97.9772 32.2221 99.1408C33.5695 100.047 34.7453 100.059 34.7331 100.488C34.7208 100.807 34.0594 101.015 33.7042 101.064C32.8346 101.186 32.1854 100.611 31.9772 100.427C30.5931 99.545 29.503 98.6386 28.7313 97.9282C26.8206 96.1767 26.6001 95.4173 26.5634 94.8539C26.5021 93.8618 26.9676 92.7716 27.4452 92.7226Z" fill="#161616"/>
<path d="M27.4082 91.4366C26.7467 91.7918 25.7791 92.245 24.5788 92.588C23.8194 92.7962 21.4799 93.3719 17.9034 92.7472C13.9471 92.049 12.9428 90.6527 11.8649 91.6816C10.7381 92.7594 10.5176 95.6256 11.3627 97.3404C11.8772 98.3815 12.9305 98.7857 15.025 99.6063C16.6663 100.243 17.8911 100.721 19.6549 100.758C21.7249 100.807 23.2437 100.206 24.1378 99.8635C25.9996 99.1164 27.6286 98.4672 28.2655 96.5932C28.535 95.8093 28.5473 95.0499 28.5105 94.5477C28.1308 93.5066 27.7634 92.4655 27.4082 91.4366Z" fill="#161616"/>
<path d="M14.9397 93.0657C14.8417 92.3553 14.021 92.1715 13.3106 91.7183C11.4366 90.5057 11.6938 88.1908 10.4078 87.8723C9.31765 87.6029 8.85221 89.2074 7.74985 88.9012C6.45151 88.5337 6.08406 86.0351 5.63087 86.2065C5.30016 86.329 5.10419 87.8723 5.63087 88.84C6.1698 89.8198 7.29666 89.9301 8.58274 90.0526C9.86882 90.175 9.96681 89.8811 10.5057 90.175C11.4979 90.7385 11.3141 91.8286 12.5267 92.9922C13.2126 93.6536 14.2905 94.3028 14.7437 93.8251C14.9029 93.6536 14.9764 93.3351 14.9397 93.0657Z" fill="#161616"/>
<path d="M26.8815 94.1558C27.3347 94.1068 27.5429 95.0499 28.3636 96.5319C28.8168 97.3648 29.9436 99.4103 31.6584 100.574C33.0057 101.48 34.1816 101.493 34.1693 101.921C34.1571 102.24 33.4957 102.448 33.1405 102.497C32.2708 102.619 31.6217 102.044 31.4134 101.86C30.0294 100.978 28.9393 100.072 28.1676 99.3613C26.2569 97.6098 26.0364 96.8504 25.9996 96.287C25.9384 95.2949 26.4038 94.2047 26.8815 94.1558Z" fill="#161616"/>
<path d="M33.1898 92.3554C32.8958 94.1926 33.1653 94.5723 32.7121 95.1725C32.0262 96.0911 30.7401 96.2136 30.5196 96.2381C29.5642 96.3361 29.4173 95.9442 28.3884 96.0544C27.237 96.1769 27.0533 96.6791 26.4776 96.4953C25.6325 96.2259 25.3875 94.8908 25.314 94.4743C25.3018 94.4376 25.3018 94.4009 25.3018 94.3764C25.2038 93.5557 25.3998 92.8208 25.6692 92.2451C27.2615 91.5592 28.2047 90.7018 28.7803 90.0527C29.3928 89.3545 29.7725 88.6441 30.1032 88.7298C30.4706 88.8278 30.5196 89.8444 30.5074 90.6406C30.9483 90.7631 31.3893 90.8856 31.8302 91.008C32.9693 89.8567 33.3612 89.771 33.5205 89.8689C33.7777 90.0159 33.447 90.7018 33.1898 92.3554Z" fill="#161616"/>
<path d="M31.1075 93.9966C31.0095 94.3886 30.642 94.6458 30.2378 94.6213C30.1766 94.6213 30.1766 94.5233 30.2378 94.5233C30.593 94.5601 30.9237 94.3273 31.0095 93.9721C31.034 93.9231 31.1197 93.9476 31.1075 93.9966Z" fill="white"/>
<path d="M31.144 93.9721C31.144 94.1191 31.144 94.2783 31.1807 94.4253C31.193 94.4988 31.2175 94.56 31.2542 94.6212C31.2542 94.6212 31.4257 94.8662 31.4502 94.8295C31.4747 94.7805 31.5604 94.8295 31.5237 94.8785C31.4502 95.0132 31.2665 94.805 31.2175 94.7437C31.0583 94.5233 31.046 94.2293 31.046 93.9721C31.0583 93.9108 31.144 93.9108 31.144 93.9721Z" fill="white"/>
<path d="M31.1196 93.923C31.1441 93.9597 31.0828 93.9352 31.0951 93.9475C31.1318 93.972 31.1318 93.923 31.0951 93.9107C31.0583 93.9107 31.0583 93.9597 31.0706 93.972C31.0828 93.9842 31.0828 93.9842 31.0951 93.9842C31.1073 93.9842 31.1196 93.9842 31.1196 93.972V93.9597C31.1318 93.9597 31.1441 93.9597 31.1441 93.9475C31.1931 93.9107 31.2421 93.9965 31.1931 94.021C31.1318 94.0577 31.0216 94.0577 31.0216 93.9597C31.0216 93.8862 31.1196 93.8372 31.1808 93.8985C31.2421 93.9597 31.2053 94.0577 31.1318 94.07C31.0461 94.0945 30.9726 94.0332 30.9726 93.9475C30.9726 93.874 31.0216 93.8005 31.1073 93.8127C31.1808 93.825 31.2421 93.9107 31.2053 93.9842C31.1686 94.0455 31.0828 94.0455 31.0338 94.0087C30.9849 93.972 30.9849 93.8862 31.0461 93.8495C31.1073 93.8127 31.2053 93.8495 31.2053 93.923C31.2053 94.0087 31.0706 94.021 31.0338 93.9475C31.0094 93.9107 31.0951 93.8617 31.1196 93.923Z" fill="white"/>
<path d="M32.3076 93.274C32.1606 93.0535 31.8299 93.0045 31.6339 93.1882C31.585 93.225 31.5237 93.1637 31.5727 93.127C31.8177 92.9065 32.2096 92.9678 32.3933 93.2372C32.4178 93.274 32.3321 93.323 32.3076 93.274Z" fill="white"/>
<path d="M30.5442 92.9062C30.3605 92.6612 30.0297 92.5877 29.748 92.7102C29.699 92.7347 29.65 92.6612 29.699 92.6367C30.0297 92.4898 30.3972 92.5877 30.6177 92.8695C30.6544 92.9062 30.5809 92.943 30.5442 92.9062Z" fill="white"/>
<path d="M29.8089 89.4279C29.6496 89.7341 29.5394 90.0648 29.4904 90.4078C29.4781 90.469 29.3924 90.4445 29.4047 90.3833C29.4659 90.0281 29.5761 89.6974 29.7354 89.3789C29.7476 89.3299 29.8334 89.3789 29.8089 89.4279Z" fill="white"/>
<path d="M30.2009 90.3955C30.1641 90.4935 30.1029 90.5915 30.0294 90.665C29.9927 90.7017 29.9314 90.6527 29.9559 90.6038C30.0049 90.5058 30.0294 90.3955 30.0294 90.2853C30.0417 90.2975 30.0661 90.322 30.0784 90.3343C30.0049 90.3343 29.9314 90.322 29.8702 90.322C29.8457 90.322 29.8212 90.2975 29.8212 90.2608C29.8457 90.1873 29.8579 90.1016 29.8824 90.0281C29.8947 90.0526 29.9069 90.0648 29.9314 90.0893C29.8457 90.0893 29.7722 90.0893 29.6864 90.0893C29.6252 90.0893 29.6252 89.9913 29.6864 89.9913C29.7722 89.9913 29.8457 89.9913 29.9314 89.9913C29.9559 89.9913 29.9804 90.0158 29.9804 90.0526C29.9559 90.1261 29.9437 90.2118 29.9192 90.2853C29.9069 90.2608 29.8947 90.2485 29.8702 90.2241C29.9437 90.2241 30.0172 90.2363 30.0784 90.2363C30.1029 90.2363 30.1274 90.2608 30.1274 90.2853C30.1274 90.42 30.1029 90.5303 30.0417 90.6527C30.0172 90.6283 29.9927 90.616 29.9682 90.5915C30.0294 90.518 30.0906 90.4323 30.1274 90.3343C30.1519 90.2975 30.2254 90.3465 30.2009 90.3955Z" fill="white"/>
<path d="M31.6214 94.205C31.8664 94.107 32.1114 93.9845 32.3318 93.8375C32.3808 93.8008 32.4298 93.8865 32.3808 93.911C32.1481 94.058 31.9031 94.1805 31.6459 94.2907C31.5847 94.3152 31.5602 94.2295 31.6214 94.205Z" fill="white"/>
<path d="M31.8179 94.3888C31.9526 94.4133 32.0751 94.45 32.1853 94.5113C32.2343 94.5357 32.1976 94.6215 32.1363 94.5847C32.0261 94.5235 31.9158 94.4868 31.7934 94.4745C31.7444 94.4623 31.7689 94.3765 31.8179 94.3888Z" fill="white"/>
<path d="M30.4339 93.9109C30.1889 93.7149 29.9317 93.5434 29.6622 93.3719C29.6132 93.3474 29.6622 93.2617 29.7112 93.2985C29.9929 93.4699 30.2501 93.6537 30.5073 93.8496C30.5441 93.8864 30.4828 93.9476 30.4339 93.9109Z" fill="white"/>
<path d="M30.2254 94.1191C29.9437 94.0456 29.662 93.9721 29.3925 93.9109C29.3313 93.8987 29.3558 93.8129 29.417 93.8252C29.6987 93.8987 29.9805 93.9721 30.2499 94.0334C30.3112 94.0456 30.2867 94.1436 30.2254 94.1191Z" fill="white"/>
<path d="M31.5854 94.9396C31.1689 94.7926 31.071 94.3517 31.0587 93.9597C31.0587 93.8985 31.1444 93.8985 31.1567 93.9597C31.1812 94.3027 31.2547 94.7069 31.6221 94.8416C31.6711 94.8661 31.6466 94.9641 31.5854 94.9396Z" fill="white"/>
<path d="M31.585 94.9397C31.3522 94.8539 31.1808 94.658 31.1318 94.413C31.1195 94.3518 31.2053 94.3273 31.2175 94.3885C31.2543 94.609 31.389 94.7805 31.5972 94.8539C31.6585 94.8784 31.634 94.9642 31.585 94.9397Z" fill="white"/>
<path d="M33.2753 90.5057C32.9936 90.8119 32.7854 91.1548 32.6384 91.5468C32.6139 91.5958 32.5281 91.5835 32.5526 91.5223C32.6996 91.1181 32.9201 90.7629 33.214 90.4444C33.2508 90.4077 33.312 90.4689 33.2753 90.5057Z" fill="white"/>
<path d="M32.7854 91.1795C32.8589 91.1918 32.9324 91.1918 33.0059 91.204C33.0426 91.204 33.0671 91.253 33.0426 91.2775C32.9936 91.3143 32.9569 91.3878 32.9814 91.449C32.9936 91.498 33.0426 91.5225 33.0426 91.5715C33.0426 91.596 33.0304 91.6327 33.0059 91.645C32.9814 91.6695 32.9324 91.6817 32.9324 91.7062C32.9324 91.7675 32.8344 91.7675 32.8344 91.7062C32.8344 91.6572 32.8589 91.645 32.8834 91.6082C32.8956 91.596 32.9324 91.5837 32.9324 91.5715C32.9446 91.5347 32.9079 91.5102 32.8956 91.4857C32.8589 91.3878 32.8834 91.2653 32.9691 91.204C32.9814 91.2285 32.9936 91.253 33.0059 91.2775C32.9324 91.2653 32.8589 91.2653 32.7854 91.253C32.7242 91.2653 32.7242 91.1673 32.7854 91.1795Z" fill="white"/>
<path d="M19.1782 80.1681C16.3856 80.952 13.5929 81.7482 10.8003 82.5321C10.0042 83.3037 8.76706 84.3571 7.04003 85.2145C4.06367 86.6965 0.462629 87.1987 0.168667 86.5005C0.0339336 86.1943 0.793337 85.5084 2.31214 84.1366C3.61047 82.973 4.18615 82.6178 5.10478 81.7727C5.77845 81.148 6.70933 80.2049 7.67695 78.8698C8.79156 78.8575 10.1389 78.7473 11.6332 78.4288C14.0461 77.9022 15.9569 77.0203 17.2797 76.2609C17.9166 77.5714 18.5536 78.8698 19.1782 80.1681Z" fill="#161616"/>
<path d="M46.1244 49.2164C47.9984 52.1193 46.6266 55.7326 45.1078 59.7011C42.9398 65.4088 39.6082 69.1813 37.9057 70.9451C30.2872 78.8576 20.9294 82.2382 15.5401 83.708C14.9889 81.1848 14.45 78.6494 13.8988 76.1262C17.6223 74.1052 20.3659 71.9005 22.24 70.1857C25.3878 67.3073 30.6546 62.4937 32.8593 55.0222C34.2189 50.3923 33.3615 48.2978 35.3825 46.8035C38.1996 44.7457 43.9442 45.8236 46.1244 49.2164Z" fill="#4F4F4F"/>
<path opacity="0.14" d="M33.8148 50.5883C34.8436 52.254 36.142 54.9609 35.7623 58.0843C35.3213 61.6976 32.8716 63.988 27.0414 69.1324C21.9215 73.6398 17.6713 77.3021 14.695 79.8375C14.4377 78.6004 14.1928 77.3756 13.9356 76.1385C15.8708 75.0484 18.3817 73.4561 21.0886 71.2268C22.5829 69.9898 24.7632 68.177 27.1026 65.3109C28.7194 63.3266 30.8874 60.632 32.3939 56.5287C33.2636 54.1525 33.631 52.0581 33.8148 50.5883Z" fill="#6D6C6C"/>
<path opacity="0.14" d="M30.4587 60.8156C30.128 61.9547 29.5401 63.5959 28.4745 65.3965C27.5436 66.9643 26.233 68.679 21.6521 72.574C19.8271 74.1173 17.4019 76.0893 14.4011 78.2573C14.2296 77.5591 14.0704 76.861 13.8989 76.1628C15.5892 75.2319 16.9487 74.3501 17.9164 73.6764C20.9172 71.5942 22.975 69.6222 24.212 68.4218C24.9714 67.6869 25.8043 66.8663 26.8455 65.6904C28.4622 63.8164 29.6381 62.1016 30.4587 60.8156Z" fill="#6D6C6C"/>
<path d="M57.2949 77.0447C55.7394 78.4411 54.1838 79.8374 52.6283 81.2337C54.3308 87.4069 54.8452 90.616 54.1593 90.8977C53.3387 91.2284 50.791 87.2844 46.5041 79.0657C49.2722 77.1305 52.0281 75.1952 54.7962 73.2722C55.6414 74.5216 56.4743 75.7831 57.2949 77.0447Z" fill="#161616"/>
<path d="M46.2591 46.4361C51.7219 50.3311 55.7516 53.2218 57.7603 54.6548C65.1216 59.9216 68.8084 62.6163 69.1391 65.2742C69.776 70.4553 63.909 75.8201 62.3168 77.2777C60.8224 78.6495 59.4016 79.5926 58.3973 80.1805C57.5889 80.0091 55.3474 79.4456 53.4734 77.4001C51.8321 75.6241 51.3544 73.6766 51.1952 72.856C53.2652 70.9207 55.3474 68.9732 57.4174 67.038C53.3264 65.0292 49.9703 63.4859 47.6676 62.4571C44.4218 60.9995 43.2827 60.5708 41.5312 59.3337C39.3142 57.7782 36.3623 55.6592 35.5294 52.0092C35.3212 51.0905 34.7578 48.6653 36.0316 46.9506C37.6239 44.7948 41.7884 44.4396 46.2591 46.4361Z" fill="#4F4F4F"/>
<path opacity="0.12" d="M40.0364 49.1428C39.62 49.4368 35.9577 52.1069 36.5701 54.6669C36.6436 54.9486 36.8274 55.5365 38.5421 57.0308C40.8326 59.0395 42.9883 60.1909 44.0662 60.7421C46.3689 61.9302 48.0347 62.6406 49.6637 63.351C51.5622 64.1716 54.2936 65.3965 57.6252 66.9765C55.5185 68.924 53.424 70.8715 51.3172 72.819C51.3907 73.3825 51.55 74.0929 51.8684 74.8645C52.3584 76.0649 53.032 76.9345 53.522 77.4734C54.2201 76.1383 55.1877 74.5705 56.5228 72.9783C58.7765 70.2714 61.1895 68.5321 62.99 67.4542C58.5806 65.568 52.6156 62.3466 46.8221 56.8838C44.0049 54.2137 41.7757 51.5435 40.0364 49.1428Z" fill="#6D6C6C"/>
<path opacity="0.19" d="M36.9011 54.1402C37.5136 53.4788 41.4453 56.1489 43.3561 57.4228C46.9571 59.8357 52.2362 63.204 59.3647 67.2827C56.6089 69.1812 53.853 71.092 51.0971 72.9905C53.2038 70.9818 55.3228 68.973 57.4295 66.9643C56.7558 66.6336 55.6167 66.0824 54.1959 65.4087C51.8075 64.2696 49.2353 63.0815 45.7812 61.4647C45.1811 61.183 43.4173 60.3501 41.1881 59.1008C39.7305 58.2801 38.2975 57.4228 37.3666 55.7447C37.0971 55.267 36.6317 54.4341 36.9011 54.1402Z" fill="#6D6C6C"/>
<path d="M41.8987 22.9804C42.5111 22.3189 43.7849 22.5884 44.4219 22.7231C46.6143 23.1763 47.8514 24.4869 49.8969 26.2874C50.9993 27.2551 52.6038 28.5901 54.6738 30.1089C55.2862 27.353 55.8864 24.6094 56.4988 21.8535C56.2538 21.5473 55.8496 20.9471 55.7149 20.1142C55.6414 19.6733 55.4577 18.1177 56.5233 17.1379C57.6992 16.0478 59.8304 16.207 60.8102 17.3338C61.8024 18.4729 61.2879 20.2122 61.043 21.0451C60.8102 21.829 60.455 22.4292 60.1733 22.8211C60.2591 23.6908 60.3448 24.9524 60.2591 26.4712C60.1733 28.1002 60.0753 29.766 59.3037 31.6033C58.679 33.0853 57.9319 34.8613 56.3518 35.5105C54.637 36.2209 52.861 35.2043 49.3947 33.1588C43.9564 29.9497 42.6581 27.2918 42.3519 26.6426C42.0212 25.9445 41.078 23.8745 41.8987 22.9804Z" fill="white" stroke="#161616" stroke-width="0.3"/>
<path d="M56.8787 20.6531C57.2952 20.2979 57.7361 19.8937 57.8831 19.3425C57.9443 19.0975 57.9933 18.7545 57.5401 18.8158C57.4299 18.828 57.2707 18.9628 57.1849 19.024C56.9277 19.1955 56.695 19.416 56.4868 19.6364C56.401 19.7222 56.2786 19.5874 56.3521 19.5017C56.6215 19.2077 57.7116 18.0809 58.0423 18.8035C58.373 19.5384 57.4789 20.3713 57.0012 20.7633C56.9155 20.8613 56.793 20.7265 56.8787 20.6531Z" fill="#161616"/>
<path d="M60.9694 17.5663C60.9081 18.4605 60.6264 19.82 59.4261 19.6241C59.3036 19.5996 59.3648 19.4281 59.4751 19.4526C60.5407 19.6241 60.7367 18.3257 60.7857 17.5663C60.7979 17.4561 60.9816 17.4561 60.9694 17.5663Z" fill="#161616"/>
<path d="M59.7449 16.8072C59.2182 17.5421 59.0958 18.4239 59.3897 19.2813C59.4265 19.3916 59.255 19.4406 59.2182 19.3303C58.912 18.4362 59.0468 17.4808 59.5979 16.7092C59.6592 16.6112 59.8184 16.7092 59.7449 16.8072Z" fill="#161616"/>
<path d="M58.373 16.5006C57.9076 17.358 58.0178 18.3747 58.6547 19.1218C58.7282 19.2075 58.6057 19.3423 58.52 19.2565C57.8341 18.4604 57.6993 17.3458 58.2138 16.4149C58.2628 16.3047 58.422 16.4027 58.373 16.5006Z" fill="#161616"/>
<path d="M56.8537 17.1254C56.6455 17.5909 56.7557 18.1176 57.1232 18.4605C57.2089 18.5463 57.0742 18.6687 56.9884 18.5953C56.5597 18.1911 56.4373 17.5664 56.6822 17.0275C56.7435 16.9172 56.9027 17.0152 56.8537 17.1254Z" fill="#161616"/>
<path opacity="0.17" d="M59.7812 16.611C59.573 16.5497 59.3158 16.4762 59.0708 16.5742C58.4094 16.8437 58.1154 18.2033 58.7034 18.9137C58.9361 19.2076 59.2668 19.3179 59.475 19.3791C59.4628 19.5873 59.4505 19.9303 59.426 20.359C59.426 20.359 59.3648 21.4981 59.2913 22.4657C59.0953 25.0624 58.8993 27.5366 57.846 30.1087C57.5153 30.9294 56.9518 32.0807 55.9965 33.3791C55.5065 33.2811 54.5144 33.0361 53.3508 32.5462C46.6754 29.7168 43.3193 22.1963 42.1312 22.8087C41.9108 22.9189 41.7271 23.3476 41.7026 23.4211C41.4821 23.96 41.5923 24.4867 41.7638 25.0501C42.2047 26.471 42.8784 27.5121 43.0744 27.806C43.797 28.8839 44.4829 29.5821 44.6667 29.7658C45.4751 30.5742 46.1977 31.0641 47.5328 31.9215C50.0315 33.5138 51.2808 34.31 52.126 34.6529C53.8407 35.3511 55.2983 35.9512 56.6456 35.3143C57.454 34.9346 57.8582 34.2855 58.4461 33.3056C59.6955 31.1989 59.9282 29.1411 60.1119 27.2304C60.2222 26.1403 60.2957 24.6459 60.1732 22.8577C60.8591 21.7553 61.1286 20.7632 61.251 20.1385C61.4103 19.3179 61.5328 18.632 61.1898 17.8848C61.0918 17.7378 60.6754 16.8682 59.7812 16.611Z" fill="#6D6C6C"/>
<path opacity="0.2" d="M41.6787 24.0336C41.8134 23.9724 42.2298 24.6093 42.6708 25.2707C43.3077 26.2383 43.6262 26.7283 44.1528 27.8306C45.6349 30.9417 50.571 33.4527 51.2079 33.7834C52.2123 34.2855 53.6576 34.9102 55.5194 35.3512C56.3768 34.5673 57.9568 32.9382 58.8509 30.6355C59.3409 29.3739 59.5246 28.1246 59.5614 27.9164C59.6961 27.0467 59.7083 26.3731 59.7206 25.6014C59.7328 24.5358 59.6961 23.6049 59.6226 22.8578C59.8921 22.3556 60.1493 21.7799 60.3942 21.1675C60.8107 20.1019 61.0802 19.1098 61.2516 18.2401C61.3006 18.926 61.2884 19.9426 60.9454 21.1062C60.725 21.8411 60.4432 22.4413 60.1738 22.8945C60.4065 24.8788 60.3208 26.5323 60.1738 27.7081C60.1738 27.7081 59.8431 30.4273 58.4223 33.4404C58.1895 33.9303 57.8588 34.555 57.1852 35.0449C56.3155 35.6696 55.3846 35.7186 55.0907 35.7186C54.6007 35.7309 54.0373 35.6574 51.7959 34.4815C49.8484 33.4649 48.501 32.5953 47.9988 32.2646C47.0557 31.6521 46.5903 31.3337 46.0881 30.9417C45.0592 30.1211 43.3812 28.7738 42.3523 26.569C41.8256 25.4177 41.5072 24.1194 41.6787 24.0336Z" fill="#6D6C6C"/>
<path d="M40.7961 20.0896C43.1723 21.7187 46.0384 24.2908 47.2388 28.1368C48.1207 30.9662 47.545 32.8647 47.6675 37.4334C47.741 40.0423 48.0104 43.8271 48.9658 48.457C48.4024 49.0571 45.0463 52.4745 39.8775 52.352C36.6684 52.2785 34.3657 50.8699 33.3858 50.184C34.1207 45.5786 33.9248 41.9041 33.6063 39.3686C33.0306 34.8735 31.5363 32.2646 31.5486 27.1447C31.5486 24.646 31.8915 22.6005 32.1855 21.241C32.8346 20.751 34.0717 19.9549 35.811 19.6119C38.1382 19.1832 40.0122 19.7834 40.7961 20.0896Z" fill="white" stroke="#161616" stroke-width="0.3"/>
<path opacity="0.13" d="M37.1582 19.6364C37.1337 20.8367 37.1337 22.6005 37.3297 24.7072C37.5502 27.2181 38.0646 30.6722 40.2326 37.4211C41.3839 41.0099 43.062 45.6765 45.4626 51.0413C44.1276 51.764 42.9395 52.0702 42.1433 52.2049C39.1915 52.7071 36.803 51.813 35.6639 51.372C34.6595 50.9801 33.8756 50.5391 33.3367 50.2084C33.5449 48.9468 33.7654 47.2198 33.8389 45.1376C33.8756 44.1577 33.9369 40.9609 33.1775 36.5024C32.4793 32.387 31.9281 32.1665 31.5974 29.4351C31.1932 26.0178 31.6709 23.1149 32.1731 21.1307C32.7855 20.7265 33.7409 20.1875 35.0025 19.8813C35.8354 19.6853 36.5825 19.6364 37.1582 19.6364Z" fill="#6D6C6C"/>
<path opacity="0.15" d="M35.0883 19.967C34.9658 22.2575 34.9168 25.2339 35.1741 28.6879C35.2965 30.3782 35.566 33.7465 36.4234 37.4945C37.1951 40.8996 38.7996 46.0684 42.4006 51.9477C41.5065 52.1559 40.2082 52.3519 38.6649 52.1926C36.1662 51.9354 34.3534 50.9066 33.4348 50.2819C34.1697 45.0641 33.8267 40.9731 33.349 38.156C32.8959 35.4858 32.3692 34.163 32.014 31.2601C31.5118 27.0589 31.867 23.5558 32.2589 21.2041C32.5407 20.9469 33.0061 20.5672 33.6675 20.2855C34.2309 20.0773 34.7331 20.0038 35.0883 19.967Z" fill="#6D6C6C"/>
<path d="M33.9374 21.5837C32.1737 21.5837 29.871 21.7675 27.262 22.4534C23.9305 23.3353 21.3706 24.7071 19.668 25.8094C19.1046 27.3283 18.0757 30.7578 19.0311 34.8733C19.5088 36.9555 20.3417 38.5601 21.0521 39.6624C21.1011 40.9118 20.8194 41.7324 20.5377 42.2591C20.2192 42.8838 19.7293 43.4472 19.9252 43.9739C20.0232 44.2433 20.2682 44.4026 20.4519 44.5005C20.4642 44.5373 20.6111 44.819 20.9419 44.9047C21.3216 44.9905 21.591 44.7455 21.6155 44.721C21.689 44.7823 22.0075 45.0885 22.5097 45.0885C23.0608 45.1007 23.4038 44.7455 23.465 44.6843C23.5753 44.7333 23.8447 44.8068 24.1754 44.7455C24.6286 44.6598 24.8736 44.3413 24.9471 44.2556C25.2043 44.0474 25.8657 43.4227 25.927 42.5041C25.9515 42.1611 25.878 41.8426 25.682 41.3649C25.437 40.777 24.9348 39.8094 23.8692 38.7928C23.5385 37.2495 23.2936 35.253 23.4283 32.938C23.5018 31.7499 23.661 30.6843 23.857 29.7412C25.7187 29.0553 28.0214 28.4061 30.7039 28.0754C31.7817 27.9407 32.8106 27.8794 33.766 27.8672C35.395 26.973 36.2034 25.246 35.8237 23.7517C35.4317 22.3676 34.1702 21.7062 33.9374 21.5837Z" fill="white" stroke="#161616" stroke-width="0.3"/>
<path d="M25.3268 41.5367C25.535 42.4921 25.5595 43.472 24.9594 44.2926C24.8859 44.3906 24.7266 44.2926 24.8001 44.1946C25.3758 43.4107 25.3513 42.4921 25.1553 41.5857C25.1308 41.4755 25.3023 41.4142 25.3268 41.5367Z" fill="#161616"/>
<path d="M24.249 41.9654C24.2368 42.884 24.0898 43.9741 23.4774 44.6968C23.4039 44.7825 23.2691 44.6601 23.3426 44.5621C23.9183 43.8884 24.053 42.8228 24.0653 41.9654C24.0653 41.8429 24.249 41.8429 24.249 41.9654Z" fill="#161616"/>
<path d="M22.9506 42.1246C22.8648 43.0432 22.5096 44.2313 21.689 44.758C21.591 44.8192 21.493 44.66 21.591 44.5988C22.3504 44.1088 22.6811 42.9697 22.7669 42.1246C22.7791 42.0021 22.9628 42.0021 22.9506 42.1246Z" fill="#161616"/>
<path d="M21.8724 42.2347C21.7254 43.1533 21.26 43.9617 20.5496 44.5619C20.4639 44.6354 20.3291 44.5129 20.4149 44.4272C21.113 43.8515 21.5417 43.0676 21.6887 42.1857C21.7132 42.0632 21.8847 42.1122 21.8724 42.2347Z" fill="#161616"/>
<path opacity="0.17" d="M35.5784 23.36C33.4961 23.1885 29.9318 23.1885 25.9266 24.7195C23.5749 25.6259 21.7499 26.7895 20.4638 27.7816C19.7167 34.8245 20.77 37.8253 21.9581 39.2339C22.2153 39.5279 23.232 40.6547 23.3544 42.2715C23.4524 43.4964 23.0237 44.9907 22.4236 45.0764C22.1786 45.1132 21.9459 44.9049 21.7621 44.6967C21.4069 44.9539 21.1375 44.9417 21.0395 44.9172C20.9538 44.9049 20.8313 44.8682 20.3658 44.513C19.9984 44.2313 19.8146 44.0843 19.7779 44.0108C19.5452 43.5576 20.1821 42.9452 20.5985 42.149C20.868 41.6346 21.1375 40.8507 21.1007 39.6993C20.2556 38.352 18.6633 35.3634 18.651 31.3214C18.6388 28.9697 19.1777 27.059 19.6432 25.7974C20.7333 25.0747 21.7009 24.5848 22.4113 24.2541C22.595 24.1683 22.6195 24.1439 25.6326 23.0292C26.8942 22.5638 27.1515 22.4658 27.6291 22.3556C28.2906 22.1964 28.3273 22.2453 29.8461 21.9881C30.63 21.8534 31.4139 21.7554 32.1978 21.6207C32.406 21.5839 33.1899 21.4614 33.8758 21.6697C33.9738 21.7064 34.2065 21.7677 34.4638 21.9391C34.525 21.9881 34.7087 22.1106 34.9659 22.3923C35.1252 22.6128 35.3579 22.919 35.5784 23.36Z" fill="#6D6C6C"/>
<path opacity="0.14" d="M19.7657 25.9689C19.5329 28.1368 19.5084 29.9741 19.5329 31.3459C19.5697 33.073 19.5942 34.0651 19.9126 35.4124C20.3291 37.1884 21.0517 38.7562 21.1252 38.9155C21.5049 39.7116 21.5662 39.7116 21.7744 40.275C22.0684 41.0712 22.6563 42.6267 21.9581 43.8271C21.8724 43.9863 21.3825 44.8314 20.6965 44.758C20.0596 44.6967 19.7289 43.8638 19.7167 43.8271C20.0106 43.3249 20.3291 42.6757 20.5986 41.9163C20.8313 41.2427 20.9783 40.618 21.064 40.0913C20.3536 38.9522 19.4839 37.2742 19.0063 35.0939C18.1121 30.9172 19.19 27.4877 19.7657 25.9689Z" fill="#6D6C6C"/>
<path d="M43.6623 11.7239C46.357 12.1526 47.1654 15.9496 47.2511 16.3293C47.4348 17.1867 47.9125 19.4281 46.4305 21.0939C44.9729 22.7352 42.7192 22.5515 42.4375 22.527C41.874 22.478 40.539 22.2453 39.5223 21.1919C37.7341 19.3669 37.9301 16.1333 39.3631 14.0756C39.5346 13.8428 41.3229 11.3564 43.6623 11.7239Z" fill="#303030"/>
<path d="M42.1924 16.5621C42.2537 17.0888 41.9965 17.3582 41.3105 18.7913C40.7716 19.9182 40.4164 20.8613 40.1959 21.4615C39.755 21.5594 38.5914 21.7677 37.2931 21.2165C36.4112 20.849 35.8478 20.2856 35.5538 19.9426C35.9457 19.3057 36.4724 18.3626 36.9011 17.15C37.5748 15.2882 37.4155 14.5656 38.028 14.1981C39.2528 13.5 42.021 14.982 42.1924 16.5621Z" fill="white" stroke="#161616" stroke-width="0.3"/>
<path d="M44.4957 3.00322C45.4511 3.66463 45.794 4.65675 46.4554 6.57975C47.2026 8.75997 47.6925 10.6585 47.815 12.0058C47.8395 12.2018 47.717 12.3978 47.521 12.4712C47.2638 12.5692 46.8351 12.5692 46.5902 12.606C46.5657 13.2062 46.4554 14.039 46.0757 14.9454C45.3286 16.7459 44.0057 17.7503 43.3933 18.1423C42.6339 18.2158 40.7232 18.3015 38.8369 17.1501C37.5876 16.3785 36.9384 15.4231 36.7914 15.1904C35.8361 13.7328 35.7503 12.2753 35.7503 11.6506C35.4564 11.6261 34.9909 11.5526 34.5377 11.2464C33.6068 10.6217 32.9087 9.17642 33.4966 8.38027C33.9375 7.8046 35.0399 7.64537 36.081 8.1598C36.1055 7.70661 36.1913 7.08194 36.424 6.35928C36.4852 6.18781 36.9139 4.86498 37.7101 3.97084C39.2534 2.25606 42.5604 1.64364 44.4957 3.00322Z" fill="white" stroke="#161616" stroke-width="0.3"/>
<path d="M41.4212 18.5097C40.2086 18.3994 39.1185 17.8972 38.2488 17.0398C38.0774 16.8684 38.3468 16.6111 38.5061 16.7826C39.3022 17.5788 40.2943 18.0442 41.4212 18.1544C41.6539 18.1544 41.6661 18.5219 41.4212 18.5097Z" fill="#161616"/>
<path d="M41.2374 18.8157C39.9758 18.4605 38.8612 17.7991 37.9548 16.8437C37.7956 16.6722 38.0528 16.415 38.212 16.5865C39.0694 17.4928 40.1228 18.1298 41.3231 18.4605C41.5681 18.5217 41.4701 18.8769 41.2374 18.8157Z" fill="#161616"/>
<path d="M47.006 8.07359C47.1775 7.91436 48.5126 6.60378 48.3166 4.68078C48.0961 2.63529 46.3201 1.65542 46.0261 1.49619C44.4583 0.6388 42.915 0.994004 42.5598 1.09199C42.0087 0.749036 41.0165 0.234602 39.706 0.0753723C37.7585 -0.169596 36.2396 0.467322 35.6272 0.773533C34.8188 1.0185 33.6675 1.49619 32.7121 2.52506C31.377 3.95812 31.6832 5.14622 30.3114 7.55916C29.7725 8.51454 29.797 8.20833 27.7515 10.952C25.9142 13.4139 24.9956 14.6632 24.8486 15.5696C24.5424 17.5539 25.608 19.6116 26.9308 20.8242C29.503 23.1759 34.0839 23.2739 36.2641 20.9099C38.0647 18.9624 37.6605 15.9738 37.538 15.0184C37.3175 13.3894 36.7051 12.1523 36.2641 11.4297C36.0559 11.4664 35.7375 11.5154 35.3823 11.4297C34.7086 11.2827 33.9002 10.7315 33.7532 9.84962C33.741 9.78837 33.5695 8.58803 34.4269 8.13484C34.9658 7.85312 35.6762 7.97561 36.1662 8.45329C36.7786 8.24507 37.7952 7.84087 38.7996 6.98348C39.8039 6.12609 40.3796 5.20746 40.6736 4.63179C41.1145 4.43581 41.9842 4.1541 43.0498 4.28883C45.1443 4.5583 46.2711 6.26083 46.4426 6.53029C46.6263 7.03248 46.8223 7.54691 47.006 8.07359Z" fill="#303030"/>
<path d="M44.275 9.21314C44.3117 9.09066 44.3362 8.98042 44.3362 8.85794C44.3362 8.78445 44.3362 8.71096 44.324 8.63747C44.3117 8.56398 44.275 8.52723 44.3362 8.47824C44.422 8.417 44.373 8.53948 44.3607 8.58847C44.3607 8.64972 44.3607 8.71096 44.3607 8.78445C44.3607 8.84569 44.3607 9.1274 44.422 9.16415C44.373 9.1519 44.324 9.1519 44.275 9.13965C44.2383 9.18865 44.226 9.18865 44.2383 9.13965C44.2383 9.10291 44.2505 9.07841 44.2505 9.04167C44.2627 8.96817 44.275 8.90693 44.275 8.83344C44.275 8.69871 44.2627 8.56398 44.1893 8.45374C44.0668 8.24552 44.3852 8.06179 44.5077 8.27001C44.6057 8.44149 44.6425 8.63747 44.6425 8.84569C44.6425 9.01717 44.6302 9.27439 44.52 9.40912C44.422 9.54385 44.2383 9.5316 44.128 9.40912C43.9933 9.26214 43.981 8.98042 43.9688 8.78445C43.9565 8.61297 43.9443 8.38025 44.0545 8.23327C44.1525 8.09854 44.324 8.07404 44.4587 8.17203C44.7649 8.40475 44.7037 9.00492 44.6057 9.32338C44.569 9.5316 44.2138 9.43362 44.275 9.21314Z" fill="#161616"/>
<path d="M45.1323 7.64502C44.5689 7.20408 43.7237 7.32657 43.3195 7.90224C43.2215 8.04922 42.9766 7.90224 43.0868 7.76751C43.6135 7.0326 44.6301 6.89787 45.3405 7.44905C45.463 7.55929 45.267 7.75526 45.1323 7.64502Z" fill="#161616"/>
<path d="M46.2347 14.149C45.4508 13.904 44.7771 13.4631 44.2504 12.8506C44.1402 12.7159 44.3239 12.5199 44.4464 12.6547C44.9486 13.2426 45.5733 13.659 46.3082 13.8918C46.4796 13.9285 46.4061 14.198 46.2347 14.149Z" fill="#161616"/>
<path d="M44.2868 10.401C44.2868 10.3643 44.299 10.3765 44.3235 10.45C44.348 10.4623 44.3725 10.4623 44.397 10.4745C44.397 10.4745 44.397 10.4745 44.3848 10.4745C44.4093 10.4623 44.4338 10.4623 44.4583 10.45L44.4705 10.4378C44.4828 10.4133 44.495 10.401 44.5073 10.3765C44.5073 10.3888 44.5073 10.3888 44.5073 10.3643C44.495 10.3398 44.495 10.3153 44.4828 10.2908C44.4705 10.2785 44.446 10.254 44.4338 10.2418C44.397 10.2418 44.3603 10.2296 44.3235 10.2296C44.3235 10.2296 44.3235 10.2296 44.3358 10.2296C44.5073 10.1928 44.5807 10.45 44.4093 10.499C44.25 10.5358 44.1643 10.3398 44.2745 10.2296C44.3235 10.1806 44.4093 10.1806 44.4705 10.2051C44.5318 10.2418 44.5563 10.3153 44.5563 10.3888C44.5685 10.5848 44.2868 10.5848 44.2868 10.401Z" fill="#161616"/>
<path d="M43.0746 9.38428C43.0746 9.38428 43.0623 9.38428 43.0623 9.37203C43.0378 9.37203 43.0133 9.37203 42.9888 9.37203C42.9276 9.38428 42.9031 9.45777 42.9398 9.50676C42.9521 9.51901 42.9766 9.54351 42.9888 9.55576C43.0011 9.55576 43.0133 9.56801 43.0378 9.56801C43.0623 9.55576 43.0868 9.55576 43.1113 9.54351L43.1236 9.53126C43.1358 9.50676 43.1481 9.49452 43.1603 9.47002C43.1603 9.43327 43.1603 9.40878 43.1358 9.38428C43.1113 9.37203 43.0991 9.35978 43.0746 9.34753C43.0623 9.34753 43.0623 9.34753 43.0501 9.34753C43.1236 9.33529 43.1848 9.42102 43.1848 9.48227C43.1848 9.56801 43.1236 9.60475 43.0501 9.617C42.9521 9.62925 42.8786 9.53126 42.8786 9.43327C42.8786 9.32304 43.0011 9.24955 43.0991 9.28629C43.3073 9.37203 43.1236 9.72724 42.9398 9.5925C42.8786 9.55576 42.8541 9.47002 42.8908 9.40878C42.9153 9.37203 43.0133 9.34753 43.0746 9.38428Z" fill="#161616"/>
<path d="M43.099 10.7073C43.05 10.7318 43.05 10.8053 43.099 10.8298C43.1725 10.7931 43.2338 10.7563 43.3072 10.7073C43.3072 10.7441 43.3072 10.7808 43.3072 10.8176C43.246 10.7686 43.197 10.7318 43.1358 10.6829C43.1235 10.7073 43.1235 10.7196 43.1113 10.7318C43.1235 10.6584 43.1725 10.5971 43.246 10.5971C43.3195 10.5971 43.393 10.6584 43.3807 10.7318C43.3685 10.8298 43.3072 10.9278 43.2093 10.9401C43.1235 10.9523 43.0378 10.9033 43.0378 10.8053C43.0378 10.7686 43.0378 10.7318 43.0378 10.6951C43.0378 10.5849 43.1603 10.5236 43.246 10.5726C43.3807 10.6461 43.3807 10.8421 43.246 10.9278C43.0745 11.0258 42.9398 10.7931 43.099 10.7073Z" fill="#161616"/>
<path opacity="0.15" d="M40.7597 4.59534C40.5514 5.25675 40.2942 6.21213 40.086 7.37573C39.6451 9.81316 39.2164 12.0179 40.086 14.2226C40.8332 16.1333 42.1805 17.4072 43.2461 18.1666C42.3887 18.1298 41.3476 18.0074 40.1962 17.6767C39.6451 17.5174 39.1429 17.3337 38.6897 17.15C38.5182 17.7869 38.3467 18.6443 38.3467 19.6731C38.3467 20.3958 38.4325 21.0327 38.5305 21.5472C38.2977 21.5594 37.8568 21.5594 37.3669 21.3634C36.9259 21.1797 36.6319 20.9225 36.4605 20.7633C36.2033 21.0327 35.7991 21.3757 35.2601 21.7064C33.3126 22.8577 31.2794 22.5515 30.716 22.4535C30.226 22.3678 27.7151 21.9024 26.0861 19.6364C25.6329 19.0117 24.7387 17.7501 24.8857 15.9864C25.0204 14.3328 26.0126 13.255 26.3555 12.8998C26.5392 13.353 27.0414 14.3818 28.156 15.1535C28.3643 15.3005 30.0913 16.4518 32.1368 15.9006C34.0353 15.3984 35.4806 13.6102 35.7501 11.43C35.5663 11.43 35.2601 11.4177 34.9172 11.283C34.7457 11.2095 34.1455 10.9278 33.8638 10.2296C33.8148 10.0949 33.5821 9.50695 33.8638 8.87004C33.9128 8.7598 34.219 8.07389 34.9539 7.96365C35.6153 7.86567 36.1053 8.31886 36.1543 8.3801C36.8769 8.14738 38.1385 7.64519 39.3144 6.50609C40.0248 5.83243 40.478 5.13427 40.7597 4.59534Z" fill="#424242"/>
<path opacity="0.23" d="M34.9294 11.2463C35.3948 11.136 35.8603 11.0258 36.3257 10.9033C36.5094 11.1605 36.7667 11.5402 37.0361 12.0302C37.6975 13.2183 37.8323 13.9532 38.1997 14.7738C38.4937 15.4352 39.0204 16.3294 40.0002 17.2603C39.4368 17.0643 38.8734 16.8561 38.31 16.6601C38.0405 17.2113 37.5996 18.3014 37.7098 19.7099C37.7588 20.3836 37.918 20.947 38.0895 21.3635C37.5383 21.1797 36.9871 20.9838 36.436 20.8C36.7054 20.4448 37.0729 19.8937 37.3423 19.1465C37.722 18.0809 37.6975 17.199 37.6853 16.4029C37.673 16.0477 37.6241 14.9331 37.1954 13.549C36.9259 12.7038 36.6074 12.0179 36.3257 11.5157C36.142 11.5402 35.8603 11.5525 35.5418 11.479C35.2846 11.4178 35.0764 11.332 34.9294 11.2463Z" fill="#6D6C6C"/>
<path opacity="0.25" d="M46.6264 14.4799C46.7367 14.7616 47.2756 16.2314 46.5162 17.6889C45.9405 18.8036 44.5564 20.0039 43.1356 19.6364C42.1802 19.3915 41.6658 18.5586 41.4943 18.2769C41.0289 19.3915 40.5635 20.5061 40.098 21.6207C40.2205 21.7187 40.4165 21.8657 40.6614 22.0004C42.413 23.0048 44.3482 22.3678 44.4952 22.3188C44.8749 22.1841 46.063 21.7554 46.8346 20.5428C47.5573 19.3915 47.4838 18.2279 47.4226 17.3337C47.3491 16.0477 46.9326 15.0678 46.6264 14.4799Z" fill="#424242"/>
</svg>
