<svg width="186" height="203" viewBox="0 0 186 203" fill="none" xmlns="http://www.w3.org/2000/svg">
<path d="M43.8172 121.202C32.1714 50.2411 92.1435 -30.3704 104.478 23.0673C116.813 76.5051 174.538 104.979 176.993 137.987C179.449 170.995 55.463 192.163 43.8172 121.202Z" fill="#FFCD00"/>
<mask id="mask0_191_573" style="mask-type:alpha" maskUnits="userSpaceOnUse" x="42" y="5" width="136" height="164">
<path d="M43.8172 121.202C32.1714 50.2411 92.1435 -30.3704 104.478 23.0673C116.813 76.5051 174.538 104.979 176.993 137.987C179.449 170.995 55.463 192.163 43.8172 121.202Z" fill="#ECECEC"/>
</mask>
<g mask="url(#mask0_191_573)">
<path d="M13.9484 59.6836C16.4748 57.6257 19.8953 57.3276 23.0177 57.8953C26.3531 58.4914 29.3904 60.0952 32.4703 61.4436C35.6495 62.8487 38.8855 63.8564 42.3769 64.0267C45.8542 64.2112 49.3315 63.7144 52.7094 62.8629C59.7633 61.0887 66.2353 57.6824 73.0054 55.1135C76.3975 53.822 79.9031 52.7007 83.5082 52.1898C85.4668 51.9059 87.4396 51.8349 89.4124 52.0478C91.2859 52.2465 93.1168 52.6865 94.9477 53.1407C98.9927 54.1484 103.023 55.0284 107.168 55.5251C111.44 56.0361 115.755 56.2064 120.055 56.0644C120.325 56.0502 120.325 55.6245 120.055 55.6387C112.249 55.9225 104.443 55.0851 96.8637 53.1975C93.2445 52.2891 89.6537 51.3524 85.8926 51.5369C82.245 51.7214 78.64 52.6865 75.2053 53.8645C68.3217 56.2348 61.8497 59.712 54.8668 61.8268C51.3185 62.8913 47.6425 63.6293 43.924 63.6435C40.1487 63.6577 36.6004 62.7777 33.1515 61.2733C29.7452 59.7972 26.4099 57.9663 22.7055 57.3986C19.5547 56.916 16.1909 57.2992 13.6504 59.3714C13.4375 59.5559 13.7355 59.8682 13.9484 59.6836Z" fill="#E8E8E8"/>
<path d="M90.3916 46.7104C100.227 50.9541 111.397 50.2444 121.46 47.1646C126.91 45.4898 132.332 43.2473 138.137 43.2615C143.984 43.2757 149.534 45.3195 155.253 46.2278C160.448 47.051 166.168 46.9517 170.624 43.8292C170.852 43.6731 170.639 43.3041 170.412 43.4602C166.296 46.3414 161.073 46.5968 156.247 45.944C150.783 45.2059 145.531 43.3041 140.01 42.9067C134.489 42.5093 129.28 44.1699 124.1 45.873C118.934 47.562 113.711 48.8819 108.275 49.1942C102.257 49.549 96.1681 48.74 90.6187 46.3414C90.3632 46.2278 90.1503 46.5968 90.3916 46.7104Z" fill="#E8E8E8"/>
<path d="M8.52629 82.0934C11.6345 79.8793 15.3105 78.5168 19.1142 78.1478C21.0161 77.9633 22.9321 78.0342 24.8056 78.3607C26.7501 78.7013 28.6235 79.3542 30.4828 80.0071C33.9317 81.1993 37.3522 82.1076 40.9856 81.2702C44.1222 80.5464 46.9608 78.9142 49.7427 77.3672C53.0212 75.5363 56.4275 73.6628 60.2313 73.3222C60.5009 73.2938 60.5009 72.868 60.2313 72.8964C53.447 73.5067 48.3517 78.6019 42.0217 80.5464C40.4179 81.0431 38.7431 81.2986 37.0683 81.1993C35.0104 81.0715 33.0091 80.4328 31.0789 79.7658C29.1345 79.0987 27.19 78.3749 25.1462 77.9917C23.3863 77.6652 21.5838 77.5659 19.8097 77.6794C15.6937 77.9349 11.6771 79.34 8.31339 81.7386C8.08631 81.8805 8.2992 82.2495 8.52629 82.0934Z" fill="#E8E8E8"/>
<path d="M46.1523 87.5436C51.6733 81.7103 59.7917 79.3259 67.6404 79.2549C72.1963 79.2123 76.7381 79.8652 81.1805 80.8161C85.41 81.7103 89.5118 82.8741 93.8832 82.2922C98.4533 81.6819 102.725 79.7233 106.813 77.6653C107.054 77.5375 106.841 77.1685 106.6 77.2963C102.711 79.2549 98.6662 81.1142 94.3374 81.7954C92.1233 82.1361 89.895 82.1077 87.6809 81.7528C85.4384 81.398 83.2527 80.8019 81.0244 80.3336C72.906 78.6304 64.2625 77.9066 56.286 80.6742C52.3546 82.0367 48.7212 84.2082 45.8542 87.2313C45.6697 87.4442 45.9677 87.7423 46.1523 87.5436Z" fill="#E8E8E8"/>
<path d="M111.937 91.7874C114.25 92.5964 116.62 91.8442 118.735 90.8365C121.105 89.7011 123.334 88.296 125.761 87.2883C128.188 86.2806 130.799 85.5993 133.439 85.9257C135.852 86.2238 138.08 87.3024 140.195 88.4521C142.196 89.5449 144.169 90.7371 146.298 91.5745C148.668 92.4971 151.223 92.9371 153.763 92.8803C158.972 92.7667 163.4 90.1694 168.155 88.4095C172.597 86.7631 178.516 86.0251 182.078 89.8856C182.263 90.0843 182.561 89.7862 182.376 89.5875C179.58 86.5644 175.124 86.2238 171.292 87.0328C166.296 88.0831 161.981 91.1345 156.957 92.1139C154.274 92.639 151.464 92.568 148.81 91.9294C146.34 91.3332 144.126 90.1694 141.912 88.9346C139.911 87.8134 137.881 86.6496 135.681 85.9825C133.396 85.287 131.012 85.2729 128.698 85.8406C125.874 86.536 123.277 87.9127 120.736 89.3037C118.111 90.723 115.073 92.4545 112.022 91.39C111.795 91.2907 111.681 91.7023 111.937 91.7874Z" fill="#E8E8E8"/>
<path d="M149.307 98.6281C155.183 98.9829 160.022 94.9947 165.572 93.7883C167.048 93.4619 168.609 93.3199 170.114 93.5754C171.462 93.8025 172.683 94.356 173.846 95.0657C175.848 96.2863 177.792 97.8617 180.233 98.032C183.2 98.2307 185.825 96.3856 188.039 94.6541C188.252 94.4838 187.954 94.1857 187.741 94.356C185.584 96.0308 183.001 97.8617 180.105 97.592C177.593 97.3649 175.606 95.5482 173.492 94.3702C168.623 91.6452 163.415 93.7883 158.745 95.8463C155.75 97.152 152.642 98.4152 149.321 98.2165C149.037 98.1881 149.037 98.6139 149.307 98.6281Z" fill="#E8E8E8"/>
<path d="M15.3394 125.765C17.3974 123.807 20.4489 123.04 23.1881 123.793C26.0551 124.573 27.9002 127.043 30.1994 128.746C34.7838 132.138 41.0287 131.599 46.0672 129.598C52.014 127.241 56.9674 122.984 62.9 120.585C65.7954 119.407 68.932 118.655 72.0829 118.868C75.1486 119.081 77.7601 120.4 80.1871 122.189C82.5999 123.963 84.8707 126.063 87.6951 127.185C90.7182 128.377 94.1245 128.121 96.9631 126.546C97.2044 126.418 96.9915 126.049 96.7502 126.177C93.8549 127.781 90.3918 127.923 87.3687 126.589C84.8424 125.467 82.7702 123.594 80.5703 121.948C78.3136 120.259 75.915 118.939 73.0764 118.541C70.1526 118.144 67.1721 118.641 64.4045 119.563C58.3441 121.593 53.3482 125.78 47.6 128.462C42.2918 130.946 35.465 132.11 30.4265 128.377C27.9144 126.518 25.9416 123.864 22.7056 123.239C19.9663 122.714 17.0568 123.537 15.0414 125.467C14.8427 125.652 15.1407 125.964 15.3394 125.765Z" fill="#E8E8E8"/>
<path d="M69.8686 133.685C72.2105 132.167 74.9923 131.443 77.7883 131.67C80.343 131.883 82.7558 132.834 85.0977 133.785C87.3686 134.707 89.6678 135.672 92.109 136.07C94.6637 136.481 97.2469 136.169 99.7022 135.417C102.64 134.508 105.365 133.061 108.048 131.599C108.289 131.471 108.076 131.102 107.835 131.23C102.924 133.884 97.5307 136.68 91.7684 135.573C86.957 134.65 82.7275 131.67 77.7741 131.244C74.9071 131.003 72.0402 131.755 69.6415 133.316C69.4286 133.472 69.6415 133.841 69.8686 133.685Z" fill="#E8E8E8"/>
<path d="M123.447 143.308C126.541 140.413 130.344 138.326 134.446 137.262C136.533 136.722 138.676 136.453 140.833 136.467C143.232 136.495 145.616 136.878 148 137.106C152.627 137.546 157.07 136.765 161.399 135.076C165.529 133.472 169.418 130.69 173.86 130.009C179.055 129.214 183.071 132.663 186.378 136.197C186.563 136.396 186.861 136.098 186.676 135.899C183.951 132.99 180.744 129.981 176.599 129.512C172.057 129.001 167.927 131.67 163.982 133.501C159.44 135.615 154.543 137.063 149.505 136.779C146.993 136.637 144.509 136.183 141.983 136.055C139.839 135.942 137.682 136.098 135.582 136.538C130.94 137.489 126.612 139.731 123.149 142.981C122.95 143.194 123.248 143.492 123.447 143.308Z" fill="#E8E8E8"/>
<path d="M40.3474 53.623C44.3214 56.7028 49.5019 55.3403 53.8307 53.921C59.1957 52.1469 64.6316 51.0257 70.3088 50.9121C70.5784 50.9121 70.5784 50.4863 70.3088 50.4863C65.0857 50.5857 59.9337 51.4798 54.9662 53.0978C50.467 54.5597 44.875 56.6177 40.6455 53.3249C40.4326 53.1546 40.1345 53.4527 40.3474 53.623Z" fill="#161616"/>
<path d="M78.6109 27.8199C83.4082 27.4651 88.0351 26.1309 92.6762 25.0097C97.5018 23.8317 102.342 23.0511 107.323 23.5904C112.348 24.1297 117.216 25.6484 122.141 26.7271C126.881 27.7773 131.693 28.2599 136.547 28.0186C142.011 27.7489 147.404 26.5993 152.5 24.6407C152.755 24.5413 152.641 24.1297 152.386 24.2291C143.118 27.7915 132.998 28.5437 123.29 26.5283C118.451 25.5206 113.71 24.0446 108.814 23.3349C104.087 22.6537 99.4746 23.0369 94.8193 24.0588C89.426 25.2368 84.132 26.9683 78.6109 27.3799C78.3413 27.4225 78.3413 27.8483 78.6109 27.8199Z" fill="#161616"/>
<path d="M155.424 63.3874C159.568 61.8546 163.868 64.0403 168.013 64.4377C170.241 64.6506 172.455 64.4377 174.627 63.9268C176.756 63.4158 178.828 62.6636 180.999 62.3372C183.327 61.9823 185.811 62.1243 187.826 63.4442C188.053 63.6003 188.266 63.2313 188.039 63.0752C184.462 60.7476 180.091 61.9965 176.316 63.0468C173.945 63.7139 171.575 64.1964 169.106 64.0971C166.75 64.0119 164.493 63.3591 162.194 62.8765C159.909 62.4081 157.553 62.1527 155.324 62.9759C155.055 63.061 155.168 63.4726 155.424 63.3874Z" fill="#161616"/>
<path d="M56.144 146.303C57.2936 144.94 59.0678 144.202 60.8561 144.43C61.878 144.557 62.8147 145.026 63.7514 145.437C64.532 145.778 65.3269 146.062 66.1358 146.289C69.6131 147.254 73.3459 147.112 76.738 145.92C76.9935 145.835 76.8799 145.423 76.6244 145.508C72.8207 146.828 68.6196 146.828 64.8301 145.409C63.1837 144.799 61.6509 143.819 59.82 143.961C58.2729 144.075 56.8395 144.813 55.8318 145.991C55.6614 146.218 55.9737 146.516 56.144 146.303Z" fill="#161616"/>
<path d="M80.3007 145.139C82.8838 144.386 85.5379 144.017 88.2345 144.032C88.5042 144.032 88.5042 143.606 88.2345 143.606C85.5095 143.592 82.8128 143.975 80.1871 144.727C79.9317 144.812 80.031 145.224 80.3007 145.139Z" fill="#161616"/>
<path d="M83.6785 34.8168C86.1907 36.7471 88.5893 38.8192 90.8885 41.0192C91.0872 41.2037 91.3853 40.9056 91.1866 40.7211C88.8731 38.507 86.432 36.4206 83.8914 34.462C83.6785 34.2775 83.4656 34.6465 83.6785 34.8168Z" fill="#161616"/>
<path d="M59.0675 42.2966C59.3088 40.9624 59.5643 39.6283 59.8055 38.2799C59.8623 38.0103 59.4507 37.8967 59.394 38.1664C59.1527 39.5005 58.8972 40.8347 58.6559 42.183C58.6133 42.4527 59.0249 42.5662 59.0675 42.2966Z" fill="#161616"/>
<circle cx="140.904" cy="49.9323" r="0.823192" fill="#282828"/>
<circle cx="76.0852" cy="156.763" r="1.67477" fill="#282828"/>
<circle cx="153.919" cy="31.4673" r="1.47607" fill="#282828"/>
<circle cx="155.807" cy="28.7848" r="0.90835" fill="#282828"/>
<circle cx="69.1593" cy="154.194" r="0.993507" fill="#7C7C7C"/>
<circle cx="148.469" cy="25.5208" r="2.35603" fill="#7C7C7C"/>
<circle cx="109.68" cy="63.0471" r="0.510947" fill="#7C7C7C"/>
<path d="M104.443 33.1421C104.145 33.8375 103.861 34.5472 103.563 35.2426C103.463 35.4981 103.875 35.6116 103.974 35.3562C104.272 34.6607 104.556 33.9511 104.854 33.2556C104.954 33.0001 104.542 32.8866 104.443 33.1421Z" fill="#969696"/>
<path d="M104.372 33.483C104.897 34.0365 105.308 34.661 105.578 35.3706C105.677 35.6261 106.089 35.5126 105.99 35.2571C105.677 34.4765 105.237 33.7952 104.67 33.1849C104.485 32.9862 104.173 33.2843 104.372 33.483Z" fill="#969696"/>
<path d="M103.676 35.6115C104.088 36.3779 104.556 37.1018 105.081 37.783C105.252 37.9959 105.621 37.783 105.45 37.5701C104.925 36.8747 104.457 36.1508 104.045 35.3986C103.903 35.1573 103.548 35.3702 103.676 35.6115Z" fill="#969696"/>
<path d="M105.607 35.3991C105.436 36.1939 105.28 36.9887 105.11 37.7835C105.053 38.0532 105.465 38.1668 105.521 37.8971C105.692 37.1023 105.848 36.3075 106.018 35.5127C106.075 35.2572 105.663 35.1437 105.607 35.3991Z" fill="#969696"/>
<path d="M144.424 93.9021C144.084 94.5266 143.857 95.1937 143.757 95.9033C143.715 96.173 144.126 96.2865 144.169 96.0169C144.268 95.3498 144.467 94.7253 144.793 94.1292C144.921 93.8737 144.552 93.6608 144.424 93.9021Z" fill="#969696"/>
<path d="M144.396 94.03C144.68 94.7822 145.007 95.5061 145.376 96.2015C145.503 96.4428 145.872 96.2299 145.745 95.9886C145.39 95.3216 145.077 94.6261 144.808 93.9165C144.708 93.661 144.297 93.7745 144.396 94.03Z" fill="#969696"/>
<path d="M143.672 96.2018C144.041 96.727 144.396 97.2521 144.765 97.7772C144.921 98.0043 145.29 97.7914 145.134 97.5643C144.765 97.0392 144.41 96.5141 144.041 95.9889C143.885 95.7618 143.516 95.9747 143.672 96.2018Z" fill="#969696"/>
<path d="M145.219 96.1308C144.921 96.5424 144.779 97.0107 144.779 97.5075C144.779 97.7772 145.205 97.7772 145.205 97.5075C145.205 97.0817 145.332 96.6843 145.588 96.3437C145.744 96.1166 145.375 95.9037 145.219 96.1308Z" fill="#969696"/>
<path d="M168.553 68.1132C168.113 68.9506 167.843 69.8306 167.715 70.7673C167.673 71.037 168.098 71.037 168.141 70.7673C168.254 69.9015 168.51 69.0925 168.907 68.3261C169.049 68.0848 168.68 67.8719 168.553 68.1132Z" fill="#969696"/>
<path d="M168.496 68.6098C168.936 69.4614 169.361 70.313 169.801 71.1645C169.929 71.4058 170.298 71.1929 170.17 70.9516C169.731 70.1001 169.305 69.2485 168.865 68.3969C168.737 68.1556 168.368 68.3685 168.496 68.6098Z" fill="#969696"/>
<path d="M167.743 70.8246C168.098 71.6761 168.524 72.4709 169.035 73.2232C169.191 73.4503 169.56 73.2374 169.404 73.0103C168.907 72.2864 168.481 71.52 168.155 70.711C168.055 70.4697 167.644 70.5833 167.743 70.8246Z" fill="#969696"/>
<path d="M169.674 71.0092C169.418 71.804 169.205 72.613 169.063 73.4504C169.021 73.7201 169.432 73.8336 169.475 73.564C169.617 72.7408 169.816 71.9318 170.085 71.1228C170.17 70.8673 169.759 70.7538 169.674 71.0092Z" fill="#969696"/>
<path d="M166.906 137.02C166.736 137.588 166.579 138.142 166.409 138.709C166.338 138.979 166.736 139.078 166.821 138.823C166.991 138.255 167.147 137.702 167.317 137.134C167.403 136.864 166.991 136.751 166.906 137.02Z" fill="#969696"/>
<path d="M166.878 137.333C167.133 137.901 167.403 138.468 167.658 139.022C167.772 139.277 168.141 139.05 168.028 138.809C167.772 138.241 167.502 137.673 167.247 137.12C167.133 136.864 166.764 137.077 166.878 137.333Z" fill="#969696"/>
<path d="M166.523 138.979C166.65 139.646 166.963 140.242 167.403 140.753C167.587 140.966 167.885 140.654 167.701 140.455C167.303 140.001 167.048 139.462 166.934 138.88C166.878 138.596 166.466 138.709 166.523 138.979Z" fill="#969696"/>
<path d="M167.644 138.922C167.459 139.518 167.374 140.129 167.388 140.739C167.403 141.009 167.828 141.009 167.814 140.739C167.8 140.157 167.871 139.589 168.056 139.036C168.141 138.78 167.729 138.667 167.644 138.922Z" fill="#969696"/>
<path d="M127.336 75.2242C127.62 74.6849 128.159 74.3159 128.784 74.3442C129.295 74.3584 129.678 74.7133 130.132 74.8836C130.927 75.1674 131.168 74.6565 131.764 74.2733C132.573 73.7339 133.354 74.9403 134.22 74.9261C134.716 74.912 135.128 74.6707 135.142 74.1455C135.029 74.2023 134.929 74.2733 134.816 74.33C135.256 74.5571 135.696 74.7842 136.122 75.0255C136.363 75.1532 136.576 74.7842 136.334 74.6565C135.894 74.4294 135.454 74.2023 135.029 73.961C134.887 73.8901 134.716 73.9752 134.702 74.1455C134.66 75.1532 132.701 73.7197 132.332 73.6772C131.495 73.5636 131.168 74.5997 130.444 74.4862C129.678 74.3584 129.195 73.8049 128.372 73.9468C127.748 74.0604 127.237 74.4436 126.953 75.0113C126.854 75.2526 127.208 75.4655 127.336 75.2242Z" fill="#727272"/>
<path d="M132.772 72.3427C133.41 71.6331 134.418 72.5273 135.142 72.6124C135.979 72.7118 136.632 71.8176 137.441 72.2718C138.108 72.655 139.329 73.5633 139.811 72.3995C139.911 72.144 139.499 72.0305 139.4 72.286C139.059 73.1092 137.839 71.9595 137.427 71.7892C136.873 71.5479 136.504 71.7466 136.008 71.9879C135.412 72.2718 134.986 72.1724 134.418 71.917C134.163 71.8034 133.907 71.7041 133.623 71.6615C133.183 71.6047 132.786 71.6899 132.474 72.0305C132.289 72.2434 132.587 72.5414 132.772 72.3427Z" fill="#727272"/>
<path d="M121.248 38.8623C121.446 38.4933 121.673 38.3939 121.929 38.5642C122.042 38.6068 122.156 38.6636 122.269 38.7345C122.397 38.7913 122.525 38.8765 122.653 38.919C122.88 38.99 123.107 39.0184 123.334 38.9616C123.944 38.7913 124.256 38.0249 124.909 38.0391C125.52 38.0533 125.96 38.6352 126.598 38.3371C126.868 38.2094 127.052 37.9823 127.308 37.8404C127.876 37.5281 128.571 37.6417 129.054 38.0391C129.267 38.2094 129.565 37.9113 129.352 37.741C128.713 37.2159 127.833 37.0598 127.095 37.4714C126.769 37.6559 126.499 38.0533 126.073 37.9965C125.832 37.9681 125.619 37.7978 125.392 37.7126C125.051 37.5849 124.739 37.5423 124.398 37.6985C123.973 37.8972 123.689 38.4507 123.22 38.55C122.624 38.6778 122.227 38.0675 121.673 38.0533C121.148 38.0391 120.538 38.55 120.893 39.0752C121.035 39.3023 121.404 39.0894 121.248 38.8623Z" fill="#757575"/>
<path d="M125.96 36.3497C126.13 35.4272 127.734 36.3214 128.301 36.222C128.67 36.1652 128.94 35.9098 129.281 35.782C129.82 35.5691 130.345 35.6543 130.842 35.9523C131.083 36.0943 131.296 35.7252 131.055 35.5833C130.629 35.3278 130.175 35.2001 129.692 35.2427C129.479 35.2569 129.281 35.3137 129.096 35.3846C128.528 35.6259 128.301 35.8956 127.592 35.7252C126.91 35.5549 125.747 35.2143 125.562 36.2362C125.491 36.5059 125.903 36.6194 125.96 36.3497Z" fill="#757575"/>
<path d="M57.8331 116.37C58.0602 116.015 58.415 115.788 58.855 115.788C59.224 115.788 59.4511 116.015 59.7775 116.114C60.1039 116.228 60.3736 116.157 60.6575 115.972C61.211 115.603 61.4807 115.149 62.2329 115.177C62.9141 115.192 63.567 115.518 64.1631 115.816C64.4044 115.944 64.6173 115.575 64.376 115.447C63.2548 114.879 61.8923 114.34 60.8136 115.262C60.5723 115.461 60.5439 115.518 60.1749 115.589C59.7633 115.674 59.8059 115.617 59.4936 115.49C59.224 115.376 58.9685 115.333 58.6705 115.362C58.1453 115.419 57.7337 115.717 57.4641 116.142C57.3221 116.384 57.6911 116.597 57.8331 116.37Z" fill="#757575"/>
<path d="M62.5591 117.193C63.2262 116.611 64.4894 117.832 65.3126 117.718C65.8093 117.647 66.0364 117.278 66.3629 116.937C66.9873 116.27 67.9241 116.171 68.6905 116.668C68.9176 116.81 69.1305 116.455 68.9034 116.299C68.3499 115.944 67.697 115.83 67.0583 116.015C66.7744 116.1 66.519 116.228 66.2919 116.412C65.9513 116.696 65.7384 117.207 65.2558 117.292C64.2197 117.477 63.2404 116.029 62.2611 116.895C62.0624 117.079 62.3604 117.377 62.5591 117.193Z" fill="#757575"/>
<path d="M43.1998 26.1592C43.3134 25.6908 43.583 25.3218 44.0372 25.1231C44.4346 24.9528 44.761 25.0664 45.1726 25.0522C45.6268 25.0238 45.9674 24.7967 46.2371 24.4561C46.6487 23.9451 46.9184 23.42 47.5003 23.0793C48.1674 22.6961 48.9338 22.6252 49.6718 22.8523C49.9415 22.9374 50.0408 22.5258 49.7854 22.4407C48.4228 22.0291 47.0745 22.5542 46.2513 23.7038C45.9249 24.158 45.6836 24.6122 45.0591 24.6264C44.6759 24.6406 44.3494 24.5554 43.9804 24.6831C43.3559 24.896 42.9301 25.4212 42.7882 26.0457C42.7173 26.3153 43.1289 26.4289 43.1998 26.1592Z" fill="#757575"/>
<path d="M45.2012 27.7915C44.5909 26.1735 47.5146 26.2587 48.3946 25.9464C49.4875 25.5632 50.4242 24.8819 51.3467 24.2007C51.5596 24.0446 51.3467 23.6755 51.1338 23.8317C50.5094 24.3 49.8707 24.7542 49.1894 25.1232C48.3378 25.5774 47.5288 25.7193 46.6063 25.8613C45.627 26.0174 44.3496 26.6986 44.8038 27.8909C44.8889 28.1463 45.3005 28.047 45.2012 27.7915Z" fill="#757575"/>
</g>
</svg>
