<svg width="146" height="111" viewBox="0 0 146 111" fill="none" xmlns="http://www.w3.org/2000/svg">
<path d="M125.83 91.4703C125.596 91.3345 125.349 91.1987 125.114 91.0629C124.905 90.9518 125.09 90.6309 125.3 90.742C125.534 90.8778 125.781 91.0135 126.016 91.1493C126.225 91.2728 126.04 91.5937 125.83 91.4703V91.4703Z" fill="#161616"/>
<path d="M129.139 93.0628C126.88 92.0999 124.621 91.137 122.361 90.1741C120.102 89.2112 117.991 88.2607 115.461 88.5199C113.152 88.7545 110.881 89.631 108.721 90.4457C106.462 91.2975 104.252 92.2604 102.104 93.3467C101.684 93.5565 101.302 92.9146 101.734 92.7048C105.141 91.0012 108.708 89.4952 112.362 88.4212C114.128 87.9027 115.979 87.5571 117.819 87.8163C119.658 88.0755 121.386 88.952 123.077 89.6803C125.225 90.5938 127.373 91.5073 129.509 92.4332C129.953 92.606 129.571 93.2479 129.139 93.0628V93.0628Z" fill="#161616"/>
<path d="M108.202 98.4697C97.87 98.4697 87.5499 98.4697 77.2175 98.4697C74.2671 98.4697 71.3168 98.4697 68.3664 98.4697C67.885 98.4697 67.885 97.729 68.3664 97.729C78.6988 97.729 89.0189 97.729 99.3513 97.729C102.302 97.729 105.252 97.729 108.202 97.729C108.684 97.729 108.684 98.4697 108.202 98.4697V98.4697Z" fill="#161616"/>
<path d="M75.0327 100.889C62.0832 100.889 49.1338 100.889 36.1843 100.889C32.4933 100.889 28.8146 100.889 25.1236 100.889C24.6421 100.889 24.6421 100.149 25.1236 100.149C38.073 100.149 51.0225 100.149 63.972 100.149C67.663 100.149 71.3417 100.149 75.0327 100.149C75.5018 100.149 75.5018 100.889 75.0327 100.889V100.889Z" fill="#161616"/>
<path d="M56.738 98.1857C42.2702 98.1857 27.8147 98.1857 13.3468 98.1857C9.23609 98.1857 5.12534 98.1857 1.0146 98.1857C0.533157 98.1857 0.533157 97.4451 1.0146 97.4451C15.4824 97.4451 29.938 97.4451 44.4058 97.4451C48.5166 97.4451 52.6273 97.4451 56.738 97.4451C57.2195 97.4451 57.2195 98.1857 56.738 98.1857V98.1857Z" fill="#161616"/>
<path d="M100.536 94.2849C98.339 95.0626 96.154 95.8897 93.9937 96.7661C93.5493 96.9513 93.3642 96.2353 93.7962 96.0501C95.9565 95.1737 98.1415 94.3466 100.339 93.5689C100.783 93.4084 100.981 94.1244 100.536 94.2849V94.2849Z" fill="#161616"/>
<path d="M127.941 100.272C122.263 100.272 116.572 100.272 110.894 100.272C110.412 100.272 110.412 99.5313 110.894 99.5313C116.572 99.5313 122.263 99.5313 127.941 99.5313C128.41 99.5313 128.41 100.272 127.941 100.272V100.272Z" fill="#161616"/>
<path d="M77.2546 108.284C70.0207 108.284 62.7868 108.284 55.5529 108.284C55.0714 108.284 55.0714 107.543 55.5529 107.543C62.7868 107.543 70.0207 107.543 77.2546 107.543C77.7361 107.543 77.7361 108.284 77.2546 108.284V108.284Z" fill="#161616"/>
<path d="M138.397 100.321C140.36 99.0252 141.829 97.1488 142.878 95.0625C143.471 93.9021 143.927 92.6924 144.31 91.4579C144.483 90.9271 144.767 90.2852 144.804 89.7297C144.816 89.4828 144.903 89.5198 144.643 89.5075C144.508 89.5075 144.31 89.6062 144.187 89.6433C143.841 89.742 143.508 89.8531 143.162 89.9519C142.927 90.026 142.841 89.668 143.063 89.5939C143.483 89.4704 143.903 89.3347 144.322 89.2112C144.508 89.1495 144.792 89.0137 145.001 89.0878C145.347 89.1989 145.236 89.5569 145.174 89.8284C144.792 91.3345 144.298 92.8158 143.681 94.2355C142.569 96.7784 140.915 99.0869 138.582 100.642C138.385 100.778 138.2 100.457 138.397 100.321V100.321Z" fill="#E8E8E8"/>
<path d="M143.372 89.5322C145.211 85.0387 145.285 80.1379 145.347 75.3482C145.458 75.3976 145.557 75.4347 145.668 75.484C145.322 75.8297 144.964 76.1877 144.619 76.5333C144.446 76.7062 144.187 76.4346 144.359 76.2741C144.705 75.9284 145.063 75.5705 145.409 75.2248C145.52 75.1137 145.73 75.2001 145.73 75.3606C145.68 80.175 145.594 85.1128 143.742 89.6433C143.644 89.8531 143.286 89.7544 143.372 89.5322V89.5322Z" fill="#E8E8E8"/>
<path d="M144.285 76.1754C144.261 73.1262 143.927 70.0895 143.261 67.1144C143.347 67.1515 143.446 67.1885 143.532 67.2255C140.002 69.7315 138.619 74.1879 137.335 78.1135C135.829 82.7303 134.632 87.483 134.113 92.3221C133.965 93.6676 133.879 95.0132 133.842 96.3711C133.805 97.7784 133.731 99.2474 134.113 100.618C134.175 100.852 133.817 100.951 133.755 100.716C133.435 99.5313 133.447 98.2845 133.459 97.0747C133.472 95.8403 133.533 94.6058 133.644 93.3714C133.867 90.8901 134.262 88.4212 134.792 85.9893C135.348 83.4463 136.039 80.9404 136.842 78.4714C137.521 76.3605 138.224 74.2249 139.175 72.2127C140.162 70.1512 141.471 68.2501 143.347 66.9169C143.446 66.8552 143.594 66.9169 143.619 67.028C144.285 70.0401 144.631 73.1015 144.656 76.1877C144.656 76.4222 144.285 76.4222 144.285 76.1754V76.1754Z" fill="#E8E8E8"/>
<path d="M135.829 82.323C134.015 76.9654 130.089 72.6818 127.843 67.5341C127.954 67.4971 128.077 67.4724 128.188 67.4354C127.966 69.8426 127.781 72.2621 127.608 74.6817C127.522 75.8914 127.46 77.1012 127.386 78.311C127.361 78.8788 127.324 79.4343 127.299 80.0022C127.275 80.4342 127.25 80.5453 127.583 80.8293C127.818 81.0268 128.139 81.1749 128.41 81.3477C128.608 81.4712 128.423 81.7921 128.225 81.6687C127.818 81.4095 127.398 81.1502 126.991 80.891C126.941 80.854 126.892 80.7922 126.904 80.7305C127.114 76.2988 127.41 71.8548 127.818 67.4354C127.83 67.2749 128.077 67.1515 128.164 67.3366C130.435 72.5214 134.36 76.8296 136.187 82.2119C136.262 82.4587 135.904 82.5452 135.829 82.323V82.323Z" fill="#E8E8E8"/>
<path d="M128.423 81.6563C126.694 81.5576 127.83 85.2856 128.028 86.1991C128.349 87.7052 128.731 89.1989 129.176 90.6679C130.077 93.6429 131.25 96.5192 132.657 99.2844C132.768 99.4942 132.447 99.6794 132.336 99.4695C130.706 96.2723 129.398 92.9269 128.435 89.4704C127.954 87.7298 127.559 85.9646 127.262 84.187C127.102 83.1994 126.818 81.1872 128.41 81.286C128.657 81.2983 128.657 81.6687 128.423 81.6563V81.6563Z" fill="#E8E8E8"/>
<path d="M128.324 67.9662C129.25 75.4964 132.533 82.4217 134.509 89.6803C134.57 89.9149 134.212 90.0136 134.151 89.7791C132.163 82.4834 128.892 75.5211 127.954 67.9662C127.929 67.7193 128.299 67.7317 128.324 67.9662V67.9662Z" fill="#E8E8E8"/>
<path d="M143.668 67.1762C140.792 75.768 138.471 84.545 136.731 93.4331C136.237 95.9514 135.792 98.4944 135.385 101.025C135.348 101.26 134.99 101.161 135.027 100.926C136.434 91.9764 138.422 83.113 140.989 74.4224C141.718 71.9535 142.495 69.4969 143.31 67.0651C143.384 66.8552 143.742 66.954 143.668 67.1762V67.1762Z" fill="#E8E8E8"/>
<path d="M145.47 78.4838C142.224 80.4713 139.644 83.3846 138.051 86.8411C137.953 87.0633 137.632 86.8658 137.73 86.6559C139.347 83.15 141.989 80.1873 145.285 78.1628C145.483 78.0394 145.68 78.3603 145.47 78.4838V78.4838Z" fill="#E8E8E8"/>
<path d="M144.545 91.7048C141.323 92.8405 137.805 94.1491 136.052 97.2969C135.94 97.5068 135.62 97.3216 135.731 97.1118C137.545 93.8775 141.138 92.5196 144.446 91.3468C144.668 91.2604 144.767 91.6184 144.545 91.7048V91.7048Z" fill="#E8E8E8"/>
<path d="M140.064 71.3486C140.36 73.2373 140.533 75.126 140.557 77.0394C140.557 77.274 140.187 77.274 140.187 77.0394C140.162 75.1631 140.002 73.299 139.706 71.4473C139.669 71.2128 140.027 71.114 140.064 71.3486V71.3486Z" fill="#E8E8E8"/>
<path d="M133.57 77.0024C133.249 79.2245 132.941 81.4465 132.62 83.6809C132.583 83.9154 132.225 83.8166 132.262 83.5821C132.583 81.3601 132.891 79.138 133.212 76.9037C133.249 76.6568 133.607 76.7679 133.57 77.0024V77.0024Z" fill="#E8E8E8"/>
<path d="M130.373 78.4097C129.188 77.3481 128.176 76.126 127.373 74.7434C127.25 74.5335 127.571 74.3483 127.694 74.5582C128.484 75.9038 129.472 77.1135 130.632 78.1505C130.817 78.3109 130.546 78.5702 130.373 78.4097V78.4097Z" fill="#E8E8E8"/>
<path d="M19.3707 97.2105C20.5064 93.8651 21.1483 90.3963 21.2964 86.8657C21.3952 86.9151 21.4816 86.9768 21.5803 87.0262C20.9631 87.3842 20.3582 87.7545 19.741 88.1125C19.6052 88.1866 19.42 88.0631 19.4694 87.9027C20.0249 86.3349 20.1237 84.656 19.704 83.0389C19.2719 81.4094 18.3214 79.9281 17.519 78.4591C15.8525 75.3853 14.1736 72.3114 12.5071 69.2376C12.6182 69.2253 12.7293 69.213 12.8404 69.1883C12.4453 71.6202 12.0503 74.0644 11.6553 76.4963C11.4578 77.6937 11.2603 78.8911 11.0751 80.0885C10.9763 80.6811 10.7048 81.4341 11.0628 81.9773C11.359 82.4217 11.9022 82.6686 12.3836 82.8784C12.5441 82.9525 12.47 83.1623 12.3342 83.2117C11.8034 83.4339 11.1615 83.7178 10.9023 84.261C10.6183 84.8782 10.964 85.767 11.1245 86.409C11.4331 87.6681 11.8034 88.9149 12.2355 90.1494C13.112 92.6306 14.2353 95.0008 15.5809 97.2598C15.7043 97.4697 15.3834 97.6549 15.2599 97.445C13.7168 94.8403 12.4577 92.0751 11.5318 89.1865C11.3096 88.4829 11.0998 87.7669 10.9146 87.0509C10.7418 86.3719 10.5072 85.6436 10.4455 84.94C10.3468 83.7919 11.3343 83.2487 12.2478 82.8661C12.2355 82.9772 12.2231 83.0883 12.1985 83.1994C11.4701 82.8784 10.6183 82.4217 10.5319 81.5329C10.4826 80.9527 10.6677 80.3107 10.7541 79.7552C10.8652 79.0392 10.9887 78.3233 11.0998 77.5949C11.5565 74.7557 12.0256 71.9288 12.4824 69.0895C12.5071 68.929 12.754 68.9167 12.8157 69.0401C14.6056 72.3238 16.3956 75.6075 18.1856 78.9035C18.9756 80.3601 19.8521 81.8044 20.1731 83.4586C20.4693 84.977 20.3335 86.5324 19.8151 87.9891C19.7286 87.915 19.6299 87.8533 19.5435 87.7792C20.1607 87.4212 20.7656 87.0509 21.3828 86.6929C21.5063 86.6188 21.6667 86.7052 21.6667 86.8534C21.531 90.4086 20.8767 93.9268 19.7286 97.2969C19.6546 97.5314 19.2966 97.4327 19.3707 97.2105V97.2105Z" fill="#E8E8E8"/>
<path d="M10.89 77.4839C8.32228 74.7928 5.76695 72.077 3.24866 69.3365C3.34741 69.2747 3.45851 69.213 3.55727 69.1513C3.9523 71.1017 4.12512 73.1016 4.02637 75.089C3.97699 76.1136 3.82885 77.1135 3.70541 78.1258C3.64368 78.5825 3.59431 79.0516 3.58196 79.5084C3.56962 79.7553 3.53258 80.138 3.80416 80.2984C4.02636 80.4219 4.58187 80.3972 4.85345 80.4219C4.98924 80.4342 5.12503 80.6317 4.98924 80.7428C3.54493 81.8909 4.79173 83.9895 5.39661 85.2733C6.05088 86.6682 6.75452 88.0262 7.51988 89.3594C9.0753 92.0752 10.8653 94.6552 12.8527 97.0747C13.0009 97.2599 12.7416 97.5191 12.5935 97.334C10.3962 94.6675 8.44573 91.8036 6.76686 88.7915C5.91509 87.2608 5.12503 85.6807 4.43374 84.0759C3.93995 82.9155 3.56962 81.4095 4.71766 80.496C4.76704 80.6071 4.80407 80.7058 4.85345 80.8169C4.16216 80.7428 3.29804 80.854 3.21162 80.0022C3.11287 78.8665 3.42148 77.6567 3.54493 76.5333C3.81651 74.1138 3.69306 71.6696 3.19928 69.2747C3.16224 69.1019 3.3721 68.9538 3.50789 69.0896C6.03853 71.8301 8.58152 74.5459 11.1492 77.237C11.322 77.3975 11.0628 77.6567 10.89 77.4839V77.4839Z" fill="#E8E8E8"/>
<path d="M4.98926 71.4721C6.80391 75.1878 7.12487 79.459 8.39636 83.3599C9.74192 87.5077 11.643 91.4456 13.6798 95.2848C13.7909 95.4946 13.47 95.6798 13.3589 95.4699C11.3838 91.7295 9.53207 87.9027 8.18651 83.8907C7.5199 81.8909 7.02612 79.8664 6.56937 77.8048C6.11262 75.7063 5.61883 73.5953 4.6683 71.6572C4.56954 71.4474 4.87816 71.2622 4.98926 71.4721V71.4721Z" fill="#E8E8E8"/>
<path d="M13.2599 71.4473C13.6056 79.4219 16.7781 86.9151 17.4571 94.8403C17.4818 95.0749 17.1114 95.0749 17.0867 94.8403C16.4078 86.9151 13.2352 79.4219 12.8896 71.4473C12.8896 71.2128 13.2599 71.2128 13.2599 71.4473V71.4473Z" fill="#E8E8E8"/>
<path d="M19.4692 81.5205C18.6915 83.6932 17.7286 85.7794 16.5806 87.7792C16.4571 87.9891 16.1362 87.8039 16.2596 87.5941C17.3953 85.6189 18.3459 83.5574 19.1112 81.4218C19.1853 81.1996 19.5433 81.2983 19.4692 81.5205V81.5205Z" fill="#E8E8E8"/>
<path d="M15.7414 74.6323C15.297 76.3111 14.8649 77.99 14.4205 79.6689C14.3588 79.9034 14.0008 79.8047 14.0625 79.5701C14.507 77.8913 14.939 76.2124 15.3834 74.5335C15.4451 74.299 15.8031 74.3977 15.7414 74.6323V74.6323Z" fill="#E8E8E8"/>
<path d="M12.1243 73.6941C12.6798 74.7187 13.223 75.7556 13.7785 76.7802C13.8896 76.9901 13.5686 77.1752 13.4575 76.9654C12.902 75.9408 12.3589 74.9038 11.8033 73.8792C11.6922 73.6694 12.0132 73.4842 12.1243 73.6941V73.6941Z" fill="#E8E8E8"/>
<path d="M9.48261 75.4346C9.29744 78.1504 9.02586 80.8663 8.65552 83.5697C8.61849 83.8043 8.27284 83.7055 8.29753 83.471C8.65552 80.8045 8.9271 78.1258 9.11227 75.4346C9.12462 75.2001 9.49495 75.2001 9.48261 75.4346V75.4346Z" fill="#E8E8E8"/>
<path d="M6.71745 78.1628C6.594 77.4468 5.91505 76.8913 5.44596 76.3605C4.96452 75.8173 4.47074 75.2742 3.9893 74.731C3.82882 74.5582 4.08805 74.2866 4.24853 74.4718C4.84107 75.126 5.42127 75.7803 6.01381 76.4345C6.44587 76.916 6.952 77.3851 7.07544 78.0517C7.11248 78.2986 6.75448 78.3973 6.71745 78.1628V78.1628Z" fill="#E8E8E8"/>
<path d="M144.89 64.7196C141.607 64.5714 138.545 63.374 135.36 62.6951C131.83 61.942 128.324 62.3124 124.843 63.1271C121.436 63.9295 118.078 64.9665 114.695 65.8553C111.301 66.7564 107.906 67.6082 104.499 68.4229C90.784 71.7066 76.8963 74.3483 62.9346 76.3358C55.1082 77.4468 47.2447 78.348 39.3688 79.0393C39.1343 79.064 39.1343 78.6936 39.3688 78.6689C53.491 77.4221 67.5392 75.5087 81.4762 72.9287C88.4509 71.6325 95.4009 70.1882 102.301 68.5587C109.128 66.9539 115.893 65.1146 122.658 63.2876C126.324 62.3 130.126 61.4976 133.928 62.0408C137.632 62.5716 141.113 64.1641 144.878 64.3245C145.125 64.3492 145.125 64.7196 144.89 64.7196V64.7196Z" fill="#E8E8E8"/>
<path d="M85.5253 72.8176C74.4151 71.7437 63.4038 69.7932 52.6023 66.9663C47.1706 65.5467 41.8378 63.8184 36.4926 62.1025C33.9126 61.2754 31.2955 60.4977 28.6291 60.004C25.7528 59.4608 22.8518 59.3373 19.9262 59.5225C16.6795 59.7324 13.4329 60.1521 10.1986 60.5101C6.952 60.8681 3.69303 61.2137 0.44641 61.5717C0.211863 61.5964 0.211863 61.2261 0.44641 61.2014C6.24836 60.5718 12.0503 59.8682 17.8646 59.3127C20.7039 59.0411 23.5555 58.93 26.3824 59.288C29.0488 59.6089 31.6782 60.2632 34.2459 61.0286C39.6158 62.621 44.8992 64.4974 50.3062 65.9787C55.7008 67.4601 61.1447 68.7192 66.6381 69.7562C72.8844 70.9413 79.1925 71.8424 85.5253 72.4473C85.7598 72.472 85.7598 72.8423 85.5253 72.8176V72.8176Z" fill="#E8E8E8"/>
<path d="M83.1305 90.8407C73.6252 90.779 66.2555 83.8537 57.8982 80.3601C55.4663 79.3479 52.911 78.6072 50.2816 78.4097C50.047 78.3974 50.047 78.027 50.2816 78.0394C59.6881 78.743 66.8233 85.693 75.3411 88.9026C77.8347 89.8408 80.4517 90.4457 83.1305 90.4704C83.3774 90.4704 83.3774 90.8407 83.1305 90.8407V90.8407Z" fill="#E8E8E8"/>
<path d="M49.0962 77.8295C38.7391 75.5951 31.0114 67.7069 21.6419 63.3123C18.9384 62.0408 16.0745 61.0902 13.0994 60.6952C12.8649 60.6582 12.8649 60.2878 13.0994 60.3249C23.7034 61.7321 31.6904 69.6327 40.8624 74.373C43.5041 75.7432 46.2817 76.8543 49.195 77.4838C49.4295 77.5209 49.3308 77.8789 49.0962 77.8295V77.8295Z" fill="#E8E8E8"/>
<path d="M58.8239 25.7601C54.2441 23.6491 49.0717 27.7969 44.5783 25.1675C44.3684 25.0441 44.5536 24.7231 44.7634 24.8466C49.2075 27.4513 54.4169 23.3282 59.0091 25.4391C59.2313 25.5379 59.0461 25.8588 58.8239 25.7601V25.7601Z" fill="#E8E8E8"/>
<path d="M80.5008 2.73744C75.5013 1.6758 70.5141 3.24356 65.712 4.56443C60.9223 5.8853 56.0956 6.70005 51.1207 6.60129C48.3185 6.53957 45.5286 6.21861 42.7881 5.6631C42.5536 5.61372 42.6524 5.25573 42.8869 5.30511C47.9605 6.34205 53.207 6.52722 58.3423 5.81124C63.2678 5.11994 67.9094 3.30529 72.7855 2.42882C75.3778 1.95973 78.0196 1.83628 80.5996 2.39179C80.8218 2.42882 80.723 2.78681 80.5008 2.73744V2.73744Z" fill="#E8E8E8"/>
<path d="M138.163 17.267C133.669 14.7363 128.447 14.5265 123.658 16.3165C121.238 17.2176 118.93 18.3286 116.436 19.0199C114.054 19.6865 111.597 20.0816 109.128 20.2173C106.289 20.3655 103.437 20.1433 100.635 19.5878C100.4 19.5384 100.499 19.1804 100.734 19.2298C105.931 20.2791 111.338 20.0816 116.436 18.6372C118.967 17.9212 121.312 16.7855 123.769 15.8844C126.077 15.045 128.472 14.6129 130.929 14.761C133.533 14.9215 136.064 15.6622 138.335 16.946C138.558 17.0571 138.372 17.3781 138.163 17.267V17.267Z" fill="#E8E8E8"/>
<path d="M19.1362 15.798C21.3706 13.3661 22.1976 9.86023 21.5187 6.65064C21.173 5.0335 20.4571 3.47809 19.346 2.23128C18.6054 1.39185 17.7659 0.935102 16.6673 0.725244C15.5686 0.515386 14.4452 0.379596 13.3219 0.367251C9.40865 0.342562 5.60652 2.67569 4.58192 6.60126C4.06345 8.60109 4.44613 10.5762 5.40901 12.3662C6.3472 14.0821 7.61869 15.7363 9.32224 16.7362C12.5565 18.6249 16.9759 18.0817 19.63 15.44C19.8028 15.2672 20.062 15.5387 19.8892 15.6992C17.3833 18.1805 13.4206 18.8965 10.174 17.5633C8.35936 16.8226 6.96443 15.4276 5.8781 13.8228C4.68068 12.0576 3.81656 10.0701 3.98938 7.89745C4.31034 3.86077 7.60634 0.774622 11.5072 0.132704C12.6553 -0.0524645 13.828 -0.0277753 14.9761 0.108015C16.013 0.219116 17.1734 0.317873 18.1239 0.786967C19.7164 1.56468 20.8027 3.40402 21.4076 4.99647C22.8149 8.69984 22.0742 13.1315 19.3831 16.0572C19.2349 16.23 18.9757 15.9708 19.1362 15.798V15.798Z" fill="#E8E8E8"/>
<path d="M125.262 54.1279C119.695 53.3626 114.35 55.5969 109.14 57.2388C106.573 58.0535 103.956 58.7695 101.264 58.967C98.4252 59.1769 95.7094 58.6461 93.0306 57.7326C90.179 56.7573 87.4262 55.5476 84.4635 54.955C81.6983 54.3995 78.8714 54.2884 76.0568 54.4242C70.3289 54.7081 64.7245 55.9796 59.083 56.8931C53.0342 57.856 46.7878 58.4115 40.8007 56.7573C40.5661 56.6956 40.6649 56.3376 40.8995 56.3993C52.0219 59.4731 63.3419 55.0538 74.452 54.165C77.1802 53.9428 79.9454 53.9304 82.6735 54.2884C85.5868 54.6711 88.315 55.5969 91.0555 56.6215C93.8577 57.6708 96.697 58.6337 99.7337 58.6584C102.524 58.6707 105.252 58.0412 107.906 57.2388C113.572 55.5476 119.3 52.9429 125.361 53.7823C125.596 53.807 125.485 54.165 125.262 54.1279V54.1279Z" fill="#E8E8E8"/>
<path d="M82.1798 48.9555C79.9331 47.7705 77.5382 46.7212 74.9952 46.4126C72.4523 46.1039 70.0204 46.7459 67.6379 47.5606C65.2677 48.363 62.9346 49.1777 60.478 49.6715C58.0832 50.153 55.6513 50.4122 53.2071 50.4492C48.1952 50.5233 43.2697 49.6098 38.5664 47.8816C33.8384 46.141 29.3697 43.7708 24.7281 41.8327C19.457 39.623 13.7785 37.9565 8.01355 38.5737C7.779 38.5984 7.779 38.2281 8.01355 38.2034C18.4324 37.0924 27.6044 43.0919 36.8628 46.8323C41.6649 48.7704 46.6644 49.9801 51.8492 50.0789C54.4045 50.1283 56.9722 49.9308 59.4905 49.4864C61.9964 49.042 64.3912 48.3013 66.7861 47.4618C69.3661 46.5607 72.0079 45.7459 74.773 46.0299C77.4642 46.3015 79.9825 47.4001 82.365 48.6469C82.5748 48.7457 82.3896 49.0666 82.1798 48.9555V48.9555Z" fill="#E8E8E8"/>
<path d="M108.301 24.933C104.165 22.4517 99.3017 24.2664 95.1045 25.5749C90.7592 26.9328 86.2288 27.5747 81.6613 27.3525C79.0936 27.2291 76.5506 26.834 74.0694 26.2045C73.8348 26.1427 73.9336 25.7847 74.1681 25.8465C78.7603 27.0192 83.55 27.3278 88.2533 26.7229C90.6605 26.4143 93.006 25.8465 95.3267 25.1058C97.4623 24.4268 99.598 23.6862 101.845 23.4146C104.116 23.143 106.486 23.4022 108.474 24.5997C108.684 24.7355 108.498 25.0564 108.301 24.933V24.933Z" fill="#E8E8E8"/>
<path d="M51.1453 99.0745C51.1453 100.025 50.2565 100.716 49.2319 101.531C48.269 102.284 46.7259 103.247 44.5409 103.654C44.1829 104.889 43.4422 107.271 42.9485 107.148C42.5411 107.049 42.3559 105.136 42.5905 103.58C42.6769 103 42.7633 102.457 43.0719 101.901C43.8002 100.63 44.7508 101.05 45.7754 100.05C47.0592 98.7906 46.5654 97.1364 47.553 96.5439C48.8245 95.7785 51.1453 97.5191 51.1453 99.0745Z" fill="#161616"/>
<path d="M51.1329 100.926C51.244 101.852 50.4292 102.704 49.4911 103.704C47.9356 105.358 46.3308 106.185 45.1828 106.605C44.9359 108.345 44.4915 110.876 43.9977 110.864C43.541 110.851 43.0595 108.753 43.1583 106.926C43.1953 106.247 43.22 105.741 43.4546 105.185C44.0594 103.741 45.1334 104.086 45.9358 102.864C46.837 101.469 46.0716 100.099 46.8246 99.2474C47.911 98.0129 50.9354 99.2844 51.1329 100.926Z" fill="#161616"/>
<path d="M63.2059 97.4821C63.6627 97.4327 63.8725 98.3832 64.6996 99.8769C65.1563 100.716 66.292 102.778 68.0203 103.951C69.3782 104.864 70.5633 104.876 70.5509 105.309C70.5386 105.629 69.872 105.839 69.514 105.889C68.6375 106.012 67.9833 105.432 67.7734 105.247C66.3785 104.358 65.2798 103.444 64.5021 102.729C62.5763 100.963 62.3541 100.198 62.3171 99.63C62.2554 98.6301 62.7245 97.5314 63.2059 97.4821Z" fill="#161616"/>
<path d="M63.1689 96.1859C62.5023 96.5439 61.5271 97.0006 60.3173 97.3462C59.5519 97.5561 57.1941 98.1363 53.5895 97.5067C49.6022 96.8031 48.59 95.3958 47.5036 96.4327C46.3679 97.5191 46.1457 100.408 46.9975 102.136C47.516 103.185 48.5776 103.593 50.6885 104.42C52.3427 105.062 53.5772 105.543 55.3548 105.58C57.441 105.629 58.9718 105.025 59.8729 104.679C61.7493 103.926 63.3911 103.272 64.033 101.383C64.3046 100.593 64.317 99.8275 64.2799 99.3214C63.8972 98.2721 63.5269 97.2228 63.1689 96.1859Z" fill="#161616"/>
<path d="M50.602 97.8277C50.5032 97.1117 49.6761 96.9266 48.9601 96.4698C47.0714 95.2477 47.3306 92.9146 46.0345 92.5936C44.9358 92.322 44.4667 93.9392 43.3557 93.6305C42.0472 93.2602 41.6768 90.7419 41.2201 90.9147C40.8868 91.0382 40.6893 92.5936 41.2201 93.5688C41.7632 94.5564 42.8989 94.6675 44.1951 94.7909C45.4913 94.9144 45.5901 94.6181 46.1332 94.9144C47.1331 95.4822 46.948 96.5809 48.1701 97.7536C48.8614 98.4202 49.9477 99.0745 50.4044 98.5931C50.5649 98.4202 50.639 98.0993 50.602 97.8277Z" fill="#161616"/>
<path d="M62.638 98.9264C63.0948 98.877 63.3046 99.8276 64.1317 101.321C64.5885 102.161 65.7242 104.222 67.4524 105.395C68.8103 106.308 69.9954 106.321 69.9831 106.753C69.9707 107.074 69.3041 107.284 68.9461 107.333C68.0696 107.457 67.4154 106.876 67.2055 106.691C65.8106 105.802 64.7119 104.889 63.9342 104.173C62.0085 102.408 61.7863 101.642 61.7492 101.074C61.6875 100.074 62.1566 98.9758 62.638 98.9264Z" fill="#161616"/>
<path d="M68.9955 97.1117C68.6993 98.9634 68.9708 99.3461 68.5141 99.951C67.8228 100.877 66.5266 101 66.3044 101.025C65.3415 101.124 65.1934 100.729 64.1564 100.84C62.9961 100.963 62.8109 101.469 62.2307 101.284C61.3789 101.013 61.132 99.6671 61.058 99.2473C61.0456 99.2103 61.0456 99.1733 61.0456 99.1486C60.9469 98.3215 61.1444 97.5808 61.416 97.0006C63.0207 96.3093 63.9713 95.4452 64.5515 94.7909C65.1687 94.0873 65.5514 93.3713 65.8847 93.4577C66.255 93.5565 66.3044 94.5811 66.2921 95.3835C66.7365 95.5069 67.1809 95.6304 67.6253 95.7538C68.7733 94.5934 69.1683 94.507 69.3288 94.6058C69.5881 94.7539 69.2548 95.4452 68.9955 97.1117Z" fill="#161616"/>
<path d="M66.8972 98.7659C66.7985 99.1609 66.4281 99.4202 66.0208 99.3955C65.959 99.3955 65.959 99.2967 66.0208 99.2967C66.3788 99.3337 66.7121 99.0992 66.7985 98.7412C66.8232 98.6918 66.9096 98.7165 66.8972 98.7659V98.7659Z" fill="white"/>
<path d="M66.9342 98.7412C66.9342 98.8894 66.9342 99.0499 66.9712 99.198C66.9835 99.2721 67.0082 99.3338 67.0453 99.3955C67.0453 99.3955 67.2181 99.6424 67.2428 99.6054C67.2675 99.556 67.3539 99.6054 67.3168 99.6547C67.2428 99.7905 67.0576 99.5807 67.0082 99.5189C66.8477 99.2967 66.8354 99.0005 66.8354 98.7412C66.8477 98.6795 66.9342 98.6795 66.9342 98.7412V98.7412Z" fill="white"/>
<path d="M66.9096 98.6919C66.9343 98.7289 66.8726 98.7042 66.8849 98.7166C66.9219 98.7412 66.9219 98.6919 66.8849 98.6795C66.8479 98.6795 66.8479 98.7289 66.8602 98.7412C66.8726 98.7536 66.8726 98.7536 66.8849 98.7536C66.8973 98.7536 66.9096 98.7536 66.9096 98.7412V98.7289C66.9219 98.7289 66.9343 98.7289 66.9343 98.7166C66.9837 98.6795 67.033 98.7659 66.9837 98.7906C66.9219 98.8277 66.8108 98.8277 66.8108 98.7289C66.8108 98.6548 66.9096 98.6055 66.9713 98.6672C67.033 98.7289 66.996 98.8277 66.9219 98.84C66.8355 98.8647 66.7615 98.803 66.7615 98.7166C66.7615 98.6425 66.8108 98.5684 66.8973 98.5808C66.9713 98.5931 67.033 98.6795 66.996 98.7536C66.959 98.8153 66.8726 98.8153 66.8232 98.7783C66.7738 98.7412 66.7738 98.6548 66.8355 98.6178C66.8973 98.5808 66.996 98.6178 66.996 98.6919C66.996 98.7783 66.8602 98.7906 66.8232 98.7166C66.7985 98.6795 66.8849 98.6301 66.9096 98.6919V98.6919Z" fill="white"/>
<path d="M68.107 98.0376C67.9588 97.8154 67.6255 97.766 67.428 97.9512C67.3786 97.9882 67.3169 97.9265 67.3663 97.8895C67.6132 97.6672 68.0082 97.729 68.1934 98.0006C68.2181 98.0376 68.1316 98.087 68.107 98.0376V98.0376Z" fill="white"/>
<path d="M66.3292 97.6672C66.144 97.4203 65.8107 97.3463 65.5268 97.4697C65.4774 97.4944 65.428 97.4203 65.4774 97.3956C65.8107 97.2475 66.181 97.3463 66.4032 97.6302C66.4403 97.6672 66.3662 97.7043 66.3292 97.6672V97.6672Z" fill="white"/>
<path d="M65.5886 94.1614C65.4281 94.47 65.317 94.8033 65.2676 95.149C65.2553 95.2107 65.1689 95.186 65.1812 95.1243C65.243 94.7663 65.3541 94.433 65.5145 94.112C65.5269 94.0626 65.6133 94.112 65.5886 94.1614V94.1614Z" fill="white"/>
<path d="M65.9838 95.1366C65.9468 95.2354 65.885 95.3341 65.811 95.4082C65.7739 95.4452 65.7122 95.3959 65.7369 95.3465C65.7863 95.2477 65.811 95.1366 65.811 95.0255C65.8233 95.0379 65.848 95.0626 65.8604 95.0749C65.7863 95.0749 65.7122 95.0626 65.6505 95.0626C65.6258 95.0626 65.6011 95.0379 65.6011 95.0008C65.6258 94.9268 65.6382 94.8403 65.6628 94.7663C65.6752 94.791 65.6875 94.8033 65.7122 94.828C65.6258 94.828 65.5517 94.828 65.4653 94.828C65.4036 94.828 65.4036 94.7292 65.4653 94.7292C65.5517 94.7292 65.6258 94.7292 65.7122 94.7292C65.7369 94.7292 65.7616 94.7539 65.7616 94.791C65.7369 94.865 65.7246 94.9515 65.6999 95.0255C65.6875 95.0008 65.6752 94.9885 65.6505 94.9638C65.7246 94.9638 65.7986 94.9761 65.8604 94.9761C65.885 94.9761 65.9097 95.0008 65.9097 95.0255C65.9097 95.1613 65.885 95.2724 65.8233 95.3959C65.7986 95.3712 65.7739 95.3588 65.7493 95.3341C65.811 95.2601 65.8727 95.1737 65.9097 95.0749C65.9344 95.0379 66.0085 95.0872 65.9838 95.1366V95.1366Z" fill="white"/>
<path d="M67.4156 98.9757C67.6625 98.877 67.9094 98.7535 68.1316 98.6054C68.181 98.5684 68.2303 98.6548 68.181 98.6795C67.9464 98.8276 67.6995 98.9511 67.4403 99.0622C67.3786 99.0868 67.3539 99.0004 67.4156 98.9757V98.9757Z" fill="white"/>
<path d="M67.6131 99.1609C67.7489 99.1856 67.8724 99.2227 67.9835 99.2844C68.0328 99.3091 67.9958 99.3955 67.9341 99.3584C67.823 99.2967 67.7119 99.2597 67.5884 99.2473C67.5391 99.235 67.5638 99.1486 67.6131 99.1609V99.1609Z" fill="white"/>
<path d="M66.2181 98.6795C65.9712 98.482 65.712 98.3091 65.4404 98.1363C65.391 98.1116 65.4404 98.0252 65.4898 98.0623C65.7737 98.2351 66.0329 98.4203 66.2922 98.6178C66.3292 98.6548 66.2675 98.7165 66.2181 98.6795V98.6795Z" fill="white"/>
<path d="M66.0084 98.8893C65.7245 98.8153 65.4406 98.7412 65.169 98.6795C65.1073 98.6671 65.1319 98.5807 65.1937 98.5931C65.4776 98.6671 65.7615 98.7412 66.0331 98.8029C66.0948 98.8153 66.0701 98.914 66.0084 98.8893V98.8893Z" fill="white"/>
<path d="M67.3786 99.7164C66.9589 99.5683 66.8601 99.1239 66.8478 98.7288C66.8478 98.6671 66.9342 98.6671 66.9465 98.7288C66.9712 99.0745 67.0453 99.4819 67.4156 99.6177C67.465 99.6423 67.4403 99.7411 67.3786 99.7164V99.7164Z" fill="white"/>
<path d="M67.3785 99.7164C67.144 99.63 66.9712 99.4325 66.9218 99.1856C66.9094 99.1239 66.9958 99.0992 67.0082 99.1609C67.0452 99.3831 67.181 99.556 67.3909 99.63C67.4526 99.6547 67.4279 99.7411 67.3785 99.7164V99.7164Z" fill="white"/>
<path d="M69.0821 95.2477C68.7982 95.5563 68.5883 95.902 68.4402 96.297C68.4155 96.3464 68.3291 96.334 68.3538 96.2723C68.5019 95.8649 68.7241 95.5069 69.0204 95.186C69.0574 95.1489 69.1191 95.2107 69.0821 95.2477V95.2477Z" fill="white"/>
<path d="M68.5882 95.9267C68.6623 95.939 68.7364 95.939 68.8104 95.9514C68.8475 95.9514 68.8722 96.0007 68.8475 96.0254C68.7981 96.0625 68.7611 96.1365 68.7858 96.1982C68.7981 96.2476 68.8475 96.2723 68.8475 96.3217C68.8475 96.3464 68.8351 96.3834 68.8104 96.3958C68.7858 96.4205 68.7364 96.4328 68.7364 96.4575C68.7364 96.5192 68.6376 96.5192 68.6376 96.4575C68.6376 96.4081 68.6623 96.3958 68.687 96.3587C68.6993 96.3464 68.7364 96.334 68.7364 96.3217C68.7487 96.2847 68.7117 96.26 68.6993 96.2353C68.6623 96.1365 68.687 96.0131 68.7734 95.9514C68.7858 95.976 68.7981 96.0007 68.8104 96.0254C68.7364 96.0131 68.6623 96.0131 68.5882 96.0007C68.5265 96.0131 68.5265 95.9143 68.5882 95.9267V95.9267Z" fill="white"/>
<path d="M60.8997 84.8289C58.0851 85.6189 55.2705 86.4213 52.456 87.2114C51.6536 87.9891 50.4068 89.0507 48.6662 89.9148C45.6664 91.4085 42.0371 91.9146 41.7409 91.211C41.6051 90.9024 42.3704 90.2111 43.9012 88.8285C45.2097 87.6558 45.7899 87.2978 46.7157 86.446C47.3947 85.8164 48.3329 84.8659 49.3081 83.5203C50.4315 83.508 51.7894 83.3969 53.2954 83.0759C55.7273 82.5451 57.653 81.6563 58.9862 80.8909C59.6282 82.2118 60.2701 83.5203 60.8997 84.8289Z" fill="#161616"/>
<path d="M88.0577 53.6341C89.9464 56.5598 88.5638 60.2014 87.0331 64.2011C84.8481 69.9537 81.4904 73.7558 79.7745 75.5334C72.0961 83.508 62.6649 86.9151 57.2333 88.3965C56.6778 85.8535 56.1346 83.2981 55.5791 80.7552C59.3318 78.7183 62.097 76.4963 63.9857 74.768C67.1583 71.8671 72.4665 67.0156 74.6885 59.4854C76.0587 54.8192 75.1946 52.7083 77.2315 51.2022C80.0707 49.1283 85.8603 50.2147 88.0577 53.6341Z" fill="#EC615B"/>
<path opacity="0.14" d="M75.6515 55.0167C76.6884 56.6956 77.9969 59.4237 77.6143 62.5716C77.1699 66.2133 74.7009 68.5217 68.8249 73.7064C63.6649 78.2492 59.3813 81.9403 56.3816 84.4956C56.1223 83.2488 55.8755 82.0143 55.6162 80.7675C57.5667 79.6689 60.0973 78.0641 62.8255 75.8173C64.3315 74.5705 66.5288 72.7435 68.8866 69.8549C70.5161 67.8551 72.7011 65.1393 74.2195 61.0038C75.096 58.609 75.4663 56.4981 75.6515 55.0167Z" fill="#6D6C6C"/>
<path opacity="0.14" d="M72.269 65.3245C71.9357 66.4725 71.3432 68.1267 70.2692 69.9413C69.331 71.5214 68.0102 73.2497 63.3933 77.1753C61.5539 78.7307 59.1097 80.7182 56.0853 82.9031C55.9125 82.1995 55.752 81.4959 55.5792 80.7922C57.2827 79.854 58.653 78.9652 59.6282 78.2863C62.6526 76.1877 64.7265 74.2002 65.9733 72.9904C66.7387 72.2498 67.5781 71.4227 68.6274 70.2376C70.2569 68.3489 71.442 66.6206 72.269 65.3245Z" fill="#6D6C6C"/>
<path d="M99.3159 81.681C97.7482 83.0883 96.1804 84.4956 94.6126 85.9029C96.3285 92.1246 96.847 95.3588 96.1557 95.6428C95.3286 95.9761 92.7609 92.0011 88.4403 83.7179C91.2302 81.7674 94.0077 79.817 96.7976 77.8789C97.6494 79.1381 98.4888 80.4095 99.3159 81.681Z" fill="#161616"/>
<path d="M88.1933 50.8319C93.699 54.7575 97.7604 57.6708 99.7849 59.1151C107.204 64.4233 110.92 67.1391 111.253 69.8179C111.895 75.0396 105.982 80.4465 104.377 81.9156C102.871 83.2981 101.439 84.2487 100.427 84.8412C99.6121 84.6684 97.353 84.1005 95.4643 82.039C93.8101 80.249 93.3287 78.2862 93.1682 77.4592C95.2544 75.5087 97.353 73.5459 99.4392 71.5955C95.3162 69.571 91.9337 68.0156 89.613 66.9786C86.3416 65.5096 85.1936 65.0775 83.4283 63.8307C81.1939 62.263 78.2189 60.1274 77.3795 56.4487C77.1696 55.5228 76.6018 53.0786 77.8856 51.3504C79.4904 49.1777 83.6876 48.8197 88.1933 50.8319Z" fill="#EC615B"/>
<path opacity="0.12" d="M81.9224 53.5601C81.5027 53.8563 77.8117 56.5474 78.4289 59.1275C78.503 59.4114 78.6881 60.0039 80.4164 61.51C82.7248 63.5345 84.8974 64.6949 85.9838 65.2504C88.3046 66.4478 89.9834 67.1638 91.6252 67.8798C93.5387 68.7069 96.2915 69.9413 99.6492 71.5338C97.526 73.4966 95.415 75.4593 93.2918 77.4221C93.3658 77.99 93.5263 78.706 93.8473 79.4837C94.3411 80.6935 95.02 81.5699 95.5138 82.1131C96.2174 80.7675 97.1927 79.1874 98.5382 77.5826C100.81 74.8545 103.241 73.1015 105.056 72.0152C100.612 70.1141 94.6003 66.8675 88.7613 61.3618C85.922 58.6707 83.6753 55.9796 81.9224 53.5601Z" fill="#6D6C6C"/>
<path opacity="0.19" d="M78.7621 58.5966C79.3794 57.93 83.342 60.6211 85.2677 61.905C88.897 64.3368 94.2176 67.7316 101.402 71.8424C98.6246 73.7558 95.847 75.6815 93.0695 77.5949C95.1928 75.5704 97.3284 73.5459 99.4517 71.5214C98.7727 71.1881 97.6247 70.6326 96.1927 69.9536C93.7855 68.8056 91.1931 67.6082 87.712 65.9787C87.1071 65.6948 85.3295 64.8553 83.0827 63.5962C81.6137 62.7691 80.1694 61.905 79.2312 60.2138C78.9596 59.7323 78.4906 58.8929 78.7621 58.5966Z" fill="#6D6C6C"/>
<path d="M83.7986 27.192C84.4158 26.5254 85.6997 26.797 86.3416 26.9328C88.5513 27.3895 89.7981 28.7104 91.8596 30.525C92.9706 31.5003 94.5878 32.8458 96.674 34.3765C97.2912 31.599 97.8961 28.8338 98.5133 26.0563C98.2664 25.7477 97.8591 25.1428 97.7233 24.3034C97.6492 23.859 97.464 22.2912 98.538 21.3036C99.7231 20.205 101.871 20.3654 102.859 21.5011C103.859 22.6492 103.34 24.4021 103.093 25.2416C102.859 26.0316 102.501 26.6365 102.217 27.0315C102.303 27.908 102.39 29.1795 102.303 30.7102C102.217 32.352 102.118 34.0309 101.34 35.8826C100.711 37.3763 99.9577 39.1662 98.3652 39.8205C96.637 40.5365 94.847 39.5119 91.3535 37.4503C85.8725 34.2161 84.564 31.5373 84.2553 30.883C83.922 30.1794 82.9715 28.0932 83.7986 27.192Z" fill="white" stroke="#161616" stroke-width="0.5"/>
<path d="M98.8961 24.8466C99.3159 24.4886 99.7603 24.0812 99.9084 23.5257C99.9701 23.2788 100.019 22.9332 99.5627 22.9949C99.4516 23.0072 99.2912 23.143 99.2047 23.2047C98.9455 23.3776 98.711 23.5998 98.5011 23.822C98.4147 23.9084 98.2912 23.7726 98.3653 23.6862C98.6369 23.3899 99.7356 22.2542 100.069 22.9825C100.402 23.7232 99.501 24.5626 99.0196 24.9577C98.9332 25.0564 98.8097 24.9206 98.8961 24.8466V24.8466Z" fill="#161616"/>
<path d="M103.019 21.7357C102.957 22.6369 102.674 24.0071 101.464 23.8096C101.34 23.7849 101.402 23.6121 101.513 23.6368C102.587 23.8096 102.785 22.5011 102.834 21.7357C102.846 21.6246 103.032 21.6246 103.019 21.7357V21.7357Z" fill="#161616"/>
<path d="M101.785 20.9704C101.254 21.711 101.131 22.5998 101.427 23.464C101.464 23.5751 101.291 23.6244 101.254 23.5133C100.945 22.6122 101.081 21.6493 101.637 20.8716C101.698 20.7728 101.859 20.8716 101.785 20.9704V20.9704Z" fill="#161616"/>
<path d="M100.402 20.6617C99.933 21.5259 100.044 22.5505 100.686 23.3035C100.76 23.3899 100.637 23.5257 100.55 23.4393C99.8589 22.6369 99.7231 21.5135 100.242 20.5753C100.291 20.4642 100.451 20.563 100.402 20.6617V20.6617Z" fill="#161616"/>
<path d="M98.8714 21.2913C98.6615 21.7604 98.7726 22.2912 99.143 22.6369C99.2294 22.7233 99.0936 22.8467 99.0072 22.7727C98.5751 22.3653 98.4517 21.7357 98.6986 21.1926C98.7603 21.0815 98.9208 21.1802 98.8714 21.2913V21.2913Z" fill="#161616"/>
<path opacity="0.17" d="M101.822 20.7728C101.612 20.7111 101.353 20.637 101.106 20.7358C100.439 21.0074 100.143 22.3776 100.735 23.0936C100.97 23.3899 101.303 23.501 101.513 23.5627C101.501 23.7726 101.488 24.1182 101.464 24.5503C101.464 24.5503 101.402 25.6983 101.328 26.6735C101.13 29.2906 100.933 31.7842 99.8712 34.3766C99.5379 35.2037 98.9701 36.364 98.0072 37.6726C97.5134 37.5738 96.5135 37.3269 95.3408 36.8331C88.613 33.9815 85.2305 26.402 84.0331 27.0192C83.8109 27.1303 83.6258 27.5624 83.6011 27.6364C83.3789 28.1796 83.49 28.7104 83.6628 29.2783C84.1072 30.7102 84.7861 31.7595 84.9837 32.0558C85.712 33.1421 86.4033 33.8458 86.5885 34.0309C87.4032 34.8457 88.1315 35.3394 89.4771 36.2036C91.9954 37.8084 93.2545 38.6108 94.1063 38.9564C95.8345 39.66 97.3035 40.2649 98.6615 39.623C99.4762 39.2403 99.8836 38.5861 100.476 37.5985C101.735 35.4752 101.97 33.4013 102.155 31.4756C102.266 30.3769 102.34 28.8709 102.217 27.0686C102.908 25.9576 103.18 24.9577 103.303 24.3281C103.463 23.501 103.587 22.8097 103.241 22.0567C103.143 21.9085 102.723 21.0321 101.822 20.7728Z" fill="#6D6C6C"/>
<path opacity="0.2" d="M83.5766 28.2537C83.7124 28.1919 84.1321 28.8339 84.5765 29.5005C85.2184 30.4757 85.5394 30.9695 86.0702 32.0805C87.5639 35.216 92.5388 37.7466 93.1807 38.0799C94.1929 38.5861 95.6496 39.2156 97.526 39.6601C98.3901 38.87 99.9825 37.2282 100.884 34.9074C101.377 33.6359 101.563 32.3768 101.6 32.1669C101.735 31.2904 101.748 30.6115 101.76 29.8338C101.773 28.7598 101.735 27.8216 101.661 27.0686C101.933 26.5625 102.192 25.9823 102.439 25.365C102.859 24.291 103.13 23.2911 103.303 22.4147C103.353 23.106 103.34 24.1306 102.995 25.3033C102.772 26.044 102.488 26.6489 102.217 27.1056C102.451 29.1054 102.365 30.772 102.217 31.957C102.217 31.957 101.884 34.6975 100.452 37.7343C100.217 38.2281 99.8838 38.8577 99.2048 39.3514C98.3284 39.981 97.3902 40.0304 97.0939 40.0304C96.6001 40.0427 96.0323 39.9687 93.7732 38.7836C91.8104 37.759 90.4525 36.8825 89.9464 36.5492C88.9959 35.932 88.5268 35.611 88.0206 35.216C86.9837 34.3889 85.2925 33.031 84.2555 30.809C83.7247 29.6486 83.4038 28.3401 83.5766 28.2537Z" fill="#6D6C6C"/>
<path d="M82.6878 24.2787C85.0826 25.9205 87.9713 28.5129 89.181 32.3891C90.0699 35.2407 89.4897 37.1541 89.6131 41.7586C89.6872 44.388 89.9588 48.2025 90.9216 52.8687C90.3538 53.4736 86.9714 56.9178 81.762 56.7943C78.5277 56.7203 76.2069 55.3006 75.2193 54.6093C75.96 49.9678 75.7625 46.2644 75.4415 43.7091C74.8613 39.1786 73.3553 36.5492 73.3676 31.3892C73.3676 28.8709 73.7133 26.8093 74.0096 25.4391C74.6638 24.9453 75.9106 24.1429 77.6636 23.7972C80.009 23.3652 81.8977 23.9701 82.6878 24.2787Z" fill="white" stroke="#161616" stroke-width="0.5"/>
<path opacity="0.13" d="M79.0212 23.822C78.9966 25.0317 78.9966 26.8093 79.1941 28.9326C79.4163 31.4633 79.9347 34.9444 82.1197 41.7463C83.2801 45.3633 84.9713 50.0665 87.3909 55.4735C86.0453 56.2018 84.8479 56.5104 84.0455 56.6462C81.0704 57.1523 78.6632 56.2512 77.5152 55.8068C76.5029 55.4117 75.7129 54.9673 75.1697 54.634C75.3796 53.3625 75.6018 51.622 75.6759 49.5234C75.7129 48.5358 75.7746 45.3139 75.0093 40.8205C74.3056 36.6727 73.7501 36.4505 73.4168 33.6976C73.0094 30.2535 73.4909 27.3278 73.997 25.328C74.6142 24.9206 75.5771 24.3775 76.8486 24.0689C77.688 23.8713 78.441 23.822 79.0212 23.822Z" fill="#6D6C6C"/>
<path opacity="0.15" d="M76.9352 24.1553C76.8118 26.4637 76.7624 29.4634 77.0216 32.9446C77.1451 34.6482 77.4167 38.0429 78.2808 41.8204C79.0585 45.2522 80.6756 50.4616 84.3049 56.387C83.4038 56.5968 82.0953 56.7944 80.5398 56.6339C78.0215 56.3746 76.1945 55.3377 75.2687 54.7081C76.0094 49.4493 75.6637 45.3262 75.1823 42.487C74.7255 39.7959 74.1947 38.4626 73.8367 35.537C73.3306 31.3028 73.6886 27.7722 74.0836 25.4021C74.3675 25.1428 74.8366 24.7602 75.5032 24.4762C76.0711 24.2664 76.5772 24.1923 76.9352 24.1553Z" fill="#6D6C6C"/>
<path d="M75.7749 25.7847C73.9973 25.7847 71.6765 25.9699 69.0471 26.6612C65.6894 27.55 63.1094 28.9326 61.3935 30.0436C60.8256 31.5743 59.7887 35.0308 60.7516 39.1786C61.233 41.2772 62.0724 42.8943 62.7884 44.0053C62.8378 45.2645 62.5539 46.0916 62.27 46.6224C61.949 47.252 61.4552 47.8198 61.6527 48.3506C61.7515 48.6222 61.9984 48.7827 62.1835 48.8814C62.1959 48.9185 62.344 49.2024 62.6773 49.2888C63.06 49.3752 63.3316 49.1283 63.3563 49.1036C63.4303 49.1654 63.7513 49.474 64.2574 49.474C64.8129 49.4863 65.1586 49.1283 65.2203 49.0666C65.3314 49.116 65.603 49.1901 65.9363 49.1283C66.393 49.0419 66.6399 48.721 66.714 48.6346C66.9732 48.4247 67.6398 47.7951 67.7016 46.8693C67.7263 46.5236 67.6522 46.2027 67.4547 45.7212C67.2078 45.1287 66.7017 44.1535 65.6277 43.1289C65.2944 41.5734 65.0475 39.5613 65.1833 37.2282C65.2573 36.0307 65.4178 34.9568 65.6153 34.0062C67.4917 33.3149 69.8125 32.6607 72.516 32.3274C73.6023 32.1916 74.6392 32.1298 75.6021 32.1175C77.2439 31.2163 78.0587 29.4758 77.676 27.9697C77.281 26.5748 76.0095 25.9082 75.7749 25.7847Z" fill="white" stroke="#161616" stroke-width="0.5"/>
<path d="M67.0968 45.894C67.3066 46.8569 67.3313 47.8445 66.7264 48.6716C66.6524 48.7703 66.4919 48.6716 66.5659 48.5728C67.1461 47.7828 67.1214 46.8569 66.9239 45.9434C66.8992 45.8323 67.0721 45.7706 67.0968 45.894V45.894Z" fill="#161616"/>
<path d="M66.0103 46.3261C65.9979 47.2519 65.8498 48.3506 65.2325 49.0789C65.1585 49.1654 65.0227 49.0419 65.0968 48.9432C65.677 48.2642 65.8127 47.1902 65.8251 46.3261C65.8251 46.2027 66.0103 46.2027 66.0103 46.3261V46.3261Z" fill="#161616"/>
<path d="M64.7018 46.4866C64.6154 47.4125 64.2574 48.6099 63.4303 49.1407C63.3316 49.2024 63.2328 49.042 63.3316 48.9802C64.0969 48.4864 64.4302 47.3384 64.5166 46.4866C64.529 46.3632 64.7141 46.3632 64.7018 46.4866V46.4866Z" fill="#161616"/>
<path d="M63.6156 46.5977C63.4674 47.5235 62.9984 48.3383 62.2824 48.9432C62.196 49.0172 62.0602 48.8938 62.1466 48.8074C62.8502 48.2272 63.2823 47.4371 63.4304 46.5483C63.4551 46.4249 63.6279 46.4742 63.6156 46.5977V46.5977Z" fill="#161616"/>
<path opacity="0.17" d="M77.429 27.5747C75.3304 27.4019 71.7381 27.4019 67.7014 28.945C65.3313 29.8585 63.4919 31.0312 62.1957 32.0311C61.4427 39.1292 62.5044 42.1537 63.7018 43.5733C63.961 43.8696 64.9856 45.0053 65.1091 46.6347C65.2078 47.8692 64.7758 49.3752 64.1709 49.4617C63.924 49.4987 63.6894 49.2888 63.5043 49.079C63.1463 49.3382 62.8747 49.3259 62.7759 49.3012C62.6895 49.2888 62.5661 49.2518 62.097 48.8938C61.7266 48.6099 61.5415 48.4617 61.5044 48.3877C61.2699 47.9309 61.9118 47.3137 62.3315 46.5113C62.6031 45.9928 62.8747 45.2028 62.8377 44.0424C61.9859 42.6845 60.3811 39.6724 60.3687 35.5987C60.3564 33.2285 60.8996 31.3028 61.3687 30.0313C62.4673 29.303 63.4425 28.8092 64.1585 28.4759C64.3437 28.3895 64.3684 28.3648 67.4052 27.2414C68.6766 26.7723 68.9359 26.6736 69.4173 26.5625C70.0839 26.402 70.121 26.4514 71.6517 26.1921C72.4417 26.0563 73.2318 25.9576 74.0219 25.8218C74.2317 25.7847 75.0218 25.6613 75.7131 25.8712C75.8118 25.9082 76.0464 25.9699 76.3056 26.1427C76.3673 26.1921 76.5525 26.3156 76.8117 26.5995C76.9722 26.8217 77.2068 27.1303 77.429 27.5747Z" fill="#6D6C6C"/>
<path opacity="0.14" d="M61.4922 30.2041C61.2577 32.3891 61.233 34.2408 61.2577 35.6234C61.2947 37.364 61.3194 38.3639 61.6403 39.7218C62.0601 41.5117 62.7884 43.0918 62.8625 43.2523C63.2451 44.0547 63.3069 44.0547 63.5167 44.6226C63.813 45.425 64.4055 46.9927 63.7019 48.2025C63.6155 48.363 63.1217 49.2148 62.4304 49.1407C61.7885 49.079 61.4552 48.2395 61.4428 48.2025C61.7391 47.6964 62.0601 47.0421 62.3316 46.2767C62.5662 45.5978 62.7143 44.9682 62.8007 44.4374C62.0847 43.2894 61.2083 41.5982 60.7268 39.4008C59.8257 35.1913 60.912 31.7348 61.4922 30.2041Z" fill="#6D6C6C"/>
<path d="M85.5762 15.8474C88.2921 16.2795 89.1068 20.1063 89.1932 20.489C89.3784 21.3531 89.8598 23.6121 88.3661 25.291C86.8971 26.9452 84.6257 26.76 84.3418 26.7353C83.7739 26.6859 82.4284 26.4514 81.4038 25.3898C79.6015 23.5504 79.799 20.2914 81.2433 18.2175C81.4161 17.983 83.2184 15.4771 85.5762 15.8474Z" fill="#5222D0"/>
<path d="M84.095 20.7235C84.1567 21.2543 83.8974 21.5259 83.2061 22.9702C82.663 24.1059 82.305 25.0564 82.0828 25.6613C81.6384 25.76 80.4656 25.9699 79.1571 25.4144C78.2683 25.0441 77.7005 24.4762 77.4042 24.1306C77.7992 23.4886 78.33 22.5381 78.7621 21.316C79.441 19.4396 79.2806 18.7113 79.8978 18.3409C81.1323 17.6373 83.9221 19.131 84.095 20.7235Z" fill="white" stroke="#161616" stroke-width="0.5"/>
<path d="M86.4156 7.058C87.3785 7.72461 87.7242 8.72452 88.3908 10.6626C89.1438 12.86 89.6376 14.7734 89.761 16.1313C89.7857 16.3288 89.6623 16.5263 89.4648 16.6004C89.2055 16.6991 88.7735 16.6991 88.5266 16.7362C88.5019 17.341 88.3908 18.1805 88.0081 19.094C87.2551 20.9086 85.9219 21.9209 85.3046 22.3159C84.5393 22.39 82.6135 22.4764 80.7125 21.316C79.4533 20.5383 78.799 19.5754 78.6509 19.3409C77.688 17.8719 77.6016 16.4028 77.6016 15.7733C77.3053 15.7486 76.8363 15.6745 76.3795 15.3659C75.4413 14.7363 74.7377 13.2797 75.3302 12.4773C75.7746 11.8971 76.8856 11.7366 77.9349 12.2551C77.9596 11.7983 78.046 11.1687 78.2806 10.4404C78.3423 10.2676 78.7744 8.93438 79.5767 8.03322C81.1322 6.30498 84.4652 5.68775 86.4156 7.058Z" fill="white" stroke="#161616" stroke-width="0.5"/>
<path d="M83.3172 22.6863C82.0951 22.5752 80.9965 22.069 80.12 21.2049C79.9472 21.0321 80.2187 20.7728 80.3792 20.9457C81.1816 21.7481 82.1815 22.2172 83.3172 22.3283C83.5518 22.3283 83.5641 22.6986 83.3172 22.6863V22.6863Z" fill="#161616"/>
<path d="M83.1321 22.9949C81.8606 22.6369 80.7372 21.9703 79.8237 21.0074C79.6632 20.8346 79.9225 20.5753 80.0829 20.7482C80.9471 21.6617 82.0087 22.3036 83.2185 22.6369C83.4654 22.6986 83.3666 23.0566 83.1321 22.9949V22.9949Z" fill="#161616"/>
<path d="M88.9463 12.1687C89.1191 12.0082 90.4646 10.6873 90.2671 8.74923C90.0449 6.68768 88.255 5.70011 87.9587 5.53963C86.3786 4.67551 84.8232 5.03351 84.4652 5.13226C83.9097 4.78662 82.9098 4.26814 81.5889 4.10766C79.6261 3.86077 78.0954 4.50269 77.4781 4.8113C76.6634 5.0582 75.503 5.53964 74.5401 6.57658C73.1946 8.0209 73.5032 9.21832 72.1206 11.6502C71.5774 12.6131 71.6021 12.3045 69.5406 15.0697C67.6889 17.5509 66.763 18.8101 66.6149 19.7236C66.3063 21.7234 67.3803 23.7973 68.7135 25.0194C71.3058 27.3895 75.9227 27.4883 78.1201 25.1058C79.9347 23.143 79.5273 20.1309 79.4039 19.1681C79.1817 17.5262 78.5645 16.2794 78.1201 15.5511C77.9102 15.5881 77.5892 15.6375 77.2312 15.5511C76.5523 15.403 75.7376 14.8475 75.5894 13.9586C75.5771 13.8969 75.4042 12.6871 76.2684 12.2304C76.8115 11.9465 77.5275 12.0699 78.0213 12.5514C78.6385 12.3415 79.6631 11.9341 80.6754 11.07C81.6876 10.2059 82.2678 9.28004 82.5641 8.69985C83.0085 8.50233 83.885 8.21841 84.959 8.3542C87.0699 8.62578 88.2056 10.3417 88.3784 10.6133C88.5636 11.1194 88.7611 11.6379 88.9463 12.1687Z" fill="#5222D0"/>
<path d="M86.1934 13.3167C86.2304 13.1932 86.2551 13.0821 86.2551 12.9587C86.2551 12.8846 86.2551 12.8106 86.2428 12.7365C86.2304 12.6624 86.1934 12.6254 86.2551 12.576C86.3415 12.5143 86.2922 12.6377 86.2798 12.6871C86.2798 12.7488 86.2798 12.8106 86.2798 12.8846C86.2798 12.9464 86.2798 13.2303 86.3415 13.2673C86.2922 13.255 86.2428 13.255 86.1934 13.2426C86.1564 13.292 86.144 13.292 86.1564 13.2426C86.1564 13.2056 86.1687 13.1809 86.1687 13.1439C86.1811 13.0698 86.1934 13.0081 86.1934 12.934C86.1934 12.7982 86.1811 12.6624 86.107 12.5513C85.9835 12.3415 86.3045 12.1563 86.428 12.3662C86.5267 12.539 86.5637 12.7365 86.5637 12.9464C86.5637 13.1192 86.5514 13.3784 86.4403 13.5142C86.3415 13.65 86.1564 13.6377 86.0453 13.5142C85.9095 13.3661 85.8971 13.0821 85.8848 12.8846C85.8724 12.7118 85.8601 12.4773 85.9712 12.3291C86.07 12.1933 86.2428 12.1686 86.3786 12.2674C86.6872 12.502 86.6255 13.1068 86.5267 13.4278C86.4897 13.6377 86.1317 13.5389 86.1934 13.3167V13.3167Z" fill="#161616"/>
<path d="M87.0576 11.7366C86.4897 11.2922 85.638 11.4157 85.2306 11.9959C85.1318 12.144 84.8849 11.9959 84.996 11.8601C85.5269 11.1194 86.5515 10.9836 87.2674 11.5391C87.3909 11.6502 87.1934 11.8477 87.0576 11.7366V11.7366Z" fill="#161616"/>
<path d="M88.1686 18.2916C87.3786 18.0447 86.6996 17.6003 86.1688 16.9831C86.0577 16.8473 86.2429 16.6498 86.3663 16.7856C86.8725 17.3781 87.502 17.7978 88.2427 18.0324C88.4155 18.0694 88.3415 18.341 88.1686 18.2916V18.2916Z" fill="#161616"/>
<path d="M86.2058 14.5141C86.2058 14.4771 86.2182 14.4895 86.2428 14.5635C86.2675 14.5759 86.2922 14.5759 86.3169 14.5882C86.3169 14.5882 86.3169 14.5882 86.3046 14.5882C86.3293 14.5759 86.3539 14.5759 86.3786 14.5635L86.391 14.5512C86.4033 14.5265 86.4157 14.5141 86.428 14.4895C86.428 14.5018 86.428 14.5018 86.428 14.4771C86.4157 14.4524 86.4157 14.4277 86.4033 14.403V14.403C86.391 14.3907 86.3663 14.366 86.3539 14.3537V14.3537C86.3169 14.3537 86.2799 14.3413 86.2428 14.3413C86.2428 14.3413 86.2428 14.3413 86.2552 14.3413C86.428 14.3043 86.5021 14.5635 86.3293 14.6129C86.1688 14.6499 86.0824 14.4524 86.1935 14.3413C86.2428 14.2919 86.3293 14.2919 86.391 14.3166C86.4527 14.3537 86.4774 14.4277 86.4774 14.5018C86.4897 14.6993 86.2058 14.6993 86.2058 14.5141V14.5141Z" fill="#161616"/>
<path d="M84.9836 13.4896C84.9836 13.4896 84.9712 13.4896 84.9712 13.4772C84.9465 13.4772 84.9218 13.4772 84.8971 13.4772C84.8354 13.4896 84.8107 13.5636 84.8478 13.613C84.8601 13.6253 84.8848 13.65 84.8971 13.6624C84.9095 13.6624 84.9218 13.6747 84.9465 13.6747C84.9712 13.6624 84.9959 13.6624 85.0206 13.65L85.0329 13.6377C85.0453 13.613 85.0576 13.6007 85.07 13.576C85.07 13.5389 85.07 13.5142 85.0453 13.4896C85.0206 13.4772 85.0082 13.4649 84.9836 13.4525C84.9712 13.4525 84.9712 13.4525 84.9589 13.4525C85.0329 13.4402 85.0947 13.5266 85.0947 13.5883C85.0947 13.6747 85.0329 13.7118 84.9589 13.7241C84.8601 13.7364 84.786 13.6377 84.786 13.5389C84.786 13.4278 84.9095 13.3538 85.0082 13.3908C85.2181 13.4772 85.0329 13.8352 84.8478 13.6994C84.786 13.6624 84.7614 13.576 84.7984 13.5142C84.8231 13.4772 84.9218 13.4525 84.9836 13.4896V13.4896Z" fill="#161616"/>
<path d="M85.0084 14.8227C84.959 14.8474 84.959 14.9215 85.0084 14.9462C85.0825 14.9091 85.1442 14.8721 85.2183 14.8227C85.2183 14.8598 85.2183 14.8968 85.2183 14.9338C85.1566 14.8845 85.1072 14.8474 85.0455 14.798C85.0331 14.8227 85.0331 14.8351 85.0208 14.8474C85.0331 14.7734 85.0825 14.7116 85.1566 14.7116C85.2306 14.7116 85.3047 14.7734 85.2923 14.8474C85.28 14.9462 85.2183 15.0449 85.1195 15.0573C85.0331 15.0696 84.9467 15.0203 84.9467 14.9215C84.9467 14.8845 84.9467 14.8474 84.9467 14.8104C84.9467 14.6993 85.0701 14.6376 85.1566 14.6869C85.2923 14.761 85.2923 14.9585 85.1566 15.0449C84.9837 15.1437 84.8479 14.9091 85.0084 14.8227V14.8227Z" fill="#161616"/>
<path opacity="0.15" d="M82.6505 8.66284C82.4407 9.32945 82.1815 10.2923 81.9716 11.4651C81.5272 13.9216 81.0951 16.1437 81.9716 18.3657C82.7246 20.2914 84.0825 21.5753 85.1565 22.3406C84.2924 22.3036 83.2431 22.1802 82.0827 21.8469C81.5272 21.6864 81.0211 21.5012 80.5643 21.316C80.3915 21.958 80.2187 22.8221 80.2187 23.859C80.2187 24.5874 80.3051 25.2293 80.4038 25.7477C80.1693 25.7601 79.7249 25.7601 79.2311 25.5626C78.7867 25.3774 78.4904 25.1182 78.3176 24.9577C78.0584 25.2293 77.651 25.5749 77.1078 25.9082C75.145 27.0686 73.0958 26.76 72.528 26.6612C72.0342 26.5748 69.5036 26.1057 67.8617 23.822C67.405 23.1924 66.5038 21.9209 66.652 20.1433C66.7878 18.4768 67.7877 17.3905 68.1333 17.0325C68.3185 17.4892 68.8246 18.5262 69.948 19.3039C70.1578 19.452 71.8984 20.6124 73.96 20.0569C75.8734 19.5508 77.33 17.7485 77.6016 15.5511C77.4164 15.5511 77.1078 15.5388 76.7622 15.403C76.5894 15.3289 75.9845 15.045 75.7005 14.3413C75.6512 14.2056 75.4166 13.613 75.7005 12.9711C75.7499 12.86 76.0585 12.1687 76.7992 12.0576C77.4658 11.9588 77.9596 12.4156 78.009 12.4773C78.7373 12.2428 80.0088 11.7366 81.1939 10.5886C81.9099 9.90964 82.3666 9.206 82.6505 8.66284Z" fill="#6D6C6C"/>
<path opacity="0.23" d="M76.7746 15.3659C77.2437 15.2548 77.7128 15.1437 78.1819 15.0203C78.367 15.2795 78.6263 15.6622 78.8979 16.156C79.5645 17.3534 79.7003 18.0941 80.0706 18.9212C80.3669 19.5878 80.8977 20.4889 81.8853 21.4271C81.3174 21.2296 80.7496 21.0197 80.1817 20.8222C79.9101 21.3777 79.4657 22.4764 79.5768 23.896C79.6262 24.575 79.7867 25.1428 79.9595 25.5625C79.404 25.3774 78.8485 25.1799 78.293 24.9947C78.5646 24.6367 78.9349 24.0812 79.2065 23.3282C79.5892 22.2542 79.5645 21.3654 79.5521 20.563C79.5398 20.205 79.4904 19.0816 79.0583 17.6867C78.7868 16.8349 78.4658 16.1436 78.1819 15.6375C77.9967 15.6622 77.7128 15.6745 77.3918 15.6005C77.1326 15.5387 76.9227 15.4523 76.7746 15.3659Z" fill="#6D6C6C"/>
<path opacity="0.25" d="M88.5637 18.6249C88.6748 18.9088 89.218 20.3902 88.4526 21.8592C87.8724 22.9825 86.4775 24.1923 85.0455 23.8219C84.0827 23.5751 83.5642 22.7356 83.3914 22.4517C82.9223 23.5751 82.4532 24.6984 81.9841 25.8218C82.1075 25.9205 82.305 26.0687 82.5519 26.2045C84.3172 27.2167 86.2676 26.5748 86.4158 26.5254C86.7985 26.3896 87.9959 25.9576 88.7736 24.7354C89.5019 23.5751 89.4279 22.4023 89.3661 21.5012C89.2921 20.205 88.8723 19.2174 88.5637 18.6249Z" fill="#6D6C6C"/>
<path d="M145.187 48.9679C141.027 48.758 137.089 50.227 133.361 51.9059C129.583 53.6094 125.904 55.4611 121.905 56.5968C119.547 57.2758 117.127 57.7325 114.683 58.0164C114.449 58.0411 114.449 57.6708 114.683 57.6461C119.127 57.14 123.448 55.9549 127.546 54.1649C131.213 52.5601 134.755 50.622 138.607 49.474C140.743 48.8321 142.952 48.4864 145.187 48.5975C145.434 48.5975 145.434 48.9679 145.187 48.9679V48.9679Z" fill="#161616"/>
<path d="M121.139 51.0911C113.819 54.3625 105.597 53.9551 97.8697 52.5972C95.4502 52.1775 93.043 51.6713 90.6481 51.1529C90.4136 51.1035 90.5123 50.7455 90.7469 50.7949C98.5857 52.4614 106.696 54.1526 114.695 52.6836C116.843 52.2886 118.954 51.659 120.942 50.7702C121.164 50.6838 121.349 51.0047 121.139 51.0911V51.0911Z" fill="#161616"/>
<path d="M63.9592 77.8048C58.6881 79.854 53.0219 78.1628 48.0347 76.1259C45.3436 75.0273 42.6895 73.8175 39.912 72.9163C37.0974 72.0152 34.1964 71.3733 31.2584 71.0276C27.9995 70.6449 24.7035 70.6202 21.4321 70.9289C21.1976 70.9535 21.1976 70.5832 21.4321 70.5585C27.0736 70.0154 32.8015 70.5091 38.2578 72.0275C43.8005 73.5829 48.8248 76.6321 54.4539 77.8665C57.5647 78.5455 60.8484 78.6072 63.8605 77.4468C64.0827 77.3604 64.1814 77.7184 63.9592 77.8048V77.8048Z" fill="#161616"/>
<path d="M29.4315 65.3244C22.3334 63.2382 14.6797 63.4233 7.6927 65.8552C7.4705 65.9293 7.37174 65.5713 7.59394 65.4972C14.6427 63.053 22.3704 62.8678 29.5303 64.9664C29.7525 65.0281 29.6537 65.3861 29.4315 65.3244V65.3244Z" fill="#161616"/>
<path d="M73.9707 8.62577C71.3167 8.0826 68.6626 7.5271 65.9591 7.29255C63.2433 7.058 60.5769 7.23083 57.9104 7.73696C52.7998 8.72452 47.8249 10.3293 42.6155 10.8478C39.7639 11.1317 36.8876 11.0823 34.0731 10.5145C33.8385 10.4651 33.9373 10.1071 34.1718 10.1565C39.4183 11.2181 44.7635 10.3787 49.9112 9.20596C55.0342 8.04557 60.0461 6.49015 65.3666 6.86049C68.3046 7.07035 71.1932 7.66289 74.0695 8.25543C74.304 8.31715 74.2053 8.67514 73.9707 8.62577V8.62577Z" fill="#161616"/>
<path d="M57.0957 10.8231C48.8866 13.5142 40.27 15.8597 31.5424 14.8968C29.2093 14.6376 26.9009 14.1315 24.6788 13.3661C24.4566 13.292 24.5554 12.934 24.7776 13.0081C32.9621 15.8597 41.7884 14.8104 49.9852 12.6007C52.343 11.9712 54.6762 11.2305 56.9846 10.4775C57.2192 10.3911 57.3179 10.7491 57.0957 10.8231V10.8231Z" fill="#161616"/>
</svg>
