<svg id="Layer_1" data-name="Layer 1" xmlns="http://www.w3.org/2000/svg" viewBox="0 0 614.45 281.86"><defs><style>.cls-1{fill:none;}.cls-2{fill:#fff;}.cls-3{fill:#e30413;}.cls-4{fill:#ffe900;}</style></defs><rect width="614.45" height="281.86"/><rect class="cls-1" x="84.96" y="98.33" width="444.53" height="85.21"/><polygon class="cls-2" points="108.08 127.35 107.71 127.35 101 127.35 101 154.51 124.34 154.51 124.34 148.51 108.08 148.51 108.08 127.35"/><path class="cls-2" d="M150.18,142.14h-9.37c.49-.91,4.5-8.45,4.78-9,.32.62,4.12,8.09,4.59,9m.31-14.79H140.26l-14,27.16h8.2l3.24-6.35H153.3c.18.38,3.2,6.35,3.2,6.35h8.23l-14-27.16Z"/><polygon class="cls-2" points="166.63 127.35 166.63 154.51 173.72 154.51 173.72 127.35 173.37 127.35 166.63 127.35"/><path class="cls-2" d="M205.43,127.35v17.59c-1.16-1.12-17.63-17.59-17.63-17.59h-10v27.17h7V135.24l19.55,19.28h8.08V127.35h-7.07"/><path class="cls-2" d="M239.54,127.09H226.72c-7.39,0-10,2.61-10.11,10v8c.08,8.25,4.93,9.38,10.11,9.38h12.82c7.79,0,9.92-1.89,9.92-8.82v-7.84H232v5.85h10.27a6.81,6.81,0,0,1,.09,1.11,3.65,3.65,0,0,1-.11.93c-.52,1.57-1.33,2.33-4.51,2.33H228.4c-2.83,0-4.68-.3-4.73-4.29v-5.63c.06-3.87,1.18-5.07,4.73-5.07h9.34c3.7,0,4.41,1,4.45,2.78v.35h7.27v-.35c0-7.29-4-8.78-9.92-8.78"/><path class="cls-2" d="M290.17,139.9V144c-.06,4-1.08,4.17-4.59,4.17h-8.19c-3.73,0-4.71-.17-4.75-4.17v-5.76c.08-4,.84-4.34,4.75-4.34h8.19c3.73,0,4.53.4,4.59,4.35v1.66m-2.85-12.55H275.7c-7.79,0-10,2.08-10.13,9.74-.1,3.17-.06,4.75,0,7.87v.18c.1,8,3.2,9.38,10.13,9.38h11.62c6.87,0,9.76-1.3,9.93-9.38,0-2.39,0-5.33,0-8-.09-8.15-3.7-9.74-9.93-9.74"/><polygon class="cls-2" points="300.5 127.29 301.41 136.67 304.6 136.67 305.52 127.29 305.12 127.29 300.5 127.29"/><path class="cls-2" d="M316.83,134.4H329.7c2.17,0,3.25.91,3.25,2.76,0,1.49-.54,2.48-3.1,2.48h-13V134.4m19.8,9.39c1.21-.79,3.13-2.71,3.13-6.78,0-6.66-4.82-9.66-9.57-9.66H309.76v27.17h7.07v-7.86h11.89c4,0,4.68,1.09,4.68,3.39v4.47h7.05v-5.84a4.68,4.68,0,0,0-3.82-4.89"/><path class="cls-2" d="M368.56,139.9l0,4.09c-.08,4-1.1,4.17-4.61,4.17h-8.17C352,148.16,351,148,351,144v-5.76c.06-4,.84-4.34,4.74-4.34h8.17c3.51,0,4.53.19,4.61,4.35l0,1.66m-2.87-12.55H354c-7.78,0-10,2.08-10.1,9.74-.11,3.08-.07,4.7,0,7.63v.42c.08,8,3.19,9.38,10.1,9.38h11.66c6.86,0,9.76-1.3,9.92-9.38,0-2.39,0-5.33,0-8-.07-8.16-3.7-9.75-9.92-9.75"/><path class="cls-2" d="M404.2,127.35v16.74c0,3.73-1.3,4.39-4.25,4.43h-8.74c-3.43,0-4.48-1.08-4.48-4.38V127.35h-7v17.39c0,7,2.75,9.69,10.13,9.78,3.39,0,8.29,0,11.63,0,7.25-.09,9.8-2.64,9.8-9.78V127.35H404.2"/><path class="cls-2" d="M422.53,134.4h12.85c2.18,0,3.22.91,3.22,2.76,0,1.49-.53,2.48-3.06,2.48h-13V134.4m19.78,9.39c1.22-.81,3.16-2.71,3.16-6.78,0-6.66-4.81-9.66-9.59-9.66H415.4v27.17h7.13v-7.86h11.85c4,0,4.68,1.09,4.68,3.39v4.47h7.09v-5.84a4.69,4.69,0,0,0-3.84-4.89"/><path class="cls-2" d="M482.53,127.35h-8.62s-13.77,9.18-13.94,9.31h-2.66v-9.31h-7.05v27.17h7.05V142.67H460l14.13,11.85h9.15s-17.24-14.12-18-14.69c.78-.51,18.36-12.48,18.36-12.48h-1.16"/><polygon class="cls-2" points="513.44 133.33 513.44 127.35 513.07 127.35 485.65 127.35 485.65 154.52 513.44 154.52 513.44 148.52 492.73 148.52 492.73 143.51 512.79 143.51 512.79 137.49 492.73 137.49 492.73 133.33 513.44 133.33"/><rect class="cls-3" x="84.96" y="183.54" width="444.53" height="12.99"/><rect class="cls-4" x="84.96" y="85.31" width="444.53" height="13.02"/></svg>