<svg width="122" height="108" viewBox="0 0 122 108" fill="none" xmlns="http://www.w3.org/2000/svg">
<path d="M27.0907 87.3107C18.3968 87.3107 9.70291 87.3107 1.00901 87.3107C0.815357 87.3107 0.815357 87.6165 1.00901 87.6165C9.70291 87.6165 18.3968 87.6165 27.0907 87.6165C27.2844 87.6165 27.2844 87.3107 27.0907 87.3107V87.3107Z" fill="#161616"/>
<path d="M58.238 85.7819C65.4948 85.7819 72.7414 85.7819 79.9983 85.7819C82.0571 85.7819 84.1159 85.7819 86.1747 85.7819C86.3683 85.7819 86.3683 85.4762 86.1747 85.4762C78.9179 85.4762 71.6713 85.4762 64.4145 85.4762C62.3556 85.4762 60.2968 85.4762 58.238 85.4762C58.0444 85.4762 58.0444 85.7819 58.238 85.7819V85.7819Z" fill="#161616"/>
<path d="M87.8562 85.7819C93.4313 85.7819 99.0064 85.7819 104.581 85.7819C104.775 85.7819 104.775 85.4762 104.581 85.4762C99.0064 85.4762 93.4313 85.4762 87.8562 85.4762C87.6625 85.4762 87.6625 85.7819 87.8562 85.7819V85.7819Z" fill="#161616"/>
<path d="M107.038 85.7819C108.006 85.7819 108.984 85.7819 109.953 85.7819C110.146 85.7819 110.146 85.4762 109.953 85.4762C108.984 85.4762 108.006 85.4762 107.038 85.4762C106.844 85.4762 106.834 85.7819 107.038 85.7819V85.7819Z" fill="#161616"/>
<path d="M93.3087 85.4354C93.3087 82.0108 93.3087 78.5761 93.3087 75.1515C93.3087 74.9578 93.0029 74.9578 93.0029 75.1515C93.0029 78.5761 93.0029 82.0108 93.0029 85.4354C93.0029 85.629 93.3087 85.629 93.3087 85.4354V85.4354Z" fill="#E8E8E8"/>
<path d="M93.2175 75.3044C99.3634 75.3044 105.519 75.3044 111.665 75.3044C111.859 75.3044 111.859 74.9986 111.665 74.9986C105.519 74.9986 99.3634 74.9986 93.2175 74.9986C93.0239 74.9986 93.0239 75.3044 93.2175 75.3044V75.3044Z" fill="#E8E8E8"/>
<path d="M111.573 75.4063C111.573 78.6678 111.573 81.9293 111.573 85.1908C111.573 85.3844 111.879 85.3844 111.879 85.1908C111.879 81.9293 111.879 78.6678 111.879 75.4063C111.879 75.2025 111.573 75.2025 111.573 75.4063V75.4063Z" fill="#E8E8E8"/>
<path d="M94.9297 76.3338C94.9297 78.7799 94.9297 81.2362 94.9297 83.6823C94.9297 83.876 95.2355 83.876 95.2355 83.6823C95.2355 81.2362 95.2355 78.7799 95.2355 76.3338C95.2355 76.1402 94.9297 76.1402 94.9297 76.3338V76.3338Z" fill="#E8E8E8"/>
<path d="M97.3047 76.3949C97.3047 78.6168 97.3047 80.8387 97.3047 83.0606C97.3047 83.2543 97.6105 83.2543 97.6105 83.0606C97.6105 80.8387 97.6105 78.6168 97.6105 76.3949C97.6105 76.2013 97.3047 76.2013 97.3047 76.3949V76.3949Z" fill="#E8E8E8"/>
<path d="M99.9238 76.2115C99.9238 78.413 99.9238 80.6145 99.9238 82.816C99.9238 83.0097 100.23 83.0097 100.23 82.816C100.23 80.6145 100.23 78.413 100.23 76.2115C100.23 76.0178 99.9238 76.0178 99.9238 76.2115V76.2115Z" fill="#E8E8E8"/>
<path d="M102.604 76.6498C102.604 78.892 102.604 81.1343 102.604 83.3766C102.604 83.5702 102.91 83.5702 102.91 83.3766C102.91 81.1343 102.91 78.892 102.91 76.6498C102.91 76.4561 102.604 76.4459 102.604 76.6498V76.6498Z" fill="#E8E8E8"/>
<path d="M105.213 76.7721C105.213 79.0755 105.213 81.3789 105.213 83.6925C105.213 83.8862 105.519 83.8862 105.519 83.6925C105.519 81.3891 105.519 79.0857 105.519 76.7721C105.519 76.5784 105.213 76.5784 105.213 76.7721V76.7721Z" fill="#E8E8E8"/>
<path d="M108.455 76.8332C108.455 79.0143 108.455 81.1954 108.455 83.3766C108.455 83.5702 108.761 83.5702 108.761 83.3766C108.761 81.1954 108.761 79.0143 108.761 76.8332C108.761 76.6395 108.455 76.6395 108.455 76.8332V76.8332Z" fill="#E8E8E8"/>
<path d="M110.636 77.1492C110.636 79.1061 110.636 81.0528 110.636 83.0096C110.636 83.2033 110.942 83.2033 110.942 83.0096C110.942 81.0528 110.942 79.1061 110.942 77.1492C110.942 76.9453 110.636 76.9453 110.636 77.1492V77.1492Z" fill="#E8E8E8"/>
<path d="M86.3375 25.8521C94.1956 25.8521 102.064 25.8521 109.922 25.8521C112.154 25.8521 114.396 25.8521 116.629 25.8521C116.822 25.8521 116.822 25.5463 116.629 25.5463C108.77 25.5463 100.902 25.5463 93.0439 25.5463C90.8118 25.5463 88.5695 25.5463 86.3375 25.5463C86.1336 25.5463 86.1336 25.8521 86.3375 25.8521V25.8521Z" fill="#E8E8E8"/>
<path d="M86.4903 25.6075C86.4903 24.9348 86.4903 24.2723 86.4903 23.5996C86.4903 23.406 86.1846 23.406 86.1846 23.5996C86.1846 24.2723 86.1846 24.9348 86.1846 25.6075C86.1846 25.8113 86.4903 25.8113 86.4903 25.6075V25.6075Z" fill="#E8E8E8"/>
<path d="M86.3375 23.8442C94.1141 23.8442 101.891 23.8442 109.657 23.8442C111.889 23.8442 114.121 23.8442 116.353 23.8442C116.547 23.8442 116.547 23.5385 116.353 23.5385C108.577 23.5385 100.8 23.5385 93.0337 23.5385C90.8016 23.5385 88.5695 23.5385 86.3375 23.5385C86.1336 23.5385 86.1336 23.8442 86.3375 23.8442V23.8442Z" fill="#E8E8E8"/>
<path d="M116.292 23.7831C116.292 24.4558 116.292 25.1183 116.292 25.7909C116.292 25.9846 116.598 25.9846 116.598 25.7909C116.598 25.1183 116.598 24.4558 116.598 23.7831C116.598 23.5894 116.292 23.5894 116.292 23.7831V23.7831Z" fill="#E8E8E8"/>
<path d="M89.5277 15.823C89.6194 16.5161 89.7213 17.2295 89.6194 17.9328C89.5277 18.6055 89.2321 19.2068 88.9773 19.8285C88.4881 21.0006 88.2333 22.2237 88.2435 23.4875C88.2435 23.6811 88.5492 23.6811 88.5492 23.4875C88.5492 22.0402 88.9161 20.756 89.4767 19.4412C89.6806 18.9622 89.864 18.473 89.9354 17.9532C90.0271 17.2397 89.9354 16.5365 89.8436 15.823C89.8029 15.6294 89.4971 15.6294 89.5277 15.823V15.823Z" fill="#E8E8E8"/>
<path d="M89.7722 15.9555C90.1085 15.7924 90.4856 15.7313 90.8628 15.8128C91.0768 15.8638 91.1176 15.9861 91.1787 16.1695C91.2093 16.2613 91.2195 16.302 91.2806 16.3836C91.4029 16.5365 91.617 16.3224 91.4947 16.1695C91.4131 16.0676 91.4947 15.8638 91.3826 15.7415C91.2704 15.5988 91.0462 15.5478 90.8831 15.5172C90.4449 15.4357 90.0066 15.5071 89.6091 15.7007C89.4359 15.772 89.5887 16.037 89.7722 15.9555V15.9555Z" fill="#E8E8E8"/>
<path d="M91.189 16.0472C91.0973 17.2805 91.4133 18.371 91.984 19.4514C92.6669 20.7458 92.779 22.0912 92.8198 23.5385C92.83 23.7321 93.1357 23.7321 93.1256 23.5385C93.0848 22.3052 93.044 21.0312 92.5344 19.8897C92.2694 19.2883 91.9127 18.7482 91.719 18.1162C91.505 17.4436 91.4438 16.7505 91.4948 16.0472C91.5152 15.8536 91.1992 15.8536 91.189 16.0472V16.0472Z" fill="#E8E8E8"/>
<path d="M96.0203 23.4467C96.163 23.1715 96.0305 22.876 96.214 22.6415C96.4994 22.295 97.4065 22.3052 97.8142 22.2644C98.7213 22.1727 99.6182 22.1829 100.525 22.2542C101.432 22.3256 102.339 22.4479 103.257 22.4887C103.705 22.509 104.154 22.4988 104.602 22.4887C105.051 22.4785 106.284 22.6212 105.815 23.3856C105.713 23.5486 105.978 23.7117 106.08 23.5384C106.498 22.8658 105.805 22.2644 105.163 22.1829C104.602 22.1115 104.021 22.2033 103.45 22.1829C102.768 22.1625 102.085 22.0912 101.402 22.0198C100.107 21.8975 98.8232 21.8262 97.5288 21.979C97.0803 22.03 96.4076 22.03 96.0203 22.2848C95.633 22.5396 95.9286 22.9269 95.7553 23.2734C95.6636 23.4671 95.9286 23.6302 96.0203 23.4467V23.4467Z" fill="#E8E8E8"/>
<path d="M99.7505 21.9485C99.8422 21.7242 99.7913 21.5 99.8626 21.2758C100.046 20.705 100.77 20.8783 101.208 20.8783C102.023 20.8783 102.829 20.8783 103.644 20.8885C105.264 20.8885 106.885 20.8987 108.516 20.8987C108.465 20.8579 108.414 20.8273 108.373 20.7866C108.485 21.3064 108.577 21.8262 108.648 22.3562C108.669 22.5498 108.974 22.5498 108.954 22.3562C108.883 21.7956 108.791 21.2452 108.669 20.705C108.658 20.6439 108.587 20.5929 108.526 20.5929C106.569 20.5827 104.602 20.5827 102.645 20.5725C102.176 20.5725 101.697 20.5725 101.228 20.5725C100.872 20.5725 100.464 20.5114 100.107 20.5929C99.4447 20.7458 99.6792 21.3879 99.4855 21.8669C99.3836 22.0504 99.6792 22.1319 99.7505 21.9485V21.9485Z" fill="#E8E8E8"/>
<path d="M105.978 22.7333C106.865 22.7842 107.752 22.7639 108.628 22.6619C108.822 22.6415 108.822 22.3358 108.628 22.3562C107.741 22.4581 106.865 22.4785 105.978 22.4275C105.785 22.4071 105.785 22.7129 105.978 22.7333V22.7333Z" fill="#E8E8E8"/>
<path d="M105.948 20.7662C106.151 21.2962 106.243 21.8466 106.223 22.4173C106.213 22.611 106.518 22.611 106.528 22.4173C106.549 21.816 106.447 21.2452 106.243 20.6847C106.172 20.5012 105.876 20.5827 105.948 20.7662V20.7662Z" fill="#E8E8E8"/>
<path d="M112.511 14.2534C112.511 15.0994 112.511 15.9555 112.511 16.8014C112.511 17.6066 112.572 18.4526 112.419 19.2476C112.277 20.012 111.869 20.6337 111.461 21.2758C111.023 21.9892 110.625 22.7231 110.259 23.4773C110.177 23.6506 110.442 23.8136 110.524 23.6302C110.911 22.825 111.339 22.0402 111.818 21.2758C112.205 20.6643 112.572 20.0527 112.705 19.3291C112.837 18.5953 112.807 17.841 112.807 17.1072C112.807 16.1593 112.807 15.2013 112.807 14.2534C112.817 14.0598 112.511 14.0598 112.511 14.2534V14.2534Z" fill="#E8E8E8"/>
<path d="M112.766 14.4471C113.265 14.1719 113.826 14.1821 114.315 14.4674C114.488 14.5694 114.641 14.3044 114.468 14.2024C113.887 13.8559 113.194 13.8457 112.613 14.1821C112.44 14.2738 112.592 14.5388 112.766 14.4471V14.4471Z" fill="#E8E8E8"/>
<path d="M114.071 14.3553C114.071 15.293 114.06 16.2409 114.06 17.1786C114.06 17.9328 113.989 18.7278 114.091 19.482C114.193 20.1954 114.58 20.7254 114.998 21.286C115.518 21.9689 115.885 22.6823 116.068 23.5283C116.109 23.7219 116.405 23.6404 116.364 23.4467C116.221 22.7639 115.956 22.1218 115.569 21.5408C115.141 20.8987 114.56 20.3585 114.417 19.5635C114.264 18.7278 114.366 17.8105 114.366 16.9747C114.366 16.0982 114.376 15.2217 114.376 14.3451C114.376 14.1617 114.071 14.1617 114.071 14.3553V14.3553Z" fill="#E8E8E8"/>
<path d="M97.9365 29.1136C97.9365 32.9458 97.9365 36.7882 97.9365 40.6205C97.9365 40.8141 98.2423 40.8141 98.2423 40.6205C98.2423 36.7882 98.2423 32.9458 98.2423 29.1136C98.2423 28.9097 97.9365 28.9097 97.9365 29.1136V29.1136Z" fill="#E8E8E8"/>
<path d="M98.3132 29.1441C103.623 29.1441 108.933 29.1441 114.244 29.1441C114.437 29.1441 114.437 28.8384 114.244 28.8384C108.933 28.8384 103.623 28.8384 98.3132 28.8384C98.1196 28.8384 98.1196 29.1441 98.3132 29.1441V29.1441Z" fill="#E8E8E8"/>
<path d="M98.1299 40.753C103.206 40.753 108.281 40.753 113.367 40.753C113.561 40.753 113.561 40.4472 113.367 40.4472C108.292 40.4472 103.216 40.4472 98.1299 40.4472C97.9261 40.4472 97.9261 40.753 98.1299 40.753V40.753Z" fill="#E8E8E8"/>
<path d="M113.907 29.2053C113.907 33.007 113.907 36.7984 113.907 40.6001C113.907 40.7938 114.213 40.7938 114.213 40.6001C114.213 36.7984 114.213 33.007 114.213 29.2053C114.213 29.0116 113.907 29.0116 113.907 29.2053V29.2053Z" fill="#E8E8E8"/>
<path d="M113.276 40.804C113.479 40.804 113.693 40.804 113.897 40.804C114.091 40.804 114.091 40.4982 113.897 40.4982C113.693 40.4982 113.479 40.4982 113.276 40.4982C113.082 40.4982 113.082 40.804 113.276 40.804V40.804Z" fill="#E8E8E8"/>
<path d="M99.3327 32.5789C103.756 32.5891 108.19 32.5993 112.613 32.6095C112.807 32.6095 112.807 32.3037 112.613 32.3037C108.19 32.2935 103.756 32.2833 99.3327 32.2731C99.1391 32.2731 99.1391 32.5789 99.3327 32.5789V32.5789Z" fill="#E8E8E8"/>
<path d="M99.7502 35.5652C104.031 35.555 108.301 35.5448 112.582 35.5346C112.776 35.5346 112.776 35.2289 112.582 35.2289C108.301 35.239 104.031 35.2492 99.7502 35.2594C99.5566 35.2594 99.5566 35.5652 99.7502 35.5652V35.5652Z" fill="#E8E8E8"/>
<path d="M99.9953 38.5413C104.245 38.5413 108.496 38.5413 112.746 38.5413C112.939 38.5413 112.939 38.2355 112.746 38.2355C108.496 38.2355 104.245 38.2355 99.9953 38.2355C99.8017 38.2355 99.8017 38.5413 99.9953 38.5413V38.5413Z" fill="#E8E8E8"/>
<path d="M102.044 32.4668C102.044 34.4543 102.044 36.4417 102.044 38.4292C102.044 38.6228 102.35 38.6228 102.35 38.4292C102.35 36.4417 102.35 34.4543 102.35 32.4668C102.35 32.2731 102.044 32.2731 102.044 32.4668V32.4668Z" fill="#E8E8E8"/>
<path d="M105.642 32.5585C105.642 34.4441 105.642 36.3398 105.642 38.2254C105.642 38.419 105.947 38.419 105.947 38.2254C105.947 36.3398 105.947 34.4441 105.947 32.5585C105.947 32.3547 105.642 32.3547 105.642 32.5585V32.5585Z" fill="#E8E8E8"/>
<path d="M109.199 32.426C109.199 34.3421 109.199 36.2583 109.199 38.1846C109.199 38.3782 109.504 38.3782 109.504 38.1846C109.504 36.2685 109.504 34.3523 109.504 32.426C109.504 32.2324 109.199 32.2324 109.199 32.426V32.426Z" fill="#E8E8E8"/>
<path d="M112.429 32.5178C112.429 34.4339 112.429 36.35 112.429 38.2763C112.429 38.47 112.735 38.47 112.735 38.2763C112.735 36.3602 112.735 34.4441 112.735 32.5178C112.735 32.3139 112.429 32.3139 112.429 32.5178V32.5178Z" fill="#E8E8E8"/>
<path d="M100.495 36.0239C100.097 36.35 99.6793 36.8698 99.9647 37.41C100.067 37.6036 100.24 37.7565 100.464 37.7871C100.75 37.8279 100.974 37.6342 101.167 37.4508C101.31 37.3183 101.096 37.094 100.953 37.2367C100.8 37.3794 100.627 37.5527 100.413 37.4508C100.26 37.3794 100.179 37.1959 100.179 37.0329C100.179 36.7067 100.474 36.4417 100.709 36.2481C100.862 36.1156 100.648 35.9015 100.495 36.0239V36.0239Z" fill="#E8E8E8"/>
<path d="M103.98 37.2367C103.603 37.0635 103.522 36.5335 103.94 36.3398C104.194 36.2277 104.286 36.5335 104.317 36.7271C104.347 36.8902 104.266 37.3081 104.001 37.1348C103.838 37.0329 103.685 37.2979 103.848 37.3998C104.133 37.5833 104.49 37.3896 104.602 37.094C104.684 36.8596 104.612 36.615 104.531 36.3908C104.469 36.2175 104.398 36.0646 104.215 36.0035C103.858 35.9015 103.481 36.2175 103.379 36.5437C103.257 36.9208 103.471 37.3284 103.817 37.4915C104.001 37.5833 104.154 37.3183 103.98 37.2367V37.2367Z" fill="#E8E8E8"/>
<path d="M101.177 35.9933C101.157 35.9627 101.157 35.9219 101.198 35.9117C101.167 35.8913 101.136 35.8811 101.106 35.8608C101.147 35.9729 101.075 36.0952 101.075 36.2175C101.075 36.299 101.116 36.3806 101.187 36.4315C101.34 36.5436 101.544 36.4825 101.626 36.3194C101.666 36.2277 101.534 36.1563 101.493 36.2379C101.412 36.4009 101.208 36.3296 101.228 36.1563C101.238 36.0442 101.289 35.9423 101.248 35.82C101.238 35.7792 101.198 35.7486 101.157 35.769C101.034 35.8098 100.963 35.9627 101.045 36.0748C101.096 36.1563 101.228 36.0748 101.177 35.9933V35.9933Z" fill="#E8E8E8"/>
<path d="M104.735 35.9321C104.836 35.9117 104.928 35.8812 105.03 35.8608C105.122 35.8404 105.081 35.6875 104.989 35.7181C104.887 35.7385 104.796 35.769 104.694 35.7894C104.602 35.8098 104.643 35.9627 104.735 35.9321V35.9321Z" fill="#E8E8E8"/>
<path d="M104.684 35.9321C104.704 35.9831 104.714 36.0442 104.735 36.0952C104.745 36.1258 104.775 36.1563 104.806 36.1563C104.857 36.1461 104.928 36.136 104.969 36.1563C104.989 36.1665 105.01 36.1869 105.01 36.2073C105.01 36.2277 104.989 36.2073 105 36.2175C104.938 36.1461 104.826 36.2481 104.887 36.3296C104.979 36.4315 105.163 36.35 105.163 36.2175C105.163 36.0238 104.949 35.9933 104.806 36.0137C104.826 36.034 104.857 36.0544 104.877 36.0748C104.857 36.0238 104.847 35.9627 104.826 35.9117C104.806 35.7894 104.663 35.8302 104.684 35.9321V35.9321Z" fill="#E8E8E8"/>
<path d="M103.277 33.1802C103.318 33.5981 103.318 34.0058 103.267 34.4237C103.257 34.5256 103.41 34.5256 103.42 34.4237C103.461 34.0058 103.471 33.5981 103.43 33.1802C103.42 33.0783 103.267 33.0783 103.277 33.1802V33.1802Z" fill="#E8E8E8"/>
<path d="M103.43 33.8937C103.736 33.8631 103.94 33.5981 103.878 33.2924C103.858 33.2006 103.736 33.2312 103.726 33.3127C103.685 33.6898 103.675 34.0771 103.695 34.4543C103.695 34.5562 103.848 34.5562 103.848 34.4543C103.827 34.067 103.838 33.6898 103.878 33.3127C103.827 33.3229 103.777 33.3229 103.726 33.3331C103.766 33.537 103.624 33.7204 103.42 33.7408C103.338 33.751 103.338 33.9039 103.43 33.8937V33.8937Z" fill="#E8E8E8"/>
<path d="M104.296 33.0681C104.306 33.0477 104.306 33.0375 104.316 33.0172C104.296 33.0274 104.266 33.0274 104.245 33.0375C104.306 33.0579 104.316 33.1598 104.266 33.2006C104.215 33.2312 104.215 33.3229 104.286 33.3433C104.347 33.3535 104.398 33.3637 104.459 33.3739C104.449 33.3331 104.429 33.3025 104.418 33.2618C104.378 33.3331 104.327 33.3943 104.255 33.4248C104.164 33.4656 104.204 33.6083 104.296 33.5675C104.408 33.5166 104.5 33.4452 104.551 33.3331C104.571 33.2923 104.561 33.2312 104.51 33.221C104.449 33.2108 104.398 33.2006 104.337 33.1904C104.347 33.2414 104.347 33.2822 104.357 33.3331C104.531 33.221 104.49 32.956 104.296 32.8949C104.276 32.8847 104.245 32.8949 104.225 32.9152C104.164 32.9764 104.153 33.0375 104.164 33.1089C104.164 33.2108 104.306 33.17 104.296 33.0681V33.0681Z" fill="#E8E8E8"/>
<path d="M107.721 33.3433C107.252 33.0172 106.559 33.7918 106.814 34.2504C106.926 34.4543 107.191 34.5562 107.405 34.4543C107.609 34.3625 107.69 34.0772 107.456 33.965C107.446 34.016 107.446 34.0568 107.436 34.1077C107.548 34.0873 107.66 34.067 107.772 34.0466C107.864 34.0262 107.823 33.8835 107.731 33.9039C107.619 33.9243 107.507 33.9447 107.395 33.965C107.334 33.9752 107.313 34.0772 107.374 34.1077C107.425 34.2504 107.395 34.332 107.293 34.3421C107.252 34.3625 107.201 34.3625 107.16 34.3523C107.109 34.3421 107.048 34.3116 107.018 34.281C106.875 34.1485 106.906 33.9447 106.997 33.802C107.12 33.5981 107.405 33.3331 107.65 33.4962C107.721 33.5268 107.803 33.3943 107.721 33.3433V33.3433Z" fill="#E8E8E8"/>
<path d="M108.159 33.3433C108.179 33.4962 108.2 33.6593 108.22 33.8121C108.23 33.8937 108.251 33.9752 108.251 34.0466C108.251 34.0975 108.24 34.1383 108.24 34.1893C108.21 34.3319 108.118 34.3421 107.996 34.2402C108.006 34.1485 107.863 34.0975 107.853 34.1994C107.823 34.4339 108.067 34.5867 108.261 34.4441C108.373 34.3625 108.414 34.23 108.424 34.0975C108.434 33.8529 108.373 33.5879 108.342 33.3433C108.302 33.2414 108.149 33.2414 108.159 33.3433V33.3433Z" fill="#E8E8E8"/>
<path d="M107.976 33.2414C108.149 33.2822 108.312 33.3025 108.495 33.2923C108.597 33.2822 108.597 33.1293 108.495 33.1395C108.332 33.1497 108.179 33.1395 108.016 33.0987C107.914 33.0681 107.874 33.221 107.976 33.2414V33.2414Z" fill="#E8E8E8"/>
<path d="M106.457 36.299C106.498 36.6252 106.498 36.9411 106.457 37.2673C106.447 37.3692 106.6 37.359 106.61 37.2673C106.651 36.9309 106.651 36.5946 106.6 36.2583C106.59 36.1665 106.447 36.2073 106.457 36.299V36.299Z" fill="#E8E8E8"/>
<path d="M106.569 37.0023C106.946 37.1246 107.059 36.6863 107.059 36.4111C107.059 36.3092 106.916 36.3194 106.906 36.4111C106.875 36.7475 106.855 37.094 106.844 37.4405C106.844 37.5425 106.997 37.5425 106.997 37.4405C107.008 37.094 107.028 36.7577 107.059 36.4111C107.008 36.4111 106.957 36.4111 106.906 36.4111C106.906 36.5844 106.885 36.9411 106.61 36.8596C106.508 36.829 106.467 36.9819 106.569 37.0023V37.0023Z" fill="#E8E8E8"/>
<path d="M107.16 37.1755C107.17 37.2775 107.181 37.3794 107.17 37.4711C107.17 37.5119 107.211 37.5425 107.252 37.5527C107.303 37.5527 107.364 37.5628 107.415 37.5628C107.517 37.5628 107.517 37.41 107.415 37.41C107.364 37.41 107.303 37.3998 107.252 37.3998C107.283 37.4304 107.303 37.4507 107.334 37.4813C107.334 37.3794 107.334 37.2775 107.323 37.1857C107.313 37.145 107.293 37.1144 107.242 37.1042C107.191 37.1042 107.15 37.1348 107.16 37.1755V37.1755Z" fill="#E8E8E8"/>
<path d="M108.068 37.3488C107.966 37.2061 107.915 37.0431 107.904 36.8596C107.904 36.7475 107.915 36.4723 108.017 36.3908C108.231 36.2073 108.322 36.7271 108.333 36.8494C108.343 36.9411 108.343 37.0431 108.322 37.1348C108.312 37.2061 108.21 37.5425 108.047 37.3284C107.986 37.2469 107.884 37.359 107.935 37.4405C108.098 37.6444 108.353 37.5017 108.434 37.3081C108.547 37.0125 108.506 36.5538 108.322 36.299C108.139 36.0442 107.925 36.1971 107.833 36.4315C107.701 36.7577 107.752 37.1348 107.945 37.4202C107.986 37.5119 108.118 37.4304 108.068 37.3488V37.3488Z" fill="#E8E8E8"/>
<path d="M110.738 33.4962C110.575 33.3637 110.361 33.3637 110.187 33.4758C109.973 33.6185 109.912 33.8937 109.892 34.1281C109.881 34.3523 109.943 34.5766 110.197 34.6071C110.452 34.6377 110.626 34.4339 110.768 34.2402C110.829 34.1587 110.697 34.0873 110.636 34.1587C110.544 34.281 110.432 34.4339 110.259 34.4441C110.034 34.4543 110.034 34.2097 110.045 34.0568C110.065 33.8122 110.299 33.3331 110.615 33.5879C110.697 33.6695 110.809 33.5574 110.738 33.4962V33.4962Z" fill="#E8E8E8"/>
<path d="M111.247 34.2504C111.186 34.1689 111.135 34.0772 111.115 33.9752C111.094 33.8937 111.064 33.7102 111.115 33.6389C111.166 33.6185 111.217 33.5879 111.268 33.5675C111.308 33.5981 111.339 33.6491 111.359 33.7C111.38 33.7408 111.39 33.7918 111.4 33.8325C111.41 33.8937 111.431 33.9548 111.421 34.016C111.41 34.0873 111.329 34.2402 111.227 34.1383C111.156 34.067 111.054 34.1791 111.115 34.2504C111.247 34.3829 111.461 34.3218 111.543 34.1587C111.635 33.965 111.543 33.6287 111.4 33.486C111.237 33.3331 111.033 33.4147 110.972 33.6185C110.901 33.8733 110.972 34.1383 111.125 34.3421C111.176 34.4033 111.308 34.332 111.247 34.2504V34.2504Z" fill="#E8E8E8"/>
<path d="M111.533 33.1497C111.533 33.1598 111.533 33.1598 111.533 33.1497C111.543 33.1497 111.563 33.1395 111.584 33.1395C111.563 33.1395 111.584 33.2822 111.594 33.3127C111.604 33.3331 111.614 33.3535 111.625 33.3739C111.655 33.4146 111.696 33.435 111.747 33.4452C111.839 33.4656 111.941 33.4248 111.981 33.3331C112.022 33.2414 111.89 33.17 111.849 33.2516C111.828 33.3025 111.757 33.3025 111.737 33.2516C111.706 33.17 111.706 33.0885 111.594 33.0681C111.512 33.0579 111.451 33.1293 111.472 33.2006C111.492 33.272 111.584 33.3025 111.645 33.2516C111.716 33.1904 111.604 33.0885 111.533 33.1497V33.1497Z" fill="#E8E8E8"/>
<path d="M99.8832 33.2516C99.8323 33.7816 99.8221 34.3218 99.8526 34.8517C99.8526 34.9537 100.006 34.9537 100.006 34.8517C99.9851 34.3218 99.9953 33.7816 100.036 33.2516C100.036 33.1497 99.8832 33.1497 99.8832 33.2516V33.2516Z" fill="#E8E8E8"/>
<path d="M100.016 33.5777C100.219 33.5573 100.321 33.6185 100.311 33.751C100.311 33.8121 100.311 33.8631 100.291 33.9243C100.26 34.067 100.199 34.1893 100.046 34.2504C99.9849 34.2708 99.9646 34.3829 100.046 34.3931C100.342 34.4543 100.586 34.5969 100.76 34.8416C100.821 34.9231 100.953 34.8416 100.892 34.76C100.688 34.4848 100.423 34.3116 100.087 34.2402C100.087 34.2912 100.087 34.3421 100.087 34.3829C100.454 34.2402 100.627 33.6083 100.311 33.3229C100.046 33.0885 99.6384 33.4045 99.9034 33.6695C99.9747 33.751 100.087 33.6491 100.016 33.5777V33.5777Z" fill="#E8E8E8"/>
<path d="M101.106 34.5562C101.096 34.5969 101.106 34.6683 101.116 34.7193C101.126 34.7804 101.147 34.8314 101.198 34.8619C101.29 34.9333 101.412 34.8823 101.514 34.8416C101.606 34.8008 101.524 34.6683 101.432 34.7091C101.402 34.7294 101.361 34.7498 101.32 34.7498C101.269 34.7498 101.269 34.7091 101.269 34.6581C101.269 34.5868 101.259 34.5154 101.218 34.4543C101.147 34.3727 100.984 34.3931 100.963 34.5052C100.943 34.6071 101.086 34.6479 101.106 34.5562V34.5562Z" fill="#E8E8E8"/>
<path d="M109.892 36.3092C109.902 36.7883 109.902 37.2673 109.872 37.7361C109.861 37.8177 110.004 37.8381 110.024 37.7565C110.035 37.7157 110.045 37.675 110.055 37.6444C110.075 37.5527 109.933 37.5119 109.912 37.6036C109.902 37.6444 109.892 37.6852 109.882 37.7157C109.933 37.7259 109.984 37.7259 110.035 37.7361C110.065 37.2571 110.075 36.7781 110.055 36.3092C110.035 36.2073 109.882 36.2073 109.892 36.3092V36.3092Z" fill="#E8E8E8"/>
<path d="M109.892 36.3602C109.973 36.7679 110.095 37.1654 110.259 37.5527C110.289 37.6342 110.401 37.624 110.411 37.5323C110.473 37.0838 110.524 36.6456 110.585 36.1971C110.595 36.0952 110.442 36.1054 110.432 36.1971C110.371 36.6456 110.32 37.0838 110.259 37.5323C110.31 37.5221 110.36 37.5221 110.411 37.5119C110.248 37.1246 110.126 36.7271 110.045 36.3194C110.014 36.2175 109.871 36.2583 109.892 36.3602V36.3602Z" fill="#E8E8E8"/>
<path d="M110.85 37.5017C110.809 37.4304 110.758 37.3386 110.768 37.2571C110.778 37.2163 110.829 37.1348 110.88 37.1654C110.931 37.1858 110.921 37.3386 110.911 37.3896C110.901 37.4406 110.84 37.5425 110.778 37.4711C110.717 37.3998 110.605 37.5017 110.666 37.5832C110.758 37.6852 110.931 37.6546 111.013 37.5425C111.094 37.4202 111.105 37.1756 111.003 37.0634C110.911 36.9615 110.748 37.0125 110.677 37.1042C110.554 37.2469 110.646 37.4406 110.717 37.5832C110.768 37.6648 110.901 37.5832 110.85 37.5017V37.5017Z" fill="#E8E8E8"/>
<path d="M111.258 36.1971C111.319 36.6863 111.339 37.1654 111.309 37.6546C111.298 37.7565 111.451 37.7565 111.462 37.6546C111.492 37.1654 111.472 36.6863 111.411 36.1971C111.39 36.1054 111.237 36.1054 111.258 36.1971V36.1971Z" fill="#E8E8E8"/>
<path d="M111.431 36.5029C111.42 36.4213 111.41 36.3092 111.512 36.2888C111.614 36.2685 111.665 36.3908 111.675 36.4723C111.696 36.6354 111.594 36.7984 111.461 36.8902C111.38 36.9411 111.451 37.0736 111.543 37.0227C111.798 36.8596 111.961 36.4723 111.726 36.2175C111.645 36.1258 111.502 36.085 111.4 36.1563C111.278 36.2379 111.278 36.401 111.298 36.5335C111.298 36.6354 111.451 36.5946 111.431 36.5029V36.5029Z" fill="#E8E8E8"/>
<path d="M111.777 35.8506C111.726 35.9627 111.767 36.0952 111.848 36.1767C111.93 36.2481 112.093 36.2786 112.154 36.1563C112.195 36.0646 112.062 35.9933 112.021 36.0748C112.011 36.0952 112.032 36.085 112.021 36.085C112.011 36.085 112.001 36.085 111.991 36.085C111.971 36.0748 111.95 36.0544 111.94 36.034C111.909 35.9831 111.909 35.9321 111.93 35.8811C111.95 35.8404 111.909 35.7996 111.879 35.7894C111.828 35.7894 111.797 35.82 111.777 35.8506V35.8506Z" fill="#E8E8E8"/>
<path d="M99.231 32.426C99.231 34.4033 99.231 36.3704 99.231 38.3477C99.231 38.5413 99.5367 38.5413 99.5367 38.3477C99.5367 36.3704 99.5367 34.4033 99.5367 32.426C99.5367 32.2324 99.231 32.2324 99.231 32.426V32.426Z" fill="#E8E8E8"/>
<path d="M99.4245 38.5413C103.848 38.5413 108.271 38.5413 112.695 38.5413C112.888 38.5413 112.888 38.2355 112.695 38.2355C108.271 38.2355 103.848 38.2355 99.4245 38.2355C99.2309 38.2355 99.2309 38.5413 99.4245 38.5413V38.5413Z" fill="#E8E8E8"/>
<path d="M1.73242 63.5834C1.73242 66.2639 1.73242 68.9343 1.73242 71.6148C1.73242 71.8085 2.03819 71.8085 2.03819 71.6148C2.03819 68.9343 2.03819 66.2639 2.03819 63.5834C2.03819 63.3898 1.73242 63.3898 1.73242 63.5834V63.5834Z" fill="#E8E8E8"/>
<path d="M2.22173 63.7363C7.42992 63.7363 12.6381 63.7363 17.8361 63.7363C18.0298 63.7363 18.0298 63.4305 17.8361 63.4305C12.6279 63.4305 7.41973 63.4305 2.22173 63.4305C2.01789 63.4305 2.01789 63.7363 2.22173 63.7363V63.7363Z" fill="#E8E8E8"/>
<path d="M2.22173 71.8798C7.17511 71.8798 12.1183 71.8798 17.0717 71.8798C17.2653 71.8798 17.2653 71.5741 17.0717 71.5741C12.1183 71.5741 7.17511 71.5741 2.22173 71.5741C2.01789 71.5741 2.01789 71.8798 2.22173 71.8798V71.8798Z" fill="#E8E8E8"/>
<path d="M17.5713 63.8076C17.5713 66.2639 17.5713 68.7202 17.5713 71.1765C17.5713 71.3702 17.8771 71.3702 17.8771 71.1765C17.8771 68.7202 17.8771 66.2639 17.8771 63.8076C17.8771 63.614 17.5713 63.614 17.5713 63.8076V63.8076Z" fill="#E8E8E8"/>
<path d="M8.99951 59.4046C8.99951 60.2506 8.99951 61.0863 8.99951 61.9323C8.99951 62.1259 9.30528 62.1259 9.30528 61.9323C9.30528 61.0863 9.30528 60.2506 9.30528 59.4046C9.30528 59.211 8.99951 59.211 8.99951 59.4046V59.4046Z" fill="#E8E8E8"/>
<path d="M9.25461 59.5575C12.6282 59.5575 16.0018 59.5575 19.3754 59.5575C19.5691 59.5575 19.5691 59.2517 19.3754 59.2517C16.0018 59.2517 12.6282 59.2517 9.25461 59.2517C9.06096 59.2517 9.06096 59.5575 9.25461 59.5575V59.5575Z" fill="#E8E8E8"/>
<path d="M9.36643 62.1973C12.6279 62.1973 15.8894 62.1973 19.1509 62.1973C19.3445 62.1973 19.3445 61.8915 19.1509 61.8915C15.8894 61.8915 12.6279 61.8915 9.36643 61.8915C9.17278 61.8915 9.17278 62.1973 9.36643 62.1973V62.1973Z" fill="#E8E8E8"/>
<path d="M19.1104 59.8429C19.1104 60.536 19.1104 61.2392 19.1104 61.9323C19.1104 62.1259 19.4161 62.1259 19.4161 61.9323C19.4161 61.2392 19.4161 60.536 19.4161 59.8429C19.4161 59.6492 19.1104 59.6492 19.1104 59.8429V59.8429Z" fill="#E8E8E8"/>
<path d="M26.4488 8.37254C27.152 8.34196 27.8451 8.26043 28.528 8.12793C28.7216 8.08716 28.6401 7.79159 28.4464 7.83236C27.784 7.95466 27.1215 8.0362 26.4488 8.06678C26.2449 8.07697 26.2449 8.38273 26.4488 8.37254V8.37254Z" fill="#E8E8E8"/>
<path d="M28.5275 7.93427C28.2319 6.83352 28.2319 5.68181 28.5683 4.59125C28.8536 3.64338 29.7098 1.99225 30.9634 2.5834C32.0234 3.08281 32.1661 4.58106 32.3394 5.60027C32.5534 6.81314 32.6553 8.04639 32.6757 9.27964C32.6757 9.47329 32.9815 9.47329 32.9815 9.27964C32.9509 7.73043 32.7878 6.19142 32.4719 4.67279C32.2578 3.66376 31.8501 2.28782 30.6169 2.16552C29.5263 2.0636 28.8027 3.14396 28.446 4.02049C27.9364 5.29451 27.8752 6.70102 28.2319 8.01581C28.2829 8.20946 28.5785 8.12793 28.5275 7.93427V7.93427Z" fill="#E8E8E8"/>
<path d="M26.5504 7.93428C26.1733 6.28315 26.3466 4.51991 27.0906 2.99109C27.7531 1.64572 29.0475 0.330937 30.6375 0.300361C32.3905 0.269784 33.5626 1.82918 34.0518 3.34781C34.6022 5.0499 34.7347 6.92526 34.7245 8.70888C34.7245 8.90254 35.0303 8.90254 35.0303 8.70888C35.0405 7.05776 34.908 5.36586 34.4901 3.76569C34.1639 2.51206 33.5524 1.27881 32.4415 0.544972C30.1075 -1.00423 27.59 1.024 26.6625 3.19493C26.0102 4.72375 25.8777 6.40546 26.2446 8.02601C26.2956 8.20947 26.5912 8.12793 26.5504 7.93428V7.93428Z" fill="#E8E8E8"/>
<path d="M32.7164 9.51406C33.5216 10.0135 34.6122 9.62617 34.9587 8.75984C35.03 8.57638 34.7345 8.49484 34.6631 8.6783C34.3879 9.37137 33.5012 9.64656 32.8795 9.24906C32.7062 9.14714 32.5533 9.41214 32.7164 9.51406V9.51406Z" fill="#E8E8E8"/>
<path d="M26.0508 12.215C26.0508 14.8038 26.0508 17.3824 26.0508 19.9712C26.0508 20.1649 26.3565 20.1649 26.3565 19.9712C26.3565 17.3824 26.3565 14.8038 26.3565 12.215C26.3565 12.0213 26.0508 12.0213 26.0508 12.215V12.215Z" fill="#E8E8E8"/>
<path d="M26.3158 12.4392C29.3633 11.9194 32.3598 11.1856 35.2951 10.2377C35.4786 10.1766 35.397 9.88098 35.2136 9.94213C32.2782 10.9002 29.2818 11.634 26.2343 12.1436C26.0407 12.1742 26.1324 12.4698 26.3158 12.4392V12.4392Z" fill="#E8E8E8"/>
<path d="M35.3564 10.4212C35.3564 12.8469 35.3564 15.2624 35.3564 17.6882C35.3564 17.8818 35.6622 17.8818 35.6622 17.6882C35.6622 15.2624 35.6622 12.8469 35.6622 10.4212C35.6622 10.2275 35.3564 10.2275 35.3564 10.4212V10.4212Z" fill="#E8E8E8"/>
<path d="M26.3978 20.3177C29.4249 19.8387 32.4112 19.1151 35.3262 18.157C35.5096 18.0959 35.4281 17.8003 35.2446 17.8614C32.3297 18.8195 29.3434 19.5431 26.3163 20.0222C26.1226 20.0527 26.2042 20.3483 26.3978 20.3177V20.3177Z" fill="#E8E8E8"/>
<path d="M30.76 14.9363C30.6581 14.6713 30.5358 14.3757 30.5256 14.0903C30.5154 13.7438 30.7498 13.2852 31.1575 13.3871C31.7792 13.54 31.6059 14.5388 31.3817 14.9261C31.2798 15.0994 31.5448 15.2522 31.6467 15.079C31.983 14.5082 32.0748 13.2036 31.1779 13.0609C30.8211 13.01 30.4848 13.2546 30.3217 13.5705C30.0873 14.0394 30.281 14.5796 30.4542 15.028C30.5358 15.2013 30.8313 15.1197 30.76 14.9363V14.9363Z" fill="#E8E8E8"/>
<path d="M30.5149 14.9057C30.5557 15.6396 30.5964 16.3836 30.6372 17.1174C30.6576 17.4436 30.8207 17.627 31.1876 17.5455C31.5341 17.4639 31.7074 17.1684 31.7481 16.8422C31.7889 16.5059 31.6972 16.1594 31.6666 15.8332C31.636 15.4459 31.636 15.0586 31.6666 14.6611C31.6768 14.4675 31.371 14.4675 31.3608 14.6611C31.3405 15.0484 31.3303 15.4357 31.3608 15.8332C31.3812 16.0982 31.636 17.1276 31.2182 17.2091C30.7901 17.2907 30.9022 16.3734 30.8818 16.1186C30.8614 15.7211 30.841 15.3134 30.8105 14.9159C30.8105 14.7121 30.5047 14.7121 30.5149 14.9057V14.9057Z" fill="#E8E8E8"/>
<path d="M53.1621 9.2083C53.1621 11.3996 53.1621 13.5909 53.1621 15.7822C53.1621 15.9759 53.4679 15.9759 53.4679 15.7822C53.4679 13.5909 53.4679 11.3996 53.4679 9.2083C53.4679 9.01465 53.1621 9.01465 53.1621 9.2083V9.2083Z" fill="#E8E8E8"/>
<path d="M47.0774 16.4345C50.8994 16.4345 54.7113 16.4345 58.5333 16.4345C58.727 16.4345 58.727 16.1288 58.5333 16.1288C54.7113 16.1288 50.8994 16.1288 47.0774 16.1288C46.8837 16.1288 46.8837 16.4345 47.0774 16.4345V16.4345Z" fill="#E8E8E8"/>
<path d="M57.0356 16.7912C57.0356 18.5341 57.0356 20.277 57.0356 22.0096C57.0356 22.2033 57.3414 22.2033 57.3414 22.0096C57.3414 20.2668 57.3414 18.5239 57.3414 16.7912C57.3414 16.5976 57.0356 16.5976 57.0356 16.7912V16.7912Z" fill="#E8E8E8"/>
<path d="M2.42551 39.0203C6.13545 39.0203 9.8352 39.0203 13.5451 39.0203C13.7388 39.0203 13.7388 38.7146 13.5451 38.7146C9.8352 38.7146 6.13545 38.7146 2.42551 38.7146C2.23186 38.7146 2.23186 39.0203 2.42551 39.0203V39.0203Z" fill="#E8E8E8"/>
<path d="M8.65342 38.5311C8.65342 37.5731 8.65342 36.6252 8.65342 35.6671C8.65342 35.4735 8.34766 35.4735 8.34766 35.6671C8.34766 36.6252 8.34766 37.5731 8.34766 38.5311C8.34766 38.7248 8.65342 38.7248 8.65342 38.5311V38.5311Z" fill="#E8E8E8"/>
<path d="M12.0469 39.3669C12.0469 40.488 12.0469 41.6091 12.0469 42.7405C12.0469 42.9341 12.3526 42.9341 12.3526 42.7405C12.3526 41.6193 12.3526 40.4982 12.3526 39.3669C12.3526 39.1732 12.0469 39.1732 12.0469 39.3669V39.3669Z" fill="#E8E8E8"/>
<path d="M91.0569 58.5587C95.6637 58.5587 100.271 58.5587 104.877 58.5587C105.071 58.5587 105.071 58.2529 104.877 58.2529C100.271 58.2529 95.6637 58.2529 91.0569 58.2529C90.8632 58.2529 90.8632 58.5587 91.0569 58.5587V58.5587Z" fill="#E8E8E8"/>
<path d="M99.6383 58.2427C99.6383 57.2337 99.6383 56.2247 99.6383 55.2055C99.6383 55.0118 99.3325 55.0118 99.3325 55.2055C99.3325 56.2145 99.3325 57.2235 99.3325 58.2427C99.3325 58.4364 99.6383 58.4364 99.6383 58.2427V58.2427Z" fill="#E8E8E8"/>
<path d="M97.7937 55.3583C101.392 55.3583 104.979 55.3583 108.577 55.3583C108.771 55.3583 108.771 55.0526 108.577 55.0526C104.979 55.0526 101.392 55.0526 97.7937 55.0526C97.6 55.0526 97.6 55.3583 97.7937 55.3583V55.3583Z" fill="#E8E8E8"/>
<path d="M10.5894 98.4711C17.2856 98.4711 23.9717 98.4711 30.6679 98.4711C30.8616 98.4711 30.8616 98.1654 30.6679 98.1654C23.9717 98.1654 17.2856 98.1654 10.5894 98.1654C10.3856 98.1654 10.3856 98.4711 10.5894 98.4711V98.4711Z" fill="#E8E8E8"/>
<path d="M19.1614 96.8302C26.4589 96.8302 33.7565 96.8302 41.0643 96.8302C41.2579 96.8302 41.2579 96.5244 41.0643 96.5244C33.7667 96.5244 26.4691 96.5244 19.1614 96.5244C18.9677 96.5244 18.9677 96.8302 19.1614 96.8302V96.8302Z" fill="#E8E8E8"/>
<path d="M33.5831 102.12C38.088 102.12 42.5827 102.12 47.0877 102.12C47.2813 102.12 47.2813 101.814 47.0877 101.814C42.5827 101.814 38.088 101.814 33.5831 101.814C33.3792 101.814 33.3792 102.12 33.5831 102.12V102.12Z" fill="#E8E8E8"/>
<path d="M51.1036 96.2798C53.9064 96.2798 56.6991 96.2798 59.5019 96.2798C59.6955 96.2798 59.6955 95.9741 59.5019 95.9741C56.6991 95.9741 53.9064 95.9741 51.1036 95.9741C50.8997 95.9741 50.8997 96.2798 51.1036 96.2798V96.2798Z" fill="#E8E8E8"/>
<path d="M74.0972 93.1814C80.1208 93.1814 86.1443 93.1814 92.1679 93.1814C92.3615 93.1814 92.3615 92.8756 92.1679 92.8756C86.1443 92.8756 80.1208 92.8756 74.0972 92.8756C73.8934 92.8756 73.8934 93.1814 74.0972 93.1814V93.1814Z" fill="#E8E8E8"/>
<path d="M86.8679 88.9822C94.0432 88.9822 101.229 88.9822 108.404 88.9822C108.598 88.9822 108.598 88.6765 108.404 88.6765C101.229 88.6765 94.0432 88.6765 86.8679 88.6765C86.6742 88.6765 86.6742 88.9822 86.8679 88.9822V88.9822Z" fill="#E8E8E8"/>
<path d="M99.4548 92.9979C106.63 92.9979 113.816 92.9979 120.991 92.9979C121.184 92.9979 121.184 92.6922 120.991 92.6922C113.816 92.6922 106.63 92.6922 99.4548 92.6922C99.2612 92.6922 99.2612 92.9979 99.4548 92.9979V92.9979Z" fill="#E8E8E8"/>
<path d="M91.0669 99.5617C94.2877 99.5617 97.5186 99.5617 100.739 99.5617C100.933 99.5617 100.933 99.256 100.739 99.256C97.5186 99.256 94.2877 99.256 91.0669 99.256C90.8631 99.256 90.8631 99.5617 91.0669 99.5617V99.5617Z" fill="#E8E8E8"/>
<path opacity="0.07" d="M42.8172 95.6683C37.7008 99.6636 32.5945 103.659 27.478 107.654C20.5983 104.658 13.7288 101.661 6.84912 98.6648C14.1365 94.6695 21.4239 90.6741 28.7113 86.6788C29.8426 86.5361 30.8414 86.5667 31.7078 86.6788C38.3836 87.5757 42.0936 94.2924 42.8172 95.6683Z" fill="#353535"/>
<path d="M27.4371 41.1301C27.3352 56.5508 27.2333 71.9614 27.1313 87.3821C32.1459 90.5416 37.1604 93.7012 42.175 96.8608C47.4953 93.1203 52.8156 89.3797 58.1461 85.629C58.1155 72.6544 58.0747 59.6696 58.0441 46.695C53.6105 42.8526 49.1872 38.9999 44.7536 35.1575C38.9746 37.145 33.2059 39.1324 27.4371 41.1301Z" fill="white"/>
<path d="M42.0732 54.1964C42.0732 65.3161 42.0732 76.4357 42.0732 87.5554C42.0732 90.6742 42.0732 93.793 42.0732 96.9117C42.0732 97.1054 42.379 97.1054 42.379 96.9117C42.379 85.7921 42.379 74.6725 42.379 63.5528C42.379 60.434 42.379 57.3152 42.379 54.1964C42.379 54.0028 42.0732 53.9926 42.0732 54.1964V54.1964Z" fill="#161616"/>
<path d="M57.9119 46.797C57.9323 56.9381 57.9424 67.0895 57.9628 77.2307C57.9628 80.0743 57.973 82.9077 57.973 85.7514C57.973 85.945 58.2788 85.945 58.2788 85.7514C58.2584 75.6102 58.2482 65.4588 58.2278 55.3176C58.2278 52.474 58.2176 49.6406 58.2176 46.797C58.2074 46.6033 57.9017 46.6033 57.9119 46.797V46.797Z" fill="#161616"/>
<path d="M27.3556 41.1913C31.7586 39.7134 36.1718 38.2355 40.5748 36.7577C41.6654 36.3908 42.7458 36.034 43.8363 35.6671C44.0708 35.5856 44.3561 35.4225 44.6109 35.5041C44.8046 35.5652 45.0696 35.8914 45.2327 36.034C45.6913 36.4315 46.1601 36.8188 46.6188 37.2163C48.3718 38.7044 50.1147 40.1924 51.8677 41.6805C53.8756 43.3928 55.8835 45.0949 57.8913 46.8071C57.9015 46.7256 57.9117 46.6441 57.9219 46.5625C52.7647 49.1513 47.5667 51.628 42.3075 54.013C42.3687 54.0232 42.4298 54.0334 42.491 54.0334C40.7991 52.5657 39.1072 51.0879 37.4153 49.6202C34.7042 47.2658 31.9931 44.9012 29.2819 42.5468C28.6602 42.0066 28.0487 41.4665 27.427 40.9263C27.325 40.8447 27.162 40.8957 27.162 41.0384C27.162 43.8208 27.162 46.6135 27.162 49.396C27.162 55.3074 27.162 61.2087 27.162 67.1201C27.162 72.471 27.162 77.8219 27.162 83.1727C27.162 84.4977 27.162 85.8125 27.162 87.1375C27.162 87.3413 27.1212 87.5146 27.2639 87.6573C27.3862 87.7898 27.6002 87.8713 27.7531 87.9732C28.0997 88.1975 28.4462 88.4115 28.7825 88.6357C33.1244 91.3978 37.456 94.1497 41.7979 96.9118C41.91 96.9831 42.0221 97.0544 42.1241 97.1258C42.1648 97.1564 42.2362 97.1564 42.2769 97.1258C47.5667 93.3649 52.8564 89.6142 58.1359 85.8533C58.299 85.7412 58.1461 85.4762 57.983 85.5883C55.2006 87.5656 52.4181 89.5428 49.6357 91.5201C48.2291 92.5189 46.8226 93.5178 45.4263 94.5166C44.7332 95.0058 44.0504 95.4951 43.3573 95.9843C43.0617 96.1983 42.6031 96.4123 42.3687 96.6875C42.2973 96.7691 42.3075 96.8506 42.2464 96.8506C42.1037 96.8506 41.7877 96.555 41.6756 96.4837C41.2679 96.2187 40.8602 95.9639 40.4423 95.6989C39.2091 94.9141 37.9758 94.1293 36.7426 93.3445C34.1232 91.673 31.5038 90.0117 28.8743 88.3402C28.5073 88.1057 28.1506 87.8815 27.7837 87.6471C27.692 87.5859 27.59 87.5044 27.4881 87.4636C27.4168 87.4331 27.3556 87.3311 27.4168 87.4636C27.4881 87.6165 27.4474 87.3923 27.4575 87.3311C27.4677 87.1477 27.4575 86.9642 27.4575 86.7808C27.4575 85.0685 27.4575 83.346 27.4575 81.6337C27.4575 78.7799 27.4575 75.9261 27.4575 73.0723C27.4575 69.7089 27.4575 66.3455 27.4575 62.9821C27.4575 59.6798 27.4575 56.3776 27.4575 53.0753C27.4575 50.4559 27.4575 47.8366 27.4575 45.2172C27.4575 44.361 27.4575 43.4947 27.4575 42.6386C27.4575 42.1901 27.5187 41.6907 27.4575 41.2422C27.4474 41.1811 27.4575 41.1199 27.4575 41.0588C27.3658 41.0995 27.2843 41.1301 27.1926 41.1709C28.8844 42.6386 30.5763 44.1164 32.2682 45.5841C34.9794 47.9385 37.6905 50.3031 40.4016 52.6574C41.0233 53.1976 41.6348 53.7378 42.2565 54.278C42.3177 54.329 42.3789 54.329 42.44 54.2984C47.689 51.9134 52.8972 49.4367 58.0544 46.8479C58.1359 46.8071 58.1563 46.6645 58.085 46.6033C54.4566 43.5151 50.8281 40.4269 47.1997 37.3386C46.7615 36.9615 46.3232 36.5946 45.885 36.2175C45.6811 36.0442 45.4773 35.871 45.2632 35.6875C45.1002 35.555 44.8148 35.2085 44.6109 35.1371C44.4682 35.0862 44.3459 35.1677 44.2032 35.2187C43.9179 35.3104 43.6325 35.4123 43.3369 35.5041C42.7662 35.6977 42.1852 35.8914 41.6144 36.085C39.3824 36.829 37.1401 37.5833 34.908 38.3273C32.3498 39.1834 29.8017 40.0396 27.2435 40.8957C27.0804 40.9569 27.162 41.2524 27.3556 41.1913V41.1913Z" fill="#161616"/>
<path d="M29.4654 88.5746C29.4654 86.5667 29.4654 84.569 29.4654 82.5612C29.4654 82.3675 29.1597 82.3675 29.1597 82.5612C29.1597 84.569 29.1597 86.5667 29.1597 88.5746C29.1597 88.7682 29.4654 88.7682 29.4654 88.5746V88.5746Z" fill="#161616"/>
<path d="M29.2413 82.4185C31.6262 83.7537 33.9806 85.15 36.2942 86.6075C36.4573 86.7094 36.6102 86.4444 36.4471 86.3425C34.1335 84.885 31.7791 83.4887 29.3941 82.1535C29.2209 82.0618 29.068 82.3268 29.2413 82.4185V82.4185Z" fill="#161616"/>
<path d="M36.243 86.5361C36.1105 88.6255 35.978 90.7251 35.8455 92.8145C35.8353 93.0082 36.141 93.0082 36.1512 92.8145C36.2837 90.7251 36.4162 88.6255 36.5487 86.5361C36.5589 86.3425 36.2532 86.3425 36.243 86.5361V86.5361Z" fill="#161616"/>
<path d="M30.444 84.6404C30.2707 86.0469 30.1688 87.4534 30.1484 88.8599C30.1484 89.0536 30.4542 89.0536 30.4542 88.8599C30.4746 87.4432 30.5765 86.0367 30.7498 84.6404C30.7804 84.4365 30.4746 84.4467 30.444 84.6404V84.6404Z" fill="#161616"/>
<path d="M32.0643 85.364C31.8809 86.8215 31.7484 88.279 31.677 89.7365C31.6668 89.9301 31.9726 89.9301 31.9828 89.7365C32.0643 88.279 32.1866 86.8113 32.3701 85.364C32.4006 85.1704 32.0949 85.1704 32.0643 85.364V85.364Z" fill="#161616"/>
<path d="M33.7361 86.4444C33.5119 87.9223 33.3488 89.4103 33.2571 90.8984C33.2469 91.092 33.5527 91.092 33.5628 90.8984C33.6546 89.4307 33.8075 87.9732 34.0317 86.5259C34.0623 86.3323 33.7667 86.2508 33.7361 86.4444V86.4444Z" fill="#161616"/>
<path d="M34.9796 87.1579C34.8879 88.4726 34.7961 89.7772 34.7146 91.092C34.7044 91.2857 35.0102 91.2857 35.0204 91.092C35.1121 89.7772 35.2038 88.4726 35.2854 87.1579C35.2956 86.9642 34.9898 86.9642 34.9796 87.1579V87.1579Z" fill="#161616"/>
<path d="M29.4455 81.3891C32.0445 82.7447 34.6027 84.1818 37.11 85.7004C37.2832 85.8023 37.4361 85.5373 37.2629 85.4354C34.7556 83.9168 32.1974 82.4695 29.5984 81.1241C29.4251 81.0324 29.262 81.2974 29.4455 81.3891V81.3891Z" fill="#161616"/>
<path d="M29.6285 81.1547C29.6285 80.6247 29.6285 80.1049 29.6285 79.5749C29.6285 79.3812 29.3228 79.3812 29.3228 79.5749C29.3228 80.1049 29.3228 80.6247 29.3228 81.1547C29.3228 81.3585 29.6285 81.3585 29.6285 81.1547V81.1547Z" fill="#161616"/>
<path d="M29.4551 79.5341C32.1764 80.8387 34.806 82.3268 37.3235 83.9779C37.4865 84.09 37.6394 83.825 37.4763 83.7129C34.9589 82.0516 32.3293 80.5737 29.608 79.2691C29.4347 79.1876 29.2819 79.4424 29.4551 79.5341V79.5341Z" fill="#161616"/>
<path d="M37.1602 84.0696C37.1092 84.5283 37.0583 84.9971 37.0073 85.4558C36.9869 85.6494 37.2927 85.6494 37.3131 85.4558C37.364 84.9971 37.415 84.5283 37.466 84.0696C37.4864 83.876 37.1806 83.876 37.1602 84.0696V84.0696Z" fill="#161616"/>
<path d="M43.245 55.4093C47.2097 53.6664 51.0929 51.7299 54.864 49.5998C55.0373 49.5081 54.8844 49.2431 54.7111 49.3348C50.9299 51.4548 47.0568 53.3913 43.0921 55.1443C42.9086 55.2258 43.0615 55.4908 43.245 55.4093V55.4093Z" fill="#161616"/>
<path d="M43.0005 55.2564C43.0005 56.1024 43.0005 56.9483 43.0005 57.7943C43.0005 57.9879 43.3063 57.9879 43.3063 57.7943C43.3063 56.9483 43.3063 56.1024 43.3063 55.2564C43.3063 55.0628 43.0005 55.0628 43.0005 55.2564V55.2564Z" fill="#161616"/>
<path d="M43.2862 57.7943C46.0483 56.5712 48.7492 55.2157 51.389 53.7378C51.5623 53.6461 51.4094 53.3811 51.2361 53.4728C48.5963 54.9507 45.8954 56.296 43.1333 57.5293C42.9601 57.6108 43.113 57.8758 43.2862 57.7943V57.7943Z" fill="#161616"/>
<path d="M43.1636 69.1076C43.1636 76.5071 43.1636 83.9066 43.1636 91.2959C43.1636 91.4895 43.4693 91.4895 43.4693 91.2959C43.4693 83.8964 43.4693 76.4969 43.4693 69.1076C43.4693 68.9139 43.1636 68.9139 43.1636 69.1076V69.1076Z" fill="#161616"/>
<path d="M44.02 81.1547C44.02 85.1704 44.02 89.1861 44.02 93.2018C44.02 93.3955 44.3258 93.3955 44.3258 93.2018C44.3258 89.1861 44.3258 85.1704 44.3258 81.1547C44.3258 80.961 44.02 80.961 44.02 81.1547V81.1547Z" fill="#161616"/>
<path d="M27.7837 43.4437C27.7837 48.6417 27.7837 53.8499 27.7837 59.0479C27.7837 59.2416 28.0895 59.2416 28.0895 59.0479C28.0895 53.8499 28.0895 48.6417 28.0895 43.4437C28.0895 43.2501 27.7837 43.2501 27.7837 43.4437V43.4437Z" fill="#161616"/>
<path d="M28.6606 54.7264C28.6606 60.7398 28.6606 66.7634 28.6606 72.7767C28.6606 72.9704 28.9664 72.9704 28.9664 72.7767C28.9664 66.7634 28.9664 60.7398 28.9664 54.7264C28.9664 54.5328 28.6606 54.5328 28.6606 54.7264V54.7264Z" fill="#161616"/>
<path opacity="0.06" d="M27.1924 41.1199C27.1924 56.5814 27.1924 72.0429 27.1924 87.5044C32.2069 90.664 37.2113 93.8235 42.2258 96.9831C42.2258 82.6631 42.2258 68.3431 42.2258 54.013C37.2113 49.7221 32.2069 45.421 27.1924 41.1199Z" fill="#353535"/>
<path opacity="0.1" d="M27.6205 46.5931C29.1392 53.9518 30.6272 60.0671 31.8095 64.6128C33.6441 71.6862 34.5818 74.438 35.8252 77.2511C37.9554 82.072 40.3607 85.7513 42.1443 88.1873C42.2055 81.0935 42.2565 74.01 42.3176 66.9162C42.817 76.8332 47.3016 83.0606 50.8586 82.9791C53.7328 82.9077 56.5458 78.7391 58.1154 73.6634C58.1154 77.7097 58.1154 81.7458 58.1154 85.7921C52.8461 89.4613 47.5768 93.1406 42.3176 96.8098C37.3336 93.6808 32.3497 90.5416 27.3657 87.4127C27.4473 73.8061 27.5288 60.1996 27.6205 46.5931Z" fill="#353535"/>
<path opacity="0.39" d="M60.2255 41.7722C55.5167 44.4324 50.8181 47.0925 46.1093 49.7527C43.3167 45.9714 40.5138 42.1799 37.7212 38.3986C43.1026 36.2888 48.4943 34.1689 53.8757 32.0591C55.9957 35.3002 58.1157 38.5311 60.2255 41.7722Z" fill="#EC615B"/>
<g opacity="0.39">
<path d="M39.4843 39.2548C40.0041 39.6013 40.5239 39.9478 41.0539 40.2944C41.1354 40.3453 41.2577 40.2944 41.2781 40.2026C41.5023 39.163 41.859 38.1846 42.3686 37.2571C42.4604 37.0838 42.1954 36.931 42.1037 37.1042C41.5839 38.0623 41.2169 39.0713 40.9825 40.1313C41.0539 40.1007 41.1354 40.0701 41.2067 40.0396C40.6869 39.693 40.1671 39.3465 39.6372 39C39.4741 38.8777 39.3212 39.1426 39.4843 39.2548V39.2548Z" fill="#EC615B"/>
</g>
<path d="M43.6733 37.1042C43.8465 36.8392 44.0809 36.6354 44.3765 36.5131C44.4682 36.4723 44.3867 36.3398 44.295 36.3806C43.979 36.5233 43.7242 36.7475 43.5408 37.0329C43.4898 37.1144 43.6223 37.1857 43.6733 37.1042V37.1042Z" fill="#EC615B"/>
<path d="M43.6836 37.7463C43.8874 37.1144 44.4582 36.6557 45.1207 36.5844C45.2226 36.5742 45.2226 36.4213 45.1207 36.4315C44.3868 36.5029 43.7651 36.9921 43.5409 37.7055C43.5103 37.7973 43.653 37.838 43.6836 37.7463V37.7463Z" fill="#EC615B"/>
<path d="M43.8569 38.2661C44.0811 37.3692 44.7131 36.7169 45.6813 37.0329C45.773 37.0634 45.8138 36.9208 45.7221 36.8902C44.6825 36.5436 43.9588 37.2469 43.7142 38.2253C43.6837 38.3171 43.8263 38.3578 43.8569 38.2661V38.2661Z" fill="#EC615B"/>
<path d="M44.1627 38.7655C44.1933 38.2661 44.2748 37.675 44.7539 37.3896C45.2227 37.1144 45.7527 37.3081 46.0992 37.675C46.1706 37.7463 46.2725 37.6342 46.2113 37.5629C45.8444 37.1756 45.3042 36.9717 44.7946 37.1959C44.1831 37.4609 44.0608 38.154 44.02 38.7553C44.0098 38.8573 44.1627 38.8573 44.1627 38.7655V38.7655Z" fill="#EC615B"/>
<path d="M44.6208 39.3465C44.7228 38.7655 44.2437 38.2355 44.7635 37.7361C45.1406 37.3794 45.6197 37.5629 45.9254 37.889C46.2006 38.1948 46.3127 38.5923 46.3637 38.9898C46.3739 39.0815 46.5268 39.0917 46.5166 38.9898C46.435 38.3171 46.007 37.2571 45.1304 37.3692C44.8145 37.41 44.5393 37.6852 44.417 37.9706C44.2233 38.4292 44.5597 38.8369 44.4782 39.2955C44.4578 39.3975 44.6107 39.4382 44.6208 39.3465V39.3465Z" fill="#EC615B"/>
<path d="M44.9576 39.5809C45.2735 39.0611 44.611 38.5617 44.876 38.0827C45.1512 37.5629 45.6914 37.9094 45.8749 38.2763C46.0685 38.684 46.0685 39.1426 45.9564 39.5707C45.936 39.6624 46.0787 39.7032 46.0991 39.6115C46.252 39.0203 46.1908 37.7056 45.3347 37.6648C45.0595 37.6546 44.7843 37.8482 44.7028 38.103C44.5397 38.5923 45.1206 39.0407 44.8353 39.4994C44.7741 39.5911 44.9066 39.6726 44.9576 39.5809V39.5809Z" fill="#EC615B"/>
<path d="M45.3145 39.693C45.4775 39.3057 45.4368 38.9388 45.2431 38.5821C45.2023 38.5209 45.1718 38.4496 45.1412 38.3782C45.3654 38.2254 45.4979 38.2661 45.5387 38.4802C45.5795 38.5821 45.61 38.684 45.6202 38.7961C45.6712 39.1121 45.6202 39.4178 45.5081 39.7134C45.4673 39.8051 45.6202 39.8459 45.6508 39.7542C45.7935 39.3974 45.8343 39.0203 45.7425 38.6534C45.6916 38.419 45.5591 38.0317 45.2635 38.0215C45.0698 38.0113 44.9577 38.1642 44.9679 38.3477C44.9781 38.5107 45.1004 38.6534 45.1616 38.7961C45.2839 39.0815 45.2737 39.3771 45.1514 39.6624C45.131 39.744 45.2737 39.7848 45.3145 39.693V39.693Z" fill="#EC615B"/>
<path d="M52.2143 45.1968C52.2449 45.0133 52.2551 44.8095 52.0818 44.6974C51.9085 44.5852 51.613 44.6974 51.4091 44.6872C51.083 44.6668 50.7568 44.5445 50.4511 44.4426C49.8293 44.2387 49.1974 43.9533 48.749 43.4437C48.5451 43.2093 48.2801 42.8322 48.2598 42.5061C48.219 41.7416 48.6573 42.3328 48.963 42.4143C49.1261 42.4551 49.2586 42.4449 49.2688 42.2614C49.279 42.1391 49.1771 42.078 49.0955 41.9863C48.8815 41.762 48.6776 41.548 48.484 41.3034C48.0967 40.7938 47.7909 40.223 47.6075 39.6115C47.5361 39.3771 47.3017 38.4598 47.7603 38.5209C47.9744 38.5413 48.3413 39.0407 48.4738 39.2038C48.5146 39.163 48.5451 39.1324 48.5859 39.0917C48.2903 38.7146 47.8011 38.154 47.8317 37.6444C47.8826 36.6659 49.014 37.6036 49.2178 37.9604C49.2586 37.9298 49.2994 37.8992 49.3401 37.8686C49.2076 37.7157 49.0038 37.4202 49.0038 37.1959C48.9834 36.5742 49.3299 36.8086 49.5745 36.9717C49.9007 37.1959 50.1351 37.5425 50.3695 37.8584C50.4307 37.94 50.5428 37.8686 50.502 37.7769C50.4307 37.6444 50.3797 37.5017 50.339 37.3488C50.2472 37.1552 50.3288 37.0533 50.604 37.0329C50.9811 36.8392 50.9505 36.8902 51.1951 37.1552C51.4703 37.4507 51.6843 37.7973 51.9085 38.1336C52.2755 38.7044 52.6933 39.214 53.101 39.744C53.366 40.0905 53.5801 40.4574 53.6922 40.8855C53.8043 41.3034 53.7941 41.7314 53.8552 42.1493C53.9266 42.6385 54.1304 43.0768 54.5993 43.301C54.691 43.3418 54.7624 43.2093 54.6808 43.1685C53.7228 42.7099 54.0591 41.2116 53.6718 40.3555C53.4985 39.9682 53.2335 39.6319 52.9583 39.3057C52.6016 38.8776 52.306 38.4394 52.0003 37.9705C51.7047 37.5119 51.1849 36.5335 50.553 36.5131C49.8497 36.4927 50.2167 37.4813 50.3695 37.8177C50.4103 37.7871 50.4613 37.7667 50.502 37.7361C50.2472 37.3794 49.5847 36.3806 49.0038 36.5742C48.4942 36.7475 49.0446 37.7055 49.2382 37.9298C49.2994 38.0011 49.4013 37.9094 49.3605 37.838C49.1771 37.5221 48.9222 37.2673 48.5961 37.1144C48.3923 37.0227 47.9642 36.8596 47.7705 37.0634C47.5769 37.2673 47.6788 37.7157 47.7603 37.9502C47.903 38.3986 48.1986 38.7859 48.4942 39.1528C48.5553 39.2344 48.6573 39.1223 48.6063 39.0407C48.4432 38.8369 47.903 38.1234 47.5667 38.2355C47.2813 38.3375 47.3527 38.949 47.373 39.1426C47.4546 39.7644 47.7603 40.3861 48.0865 40.9059C48.2394 41.1505 48.4126 41.3849 48.5961 41.5989C48.6878 41.7111 48.8815 41.8334 48.9426 41.9659C49.1363 42.0984 49.0955 42.1391 48.8101 42.0882C48.7286 42.0372 48.6369 41.9964 48.5553 41.9455C48.3005 41.813 48.1375 41.813 48.0865 42.1391C48.0253 42.5774 48.3311 43.1074 48.5961 43.4233C48.963 43.8718 49.4726 44.1572 50.0026 44.3712C50.3186 44.4935 50.6549 44.6056 50.9811 44.6872C51.2257 44.7483 52.1226 44.7076 52.0716 45.0847C52.0512 45.2579 52.2041 45.2987 52.2143 45.1968V45.1968Z" fill="#EC615B"/>
<path d="M48.3519 39.0305C48.7799 39.5503 49.1265 40.1415 49.5036 40.702C49.5545 40.7836 49.687 40.702 49.6361 40.6205C49.2488 40.0497 48.892 39.4484 48.4538 38.9184C48.3926 38.8471 48.2907 38.949 48.3519 39.0305V39.0305Z" fill="#EC615B"/>
<path d="M48.9836 37.6342C49.4015 38.205 49.7888 38.7859 50.1557 39.3872C50.2067 39.4688 50.3392 39.3974 50.2882 39.3057C49.9213 38.7044 49.534 38.1234 49.1161 37.5527C49.0652 37.4813 48.9327 37.5527 48.9836 37.6342V37.6342Z" fill="#EC615B"/>
<path d="M37.6804 38.419C40.4221 42.2207 43.2249 45.9816 46.0991 49.6813C46.1603 49.7629 46.2622 49.6508 46.2112 49.5692C43.3472 45.8695 40.5546 42.1289 37.8129 38.3375C37.7619 38.2661 37.6294 38.3375 37.6804 38.419V38.419Z" fill="#EC615B"/>
<path d="M76.6552 91.2449C76.8182 93.1712 76.9813 95.0874 77.1444 97.0137C73.302 98.7158 71.447 99.8063 71.5897 100.275C71.7629 100.846 74.8308 100.52 80.783 99.2967C80.6607 96.0352 80.5282 92.7635 80.4059 89.5021C79.1624 90.083 77.9088 90.664 76.6552 91.2449Z" fill="#161616"/>
<path d="M80.3956 49.9259C80.9765 50.3132 81.0785 51.1796 81.2823 52.902C81.3842 53.7276 81.4352 54.7468 81.1804 57.7025C81.1498 58.0185 81.0683 59.0275 80.8135 61.1984C80.4465 64.3784 80.3446 64.7555 80.2427 66.1009C80.1612 67.1507 80.1102 68.2616 80.1408 70.6466C80.1714 72.9194 80.2019 76.028 80.5587 80.3597C80.8237 83.5702 81.2721 87.5655 82.0773 92.152C81.2823 92.5699 80.5383 92.8247 79.9369 92.9878C78.6018 93.3445 77.5214 93.3547 76.5939 93.3547C75.7072 93.3547 74.9326 93.2833 74.3007 93.2018C74.0051 91.6628 73.6178 89.3492 73.312 86.5157C73.149 85.0481 73.047 83.4275 72.8432 80.2476C72.5578 75.7936 72.4151 73.5717 72.3744 71.6862C72.354 70.8504 72.354 70.1573 72.4763 64.4294C72.6597 55.8374 72.7311 54.7876 73.628 53.4116C75.4116 50.6598 79.0298 49.0086 80.3956 49.9259Z" fill="white"/>
<path d="M81.1601 50.2113C81.3333 52.9836 81.2824 55.7559 81.0072 58.5179C80.732 61.2087 80.2733 63.8688 80.1001 66.5595C79.7434 72.0837 80.1103 77.6384 80.7218 83.132C81.0683 86.1998 81.4862 89.2676 81.9143 92.3253C81.9449 92.5189 82.2404 92.4374 82.2099 92.2437C81.4454 86.7298 80.681 81.2057 80.3855 75.6407C80.2428 72.9194 80.2122 70.1777 80.3447 67.4564C80.4874 64.7453 80.8849 62.0852 81.211 59.3945C81.5779 56.347 81.6595 53.269 81.4658 50.2011C81.4556 50.0075 81.1499 50.0075 81.1601 50.2113V50.2113Z" fill="#161616"/>
<path d="M72.3234 63.4917C72.0788 71.2377 72.3744 78.9939 73.2407 86.6992C73.4752 88.8396 73.7605 90.9697 74.0867 93.0999C74.1173 93.2935 74.4128 93.212 74.3823 93.0183C73.2305 85.4048 72.619 77.7097 72.5579 70.0045C72.5375 67.8335 72.5681 65.6626 72.6394 63.4917C72.6394 63.2878 72.3336 63.2878 72.3234 63.4917V63.4917Z" fill="#161616"/>
<path d="M74.1786 93.3241C76.8286 93.8541 79.5702 93.5076 82.0062 92.3253C82.1794 92.2437 82.0266 91.9787 81.8533 92.0603C79.4989 93.2018 76.8286 93.5483 74.2601 93.0285C74.0665 92.9878 73.9849 93.2833 74.1786 93.3241V93.3241Z" fill="#161616"/>
<path opacity="0.09" d="M73.3734 55.9495C73.0982 57.8758 72.8434 60.0671 72.6701 62.4929C72.5682 63.8178 72.4255 66.0907 72.4051 68.9445C72.3847 71.3193 72.4765 73.3271 72.6701 77.2613C72.8842 81.7051 72.9963 83.9779 73.2918 86.4546C73.6282 89.3084 74.0461 91.6322 74.3518 93.1712C75.0653 93.3241 76.0437 93.4362 77.1852 93.3445C77.9395 93.2833 78.5918 93.1406 79.1319 92.9878C78.2656 89.7467 77.4706 86.3527 76.747 82.816C74.7595 73.1538 73.7607 64.1134 73.3734 55.9495Z" fill="#353535"/>
<path opacity="0.09" d="M72.5785 65.948C73.0167 69.5968 73.404 72.736 73.7302 75.233C74.5659 81.7662 74.8309 83.4072 75.4119 85.4863C76.3699 88.9313 77.6236 91.5914 78.5103 93.263C77.8886 93.4158 76.8795 93.5789 75.6769 93.3547C75.1163 93.2528 74.6373 93.0795 74.2602 92.9164C73.8423 90.4397 73.4856 87.8407 73.2002 85.1398C72.4562 78.1786 72.344 71.7371 72.5785 65.948Z" fill="#353535"/>
<path d="M65.0669 92.3355C64.9242 94.3637 64.7815 96.4021 64.6286 98.4304C59.8383 99.6127 57.4839 100.469 57.5553 100.989C57.6368 101.61 61.1735 101.753 68.1653 101.427C68.3793 98.4915 68.6036 95.546 68.8176 92.6107C67.564 92.5087 66.3103 92.417 65.0669 92.3355Z" fill="#161616"/>
<path d="M69.2964 50.3132C68.695 50.9553 68.2975 51.7707 68.2975 51.7707C68.0529 52.2701 67.9 52.6982 67.8389 53.0447C67.7268 53.8091 67.5637 54.8691 67.3802 56.133C66.9827 58.895 66.7076 61.0558 66.5649 62.2177C66.0553 66.2436 65.7699 68.8528 65.1991 73.6736C64.3532 80.798 64.1086 82.337 63.4766 88.1261C63.2422 90.2767 63.0486 92.0501 62.9263 93.212C63.0995 93.4872 63.3951 93.8745 63.8639 94.221C63.9761 94.3026 64.1901 94.4554 64.8322 94.7612C65.4233 95.0364 66.0247 95.281 66.2897 95.3727C67.8695 95.8823 70.7233 95.1179 70.8761 95.0772C70.8761 93.9662 70.8965 92.468 70.9781 90.6843C71.0086 89.9709 71.1106 88.0446 71.5081 84.3448C71.8648 81.0324 72.14 78.413 72.7617 74.8865C73.2101 72.3079 73.6484 70.3408 74.0459 68.6285C74.6472 65.9378 75.2384 63.6446 75.7276 61.8609C76.4309 60.485 77.1341 59.1091 77.8374 57.7331C78.0412 57.4375 79.9064 54.6755 78.8464 52.1682C77.2564 48.3563 70.6112 48.9067 69.2964 50.3132Z" fill="white"/>
<path d="M68.9503 49.1921C67.0444 54.4309 66.6367 60.0875 65.9946 65.5811C65.3015 71.4721 64.6084 77.3632 63.9256 83.2645C63.5383 86.5667 63.151 89.869 62.7637 93.161C62.7433 93.3547 63.0491 93.3547 63.0694 93.161C63.7523 87.3006 64.4454 81.4401 65.1282 75.5796C65.8009 69.821 66.3921 64.0523 67.1769 58.3141C67.5947 55.2462 68.1757 52.1886 69.2459 49.2736C69.307 49.0902 69.0115 49.0087 68.9503 49.1921V49.1921Z" fill="#161616"/>
<path d="M77.7661 57.6312C76.1558 60.169 74.8818 62.9005 73.9848 65.7747C73.9237 65.9582 74.2193 66.0397 74.2804 65.8563C75.1671 63.0126 76.431 60.3015 78.0311 57.7841C78.133 57.621 77.8681 57.4579 77.7661 57.6312V57.6312Z" fill="#161616"/>
<path d="M75.7481 61.3309C73.2816 69.8516 71.7018 78.627 71.0699 87.4738C70.8864 90.0117 70.7845 92.5495 70.7539 95.0873C70.7539 95.281 71.0597 95.281 71.0597 95.0873C71.1616 86.21 72.2012 77.353 74.1581 68.6999C74.7085 66.2538 75.3404 63.828 76.0436 61.4227C76.0946 61.229 75.8092 61.1475 75.7481 61.3309V61.3309Z" fill="#161616"/>
<path d="M62.7936 93.3241C64.8015 95.6989 68.1139 96.4225 70.9474 95.1485C71.1308 95.067 70.9677 94.802 70.7945 94.8835C68.0834 96.0964 64.9238 95.3625 63.0077 93.0999C62.8752 92.9572 62.6611 93.1712 62.7936 93.3241V93.3241Z" fill="#161616"/>
<path opacity="0.06" d="M71.3349 51.1796C72.5477 52.2905 70.6316 55.9495 69.4799 58.7829C67.7982 62.9209 67.4415 69.7599 66.7382 83.4581C66.5853 86.3527 66.4222 90.4092 66.3815 95.3116C66.0247 95.2606 65.5967 95.1587 65.1482 94.9549C63.9557 94.4351 63.2627 93.5687 62.9365 93.0999C63.2219 91.0716 63.6296 88.0038 64.0882 84.2531C65.138 75.6509 65.3521 72.1244 66.1267 65.948C66.5649 62.4521 67.2478 57.4376 68.3384 51.3528C68.3282 51.3528 68.3282 51.3528 71.3349 51.1796Z" fill="#353535"/>
<path opacity="0.06" d="M66.3815 64.623C66.9217 72.2569 66.3509 77.139 65.6782 80.2782C65.0973 82.9689 65.2298 85.7717 64.8832 88.5032C64.71 89.8384 64.4755 91.5201 65.4132 93.0999C66.0859 94.2312 67.0847 94.8733 67.7982 95.2199C67.3803 95.3014 66.2897 95.4543 65.0565 94.9549C63.8538 94.4656 63.1811 93.6299 62.9365 93.2732C63.4257 89.0332 63.9354 84.7831 64.4348 80.5432C65.0769 75.2229 65.7292 69.9229 66.3815 64.623Z" fill="#353535"/>
<path d="M78.0621 26.9019C77.8481 27.0242 77.9398 28.2167 78.1334 30.571C78.1538 30.7647 78.164 30.9889 78.1946 31.2947C78.2659 31.9878 78.3577 32.6604 78.4698 33.3841C79.3157 38.8776 80.5184 42.9545 80.5184 42.9545C81.0994 44.9216 81.9249 47.3473 83.097 50.0482C83.2907 50.3948 83.678 50.9553 84.3303 51.2815C85.0335 51.6382 85.6654 51.5363 86.6031 51.363C88.4173 51.0267 89.5792 50.2011 89.9971 49.875C90.6086 49.4061 91.4138 48.7844 91.3425 48.0608C91.3119 47.806 91.1692 47.4289 90.8532 47.3167C90.5781 47.2148 90.2315 47.3473 89.9971 47.6429C90.4761 46.9804 90.8125 46.3689 91.0367 45.9102C91.5565 44.8502 91.5565 44.4833 91.4444 44.2183C91.424 44.1776 91.3017 43.8922 91.0367 43.7597C90.9654 43.7291 90.8227 43.668 90.364 43.7597C89.8238 43.8616 89.7423 43.9941 89.3958 44.0043C89.0696 44.0145 88.9677 43.9024 88.7231 43.882C88.4071 43.8514 87.9383 43.9737 87.3064 44.7076C87.2045 44.626 87.0516 44.5343 86.8579 44.5445C86.5318 44.5547 86.277 44.8604 85.6247 45.9918C85.4208 46.3383 85.166 46.7969 84.8806 47.3575C84.738 46.7256 84.5239 45.7472 84.2793 44.5547C83.4436 40.3555 83.5659 39.5401 82.9339 36.4723C82.0472 32.1101 81.1096 30.2857 80.284 29.0524C79.489 27.809 78.4392 26.6776 78.0621 26.9019Z" fill="white"/>
<path d="M78.0924 27.1261C78.5511 26.9121 79.1014 27.7274 79.346 28.023C79.6518 28.4001 79.9372 28.7874 80.192 29.1951C80.671 29.9391 81.0685 30.7341 81.4049 31.5597C82.1591 33.3841 82.5973 35.3206 82.9439 37.2571C83.3006 39.2751 83.586 41.3034 83.9019 43.3214C84.1771 45.0745 84.3606 46.9396 85.339 48.4684C85.441 48.6315 85.7059 48.4786 85.604 48.3156C84.7377 46.9702 84.5237 45.37 84.2892 43.831C84.0242 42.0984 83.7592 40.3657 83.4841 38.633C82.9846 35.4837 82.3527 32.2527 80.722 29.4703C80.3347 28.818 79.8964 28.1963 79.4072 27.6153C79.0403 27.1974 78.5613 26.5757 77.9497 26.8611C77.7561 26.9426 77.909 27.2076 78.0924 27.1261V27.1261Z" fill="#161616"/>
<path d="M78.0312 31.417C78.388 34.5562 78.9587 37.6648 79.7537 40.7224C80.5283 43.6985 81.4354 46.7664 82.74 49.559C83.2904 50.7209 84.33 52.0051 85.7773 51.628C85.9709 51.5771 85.8894 51.2815 85.6957 51.3324C83.6675 51.8726 82.791 48.9679 82.261 47.5919C81.6087 45.8796 81.0277 44.147 80.5181 42.3939C79.4785 38.8063 78.7549 35.1371 78.3268 31.4272C78.3166 31.2233 78.0109 31.2131 78.0312 31.417V31.417Z" fill="#161616"/>
<path d="M85.0538 47.5512C85.3188 47.011 85.5736 46.4606 85.8386 45.9204C86.1138 45.3599 86.4501 44.5751 87.1942 44.6464C87.3878 44.6668 87.3878 44.361 87.1942 44.3406C86.6132 44.2897 86.1953 44.6668 85.9099 45.1254C85.4717 45.8287 85.1557 46.6441 84.7888 47.3881C84.7073 47.5716 84.9621 47.7244 85.0538 47.5512V47.5512Z" fill="#161616"/>
<path d="M86.5824 46.2568C87.0206 45.5229 87.8564 43.4845 88.9979 44.1062C89.1712 44.198 89.324 43.933 89.1508 43.8412C87.7545 43.0768 86.8473 45.207 86.3174 46.0937C86.2154 46.2771 86.4804 46.43 86.5824 46.2568V46.2568Z" fill="#161616"/>
<path d="M87.4693 46.6339C87.8363 46.1141 88.2134 45.5943 88.5803 45.0745C88.9778 44.5139 89.5078 43.831 90.2824 43.9431C90.476 43.9737 90.5576 43.6782 90.3639 43.6476C89.7218 43.5457 89.202 43.8514 88.7841 44.3203C88.193 44.9726 87.7139 45.7675 87.2043 46.481C87.082 46.6339 87.347 46.7868 87.4693 46.6339V46.6339Z" fill="#161616"/>
<path d="M88.3355 46.8581C88.7738 46.3383 89.2018 45.8083 89.6401 45.2885C89.8949 44.9827 90.9141 43.403 91.3422 44.3406C91.4543 44.575 91.2709 45.0541 91.1893 45.2885C91.0772 45.5943 90.9141 45.8796 90.7612 46.165C90.4147 46.7969 90.058 47.4187 89.6095 47.9792C89.4872 48.1321 89.7013 48.3461 89.8236 48.1933C90.3841 47.4798 90.853 46.6848 91.2607 45.8695C91.5155 45.3598 91.913 44.4324 91.5155 43.8922C91.118 43.352 90.4351 43.882 90.1293 44.2285C89.4363 45.0133 88.784 45.8389 88.1215 46.6441C87.9992 46.7867 88.2132 47.0008 88.3355 46.8581V46.8581Z" fill="#161616"/>
<path d="M90.211 43.9329C90.3639 43.9533 90.5066 43.9941 90.6493 44.0451C90.7308 44.0756 90.8123 44.0145 90.8327 43.9431C90.8531 43.8514 90.8021 43.7903 90.7308 43.7597C90.5677 43.6985 90.3944 43.6578 90.211 43.6374C90.1295 43.6272 90.0581 43.7189 90.0581 43.7903C90.0581 43.8718 90.1295 43.9228 90.211 43.9329V43.9329Z" fill="#161616"/>
<path d="M90.3432 47.5817C90.5776 47.2862 91.0362 47.49 91.1279 47.8162C91.1687 47.9589 91.1687 48.1321 91.1381 48.2748C91.0668 48.6112 90.8528 48.9067 90.6183 49.1513C90.2005 49.5998 89.701 49.9871 89.1711 50.2929C88.1111 50.9044 86.9084 51.2102 85.6955 51.3019C85.5019 51.3121 85.5019 51.6178 85.6955 51.6076C87.5301 51.4752 89.3341 50.8432 90.6693 49.5386C91.1585 49.0596 91.6477 48.3869 91.4031 47.6633C91.2197 47.1129 90.5266 46.8581 90.1291 47.3575C89.9966 47.5206 90.2208 47.7346 90.3432 47.5817V47.5817Z" fill="#161616"/>
<path opacity="0.08" d="M78.1838 27.0751C78.408 27.8803 78.7342 29.1238 79.1113 30.6526C80.0795 34.6173 80.7115 37.9502 81.8938 42.8628C83.0862 47.8162 83.5347 48.9373 84.6354 49.3654C85.8585 49.8342 88.274 49.5998 89.7825 48.3462C90.2615 47.9487 90.7405 47.3779 90.9851 47.5104C91.24 47.6531 91.1686 48.4889 90.8425 49.131C90.2309 50.354 88.7938 50.7719 87.4077 51.1694C86.2764 51.4955 85.7056 51.6586 84.9922 51.4446C83.9424 51.1286 83.341 50.2521 83.0455 49.824C82.6785 49.2838 82.6174 48.9679 82.118 47.5919C81.6084 46.1752 81.5676 46.216 81.1905 45.1764C80.4363 43.1074 79.9878 41.2932 79.7024 40.1619C79.1215 37.8381 78.5915 35.6875 78.3061 32.7828C78.1838 31.3355 78.0819 29.3888 78.1838 27.0751Z" fill="#353535"/>
<path opacity="0.06" d="M82.8726 48.7436C83.1579 49.0392 84.5033 50.3744 86.6742 50.4559C89.1407 50.5477 90.7103 48.9373 90.9447 48.6927C90.6797 49.1411 90.1599 49.8546 89.2732 50.405C88.7127 50.7617 88.2336 50.9044 87.6934 51.0573C86.2971 51.465 85.39 51.7198 84.5339 51.3325C83.2293 50.7515 82.9235 49.029 82.8726 48.7436Z" fill="#353535"/>
<path d="M77.3079 26.0559C76.2174 25.9234 75.188 26.6675 74.6274 27.0752C73.068 28.2065 72.4666 29.8066 72.1915 30.4997C70.5098 34.7091 70.0205 39.8051 69.8065 41.7213C69.5313 44.1266 68.9911 47.6327 67.7681 51.893C68.4815 52.474 71.3047 54.6449 75.4428 54.5124C78.9794 54.3901 81.395 52.6473 82.1798 52.0153C82.404 47.9283 82.4346 44.4833 82.4142 41.9047C82.3632 37.196 82.2002 35.0352 81.4867 32.5483C80.9363 30.6322 79.7031 26.3413 77.3079 26.0559Z" fill="#EC615B"/>
<path opacity="0.08" d="M76.4416 26.3719C75.4224 27.3707 77.8583 31.2641 78.2558 32.1712C80.0904 36.35 80.9363 43.1074 76.5537 54.4207C77.155 54.3085 77.8277 54.1455 78.5412 53.8907C80.0292 53.3811 81.2013 52.688 82.0574 52.0765C82.1288 51.3324 82.2205 50.3336 82.2919 49.1513C82.404 47.2658 82.4142 45.7166 82.404 44.412C82.3836 40.437 82.3734 38.4496 82.0574 35.8098C81.8944 34.495 81.5376 32.0387 80.3554 29.2562C79.6521 27.6153 78.9285 26.4738 77.7767 26.2088C77.634 26.168 76.8391 25.9846 76.4416 26.3719Z" fill="#353535"/>
<path opacity="0.05" d="M82.1796 38.0827C81.9758 38.0623 81.7108 39.9274 81.242 42.3532C80.2533 47.4594 79.0201 51.4446 78.1436 54.0028C78.7245 53.7786 79.336 53.5238 79.9578 53.2384C80.7222 52.8919 81.4458 52.5351 82.1287 52.1886C82.5669 40.5084 82.4141 38.1031 82.1796 38.0827Z" fill="#353535"/>
<path d="M74.9738 27.544C74.6477 27.4115 74.3419 27.4319 74.1585 27.4624C73.8527 27.8294 73.3737 28.4103 72.7927 29.1238C70.2345 32.3139 70.0102 33.0579 68.2266 35.0964C66.5143 37.0533 65.3321 37.9705 64.4555 38.5617C63.4669 39.2242 62.7331 39.5605 62.5088 39.6624C60.8883 40.3861 59.4206 40.6103 58.4524 40.6919C58.1568 40.5492 57.7287 40.3147 57.3006 39.9274C56.7503 39.4178 56.4955 38.9286 56.2305 38.4802C55.2214 36.7781 54.9463 36.2888 54.5691 36.299C54.4366 36.299 54.2226 36.3704 53.9576 36.7679C53.8557 36.6965 53.6824 36.564 53.4888 36.3908C53.0097 35.9627 52.8772 35.7079 52.4798 35.5346C52.3065 35.4633 52.0823 35.3614 51.8886 35.4735C51.695 35.5856 51.6542 35.8506 51.644 35.9117C51.4707 35.7283 51.0529 35.3512 50.4617 35.3206C50.2986 35.3104 50.0642 35.3002 49.9521 35.4429C49.7788 35.6467 49.9419 36.136 50.37 36.6456C50.2681 36.615 49.7788 36.4519 49.575 36.6761C49.3508 36.9106 49.5852 37.4304 49.7381 37.7667C50.0438 38.4496 50.4413 38.7961 51.2669 39.7134C51.6032 40.0905 51.8682 40.3963 52.0415 40.5899C51.8682 40.5695 51.593 40.5288 51.2873 40.4065C50.8286 40.223 50.6757 40.009 50.4719 40.0701C50.2477 40.1415 50.1254 40.5186 50.1661 40.8142C50.2171 41.1505 50.5331 41.3543 50.7267 41.4665C51.8988 42.1799 53.3461 42.5366 53.7945 42.6487C54.9055 42.9239 55.4661 43.0564 55.8839 43.1074C56.6076 43.1991 57.3312 43.2399 58.4116 43.1889C61.4081 43.0462 63.7421 42.4347 64.2415 42.3022C65.3219 42.0168 66.2697 41.762 67.4622 41.2218C68.5732 40.7224 71.0193 39.5911 73.1596 37.0329C74.3317 35.6365 74.8311 34.4848 75.8402 32.1916C75.9625 31.9062 76.2071 31.3457 76.2478 30.5914C76.2988 29.5314 76.0032 27.9517 74.9738 27.544Z" fill="white"/>
<path d="M74.8921 27.3299C74.1889 27.0649 73.6589 27.7274 73.2614 28.2167C72.6906 28.9097 72.1504 29.6232 71.6102 30.3468C70.4381 31.9266 69.3068 33.5472 68.0124 35.0454C65.5663 37.8992 62.3456 40.4167 58.4216 40.5084C58.228 40.5084 58.228 40.8142 58.4216 40.8142C61.9685 40.7326 65.0261 38.7044 67.3805 36.1971C68.6036 34.8925 69.6839 33.4656 70.7439 32.0285C71.3045 31.2641 71.8651 30.4997 72.4358 29.7455C72.7722 29.3072 73.1187 28.869 73.4652 28.4409C73.7812 28.0536 74.2194 27.4217 74.8004 27.6357C74.994 27.6867 75.0654 27.3911 74.8921 27.3299V27.3299Z" fill="#161616"/>
<path d="M76.0748 30.357C74.7295 39.6115 64.0685 43.831 55.7211 42.8934C54.3554 42.7405 52.9692 42.4245 51.7156 41.8436C51.3996 41.7009 51.0837 41.5378 50.7983 41.3442C50.676 41.2626 50.5537 41.1913 50.462 41.0792C50.2275 40.9059 50.2072 40.7224 50.3804 40.5186C50.4008 40.2434 50.5333 40.1619 50.7881 40.2638C51.2875 40.3759 51.6035 40.804 52.1437 40.8142C52.3373 40.8142 52.3373 40.5084 52.1437 40.5084C51.5933 40.4982 51.2366 39.9784 50.6964 39.9376C50.3091 39.9071 49.9829 40.1211 49.932 40.5186C49.8301 41.4563 51.2468 41.9761 51.9194 42.2615C54.4165 43.301 57.2092 43.4437 59.8693 43.2195C64.7819 42.8016 69.7863 41.0282 73.1089 37.2571C74.8008 35.3308 75.9933 32.9866 76.3602 30.4386C76.401 30.2449 76.1054 30.1634 76.0748 30.357V30.357Z" fill="#161616"/>
<path d="M52.2248 40.5594C51.9802 40.1109 51.5929 39.8255 51.2361 39.479C50.7265 38.9796 50.3086 38.2763 49.9621 37.6444C49.8704 37.4711 49.7787 37.2979 49.7277 37.1144C49.5952 36.8596 49.6767 36.7679 49.9519 36.8494C50.1252 36.7781 50.2577 36.8188 50.3596 36.9513C50.6144 37.1042 50.859 37.3998 51.0629 37.6138C51.5623 38.1234 52.0005 38.6942 52.3878 39.2955C52.4898 39.4586 52.7548 39.3057 52.6528 39.1427C52.3471 38.6738 49.9927 35.4123 49.4423 36.564C49.1162 37.2265 49.9315 38.1744 50.2475 38.684C50.4819 39.0509 50.7061 39.3975 51.0221 39.7032C51.3584 40.0294 51.7355 40.2944 51.97 40.7224C52.0515 40.8855 52.3165 40.7326 52.2248 40.5594V40.5594Z" fill="#161616"/>
<path d="M50.7668 36.8086C50.6343 36.6761 49.6457 35.4633 50.2776 35.3919C50.4203 35.3716 50.7872 35.6773 50.9095 35.7589C51.1134 35.9015 51.3172 36.0646 51.5007 36.2481C52.1734 36.8698 52.7034 37.624 53.2231 38.368C53.3353 38.5311 53.6003 38.3782 53.4881 38.2152C52.7034 37.1042 51.8064 35.7385 50.512 35.1677C50.1961 35.025 49.768 35.0046 49.7272 35.4429C49.6763 36.0035 50.1757 36.6761 50.5426 37.0329C50.6955 37.1654 50.9095 36.9513 50.7668 36.8086V36.8086Z" fill="#161616"/>
<path d="M52.0004 36.299C51.9698 36.2379 51.8271 35.9423 51.8475 35.871C51.9596 35.7792 52.0717 35.6773 52.1839 35.5856C52.2552 35.6264 52.3367 35.6569 52.4081 35.6977C52.7037 35.871 52.9585 36.1258 53.1929 36.3806C53.6617 36.9106 54.0694 37.5017 54.4975 38.0623C54.6198 38.2152 54.8848 38.0623 54.7625 37.9094C54.1102 37.0635 53.4375 35.8302 52.4183 35.3614C52.194 35.2594 51.8781 35.1779 51.6742 35.3614C51.3685 35.6264 51.5927 36.1054 51.715 36.3908C51.7762 36.564 52.0717 36.4825 52.0004 36.299V36.299Z" fill="#161616"/>
<path d="M54.1919 36.9513C54.1104 36.6965 54.039 36.6354 54.3652 36.6048C54.6506 36.5844 54.6608 36.6456 54.834 36.829C55.0481 37.0736 55.2417 37.3284 55.4354 37.5832C55.7615 38.0317 56.0673 38.5005 56.4036 38.9592C56.9234 39.6624 57.6063 40.6511 58.544 40.7836C58.7376 40.8142 58.8192 40.5186 58.6255 40.488C57.7796 40.3657 57.1374 39.4484 56.6686 38.8063C56.2405 38.2254 55.843 37.6036 55.4048 37.0329C55.15 36.7169 54.7627 36.0646 54.2836 36.085C53.774 36.1054 53.8046 36.6863 53.9167 37.0329C53.9575 37.2163 54.2531 37.1348 54.1919 36.9513V36.9513Z" fill="#161616"/>
<path opacity="0.08" d="M76.0336 28.6651C75.789 28.5938 75.3915 29.6334 74.6271 30.9787C73.3735 33.2006 72.1096 34.6581 70.7745 35.9831C67.6047 39.1222 66.0147 40.702 63.2425 41.5276C62.2538 41.8232 57.6877 43.0462 53.4682 40.4065C51.4705 39.1528 50.3188 37.5119 49.7379 36.5131C49.6359 36.615 49.5136 36.7679 49.4933 36.9717C49.4525 37.2673 49.6461 37.4915 49.8704 37.7973C50.1761 38.2355 50.1965 38.3476 50.3086 38.5719C50.3086 38.5719 50.4004 38.7349 50.5329 38.9184C50.8794 39.3974 52.1024 40.5084 52.0209 40.6205C51.9903 40.6613 51.7559 40.5491 51.2769 40.3351C50.808 40.1211 50.7265 40.0599 50.5736 40.0905C50.2984 40.1415 50.0232 40.4472 50.0334 40.753C50.0436 41.0282 50.278 41.2116 50.4921 41.3747C50.7367 41.5684 50.9711 41.6397 51.0323 41.6601C51.9292 41.9659 52.1534 42.1697 52.9382 42.4041C55.2314 43.087 57.8202 43.1481 57.8202 43.1481C61.6219 43.2399 64.5369 42.2818 65.1484 42.0678C66.4122 41.6397 68.8889 40.7734 71.3962 38.633C72.6396 37.573 74.5354 35.9219 75.5342 33.17C76.2986 31.0806 76.3801 28.7568 76.0336 28.6651Z" fill="#353535"/>
<path opacity="0.06" d="M52.1841 41.9557C53.8148 42.3124 55.8023 42.5774 58.065 42.5366C63.5993 42.4347 67.8698 40.5186 70.2751 39.1834C68.9909 40.2434 66.82 41.762 63.7726 42.6182C58.3809 44.1368 53.825 42.5978 52.1841 41.9557Z" fill="#353535"/>
<path d="M68.8585 13.4992C68.8484 13.5196 68.4916 14.1209 67.7884 15.3338C66.973 16.7301 66.6367 17.3111 66.3003 18.1366C66.0659 18.7176 65.913 19.1966 65.8213 19.5228C66.2697 19.7062 66.7182 19.8897 67.1667 20.0731C67.289 21.072 67.5845 21.8364 67.819 22.3154C68.1961 23.09 68.7362 24.2213 69.9593 24.7717C70.1428 24.8533 70.6931 25.0877 71.4474 25.0877C72.385 25.0877 73.0781 24.7208 73.3839 24.5373C73.445 24.9246 73.5673 25.4138 73.8017 25.954C73.9954 26.4127 74.2196 26.7796 74.4235 27.065C75.3815 26.698 76.3396 26.3311 77.2875 25.954C77.0225 25.5565 76.6759 24.9246 76.4619 24.0888C76.3905 23.8035 76.2275 23.09 76.2886 22.081C76.36 20.8477 76.7065 20.2056 77.0836 19.0437C77.6646 17.2295 78.0111 16.1696 77.848 15.0382C77.634 13.5706 76.5332 11.8787 74.8413 11.2671C72.4156 10.3804 69.8981 12.1029 68.8585 13.4992Z" fill="white"/>
<path d="M67.1663 14.6815C66.5344 14.4369 66.3917 13.1934 66.514 12.3679C66.5548 12.0927 66.7077 11.2773 67.4517 10.4619C68.4607 9.35098 69.5309 9.36117 71.0801 8.69868C71.9363 8.33177 73.1593 7.66928 74.4639 6.38507C74.2703 6.96602 74.0766 7.53678 73.8728 8.11773C74.1683 8.13812 74.9022 8.16869 75.6666 7.74062C76.6145 7.22082 76.9814 6.36468 77.0833 6.12007C77.2464 6.37488 77.9191 7.48582 77.5623 8.74965C77.4604 9.10637 77.2973 9.39175 77.1445 9.61598C77.6744 9.47329 78.4185 9.1981 79.0504 8.57638C79.7435 7.89351 79.8352 7.27178 80.1206 7.30236C80.6709 7.35332 80.8748 9.59559 80.9869 10.8288C81.0582 11.6442 81.1704 12.215 80.9563 12.8979C80.7627 13.5298 80.3957 14.0088 80.4365 14.0394C80.5079 14.0801 81.5373 12.3882 81.8227 12.5207C81.9959 12.6023 81.6902 13.2546 81.578 14.4878C81.4455 15.9963 81.7513 16.2816 81.4761 17.3518C81.313 17.9735 81.0786 18.4118 80.8238 18.9112C80.5079 19.4922 80.1206 20.226 79.4071 20.8783C78.7446 21.4898 77.9292 22.2339 76.9202 22.0912C75.6054 21.8975 74.9939 20.3381 74.9531 20.226C75.0653 20.226 76.0743 20.175 76.5737 19.4004C77.2056 18.4118 76.5737 16.9441 75.8501 16.6995C75.3201 16.5161 74.9022 17.0562 74.4028 16.8014C73.9951 16.5976 73.9441 16.0982 73.781 15.6293C73.567 15.0076 73.0982 14.1821 71.9465 13.3463C71.2228 13.3157 70.1526 13.3769 69.0417 13.8967C68.0632 14.3349 67.6454 14.8649 67.1663 14.6815Z" fill="#5222D0"/>
<path d="M67.0747 16.4243C66.5447 17.2397 66.1064 18.1061 65.8007 19.0335C65.7293 19.2476 65.607 19.4718 65.7599 19.6553C65.872 19.7878 66.1472 19.8285 66.3001 19.8897C66.5549 19.9814 66.8097 20.0833 67.0645 20.1751C67.248 20.2464 67.3295 19.9508 67.146 19.8795C66.9728 19.8183 66.8097 19.7572 66.6364 19.6858C66.5345 19.6451 66.1982 19.5737 66.1268 19.4922C65.9128 19.2781 66.2185 18.7482 66.3103 18.5239C66.5855 17.8411 66.932 17.199 67.3397 16.5772C67.4518 16.4142 67.1868 16.2613 67.0747 16.4243V16.4243Z" fill="#161616"/>
<path d="M67.0034 20.0629C67.564 22.0198 68.2672 24.2009 70.2649 25.1284C70.4382 25.21 70.6012 24.945 70.4178 24.8634C68.5016 23.9665 67.8392 21.8669 67.299 19.9814C67.2378 19.7877 66.9422 19.8693 67.0034 20.0629V20.0629Z" fill="#161616"/>
<path d="M70.3158 25.159C72.0994 25.5565 74.0971 24.5984 75.2896 23.3244C75.4221 23.1817 75.208 22.9677 75.0755 23.1104C73.9544 24.3029 72.0689 25.2406 70.3973 24.8634C70.2037 24.8125 70.1222 25.1081 70.3158 25.159V25.159Z" fill="#161616"/>
<path d="M73.2412 24.6086C73.3635 25.5055 73.6897 26.3107 74.2502 27.0242C74.3725 27.1771 74.5866 26.963 74.4643 26.8101C73.9649 26.168 73.6591 25.4138 73.547 24.6086C73.5266 24.415 73.2208 24.415 73.2412 24.6086V24.6086Z" fill="#161616"/>
<path d="M76.1558 23.2939C76.2169 24.3029 76.5838 25.2202 77.2361 25.9948C77.3584 26.1477 77.5827 25.9234 77.4502 25.7807C76.8488 25.0673 76.5125 24.2213 76.4513 23.2939C76.4411 23.1002 76.1354 23.1002 76.1558 23.2939V23.2939Z" fill="#161616"/>
<path d="M74.6477 17.199C74.9433 16.7505 75.5038 16.6894 75.9421 16.9747C76.3396 17.2295 76.5332 17.7188 76.5638 18.1672C76.6148 18.8909 76.1459 20.3585 75.1267 19.9203C74.9433 19.8387 74.7904 20.1037 74.9738 20.1853C76.2988 20.756 77.0021 19.0132 76.8492 17.9634C76.7575 17.362 76.4109 16.7709 75.8096 16.567C75.2694 16.3734 74.7088 16.5772 74.3929 17.0461C74.2706 17.2092 74.5356 17.362 74.6477 17.199V17.199Z" fill="#161616"/>
<path d="M73.5161 25.0163C74.1072 24.6392 74.6168 24.1806 75.0551 23.6404C75.1774 23.4875 74.9633 23.2735 74.841 23.4263C74.4232 23.9461 73.9237 24.3946 73.3632 24.7615C73.2001 24.8634 73.353 25.1284 73.5161 25.0163V25.0163Z" fill="#161616"/>
<path d="M67.9411 22.081C68.6444 22.1421 69.3477 21.8873 69.8369 21.3675C70.1528 21.021 70.2751 20.4401 69.633 20.4604C69.47 20.4706 69.419 20.7152 69.5923 20.756C69.8267 20.8172 70.0203 20.9089 70.214 21.072C70.3669 21.1943 70.5809 20.9802 70.428 20.8579C70.1936 20.6643 69.9694 20.542 69.6738 20.4706C69.6636 20.5726 69.6432 20.6745 69.633 20.7662C69.9796 20.756 69.5209 21.2554 69.4802 21.2962C69.3171 21.4389 69.1438 21.5408 68.9502 21.6223C68.624 21.765 68.2979 21.8058 67.9411 21.7752C67.7475 21.765 67.7475 22.0708 67.9411 22.081V22.081Z" fill="#161616"/>
<path d="M69.2862 17.4741C69.1129 17.1684 69.0518 16.832 69.1333 16.4957C69.062 16.5263 68.9804 16.5568 68.9091 16.5874C69.1843 16.8015 69.1231 17.1989 69.0824 17.4945C69.1741 17.4843 69.2658 17.4741 69.3576 17.4537C69.2352 17.2805 69.1741 17.097 69.1741 16.883C69.1741 16.6893 68.8683 16.6893 68.8683 16.883C68.8683 17.148 68.9397 17.3926 69.0926 17.6066C69.1639 17.6984 69.3474 17.7086 69.3677 17.5659C69.4391 17.1072 69.4595 16.6282 69.0518 16.3122C68.9703 16.2511 68.8479 16.3122 68.8276 16.404C68.7256 16.8218 68.7868 17.2499 69.011 17.6168C69.1231 17.8003 69.3881 17.6474 69.2862 17.4741V17.4741Z" fill="#161616"/>
<path d="M68.6752 15.3134C69.1746 14.7223 69.8982 15.1707 70.1632 15.7313C70.2448 15.9045 70.5097 15.7517 70.4282 15.5784C70.0817 14.8446 69.0828 14.3757 68.4611 15.0994C68.3286 15.2522 68.5427 15.4663 68.6752 15.3134V15.3134Z" fill="#161616"/>
<path opacity="0.07" d="M73.5877 15.1401C73.6285 15.3746 73.6794 15.7415 73.761 16.1695C73.9852 17.3824 74.1788 18.0755 74.2502 18.4016C74.5152 19.6451 74.1686 21.5612 72.9048 22.8148C71.5085 24.1908 69.6026 24.1602 69.1235 24.1398C69.3376 24.3946 69.6739 24.7208 70.1631 24.9348C71.6512 25.5871 73.1596 24.6392 73.3227 24.5271C73.3023 25.1896 73.445 25.4138 73.5877 25.4852C74.026 25.6788 75.0044 24.7717 75.4325 23.7933C75.8911 22.7333 75.6567 21.7141 75.5344 21.2962C74.9636 20.5114 74.9331 20.2362 75.0146 20.1445C75.1369 20.012 75.4732 20.2566 75.8504 20.1241C76.2478 19.9712 76.4109 19.4922 76.5128 19.1966C76.6453 18.7991 77.0021 17.7188 76.3396 17.0868C75.9217 16.6893 75.2388 16.618 74.5967 16.8422C74.4642 16.8218 74.291 16.7607 74.1585 16.618C73.9852 16.4345 73.9852 16.2205 73.8935 15.8536C73.8323 15.6701 73.7508 15.4255 73.5877 15.1401Z" fill="#353535"/>
<path opacity="0.1" d="M75.0146 22.03C74.9331 22.9066 74.719 23.62 74.5254 24.1398C74.8821 24.0379 75.249 23.9258 75.6058 23.8238C75.9115 24.629 76.2071 25.4444 76.5129 26.2496C76.7371 26.1375 76.9511 26.0253 77.1753 25.903C76.9205 25.3323 76.6657 24.629 76.4619 23.8137C76.2886 23.1206 76.1969 22.4785 76.1459 21.9281C75.9727 21.7548 75.7688 21.5408 75.5854 21.2656C75.2694 20.807 75.086 20.3789 74.9738 20.0426C75.035 20.5624 75.086 21.2452 75.0146 22.03Z" fill="#353535"/>
<path opacity="0.13" d="M80.7833 9.24907C80.6406 9.24907 80.7324 10.6556 80.131 12.3679C79.8762 13.0915 79.4074 14.3757 78.2047 15.4561C77.3486 16.2205 76.4619 16.5976 75.9013 16.7811C76.0542 16.8728 76.2988 17.0461 76.4823 17.3416C76.9307 18.0551 76.6453 18.8603 76.5638 19.0947C76.4517 19.4208 76.2988 19.8489 75.8707 20.0731C75.4732 20.277 75.0655 20.1954 74.9229 20.1547C74.9534 20.2464 75.5955 21.9383 76.9307 22.081C77.4913 22.1421 77.9499 21.8975 78.2965 21.7141C79.2036 21.2452 79.6622 20.542 80.2228 19.6756C80.9668 18.5239 81.4866 17.7086 81.5579 16.5568C81.6089 15.6497 81.3337 15.4153 81.5274 14.549C81.5885 14.2738 81.7516 13.7234 81.721 12.959C81.7108 12.7959 81.7006 12.6634 81.6904 12.5717C81.2726 13.0507 80.8547 13.54 80.4368 14.019C80.5795 13.7438 80.763 13.3157 80.8853 12.7654C81.0178 12.164 80.9974 11.6952 80.9668 10.9206C80.9566 10.4823 80.9158 9.24907 80.7833 9.24907Z" fill="#353535"/>
</svg>
