<svg width="3113" height="2537" viewBox="0 0 3113 2537" fill="none" xmlns="http://www.w3.org/2000/svg">
<path fill-rule="evenodd" clip-rule="evenodd" d="M2267 612.996C1928.45 274.447 1379.55 274.447 1041 612.997L1041 612.998L1654 1226L2267 612.996Z" fill="#FFCD00"/>
<path fill-rule="evenodd" clip-rule="evenodd" d="M2267 612.996C1928.45 274.447 1379.55 274.447 1041 612.997L1041 612.998L1654 1226L2267 612.996Z" fill="#FFCD00"/>
<path fill-rule="evenodd" clip-rule="evenodd" d="M2267 1839C2605.55 1500.45 2605.55 951.549 2267 612.999L1654 1226L2267 1839Z" fill="#D9D9D9"/>
<path fill-rule="evenodd" clip-rule="evenodd" d="M1041 1839C1379.55 2177.55 1928.45 2177.55 2267 1839L1654 1226L1041 1839Z" fill="#64A70B"/>
<path fill-rule="evenodd" clip-rule="evenodd" d="M1041 612.997C702.45 951.547 702.45 1500.45 1041 1839L1654 1226L1041 612.997Z" fill="#D9D9D9"/>
<circle cx="1654" cy="1225.73" r="650.185" transform="rotate(45 1654 1225.73)" fill="white"/>
<path d="M2121.72 1833.43L2115.71 1686L2269.15 1839.44L2121.72 1833.43Z" fill="#D9D9D9"/>
<path d="M1187.43 618.718L1193.44 766.15L1040 612.708L1187.43 618.718Z" fill="#D9D9D9"/>
<path d="M2260.61 757.605L2113 763.791L2266.79 609.997L2260.61 757.605Z" fill="#FFCD00"/>
<path d="M1047.72 1691.72L1195.15 1685.71L1041.71 1839.15L1047.72 1691.72Z" fill="#64A70B"/>
<path fill-rule="evenodd" clip-rule="evenodd" d="M1654.33 1224.85L1654.96 1224.22L1194.89 764.149L1194.59 764.453C990.138 968.906 950.27 1275.62 1074.99 1519.95L1654.29 1224.78L1654.33 1224.85Z" fill="#FFCD00"/>
<path fill-rule="evenodd" clip-rule="evenodd" d="M1654.06 1223.91L1654.87 1224.31L1950.25 644.595L1949.86 644.4C1692.24 513.133 1388.22 569.997 1194.38 764.114L1654.12 1223.85L1654.06 1223.91Z" fill="#4D4D4D"/>
<path fill-rule="evenodd" clip-rule="evenodd" d="M1655.19 1223.82L1655.05 1224.71L2297.67 1326.49L2297.74 1326.06C2342.97 1040.48 2194.95 768.915 1950.43 644.552L1655.26 1223.85L1655.19 1223.82Z" fill="#50A684"/>
<path fill-rule="evenodd" clip-rule="evenodd" d="M1655.25 1225.57L1654.84 1224.77L1075.12 1520.15L1075.31 1520.54C1206.58 1778.16 1485.96 1910.86 1756.88 1867.75L1655.17 1225.59L1655.25 1225.57Z" fill="#00A7B5"/>
<path fill-rule="evenodd" clip-rule="evenodd" d="M1656.12 1224.71L1655.23 1224.85L1757.01 1867.47L1757.44 1867.41C2043.02 1822.17 2255.55 1597.47 2298.27 1326.49L1656.11 1224.78L1656.12 1224.71Z" fill="#009CDE"/>
<circle cx="1653.84" cy="1225.34" r="487.763" transform="rotate(-135 1653.84 1225.34)" fill="white"/>
<path d="M1427.82 1049.05L1436.36 1059.25C1428.71 1066.56 1418.63 1071.44 1406.99 1071.44C1383.38 1071.44 1364.1 1053.04 1364.1 1029.1C1364.1 1005.72 1382.5 986.55 1406.88 986.55C1419.18 986.55 1429.82 991.537 1437.58 999.516L1428.49 1009.71C1423.06 1003.39 1415.63 999.848 1406.88 999.848C1390.81 999.848 1378.51 1013.37 1378.51 1029.22C1378.51 1045.28 1391.25 1058.14 1406.99 1058.14C1414.86 1058.14 1422.73 1054.26 1427.82 1049.05ZM1499.62 1043.84C1499.62 1059.03 1487.21 1071.44 1471.58 1071.44C1456.07 1071.44 1443.66 1059.03 1443.66 1043.84C1443.66 1028.55 1456.07 1016.36 1471.58 1016.36C1487.21 1016.36 1499.62 1028.55 1499.62 1043.84ZM1486.21 1043.84C1486.21 1036.09 1479.67 1029.44 1471.58 1029.44C1463.61 1029.44 1457.07 1036.09 1457.07 1043.84C1457.07 1051.71 1463.61 1058.36 1471.58 1058.36C1479.67 1058.36 1486.21 1051.71 1486.21 1043.84ZM1560.82 1070H1547.19V1041.85C1547.19 1031.65 1541.76 1029.44 1536.33 1029.44C1530.89 1029.44 1525.46 1031.54 1525.46 1041.63V1070H1511.83V1017.36H1525.46V1021.24C1528.46 1019.02 1532.11 1016.36 1539.32 1016.36C1550.84 1016.36 1560.82 1023.12 1560.82 1039.63V1070ZM1604.7 1058.03V1070.11C1604.7 1070.11 1600.71 1071.44 1594.18 1071.44C1583.87 1071.44 1578.55 1064.68 1578.55 1054.37V1030.43H1570.24V1017.36H1578.55V999.516H1592.18V1017.36H1606.14V1030.43H1592.18V1051.49C1592.18 1055.15 1593.18 1058.58 1598.06 1058.58C1601.49 1058.58 1604.7 1058.03 1604.7 1058.03ZM1633.69 1070H1620.06V1017.36H1633.69V1070ZM1626.93 1008.6C1622.05 1008.6 1618.29 1004.84 1618.29 999.959C1618.29 995.083 1622.05 991.426 1626.93 991.426C1631.81 991.426 1635.46 995.083 1635.46 999.959C1635.46 1004.84 1631.81 1008.6 1626.93 1008.6ZM1699.45 1070H1685.82V1041.85C1685.82 1031.65 1680.39 1029.44 1674.96 1029.44C1669.53 1029.44 1664.1 1031.54 1664.1 1041.63V1070H1650.47V1017.36H1664.1V1021.24C1667.09 1019.02 1670.75 1016.36 1677.95 1016.36C1689.48 1016.36 1699.45 1023.12 1699.45 1039.63V1070ZM1749.65 1044.62V1017.36H1763.28V1048.28C1763.28 1064.79 1753.42 1071.44 1738.57 1071.44C1723.72 1071.44 1713.86 1064.79 1713.86 1048.28V1017.36H1727.49V1044.62C1727.49 1053.48 1729.26 1058.36 1738.57 1058.36C1747.88 1058.36 1749.65 1053.48 1749.65 1044.62ZM1830.35 1043.84C1830.35 1059.03 1817.94 1071.44 1802.31 1071.44C1786.8 1071.44 1774.39 1059.03 1774.39 1043.84C1774.39 1028.55 1786.8 1016.36 1802.31 1016.36C1817.94 1016.36 1830.35 1028.55 1830.35 1043.84ZM1816.94 1043.84C1816.94 1036.09 1810.4 1029.44 1802.31 1029.44C1794.33 1029.44 1787.79 1036.09 1787.79 1043.84C1787.79 1051.71 1794.33 1058.36 1802.31 1058.36C1810.4 1058.36 1816.94 1051.71 1816.94 1043.84ZM1877.25 1044.62V1017.36H1890.88V1048.28C1890.88 1064.79 1881.02 1071.44 1866.17 1071.44C1851.32 1071.44 1841.45 1064.79 1841.45 1048.28V1017.36H1855.08V1044.62C1855.08 1053.48 1856.86 1058.36 1866.17 1058.36C1875.47 1058.36 1877.25 1053.48 1877.25 1044.62ZM1901.09 1064.01L1908.3 1053.6C1913.17 1057.81 1919.05 1059.03 1922.81 1059.03C1927.69 1059.03 1929.24 1057.03 1929.24 1055.15C1929.24 1047.28 1902.53 1052.16 1902.53 1033.2C1902.53 1023.56 1909.4 1016.36 1921.15 1016.36C1925.81 1016.36 1934.34 1017.47 1940.32 1023.01L1933.12 1032.76C1928.47 1029.55 1924.14 1028.77 1921.26 1028.77C1916.72 1028.77 1915.83 1030.77 1915.83 1032.1C1915.83 1039.52 1942.21 1035.98 1942.21 1054.7C1942.21 1064.35 1935.23 1071.44 1921.93 1071.44C1912.18 1071.44 1905.86 1067.67 1901.09 1064.01ZM1350.5 1166.05L1359.03 1176.25C1351.38 1183.56 1341.3 1188.44 1329.66 1188.44C1306.06 1188.44 1286.78 1170.04 1286.78 1146.1C1286.78 1122.72 1305.17 1103.55 1329.55 1103.55C1341.85 1103.55 1352.49 1108.54 1360.25 1116.52L1351.16 1126.71C1345.73 1120.39 1338.31 1116.85 1329.55 1116.85C1313.48 1116.85 1301.18 1130.37 1301.18 1146.22C1301.18 1162.28 1313.93 1175.14 1329.66 1175.14C1337.53 1175.14 1345.4 1171.26 1350.5 1166.05ZM1422.3 1160.84C1422.3 1176.03 1409.89 1188.44 1394.26 1188.44C1378.75 1188.44 1366.33 1176.03 1366.33 1160.84C1366.33 1145.55 1378.75 1133.36 1394.26 1133.36C1409.89 1133.36 1422.3 1145.55 1422.3 1160.84ZM1408.89 1160.84C1408.89 1153.09 1402.35 1146.44 1394.26 1146.44C1386.28 1146.44 1379.74 1153.09 1379.74 1160.84C1379.74 1168.71 1386.28 1175.36 1394.26 1175.36C1402.35 1175.36 1408.89 1168.71 1408.89 1160.84ZM1483.49 1187H1469.86V1158.85C1469.86 1148.65 1464.43 1146.44 1459 1146.44C1453.57 1146.44 1448.14 1148.54 1448.14 1158.63V1187H1434.51V1134.36H1448.14V1138.24C1451.13 1136.02 1454.79 1133.36 1461.99 1133.36C1473.52 1133.36 1483.49 1140.12 1483.49 1156.63V1187ZM1527.27 1187H1512.97L1491.81 1134.36H1506.66L1520.07 1170.04L1533.59 1134.36H1548.44L1527.27 1187ZM1606.86 1165.17H1566.75C1568.3 1171.59 1573.51 1176.14 1581.38 1176.14C1586.14 1176.14 1591.24 1174.36 1594.34 1170.26L1603.65 1177.69C1598.89 1184.45 1590.46 1188.44 1581.49 1188.44C1565.64 1188.44 1553.45 1176.58 1553.45 1161.18C1553.45 1146.22 1563.98 1133.36 1580.71 1133.36C1596.23 1133.36 1607.2 1145.99 1607.2 1160.84C1607.2 1162.28 1607.09 1163.84 1606.86 1165.17ZM1567.19 1155.19H1593.46C1592.68 1149.87 1587.14 1145.77 1580.6 1145.77C1574.28 1145.77 1569.19 1149.54 1567.19 1155.19ZM1632.98 1187H1619.35V1134.36H1632.98V1138.24C1638.08 1134.47 1643.07 1133.36 1653.26 1133.36V1146.44C1635.86 1146.44 1632.98 1151.31 1632.98 1160.4V1187ZM1658.51 1181.01L1665.72 1170.6C1670.59 1174.81 1676.47 1176.03 1680.23 1176.03C1685.11 1176.03 1686.66 1174.03 1686.66 1172.15C1686.66 1164.28 1659.95 1169.16 1659.95 1150.2C1659.95 1140.56 1666.82 1133.36 1678.57 1133.36C1683.23 1133.36 1691.76 1134.47 1697.74 1140.01L1690.54 1149.76C1685.89 1146.55 1681.56 1145.77 1678.68 1145.77C1674.14 1145.77 1673.25 1147.77 1673.25 1149.1C1673.25 1156.52 1699.63 1152.98 1699.63 1171.7C1699.63 1181.35 1692.65 1188.44 1679.35 1188.44C1669.59 1188.44 1663.28 1184.67 1658.51 1181.01ZM1764.72 1187H1751.09V1183.56C1746.88 1187 1741.89 1188.44 1736.46 1188.44C1720.94 1188.44 1708.53 1176.03 1708.53 1160.84C1708.53 1145.55 1720.94 1133.36 1736.46 1133.36C1741.78 1133.36 1746.77 1134.8 1751.09 1138.24V1134.36H1764.72V1187ZM1751.09 1160.84C1751.09 1153.09 1744.55 1146.44 1736.46 1146.44C1728.48 1146.44 1721.94 1153.09 1721.94 1160.84C1721.94 1168.71 1728.48 1175.36 1736.46 1175.36C1744.55 1175.36 1751.09 1168.71 1751.09 1160.84ZM1809.73 1175.03V1187.11C1809.73 1187.11 1805.74 1188.44 1799.2 1188.44C1788.9 1188.44 1783.58 1181.68 1783.58 1171.37V1147.43H1775.27V1134.36H1783.58V1116.52H1797.21V1134.36H1811.17V1147.43H1797.21V1168.49C1797.21 1172.15 1798.21 1175.58 1803.08 1175.58C1806.52 1175.58 1809.73 1175.03 1809.73 1175.03ZM1838.72 1187H1825.09V1134.36H1838.72V1187ZM1831.96 1125.6C1827.08 1125.6 1823.31 1121.84 1823.31 1116.96C1823.31 1112.08 1827.08 1108.43 1831.96 1108.43C1836.83 1108.43 1840.49 1112.08 1840.49 1116.96C1840.49 1121.84 1836.83 1125.6 1831.96 1125.6ZM1907.03 1160.84C1907.03 1176.03 1894.61 1188.44 1878.99 1188.44C1863.47 1188.44 1851.06 1176.03 1851.06 1160.84C1851.06 1145.55 1863.47 1133.36 1878.99 1133.36C1894.61 1133.36 1907.03 1145.55 1907.03 1160.84ZM1893.62 1160.84C1893.62 1153.09 1887.08 1146.44 1878.99 1146.44C1871.01 1146.44 1864.47 1153.09 1864.47 1160.84C1864.47 1168.71 1871.01 1175.36 1878.99 1175.36C1887.08 1175.36 1893.62 1168.71 1893.62 1160.84ZM1968.22 1187H1954.59V1158.85C1954.59 1148.65 1949.16 1146.44 1943.73 1146.44C1938.3 1146.44 1932.87 1148.54 1932.87 1158.63V1187H1919.24V1134.36H1932.87V1138.24C1935.86 1136.02 1939.52 1133.36 1946.72 1133.36C1958.25 1133.36 1968.22 1140.12 1968.22 1156.63V1187ZM1978.42 1181.01L1985.62 1170.6C1990.5 1174.81 1996.37 1176.03 2000.14 1176.03C2005.01 1176.03 2006.57 1174.03 2006.57 1172.15C2006.57 1164.28 1979.86 1169.16 1979.86 1150.2C1979.86 1140.56 1986.73 1133.36 1998.48 1133.36C2003.13 1133.36 2011.66 1134.47 2017.65 1140.01L2010.45 1149.76C2005.79 1146.55 2001.47 1145.77 1998.59 1145.77C1994.04 1145.77 1993.16 1147.77 1993.16 1149.1C1993.16 1156.52 2019.53 1152.98 2019.53 1171.7C2019.53 1181.35 2012.55 1188.44 1999.25 1188.44C1989.5 1188.44 1983.18 1184.67 1978.42 1181.01Z" fill="black"/>
<path d="M1342.25 1315.88H1334.61V1290.26H1304.64V1315.88H1297V1260.44H1304.64V1283.07H1334.61V1260.44H1342.25V1315.88ZM1361.91 1315.88H1354.64V1280.29H1361.91V1315.88ZM1358.32 1273.25C1355.69 1273.25 1353.67 1271.23 1353.67 1268.61C1353.67 1265.98 1355.69 1263.96 1358.32 1263.96C1360.94 1263.96 1362.89 1265.98 1362.89 1268.61C1362.89 1271.23 1360.94 1273.25 1358.32 1273.25ZM1401.61 1314.23V1311.69C1398.61 1315.21 1394.49 1316.86 1389.69 1316.86C1379.13 1316.86 1370.89 1308.69 1370.89 1298.28C1370.89 1287.71 1379.28 1279.62 1389.69 1279.62C1394.49 1279.62 1398.54 1281.34 1401.61 1284.86V1280.29H1408.8V1312.96C1408.8 1330.79 1397.94 1334.84 1389.92 1334.84C1382.73 1334.84 1376.96 1331.54 1373.59 1326.15L1380.25 1323.3C1382.35 1326.3 1385.35 1328.09 1389.84 1328.09C1395.99 1328.09 1401.61 1324.72 1401.61 1314.23ZM1401.46 1298.28C1401.46 1291.83 1396.44 1286.44 1389.69 1286.44C1383.03 1286.44 1378.01 1291.68 1378.01 1298.28C1378.01 1304.94 1383.03 1310.11 1389.69 1310.11C1396.51 1310.11 1401.46 1304.72 1401.46 1298.28ZM1453 1315.88H1445.73V1297.23C1445.73 1290.11 1442.96 1286.44 1437.04 1286.44C1430.9 1286.44 1427.98 1290.41 1427.98 1297.75V1315.88H1420.79V1260.44H1427.98V1284.12C1430.37 1281.42 1433.3 1279.62 1438.32 1279.62C1446.78 1279.62 1453 1284.57 1453 1295.73V1315.88ZM1519.35 1334.84H1512.16V1311.69C1509.16 1315.21 1505.04 1316.86 1500.25 1316.86C1489.68 1316.86 1481.44 1308.69 1481.44 1298.28C1481.44 1287.71 1489.83 1279.62 1500.25 1279.62C1505.04 1279.62 1509.09 1281.34 1512.16 1284.86V1280.29H1519.35V1334.84ZM1512.01 1298.28C1512.01 1291.83 1506.99 1286.44 1500.25 1286.44C1493.58 1286.44 1488.56 1291.68 1488.56 1298.28C1488.56 1304.94 1493.58 1310.11 1500.25 1310.11C1507.06 1310.11 1512.01 1304.72 1512.01 1298.28ZM1555.84 1299.4V1280.29H1563.03V1301.42C1563.03 1312.59 1556.81 1316.86 1546.84 1316.86C1536.88 1316.86 1530.66 1312.59 1530.66 1301.42V1280.29H1537.93V1299.4C1537.93 1306.07 1539.5 1310.11 1546.84 1310.11C1554.26 1310.11 1555.84 1306.07 1555.84 1299.4ZM1609.34 1315.88H1602.15V1311.69C1599.15 1315.21 1595.03 1316.86 1590.24 1316.86C1579.67 1316.86 1571.43 1308.69 1571.43 1298.28C1571.43 1287.71 1579.82 1279.62 1590.24 1279.62C1595.03 1279.62 1599.08 1281.34 1602.15 1284.86V1280.29H1609.34V1315.88ZM1602 1298.28C1602 1291.83 1596.98 1286.44 1590.24 1286.44C1583.57 1286.44 1578.55 1291.68 1578.55 1298.28C1578.55 1304.94 1583.57 1310.11 1590.24 1310.11C1597.06 1310.11 1602 1304.72 1602 1298.28ZM1634.74 1310.04V1316.33C1633.54 1316.63 1632.27 1316.86 1630.77 1316.86C1624.92 1316.86 1621.33 1313.33 1621.33 1306.82V1260.44H1628.52V1304.57C1628.52 1308.39 1629.42 1310.11 1632.94 1310.11C1633.39 1310.11 1634.07 1310.11 1634.74 1310.04ZM1648.79 1315.88H1641.52V1280.29H1648.79V1315.88ZM1645.19 1273.25C1642.57 1273.25 1640.55 1271.23 1640.55 1268.61C1640.55 1265.98 1642.57 1263.96 1645.19 1263.96C1647.82 1263.96 1649.76 1265.98 1649.76 1268.61C1649.76 1271.23 1647.82 1273.25 1645.19 1273.25ZM1677.62 1309.59V1316.03C1676.87 1316.33 1674.62 1316.86 1672 1316.86C1663.24 1316.86 1661.66 1311.09 1661.66 1304.94V1287.11H1656.04V1280.29H1661.66V1268.23H1668.93V1280.29H1678.6V1287.11H1668.93V1304.12C1668.93 1308.17 1669.83 1310.11 1673.65 1310.11C1674.92 1310.11 1676.87 1309.89 1677.62 1309.59ZM1696.85 1334.84H1689.73L1696.25 1316.56L1681.71 1280.29H1689.58L1699.77 1307.04L1709.36 1280.29H1716.55L1696.85 1334.84ZM1725.79 1325.02V1321.28C1727.59 1320.98 1729.84 1319.03 1730.06 1316.26C1729.84 1316.33 1729.39 1316.33 1729.24 1316.33C1726.84 1316.33 1724.82 1314.38 1724.82 1311.76C1724.82 1309.14 1726.77 1307.12 1729.54 1307.12C1732.68 1307.12 1734.33 1309.81 1734.33 1313.48C1734.33 1318.65 1731.19 1324.87 1725.79 1325.02ZM1775 1315.88H1767.8V1280.29H1775V1284.57C1778.44 1280.44 1781.96 1279.62 1788.86 1279.62V1286.51C1777.09 1286.51 1775 1291.31 1775 1297.45V1315.88ZM1829.38 1300.67H1800.24C1801.21 1306.14 1805.71 1310.34 1811.78 1310.34C1815.67 1310.34 1819.49 1308.61 1821.74 1305.47L1826.84 1309.36C1823.54 1314.01 1817.92 1316.86 1811.78 1316.86C1801.44 1316.86 1793.12 1308.76 1793.12 1298.28C1793.12 1288.31 1800.69 1279.62 1811.33 1279.62C1821.89 1279.62 1829.53 1288.24 1829.53 1298.2C1829.53 1299.17 1829.46 1299.92 1829.38 1300.67ZM1800.46 1294.98H1822.19C1821.37 1290.03 1817.02 1286.21 1811.4 1286.21C1805.86 1286.21 1801.74 1289.96 1800.46 1294.98ZM1866.05 1314.23V1311.69C1863.06 1315.21 1858.94 1316.86 1854.14 1316.86C1843.58 1316.86 1835.34 1308.69 1835.34 1298.28C1835.34 1287.71 1843.73 1279.62 1854.14 1279.62C1858.94 1279.62 1862.98 1281.34 1866.05 1284.86V1280.29H1873.25V1312.96C1873.25 1330.79 1862.38 1334.84 1854.37 1334.84C1847.17 1334.84 1841.41 1331.54 1838.03 1326.15L1844.7 1323.3C1846.8 1326.3 1849.8 1328.09 1854.29 1328.09C1860.44 1328.09 1866.05 1324.72 1866.05 1314.23ZM1865.9 1298.28C1865.9 1291.83 1860.89 1286.44 1854.14 1286.44C1847.47 1286.44 1842.45 1291.68 1842.45 1298.28C1842.45 1304.94 1847.47 1310.11 1854.14 1310.11C1860.96 1310.11 1865.9 1304.72 1865.9 1298.28ZM1909.73 1299.4V1280.29H1916.92V1301.42C1916.92 1312.59 1910.71 1316.86 1900.74 1316.86C1890.78 1316.86 1884.56 1312.59 1884.56 1301.42V1280.29H1891.83V1299.4C1891.83 1306.07 1893.4 1310.11 1900.74 1310.11C1908.16 1310.11 1909.73 1306.07 1909.73 1299.4ZM1941.74 1310.04V1316.33C1940.54 1316.63 1939.26 1316.86 1937.77 1316.86C1931.92 1316.86 1928.33 1313.33 1928.33 1306.82V1260.44H1935.52V1304.57C1935.52 1308.39 1936.42 1310.11 1939.94 1310.11C1940.39 1310.11 1941.06 1310.11 1941.74 1310.04ZM1983.43 1315.88H1976.24V1311.69C1973.24 1315.21 1969.12 1316.86 1964.33 1316.86C1953.76 1316.86 1945.52 1308.69 1945.52 1298.28C1945.52 1287.71 1953.91 1279.62 1964.33 1279.62C1969.12 1279.62 1973.17 1281.34 1976.24 1284.86V1280.29H1983.43V1315.88ZM1976.09 1298.28C1976.09 1291.83 1971.07 1286.44 1964.33 1286.44C1957.66 1286.44 1952.64 1291.68 1952.64 1298.28C1952.64 1304.94 1957.66 1310.11 1964.33 1310.11C1971.15 1310.11 1976.09 1304.72 1976.09 1298.28ZM2002.61 1315.88H1995.42V1280.29H2002.61V1284.57C2006.06 1280.44 2009.58 1279.62 2016.47 1279.62V1286.51C2004.71 1286.51 2002.61 1291.31 2002.61 1297.45V1315.88ZM1433.97 1398.49L1439.97 1402.02C1436.67 1407.33 1430.68 1410.86 1423.93 1410.86C1413.67 1410.86 1405.28 1402.54 1405.28 1392.28C1405.28 1382.09 1413.52 1373.62 1423.93 1373.62C1430.6 1373.62 1436.52 1377.14 1439.82 1382.39L1433.75 1385.83C1431.72 1382.61 1428.05 1380.44 1423.93 1380.44C1417.41 1380.44 1412.39 1385.98 1412.39 1392.35C1412.39 1398.72 1417.49 1404.11 1424.08 1404.11C1428.35 1404.11 1431.95 1401.87 1433.97 1398.49ZM1482.32 1392.28C1482.32 1402.46 1473.85 1410.86 1463.51 1410.86C1453.25 1410.86 1444.86 1402.54 1444.86 1392.28C1444.86 1382.09 1453.1 1373.62 1463.51 1373.62C1473.85 1373.62 1482.32 1382.01 1482.32 1392.28ZM1475.2 1392.2C1475.2 1385.76 1470.03 1380.44 1463.59 1380.44C1456.92 1380.44 1451.98 1386.06 1451.98 1392.35C1451.98 1398.72 1457.07 1404.11 1463.59 1404.11C1470.18 1404.11 1475.2 1398.57 1475.2 1392.2ZM1523.53 1409.88H1516.26V1391.23C1516.26 1384.11 1513.49 1380.44 1507.57 1380.44C1501.43 1380.44 1498.51 1384.41 1498.51 1391.75V1409.88H1491.32V1374.29H1498.51V1378.12C1500.91 1375.42 1503.83 1373.62 1508.85 1373.62C1517.31 1373.62 1523.53 1378.57 1523.53 1389.73V1409.88ZM1551.93 1409.88H1544.22L1529.53 1374.29H1537.32L1547.96 1400.89L1558.75 1374.29H1566.54L1551.93 1409.88ZM1606.52 1394.67H1577.38C1578.35 1400.14 1582.85 1404.34 1588.92 1404.34C1592.81 1404.34 1596.63 1402.61 1598.88 1399.47L1603.98 1403.36C1600.68 1408.01 1595.06 1410.86 1588.92 1410.86C1578.58 1410.86 1570.26 1402.76 1570.26 1392.28C1570.26 1382.31 1577.83 1373.62 1588.47 1373.62C1599.03 1373.62 1606.67 1382.24 1606.67 1392.2C1606.67 1393.17 1606.6 1393.92 1606.52 1394.67ZM1577.6 1388.98H1599.33C1598.51 1384.03 1594.16 1380.21 1588.54 1380.21C1583 1380.21 1578.88 1383.96 1577.6 1388.98ZM1622.67 1409.88H1615.48V1374.29H1622.67V1378.57C1626.11 1374.44 1629.64 1373.62 1636.53 1373.62V1380.51C1624.77 1380.51 1622.67 1385.31 1622.67 1391.45V1409.88ZM1639.9 1406.21L1643.8 1400.67C1647.4 1403.59 1651.22 1404.34 1653.76 1404.34C1657.58 1404.34 1659.68 1402.69 1659.68 1400.29C1659.68 1393.25 1641.18 1397.59 1641.18 1384.78C1641.18 1378.27 1645.97 1373.62 1653.39 1373.62C1656.39 1373.62 1661.41 1374.37 1665.45 1377.67L1661.63 1382.99C1658.48 1380.66 1655.34 1380.21 1653.46 1380.21C1649.87 1380.21 1648.29 1382.01 1648.29 1383.96C1648.29 1390.7 1666.72 1387.03 1666.72 1399.84C1666.72 1406.66 1661.56 1410.86 1653.54 1410.86C1648.22 1410.86 1643.57 1408.98 1639.9 1406.21ZM1710.75 1409.88H1703.56V1405.69C1700.56 1409.21 1696.44 1410.86 1691.64 1410.86C1681.08 1410.86 1672.84 1402.69 1672.84 1392.28C1672.84 1381.71 1681.23 1373.62 1691.64 1373.62C1696.44 1373.62 1700.48 1375.34 1703.56 1378.86V1374.29H1710.75V1409.88ZM1703.41 1392.28C1703.41 1385.83 1698.39 1380.44 1691.64 1380.44C1684.98 1380.44 1679.96 1385.68 1679.96 1392.28C1679.96 1398.94 1684.98 1404.11 1691.64 1404.11C1698.46 1404.11 1703.41 1398.72 1703.41 1392.28ZM1739.59 1403.59V1410.03C1738.84 1410.33 1736.59 1410.86 1733.97 1410.86C1725.21 1410.86 1723.63 1405.09 1723.63 1398.94V1381.11H1718.01V1374.29H1723.63V1362.23H1730.9V1374.29H1740.57V1381.11H1730.9V1398.12C1730.9 1402.17 1731.8 1404.11 1735.62 1404.11C1736.89 1404.11 1738.84 1403.89 1739.59 1403.59ZM1756.19 1409.88H1748.93V1374.29H1756.19V1409.88ZM1752.6 1367.25C1749.98 1367.25 1747.95 1365.23 1747.95 1362.61C1747.95 1359.98 1749.98 1357.96 1752.6 1357.96C1755.22 1357.96 1757.17 1359.98 1757.17 1362.61C1757.17 1365.23 1755.22 1367.25 1752.6 1367.25ZM1802.63 1392.28C1802.63 1402.46 1794.17 1410.86 1783.83 1410.86C1773.56 1410.86 1765.17 1402.54 1765.17 1392.28C1765.17 1382.09 1773.41 1373.62 1783.83 1373.62C1794.17 1373.62 1802.63 1382.01 1802.63 1392.28ZM1795.52 1392.2C1795.52 1385.76 1790.35 1380.44 1783.9 1380.44C1777.23 1380.44 1772.29 1386.06 1772.29 1392.35C1772.29 1398.72 1777.38 1404.11 1783.9 1404.11C1790.5 1404.11 1795.52 1398.57 1795.52 1392.2ZM1843.84 1409.88H1836.58V1391.23C1836.58 1384.11 1833.81 1380.44 1827.89 1380.44C1821.74 1380.44 1818.82 1384.41 1818.82 1391.75V1409.88H1811.63V1374.29H1818.82V1378.12C1821.22 1375.42 1824.14 1373.62 1829.16 1373.62C1837.63 1373.62 1843.84 1378.57 1843.84 1389.73V1409.88ZM1851.57 1406.21L1855.46 1400.67C1859.06 1403.59 1862.88 1404.34 1865.43 1404.34C1869.25 1404.34 1871.35 1402.69 1871.35 1400.29C1871.35 1393.25 1852.84 1397.59 1852.84 1384.78C1852.84 1378.27 1857.64 1373.62 1865.05 1373.62C1868.05 1373.62 1873.07 1374.37 1877.12 1377.67L1873.29 1382.99C1870.15 1380.66 1867 1380.21 1865.13 1380.21C1861.53 1380.21 1859.96 1382.01 1859.96 1383.96C1859.96 1390.7 1878.39 1387.03 1878.39 1399.84C1878.39 1406.66 1873.22 1410.86 1865.2 1410.86C1859.88 1410.86 1855.24 1408.98 1851.57 1406.21ZM1893.64 1410.33C1891.02 1410.33 1889 1408.31 1889 1405.69C1889 1403.06 1891.02 1401.12 1893.64 1401.12C1896.27 1401.12 1898.21 1403.06 1898.21 1405.69C1898.21 1408.31 1896.27 1410.33 1893.64 1410.33Z" fill="black"/>
<path d="M1406.72 718.845L1413.36 722.312C1410.96 727.768 1406.76 732.48 1400.7 734.989C1388.42 740.078 1374.41 734.661 1369.25 722.202C1364.21 710.031 1369.65 696.086 1382.34 690.829C1388.75 688.177 1395.36 688.479 1401.12 690.96L1398.59 698.225C1394.4 696.108 1389.77 695.864 1385.21 697.751C1376.85 701.216 1373.36 710.905 1376.78 719.153C1380.24 727.517 1389.65 731.46 1397.84 728.067C1401.93 726.371 1405.19 722.656 1406.72 718.845Z" fill="white"/>
<path d="M1464.74 687.017C1468.88 699.722 1461.99 713.059 1449.23 717.213C1436.58 721.328 1423.04 714.834 1418.87 702.01C1414.79 689.483 1421.31 676.005 1434.37 671.755C1447.25 667.563 1460.61 674.312 1464.74 687.017ZM1446.91 710.089C1455.34 707.345 1459.79 698.216 1456.98 689.607C1454.18 680.999 1445.23 676.098 1436.69 678.879C1428.08 681.681 1423.84 691.068 1426.61 699.558C1429.41 708.167 1438.48 712.832 1446.91 710.089Z" fill="white"/>
<path d="M1523.68 696.231L1515.06 698.308L1509.05 689.61L1489.69 694.276L1488.36 704.743L1479.74 706.82L1486.88 657.576L1494.95 655.63L1523.68 696.231ZM1504.37 682.71L1493.27 666.504L1490.71 686.001L1504.37 682.71Z" fill="white"/>
<path d="M1565.49 677.142L1571.17 682.03C1567.58 686.795 1562.42 690.428 1555.95 691.491C1542.83 693.648 1530.43 685.184 1528.24 671.877C1526.11 658.878 1534.58 646.539 1548.13 644.31C1554.97 643.186 1561.34 644.986 1566.38 648.713L1562.26 655.211C1558.67 652.196 1554.22 650.903 1549.35 651.703C1540.42 653.172 1534.81 661.812 1536.26 670.622C1537.73 679.555 1545.99 685.536 1554.74 684.098C1559.11 683.379 1563.13 680.504 1565.49 677.142Z" fill="white"/>
<path d="M1624.66 682.905L1616.52 683.613L1614.75 663.274L1592.61 665.197L1594.37 685.537L1586.22 686.244L1582.23 640.217L1590.37 639.509L1591.92 657.36L1614.07 655.437L1612.52 637.585L1620.67 636.878L1624.66 682.905Z" fill="white"/>
<path d="M1649.98 682.085L1641.81 682.328L1640.44 636.147L1648.61 635.904L1649.98 682.085Z" fill="white"/>
<path d="M1708.49 682.832L1699.88 682.573L1675.54 646.675L1674.48 681.809L1666.31 681.563L1667.7 635.383L1677.99 635.693L1700.78 669.233L1701.77 636.408L1709.88 636.652L1708.49 682.832Z" fill="white"/>
<path d="M1770.82 662.367L1770.22 667.64C1768.87 679.426 1760.75 688.867 1746.98 687.294C1733.21 685.722 1723.78 674.213 1725.3 660.877C1726.81 647.726 1738.33 638.171 1751.98 639.73C1758.86 640.516 1764.63 643.939 1768.47 648.84L1762.93 653.863C1760.02 649.634 1755.53 647.676 1751.44 647.209C1742.01 646.132 1734.38 652.927 1733.37 661.798C1732.34 670.792 1738.41 678.774 1747.9 679.858C1754.59 680.623 1760.15 677.613 1761.86 669.262L1747.41 667.611L1748.3 659.796L1770.82 662.367Z" fill="white"/>
<path d="M2036.03 832.367L2030.55 826.298L2064.83 795.327L2084.05 816.591L2078.21 821.865L2064.48 806.669L2056.84 813.575L2067.55 825.435L2061.71 830.708L2051 818.849L2036.03 832.367Z" fill="black"/>
<path d="M2076.9 881.319L2058.77 858.321L2095.06 829.724L2113.19 852.722L2107.01 857.591L2093.95 841.017L2085.85 847.393L2096.13 860.437L2089.96 865.306L2079.68 852.262L2070.02 859.875L2083.08 876.45L2076.9 881.319Z" fill="black"/>
<path d="M2102.07 917.387L2085.56 893.207L2123.71 867.152L2140.23 891.333L2133.73 895.769L2121.83 878.342L2113.32 884.152L2122.69 897.866L2116.19 902.303L2106.83 888.588L2096.67 895.524L2108.57 912.951L2102.07 917.387Z" fill="black"/>
<path d="M2116.55 941.117L2109.98 929.771L2149.96 906.62L2156.53 917.966C2163.91 930.717 2161.47 943.818 2148.99 951.045C2136.51 958.272 2123.93 953.868 2116.55 941.117ZM2120.88 932.907L2123.26 937.013C2127.86 944.955 2135.22 949.567 2144.89 943.967C2154.56 938.367 2154.22 929.688 2149.63 921.746L2147.25 917.639L2120.88 932.907Z" fill="black"/>
<path d="M2141.38 987.581L2135.26 974.935L2176.85 954.816L2182.89 967.293C2187.4 976.623 2185.48 982.685 2178.68 985.975C2173.79 988.34 2170.09 987.426 2166.86 984.34C2168.13 990.109 2165.19 994.51 2160.25 996.903C2152.1 1000.85 2145.4 995.899 2141.38 987.581ZM2164.06 970.09L2167.13 976.441C2168.6 979.476 2171.04 980.653 2174.13 979.158C2177.28 977.635 2177.96 975.019 2176.38 971.759L2173.39 965.577L2164.06 970.09ZM2145.85 978.899L2148.71 984.801C2151.32 990.196 2154.75 990.548 2157.67 989.134C2160.59 987.72 2162.58 984.815 2159.89 979.25L2157.09 973.462L2145.85 978.899Z" fill="black"/>
<path d="M2168.77 1052.11L2165.51 1043.86L2173.29 1036.69L2165.97 1018.17L2155.42 1018.31L2152.16 1010.07L2201.92 1010.28L2204.97 1018L2168.77 1052.11ZM2179.47 1031.1L2193.97 1017.85L2174.31 1018.03L2179.47 1031.1Z" fill="black"/>
<path d="M2193.25 1090.99L2189.16 1097.26C2183.96 1094.34 2179.68 1089.71 2177.76 1083.44C2173.88 1070.72 2180.63 1057.3 2193.53 1053.37C2206.13 1049.53 2219.48 1056.29 2223.49 1069.43C2225.51 1076.06 2224.57 1082.61 2221.55 1088.1L2214.56 1084.88C2217.07 1080.92 2217.76 1076.33 2216.32 1071.61C2213.68 1062.96 2204.38 1058.55 2195.84 1061.15C2187.18 1063.79 2182.34 1072.77 2184.93 1081.25C2186.22 1085.49 2189.61 1089.09 2193.25 1090.99Z" fill="black"/>
<path d="M2194.95 1149.47L2192.61 1138.86L2207.75 1116.53L2188.6 1120.76L2186.84 1112.77L2231.95 1102.8L2233.72 1110.78L2213.78 1115.19L2237.49 1127.85L2239.71 1137.91L2212.7 1122.72L2194.95 1149.47Z" fill="black"/>
<path d="M2141.85 1462.43L2145.83 1455.21L2177.51 1462.41L2154.51 1439.46L2158.49 1432.25L2205.88 1441.98L2201.6 1449.74L2167.52 1441.86L2192.35 1466.53L2188.91 1472.76L2154.83 1464.88L2179.66 1489.54L2175.38 1497.31L2141.85 1462.43Z" fill="black"/>
<path d="M2111.8 1509.79L2127.9 1485.33L2166.49 1510.72L2150.4 1535.18L2143.83 1530.86L2155.43 1513.23L2146.82 1507.57L2137.69 1521.44L2131.12 1517.12L2140.25 1503.24L2129.97 1496.48L2118.38 1514.11L2111.8 1509.79Z" fill="black"/>
<path d="M2085.6 1545.55L2103.29 1521.82L2140.33 1549.44L2135.44 1555.99L2104.71 1533.08L2091.91 1550.25L2085.6 1545.55Z" fill="black"/>
<path d="M2058.35 1578.44L2077.38 1555.78L2112.76 1585.5L2107.5 1591.76L2078.15 1567.11L2064.37 1583.5L2058.35 1578.44Z" fill="black"/>
<path d="M2039.91 1598.4L2049.56 1588.2L2083.13 1619.94L2073.61 1630.01C2066.49 1637.54 2060.14 1637.89 2054.65 1632.7C2050.7 1628.97 2050.24 1625.19 2051.98 1621.07C2047.04 1624.3 2041.88 1623.12 2037.89 1619.35C2031.31 1613.13 2033.56 1605.12 2039.91 1598.4ZM2064.31 1613.4L2059.46 1618.52C2057.15 1620.97 2056.92 1623.67 2059.41 1626.03C2061.95 1628.44 2064.64 1628.14 2067.12 1625.51L2071.84 1620.52L2064.31 1613.4ZM2049.61 1599.5L2045.11 1604.26C2040.99 1608.62 2041.88 1611.95 2044.24 1614.18C2046.6 1616.41 2050.02 1617.24 2054.27 1612.75L2058.69 1608.08L2049.61 1599.5Z" fill="black"/>
<path d="M1997.62 1639.88L2018.97 1619.84L2050.59 1653.53L2029.24 1673.57L2023.86 1667.83L2039.25 1653.39L2032.2 1645.88L2020.09 1657.24L2014.7 1651.51L2026.81 1640.14L2018.39 1631.18L2003.01 1645.62L1997.62 1639.88Z" fill="black"/>
<path d="M1980.22 1654.86L1986.44 1649.55L2016.46 1684.67L2010.25 1689.98L1980.22 1654.86Z" fill="black"/>
<path d="M1934.23 1691.06L1941.09 1685.85L1982.6 1698.44L1961.32 1670.46L1967.82 1665.51L1995.8 1702.28L1987.6 1708.52L1948.78 1696.78L1968.66 1722.92L1962.2 1727.83L1934.23 1691.06Z" fill="black"/>
<path d="M1898.84 1746.29L1895.98 1741.83C1889.57 1731.84 1889.89 1719.4 1901.56 1711.91C1913.22 1704.43 1927.81 1707.38 1935.05 1718.68C1942.2 1729.82 1939.31 1744.51 1927.75 1751.93C1921.92 1755.67 1915.29 1756.66 1909.21 1755.29L1910.33 1747.9C1915.26 1749.33 1919.98 1748.01 1923.44 1745.79C1931.43 1740.66 1933.04 1730.58 1928.22 1723.06C1923.33 1715.44 1913.59 1713.09 1905.55 1718.25C1899.88 1721.89 1897.47 1727.74 1901.42 1735.29L1913.67 1727.43L1917.92 1734.05L1898.84 1746.29Z" fill="black"/>
<path d="M1108.94 1339.86L1114.21 1334.53C1118.72 1338.44 1121.99 1343.83 1122.6 1350.36C1123.85 1363.6 1114.56 1375.39 1101.13 1376.66C1088.02 1377.9 1076.29 1368.6 1075 1354.92C1074.35 1348.02 1076.58 1341.79 1080.64 1337.02L1086.84 1341.57C1083.59 1344.95 1081.99 1349.31 1082.46 1354.22C1083.31 1363.23 1091.54 1369.41 1100.43 1368.57C1109.44 1367.72 1115.98 1359.89 1115.14 1351.06C1114.73 1346.65 1112.14 1342.44 1108.94 1339.86Z" fill="black"/>
<path d="M1094.78 1275.38C1108.13 1274.96 1119.02 1285.29 1119.44 1298.71C1119.87 1312 1109.86 1323.19 1096.38 1323.62C1083.21 1324.04 1072.09 1314.02 1071.65 1300.3C1071.21 1286.75 1081.42 1275.81 1094.78 1275.38ZM1111.96 1298.95C1111.67 1290.09 1104.15 1283.27 1095.1 1283.56C1086.05 1283.85 1078.85 1291.07 1079.14 1300.06C1079.42 1309.11 1087.26 1315.79 1096.18 1315.5C1105.23 1315.22 1112.24 1307.81 1111.96 1298.95Z" fill="black"/>
<path d="M1119.65 1214.75L1119.34 1222.93L1084.34 1221.63L1101.76 1233.71L1101.48 1241.45L1083.22 1252.02L1118.22 1253.31L1117.92 1261.48L1071.75 1259.77L1072.14 1249.23L1092.95 1237.26L1073.09 1223.59L1073.48 1213.04L1119.65 1214.75Z" fill="black"/>
<path d="M1121.85 1189.91L1121.05 1198.05L1075.07 1193.5L1076.68 1177.22C1077.76 1166.29 1085.2 1162.13 1093.53 1162.95C1101.85 1163.78 1108.39 1169.32 1107.31 1180.25L1106.51 1188.39L1121.85 1189.91ZM1098.68 1187.62L1099.48 1179.48C1100.02 1174.07 1096.89 1171.44 1092.79 1171.04C1088.69 1170.63 1085.04 1172.59 1084.51 1178L1083.7 1186.14L1098.68 1187.62Z" fill="black"/>
<path d="M1130.29 1124.01L1125.94 1152.97L1080.25 1146.1L1084.6 1117.15L1092.38 1118.31L1089.24 1139.18L1099.43 1140.71L1101.9 1124.29L1109.68 1125.46L1107.21 1141.88L1119.37 1143.71L1122.51 1122.84L1130.29 1124.01Z" fill="black"/>
<path d="M1136.77 1090.27L1135.14 1098.28L1097.57 1090.62L1094.6 1105.18L1086.9 1103.6L1094.46 1066.53L1102.17 1068.11L1099.21 1082.6L1136.77 1090.27Z" fill="black"/>
<path d="M1150.24 1034.25L1142.9 1062.6L1098.17 1051.02L1105.51 1022.67L1113.13 1024.65L1107.84 1045.07L1117.81 1047.66L1121.97 1031.58L1129.59 1033.55L1125.43 1049.63L1137.33 1052.71L1142.62 1032.28L1150.24 1034.25Z" fill="black"/>
<path d="M1167.12 979.874L1164.48 988.074L1123.23 1001.47L1156.68 1012.26L1154.17 1020.04L1110.2 1005.86L1113.36 996.059L1151.92 983.498L1120.66 973.419L1123.15 965.695L1167.12 979.874Z" fill="black"/>
<path d="M1174.09 928.687L1181.2 926.317C1183.46 931.835 1183.93 938.128 1181.53 944.228C1176.66 956.602 1163.04 962.915 1150.49 957.975C1138.23 953.151 1131.98 939.551 1137.01 926.77C1139.55 920.321 1144.35 915.773 1150.14 913.353L1153.61 920.22C1149.18 921.764 1145.79 924.924 1143.98 929.514C1140.66 937.938 1145.21 947.176 1153.52 950.446C1161.94 953.762 1171.31 949.733 1174.56 941.484C1176.18 937.359 1175.77 932.434 1174.09 928.687Z" fill="black"/>
<path d="M1204.75 888.854L1192.56 915.479L1150.55 896.251L1162.74 869.626L1169.89 872.9L1161.11 892.089L1170.48 896.376L1177.39 881.275L1184.54 884.549L1177.63 899.65L1188.81 904.768L1197.6 885.58L1204.75 888.854Z" fill="black"/>
<path d="M1658.74 1760.56L1671.83 1759.84L1674.38 1805.97L1661.28 1806.69C1646.57 1807.5 1636 1799.4 1635.2 1785C1634.41 1770.6 1644.03 1761.37 1658.74 1760.56ZM1664.1 1768.14L1659.36 1768.41C1650.2 1768.91 1642.75 1773.39 1643.37 1784.55C1643.98 1795.7 1651.87 1799.33 1661.04 1798.83L1665.78 1798.57L1664.1 1768.14Z" fill="black"/>
<path d="M1590.94 1760.37L1620.19 1761.68L1618.12 1807.84L1588.87 1806.52L1589.22 1798.67L1610.3 1799.61L1610.76 1789.32L1594.17 1788.58L1594.53 1780.72L1611.12 1781.46L1611.67 1769.18L1590.59 1768.23L1590.94 1760.37Z" fill="black"/>
<path d="M1554.28 1755.87L1562.74 1757.12L1573.98 1805.47L1565.09 1804.16L1557.06 1766.57L1538.53 1800.25L1529.63 1798.94L1554.28 1755.87Z" fill="black"/>
<path d="M1495.76 1743.2L1524.15 1750.37L1512.83 1795.17L1484.44 1787.99L1486.37 1780.36L1506.83 1785.54L1509.35 1775.55L1493.25 1771.48L1495.18 1763.85L1511.28 1767.92L1514.29 1756L1493.84 1750.83L1495.76 1743.2Z" fill="black"/>
<path d="M1453.86 1729.06L1481.78 1738.88L1466.45 1782.46L1458.74 1779.75L1471.46 1743.59L1451.25 1736.48L1453.86 1729.06Z" fill="black"/>
<path d="M1391.08 1725.83C1396.81 1713.77 1410.99 1708.82 1423.11 1714.58C1435.12 1720.29 1440.49 1734.31 1434.7 1746.49C1429.05 1758.39 1415.05 1763.7 1402.64 1757.8C1390.41 1751.99 1385.35 1737.9 1391.08 1725.83ZM1419.9 1721.35C1411.89 1717.54 1402.38 1721.11 1398.5 1729.29C1394.61 1737.47 1397.74 1747.18 1405.86 1751.03C1414.04 1754.92 1423.56 1751.01 1427.4 1742.95C1431.28 1734.77 1427.9 1725.15 1419.9 1721.35Z" fill="black"/>
<path d="M1382.82 1694L1389.79 1698.29L1365.57 1737.64L1351.64 1729.07C1342.28 1723.31 1341.8 1714.8 1346.18 1707.67C1350.57 1700.55 1358.41 1697.09 1367.77 1702.85L1374.74 1707.14L1382.82 1694ZM1370.62 1713.84L1363.65 1709.55C1359.02 1706.7 1355.29 1708.37 1353.13 1711.87C1350.97 1715.38 1351.14 1719.52 1355.76 1722.37L1362.73 1726.65L1370.62 1713.84Z" fill="black"/>
<path d="M1314.74 1645.42L1321.18 1650.47L1299.56 1678.03L1319.57 1671.03L1325.66 1675.81L1323.48 1696.8L1345.1 1669.24L1351.54 1674.29L1323.02 1710.64L1314.72 1704.13L1317.26 1680.25L1294.53 1688.29L1286.23 1681.78L1314.74 1645.42Z" fill="black"/>
<path d="M1281.75 1613.53L1302.62 1634.07L1270.22 1667L1249.34 1646.47L1254.86 1640.86L1269.9 1655.66L1277.13 1648.32L1265.29 1636.67L1270.81 1631.06L1282.65 1642.71L1291.27 1633.94L1276.23 1619.14L1281.75 1613.53Z" fill="black"/>
<path d="M1244.96 1570.31L1250.41 1576.98L1239.28 1618.9L1266.49 1596.65L1271.67 1602.98L1235.9 1632.23L1229.38 1624.25L1239.75 1585.05L1214.32 1605.84L1209.19 1599.55L1244.96 1570.31Z" fill="black"/>
<path d="M1224.38 1539.73L1228.82 1546.6L1196.61 1567.39L1204.67 1579.88L1198.06 1584.14L1177.54 1552.36L1184.15 1548.09L1192.17 1560.52L1224.38 1539.73Z" fill="black"/>
<path d="M987.914 540.293L978.826 540.293L974.922 530.181L954.506 530.181L950.666 540.293L941.578 540.293L960.522 492.933L969.034 492.933L987.914 540.293ZM971.914 522.181L964.746 503.365L957.514 522.181L971.914 522.181ZM1001.39 540.293L993.01 540.293L993.01 492.933L1009.78 492.933C1021.04 492.933 1026.03 500.101 1026.03 508.677C1026.03 517.253 1021.04 524.485 1009.78 524.485L1001.39 524.485L1001.39 540.293ZM1001.39 516.421L1009.78 516.421C1015.35 516.421 1017.71 512.965 1017.71 508.741C1017.71 504.517 1015.35 500.997 1009.78 500.997L1001.39 500.997L1001.39 516.421ZM1067.39 540.293L1057.98 540.293L1046.53 520.645L1040.83 520.645L1040.83 540.293L1032.45 540.293L1032.45 492.933L1051.65 492.933C1061.31 492.933 1066.56 498.501 1066.56 506.821C1066.56 513.925 1062.72 518.981 1055.62 520.197L1067.39 540.293ZM1040.83 512.581L1051.78 512.581C1055.68 512.581 1058.18 510.469 1058.18 506.885C1058.18 503.237 1055.68 500.997 1051.78 500.997L1040.83 500.997L1040.83 512.581Z" fill="black"/>
<path d="M2300.16 558.597H2291.77V522.693L2280.06 540.997H2272.12L2260.6 522.693V558.597H2252.22V511.237H2263.04L2276.09 532.101L2289.34 511.237H2300.16V558.597ZM2351.62 558.597H2342.54L2338.63 548.485H2318.22L2314.38 558.597H2305.29L2324.23 511.237H2332.74L2351.62 558.597ZM2335.62 540.485L2328.46 521.669L2321.22 540.485H2335.62ZM2372.64 558.597H2364.26V537.605L2347.11 511.237H2356.84L2368.42 529.733L2380.07 511.237H2389.8L2372.64 537.541V558.597Z" fill="black"/>
<path d="M2275.45 1955.29H2266.62L2240.57 1919.25V1955.29H2232.19V1907.93H2242.75L2267.13 1941.59V1907.93H2275.45V1955.29ZM2331.96 1931.61C2331.96 1945.3 2321.02 1956.12 2307.26 1956.12C2293.63 1956.12 2282.49 1945.49 2282.49 1931.67C2282.49 1918.17 2293.11 1907.09 2307.19 1907.09C2321.08 1907.09 2331.96 1917.91 2331.96 1931.61ZM2307.26 1948.44C2316.35 1948.44 2323.58 1940.95 2323.58 1931.67C2323.58 1922.39 2316.41 1914.77 2307.19 1914.77C2297.91 1914.77 2290.81 1922.58 2290.81 1931.73C2290.81 1941.01 2298.17 1948.44 2307.26 1948.44ZM2360.29 1955.29H2351.52L2332.9 1907.93H2342.11L2355.87 1944.85L2369.63 1907.93H2378.85L2360.29 1955.29Z" fill="black"/>
<path d="M965.381 1941.29L951.941 1941.29L951.941 1893.93L965.381 1893.93C980.485 1893.93 990.853 1902.82 990.853 1917.61C990.853 1932.39 980.485 1941.29 965.381 1941.29ZM960.325 1933.22L965.189 1933.22C974.597 1933.22 982.469 1929.06 982.469 1917.61C982.469 1906.15 974.597 1901.99 965.189 1901.99L960.325 1901.99L960.325 1933.22ZM1027.89 1941.29L997.878 1941.29L997.878 1893.93L1027.89 1893.93L1027.89 1901.99L1006.26 1901.99L1006.26 1912.55L1023.29 1912.55L1023.29 1920.61L1006.26 1920.61L1006.26 1933.22L1027.89 1933.22L1027.89 1941.29ZM1068.85 1929.19L1073.78 1935.08C1069.37 1939.3 1063.54 1942.12 1056.82 1942.12C1043.19 1942.12 1032.05 1931.49 1032.05 1917.67C1032.05 1904.17 1042.68 1893.09 1056.76 1893.09C1063.86 1893.09 1070.01 1895.97 1074.49 1900.58L1069.24 1906.47C1066.1 1902.82 1061.81 1900.77 1056.76 1900.77C1047.48 1900.77 1040.37 1908.58 1040.37 1917.73C1040.37 1927.01 1047.73 1934.44 1056.82 1934.44C1061.37 1934.44 1065.91 1932.2 1068.85 1929.19Z" fill="black"/>
<path d="M1260.4 593.853L1232.7 611.956L1204.44 568.707L1212.09 563.704L1235.54 599.589L1255.59 586.489L1260.4 593.853Z" fill="black"/>
<path d="M1289.33 558.086C1294.08 566.389 1291.17 577.059 1282.63 581.946C1274.14 586.798 1263.47 583.892 1258.72 575.589C1253.94 567.225 1256.92 556.676 1265.4 551.824C1273.95 546.937 1284.55 549.722 1289.33 558.086ZM1282 562.28C1279.57 558.037 1273.92 556.446 1269.49 558.976C1265.13 561.471 1263.63 567.152 1266.06 571.395C1268.52 575.698 1274.17 577.29 1278.54 574.794C1282.96 572.264 1284.46 566.583 1282 562.28Z" fill="black"/>
<path d="M1328.79 538.208C1333.04 546.776 1329.51 557.256 1320.7 561.631C1311.94 565.975 1301.46 562.446 1297.21 553.878C1292.93 545.247 1296.52 534.892 1305.27 530.548C1314.09 526.172 1324.51 529.577 1328.79 538.208ZM1321.23 541.962C1319.05 537.584 1313.5 535.662 1308.94 537.928C1304.43 540.162 1302.6 545.745 1304.78 550.123C1306.98 554.563 1312.53 556.485 1317.03 554.251C1321.6 551.986 1323.43 546.403 1321.23 541.962Z" fill="black"/>
<path d="M1376.31 535.619L1365.9 540.049L1348.03 531.572L1353.83 545.19L1345.93 548.554L1325.69 501.018L1333.59 497.654L1345.87 526.497L1351.89 509.974L1362.04 505.653L1354.61 525.281L1376.31 535.619Z" fill="black"/>
<path d="M1392.89 529.53L1384.84 532.543L1373.21 501.488L1381.25 498.475L1392.89 529.53ZM1375.33 494.805C1372.45 495.883 1369.39 494.493 1368.32 491.616C1367.24 488.739 1368.65 485.749 1371.53 484.671C1374.41 483.593 1377.37 484.942 1378.45 487.819C1379.53 490.696 1378.2 493.727 1375.33 494.805Z" fill="black"/>
<path d="M1435.21 515.226L1427.04 517.872L1421.58 501.002C1419.6 494.891 1415.92 494.617 1412.66 495.671C1409.41 496.726 1406.56 499.042 1408.52 505.086L1414.03 522.089L1405.86 524.735L1395.64 493.186L1403.81 490.54L1404.56 492.865C1405.92 490.955 1407.6 488.651 1411.92 487.253C1418.82 485.015 1426.11 487.131 1429.32 497.027L1435.21 515.226Z" fill="black"/>
<path d="M1470.76 504.922L1470.39 503.502C1468.36 506.26 1465.54 507.921 1462.23 508.773C1452.76 511.208 1443.24 505.584 1440.86 496.32C1438.46 486.989 1444.12 477.604 1453.59 475.169C1456.83 474.334 1460.1 474.43 1463.28 475.848L1462.67 473.481L1470.98 471.342L1478.66 501.16C1483.07 518.335 1472.69 523.384 1466.4 525.001C1460.25 526.584 1454.09 524.78 1449.9 520.812L1456.69 515.534C1458.82 517.077 1461.65 517.718 1464.35 517.023C1469.29 515.753 1472.65 512.292 1470.76 504.922ZM1466.83 489.641C1465.61 484.908 1460.57 481.878 1455.64 483.147C1450.77 484.4 1447.82 489.483 1449.04 494.216C1450.28 499.016 1455.31 502.047 1460.18 500.795C1465.11 499.525 1468.06 494.442 1466.83 489.641Z" fill="black"/>
<path d="M1522.64 494.815L1514.16 496.173L1506 445.158L1514.48 443.8L1517.79 464.482C1520.06 461.926 1523.02 460.533 1526.4 459.992C1536.05 458.448 1544.99 464.795 1546.51 474.309C1548.02 483.754 1541.53 492.711 1531.88 494.255C1528.51 494.796 1525.26 494.396 1522.3 492.678L1522.64 494.815ZM1519.98 478.201L1520.1 478.959C1521.06 483.614 1525.69 486.904 1530.58 486.12C1535.55 485.326 1538.95 480.539 1538.17 475.644C1537.39 470.818 1532.67 467.333 1527.7 468.127C1522.81 468.911 1519.45 473.549 1519.98 478.201Z" fill="black"/>
<path d="M1592.44 486.155L1583.9 486.974L1583.69 484.82C1581.26 487.227 1578.21 488.431 1574.81 488.757C1565.08 489.689 1556.55 482.651 1555.64 473.13C1554.72 463.539 1561.77 455.148 1571.5 454.216C1574.84 453.897 1578.05 454.5 1580.97 456.395L1580.73 453.963L1589.28 453.144L1592.44 486.155ZM1582.32 470.573C1581.86 465.708 1577.36 461.931 1572.29 462.417C1567.28 462.896 1563.58 467.459 1564.05 472.324C1564.52 477.258 1569.02 481.035 1574.02 480.556C1579.1 480.07 1582.8 475.507 1582.32 470.573Z" fill="black"/>
<path d="M1628.29 472.921L1635.71 476.981C1632.82 481.978 1627.36 485.461 1621.01 485.694C1611.24 486.051 1603.14 478.523 1602.79 468.965C1602.44 459.336 1609.97 451.376 1619.74 451.018C1626.02 450.788 1631.57 453.728 1634.89 458.358L1627.72 462.882C1625.96 460.571 1623.18 459.136 1620.04 459.251C1615.02 459.435 1611.05 463.772 1611.23 468.655C1611.41 473.609 1615.68 477.645 1620.71 477.461C1623.98 477.341 1626.78 475.561 1628.29 472.921Z" fill="black"/>
<path d="M1679.26 484.848L1667.95 484.629L1655.12 469.577L1654.83 484.375L1646.24 484.209L1647.24 432.555L1655.83 432.721L1655.22 464.063L1667.48 451.451L1678.51 451.664L1663.69 466.531L1679.26 484.848Z" fill="black"/>
<path d="M1728.61 481.33L1727.86 488.903C1727.86 488.903 1725.27 489.489 1721.17 489.083C1714.71 488.443 1711.8 483.874 1712.44 477.413L1713.92 462.406L1708.71 461.89L1709.52 453.691L1714.73 454.208L1715.84 443.022L1724.39 443.868L1723.28 455.054L1732.03 455.921L1731.22 464.12L1722.47 463.252L1721.16 476.453C1720.93 478.746 1721.35 480.961 1724.4 481.264C1726.56 481.478 1728.61 481.33 1728.61 481.33Z" fill="black"/>
<path d="M1775.11 478.801C1773.69 488.259 1764.8 494.83 1755.06 493.368C1745.4 491.916 1738.83 483.021 1740.25 473.562C1741.68 464.035 1750.55 457.602 1760.22 459.054C1769.95 460.517 1776.54 469.273 1775.11 478.801ZM1766.76 477.546C1767.48 472.713 1764.03 467.958 1758.99 467.201C1754.02 466.454 1749.33 469.985 1748.6 474.818C1747.86 479.72 1751.32 484.474 1756.29 485.221C1761.33 485.978 1766.02 482.448 1766.76 477.546Z" fill="black"/>
<path d="M1819.56 497.571L1817.86 504.99C1816.85 505.045 1815.49 505.022 1814.13 504.712C1807.94 503.299 1805.31 499.119 1806.71 492.993L1816.22 451.267L1824.6 453.177L1815.51 492.997C1815.02 495.175 1815.32 496.676 1818.25 497.344C1818.52 497.406 1819.06 497.53 1819.56 497.571Z" fill="black"/>
<path d="M1862.93 499.615C1860.39 508.834 1850.77 514.289 1841.28 511.668C1831.86 509.066 1826.4 499.446 1828.95 490.227C1831.51 480.94 1841.1 475.619 1850.52 478.222C1860.01 480.843 1865.5 490.328 1862.93 499.615ZM1854.79 497.365C1856.09 492.655 1853.24 487.52 1848.32 486.163C1843.48 484.825 1838.39 487.765 1837.09 492.476C1835.77 497.254 1838.63 502.389 1843.47 503.727C1848.39 505.084 1853.47 502.143 1854.79 497.365Z" fill="black"/>
<path d="M1904.84 513.614C1901.76 522.667 1891.84 527.547 1882.52 524.371C1873.27 521.218 1868.39 511.294 1871.47 502.241C1874.58 493.121 1884.46 488.374 1893.71 491.527C1903.03 494.702 1907.95 504.494 1904.84 513.614ZM1896.85 510.889C1898.43 506.263 1895.88 500.969 1891.05 499.325C1886.3 497.704 1881.04 500.34 1879.47 504.966C1877.87 509.658 1880.42 514.952 1885.18 516.573C1890 518.217 1895.25 515.581 1896.85 510.889Z" fill="black"/>
<path d="M1940.16 545.511L1929.69 541.247L1923.11 522.59L1917.53 536.299L1909.57 533.062L1929.05 485.209L1937 488.446L1925.19 517.481L1941.15 510.109L1951.37 514.268L1932.21 522.826L1940.16 545.511Z" fill="black"/>
<path d="M1976.74 562.977L1969.06 559.129L1980.23 536.847L1975.86 534.657L1979.55 527.292L1983.92 529.482L1987.39 522.554C1990.3 516.749 1994.96 514.318 2001.39 517.541C2003.07 518.385 2005.51 519.918 2006.75 521.168L2003.34 527.971C2003.34 527.971 2001.32 526.564 1999.88 525.845C1997.51 524.656 1995.82 524.904 1994.26 528.025L1991.6 533.33L1998.21 536.646L1994.52 544.011L1987.91 540.695L1976.74 562.977Z" fill="black"/>
<path d="M2030.15 573.29C2025.45 581.62 2014.79 584.588 2006.22 579.75C1997.71 574.946 1994.74 564.294 1999.44 555.963C2004.17 547.572 2014.76 544.727 2023.27 549.53C2031.85 554.368 2034.88 564.899 2030.15 573.29ZM2022.79 569.138C2025.19 564.882 2023.66 559.21 2019.22 556.705C2014.85 554.235 2009.2 555.859 2006.8 560.115C2004.36 564.432 2005.89 570.105 2010.27 572.575C2014.71 575.08 2020.35 573.456 2022.79 569.138Z" fill="black"/>
<path d="M2038.45 597.958L2031.19 593.361L2048.95 565.351L2056.2 569.949L2054.89 572.013C2058.88 571.727 2061.9 572.819 2067.33 576.258L2062.92 583.217C2053.66 577.348 2050.48 578.971 2047.42 583.806L2038.45 597.958Z" fill="black"/>
<path d="M2089.99 633.528L2083.1 628.526L2089.48 607.017L2071.23 619.915L2064 614.666L2073.93 580.896L2081.73 586.554L2074.36 608.121L2093.48 595.083L2099.58 599.512L2093 621.652L2111.28 607.999L2119.13 613.699L2089.99 633.528Z" fill="black"/>
<path d="M2131.31 667.339L2124.75 661.805L2126.14 660.15C2122.72 660.095 2119.73 658.764 2117.11 656.56C2109.64 650.261 2108.7 639.242 2114.86 631.929C2121.07 624.561 2132 623.728 2139.48 630.028C2142.04 632.187 2143.86 634.906 2144.54 638.316L2146.12 636.447L2152.68 641.981L2131.31 667.339ZM2135.36 649.206C2138.51 645.469 2138.06 639.611 2134.17 636.327C2130.32 633.087 2124.47 633.636 2121.32 637.373C2118.13 641.163 2118.58 647.021 2122.42 650.26C2126.32 653.545 2132.17 652.996 2135.36 649.206Z" fill="black"/>
<path d="M2147.75 682.514L2141.49 676.637L2164.18 652.456L2170.45 658.332L2168.77 660.114C2172.74 660.581 2175.51 662.222 2180.19 666.617L2174.56 672.625C2166.56 665.124 2163.14 666.121 2159.22 670.296L2147.75 682.514Z" fill="black"/>
<path d="M2187.19 722.136L2181.25 715.933L2182.81 714.436C2179.42 714.017 2176.59 712.376 2174.22 709.905C2167.46 702.845 2167.7 691.79 2174.61 685.174C2181.57 678.511 2192.52 678.847 2199.28 685.906C2201.6 688.326 2203.12 691.223 2203.44 694.687L2218.56 680.2L2224.5 686.403L2187.19 722.136ZM2193.15 704.537C2196.68 701.157 2196.86 695.285 2193.33 691.604C2189.86 687.973 2183.98 687.896 2180.45 691.276C2176.87 694.704 2176.69 700.576 2180.17 704.207C2183.7 707.888 2189.57 707.966 2193.15 704.537Z" fill="black"/>
<rect y="185" width="804" height="380" rx="10" fill="#FFCD00"/>
<path d="M103.734 316H71.3682V260.559H103.734V267.826H79.01V283.485H99.5381V290.677H79.01V308.808H103.734V316ZM145.937 316H138.67V297.345C138.67 290.228 135.898 286.556 129.979 286.556C123.836 286.556 120.914 290.527 120.914 297.869V316H113.721V280.413H120.914V284.234C123.311 281.537 126.233 279.739 131.253 279.739C139.719 279.739 145.937 284.683 145.937 295.847V316ZM192.094 316H184.901V311.804C181.904 315.326 177.784 316.974 172.989 316.974C162.425 316.974 154.184 308.808 154.184 298.394C154.184 287.83 162.575 279.739 172.989 279.739C177.784 279.739 181.83 281.462 184.901 284.983V260.559H192.094V316ZM184.751 298.394C184.751 291.951 179.732 286.556 172.989 286.556C166.321 286.556 161.301 291.801 161.301 298.394C161.301 305.062 166.321 310.231 172.989 310.231C179.807 310.231 184.751 304.837 184.751 298.394ZM258.736 298.394C258.736 308.583 250.27 316.974 239.931 316.974C229.667 316.974 221.276 308.658 221.276 298.394C221.276 288.205 229.517 279.739 239.931 279.739C250.27 279.739 258.736 288.13 258.736 298.394ZM251.618 298.319C251.618 291.876 246.449 286.556 240.006 286.556C233.338 286.556 228.393 292.175 228.393 298.469C228.393 304.837 233.487 310.231 240.006 310.231C246.598 310.231 251.618 304.687 251.618 298.319ZM275.158 316H267.89V287.231H262.646V280.413H267.89V272.172C267.89 265.354 271.037 260.559 278.829 260.559C280.777 260.559 283.024 260.859 284.747 261.383V267.826C283.998 267.602 281.975 267.302 280.477 267.302C276.656 267.302 275.158 269.1 275.158 274.569V280.413H283.998V287.231H275.158V316ZM321.593 334.955H314.475L320.993 316.674L306.459 280.413H314.326L324.515 307.159L334.104 280.413H341.297L321.593 334.955ZM381.33 300.791H352.186C353.16 306.26 357.656 310.456 363.724 310.456C367.62 310.456 371.441 308.733 373.689 305.586L378.783 309.482C375.487 314.127 369.868 316.974 363.724 316.974C353.385 316.974 345.069 308.883 345.069 298.394C345.069 288.429 352.636 279.739 363.275 279.739C373.838 279.739 381.48 288.355 381.48 298.319C381.48 299.293 381.405 300.042 381.33 300.791ZM352.411 295.097H374.138C373.314 290.153 368.969 286.332 363.35 286.332C357.805 286.332 353.685 290.078 352.411 295.097ZM425.194 316H418.002V311.804C415.005 315.326 410.885 316.974 406.09 316.974C395.526 316.974 387.285 308.808 387.285 298.394C387.285 287.83 395.676 279.739 406.09 279.739C410.885 279.739 414.93 281.462 418.002 284.983V280.413H425.194V316ZM417.852 298.394C417.852 291.951 412.832 286.556 406.09 286.556C399.422 286.556 394.402 291.801 394.402 298.394C394.402 305.062 399.422 310.231 406.09 310.231C412.907 310.231 417.852 304.837 417.852 298.394ZM444.372 316H437.18V280.413H444.372V284.683C447.818 280.563 451.34 279.739 458.232 279.739V286.631C446.47 286.631 444.372 291.426 444.372 297.57V316ZM492.148 316H484.956V280.413H492.148V284.683C495.594 280.563 499.116 279.739 506.008 279.739V286.631C494.246 286.631 492.148 291.426 492.148 297.57V316ZM546.535 300.791H517.391C518.365 306.26 522.86 310.456 528.929 310.456C532.824 310.456 536.645 308.733 538.893 305.586L543.988 309.482C540.691 314.127 535.072 316.974 528.929 316.974C518.59 316.974 510.274 308.883 510.274 298.394C510.274 288.429 517.84 279.739 528.479 279.739C539.043 279.739 546.685 288.355 546.685 298.319C546.685 299.293 546.61 300.042 546.535 300.791ZM517.616 295.097H539.342C538.518 290.153 534.173 286.332 528.554 286.332C523.01 286.332 518.889 290.078 517.616 295.097ZM572.277 316H564.56L549.876 280.413H557.667L568.306 307.01L579.095 280.413H586.886L572.277 316ZM600.872 316H593.605V280.413H600.872V316ZM597.276 273.371C594.653 273.371 592.631 271.348 592.631 268.725C592.631 266.103 594.653 264.08 597.276 264.08C599.898 264.08 601.846 266.103 601.846 268.725C601.846 271.348 599.898 273.371 597.276 273.371ZM646.111 300.791L616.967 300.791C617.941 306.26 622.436 310.456 628.505 310.456C632.401 310.456 636.222 308.733 638.469 305.586L643.564 309.482C640.267 314.127 634.648 316.974 628.505 316.974C618.166 316.974 609.85 308.883 609.85 298.394C609.85 288.429 617.417 279.739 628.055 279.739C638.619 279.739 646.261 288.355 646.261 298.319C646.261 299.293 646.186 300.042 646.111 300.791ZM617.192 295.097H638.919C638.095 290.153 633.749 286.332 628.13 286.332C622.586 286.332 618.466 290.078 617.192 295.097ZM696.193 316H688.701L679.711 290.377L670.796 316H663.154L649.818 280.413H657.759L666.975 306.635L676.34 280.413H683.007L692.372 306.635L701.588 280.413H709.604L696.193 316ZM105.906 395H98.714V390.804C95.7172 394.326 91.5966 395.974 86.8017 395.974C76.238 395.974 67.9968 387.808 67.9968 377.394C67.9968 366.83 76.3878 358.739 86.8017 358.739C91.5966 358.739 95.6423 360.462 98.714 363.983V359.413H105.906V395ZM98.5642 377.394C98.5642 370.951 93.5445 365.556 86.8017 365.556C80.1338 365.556 75.1142 370.801 75.1142 377.394C75.1142 384.062 80.1338 389.231 86.8017 389.231C93.6194 389.231 98.5642 383.837 98.5642 377.394ZM150.107 395H142.84V376.345C142.84 369.228 140.068 365.556 134.149 365.556C128.006 365.556 125.084 369.527 125.084 376.869V395H117.892V359.413H125.084V363.234C127.482 360.537 130.403 358.739 135.423 358.739C143.889 358.739 150.107 363.683 150.107 374.847V395ZM196.264 395H189.072V390.804C186.075 394.326 181.954 395.974 177.159 395.974C166.596 395.974 158.354 387.808 158.354 377.394C158.354 366.83 166.745 358.739 177.159 358.739C181.954 358.739 186 360.462 189.072 363.983V339.559H196.264V395ZM188.922 377.394C188.922 370.951 183.902 365.556 177.159 365.556C170.491 365.556 165.472 370.801 165.472 377.394C165.472 384.062 170.491 389.231 177.159 389.231C183.977 389.231 188.922 383.837 188.922 377.394ZM279.388 364.133V368.928C279.388 384.736 269.424 395.974 253.841 395.974C237.508 395.974 224.847 383.462 224.847 367.429C224.847 351.322 237.583 338.585 253.766 338.585C262.082 338.585 269.724 341.957 275.193 347.576L270.398 352.895C266.202 347.95 259.834 345.628 253.915 345.628C241.778 345.628 232.488 355.442 232.488 367.504C232.488 379.492 241.554 389.006 253.915 389.006C263.43 389.006 271.297 383.387 271.896 371.325H252.192V364.133H279.388ZM324.583 377.394C324.583 387.583 316.117 395.974 305.778 395.974C295.514 395.974 287.123 387.658 287.123 377.394C287.123 367.205 295.364 358.739 305.778 358.739C316.117 358.739 324.583 367.13 324.583 377.394ZM317.466 377.319C317.466 370.876 312.296 365.556 305.853 365.556C299.185 365.556 294.241 371.175 294.241 377.469C294.241 383.837 299.335 389.231 305.853 389.231C312.446 389.231 317.466 383.687 317.466 377.319ZM368.492 395H361.3V390.804C358.303 394.326 354.182 395.974 349.388 395.974C338.824 395.974 330.583 387.808 330.583 377.394C330.583 366.83 338.974 358.739 349.388 358.739C354.182 358.739 358.228 360.462 361.3 363.983V359.413H368.492V395ZM361.15 377.394C361.15 370.951 356.13 365.556 349.388 365.556C342.72 365.556 337.7 370.801 337.7 377.394C337.7 384.062 342.72 389.231 349.388 389.231C356.205 389.231 361.15 383.837 361.15 377.394ZM393.888 389.156V395.45C392.69 395.749 391.416 395.974 389.917 395.974C384.074 395.974 380.478 392.453 380.478 385.935V339.559H387.67V383.687C387.67 387.508 388.569 389.231 392.09 389.231C392.54 389.231 393.214 389.231 393.888 389.156ZM417.343 391.329L421.239 385.785C424.835 388.707 428.656 389.456 431.203 389.456C435.024 389.456 437.122 387.808 437.122 385.41C437.122 378.368 418.617 382.713 418.617 369.902C418.617 363.384 423.411 358.739 430.829 358.739C433.825 358.739 438.845 359.488 442.891 362.784L439.07 368.104C435.923 365.781 432.776 365.332 430.903 365.332C427.307 365.332 425.734 367.13 425.734 369.078C425.734 375.82 444.164 372.149 444.164 384.961C444.164 391.778 438.995 395.974 430.978 395.974C425.659 395.974 421.014 394.101 417.343 391.329ZM486.54 379.791H457.396C458.37 385.26 462.866 389.456 468.934 389.456C472.83 389.456 476.651 387.733 478.898 384.586L483.993 388.482C480.697 393.127 475.078 395.974 468.934 395.974C458.595 395.974 450.279 387.883 450.279 377.394C450.279 367.429 457.846 358.739 468.485 358.739C479.048 358.739 486.69 367.355 486.69 377.319C486.69 378.293 486.615 379.042 486.54 379.791ZM457.621 374.097H479.348C478.524 369.153 474.179 365.332 468.56 365.332C463.015 365.332 458.895 369.078 457.621 374.097ZM512.348 388.707V395.15C511.599 395.45 509.352 395.974 506.729 395.974C497.964 395.974 496.391 390.205 496.391 384.062V366.231H490.772V359.413H496.391V347.351H503.658V359.413H513.322V366.231H503.658V383.238C503.658 387.283 504.557 389.231 508.378 389.231C509.651 389.231 511.599 389.006 512.348 388.707ZM539.273 388.707V395.15C538.524 395.45 536.276 395.974 533.654 395.974C524.888 395.974 523.315 390.205 523.315 384.062V366.231H517.696V359.413H523.315V347.351H530.582V359.413H540.247V366.231H530.582V383.238C530.582 387.283 531.481 389.231 535.302 389.231C536.576 389.231 538.524 389.006 539.273 388.707ZM555.876 395H548.609V359.413H555.876V395ZM552.28 352.371C549.657 352.371 547.635 350.348 547.635 347.725C547.635 345.103 549.657 343.08 552.28 343.08C554.902 343.08 556.85 345.103 556.85 347.725C556.85 350.348 554.902 352.371 552.28 352.371ZM600.066 395H592.799V376.345C592.799 369.228 590.027 365.556 584.108 365.556C577.965 365.556 575.043 369.527 575.043 376.869V395H567.851V359.413H575.043V363.234C577.441 360.537 580.362 358.739 585.382 358.739C593.848 358.739 600.066 363.683 600.066 374.847V395ZM639.031 393.352V390.804C636.034 394.326 631.913 395.974 627.118 395.974C616.555 395.974 608.313 387.808 608.313 377.394C608.313 366.83 616.704 358.739 627.118 358.739C631.913 358.739 635.959 360.462 639.031 363.983V359.413H646.223V392.078C646.223 409.909 635.36 413.955 627.343 413.955C620.151 413.955 614.382 410.658 611.011 405.264L617.678 402.417C619.776 405.414 622.773 407.212 627.268 407.212C633.412 407.212 639.031 403.841 639.031 393.352ZM638.881 377.394C638.881 370.951 633.861 365.556 627.118 365.556C620.45 365.556 615.431 370.801 615.431 377.394C615.431 384.062 620.45 389.231 627.118 389.231C633.936 389.231 638.881 383.837 638.881 377.394ZM105.906 474H98.714V469.804C95.7172 473.326 91.5966 474.974 86.8017 474.974C76.238 474.974 67.9968 466.808 67.9968 456.394C67.9968 445.83 76.3878 437.739 86.8017 437.739C91.5966 437.739 95.6423 439.462 98.714 442.983V438.413H105.906L105.906 474ZM98.5642 456.394C98.5642 449.951 93.5445 444.556 86.8017 444.556C80.1338 444.556 75.1142 449.801 75.1142 456.394C75.1142 463.062 80.1338 468.231 86.8017 468.231C93.6194 468.231 98.5642 462.837 98.5642 456.394ZM131.302 468.156V474.45C130.104 474.749 128.83 474.974 127.332 474.974C121.488 474.974 117.892 471.453 117.892 464.935L117.892 418.559H125.084L125.084 462.687C125.084 466.508 125.983 468.231 129.504 468.231C129.954 468.231 130.628 468.231 131.302 468.156ZM145.352 474H138.085V438.413H145.352V474ZM141.756 431.371C139.134 431.371 137.111 429.348 137.111 426.725C137.111 424.103 139.134 422.08 141.756 422.08C144.378 422.08 146.326 424.103 146.326 426.725C146.326 429.348 144.378 431.371 141.756 431.371ZM185.048 472.352V469.804C182.051 473.326 177.93 474.974 173.135 474.974C162.572 474.974 154.33 466.808 154.33 456.394C154.33 445.83 162.721 437.739 173.135 437.739C177.93 437.739 181.976 439.462 185.048 442.983V438.413H192.24V471.078C192.24 488.909 181.377 492.955 173.36 492.955C166.168 492.955 160.399 489.658 157.028 484.264L163.695 481.417C165.793 484.414 168.79 486.212 173.285 486.212C179.429 486.212 185.048 482.841 185.048 472.352ZM184.898 456.394C184.898 449.951 179.878 444.556 173.135 444.556C166.467 444.556 161.448 449.801 161.448 456.394C161.448 463.062 166.467 468.231 173.135 468.231C179.953 468.231 184.898 462.837 184.898 456.394ZM236.441 474H229.174V455.345C229.174 448.228 226.402 444.556 220.483 444.556C214.34 444.556 211.418 448.527 211.418 455.869V474H204.225V438.413H211.418V442.234C213.815 439.537 216.737 437.739 221.757 437.739C230.223 437.739 236.441 442.683 236.441 453.847V474ZM280.949 458.791H251.805C252.779 464.26 257.275 468.456 263.343 468.456C267.239 468.456 271.06 466.733 273.307 463.586L278.402 467.482C275.106 472.127 269.487 474.974 263.343 474.974C253.004 474.974 244.688 466.883 244.688 456.394C244.688 446.429 252.255 437.739 262.894 437.739C273.457 437.739 281.099 446.355 281.099 456.319C281.099 457.293 281.024 458.042 280.949 458.791ZM252.03 453.097H273.757C272.933 448.153 268.587 444.332 262.968 444.332C257.424 444.332 253.304 448.078 252.03 453.097ZM324.813 474H317.621V469.804C314.624 473.326 310.503 474.974 305.709 474.974C295.145 474.974 286.904 466.808 286.904 456.394C286.904 445.83 295.295 437.739 305.709 437.739C310.503 437.739 314.549 439.462 317.621 442.983V418.559H324.813V474ZM317.471 456.394C317.471 449.951 312.451 444.556 305.709 444.556C299.041 444.556 294.021 449.801 294.021 456.394C294.021 463.062 299.041 468.231 305.709 468.231C312.526 468.231 317.471 462.837 317.471 456.394ZM373.117 467.707V474.15C372.368 474.45 370.12 474.974 367.498 474.974C358.733 474.974 357.159 469.205 357.159 463.062V445.231H351.54V438.413H357.159V426.351H364.427V438.413H374.091V445.231H364.427V462.238C364.427 466.283 365.326 468.231 369.147 468.231C370.42 468.231 372.368 468.006 373.117 467.707ZM416.916 456.394C416.916 466.583 408.45 474.974 398.111 474.974C387.847 474.974 379.456 466.658 379.456 456.394C379.456 446.205 387.697 437.739 398.111 437.739C408.45 437.739 416.916 446.13 416.916 456.394ZM409.799 456.319C409.799 449.876 404.629 444.556 398.186 444.556C391.518 444.556 386.574 450.175 386.574 456.469C386.574 462.837 391.668 468.231 398.186 468.231C404.779 468.231 409.799 462.687 409.799 456.319ZM442.585 470.329L446.48 464.785C450.077 467.707 453.897 468.456 456.445 468.456C460.266 468.456 462.363 466.808 462.363 464.41C462.363 457.368 443.858 461.713 443.858 448.902C443.858 442.384 448.653 437.739 456.07 437.739C459.067 437.739 464.087 438.488 468.132 441.784L464.311 447.104C461.165 444.781 458.018 444.332 456.145 444.332C452.549 444.332 450.976 446.13 450.976 448.078C450.976 454.82 469.406 451.149 469.406 463.961C469.406 470.778 464.236 474.974 456.22 474.974C450.901 474.974 446.256 473.101 442.585 470.329ZM495.009 467.707V474.15C494.259 474.45 492.012 474.974 489.39 474.974C480.624 474.974 479.051 469.205 479.051 463.062V445.231H473.432V438.413H479.051V426.351H486.318V438.413H495.983V445.231H486.318V462.238C486.318 466.283 487.217 468.231 491.038 468.231C492.311 468.231 494.259 468.006 495.009 467.707ZM511.537 474H504.344V438.413H511.537V442.683C514.983 438.563 518.504 437.739 525.397 437.739V444.631C513.634 444.631 511.537 449.426 511.537 455.57V474ZM566.108 474H558.916V469.804C555.919 473.326 551.799 474.974 547.004 474.974C536.44 474.974 528.199 466.808 528.199 456.394C528.199 445.83 536.59 437.739 547.004 437.739C551.799 437.739 555.844 439.462 558.916 442.983V438.413H566.108V474ZM558.766 456.394C558.766 449.951 553.746 444.556 547.004 444.556C540.336 444.556 535.316 449.801 535.316 456.394C535.316 463.062 540.336 468.231 547.004 468.231C553.821 468.231 558.766 462.837 558.766 456.394ZM594.951 467.707V474.15C594.201 474.45 591.954 474.974 589.332 474.974C580.566 474.974 578.993 469.205 578.993 463.062V445.231H573.374V438.413H578.993V426.351H586.26V438.413H595.925V445.231H586.26V462.238C586.26 466.283 587.159 468.231 590.98 468.231C592.254 468.231 594.201 468.006 594.951 467.707ZM637.551 458.791H608.407C609.381 464.26 613.876 468.456 619.945 468.456C623.841 468.456 627.661 466.733 629.909 463.586L635.004 467.482C631.707 472.127 626.088 474.974 619.945 474.974C609.606 474.974 601.29 466.883 601.29 456.394C601.29 446.429 608.857 437.739 619.495 437.739C630.059 437.739 637.701 446.355 637.701 456.319C637.701 457.293 637.626 458.042 637.551 458.791ZM608.632 453.097H630.359C629.534 448.153 625.189 444.332 619.57 444.332C614.026 444.332 609.905 448.078 608.632 453.097ZM674.222 472.352V469.804C671.226 473.326 667.105 474.974 662.31 474.974C651.746 474.974 643.505 466.808 643.505 456.394C643.505 445.83 651.896 437.739 662.31 437.739C667.105 437.739 671.151 439.462 674.222 442.983V438.413H681.415V471.078C681.415 488.909 670.551 492.955 662.535 492.955C655.343 492.955 649.574 489.658 646.202 484.264L652.87 481.417C654.968 484.414 657.965 486.212 662.46 486.212C668.603 486.212 674.222 482.841 674.222 472.352ZM674.073 456.394C674.073 449.951 669.053 444.556 662.31 444.556C655.642 444.556 650.623 449.801 650.623 456.394C650.623 463.062 655.642 468.231 662.31 468.231C669.128 468.231 674.073 462.837 674.073 456.394ZM703.29 492.955H696.172L702.69 474.674L688.156 438.413H696.022L706.212 465.159L715.801 438.413H722.994L703.29 492.955Z" fill="black"/>
<path d="M1081 261L1268 448" stroke="black" stroke-width="10"/>
<path d="M1086 264L804 264" stroke="black" stroke-width="10"/>
<rect x="3113" y="2537" width="804" height="380" rx="10" transform="rotate(180 3113 2537)" fill="#64A70B"/>
<path d="M2363.9 2289H2356.18V2240.83H2338.5V2233.56H2381.5V2240.83H2363.9V2289ZM2392.47 2289H2385.28V2253.41H2392.47V2257.68C2395.92 2253.56 2399.44 2252.74 2406.33 2252.74V2259.63C2394.57 2259.63 2392.47 2264.43 2392.47 2270.57V2289ZM2447.05 2289H2439.85V2284.8C2436.86 2288.33 2432.74 2289.97 2427.94 2289.97C2417.38 2289.97 2409.14 2281.81 2409.14 2271.39C2409.14 2260.83 2417.53 2252.74 2427.94 2252.74C2432.74 2252.74 2436.78 2254.46 2439.85 2257.98V2253.41H2447.05V2289ZM2439.7 2271.39C2439.7 2264.95 2434.68 2259.56 2427.94 2259.56C2421.27 2259.56 2416.25 2264.8 2416.25 2271.39C2416.25 2278.06 2421.27 2283.23 2427.94 2283.23C2434.76 2283.23 2439.7 2277.84 2439.7 2271.39ZM2484.73 2277.61L2490.72 2281.13C2487.43 2286.45 2481.43 2289.97 2474.69 2289.97C2464.43 2289.97 2456.04 2281.66 2456.04 2271.39C2456.04 2261.2 2464.28 2252.74 2474.69 2252.74C2481.36 2252.74 2487.28 2256.26 2490.57 2261.5L2484.5 2264.95C2482.48 2261.73 2478.81 2259.56 2474.69 2259.56C2468.17 2259.56 2463.15 2265.1 2463.15 2271.47C2463.15 2277.84 2468.25 2283.23 2474.84 2283.23C2479.11 2283.23 2482.71 2280.98 2484.73 2277.61ZM2530.38 2289H2520.94L2505.81 2271.99V2289H2498.61V2233.56H2505.81V2268.1L2519.52 2253.41H2529.03L2513.37 2269.75L2530.38 2289ZM2563.61 2307.95H2556.41V2253.41H2563.61V2257.98C2566.6 2254.46 2570.72 2252.74 2575.52 2252.74C2585.93 2252.74 2594.32 2260.83 2594.32 2271.39C2594.32 2281.81 2586.08 2289.97 2575.52 2289.97C2570.72 2289.97 2566.6 2288.33 2563.61 2284.8V2307.95ZM2563.83 2271.39C2563.83 2277.84 2568.55 2283.23 2575.44 2283.23C2582.19 2283.23 2587.21 2278.06 2587.21 2271.39C2587.21 2264.8 2582.19 2259.56 2575.52 2259.56C2568.85 2259.56 2563.83 2264.8 2563.83 2271.39ZM2610.5 2289H2603.31V2253.41H2610.5V2257.68C2613.95 2253.56 2617.47 2252.74 2624.36 2252.74V2259.63C2612.6 2259.63 2610.5 2264.43 2610.5 2270.57V2289ZM2666.09 2271.39C2666.09 2281.58 2657.62 2289.97 2647.28 2289.97C2637.02 2289.97 2628.63 2281.66 2628.63 2271.39C2628.63 2261.2 2636.87 2252.74 2647.28 2252.74C2657.62 2252.74 2666.09 2261.13 2666.09 2271.39ZM2658.97 2271.32C2658.97 2264.88 2653.8 2259.56 2647.36 2259.56C2640.69 2259.56 2635.75 2265.17 2635.75 2271.47C2635.75 2277.84 2640.84 2283.23 2647.36 2283.23C2653.95 2283.23 2658.97 2277.69 2658.97 2271.32ZM2702.81 2287.35V2284.8C2699.81 2288.33 2695.69 2289.97 2690.89 2289.97C2680.33 2289.97 2672.09 2281.81 2672.09 2271.39C2672.09 2260.83 2680.48 2252.74 2690.89 2252.74C2695.69 2252.74 2699.73 2254.46 2702.81 2257.98V2253.41H2710V2286.08C2710 2303.91 2699.13 2307.95 2691.12 2307.95C2683.93 2307.95 2678.16 2304.66 2674.79 2299.26L2681.45 2296.42C2683.55 2299.41 2686.55 2301.21 2691.04 2301.21C2697.19 2301.21 2702.81 2297.84 2702.81 2287.35ZM2702.66 2271.39C2702.66 2264.95 2697.64 2259.56 2690.89 2259.56C2684.23 2259.56 2679.21 2264.8 2679.21 2271.39C2679.21 2278.06 2684.23 2283.23 2690.89 2283.23C2697.71 2283.23 2702.66 2277.84 2702.66 2271.39ZM2729.18 2289H2721.98V2253.41H2729.18V2257.68C2732.62 2253.56 2736.14 2252.74 2743.04 2252.74V2259.63C2731.27 2259.63 2729.18 2264.43 2729.18 2270.57V2289ZM2783.56 2273.79H2754.42C2755.39 2279.26 2759.89 2283.46 2765.96 2283.46C2769.85 2283.46 2773.67 2281.73 2775.92 2278.59L2781.02 2282.48C2777.72 2287.13 2772.1 2289.97 2765.96 2289.97C2755.62 2289.97 2747.3 2281.88 2747.3 2271.39C2747.3 2261.43 2754.87 2252.74 2765.51 2252.74C2776.07 2252.74 2783.71 2261.35 2783.71 2271.32C2783.71 2272.29 2783.64 2273.04 2783.56 2273.79ZM2754.64 2268.1H2776.37C2775.55 2263.15 2771.2 2259.33 2765.58 2259.33C2760.04 2259.33 2755.92 2263.08 2754.64 2268.1ZM2788.99 2285.33L2792.89 2279.78C2796.48 2282.71 2800.31 2283.46 2802.85 2283.46C2806.67 2283.46 2808.77 2281.81 2808.77 2279.41C2808.77 2272.37 2790.27 2276.71 2790.27 2263.9C2790.27 2257.38 2795.06 2252.74 2802.48 2252.74C2805.47 2252.74 2810.49 2253.49 2814.54 2256.78L2810.72 2262.1C2807.57 2259.78 2804.43 2259.33 2802.55 2259.33C2798.96 2259.33 2797.38 2261.13 2797.38 2263.08C2797.38 2269.82 2815.81 2266.15 2815.81 2278.96C2815.81 2285.78 2810.64 2289.97 2802.63 2289.97C2797.31 2289.97 2792.66 2288.1 2788.99 2285.33ZM2821.4 2285.33L2825.3 2279.78C2828.9 2282.71 2832.72 2283.46 2835.26 2283.46C2839.09 2283.46 2841.18 2281.81 2841.18 2279.41C2841.18 2272.37 2822.68 2276.71 2822.68 2263.9C2822.68 2257.38 2827.47 2252.74 2834.89 2252.74C2837.89 2252.74 2842.91 2253.49 2846.95 2256.78L2843.13 2262.1C2839.98 2259.78 2836.84 2259.33 2834.96 2259.33C2831.37 2259.33 2829.8 2261.13 2829.8 2263.08C2829.8 2269.82 2848.23 2266.15 2848.23 2278.96C2848.23 2285.78 2843.06 2289.97 2835.04 2289.97C2829.72 2289.97 2825.08 2288.1 2821.4 2285.33ZM2859.81 2298.14V2294.39C2861.61 2294.09 2863.85 2292.15 2864.08 2289.37C2863.85 2289.45 2863.41 2289.45 2863.26 2289.45C2860.86 2289.45 2858.84 2287.5 2858.84 2284.88C2858.84 2282.26 2860.78 2280.23 2863.56 2280.23C2866.7 2280.23 2868.35 2282.93 2868.35 2286.6C2868.35 2291.77 2865.2 2297.99 2859.81 2298.14ZM2368.69 2356.61L2374.68 2360.13C2371.39 2365.45 2365.39 2368.97 2358.65 2368.97C2348.39 2368.97 2340 2360.66 2340 2350.39C2340 2340.2 2348.24 2331.74 2358.65 2331.74C2365.32 2331.74 2371.24 2335.26 2374.53 2340.5L2368.47 2343.95C2366.44 2340.73 2362.77 2338.56 2358.65 2338.56C2352.13 2338.56 2347.11 2344.1 2347.11 2350.47C2347.11 2356.84 2352.21 2362.23 2358.8 2362.23C2363.07 2362.23 2366.67 2359.98 2368.69 2356.61ZM2395.99 2362.16V2368.45C2394.79 2368.75 2393.51 2368.97 2392.02 2368.97C2386.17 2368.97 2382.58 2365.45 2382.58 2358.93V2312.56H2389.77V2356.69C2389.77 2360.51 2390.67 2362.23 2394.19 2362.23C2394.64 2362.23 2395.31 2362.23 2395.99 2362.16ZM2437.68 2368H2430.49V2363.8C2427.49 2367.33 2423.37 2368.97 2418.58 2368.97C2408.01 2368.97 2399.77 2360.81 2399.77 2350.39C2399.77 2339.83 2408.16 2331.74 2418.58 2331.74C2423.37 2331.74 2427.42 2333.46 2430.49 2336.98V2332.41H2437.68V2368ZM2430.34 2350.39C2430.34 2343.95 2425.32 2338.56 2418.58 2338.56C2411.91 2338.56 2406.89 2343.8 2406.89 2350.39C2406.89 2357.06 2411.91 2362.23 2418.58 2362.23C2425.39 2362.23 2430.34 2356.84 2430.34 2350.39ZM2456.86 2368H2449.67V2332.41H2456.86V2336.68C2460.31 2332.56 2463.83 2331.74 2470.72 2331.74V2338.63C2458.96 2338.63 2456.86 2343.43 2456.86 2349.57V2368ZM2485.25 2368H2477.98V2332.41H2485.25V2368ZM2481.65 2325.37C2479.03 2325.37 2477.01 2323.35 2477.01 2320.72C2477.01 2318.1 2479.03 2316.08 2481.65 2316.08C2484.27 2316.08 2486.22 2318.1 2486.22 2320.72C2486.22 2323.35 2484.27 2325.37 2481.65 2325.37ZM2505.02 2368H2497.75V2339.23H2492.5V2332.41H2497.75V2324.17C2497.75 2317.35 2500.89 2312.56 2508.69 2312.56C2510.63 2312.56 2512.88 2312.86 2514.6 2313.38V2319.83C2513.86 2319.6 2511.83 2319.3 2510.33 2319.3C2506.51 2319.3 2505.02 2321.1 2505.02 2326.57V2332.41H2513.86V2339.23H2505.02V2368ZM2531.99 2386.95H2524.87L2531.39 2368.67L2516.85 2332.41H2524.72L2534.91 2359.16L2544.5 2332.41H2551.69L2531.99 2386.95ZM2611.92 2352.79H2582.78C2583.75 2358.26 2588.24 2362.46 2594.31 2362.46C2598.21 2362.46 2602.03 2360.73 2604.28 2357.59L2609.37 2361.48C2606.08 2366.13 2600.46 2368.97 2594.31 2368.97C2583.97 2368.97 2575.66 2360.88 2575.66 2350.39C2575.66 2340.43 2583.23 2331.74 2593.86 2331.74C2604.43 2331.74 2612.07 2340.35 2612.07 2350.32C2612.07 2351.29 2611.99 2352.04 2611.92 2352.79ZM2583 2347.1H2604.73C2603.9 2342.15 2599.56 2338.33 2593.94 2338.33C2588.39 2338.33 2584.27 2342.08 2583 2347.1ZM2648.31 2368H2640.29L2631.6 2355.11L2622.91 2368H2614.89L2627.56 2349.27L2616.02 2332.41H2624.11L2631.6 2343.43L2639.09 2332.41H2647.19L2635.65 2349.27L2648.31 2368ZM2662.23 2386.95H2655.04V2332.41H2662.23V2336.98C2665.23 2333.46 2669.35 2331.74 2674.14 2331.74C2684.56 2331.74 2692.95 2339.83 2692.95 2350.39C2692.95 2360.81 2684.71 2368.97 2674.14 2368.97C2669.35 2368.97 2665.23 2367.33 2662.23 2363.8V2386.95ZM2662.46 2350.39C2662.46 2356.84 2667.18 2362.23 2674.07 2362.23C2680.81 2362.23 2685.83 2357.06 2685.83 2350.39C2685.83 2343.8 2680.81 2338.56 2674.14 2338.56C2667.48 2338.56 2662.46 2343.8 2662.46 2350.39ZM2735.2 2352.79H2706.06C2707.03 2358.26 2711.53 2362.46 2717.59 2362.46C2721.49 2362.46 2725.31 2360.73 2727.56 2357.59L2732.65 2361.48C2729.36 2366.13 2723.74 2368.97 2717.59 2368.97C2707.26 2368.97 2698.94 2360.88 2698.94 2350.39C2698.94 2340.43 2706.51 2331.74 2717.15 2331.74C2727.71 2331.74 2735.35 2340.35 2735.35 2350.32C2735.35 2351.29 2735.28 2352.04 2735.2 2352.79ZM2706.28 2347.1H2728.01C2727.18 2342.15 2722.84 2338.33 2717.22 2338.33C2711.68 2338.33 2707.56 2342.08 2706.28 2347.1ZM2769.85 2356.61L2775.84 2360.13C2772.55 2365.45 2766.55 2368.97 2759.81 2368.97C2749.55 2368.97 2741.16 2360.66 2741.16 2350.39C2741.16 2340.2 2749.4 2331.74 2759.81 2331.74C2766.48 2331.74 2772.4 2335.26 2775.69 2340.5L2769.62 2343.95C2767.6 2340.73 2763.93 2338.56 2759.81 2338.56C2753.29 2338.56 2748.27 2344.1 2748.27 2350.47C2748.27 2356.84 2753.37 2362.23 2759.96 2362.23C2764.23 2362.23 2767.83 2359.98 2769.85 2356.61ZM2800.59 2361.71V2368.15C2799.84 2368.45 2797.59 2368.97 2794.97 2368.97C2786.21 2368.97 2784.63 2363.2 2784.63 2357.06V2339.23H2779.01V2332.41H2784.63V2320.35H2791.9V2332.41H2801.56V2339.23H2791.9V2356.24C2791.9 2360.28 2792.8 2362.23 2796.62 2362.23C2797.89 2362.23 2799.84 2362.01 2800.59 2361.71ZM2843.74 2368H2836.55V2363.8C2833.55 2367.33 2829.43 2368.97 2824.64 2368.97C2814.07 2368.97 2805.83 2360.81 2805.83 2350.39C2805.83 2339.83 2814.22 2331.74 2824.64 2331.74C2829.43 2331.74 2833.48 2333.46 2836.55 2336.98V2332.41H2843.74V2368ZM2836.4 2350.39C2836.4 2343.95 2831.38 2338.56 2824.64 2338.56C2817.97 2338.56 2812.95 2343.8 2812.95 2350.39C2812.95 2357.06 2817.97 2362.23 2824.64 2362.23C2831.46 2362.23 2836.4 2356.84 2836.4 2350.39ZM2872.58 2361.71V2368.15C2871.84 2368.45 2869.59 2368.97 2866.97 2368.97C2858.2 2368.97 2856.63 2363.2 2856.63 2357.06V2339.23H2851.01V2332.41H2856.63V2320.35H2863.89V2332.41H2873.56V2339.23H2863.89V2356.24C2863.89 2360.28 2864.79 2362.23 2868.61 2362.23C2869.89 2362.23 2871.84 2362.01 2872.58 2361.71ZM2889.19 2368H2881.92V2332.41H2889.19V2368ZM2885.59 2325.37C2882.97 2325.37 2880.95 2323.35 2880.95 2320.72C2880.95 2318.1 2882.97 2316.08 2885.59 2316.08C2888.21 2316.08 2890.16 2318.1 2890.16 2320.72C2890.16 2323.35 2888.21 2325.37 2885.59 2325.37ZM2935.63 2350.39C2935.63 2360.58 2927.16 2368.97 2916.82 2368.97C2906.56 2368.97 2898.17 2360.66 2898.17 2350.39C2898.17 2340.2 2906.41 2331.74 2916.82 2331.74C2927.16 2331.74 2935.63 2340.13 2935.63 2350.39ZM2928.51 2350.32C2928.51 2343.88 2923.34 2338.56 2916.9 2338.56C2910.23 2338.56 2905.28 2344.17 2905.28 2350.47C2905.28 2356.84 2910.38 2362.23 2916.9 2362.23C2923.49 2362.23 2928.51 2356.69 2928.51 2350.32ZM2976.84 2368H2969.57V2349.34C2969.57 2342.23 2966.8 2338.56 2960.88 2338.56C2954.74 2338.56 2951.81 2342.53 2951.81 2349.87V2368H2944.62V2332.41H2951.81V2336.23C2954.21 2333.54 2957.13 2331.74 2962.15 2331.74C2970.62 2331.74 2976.84 2336.68 2976.84 2347.85V2368ZM2984.56 2364.33L2988.46 2358.78C2992.05 2361.71 2995.87 2362.46 2998.42 2362.46C3002.24 2362.46 3004.34 2360.81 3004.34 2358.41C3004.34 2351.37 2985.83 2355.71 2985.83 2342.9C2985.83 2336.38 2990.63 2331.74 2998.05 2331.74C3001.04 2331.74 3006.06 2332.49 3010.11 2335.78L3006.29 2341.1C3003.14 2338.78 2999.99 2338.33 2998.12 2338.33C2994.52 2338.33 2992.95 2340.13 2992.95 2342.08C2992.95 2348.82 3011.38 2345.15 3011.38 2357.96C3011.38 2364.78 3006.21 2368.97 2998.2 2368.97C2992.88 2368.97 2988.23 2367.1 2984.56 2364.33ZM2377.91 2447H2370.71V2442.8C2367.72 2446.33 2363.6 2447.97 2358.8 2447.97C2348.24 2447.97 2340 2439.81 2340 2429.39C2340 2418.83 2348.39 2410.74 2358.8 2410.74C2363.6 2410.74 2367.64 2412.46 2370.71 2415.98V2411.41H2377.91V2447ZM2370.56 2429.39C2370.56 2422.95 2365.54 2417.56 2358.8 2417.56C2352.13 2417.56 2347.11 2422.8 2347.11 2429.39C2347.11 2436.06 2352.13 2441.23 2358.8 2441.23C2365.62 2441.23 2370.56 2435.84 2370.56 2429.39ZM2422.11 2447H2414.84V2428.34C2414.84 2421.23 2412.07 2417.56 2406.15 2417.56C2400.01 2417.56 2397.08 2421.53 2397.08 2428.87V2447H2389.89V2411.41H2397.08V2415.23C2399.48 2412.54 2402.4 2410.74 2407.42 2410.74C2415.89 2410.74 2422.11 2415.68 2422.11 2426.85V2447ZM2468.26 2447H2461.07V2442.8C2458.07 2446.33 2453.95 2447.97 2449.16 2447.97C2438.6 2447.97 2430.35 2439.81 2430.35 2429.39C2430.35 2418.83 2438.75 2410.74 2449.16 2410.74C2453.95 2410.74 2458 2412.46 2461.07 2415.98V2391.56H2468.26V2447ZM2460.92 2429.39C2460.92 2422.95 2455.9 2417.56 2449.16 2417.56C2442.49 2417.56 2437.47 2422.8 2437.47 2429.39C2437.47 2436.06 2442.49 2441.23 2449.16 2441.23C2455.98 2441.23 2460.92 2435.84 2460.92 2429.39ZM2507.63 2465.95H2500.44V2411.41H2507.63V2415.98C2510.63 2412.46 2514.75 2410.74 2519.55 2410.74C2529.96 2410.74 2538.35 2418.83 2538.35 2429.39C2538.35 2439.81 2530.11 2447.97 2519.55 2447.97C2514.75 2447.97 2510.63 2446.33 2507.63 2442.8V2465.95ZM2507.86 2429.39C2507.86 2435.84 2512.58 2441.23 2519.47 2441.23C2526.22 2441.23 2531.23 2436.06 2531.23 2429.39C2531.23 2422.8 2526.22 2417.56 2519.55 2417.56C2512.88 2417.56 2507.86 2422.8 2507.86 2429.39ZM2560.75 2441.16V2447.45C2559.55 2447.75 2558.28 2447.97 2556.78 2447.97C2550.94 2447.97 2547.34 2444.45 2547.34 2437.93V2391.56H2554.53V2435.69C2554.53 2439.51 2555.43 2441.23 2558.95 2441.23C2559.4 2441.23 2560.08 2441.23 2560.75 2441.16ZM2602.45 2447H2595.25V2442.8C2592.26 2446.33 2588.14 2447.97 2583.34 2447.97C2572.78 2447.97 2564.54 2439.81 2564.54 2429.39C2564.54 2418.83 2572.93 2410.74 2583.34 2410.74C2588.14 2410.74 2592.18 2412.46 2595.25 2415.98V2411.41H2602.45V2447ZM2595.1 2429.39C2595.1 2422.95 2590.09 2417.56 2583.34 2417.56C2576.67 2417.56 2571.65 2422.8 2571.65 2429.39C2571.65 2436.06 2576.67 2441.23 2583.34 2441.23C2590.16 2441.23 2595.1 2435.84 2595.1 2429.39ZM2646.65 2447H2639.38V2428.34C2639.38 2421.23 2636.61 2417.56 2630.69 2417.56C2624.55 2417.56 2621.62 2421.53 2621.62 2428.87V2447H2614.43V2411.41H2621.62V2415.23C2624.02 2412.54 2626.94 2410.74 2631.96 2410.74C2640.43 2410.74 2646.65 2415.68 2646.65 2426.85V2447ZM2685.88 2447H2678.61V2418.23H2673.37V2411.41H2678.61V2403.17C2678.61 2396.35 2681.76 2391.56 2689.55 2391.56C2691.5 2391.56 2693.74 2391.86 2695.47 2392.38V2398.83C2694.72 2398.6 2692.69 2398.3 2691.2 2398.3C2687.38 2398.3 2685.88 2400.1 2685.88 2405.57V2411.41H2694.72V2418.23H2685.88V2447ZM2737.42 2429.39C2737.42 2439.58 2728.96 2447.97 2718.62 2447.97C2708.36 2447.97 2699.96 2439.66 2699.96 2429.39C2699.96 2419.2 2708.21 2410.74 2718.62 2410.74C2728.96 2410.74 2737.42 2419.13 2737.42 2429.39ZM2730.31 2429.32C2730.31 2422.88 2725.14 2417.56 2718.69 2417.56C2712.03 2417.56 2707.08 2423.17 2707.08 2429.47C2707.08 2435.84 2712.18 2441.23 2718.69 2441.23C2725.29 2441.23 2730.31 2435.69 2730.31 2429.32ZM2753.61 2447H2746.42V2411.41H2753.61V2415.68C2757.06 2411.56 2760.58 2410.74 2767.47 2410.74V2417.63C2755.71 2417.63 2753.61 2422.43 2753.61 2428.57V2447ZM2790.68 2443.33L2794.57 2437.78C2798.17 2440.71 2801.99 2441.46 2804.54 2441.46C2808.36 2441.46 2810.45 2439.81 2810.45 2437.41C2810.45 2430.37 2791.95 2434.71 2791.95 2421.9C2791.95 2415.38 2796.74 2410.74 2804.16 2410.74C2807.16 2410.74 2812.18 2411.49 2816.22 2414.78L2812.4 2420.1C2809.26 2417.78 2806.11 2417.33 2804.24 2417.33C2800.64 2417.33 2799.07 2419.13 2799.07 2421.08C2799.07 2427.82 2817.5 2424.15 2817.5 2436.96C2817.5 2443.78 2812.33 2447.97 2804.31 2447.97C2798.99 2447.97 2794.35 2446.1 2790.68 2443.33ZM2851.11 2430.52V2411.41H2858.3V2432.54C2858.3 2443.7 2852.08 2447.97 2842.12 2447.97C2832.15 2447.97 2825.93 2443.7 2825.93 2432.54V2411.41H2833.2V2430.52C2833.2 2437.18 2834.77 2441.23 2842.12 2441.23C2849.53 2441.23 2851.11 2437.18 2851.11 2430.52ZM2895.4 2435.61L2901.39 2439.13C2898.1 2444.45 2892.1 2447.97 2885.36 2447.97C2875.1 2447.97 2866.7 2439.66 2866.7 2429.39C2866.7 2419.2 2874.95 2410.74 2885.36 2410.74C2892.03 2410.74 2897.95 2414.26 2901.24 2419.5L2895.17 2422.95C2893.15 2419.73 2889.48 2417.56 2885.36 2417.56C2878.84 2417.56 2873.82 2423.1 2873.82 2429.47C2873.82 2435.84 2878.92 2441.23 2885.51 2441.23C2889.78 2441.23 2893.38 2438.98 2895.4 2435.61ZM2934.98 2435.61L2940.97 2439.13C2937.68 2444.45 2931.68 2447.97 2924.94 2447.97C2914.68 2447.97 2906.29 2439.66 2906.29 2429.39C2906.29 2419.2 2914.53 2410.74 2924.94 2410.74C2931.61 2410.74 2937.53 2414.26 2940.82 2419.5L2934.76 2422.95C2932.73 2419.73 2929.06 2417.56 2924.94 2417.56C2918.42 2417.56 2913.4 2423.1 2913.4 2429.47C2913.4 2435.84 2918.5 2441.23 2925.09 2441.23C2929.36 2441.23 2932.96 2438.98 2934.98 2435.61ZM2982.13 2431.79H2952.99C2953.96 2437.26 2958.45 2441.46 2964.52 2441.46C2968.42 2441.46 2972.24 2439.73 2974.49 2436.59L2979.58 2440.48C2976.29 2445.13 2970.67 2447.97 2964.52 2447.97C2954.18 2447.97 2945.87 2439.88 2945.87 2429.39C2945.87 2419.43 2953.44 2410.74 2964.07 2410.74C2974.64 2410.74 2982.28 2419.35 2982.28 2429.32C2982.28 2430.29 2982.2 2431.04 2982.13 2431.79ZM2953.21 2426.1H2974.94C2974.11 2421.15 2969.77 2417.33 2964.15 2417.33C2958.6 2417.33 2954.48 2421.08 2953.21 2426.1ZM2987.56 2443.33L2991.46 2437.78C2995.05 2440.71 2998.87 2441.46 3001.42 2441.46C3005.24 2441.46 3007.34 2439.81 3007.34 2437.41C3007.34 2430.37 2988.83 2434.71 2988.83 2421.9C2988.83 2415.38 2993.63 2410.74 3001.05 2410.74C3004.04 2410.74 3009.06 2411.49 3013.11 2414.78L3009.29 2420.1C3006.14 2417.78 3002.99 2417.33 3001.12 2417.33C2997.52 2417.33 2995.95 2419.13 2995.95 2421.08C2995.95 2427.82 3014.38 2424.15 3014.38 2436.96C3014.38 2443.78 3009.21 2447.97 3001.2 2447.97C2995.88 2447.97 2991.23 2446.1 2987.56 2443.33ZM3019.97 2443.33L3023.87 2437.78C3027.46 2440.71 3031.28 2441.46 3033.83 2441.46C3037.65 2441.46 3039.75 2439.81 3039.75 2437.41C3039.75 2430.37 3021.24 2434.71 3021.24 2421.9C3021.24 2415.38 3026.04 2410.74 3033.46 2410.74C3036.45 2410.74 3041.47 2411.49 3045.52 2414.78L3041.7 2420.1C3038.55 2417.78 3035.4 2417.33 3033.53 2417.33C3029.94 2417.33 3028.36 2419.13 3028.36 2421.08C3028.36 2427.82 3046.79 2424.15 3046.79 2436.96C3046.79 2443.78 3041.62 2447.97 3033.61 2447.97C3028.29 2447.97 3023.64 2446.1 3019.97 2443.33Z" fill="black"/>
<path d="M2027 2268L1831 2072" stroke="black" stroke-width="10"/>
<path d="M2027 2266L2309 2266" stroke="black" stroke-width="10"/>
<path d="M1299.8 1870.2L1308.89 1874.15L1305.36 1913.1L1331.62 1884.04L1340.58 1887.94L1327.57 1940.32L1318.61 1936.43L1326.78 1903.32L1302.99 1929.63L1294.79 1926.06L1297.95 1890.78L1279.2 1919.28L1270.14 1915.34L1299.8 1870.2Z" fill="black"/>
<path d="M1369.55 1896.62C1371.18 1897.22 1372.36 1898.31 1373.09 1899.91C1373.84 1901.52 1373.91 1903.16 1373.3 1904.84C1372.7 1906.49 1371.6 1907.7 1370.02 1908.46C1368.44 1909.19 1366.85 1909.27 1365.24 1908.68C1363.59 1908.08 1362.38 1906.98 1361.63 1905.37C1360.91 1903.75 1360.86 1902.09 1361.48 1900.39C1362.08 1898.75 1363.16 1897.57 1364.74 1896.83C1366.32 1896.1 1367.92 1896.03 1369.55 1896.62ZM1359.35 1910.16L1368.67 1913.55L1355.2 1950.54L1345.89 1947.15L1359.35 1910.16Z" fill="black"/>
<path d="M1415.64 1913.2L1425.05 1916.09L1409.04 1968.25L1399.63 1965.36L1400.85 1961.38C1398.47 1962.57 1396.22 1963.27 1394.11 1963.48C1392.04 1963.67 1389.91 1963.44 1387.74 1962.77C1382.88 1961.28 1379.25 1958.11 1376.85 1953.26C1374.46 1948.39 1374.13 1943.15 1375.85 1937.55C1377.63 1931.74 1380.81 1927.5 1385.38 1924.84C1389.96 1922.19 1394.7 1921.61 1399.61 1923.12C1401.87 1923.81 1403.86 1924.89 1405.59 1926.35C1407.31 1927.81 1408.75 1929.66 1409.91 1931.88L1415.64 1913.2ZM1398.88 1932.43C1395.95 1931.53 1393.2 1931.82 1390.62 1933.3C1388.06 1934.76 1386.28 1937.1 1385.29 1940.33C1384.29 1943.58 1384.45 1946.56 1385.76 1949.26C1387.1 1951.96 1389.21 1953.76 1392.09 1954.65C1395.07 1955.56 1397.85 1955.29 1400.44 1953.84C1403.04 1952.37 1404.85 1949.96 1405.88 1946.61C1406.88 1943.34 1406.72 1940.39 1405.38 1937.76C1404.04 1935.12 1401.87 1933.35 1398.88 1932.43Z" fill="black"/>
<path d="M1436.34 1935.34L1446.17 1937.66L1450.45 1964.06L1467.12 1942.61L1476.98 1944.94L1440.6 1991.59L1430.67 1989.24L1442.54 1974.24L1436.34 1935.34Z" fill="black"/>
<path d="M1523.84 1976.39L1492.55 1971.12C1492.54 1973.96 1493.37 1976.36 1495.04 1978.33C1496.75 1980.28 1499.12 1981.51 1502.16 1982.02C1505.8 1982.64 1509.14 1981.89 1512.19 1979.79L1519.75 1985.02C1517.21 1987.58 1514.4 1989.32 1511.31 1990.24C1508.22 1991.14 1504.72 1991.26 1500.79 1990.6C1494.7 1989.57 1490.07 1986.82 1486.88 1982.35C1483.7 1977.85 1482.6 1972.71 1483.57 1966.93C1484.57 1961 1487.3 1956.41 1491.77 1953.15C1496.26 1949.88 1501.38 1948.72 1507.14 1949.69C1513.25 1950.72 1517.89 1953.52 1521.06 1958.09C1524.23 1962.64 1525.27 1968.12 1524.19 1974.55L1523.84 1976.39ZM1515.36 1967.08C1515.08 1964.8 1514.11 1962.83 1512.43 1961.15C1510.78 1959.48 1508.71 1958.43 1506.21 1958.01C1503.5 1957.55 1500.99 1957.91 1498.69 1959.09C1497.25 1959.83 1495.77 1961.3 1494.27 1963.52L1515.36 1967.08Z" fill="black"/>
<path d="M1573.96 1959.7L1583.75 1960.65L1579.97 1999.83L1570.18 1998.89L1570.58 1994.75C1568.48 1996.39 1566.42 1997.52 1564.4 1998.15C1562.4 1998.76 1560.27 1998.95 1558.02 1998.73C1552.95 1998.24 1548.76 1995.86 1545.44 1991.59C1542.12 1987.3 1540.74 1982.24 1541.3 1976.4C1541.89 1970.35 1544.16 1965.57 1548.11 1962.04C1552.06 1958.52 1556.59 1957.01 1561.7 1957.5C1564.05 1957.73 1566.22 1958.39 1568.2 1959.48C1570.18 1960.56 1571.96 1962.08 1573.54 1964.03L1573.96 1959.7ZM1562.84 1966.77C1559.79 1966.48 1557.16 1967.32 1554.93 1969.28C1552.71 1971.22 1551.44 1973.88 1551.11 1977.24C1550.78 1980.62 1551.54 1983.51 1553.37 1985.89C1555.22 1988.27 1557.65 1989.61 1560.65 1989.9C1563.75 1990.2 1566.42 1989.38 1568.67 1987.44C1570.91 1985.47 1572.21 1982.75 1572.54 1979.27C1572.87 1975.86 1572.12 1973 1570.28 1970.69C1568.44 1968.38 1565.96 1967.08 1562.84 1966.77Z" fill="black"/>
<path d="M1602.63 1962L1611.09 1962.34L1610.89 1967.29C1611.88 1965.38 1613.16 1963.95 1614.72 1962.99C1616.28 1962.04 1617.96 1961.6 1619.77 1961.68C1621.05 1961.73 1622.37 1962.12 1623.74 1962.85L1620.33 1971.22C1619.19 1970.6 1618.25 1970.27 1617.5 1970.24C1615.99 1970.18 1614.66 1971.07 1613.52 1972.9C1612.41 1974.74 1611.74 1978.41 1611.52 1983.9L1611.48 1985.82L1610.84 2001.73L1601.04 2001.33L1602.63 1962Z" fill="black"/>
<path d="M1669.51 1949.47L1680.24 1948.93C1686.12 1948.64 1690.32 1948.96 1692.86 1949.89C1695.42 1950.8 1697.52 1952.44 1699.16 1954.79C1700.8 1957.15 1701.7 1959.99 1701.87 1963.31C1702.04 1966.81 1701.35 1969.78 1699.78 1972.22C1698.23 1974.64 1695.81 1976.54 1692.49 1977.92L1706.26 2000.92L1695.2 2001.47L1682.11 1979.56L1681.17 1979.61L1682.3 2002.12L1672.18 2002.63L1669.51 1949.47ZM1680.67 1969.74L1683.85 1969.58C1687.08 1969.42 1689.27 1968.89 1690.44 1967.98C1691.62 1967.08 1692.17 1965.65 1692.07 1963.7C1692.01 1962.54 1691.66 1961.56 1691.01 1960.75C1690.37 1959.91 1689.53 1959.33 1688.5 1959.02C1687.47 1958.69 1685.6 1958.59 1682.91 1958.73L1680.12 1958.87L1680.67 1969.74Z" fill="black"/>
<path d="M1764.24 1978.28L1732.73 1981.99C1733.51 1984.72 1734.98 1986.79 1737.14 1988.21C1739.32 1989.61 1741.95 1990.12 1745.01 1989.76C1748.68 1989.33 1751.68 1987.68 1754.01 1984.8L1762.73 1987.71C1761.02 1990.87 1758.8 1993.33 1756.1 1995.09C1753.39 1996.81 1750.05 1997.91 1746.1 1998.38C1739.97 1999.1 1734.75 1997.76 1730.44 1994.36C1726.12 1990.93 1723.62 1986.31 1722.93 1980.49C1722.23 1974.53 1723.56 1969.35 1726.93 1964.97C1730.32 1960.56 1734.92 1958.02 1740.71 1957.33C1746.87 1956.61 1752.11 1957.99 1756.43 1961.49C1760.75 1964.97 1763.29 1969.94 1764.06 1976.4L1764.24 1978.28ZM1753.49 1971.71C1752.58 1969.61 1751.09 1967.99 1749.01 1966.85C1746.96 1965.71 1744.68 1965.28 1742.16 1965.58C1739.43 1965.9 1737.12 1966.95 1735.24 1968.73C1734.06 1969.84 1733.07 1971.67 1732.25 1974.22L1753.49 1971.71Z" fill="black"/>
<path d="M1775.33 1954.2L1785.22 1952.38L1799.21 1973.42L1804.75 1948.78L1814.61 1946.96L1805.27 1988.71L1798.97 1989.87L1775.33 1954.2Z" fill="black"/>
<path d="M1829.95 1927C1831.65 1926.61 1833.23 1926.88 1834.72 1927.83C1836.22 1928.76 1837.18 1930.1 1837.58 1931.84C1837.98 1933.56 1837.72 1935.16 1836.8 1936.66C1835.88 1938.14 1834.59 1939.07 1832.92 1939.46C1831.21 1939.86 1829.6 1939.59 1828.09 1938.65C1826.6 1937.68 1825.66 1936.32 1825.25 1934.56C1824.85 1932.86 1825.12 1931.28 1826.04 1929.8C1826.96 1928.33 1828.26 1927.39 1829.95 1927ZM1828.79 1943.91L1838.45 1941.67L1847.35 1980.01L1837.7 1982.26L1828.79 1943.91Z" fill="black"/>
<path d="M1898.27 1949.11L1867.75 1957.81C1868.96 1960.38 1870.74 1962.19 1873.1 1963.24C1875.48 1964.27 1878.15 1964.36 1881.12 1963.52C1884.67 1962.5 1887.36 1960.39 1889.21 1957.18L1898.28 1958.66C1897.09 1962.06 1895.3 1964.84 1892.91 1967C1890.51 1969.14 1887.4 1970.76 1883.57 1971.85C1877.63 1973.54 1872.26 1973.05 1867.46 1970.38C1862.66 1967.69 1859.45 1963.53 1857.84 1957.89C1856.19 1952.12 1856.68 1946.8 1859.31 1941.93C1861.95 1937.04 1866.08 1933.79 1871.69 1932.19C1877.65 1930.49 1883.05 1931.02 1887.87 1933.78C1892.69 1936.52 1896 1941.02 1897.78 1947.29L1898.27 1949.11ZM1886.6 1944.34C1885.37 1942.41 1883.64 1941.05 1881.41 1940.26C1879.2 1939.46 1876.87 1939.41 1874.44 1940.1C1871.79 1940.85 1869.69 1942.26 1868.11 1944.31C1867.13 1945.6 1866.43 1947.56 1866.04 1950.21L1886.6 1944.34Z" fill="black"/>
<path d="M1904.81 1924.16L1913.87 1920.81L1929.07 1939.07L1929.31 1915.1L1934.84 1913.05L1950.36 1930.92L1950.11 1907.41L1959.24 1904.03L1959.42 1945.94L1953.55 1948.11L1937.9 1929.98L1937.56 1954.02L1931.76 1956.16L1904.81 1924.16Z" fill="black"/>
</svg>
