<svg width="432" height="318" viewBox="0 0 432 318" fill="none" xmlns="http://www.w3.org/2000/svg">
<path fill-rule="evenodd" clip-rule="evenodd" d="M297.405 79.4442C253.529 35.5686 182.392 35.5689 138.516 79.4448L138.516 79.4452L217.96 158.889L297.405 79.4442Z" fill="#FFCD00"/>
<path fill-rule="evenodd" clip-rule="evenodd" d="M297.405 79.4442C253.529 35.5686 182.392 35.5689 138.516 79.4448L138.516 79.4452L217.96 158.889L297.405 79.4442Z" fill="#FFCD00"/>
<path fill-rule="evenodd" clip-rule="evenodd" d="M297.403 238.334C341.279 194.458 341.279 123.321 297.403 79.4449L217.959 158.889L297.403 238.334Z" fill="#D9D9D9"/>
<path fill-rule="evenodd" clip-rule="evenodd" d="M138.513 238.334C138.513 238.334 138.513 238.334 138.513 238.334C182.39 282.21 253.527 282.21 297.403 238.334L297.403 238.334L217.958 158.889L138.513 238.334Z" fill="#64A70B"/>
<path fill-rule="evenodd" clip-rule="evenodd" d="M138.515 79.4444C94.6395 123.321 94.6395 194.458 138.516 238.334L138.516 238.334L217.96 158.889L138.515 79.4444Z" fill="#D9D9D9"/>
<circle cx="217.959" cy="158.855" r="84.2639" transform="rotate(45 217.959 158.855)" fill="white"/>
<path d="M278.575 237.612L277.796 218.505L297.682 238.391L278.575 237.612Z" fill="#D9D9D9"/>
<path d="M157.492 80.1861L158.271 99.2932L138.384 79.4071L157.492 80.1861Z" fill="#D9D9D9"/>
<path d="M296.575 98.1855L277.445 98.9872L297.377 79.0556L296.575 98.1855Z" fill="#FFCD00"/>
<path d="M139.384 219.247L158.491 218.468L138.605 238.354L139.384 219.247Z" fill="#64A70B"/>
<g filter="url(#filter0_d_0_46)">
<path fill-rule="evenodd" clip-rule="evenodd" d="M218.003 158.74L218.086 158.658L158.46 99.0324L158.42 99.0725C131.923 125.57 126.756 165.32 142.92 196.986L217.998 158.731L218.003 158.74Z" fill="#FFCD00"/>
<path fill-rule="evenodd" clip-rule="evenodd" d="M217.969 158.618L218.073 158.671L256.355 83.539L256.306 83.5139C222.917 66.5017 183.516 73.8713 158.395 99.029L217.977 158.61L217.969 158.618Z" fill="#4D4D4D"/>
<path fill-rule="evenodd" clip-rule="evenodd" d="M218.114 158.606L218.095 158.721L301.38 171.912L301.389 171.857C307.251 134.846 288.066 99.6509 256.377 83.5335L218.123 158.611L218.114 158.606Z" fill="#50A684"/>
<path fill-rule="evenodd" clip-rule="evenodd" d="M218.119 158.834L218.066 158.73L142.936 197.011L142.961 197.061C159.974 230.449 196.181 247.646 231.292 242.06L218.11 158.835L218.119 158.834Z" fill="#00A7B5"/>
<path fill-rule="evenodd" clip-rule="evenodd" d="M218.235 158.723L218.121 158.741L231.312 242.025L231.366 242.016C268.377 236.154 295.922 207.033 301.458 171.914L218.234 158.733L218.235 158.723Z" fill="#009CDE"/>
<circle cx="217.94" cy="158.803" r="63.214" transform="rotate(-135 217.94 158.803)" fill="white"/>
</g>
<path d="M188.646 135.552L189.751 136.873C188.76 137.821 187.453 138.453 185.945 138.453C182.886 138.453 180.387 136.069 180.387 132.967C180.387 129.936 182.771 127.452 185.931 127.452C187.525 127.452 188.904 128.098 189.909 129.132L188.732 130.454C188.028 129.635 187.066 129.175 185.931 129.175C183.849 129.175 182.254 130.927 182.254 132.981C182.254 135.064 183.906 136.73 185.945 136.73C186.965 136.73 187.985 136.227 188.646 135.552ZM197.951 134.877C197.951 136.845 196.342 138.453 194.317 138.453C192.306 138.453 190.698 136.845 190.698 134.877C190.698 132.895 192.306 131.315 194.317 131.315C196.342 131.315 197.951 132.895 197.951 134.877ZM196.213 134.877C196.213 133.872 195.366 133.01 194.317 133.01C193.283 133.01 192.436 133.872 192.436 134.877C192.436 135.897 193.283 136.759 194.317 136.759C195.366 136.759 196.213 135.897 196.213 134.877ZM205.881 138.267H204.115V134.619C204.115 133.297 203.411 133.01 202.707 133.01C202.004 133.01 201.3 133.283 201.3 134.59V138.267H199.533V131.445H201.3V131.947C201.688 131.66 202.162 131.315 203.095 131.315C204.589 131.315 205.881 132.191 205.881 134.331V138.267ZM211.569 136.715V138.281C211.569 138.281 211.052 138.453 210.205 138.453C208.869 138.453 208.18 137.577 208.18 136.241V133.139H207.103V131.445H208.18V129.132H209.946V131.445H211.756V133.139H209.946V135.868C209.946 136.342 210.076 136.787 210.708 136.787C211.153 136.787 211.569 136.715 211.569 136.715ZM215.326 138.267H213.559V131.445H215.326V138.267ZM214.45 130.31C213.818 130.31 213.33 129.822 213.33 129.19C213.33 128.558 213.818 128.084 214.45 128.084C215.082 128.084 215.556 128.558 215.556 129.19C215.556 129.822 215.082 130.31 214.45 130.31ZM223.848 138.267H222.082V134.619C222.082 133.297 221.378 133.01 220.674 133.01C219.97 133.01 219.267 133.283 219.267 134.59V138.267H217.5V131.445H219.267V131.947C219.655 131.66 220.128 131.315 221.062 131.315C222.556 131.315 223.848 132.191 223.848 134.331V138.267ZM230.355 134.978V131.445H232.121V135.452C232.121 137.592 230.843 138.453 228.919 138.453C226.994 138.453 225.716 137.592 225.716 135.452V131.445H227.482V134.978C227.482 136.127 227.712 136.759 228.919 136.759C230.125 136.759 230.355 136.127 230.355 134.978ZM240.813 134.877C240.813 136.845 239.204 138.453 237.179 138.453C235.169 138.453 233.56 136.845 233.56 134.877C233.56 132.895 235.169 131.315 237.179 131.315C239.204 131.315 240.813 132.895 240.813 134.877ZM239.075 134.877C239.075 133.872 238.228 133.01 237.179 133.01C236.145 133.01 235.298 133.872 235.298 134.877C235.298 135.897 236.145 136.759 237.179 136.759C238.228 136.759 239.075 135.897 239.075 134.877ZM246.891 134.978V131.445H248.658V135.452C248.658 137.592 247.379 138.453 245.455 138.453C243.53 138.453 242.252 137.592 242.252 135.452V131.445H244.019V134.978C244.019 136.127 244.248 136.759 245.455 136.759C246.661 136.759 246.891 136.127 246.891 134.978ZM249.981 137.491L250.915 136.141C251.547 136.687 252.308 136.845 252.796 136.845C253.428 136.845 253.629 136.586 253.629 136.342C253.629 135.322 250.168 135.954 250.168 133.498C250.168 132.249 251.059 131.315 252.581 131.315C253.184 131.315 254.29 131.459 255.066 132.177L254.132 133.441C253.529 133.024 252.969 132.924 252.595 132.924C252.006 132.924 251.892 133.182 251.892 133.355C251.892 134.317 255.31 133.857 255.31 136.285C255.31 137.534 254.405 138.453 252.681 138.453C251.418 138.453 250.599 137.965 249.981 137.491ZM181.808 150.552L182.914 151.873C181.923 152.821 180.616 153.453 179.108 153.453C176.049 153.453 173.55 151.069 173.55 147.967C173.55 144.936 175.934 142.452 179.094 142.452C180.688 142.452 182.067 143.098 183.072 144.132L181.894 145.454C181.19 144.635 180.228 144.175 179.094 144.175C177.011 144.175 175.417 145.927 175.417 147.981C175.417 150.064 177.069 151.73 179.108 151.73C180.128 151.73 181.147 151.227 181.808 150.552ZM191.113 149.877C191.113 151.845 189.505 153.453 187.48 153.453C185.469 153.453 183.86 151.845 183.86 149.877C183.86 147.895 185.469 146.315 187.48 146.315C189.505 146.315 191.113 147.895 191.113 149.877ZM189.375 149.877C189.375 148.872 188.528 148.01 187.48 148.01C186.446 148.01 185.598 148.872 185.598 149.877C185.598 150.897 186.446 151.759 187.48 151.759C188.528 151.759 189.375 150.897 189.375 149.877ZM199.044 153.267H197.277V149.619C197.277 148.297 196.574 148.01 195.87 148.01C195.166 148.01 194.462 148.283 194.462 149.59V153.267H192.696V146.445H194.462V146.947C194.85 146.66 195.324 146.315 196.258 146.315C197.751 146.315 199.044 147.191 199.044 149.331V153.267ZM204.718 153.267H202.865L200.122 146.445H202.046L203.784 151.069L205.536 146.445H207.461L204.718 153.267ZM215.033 150.437H209.834C210.035 151.27 210.71 151.859 211.73 151.859C212.347 151.859 213.008 151.629 213.41 151.098L214.617 152.06C213.999 152.936 212.908 153.453 211.744 153.453C209.69 153.453 208.111 151.917 208.111 149.92C208.111 147.981 209.475 146.315 211.644 146.315C213.654 146.315 215.076 147.953 215.076 149.877C215.076 150.064 215.062 150.265 215.033 150.437ZM209.892 149.145H213.295C213.195 148.455 212.477 147.924 211.629 147.924C210.811 147.924 210.15 148.412 209.892 149.145ZM218.418 153.267H216.652V146.445H218.418V146.947C219.079 146.459 219.725 146.315 221.046 146.315V148.01C218.792 148.01 218.418 148.642 218.418 149.82V153.267ZM221.727 152.491L222.66 151.141C223.292 151.687 224.053 151.845 224.542 151.845C225.174 151.845 225.375 151.586 225.375 151.342C225.375 150.322 221.913 150.954 221.913 148.498C221.913 147.249 222.804 146.315 224.326 146.315C224.93 146.315 226.035 146.459 226.811 147.177L225.877 148.441C225.274 148.024 224.714 147.924 224.341 147.924C223.752 147.924 223.637 148.182 223.637 148.355C223.637 149.317 227.055 148.857 227.055 151.285C227.055 152.534 226.15 153.453 224.427 153.453C223.163 153.453 222.344 152.965 221.727 152.491ZM235.491 153.267H233.724V152.821C233.179 153.267 232.532 153.453 231.829 153.453C229.818 153.453 228.209 151.845 228.209 149.877C228.209 147.895 229.818 146.315 231.829 146.315C232.518 146.315 233.164 146.502 233.724 146.947V146.445H235.491V153.267ZM233.724 149.877C233.724 148.872 232.877 148.01 231.829 148.01C230.794 148.01 229.947 148.872 229.947 149.877C229.947 150.897 230.794 151.759 231.829 151.759C232.877 151.759 233.724 150.897 233.724 149.877ZM241.325 151.715V153.281C241.325 153.281 240.808 153.453 239.96 153.453C238.625 153.453 237.935 152.577 237.935 151.241V148.139H236.858V146.445H237.935V144.132H239.702V146.445H241.511V148.139H239.702V150.868C239.702 151.342 239.831 151.787 240.463 151.787C240.908 151.787 241.325 151.715 241.325 151.715ZM245.081 153.267H243.315V146.445H245.081V153.267ZM244.205 145.31C243.573 145.31 243.085 144.822 243.085 144.19C243.085 143.558 243.573 143.084 244.205 143.084C244.837 143.084 245.311 143.558 245.311 144.19C245.311 144.822 244.837 145.31 244.205 145.31ZM253.934 149.877C253.934 151.845 252.325 153.453 250.3 153.453C248.29 153.453 246.681 151.845 246.681 149.877C246.681 147.895 248.29 146.315 250.3 146.315C252.325 146.315 253.934 147.895 253.934 149.877ZM252.196 149.877C252.196 148.872 251.349 148.01 250.3 148.01C249.266 148.01 248.419 148.872 248.419 149.877C248.419 150.897 249.266 151.759 250.3 151.759C251.349 151.759 252.196 150.897 252.196 149.877ZM261.865 153.267H260.098V149.619C260.098 148.297 259.394 148.01 258.691 148.01C257.987 148.01 257.283 148.283 257.283 149.59V153.267H255.517V146.445H257.283V146.947C257.671 146.66 258.145 146.315 259.078 146.315C260.572 146.315 261.865 147.191 261.865 149.331V153.267Z" fill="black"/>
<path d="M177.556 170.855H176.566V167.534H172.682V170.855H171.691V163.67H172.682V166.602H176.566V163.67H177.556V170.855ZM180.104 170.855H179.162V166.243H180.104V170.855ZM179.638 165.33C179.298 165.33 179.036 165.068 179.036 164.728C179.036 164.388 179.298 164.126 179.638 164.126C179.978 164.126 180.23 164.388 180.23 164.728C180.23 165.068 179.978 165.33 179.638 165.33ZM185.249 170.641V170.311C184.86 170.767 184.326 170.981 183.705 170.981C182.336 170.981 181.268 169.923 181.268 168.573C181.268 167.204 182.355 166.155 183.705 166.155C184.326 166.155 184.85 166.379 185.249 166.835V166.243H186.181V170.476C186.181 172.787 184.773 173.311 183.734 173.311C182.802 173.311 182.054 172.884 181.617 172.185L182.481 171.816C182.753 172.204 183.142 172.438 183.724 172.438C184.52 172.438 185.249 172.001 185.249 170.641ZM185.229 168.573C185.229 167.738 184.579 167.039 183.705 167.039C182.841 167.039 182.19 167.719 182.19 168.573C182.19 169.437 182.841 170.107 183.705 170.107C184.588 170.107 185.229 169.408 185.229 168.573ZM191.909 170.855H190.967V168.437C190.967 167.515 190.608 167.039 189.841 167.039C189.045 167.039 188.666 167.554 188.666 168.505V170.855H187.734V163.67H188.666V166.738C188.977 166.388 189.355 166.155 190.006 166.155C191.103 166.155 191.909 166.796 191.909 168.243V170.855ZM200.508 173.311H199.576V170.311C199.188 170.767 198.654 170.981 198.032 170.981C196.663 170.981 195.595 169.923 195.595 168.573C195.595 167.204 196.683 166.155 198.032 166.155C198.654 166.155 199.178 166.379 199.576 166.835V166.243H200.508V173.311ZM199.557 168.573C199.557 167.738 198.906 167.039 198.032 167.039C197.168 167.039 196.517 167.719 196.517 168.573C196.517 169.437 197.168 170.107 198.032 170.107C198.916 170.107 199.557 169.408 199.557 168.573ZM205.237 168.719V166.243H206.169V168.981C206.169 170.428 205.363 170.981 204.071 170.981C202.78 170.981 201.974 170.428 201.974 168.981V166.243H202.916V168.719C202.916 169.583 203.12 170.107 204.071 170.107C205.033 170.107 205.237 169.583 205.237 168.719ZM212.171 170.855H211.239V170.311C210.851 170.767 210.317 170.981 209.695 170.981C208.326 170.981 207.258 169.923 207.258 168.573C207.258 167.204 208.345 166.155 209.695 166.155C210.317 166.155 210.841 166.379 211.239 166.835V166.243H212.171V170.855ZM211.22 168.573C211.22 167.738 210.569 167.039 209.695 167.039C208.831 167.039 208.18 167.719 208.18 168.573C208.18 169.437 208.831 170.107 209.695 170.107C210.579 170.107 211.22 169.408 211.22 168.573ZM215.462 170.097V170.913C215.307 170.952 215.142 170.981 214.948 170.981C214.19 170.981 213.724 170.525 213.724 169.68V163.67H214.657V169.389C214.657 169.884 214.773 170.107 215.229 170.107C215.288 170.107 215.375 170.107 215.462 170.097ZM217.283 170.855H216.341V166.243H217.283V170.855ZM216.817 165.33C216.477 165.33 216.215 165.068 216.215 164.728C216.215 164.388 216.477 164.126 216.817 164.126C217.157 164.126 217.41 164.388 217.41 164.728C217.41 165.068 217.157 165.33 216.817 165.33ZM221.02 170.039V170.874C220.923 170.913 220.632 170.981 220.292 170.981C219.156 170.981 218.952 170.233 218.952 169.437V167.126H218.224V166.243H218.952V164.679H219.894V166.243H221.146V167.126H219.894V169.33C219.894 169.855 220.01 170.107 220.505 170.107C220.67 170.107 220.923 170.078 221.02 170.039ZM223.512 173.311H222.589L223.434 170.942L221.55 166.243H222.57L223.89 169.709L225.133 166.243H226.065L223.512 173.311ZM227.263 172.039V171.554C227.496 171.515 227.787 171.263 227.816 170.903C227.787 170.913 227.729 170.913 227.71 170.913C227.399 170.913 227.137 170.661 227.137 170.321C227.137 169.981 227.389 169.719 227.748 169.719C228.156 169.719 228.37 170.068 228.37 170.544C228.37 171.214 227.962 172.02 227.263 172.039ZM233.64 170.855H232.708V166.243H233.64V166.796C234.086 166.262 234.543 166.155 235.436 166.155V167.049C233.912 167.049 233.64 167.67 233.64 168.466V170.855ZM240.688 168.884H236.911C237.037 169.593 237.62 170.136 238.407 170.136C238.911 170.136 239.407 169.913 239.698 169.505L240.358 170.01C239.931 170.612 239.203 170.981 238.407 170.981C237.067 170.981 235.989 169.932 235.989 168.573C235.989 167.282 236.969 166.155 238.348 166.155C239.717 166.155 240.708 167.272 240.708 168.563C240.708 168.69 240.698 168.787 240.688 168.884ZM236.94 168.146H239.756C239.649 167.505 239.086 167.01 238.358 167.01C237.639 167.01 237.105 167.495 236.94 168.146ZM245.441 170.641V170.311C245.053 170.767 244.519 170.981 243.897 170.981C242.528 170.981 241.46 169.923 241.46 168.573C241.46 167.204 242.547 166.155 243.897 166.155C244.519 166.155 245.043 166.379 245.441 166.835V166.243H246.373V170.476C246.373 172.787 244.965 173.311 243.926 173.311C242.994 173.311 242.246 172.884 241.81 172.185L242.674 171.816C242.946 172.204 243.334 172.438 243.917 172.438C244.713 172.438 245.441 172.001 245.441 170.641ZM245.422 168.573C245.422 167.738 244.771 167.039 243.897 167.039C243.033 167.039 242.382 167.719 242.382 168.573C242.382 169.437 243.033 170.107 243.897 170.107C244.781 170.107 245.422 169.408 245.422 168.573ZM251.101 168.719V166.243H252.034V168.981C252.034 170.428 251.228 170.981 249.936 170.981C248.645 170.981 247.839 170.428 247.839 168.981V166.243H248.781V168.719C248.781 169.583 248.985 170.107 249.936 170.107C250.898 170.107 251.101 169.583 251.101 168.719ZM255.249 170.097V170.913C255.094 170.952 254.929 170.981 254.735 170.981C253.977 170.981 253.511 170.525 253.511 169.68V163.67H254.443V169.389C254.443 169.884 254.56 170.107 255.016 170.107C255.075 170.107 255.162 170.107 255.249 170.097ZM260.653 170.855H259.721V170.311C259.333 170.767 258.799 170.981 258.177 170.981C256.808 170.981 255.74 169.923 255.74 168.573C255.74 167.204 256.828 166.155 258.177 166.155C258.799 166.155 259.323 166.379 259.721 166.835V166.243H260.653V170.855ZM259.702 168.573C259.702 167.738 259.051 167.039 258.177 167.039C257.313 167.039 256.662 167.719 256.662 168.573C256.662 169.437 257.313 170.107 258.177 170.107C259.061 170.107 259.702 169.408 259.702 168.573ZM263.139 170.855H262.206V166.243H263.139V166.796C263.585 166.262 264.042 166.155 264.935 166.155V167.049C263.41 167.049 263.139 167.67 263.139 168.466V170.855ZM189.443 181.379L190.22 181.835C189.793 182.525 189.016 182.981 188.142 182.981C186.812 182.981 185.724 181.903 185.724 180.573C185.724 179.253 186.792 178.155 188.142 178.155C189.006 178.155 189.773 178.612 190.2 179.291L189.414 179.738C189.152 179.321 188.676 179.039 188.142 179.039C187.297 179.039 186.647 179.757 186.647 180.583C186.647 181.408 187.307 182.107 188.161 182.107C188.715 182.107 189.181 181.816 189.443 181.379ZM195.709 180.573C195.709 181.894 194.612 182.981 193.272 182.981C191.941 182.981 190.854 181.903 190.854 180.573C190.854 179.253 191.922 178.155 193.272 178.155C194.612 178.155 195.709 179.243 195.709 180.573ZM194.786 180.563C194.786 179.728 194.116 179.039 193.281 179.039C192.417 179.039 191.776 179.767 191.776 180.583C191.776 181.408 192.437 182.107 193.281 182.107C194.136 182.107 194.786 181.389 194.786 180.563ZM201.05 182.855H200.108V180.437C200.108 179.515 199.749 179.039 198.982 179.039C198.186 179.039 197.807 179.554 197.807 180.505V182.855H196.875V178.243H197.807V178.738C198.118 178.388 198.496 178.155 199.147 178.155C200.244 178.155 201.05 178.796 201.05 180.243V182.855ZM204.731 182.855H203.731L201.827 178.243H202.837L204.216 181.69L205.614 178.243H206.624L204.731 182.855ZM211.806 180.884H208.029C208.155 181.593 208.738 182.136 209.524 182.136C210.029 182.136 210.524 181.913 210.815 181.505L211.476 182.01C211.048 182.612 210.32 182.981 209.524 182.981C208.184 182.981 207.106 181.932 207.106 180.573C207.106 179.282 208.087 178.155 209.466 178.155C210.835 178.155 211.825 179.272 211.825 180.563C211.825 180.69 211.815 180.787 211.806 180.884ZM208.058 180.146H210.874C210.767 179.505 210.204 179.01 209.475 179.01C208.757 179.01 208.223 179.495 208.058 180.146ZM213.898 182.855H212.966V178.243H213.898V178.796C214.345 178.262 214.801 178.155 215.694 178.155V179.049C214.17 179.049 213.898 179.67 213.898 180.466V182.855ZM216.132 182.379L216.637 181.661C217.103 182.039 217.598 182.136 217.928 182.136C218.423 182.136 218.695 181.923 218.695 181.612C218.695 180.699 216.297 181.262 216.297 179.602C216.297 178.757 216.918 178.155 217.879 178.155C218.268 178.155 218.918 178.252 219.443 178.68L218.947 179.369C218.54 179.068 218.132 179.01 217.889 179.01C217.423 179.01 217.219 179.243 217.219 179.495C217.219 180.369 219.608 179.893 219.608 181.554C219.608 182.437 218.938 182.981 217.899 182.981C217.209 182.981 216.607 182.738 216.132 182.379ZM225.313 182.855H224.381V182.311C223.993 182.767 223.459 182.981 222.837 182.981C221.468 182.981 220.4 181.923 220.4 180.573C220.4 179.204 221.488 178.155 222.837 178.155C223.459 178.155 223.983 178.379 224.381 178.835V178.243H225.313V182.855ZM224.362 180.573C224.362 179.738 223.711 179.039 222.837 179.039C221.973 179.039 221.323 179.719 221.323 180.573C221.323 181.437 221.973 182.107 222.837 182.107C223.721 182.107 224.362 181.408 224.362 180.573ZM229.051 182.039V182.874C228.954 182.913 228.663 182.981 228.323 182.981C227.187 182.981 226.983 182.233 226.983 181.437V179.126H226.255V178.243H226.983V176.679H227.925V178.243H229.178V179.126H227.925V181.33C227.925 181.855 228.042 182.107 228.537 182.107C228.702 182.107 228.954 182.078 229.051 182.039ZM231.203 182.855H230.261V178.243H231.203V182.855ZM230.737 177.33C230.397 177.33 230.135 177.068 230.135 176.728C230.135 176.388 230.397 176.126 230.737 176.126C231.077 176.126 231.329 176.388 231.329 176.728C231.329 177.068 231.077 177.33 230.737 177.33ZM237.221 180.573C237.221 181.894 236.124 182.981 234.784 182.981C233.454 182.981 232.367 181.903 232.367 180.573C232.367 179.253 233.435 178.155 234.784 178.155C236.124 178.155 237.221 179.243 237.221 180.573ZM236.299 180.563C236.299 179.728 235.629 179.039 234.794 179.039C233.93 179.039 233.289 179.767 233.289 180.583C233.289 181.408 233.949 182.107 234.794 182.107C235.648 182.107 236.299 181.389 236.299 180.563ZM242.563 182.855H241.621V180.437C241.621 179.515 241.261 179.039 240.494 179.039C239.698 179.039 239.32 179.554 239.32 180.505V182.855H238.387V178.243H239.32V178.738C239.63 178.388 240.009 178.155 240.659 178.155C241.757 178.155 242.563 178.796 242.563 180.243V182.855ZM243.563 182.379L244.068 181.661C244.534 182.039 245.03 182.136 245.36 182.136C245.855 182.136 246.127 181.923 246.127 181.612C246.127 180.699 243.728 181.262 243.728 179.602C243.728 178.757 244.35 178.155 245.311 178.155C245.7 178.155 246.35 178.252 246.874 178.68L246.379 179.369C245.971 179.068 245.564 179.01 245.321 179.01C244.855 179.01 244.651 179.243 244.651 179.495C244.651 180.369 247.039 179.893 247.039 181.554C247.039 182.437 246.369 182.981 245.331 182.981C244.641 182.981 244.039 182.738 243.563 182.379ZM249.017 182.913C248.677 182.913 248.415 182.651 248.415 182.311C248.415 181.971 248.677 181.719 249.017 181.719C249.356 181.719 249.609 181.971 249.609 182.311C249.609 182.651 249.356 182.913 249.017 182.913Z" fill="black"/>
<path d="M186.111 93.6425L186.971 94.0918C186.66 94.7989 186.116 95.4096 185.331 95.7347C183.739 96.3943 181.924 95.6922 181.255 94.0775C180.602 92.5002 181.307 90.6929 182.951 90.0116C183.781 89.6679 184.638 89.707 185.384 90.0285L185.056 90.9702C184.514 90.6958 183.914 90.6641 183.323 90.9087C182.239 91.3577 181.787 92.6134 182.23 93.6824C182.679 94.7663 183.898 95.2774 184.959 94.8377C185.49 94.6178 185.912 94.1363 186.111 93.6425Z" fill="white"/>
<path d="M193.592 89.5316C194.128 91.1781 193.236 92.9066 191.581 93.4449C189.942 93.9782 188.188 93.1366 187.647 91.4746C187.119 89.8511 187.963 88.1044 189.656 87.5536C191.325 87.0103 193.057 87.885 193.592 89.5316ZM191.281 92.5216C192.373 92.1661 192.95 90.9829 192.587 89.8672C192.224 88.7516 191.064 88.1164 189.956 88.4769C188.841 88.8399 188.292 90.0566 188.65 91.1568C189.013 92.2725 190.188 92.8771 191.281 92.5216Z" fill="white"/>
<path d="M201.192 90.7369L200.075 91.006L199.295 89.8788L196.786 90.4835L196.614 91.8401L195.497 92.1093L196.422 85.7272L197.468 85.4751L201.192 90.7369ZM198.689 88.9846L197.25 86.8843L196.919 89.4111L198.689 88.9846Z" fill="white"/>
<path d="M206.572 88.2706L207.308 88.9041C206.844 89.5216 206.175 89.9924 205.337 90.1302C203.636 90.4098 202.029 89.3128 201.745 87.5882C201.468 85.9035 202.567 84.3043 204.323 84.0156C205.209 83.8699 206.035 84.1032 206.688 84.5861L206.154 85.4283C205.688 85.0375 205.111 84.87 204.481 84.9737C203.323 85.164 202.597 86.2838 202.785 87.4255C202.975 88.5832 204.045 89.3585 205.179 89.1721C205.746 89.0789 206.267 88.7062 206.572 88.2706Z" fill="white"/>
<path d="M214.202 89.0222L213.146 89.1139L212.917 86.478L210.047 86.7273L210.276 89.3632L209.22 89.455L208.702 83.4898L209.758 83.3981L209.959 85.7116L212.828 85.4623L212.628 83.1488L213.684 83.057L214.202 89.0222Z" fill="white"/>
<path d="M217.453 88.9177L216.394 88.9492L216.216 82.9642L217.276 82.9327L217.453 88.9177Z" fill="white"/>
<path d="M225.005 89.0147L223.889 88.9811L220.735 84.3287L220.598 88.8821L219.538 88.8502L219.718 82.8653L221.053 82.9054L224.006 87.2523L224.134 82.9982L225.185 83.0298L225.005 89.0147Z" fill="white"/>
<path d="M233.04 86.3591L232.962 87.0424C232.787 88.5699 231.735 89.7935 229.951 89.5897C228.166 89.3858 226.944 87.8943 227.141 86.1659C227.336 84.4616 228.829 83.2233 230.598 83.4253C231.49 83.5272 232.237 83.9709 232.735 84.6059L232.017 85.2569C231.64 84.7089 231.058 84.4551 230.528 84.3945C229.306 84.255 228.317 85.1357 228.186 86.2853C228.053 87.451 228.839 88.4854 230.069 88.6259C230.937 88.725 231.657 88.335 231.879 87.2527L230.006 87.0388L230.121 86.0258L233.04 86.3591Z" fill="white"/>
<path d="M267.085 108.223L266.374 107.437L270.817 103.423L273.307 106.179L272.55 106.862L270.771 104.893L269.78 105.788L271.169 107.325L270.413 108.008L269.024 106.471L267.085 108.223Z" fill="black"/>
<path d="M272.359 114.54L270.01 111.56L274.713 107.854L277.061 110.834L276.261 111.465L274.568 109.317L273.519 110.144L274.852 111.834L274.051 112.465L272.719 110.775L271.467 111.761L273.159 113.909L272.359 114.54Z" fill="black"/>
<path d="M275.599 119.187L273.459 116.053L278.404 112.676L280.544 115.81L279.702 116.385L278.16 114.127L277.057 114.879L278.271 116.657L277.429 117.232L276.215 115.454L274.899 116.353L276.441 118.612L275.599 119.187Z" fill="black"/>
<path d="M277.456 122.229L276.604 120.759L281.786 117.758L282.637 119.229C283.594 120.881 283.278 122.579 281.66 123.516C280.043 124.452 278.413 123.882 277.456 122.229ZM278.018 121.165L278.326 121.697C278.922 122.727 279.876 123.324 281.129 122.599C282.383 121.873 282.339 120.748 281.743 119.719L281.435 119.186L278.018 121.165Z" fill="black"/>
<path d="M280.656 128.217L279.863 126.578L285.253 123.971L286.035 125.588C286.62 126.797 286.371 127.582 285.49 128.009C284.856 128.315 284.376 128.197 283.958 127.797C284.122 128.545 283.742 129.115 283.101 129.425C282.045 129.936 281.177 129.295 280.656 128.217ZM283.595 125.95L283.993 126.773C284.183 127.167 284.5 127.319 284.9 127.125C285.308 126.928 285.396 126.589 285.192 126.167L284.804 125.365L283.595 125.95ZM281.235 127.092L281.605 127.857C281.943 128.556 282.388 128.602 282.766 128.418C283.145 128.235 283.403 127.858 283.055 127.137L282.692 126.387L281.235 127.092Z" fill="black"/>
<path d="M284.19 136.544L283.767 135.475L284.775 134.547L283.827 132.146L282.459 132.164L282.037 131.096L288.486 131.123L288.881 132.124L284.19 136.544ZM285.576 133.821L287.455 132.104L284.907 132.128L285.576 133.821Z" fill="black"/>
<path d="M287.349 141.544L286.818 142.357C286.145 141.978 285.59 141.378 285.342 140.565C284.839 138.917 285.713 137.178 287.385 136.669C289.018 136.171 290.749 137.047 291.268 138.75C291.53 139.609 291.408 140.458 291.016 141.17L290.111 140.752C290.436 140.239 290.526 139.644 290.339 139.033C289.997 137.911 288.791 137.34 287.684 137.677C286.562 138.019 285.935 139.183 286.271 140.282C286.438 140.832 286.877 141.298 287.349 141.544Z" fill="black"/>
<path d="M287.559 149.084L287.255 147.709L289.216 144.814L286.736 145.362L286.507 144.327L292.353 143.035L292.582 144.07L289.999 144.641L293.071 146.282L293.36 147.585L289.858 145.617L287.559 149.084Z" fill="black"/>
<path d="M280.73 189.279L281.246 188.344L285.351 189.277L282.371 186.303L282.887 185.368L289.029 186.629L288.474 187.635L284.057 186.614L287.275 189.81L286.829 190.618L282.412 189.597L285.63 192.794L285.075 193.8L280.73 189.279Z" fill="black"/>
<path d="M276.856 195.383L278.942 192.212L283.944 195.503L281.858 198.673L281.007 198.113L282.51 195.828L281.395 195.095L280.212 196.893L279.36 196.332L280.543 194.534L279.211 193.658L277.708 195.943L276.856 195.383Z" fill="black"/>
<path d="M273.479 199.992L275.771 196.917L280.571 200.496L279.938 201.346L275.955 198.376L274.296 200.601L273.479 199.992Z" fill="black"/>
<path d="M269.964 204.232L272.431 201.295L277.016 205.146L276.334 205.957L272.53 202.762L270.745 204.887L269.964 204.232Z" fill="black"/>
<path d="M267.595 206.795L268.846 205.473L273.197 209.586L271.963 210.891C271.04 211.867 270.217 211.913 269.506 211.241C268.994 210.757 268.935 210.267 269.16 209.734C268.519 210.152 267.851 209.999 267.334 209.51C266.481 208.704 266.773 207.666 267.595 206.795ZM270.758 208.739L270.13 209.403C269.829 209.721 269.799 210.071 270.123 210.376C270.452 210.688 270.8 210.649 271.122 210.308L271.734 209.661L270.758 208.739ZM268.853 206.938L268.269 207.555C267.735 208.119 267.851 208.551 268.156 208.84C268.462 209.129 268.906 209.237 269.456 208.655L270.029 208.049L268.853 206.938Z" fill="black"/>
<path d="M262.137 212.15L264.904 209.552L269.002 213.918L266.235 216.515L265.537 215.772L267.531 213.9L266.617 212.927L265.048 214.4L264.35 213.656L265.92 212.183L264.829 211.021L262.835 212.893L262.137 212.15Z" fill="black"/>
<path d="M259.9 214.075L260.706 213.386L264.597 217.937L263.791 218.626L259.9 214.075Z" fill="black"/>
<path d="M253.962 218.747L254.851 218.071L260.23 219.703L257.472 216.078L258.315 215.436L261.94 220.201L260.878 221.01L255.847 219.489L258.424 222.876L257.587 223.513L253.962 218.747Z" fill="black"/>
<path d="M249.41 225.882L249.038 225.303C248.208 224.009 248.25 222.396 249.762 221.426C251.273 220.456 253.163 220.839 254.103 222.303C255.029 223.747 254.655 225.65 253.156 226.612C252.4 227.097 251.541 227.225 250.754 227.048L250.899 226.09C251.537 226.276 252.149 226.105 252.598 225.816C253.633 225.152 253.842 223.845 253.217 222.871C252.584 221.884 251.321 221.579 250.279 222.247C249.544 222.719 249.232 223.477 249.744 224.456L251.331 223.437L251.882 224.296L249.41 225.882Z" fill="black"/>
<path d="M147.837 173.597L148.519 172.906C149.103 173.412 149.527 174.112 149.607 174.957C149.769 176.673 148.564 178.201 146.824 178.366C145.125 178.526 143.605 177.321 143.437 175.549C143.353 174.654 143.642 173.847 144.169 173.228L144.972 173.819C144.551 174.257 144.344 174.821 144.404 175.457C144.514 176.625 145.582 177.427 146.734 177.318C147.902 177.207 148.748 176.193 148.64 175.049C148.586 174.477 148.25 173.932 147.837 173.597Z" fill="black"/>
<path d="M146.003 165.273C147.734 165.218 149.145 166.557 149.2 168.296C149.255 170.018 147.958 171.468 146.211 171.524C144.505 171.578 143.063 170.281 143.006 168.501C142.95 166.746 144.273 165.328 146.003 165.273ZM148.23 168.327C148.193 167.178 147.218 166.295 146.045 166.332C144.873 166.369 143.939 167.306 143.976 168.47C144.014 169.643 145.029 170.509 146.186 170.472C147.358 170.435 148.267 169.475 148.23 168.327Z" fill="black"/>
<path d="M149.226 157.451L149.187 158.51L144.65 158.342L146.908 159.908L146.871 160.91L144.505 162.28L149.041 162.448L149.002 163.507L143.018 163.286L143.069 161.919L145.766 160.367L143.192 158.596L143.242 157.229L149.226 157.451Z" fill="black"/>
<path d="M149.51 154.263L149.406 155.318L143.447 154.729L143.656 152.619C143.796 151.202 144.76 150.663 145.839 150.77C146.918 150.877 147.766 151.595 147.626 153.012L147.521 154.067L149.51 154.263ZM146.507 153.966L146.611 152.911C146.68 152.211 146.275 151.87 145.744 151.817C145.212 151.765 144.74 152.019 144.671 152.719L144.566 153.774L146.507 153.966Z" fill="black"/>
<path d="M150.601 145.749L150.037 149.502L144.116 148.612L144.68 144.859L145.688 145.011L145.282 147.715L146.602 147.914L146.922 145.785L147.93 145.937L147.61 148.065L149.186 148.302L149.593 145.598L150.601 145.749Z" fill="black"/>
<path d="M151.435 141.402L151.223 142.441L146.355 141.448L145.97 143.335L144.971 143.131L145.951 138.326L146.95 138.53L146.567 140.409L151.435 141.402Z" fill="black"/>
<path d="M153.174 134.169L152.223 137.843L146.427 136.342L147.378 132.669L148.365 132.924L147.679 135.572L148.972 135.906L149.511 133.823L150.498 134.078L149.959 136.162L151.502 136.561L152.187 133.914L153.174 134.169Z" fill="black"/>
<path d="M155.355 127.151L155.012 128.214L149.666 129.95L154.002 131.348L153.676 132.357L147.978 130.519L148.387 129.249L153.384 127.621L149.334 126.315L149.656 125.314L155.355 127.151Z" fill="black"/>
<path d="M156.248 120.548L157.169 120.241C157.461 120.956 157.523 121.771 157.212 122.562C156.58 124.166 154.815 124.984 153.189 124.344C151.6 123.718 150.789 121.956 151.441 120.3C151.77 119.464 152.394 118.874 153.143 118.561L153.593 119.451C153.018 119.651 152.579 120.06 152.345 120.655C151.915 121.747 152.505 122.944 153.581 123.368C154.673 123.798 155.887 123.276 156.308 122.206C156.519 121.672 156.465 121.034 156.248 120.548Z" fill="black"/>
<path d="M160.21 115.412L158.63 118.862L153.186 116.37L154.765 112.92L155.692 113.344L154.554 115.831L155.768 116.387L156.664 114.429L157.591 114.854L156.695 116.811L158.144 117.474L159.283 114.987L160.21 115.412Z" fill="black"/>
<path d="M218.546 227.649L220.242 227.556L220.572 233.534L218.876 233.628C216.969 233.733 215.598 232.682 215.495 230.816C215.392 228.95 216.639 227.754 218.546 227.649ZM219.24 228.632L218.626 228.666C217.439 228.731 216.474 229.311 216.554 230.758C216.633 232.204 217.656 232.674 218.844 232.609L219.458 232.575L219.24 228.632Z" fill="black"/>
<path d="M209.81 227.624L213.601 227.795L213.332 233.776L209.541 233.606L209.587 232.587L212.319 232.71L212.379 231.376L210.229 231.28L210.275 230.261L212.425 230.358L212.497 228.766L209.764 228.643L209.81 227.624Z" fill="black"/>
<path d="M205.111 227.046L206.207 227.208L207.664 233.475L206.512 233.305L205.471 228.432L203.069 232.798L201.917 232.628L205.111 227.046Z" fill="black"/>
<path d="M197.58 225.414L201.259 226.344L199.791 232.149L196.112 231.219L196.362 230.23L199.014 230.901L199.341 229.606L197.254 229.079L197.504 228.09L199.591 228.618L199.981 227.073L197.33 226.402L197.58 225.414Z" fill="black"/>
<path d="M192.194 223.595L195.813 224.868L193.826 230.516L192.826 230.165L194.474 225.478L191.856 224.557L192.194 223.595Z" fill="black"/>
<path d="M184.109 223.198C184.852 221.634 186.688 220.993 188.26 221.739C189.816 222.479 190.512 224.296 189.762 225.875C189.029 227.417 187.215 228.105 185.607 227.341C184.021 226.588 183.366 224.762 184.109 223.198ZM187.843 222.616C186.805 222.123 185.573 222.586 185.07 223.646C184.566 224.706 184.971 225.964 186.024 226.464C187.084 226.968 188.318 226.461 188.815 225.416C189.319 224.357 188.881 223.11 187.843 222.616Z" fill="black"/>
<path d="M183.086 219.1L183.989 219.655L180.851 224.755L179.046 223.644C177.833 222.897 177.77 221.795 178.339 220.871C178.907 219.948 179.923 219.5 181.136 220.246L182.039 220.802L183.086 219.1ZM181.505 221.67L180.602 221.115C180.002 220.746 179.519 220.961 179.239 221.416C178.959 221.87 178.98 222.406 179.58 222.775L180.483 223.331L181.505 221.67Z" fill="black"/>
<path d="M174.312 212.837L175.146 213.492L172.345 217.063L174.938 216.156L175.727 216.776L175.445 219.495L178.247 215.924L179.081 216.578L175.385 221.289L174.309 220.445L174.639 217.351L171.693 218.393L170.617 217.549L174.312 212.837Z" fill="black"/>
<path d="M170.08 208.743L172.785 211.405L168.586 215.673L165.881 213.011L166.596 212.284L168.545 214.202L169.481 213.251L167.947 211.741L168.662 211.015L170.197 212.524L171.315 211.388L169.365 209.47L170.08 208.743Z" fill="black"/>
<path d="M165.349 203.183L166.056 204.047L164.614 209.48L168.14 206.597L168.811 207.417L164.176 211.207L163.331 210.174L164.674 205.093L161.379 207.787L160.714 206.973L165.349 203.183Z" fill="black"/>
<path d="M162.717 199.267L163.292 200.158L159.118 202.852L160.163 204.47L159.306 205.023L156.647 200.903L157.503 200.35L158.543 201.961L162.717 199.267Z" fill="black"/>
<path d="M131.839 70.412L130.661 70.412L130.155 69.1015L127.509 69.1015L127.011 70.412L125.833 70.412L128.289 64.2742L129.392 64.2742L131.839 70.412ZM129.765 68.0647L128.836 65.6262L127.899 68.0647L129.765 68.0647ZM133.586 70.412L132.499 70.412L132.499 64.2742L134.672 64.2742C136.132 64.2742 136.779 65.2032 136.779 66.3146C136.779 67.4261 136.132 68.3633 134.672 68.3633L133.586 68.3633L133.586 70.412ZM133.586 67.3182L134.672 67.3182C135.394 67.3182 135.701 66.8703 135.701 66.3229C135.701 65.7755 135.394 65.3193 134.672 65.3193L133.586 65.3193L133.586 67.3182ZM142.139 70.4121L140.92 70.4121L139.435 67.8657L138.697 67.8657L138.697 70.4121L137.61 70.4121L137.61 64.2742L140.098 64.2742C141.351 64.2742 142.031 64.9958 142.031 66.0741C142.031 66.9948 141.533 67.65 140.613 67.8076L142.139 70.4121ZM138.697 66.8206L140.115 66.8206C140.621 66.8206 140.944 66.5469 140.944 66.0824C140.944 65.6096 140.621 65.3193 140.115 65.3193L138.697 65.3193L138.697 66.8206Z" fill="white"/>
<path d="M301.934 72.784H300.847V68.1308L299.329 70.503H298.301L296.808 68.1308V72.784H295.721V66.6461H297.123L298.815 69.3501L300.532 66.6461H301.934V72.784ZM308.604 72.784H307.426L306.92 71.4735H304.274L303.776 72.784H302.599L305.054 66.6461H306.157L308.604 72.784ZM306.53 70.4367L305.601 67.9981L304.664 70.4367H306.53ZM311.328 72.784H310.241V70.0634L308.018 66.6461H309.279L310.78 69.0432L312.29 66.6461H313.551L311.328 70.0551V72.784Z" fill="white"/>
<path d="M298.499 253.795H297.354L293.979 249.126V253.795H292.892V247.658H294.261L297.421 252.02V247.658H298.499V253.795ZM305.822 250.726C305.822 252.501 304.404 253.903 302.621 253.903C300.854 253.903 299.411 252.526 299.411 250.735C299.411 248.985 300.788 247.55 302.613 247.55C304.412 247.55 305.822 248.951 305.822 250.726ZM302.621 252.908C303.799 252.908 304.736 251.937 304.736 250.735C304.736 249.532 303.807 248.545 302.613 248.545C301.41 248.545 300.489 249.557 300.489 250.743C300.489 251.946 301.443 252.908 302.621 252.908ZM309.494 253.795H308.357L305.944 247.658H307.138L308.921 252.443L310.705 247.658H311.899L309.494 253.795Z" fill="white"/>
<path d="M128.713 251.981L126.971 251.981L126.971 245.843L128.713 245.843C130.67 245.843 132.014 246.996 132.014 248.912C132.014 250.828 130.67 251.981 128.713 251.981ZM128.057 250.936L128.688 250.936C129.907 250.936 130.927 250.396 130.927 248.912C130.927 247.427 129.907 246.888 128.688 246.888L128.057 246.888L128.057 250.936ZM136.814 251.981L132.924 251.981L132.924 245.843L136.814 245.843L136.814 246.888L134.011 246.888L134.011 248.257L136.217 248.257L136.217 249.302L134.011 249.302L134.011 250.936L136.814 250.936L136.814 251.981ZM142.123 250.413L142.761 251.176C142.189 251.724 141.434 252.089 140.563 252.089C138.797 252.089 137.353 250.712 137.353 248.92C137.353 247.17 138.73 245.735 140.555 245.735C141.476 245.735 142.272 246.108 142.853 246.705L142.173 247.469C141.766 246.996 141.21 246.73 140.555 246.73C139.352 246.73 138.432 247.742 138.432 248.928C138.432 250.131 139.386 251.093 140.563 251.093C141.152 251.093 141.741 250.803 142.123 250.413Z" fill="white"/>
<path d="M250.006 249.088L251.443 248.64L253.364 254.793L254.392 251.029L255.752 250.605L258.705 253.125L256.784 246.972L258.221 246.523L260.755 254.64L258.901 255.218L255.548 252.341L254.394 256.626L252.54 257.204L250.006 249.088Z" fill="black"/>
<path d="M246.38 249.931L247.753 249.596L249.045 254.899L247.672 255.233L246.38 249.931ZM248.568 255.949C249.059 255.83 249.531 256.117 249.65 256.608C249.77 257.099 249.48 257.56 248.989 257.68C248.498 257.799 248.04 257.521 247.92 257.03C247.8 256.538 248.076 256.069 248.568 255.949Z" fill="black"/>
<path d="M238.891 251.478L240.279 251.211L240.346 251.561C240.707 251.129 241.187 250.885 241.74 250.778C243.32 250.475 244.826 251.496 245.123 253.042C245.422 254.599 244.397 256.083 242.817 256.386C242.275 256.49 241.739 256.441 241.232 256.176L241.882 259.561L240.494 259.828L238.891 251.478ZM240.79 253.874C240.942 254.664 241.737 255.213 242.561 255.055C243.374 254.899 243.909 254.094 243.758 253.304C243.604 252.503 242.808 251.954 241.996 252.11C241.172 252.268 240.636 253.073 240.79 253.874Z" fill="black"/>
<path d="M234.375 249.184L235.742 249.007L235.117 251.869L238.081 257.139L236.532 257.339L234.692 253.777L233.831 257.689L232.453 257.868L234.375 249.184Z" fill="black"/>
<path d="M225.382 255.206L229.531 254.911C229.323 254.257 228.751 253.826 227.937 253.884C227.445 253.919 226.931 254.139 226.64 254.586L225.622 253.887C226.066 253.153 226.907 252.678 227.836 252.612C229.474 252.496 230.822 253.632 230.936 255.225C231.046 256.773 230.051 258.179 228.321 258.303C226.716 258.417 225.489 257.191 225.38 255.655C225.369 255.506 225.369 255.345 225.382 255.206ZM229.559 255.945L226.842 256.138C226.962 256.683 227.565 257.066 228.241 257.018C228.894 256.972 229.394 256.544 229.559 255.945Z" fill="black"/>
<path d="M218.02 253.062L219.434 253.051L219.436 253.407C219.87 253.047 220.386 252.894 220.949 252.889C222.558 252.877 223.854 254.154 223.867 255.728C223.879 257.313 222.602 258.587 220.994 258.6C220.442 258.604 219.924 258.459 219.473 258.106L219.476 258.508L218.063 258.519L218.02 253.062ZM219.455 255.762C219.461 256.566 220.144 257.25 220.983 257.244C221.81 257.237 222.483 256.543 222.477 255.738C222.47 254.923 221.787 254.239 220.96 254.245C220.121 254.252 219.448 254.946 219.455 255.762Z" fill="black"/>
<path d="M214.331 252.916L215.743 252.984L215.48 258.436L214.068 258.368L214.087 257.966C213.541 258.331 213.019 258.42 211.963 258.37L212.028 257.015C213.83 257.102 214.153 256.612 214.198 255.671L214.331 252.916Z" fill="black"/>
<path d="M200.621 251.493L202.294 251.725L203.849 255.5L204.862 255.64L205.345 252.146L206.836 252.352L205.672 260.775L202.257 260.303C200.539 260.065 199.742 258.946 199.947 257.467C200.121 256.203 200.928 255.398 202.222 255.357L200.621 251.493ZM204.664 257.075L202.717 256.806C202.023 256.71 201.527 257.024 201.439 257.661C201.349 258.31 201.738 258.77 202.433 258.866L204.379 259.135L204.664 257.075Z" fill="black"/>
<path d="M193.498 252.365L197.572 253.2C197.548 252.515 197.114 251.945 196.315 251.781C195.831 251.682 195.276 251.756 194.876 252.108L194.085 251.16C194.71 250.572 195.648 250.343 196.56 250.53C198.17 250.86 199.161 252.318 198.84 253.883C198.528 255.402 197.191 256.488 195.491 256.14C193.916 255.817 193.065 254.305 193.374 252.797C193.404 252.65 193.447 252.495 193.498 252.365ZM197.319 254.204L194.652 253.657C194.62 254.213 195.097 254.745 195.761 254.881C196.403 255.013 196.999 254.737 197.319 254.204Z" fill="black"/>
<path d="M189.334 248.954L190.766 249.337L191.478 255.176L189.991 254.778L189.602 250.845L187.293 254.058L185.806 253.661L189.334 248.954Z" fill="black"/>
<path d="M184.44 247.496L185.788 247.921L184.145 253.126L182.797 252.7L184.44 247.496ZM183.192 253.777C183.674 253.929 183.929 254.419 183.777 254.901C183.625 255.383 183.138 255.627 182.656 255.475C182.174 255.323 181.927 254.847 182.079 254.365C182.231 253.883 182.71 253.625 183.192 253.777Z" fill="black"/>
<path d="M176.718 247.168L180.622 248.602C180.701 247.921 180.357 247.293 179.591 247.011C179.127 246.841 178.568 246.831 178.119 247.12L177.478 246.064C178.184 245.577 179.146 245.489 180.02 245.81C181.562 246.377 182.325 247.966 181.774 249.466C181.239 250.922 179.755 251.797 178.127 251.198C176.617 250.644 176.001 249.022 176.531 247.577C176.583 247.437 176.649 247.29 176.718 247.168ZM180.223 249.557L177.667 248.618C177.552 249.164 177.945 249.761 178.581 249.994C179.196 250.22 179.827 250.036 180.223 249.557Z" fill="black"/>
<path d="M169.883 241.715L171.16 242.293L170.844 245.972L173.358 243.288L174.698 243.895L174.217 249.667L172.772 249.014L173.245 245.293L170.595 248.028L169.464 247.517L169.791 243.73L167.297 246.536L165.842 245.878L169.883 241.715Z" fill="black"/>
<path d="M166.808 76.7475L163.218 79.0937L159.555 73.4886L160.547 72.8402L163.586 77.4909L166.184 75.7932L166.808 76.7475Z" fill="black"/>
<path d="M170.568 72.1043C171.184 73.1804 170.807 74.5632 169.7 75.1965C168.6 75.8253 167.217 75.4487 166.602 74.3726C165.982 73.2887 166.368 71.9216 167.467 71.2928C168.575 70.6594 169.949 71.0204 170.568 72.1043ZM169.618 72.6478C169.304 72.098 168.571 71.8917 167.997 72.2196C167.432 72.543 167.238 73.2793 167.552 73.8291C167.871 74.3868 168.604 74.5931 169.17 74.2697C169.743 73.9418 169.937 73.2055 169.618 72.6478Z" fill="black"/>
<path d="M175.697 69.5209C176.248 70.6314 175.791 71.9896 174.648 72.5566C173.513 73.1196 172.155 72.6622 171.604 71.5517C171.049 70.4332 171.514 69.0912 172.649 68.5282C173.792 67.9612 175.142 68.4024 175.697 69.5209ZM174.716 70.0075C174.435 69.4401 173.715 69.1911 173.124 69.4846C172.54 69.7742 172.303 70.4978 172.585 71.0651C172.87 71.6406 173.59 71.8897 174.173 71.6001C174.765 71.3066 175.002 70.583 174.716 70.0075Z" fill="black"/>
<path d="M181.869 69.179L180.52 69.7532L178.203 68.6546L178.955 70.4195L177.931 70.8554L175.308 64.6948L176.332 64.2589L177.923 67.9969L178.703 65.8554L180.019 65.2954L179.056 67.8392L181.869 69.179Z" fill="black"/>
<path d="M184.027 68.3854L182.985 68.7759L181.476 64.7513L182.519 64.3608L184.027 68.3854ZM181.751 63.8851C181.378 64.0248 180.982 63.8446 180.842 63.4718C180.703 63.099 180.886 62.7115 181.259 62.5718C181.632 62.4321 182.016 62.6069 182.156 62.9797C182.295 63.3525 182.124 63.7454 181.751 63.8851Z" fill="black"/>
<path d="M189.524 66.5283L188.465 66.8712L187.757 64.6848C187.5 63.8929 187.023 63.8574 186.601 63.994C186.179 64.1306 185.811 64.4308 186.064 65.2141L186.778 67.4178L185.719 67.7607L184.395 63.672L185.454 63.329L185.551 63.6303C185.728 63.3828 185.945 63.0842 186.505 62.903C187.4 62.613 188.345 62.8871 188.76 64.1697L189.524 66.5283Z" fill="black"/>
<path d="M194.146 65.1884L194.098 65.0044C193.835 65.3617 193.47 65.5771 193.041 65.6875C191.814 66.0031 190.58 65.2741 190.271 64.0736C189.96 62.8643 190.694 61.6479 191.92 61.3323C192.341 61.2241 192.765 61.2366 193.176 61.4204L193.097 61.1137L194.175 60.8364L195.169 64.7009C195.742 66.9267 194.397 67.581 193.582 67.7906C192.784 67.9958 191.986 67.762 191.443 67.2478L192.322 66.5637C192.598 66.7637 192.965 66.8468 193.316 66.7566C193.955 66.5921 194.391 66.1436 194.146 65.1884ZM193.636 63.208C193.478 62.5946 192.826 62.2018 192.186 62.3664C191.555 62.5287 191.174 63.1874 191.331 63.8009C191.492 64.423 192.144 64.8158 192.775 64.6535C193.414 64.489 193.796 63.8302 193.636 63.208Z" fill="black"/>
<path d="M200.893 63.8736L199.794 64.0494L198.736 57.4379L199.835 57.262L200.264 59.9424C200.559 59.6111 200.943 59.4306 201.381 59.3605C202.631 59.1603 203.789 59.9829 203.987 61.2159C204.183 62.4399 203.342 63.6008 202.091 63.801C201.653 63.871 201.233 63.8192 200.849 63.5966L200.893 63.8736ZM200.549 61.7203L200.564 61.8186C200.688 62.4219 201.288 62.8482 201.923 62.7467C202.566 62.6437 203.007 62.0233 202.906 61.3889C202.806 60.7635 202.193 60.3118 201.549 60.4148C200.915 60.5163 200.48 61.1174 200.549 61.7203Z" fill="black"/>
<path d="M209.956 62.7492L208.848 62.8554L208.822 62.5762C208.506 62.8882 208.112 63.0441 207.671 63.0864C206.41 63.2072 205.304 62.295 205.186 61.0611C205.067 59.8181 205.981 58.7307 207.242 58.6099C207.674 58.5685 208.091 58.6467 208.469 58.8923L208.438 58.5771L209.546 58.4709L209.956 62.7492ZM208.645 60.7297C208.584 60.0992 208.001 59.6097 207.343 59.6727C206.695 59.7348 206.215 60.3262 206.276 60.9567C206.337 61.5962 206.92 62.0857 207.569 62.0235C208.226 61.9605 208.706 61.3692 208.645 60.7297Z" fill="black"/>
<path d="M214.617 61.0331L215.578 61.5593C215.204 62.2068 214.496 62.6583 213.673 62.6884C212.407 62.7347 211.357 61.7591 211.312 60.5203C211.266 59.2725 212.243 58.2408 213.508 58.1944C214.322 58.1646 215.042 58.5457 215.472 59.1457L214.543 59.732C214.314 59.4325 213.954 59.2465 213.548 59.2614C212.897 59.2852 212.383 59.8473 212.406 60.4802C212.43 61.1222 212.983 61.6452 213.634 61.6214C214.059 61.6058 214.422 61.3753 214.617 61.0331Z" fill="black"/>
<path d="M221.237 62.5785L219.771 62.5502L218.107 60.5994L218.07 62.5173L216.958 62.4958L217.087 55.8014L218.2 55.8229L218.121 59.8848L219.709 58.2503L221.139 58.2779L219.219 60.2046L221.237 62.5785Z" fill="black"/>
<path d="M227.652 62.124L227.555 63.1055C227.555 63.1055 227.22 63.1814 226.689 63.1288C225.852 63.0458 225.474 62.4538 225.557 61.6164L225.75 59.6715L225.074 59.6046L225.18 58.5421L225.855 58.609L225.998 57.1593L227.106 57.269L226.962 58.7187L228.097 58.8311L227.992 59.8936L226.857 59.7812L226.688 61.492C226.658 61.7891 226.712 62.0763 227.108 62.1155C227.387 62.1432 227.652 62.124 227.652 62.124Z" fill="black"/>
<path d="M233.693 61.7977C233.509 63.0236 232.356 63.8752 231.094 63.6856C229.842 63.4974 228.99 62.3447 229.174 61.1188C229.36 59.8841 230.51 59.0504 231.763 59.2386C233.024 59.4281 233.879 60.5629 233.693 61.7977ZM232.61 61.6351C232.704 61.0087 232.257 60.3925 231.604 60.2944C230.96 60.1976 230.351 60.6552 230.257 61.2815C230.162 61.9168 230.609 62.533 231.253 62.6298C231.906 62.7279 232.515 62.2704 232.61 61.6351Z" fill="black"/>
<path d="M239.471 64.2339L239.252 65.1955C239.121 65.2026 238.945 65.1997 238.768 65.1594C237.966 64.9763 237.625 64.4346 237.806 63.6407L239.04 58.233L240.125 58.4805L238.948 63.6412C238.883 63.9235 238.923 64.118 239.302 64.2045C239.337 64.2126 239.408 64.2287 239.471 64.2339Z" fill="black"/>
<path d="M245.104 64.5016C244.774 65.6965 243.528 66.4034 242.298 66.0637C241.077 65.7264 240.37 64.4798 240.7 63.2849C241.032 62.0813 242.274 61.3918 243.495 61.7291C244.725 62.0688 245.437 63.298 245.104 64.5016ZM244.049 64.2101C244.218 63.5996 243.848 62.9341 243.211 62.7583C242.583 62.5848 241.924 62.9659 241.755 63.5764C241.584 64.1957 241.954 64.8611 242.582 65.0346C243.219 65.2105 243.878 64.8293 244.049 64.2101Z" fill="black"/>
<path d="M250.551 66.3204C250.151 67.4938 248.865 68.1261 247.657 67.7146C246.458 67.306 245.826 66.0199 246.226 64.8465C246.628 63.6646 247.909 63.0494 249.108 63.458C250.315 63.8695 250.954 65.1385 250.551 66.3204ZM249.514 65.9673C249.719 65.3678 249.389 64.6817 248.763 64.4686C248.147 64.2585 247.466 64.6001 247.262 65.1997C247.055 65.8078 247.385 66.4938 248.002 66.704C248.627 66.917 249.307 66.5754 249.514 65.9673Z" fill="black"/>
<path d="M255.143 70.4595L253.785 69.9069L252.932 67.489L252.209 69.2657L251.179 68.8462L253.703 62.6444L254.733 63.0639L253.202 66.8269L255.271 65.8715L256.595 66.4104L254.112 67.5196L255.143 70.4595Z" fill="black"/>
<path d="M259.901 72.7314L258.906 72.2327L260.354 69.3449L259.788 69.0611L260.266 68.1066L260.832 68.3904L261.282 67.4925C261.659 66.7402 262.263 66.4252 263.096 66.8428C263.314 66.9523 263.63 67.1509 263.791 67.3129L263.349 68.1946C263.349 68.1946 263.087 68.0123 262.9 67.919C262.593 67.7649 262.375 67.7971 262.172 68.2015L261.827 68.8891L262.685 69.3189L262.206 70.2734L261.349 69.8436L259.901 72.7314Z" fill="black"/>
<path d="M266.833 74.0738C266.224 75.1534 264.844 75.538 263.732 74.911C262.629 74.2885 262.245 72.9079 262.854 71.8283C263.467 70.7408 264.839 70.372 265.942 70.9945C267.054 71.6215 267.447 72.9864 266.833 74.0738ZM265.88 73.5358C266.191 72.9842 265.993 72.249 265.418 71.9244C264.85 71.6043 264.119 71.8147 263.807 72.3663C263.492 72.9258 263.69 73.661 264.257 73.9812C264.832 74.3058 265.564 74.0953 265.88 73.5358Z" fill="black"/>
<path d="M267.921 77.2775L266.981 76.6816L269.282 73.0516L270.222 73.6474L270.052 73.9149C270.568 73.8779 270.961 74.0195 271.664 74.4652L271.092 75.367C269.892 74.6064 269.48 74.8167 269.083 75.4434L267.921 77.2775Z" fill="black"/>
<path d="M274.614 81.8964L273.721 81.2481L274.548 78.4605L272.183 80.1321L271.246 79.4519L272.532 75.0753L273.543 75.8086L272.588 78.6036L275.066 76.9139L275.857 77.4879L275.005 80.3573L277.373 78.5879L278.391 79.3265L274.614 81.8964Z" fill="black"/>
<path d="M279.984 86.29L279.133 85.5728L279.314 85.3583C278.87 85.3512 278.483 85.1787 278.144 84.893C277.175 84.0766 277.053 82.6486 277.852 81.7008C278.657 80.746 280.073 80.6381 281.042 81.4544C281.374 81.7343 281.609 82.0867 281.699 82.5286L281.903 82.2864L282.754 83.0036L279.984 86.29ZM280.509 83.94C280.917 83.4557 280.859 82.6965 280.354 82.2708C279.856 81.851 279.098 81.9221 278.689 82.4064C278.275 82.8976 278.334 83.6567 278.832 84.0766C279.337 84.5023 280.095 84.4312 280.509 83.94Z" fill="black"/>
<path d="M282.125 88.2658L281.313 87.5042L284.255 84.3702L285.066 85.1319L284.849 85.3628C285.363 85.4233 285.722 85.6359 286.329 86.2056L285.599 86.9841C284.563 86.012 284.119 86.1413 283.611 86.6823L282.125 88.2658Z" fill="black"/>
<path d="M287.246 93.4105L286.476 92.6067L286.679 92.4127C286.239 92.3584 285.872 92.1457 285.565 91.8255C284.689 90.9105 284.72 89.4777 285.616 88.6204C286.518 87.7567 287.937 87.8003 288.813 88.7152C289.114 89.0289 289.31 89.4043 289.352 89.8532L291.312 87.9758L292.082 88.7796L287.246 93.4105ZM288.019 91.1298C288.476 90.6918 288.499 89.9307 288.042 89.4537C287.592 88.9831 286.83 88.973 286.373 89.4111C285.909 89.8554 285.886 90.6165 286.337 91.087C286.793 91.5641 287.555 91.5742 288.019 91.1298Z" fill="black"/>
<rect y="22.4998" width="104.198" height="49.248" rx="1.296" fill="#FFCD00"/>
<path d="M13.4433 39.7013H9.24878V32.5162H13.4433V33.458H10.2392V35.4873H12.8996V36.4195H10.2392V38.7692H13.4433V39.7013ZM18.9129 39.7013H17.9711V37.2836C17.9711 36.3612 17.6118 35.8854 16.8447 35.8854C16.0486 35.8854 15.6699 36.4 15.6699 37.3516V39.7013H14.7378V35.0892H15.6699V35.5844C15.9806 35.2349 16.3593 35.0019 17.0098 35.0019C18.107 35.0019 18.9129 35.6427 18.9129 37.0894V39.7013ZM24.8948 39.7013H23.9627V39.1576C23.5743 39.6139 23.0403 39.8275 22.4188 39.8275C21.0498 39.8275 19.9817 38.7692 19.9817 37.4196C19.9817 36.0505 21.0692 35.0019 22.4188 35.0019C23.0403 35.0019 23.5646 35.2252 23.9627 35.6815V32.5162H24.8948V39.7013ZM23.9432 37.4196C23.9432 36.5845 23.2927 35.8854 22.4188 35.8854C21.5547 35.8854 20.9041 36.5651 20.9041 37.4196C20.9041 38.2837 21.5547 38.9537 22.4188 38.9537C23.3024 38.9537 23.9432 38.2546 23.9432 37.4196ZM33.5316 37.4196C33.5316 38.7401 32.4344 39.8275 31.0945 39.8275C29.7642 39.8275 28.6768 38.7498 28.6768 37.4196C28.6768 36.0991 29.7448 35.0019 31.0945 35.0019C32.4344 35.0019 33.5316 36.0893 33.5316 37.4196ZM32.6092 37.4099C32.6092 36.5748 31.9392 35.8854 31.1042 35.8854C30.24 35.8854 29.5992 36.6137 29.5992 37.4293C29.5992 38.2546 30.2594 38.9537 31.1042 38.9537C31.9586 38.9537 32.6092 38.2352 32.6092 37.4099ZM35.6599 39.7013H34.7181V35.9728H34.0384V35.0892H34.7181V34.0212C34.7181 33.1376 35.1259 32.5162 36.1357 32.5162C36.3881 32.5162 36.6794 32.555 36.9027 32.623V33.458C36.8056 33.4289 36.5435 33.3901 36.3493 33.3901C35.8541 33.3901 35.6599 33.6231 35.6599 34.3319V35.0892H36.8056V35.9728H35.6599V39.7013ZM41.6779 42.1579H40.7555L41.6002 39.7887L39.7165 35.0892H40.7361L42.0566 38.5556L43.2994 35.0892H44.2315L41.6779 42.1579ZM49.4199 37.7303H45.6428C45.7691 38.4391 46.3516 38.9828 47.1381 38.9828C47.643 38.9828 48.1382 38.7595 48.4295 38.3517L49.0898 38.8566C48.6625 39.4586 47.9343 39.8275 47.1381 39.8275C45.7982 39.8275 44.7204 38.7789 44.7204 37.4196C44.7204 36.1282 45.7011 35.0019 47.0799 35.0019C48.4489 35.0019 49.4393 36.1185 49.4393 37.4099C49.4393 37.5361 49.4296 37.6332 49.4199 37.7303ZM45.672 36.9923H48.4878C48.381 36.3515 47.8178 35.8563 47.0896 35.8563C46.3711 35.8563 45.837 36.3418 45.672 36.9923ZM55.1046 39.7013H54.1725V39.1576C53.7841 39.6139 53.2501 39.8275 52.6287 39.8275C51.2596 39.8275 50.1916 38.7692 50.1916 37.4196C50.1916 36.0505 51.279 35.0019 52.6287 35.0019C53.2501 35.0019 53.7744 35.2252 54.1725 35.6815V35.0892H55.1046V39.7013ZM54.1531 37.4196C54.1531 36.5845 53.5026 35.8854 52.6287 35.8854C51.7645 35.8854 51.114 36.5651 51.114 37.4196C51.114 38.2837 51.7645 38.9537 52.6287 38.9537C53.5123 38.9537 54.1531 38.2546 54.1531 37.4196ZM57.5901 39.7013H56.658V35.0892H57.5901V35.6427C58.0367 35.1087 58.4931 35.0019 59.3864 35.0019V35.8951C57.862 35.8951 57.5901 36.5166 57.5901 37.3128V39.7013ZM63.7819 39.7013H62.8497V35.0892H63.7819V35.6427C64.2285 35.1087 64.6849 35.0019 65.5782 35.0019V35.8951C64.0537 35.8951 63.7819 36.5166 63.7819 37.3128V39.7013ZM70.8304 37.7303H67.0533C67.1796 38.4391 67.7621 38.9828 68.5486 38.9828C69.0535 38.9828 69.5487 38.7595 69.84 38.3517L70.5003 38.8566C70.073 39.4586 69.3448 39.8275 68.5486 39.8275C67.2087 39.8275 66.1309 38.7789 66.1309 37.4196C66.1309 36.1282 67.1116 35.0019 68.4904 35.0019C69.8594 35.0019 70.8498 36.1185 70.8498 37.4099C70.8498 37.5361 70.8401 37.6332 70.8304 37.7303ZM67.0825 36.9923H69.8983C69.7915 36.3515 69.2283 35.8563 68.5001 35.8563C67.7816 35.8563 67.2475 36.3418 67.0825 36.9923ZM74.1666 39.7013H73.1665L71.2634 35.0892H72.2732L73.6519 38.5362L75.0501 35.0892H76.0599L74.1666 39.7013ZM77.8724 39.7013H76.9306V35.0892H77.8724V39.7013ZM77.4064 34.1765C77.0665 34.1765 76.8044 33.9144 76.8044 33.5745C76.8044 33.2347 77.0665 32.9725 77.4064 32.9725C77.7462 32.9725 77.9987 33.2347 77.9987 33.5745C77.9987 33.9144 77.7462 34.1765 77.4064 34.1765ZM83.7355 37.7303L79.9584 37.7303C80.0846 38.4391 80.6672 38.9828 81.4537 38.9828C81.9586 38.9828 82.4538 38.7595 82.7451 38.3517L83.4053 38.8566C82.9781 39.4586 82.2499 39.8275 81.4537 39.8275C80.1138 39.8275 79.036 38.7789 79.036 37.4196C79.036 36.1282 80.0167 35.0019 81.3954 35.0019C82.7645 35.0019 83.7549 36.1185 83.7549 37.4099C83.7549 37.5361 83.7452 37.6332 83.7355 37.7303ZM79.9876 36.9923L82.8033 36.9923C82.6965 36.3515 82.1334 35.8563 81.4052 35.8563C80.6866 35.8563 80.1526 36.3418 79.9876 36.9923ZM90.2261 39.7013H89.2552L88.09 36.3806L86.9346 39.7013H85.9442L84.2159 35.0892H85.2451L86.4394 38.4876L87.6531 35.0892H88.5172L89.7309 38.4876L90.9252 35.0892H91.9642L90.2261 39.7013ZM13.7249 49.7013H12.7928V49.1576C12.4044 49.6139 11.8704 49.8275 11.249 49.8275C9.87991 49.8275 8.81185 48.7692 8.81185 47.4196C8.81185 46.0505 9.89933 45.0019 11.249 45.0019C11.8704 45.0019 12.3947 45.2252 12.7928 45.6815V45.0892H13.7249V49.7013ZM12.7734 47.4196C12.7734 46.5845 12.1228 45.8854 11.249 45.8854C10.3848 45.8854 9.73426 46.5651 9.73426 47.4196C9.73426 48.2837 10.3848 48.9537 11.249 48.9537C12.1325 48.9537 12.7734 48.2546 12.7734 47.4196ZM19.4534 49.7013H18.5115V47.2836C18.5115 46.3612 18.1523 45.8854 17.3852 45.8854C16.589 45.8854 16.2104 46.4 16.2104 47.3516V49.7013H15.2782V45.0892H16.2104V45.5844C16.5211 45.2349 16.8997 45.0019 17.5503 45.0019C18.6475 45.0019 19.4534 45.6427 19.4534 47.0894V49.7013ZM25.4353 49.7013H24.5031V49.1576C24.1148 49.6139 23.5807 49.8275 22.9593 49.8275C21.5903 49.8275 20.5222 48.7692 20.5222 47.4196C20.5222 46.0505 21.6097 45.0019 22.9593 45.0019C23.5807 45.0019 24.105 45.2252 24.5031 45.6815V42.5162H25.4353V49.7013ZM24.4837 47.4196C24.4837 46.5845 23.8332 45.8854 22.9593 45.8854C22.0952 45.8854 21.4446 46.5651 21.4446 47.4196C21.4446 48.2837 22.0952 48.9537 22.9593 48.9537C23.8429 48.9537 24.4837 48.2546 24.4837 47.4196ZM36.2082 45.701V46.3224C36.2082 48.3711 34.9168 49.8275 32.8972 49.8275C30.7805 49.8275 29.1396 48.206 29.1396 46.1282C29.1396 44.0406 30.7902 42.39 32.8875 42.39C33.9653 42.39 34.9556 42.8269 35.6644 43.5551L35.043 44.2445C34.4993 43.6037 33.674 43.3027 32.9069 43.3027C31.3339 43.3027 30.13 44.5746 30.13 46.1379C30.13 47.6914 31.3048 48.9246 32.9069 48.9246C34.14 48.9246 35.1595 48.1963 35.2372 46.6331H32.6836V45.701H36.2082ZM42.0654 47.4196C42.0654 48.7401 40.9683 49.8275 39.6283 49.8275C38.2981 49.8275 37.2106 48.7498 37.2106 47.4196C37.2106 46.0991 38.2787 45.0019 39.6283 45.0019C40.9683 45.0019 42.0654 46.0893 42.0654 47.4196ZM41.143 47.4099C41.143 46.5748 40.4731 45.8854 39.638 45.8854C38.7739 45.8854 38.133 46.6137 38.133 47.4293C38.133 48.2546 38.7933 48.9537 39.638 48.9537C40.4925 48.9537 41.143 48.2352 41.143 47.4099ZM47.756 49.7013H46.8239V49.1576C46.4355 49.6139 45.9015 49.8275 45.2801 49.8275C43.911 49.8275 42.843 48.7692 42.843 47.4196C42.843 46.0505 43.9305 45.0019 45.2801 45.0019C45.9015 45.0019 46.4258 45.2252 46.8239 45.6815V45.0892H47.756V49.7013ZM46.8045 47.4196C46.8045 46.5845 46.154 45.8854 45.2801 45.8854C44.4159 45.8854 43.7654 46.5651 43.7654 47.4196C43.7654 48.2837 44.4159 48.9537 45.2801 48.9537C46.1637 48.9537 46.8045 48.2546 46.8045 47.4196ZM51.0474 48.944V49.7596C50.892 49.7984 50.727 49.8275 50.5328 49.8275C49.7754 49.8275 49.3094 49.3712 49.3094 48.5265V42.5162H50.2415V48.2352C50.2415 48.7304 50.358 48.9537 50.8144 48.9537C50.8726 48.9537 50.96 48.9537 51.0474 48.944ZM54.0871 49.2256L54.592 48.507C55.0581 48.8857 55.5533 48.9828 55.8834 48.9828C56.3786 48.9828 56.6505 48.7692 56.6505 48.4585C56.6505 47.5458 54.2522 48.1089 54.2522 46.4486C54.2522 45.6039 54.8736 45.0019 55.8348 45.0019C56.2232 45.0019 56.8738 45.099 57.3981 45.5262L56.9029 46.2156C56.4951 45.9146 56.0873 45.8563 55.8446 45.8563C55.3785 45.8563 55.1746 46.0893 55.1746 46.3418C55.1746 47.2157 57.5632 46.7399 57.5632 48.4002C57.5632 49.2838 56.8932 49.8275 55.8543 49.8275C55.1649 49.8275 54.5629 49.5848 54.0871 49.2256ZM63.0551 47.7303H59.278C59.4043 48.4391 59.9868 48.9828 60.7733 48.9828C61.2782 48.9828 61.7734 48.7595 62.0647 48.3517L62.725 48.8566C62.2977 49.4586 61.5695 49.8275 60.7733 49.8275C59.4334 49.8275 58.3556 48.7789 58.3556 47.4196C58.3556 46.1282 59.3363 45.0019 60.7151 45.0019C62.0841 45.0019 63.0745 46.1185 63.0745 47.4099C63.0745 47.5361 63.0648 47.6332 63.0551 47.7303ZM59.3072 46.9923H62.123C62.0162 46.3515 61.453 45.8563 60.7248 45.8563C60.0063 45.8563 59.4722 46.3418 59.3072 46.9923ZM66.3998 48.8857V49.7207C66.3027 49.7596 66.0114 49.8275 65.6716 49.8275C64.5356 49.8275 64.3317 49.0799 64.3317 48.2837V45.9728H63.6035V45.0892H64.3317V43.526H65.2735V45.0892H66.5261V45.9728H65.2735V48.1769C65.2735 48.7012 65.39 48.9537 65.8852 48.9537C66.0503 48.9537 66.3027 48.9246 66.3998 48.8857ZM69.8892 48.8857V49.7207C69.7921 49.7596 69.5008 49.8275 69.161 49.8275C68.025 49.8275 67.8211 49.0799 67.8211 48.2837V45.9728H67.0929V45.0892H67.8211V43.526H68.7629V45.0892H70.0155V45.9728H68.7629V48.1769C68.7629 48.7012 68.8794 48.9537 69.3746 48.9537C69.5397 48.9537 69.7921 48.9246 69.8892 48.8857ZM72.041 49.7013H71.0991V45.0892H72.041V49.7013ZM71.5749 44.1765C71.2351 44.1765 70.9729 43.9144 70.9729 43.5745C70.9729 43.2347 71.2351 42.9725 71.5749 42.9725C71.9148 42.9725 72.1672 43.2347 72.1672 43.5745C72.1672 43.9144 71.9148 44.1765 71.5749 44.1765ZM77.7681 49.7013H76.8262V47.2836C76.8262 46.3612 76.467 45.8854 75.6999 45.8854C74.9037 45.8854 74.5251 46.4 74.5251 47.3516V49.7013H73.5929V45.0892H74.5251V45.5844C74.8358 45.2349 75.2144 45.0019 75.865 45.0019C76.9622 45.0019 77.7681 45.6427 77.7681 47.0894V49.7013ZM82.8178 49.4877V49.1576C82.4295 49.6139 81.8954 49.8275 81.274 49.8275C79.9049 49.8275 78.8369 48.7692 78.8369 47.4196C78.8369 46.0505 79.9244 45.0019 81.274 45.0019C81.8954 45.0019 82.4197 45.2252 82.8178 45.6815V45.0892H83.75V49.3226C83.75 51.6335 82.3421 52.1579 81.3031 52.1579C80.371 52.1579 79.6234 51.7306 79.1864 51.0315L80.0506 50.6626C80.3225 51.051 80.7108 51.284 81.2934 51.284C82.0896 51.284 82.8178 50.8471 82.8178 49.4877ZM82.7984 47.4196C82.7984 46.5845 82.1479 45.8854 81.274 45.8854C80.4098 45.8854 79.7593 46.5651 79.7593 47.4196C79.7593 48.2837 80.4098 48.9537 81.274 48.9537C82.1576 48.9537 82.7984 48.2546 82.7984 47.4196ZM13.7249 59.7013H12.7928V59.1576C12.4044 59.6139 11.8704 59.8275 11.249 59.8275C9.87991 59.8275 8.81185 58.7692 8.81185 57.4196C8.81185 56.0505 9.89933 55.0019 11.249 55.0019C11.8704 55.0019 12.3947 55.2252 12.7928 55.6815V55.0892H13.7249L13.7249 59.7013ZM12.7734 57.4196C12.7734 56.5845 12.1228 55.8854 11.249 55.8854C10.3848 55.8854 9.73426 56.5651 9.73426 57.4196C9.73426 58.2837 10.3848 58.9537 11.249 58.9537C12.1325 58.9537 12.7734 58.2546 12.7734 57.4196ZM17.0163 58.944V59.7596C16.8609 59.7984 16.6958 59.8275 16.5016 59.8275C15.7443 59.8275 15.2782 59.3712 15.2782 58.5265L15.2782 52.5162H16.2104V58.2352C16.2104 58.7304 16.3269 58.9537 16.7832 58.9537C16.8415 58.9537 16.9289 58.9537 17.0163 58.944ZM18.8371 59.7013H17.8953V55.0892H18.8371V59.7013ZM18.3711 54.1765C18.0312 54.1765 17.7691 53.9144 17.7691 53.5745C17.7691 53.2347 18.0312 52.9725 18.3711 52.9725C18.7109 52.9725 18.9633 53.2347 18.9633 53.5745C18.9633 53.9144 18.7109 54.1765 18.3711 54.1765ZM23.9816 59.4877V59.1576C23.5932 59.6139 23.0592 59.8275 22.4378 59.8275C21.0687 59.8275 20.0007 58.7692 20.0007 57.4196C20.0007 56.0505 21.0882 55.0019 22.4378 55.0019C23.0592 55.0019 23.5835 55.2252 23.9816 55.6815V55.0892H24.9138V59.3226C24.9138 61.6335 23.5059 62.1579 22.4669 62.1579C21.5348 62.1579 20.7872 61.7306 20.3502 61.0315L21.2144 60.6626C21.4863 61.051 21.8746 61.284 22.4572 61.284C23.2534 61.284 23.9816 60.8471 23.9816 59.4877ZM23.9622 57.4196C23.9622 56.5845 23.3117 55.8854 22.4378 55.8854C21.5736 55.8854 20.9231 56.5651 20.9231 57.4196C20.9231 58.2837 21.5736 58.9537 22.4378 58.9537C23.3214 58.9537 23.9622 58.2546 23.9622 57.4196ZM30.6422 59.7013H29.7004V57.2836C29.7004 56.3612 29.3411 55.8854 28.5741 55.8854C27.7779 55.8854 27.3992 56.4 27.3992 57.3516V59.7013H26.4671V55.0892H27.3992V55.5844C27.7099 55.2349 28.0886 55.0019 28.7391 55.0019C29.8363 55.0019 30.6422 55.6427 30.6422 57.0894V59.7013ZM36.4105 57.7303H32.6334C32.7597 58.4391 33.3422 58.9828 34.1287 58.9828C34.6336 58.9828 35.1288 58.7595 35.4201 58.3517L36.0804 58.8566C35.6531 59.4586 34.9249 59.8275 34.1287 59.8275C32.7888 59.8275 31.711 58.7789 31.711 57.4196C31.711 56.1282 32.6917 55.0019 34.0705 55.0019C35.4395 55.0019 36.4299 56.1185 36.4299 57.4099C36.4299 57.5361 36.4202 57.6332 36.4105 57.7303ZM32.6626 56.9923H35.4784C35.3716 56.3515 34.8084 55.8563 34.0802 55.8563C33.3617 55.8563 32.8276 56.3418 32.6626 56.9923ZM42.0953 59.7013H41.1631V59.1576C40.7747 59.6139 40.2407 59.8275 39.6193 59.8275C38.2502 59.8275 37.1822 58.7692 37.1822 57.4196C37.1822 56.0505 38.2697 55.0019 39.6193 55.0019C40.2407 55.0019 40.765 55.2252 41.1631 55.6815V52.5162H42.0953V59.7013ZM41.1437 57.4196C41.1437 56.5845 40.4932 55.8854 39.6193 55.8854C38.7551 55.8854 38.1046 56.5651 38.1046 57.4196C38.1046 58.2837 38.7551 58.9537 39.6193 58.9537C40.5029 58.9537 41.1437 58.2546 41.1437 57.4196ZM48.3555 58.8857V59.7207C48.2584 59.7596 47.9671 59.8275 47.6272 59.8275C46.4912 59.8275 46.2873 59.0799 46.2873 58.2837V55.9728H45.5591V55.0892H46.2873V53.526H47.2291V55.0892H48.4817V55.9728H47.2291V58.1769C47.2291 58.7012 47.3457 58.9537 47.8409 58.9537C48.0059 58.9537 48.2584 58.9246 48.3555 58.8857ZM54.0318 57.4196C54.0318 58.7401 52.9346 59.8275 51.5947 59.8275C50.2645 59.8275 49.177 58.7498 49.177 57.4196C49.177 56.0991 50.245 55.0019 51.5947 55.0019C52.9346 55.0019 54.0318 56.0893 54.0318 57.4196ZM53.1094 57.4099C53.1094 56.5748 52.4394 55.8854 51.6044 55.8854C50.7402 55.8854 50.0994 56.6137 50.0994 57.4293C50.0994 58.2546 50.7597 58.9537 51.6044 58.9537C52.4588 58.9537 53.1094 58.2352 53.1094 57.4099ZM57.3584 59.2256L57.8633 58.507C58.3294 58.8857 58.8246 58.9828 59.1547 58.9828C59.6499 58.9828 59.9218 58.7692 59.9218 58.4585C59.9218 57.5458 57.5235 58.1089 57.5235 56.4486C57.5235 55.6039 58.1449 55.0019 59.1062 55.0019C59.4945 55.0019 60.1451 55.099 60.6694 55.5262L60.1742 56.2156C59.7664 55.9146 59.3586 55.8563 59.1159 55.8563C58.6498 55.8563 58.4459 56.0893 58.4459 56.3418C58.4459 57.2157 60.8345 56.7399 60.8345 58.4002C60.8345 59.2838 60.1645 59.8275 59.1256 59.8275C58.4362 59.8275 57.8342 59.5848 57.3584 59.2256ZM64.1526 58.8857V59.7207C64.0555 59.7596 63.7642 59.8275 63.4244 59.8275C62.2883 59.8275 62.0844 59.0799 62.0844 58.2837V55.9728H61.3562V55.0892H62.0844V53.526H63.0263V55.0892H64.2788V55.9728H63.0263V58.1769C63.0263 58.7012 63.1428 58.9537 63.638 58.9537C63.803 58.9537 64.0555 58.9246 64.1526 58.8857ZM66.2946 59.7013H65.3625V55.0892H66.2946V55.6427C66.7413 55.1087 67.1976 55.0019 68.0909 55.0019V55.8951C66.5665 55.8951 66.2946 56.5166 66.2946 57.3128V59.7013ZM73.3671 59.7013H72.435V59.1576C72.0466 59.6139 71.5126 59.8275 70.8911 59.8275C69.5221 59.8275 68.454 58.7692 68.454 57.4196C68.454 56.0505 69.5415 55.0019 70.8911 55.0019C71.5126 55.0019 72.0369 55.2252 72.435 55.6815V55.0892H73.3671V59.7013ZM72.4156 57.4196C72.4156 56.5845 71.765 55.8854 70.8911 55.8854C70.027 55.8854 69.3764 56.5651 69.3764 57.4196C69.3764 58.2837 70.027 58.9537 70.8911 58.9537C71.7747 58.9537 72.4156 58.2546 72.4156 57.4196ZM77.1051 58.8857V59.7207C77.008 59.7596 76.7167 59.8275 76.3769 59.8275C75.2408 59.8275 75.0369 59.0799 75.0369 58.2837V55.9728H74.3087V55.0892H75.0369V53.526H75.9788V55.0892H77.2313V55.9728H75.9788V58.1769C75.9788 58.7012 76.0953 58.9537 76.5905 58.9537C76.7555 58.9537 77.008 58.9246 77.1051 58.8857ZM82.6261 57.7303H78.849C78.9752 58.4391 79.5578 58.9828 80.3443 58.9828C80.8492 58.9828 81.3444 58.7595 81.6357 58.3517L82.2959 58.8566C81.8687 59.4586 81.1405 59.8275 80.3443 59.8275C79.0044 59.8275 77.9266 58.7789 77.9266 57.4196C77.9266 56.1282 78.9073 55.0019 80.286 55.0019C81.6551 55.0019 82.6455 56.1185 82.6455 57.4099C82.6455 57.5361 82.6358 57.6332 82.6261 57.7303ZM78.8782 56.9923H81.6939C81.5871 56.3515 81.024 55.8563 80.2958 55.8563C79.5772 55.8563 79.0432 56.3418 78.8782 56.9923ZM87.3787 59.4877V59.1576C86.9903 59.6139 86.4563 59.8275 85.8349 59.8275C84.4658 59.8275 83.3978 58.7692 83.3978 57.4196C83.3978 56.0505 84.4852 55.0019 85.8349 55.0019C86.4563 55.0019 86.9806 55.2252 87.3787 55.6815V55.0892H88.3108V59.3226C88.3108 61.6335 86.9029 62.1579 85.864 62.1579C84.9319 62.1579 84.1842 61.7306 83.7473 61.0315L84.6115 60.6626C84.8833 61.051 85.2717 61.284 85.8543 61.284C86.6505 61.284 87.3787 60.8471 87.3787 59.4877ZM87.3593 57.4196C87.3593 56.5845 86.7087 55.8854 85.8349 55.8854C84.9707 55.8854 84.3202 56.5651 84.3202 57.4196C84.3202 58.2837 84.9707 58.9537 85.8349 58.9537C86.7184 58.9537 87.3593 58.2546 87.3593 57.4196ZM91.1458 62.1579H90.2234L91.0681 59.7887L89.1845 55.0892H90.204L91.5245 58.5556L92.7673 55.0892H93.6994L91.1458 62.1579Z" fill="black"/>
<path d="M143.699 33.8252L167.934 58.0604" stroke="#F4DF88" stroke-width="1.296"/>
<path d="M144 34.1998L104.4 34.1998" stroke="#F4DF88" stroke-width="1.296"/>
<rect x="431.799" y="303.948" width="104.198" height="49.248" rx="1.296" transform="rotate(180 431.799 303.948)" fill="#64A70B"/>
<path d="M334.714 272.031H333.714V265.787H331.422V264.846H336.996V265.787H334.714V272.031ZM338.418 272.031H337.486V267.419H338.418V267.972C338.864 267.438 339.321 267.331 340.214 267.331V268.225C338.69 268.225 338.418 268.846 338.418 269.642V272.031ZM345.49 272.031H344.558V271.487C344.17 271.943 343.636 272.157 343.014 272.157C341.645 272.157 340.577 271.099 340.577 269.749C340.577 268.38 341.665 267.331 343.014 267.331C343.636 267.331 344.16 267.555 344.558 268.011V267.419H345.49V272.031ZM344.539 269.749C344.539 268.914 343.888 268.215 343.014 268.215C342.15 268.215 341.5 268.895 341.5 269.749C341.5 270.613 342.15 271.283 343.014 271.283C343.898 271.283 344.539 270.584 344.539 269.749ZM350.374 270.555L351.151 271.011C350.723 271.701 349.947 272.157 349.073 272.157C347.743 272.157 346.655 271.079 346.655 269.749C346.655 268.428 347.723 267.331 349.073 267.331C349.937 267.331 350.704 267.788 351.131 268.467L350.345 268.914C350.083 268.496 349.607 268.215 349.073 268.215C348.228 268.215 347.578 268.933 347.578 269.759C347.578 270.584 348.238 271.283 349.092 271.283C349.646 271.283 350.112 270.992 350.374 270.555ZM356.29 272.031H355.067L353.105 269.827V272.031H352.173V264.846H353.105V269.322L354.882 267.419H356.115L354.086 269.535L356.29 272.031ZM360.596 274.487H359.664V267.419H360.596V268.011C360.985 267.555 361.519 267.331 362.14 267.331C363.49 267.331 364.577 268.38 364.577 269.749C364.577 271.099 363.509 272.157 362.14 272.157C361.519 272.157 360.985 271.943 360.596 271.487V274.487ZM360.625 269.749C360.625 270.584 361.237 271.283 362.13 271.283C363.004 271.283 363.655 270.613 363.655 269.749C363.655 268.895 363.004 268.215 362.14 268.215C361.276 268.215 360.625 268.895 360.625 269.749ZM366.674 272.031H365.742V267.419H366.674V267.972C367.121 267.438 367.577 267.331 368.471 267.331V268.225C366.946 268.225 366.674 268.846 366.674 269.642V272.031ZM373.878 269.749C373.878 271.07 372.781 272.157 371.441 272.157C370.111 272.157 369.023 271.079 369.023 269.749C369.023 268.428 370.091 267.331 371.441 267.331C372.781 267.331 373.878 268.419 373.878 269.749ZM372.956 269.739C372.956 268.904 372.286 268.215 371.451 268.215C370.587 268.215 369.946 268.943 369.946 269.759C369.946 270.584 370.606 271.283 371.451 271.283C372.305 271.283 372.956 270.565 372.956 269.739ZM378.637 271.817V271.487C378.248 271.943 377.714 272.157 377.093 272.157C375.724 272.157 374.656 271.099 374.656 269.749C374.656 268.38 375.743 267.331 377.093 267.331C377.714 267.331 378.238 267.555 378.637 268.011V267.419H379.569V271.652C379.569 273.963 378.161 274.487 377.122 274.487C376.19 274.487 375.442 274.06 375.005 273.361L375.869 272.992C376.141 273.38 376.53 273.613 377.112 273.613C377.908 273.613 378.637 273.176 378.637 271.817ZM378.617 269.749C378.617 268.914 377.967 268.215 377.093 268.215C376.229 268.215 375.578 268.895 375.578 269.749C375.578 270.613 376.229 271.283 377.093 271.283C377.976 271.283 378.617 270.584 378.617 269.749ZM382.054 272.031H381.122V267.419H382.054V267.972C382.501 267.438 382.957 267.331 383.85 267.331V268.225C382.326 268.225 382.054 268.846 382.054 269.642V272.031ZM389.103 270.06H385.326C385.452 270.769 386.034 271.312 386.821 271.312C387.326 271.312 387.821 271.089 388.112 270.681L388.773 271.186C388.345 271.788 387.617 272.157 386.821 272.157C385.481 272.157 384.403 271.108 384.403 269.749C384.403 268.458 385.384 267.331 386.763 267.331C388.132 267.331 389.122 268.448 389.122 269.739C389.122 269.866 389.112 269.963 389.103 270.06ZM385.355 269.322H388.171C388.064 268.681 387.501 268.186 386.772 268.186C386.054 268.186 385.52 268.671 385.355 269.322ZM389.806 271.555L390.311 270.836C390.777 271.215 391.273 271.312 391.603 271.312C392.098 271.312 392.37 271.099 392.37 270.788C392.37 269.875 389.971 270.438 389.971 268.778C389.971 267.933 390.593 267.331 391.554 267.331C391.942 267.331 392.593 267.428 393.117 267.856L392.622 268.545C392.214 268.244 391.807 268.186 391.564 268.186C391.098 268.186 390.894 268.419 390.894 268.671C390.894 269.545 393.282 269.069 393.282 270.73C393.282 271.613 392.612 272.157 391.574 272.157C390.884 272.157 390.282 271.914 389.806 271.555ZM394.007 271.555L394.512 270.836C394.978 271.215 395.473 271.312 395.803 271.312C396.298 271.312 396.57 271.099 396.57 270.788C396.57 269.875 394.172 270.438 394.172 268.778C394.172 267.933 394.793 267.331 395.755 267.331C396.143 267.331 396.794 267.428 397.318 267.856L396.823 268.545C396.415 268.244 396.007 268.186 395.764 268.186C395.298 268.186 395.094 268.419 395.094 268.671C395.094 269.545 397.483 269.069 397.483 270.73C397.483 271.613 396.813 272.157 395.774 272.157C395.085 272.157 394.483 271.914 394.007 271.555ZM398.984 273.215V272.73C399.217 272.691 399.509 272.439 399.538 272.079C399.509 272.089 399.45 272.089 399.431 272.089C399.12 272.089 398.858 271.837 398.858 271.497C398.858 271.157 399.11 270.895 399.47 270.895C399.878 270.895 400.091 271.244 400.091 271.72C400.091 272.39 399.683 273.196 398.984 273.215ZM335.335 280.555L336.112 281.011C335.685 281.701 334.908 282.157 334.034 282.157C332.704 282.157 331.617 281.079 331.617 279.749C331.617 278.428 332.685 277.331 334.034 277.331C334.898 277.331 335.665 277.788 336.093 278.467L335.306 278.914C335.044 278.496 334.568 278.215 334.034 278.215C333.189 278.215 332.539 278.933 332.539 279.759C332.539 280.584 333.199 281.283 334.054 281.283C334.607 281.283 335.073 280.992 335.335 280.555ZM338.873 281.273V282.089C338.717 282.128 338.552 282.157 338.358 282.157C337.601 282.157 337.135 281.701 337.135 280.856V274.846H338.067V280.565C338.067 281.06 338.183 281.283 338.64 281.283C338.698 281.283 338.785 281.283 338.873 281.273ZM344.276 282.031H343.344V281.487C342.956 281.943 342.422 282.157 341.8 282.157C340.431 282.157 339.363 281.099 339.363 279.749C339.363 278.38 340.451 277.331 341.8 277.331C342.422 277.331 342.946 277.555 343.344 278.011V277.419H344.276V282.031ZM343.325 279.749C343.325 278.914 342.674 278.215 341.8 278.215C340.936 278.215 340.286 278.895 340.286 279.749C340.286 280.613 340.936 281.283 341.8 281.283C342.684 281.283 343.325 280.584 343.325 279.749ZM346.762 282.031H345.83V277.419H346.762V277.972C347.209 277.438 347.665 277.331 348.558 277.331V278.225C347.034 278.225 346.762 278.846 346.762 279.642V282.031ZM350.441 282.031H349.499V277.419H350.441V282.031ZM349.975 276.506C349.635 276.506 349.373 276.244 349.373 275.904C349.373 275.564 349.635 275.302 349.975 275.302C350.315 275.302 350.567 275.564 350.567 275.904C350.567 276.244 350.315 276.506 349.975 276.506ZM353.003 282.031H352.061V278.302H351.381V277.419H352.061V276.351C352.061 275.467 352.469 274.846 353.479 274.846C353.731 274.846 354.022 274.884 354.246 274.952V275.787C354.149 275.758 353.886 275.72 353.692 275.72C353.197 275.72 353.003 275.953 353.003 276.661V277.419H354.149V278.302H353.003V282.031ZM356.499 284.487H355.576L356.421 282.118L354.537 277.419H355.557L356.877 280.885L358.12 277.419H359.052L356.499 284.487ZM366.858 280.06H363.081C363.207 280.769 363.789 281.312 364.576 281.312C365.081 281.312 365.576 281.089 365.867 280.681L366.528 281.186C366.1 281.788 365.372 282.157 364.576 282.157C363.236 282.157 362.158 281.108 362.158 279.749C362.158 278.458 363.139 277.331 364.518 277.331C365.887 277.331 366.877 278.448 366.877 279.739C366.877 279.866 366.867 279.963 366.858 280.06ZM363.11 279.322H365.926C365.819 278.681 365.256 278.186 364.527 278.186C363.809 278.186 363.275 278.671 363.11 279.322ZM371.574 282.031H370.535L369.409 280.361L368.282 282.031H367.243L368.884 279.603L367.389 277.419H368.438L369.409 278.846L370.38 277.419H371.428L369.933 279.603L371.574 282.031ZM373.378 284.487H372.446V277.419H373.378V278.011C373.766 277.555 374.3 277.331 374.922 277.331C376.272 277.331 377.359 278.38 377.359 279.749C377.359 281.099 376.291 282.157 374.922 282.157C374.3 282.157 373.766 281.943 373.378 281.487V284.487ZM373.407 279.749C373.407 280.584 374.019 281.283 374.912 281.283C375.786 281.283 376.437 280.613 376.437 279.749C376.437 278.895 375.786 278.215 374.922 278.215C374.058 278.215 373.407 278.895 373.407 279.749ZM382.835 280.06H379.058C379.184 280.769 379.767 281.312 380.553 281.312C381.058 281.312 381.553 281.089 381.845 280.681L382.505 281.186C382.078 281.788 381.349 282.157 380.553 282.157C379.213 282.157 378.136 281.108 378.136 279.749C378.136 278.458 379.116 277.331 380.495 277.331C381.864 277.331 382.854 278.448 382.854 279.739C382.854 279.866 382.845 279.963 382.835 280.06ZM379.087 279.322H381.903C381.796 278.681 381.233 278.186 380.505 278.186C379.786 278.186 379.252 278.671 379.087 279.322ZM387.325 280.555L388.102 281.011C387.675 281.701 386.898 282.157 386.024 282.157C384.694 282.157 383.607 281.079 383.607 279.749C383.607 278.428 384.675 277.331 386.024 277.331C386.889 277.331 387.656 277.788 388.083 278.467L387.296 278.914C387.034 278.496 386.558 278.215 386.024 278.215C385.18 278.215 384.529 278.933 384.529 279.759C384.529 280.584 385.189 281.283 386.044 281.283C386.597 281.283 387.063 280.992 387.325 280.555ZM391.31 281.215V282.05C391.212 282.089 390.921 282.157 390.581 282.157C389.445 282.157 389.241 281.409 389.241 280.613V278.302H388.513V277.419H389.241V275.855H390.183V277.419H391.436V278.302H390.183V280.506C390.183 281.031 390.3 281.283 390.795 281.283C390.96 281.283 391.212 281.254 391.31 281.215ZM396.902 282.031H395.97V281.487C395.581 281.943 395.047 282.157 394.426 282.157C393.057 282.157 391.989 281.099 391.989 279.749C391.989 278.38 393.076 277.331 394.426 277.331C395.047 277.331 395.572 277.555 395.97 278.011V277.419H396.902V282.031ZM395.95 279.749C395.95 278.914 395.3 278.215 394.426 278.215C393.562 278.215 392.911 278.895 392.911 279.749C392.911 280.613 393.562 281.283 394.426 281.283C395.31 281.283 395.95 280.584 395.95 279.749ZM400.64 281.215V282.05C400.543 282.089 400.252 282.157 399.912 282.157C398.776 282.157 398.572 281.409 398.572 280.613V278.302H397.844V277.419H398.572V275.855H399.514V277.419H400.766V278.302H399.514V280.506C399.514 281.031 399.63 281.283 400.125 281.283C400.29 281.283 400.543 281.254 400.64 281.215ZM402.792 282.031H401.85V277.419H402.792V282.031ZM402.326 276.506C401.986 276.506 401.724 276.244 401.724 275.904C401.724 275.564 401.986 275.302 402.326 275.302C402.665 275.302 402.918 275.564 402.918 275.904C402.918 276.244 402.665 276.506 402.326 276.506ZM408.81 279.749C408.81 281.07 407.713 282.157 406.373 282.157C405.043 282.157 403.955 281.079 403.955 279.749C403.955 278.428 405.023 277.331 406.373 277.331C407.713 277.331 408.81 278.419 408.81 279.749ZM407.888 279.739C407.888 278.904 407.218 278.215 406.383 278.215C405.518 278.215 404.878 278.943 404.878 279.759C404.878 280.584 405.538 281.283 406.383 281.283C407.237 281.283 407.888 280.565 407.888 279.739ZM414.151 282.031H413.209V279.613C413.209 278.691 412.85 278.215 412.083 278.215C411.287 278.215 410.908 278.729 410.908 279.681V282.031H409.976V277.419H410.908V277.914C411.219 277.564 411.597 277.331 412.248 277.331C413.345 277.331 414.151 277.972 414.151 279.419V282.031ZM415.152 281.555L415.657 280.836C416.123 281.215 416.618 281.312 416.948 281.312C417.443 281.312 417.715 281.099 417.715 280.788C417.715 279.875 415.317 280.438 415.317 278.778C415.317 277.933 415.938 277.331 416.9 277.331C417.288 277.331 417.939 277.428 418.463 277.856L417.968 278.545C417.56 278.244 417.152 278.186 416.909 278.186C416.443 278.186 416.239 278.419 416.239 278.671C416.239 279.545 418.628 279.069 418.628 280.73C418.628 281.613 417.958 282.157 416.919 282.157C416.23 282.157 415.628 281.914 415.152 281.555ZM336.53 292.031H335.597V291.487C335.209 291.943 334.675 292.157 334.054 292.157C332.685 292.157 331.617 291.099 331.617 289.749C331.617 288.38 332.704 287.331 334.054 287.331C334.675 287.331 335.199 287.555 335.597 288.011V287.419H336.53V292.031ZM335.578 289.749C335.578 288.914 334.928 288.215 334.054 288.215C333.189 288.215 332.539 288.895 332.539 289.749C332.539 290.613 333.189 291.283 334.054 291.283C334.937 291.283 335.578 290.584 335.578 289.749ZM342.258 292.031H341.316V289.613C341.316 288.691 340.957 288.215 340.19 288.215C339.394 288.215 339.015 288.729 339.015 289.681V292.031H338.083V287.419H339.015V287.914C339.326 287.564 339.704 287.331 340.355 287.331C341.452 287.331 342.258 287.972 342.258 289.419V292.031ZM348.24 292.031H347.308V291.487C346.919 291.943 346.385 292.157 345.764 292.157C344.395 292.157 343.327 291.099 343.327 289.749C343.327 288.38 344.414 287.331 345.764 287.331C346.385 287.331 346.91 287.555 347.308 288.011V284.846H348.24V292.031ZM347.288 289.749C347.288 288.914 346.638 288.215 345.764 288.215C344.9 288.215 344.249 288.895 344.249 289.749C344.249 290.613 344.9 291.283 345.764 291.283C346.648 291.283 347.288 290.584 347.288 289.749ZM353.342 294.487H352.41V287.419H353.342V288.011C353.731 287.555 354.265 287.331 354.886 287.331C356.236 287.331 357.323 288.38 357.323 289.749C357.323 291.099 356.255 292.157 354.886 292.157C354.265 292.157 353.731 291.943 353.342 291.487V294.487ZM353.372 289.749C353.372 290.584 353.983 291.283 354.877 291.283C355.75 291.283 356.401 290.613 356.401 289.749C356.401 288.895 355.75 288.215 354.886 288.215C354.022 288.215 353.372 288.895 353.372 289.749ZM360.226 291.273V292.089C360.071 292.128 359.906 292.157 359.712 292.157C358.954 292.157 358.488 291.701 358.488 290.856V284.846H359.42V290.565C359.42 291.06 359.537 291.283 359.993 291.283C360.052 291.283 360.139 291.283 360.226 291.273ZM365.63 292.031H364.698V291.487C364.31 291.943 363.776 292.157 363.154 292.157C361.785 292.157 360.717 291.099 360.717 289.749C360.717 288.38 361.804 287.331 363.154 287.331C363.776 287.331 364.3 287.555 364.698 288.011V287.419H365.63V292.031ZM364.679 289.749C364.679 288.914 364.028 288.215 363.154 288.215C362.29 288.215 361.639 288.895 361.639 289.749C361.639 290.613 362.29 291.283 363.154 291.283C364.038 291.283 364.679 290.584 364.679 289.749ZM371.359 292.031H370.417V289.613C370.417 288.691 370.057 288.215 369.29 288.215C368.494 288.215 368.116 288.729 368.116 289.681V292.031H367.183V287.419H368.116V287.914C368.426 287.564 368.805 287.331 369.455 287.331C370.553 287.331 371.359 287.972 371.359 289.419V292.031ZM376.443 292.031H375.501V288.302H374.821V287.419H375.501V286.351C375.501 285.467 375.909 284.846 376.918 284.846C377.171 284.846 377.462 284.884 377.685 284.952V285.787C377.588 285.758 377.326 285.72 377.132 285.72C376.637 285.72 376.443 285.953 376.443 286.661V287.419H377.588V288.302H376.443V292.031ZM383.123 289.749C383.123 291.07 382.026 292.157 380.686 292.157C379.356 292.157 378.268 291.079 378.268 289.749C378.268 288.428 379.336 287.331 380.686 287.331C382.026 287.331 383.123 288.419 383.123 289.749ZM382.201 289.739C382.201 288.904 381.531 288.215 380.696 288.215C379.832 288.215 379.191 288.943 379.191 289.759C379.191 290.584 379.851 291.283 380.696 291.283C381.55 291.283 382.201 290.565 382.201 289.739ZM385.221 292.031H384.289V287.419H385.221V287.972C385.668 287.438 386.124 287.331 387.017 287.331V288.225C385.493 288.225 385.221 288.846 385.221 289.642V292.031ZM390.024 291.555L390.529 290.836C390.995 291.215 391.491 291.312 391.821 291.312C392.316 291.312 392.588 291.099 392.588 290.788C392.588 289.875 390.19 290.438 390.19 288.778C390.19 287.933 390.811 287.331 391.772 287.331C392.161 287.331 392.811 287.428 393.335 287.856L392.84 288.545C392.432 288.244 392.025 288.186 391.782 288.186C391.316 288.186 391.112 288.419 391.112 288.671C391.112 289.545 393.5 289.069 393.5 290.73C393.5 291.613 392.831 292.157 391.792 292.157C391.102 292.157 390.5 291.914 390.024 291.555ZM397.856 289.895V287.419H398.789V290.157C398.789 291.604 397.983 292.157 396.691 292.157C395.4 292.157 394.594 291.604 394.594 290.157V287.419H395.536V289.895C395.536 290.759 395.74 291.283 396.691 291.283C397.653 291.283 397.856 290.759 397.856 289.895ZM403.597 290.555L404.373 291.011C403.946 291.701 403.169 292.157 402.296 292.157C400.965 292.157 399.878 291.079 399.878 289.749C399.878 288.428 400.946 287.331 402.296 287.331C403.16 287.331 403.927 287.788 404.354 288.467L403.568 288.914C403.305 288.496 402.83 288.215 402.296 288.215C401.451 288.215 400.8 288.933 400.8 289.759C400.8 290.584 401.461 291.283 402.315 291.283C402.868 291.283 403.335 290.992 403.597 290.555ZM408.726 290.555L409.503 291.011C409.076 291.701 408.299 292.157 407.425 292.157C406.095 292.157 405.008 291.079 405.008 289.749C405.008 288.428 406.076 287.331 407.425 287.331C408.29 287.331 409.057 287.788 409.484 288.467L408.697 288.914C408.435 288.496 407.959 288.215 407.425 288.215C406.581 288.215 405.93 288.933 405.93 289.759C405.93 290.584 406.59 291.283 407.445 291.283C407.998 291.283 408.464 290.992 408.726 290.555ZM414.837 290.06H411.06C411.186 290.769 411.769 291.312 412.555 291.312C413.06 291.312 413.555 291.089 413.847 290.681L414.507 291.186C414.08 291.788 413.351 292.157 412.555 292.157C411.215 292.157 410.138 291.108 410.138 289.749C410.138 288.458 411.118 287.331 412.497 287.331C413.866 287.331 414.856 288.448 414.856 289.739C414.856 289.866 414.847 289.963 414.837 290.06ZM411.089 289.322H413.905C413.798 288.681 413.235 288.186 412.507 288.186C411.788 288.186 411.254 288.671 411.089 289.322ZM415.541 291.555L416.046 290.836C416.512 291.215 417.007 291.312 417.337 291.312C417.832 291.312 418.104 291.099 418.104 290.788C418.104 289.875 415.706 290.438 415.706 288.778C415.706 287.933 416.327 287.331 417.288 287.331C417.677 287.331 418.327 287.428 418.852 287.856L418.356 288.545C417.949 288.244 417.541 288.186 417.298 288.186C416.832 288.186 416.628 288.419 416.628 288.671C416.628 289.545 419.017 289.069 419.017 290.73C419.017 291.613 418.347 292.157 417.308 292.157C416.618 292.157 416.016 291.914 415.541 291.555ZM419.741 291.555L420.246 290.836C420.712 291.215 421.207 291.312 421.538 291.312C422.033 291.312 422.305 291.099 422.305 290.788C422.305 289.875 419.906 290.438 419.906 288.778C419.906 287.933 420.528 287.331 421.489 287.331C421.877 287.331 422.528 287.428 423.052 287.856L422.557 288.545C422.149 288.244 421.741 288.186 421.499 288.186C421.033 288.186 420.829 288.419 420.829 288.671C420.829 289.545 423.217 289.069 423.217 290.73C423.217 291.613 422.547 292.157 421.508 292.157C420.819 292.157 420.217 291.914 419.741 291.555Z" fill="black"/>
<path d="M266.3 293.932L240.898 268.531" stroke="#B0D979" stroke-width="1.296"/>
<path d="M266.4 293.4H327.6" stroke="#B0D979" stroke-width="1.296"/>
<defs>
<filter id="filter0_d_0_46" x="126.822" y="67.3974" width="182.529" height="182.614" filterUnits="userSpaceOnUse" color-interpolation-filters="sRGB">
<feFlood flood-opacity="0" result="BackgroundImageFix"/>
<feColorMatrix in="SourceAlpha" type="matrix" values="0 0 0 0 0 0 0 0 0 0 0 0 0 0 0 0 0 0 127 0" result="hardAlpha"/>
<feOffset/>
<feGaussianBlur stdDeviation="3.456"/>
<feComposite in2="hardAlpha" operator="out"/>
<feColorMatrix type="matrix" values="0 0 0 0 0 0 0 0 0 0 0 0 0 0 0 0 0 0 0.25 0"/>
<feBlend mode="normal" in2="BackgroundImageFix" result="effect1_dropShadow_0_46"/>
<feBlend mode="normal" in="SourceGraphic" in2="effect1_dropShadow_0_46" result="shape"/>
</filter>
</defs>
</svg>
