<svg width="118" height="93" viewBox="0 0 118 93" fill="none" xmlns="http://www.w3.org/2000/svg">
<path d="M2.76536 81.7081C7.17311 81.9052 11.5809 82.0037 15.9886 81.9948C16.1588 81.9948 16.1588 81.726 15.9886 81.726C11.5809 81.735 7.17311 81.6364 2.76536 81.4393C2.59514 81.4304 2.59514 81.6991 2.76536 81.7081V81.7081Z" fill="#E8E8E8"/>
<path d="M16.2571 75.0427C16.947 77.6318 17.592 80.2389 18.1833 82.8548C18.2191 83.0251 18.4789 82.9534 18.4431 82.7832C17.8428 80.1672 17.2068 77.5602 16.5169 74.9711C16.4721 74.8098 16.2123 74.8815 16.2571 75.0427V75.0427Z" fill="#E8E8E8"/>
<path d="M28.262 75.2398C28.0112 77.7035 27.7603 80.1761 27.5184 82.6398C27.5005 82.81 27.7693 82.81 27.7872 82.6398C28.038 80.1761 28.2889 77.7035 28.5308 75.2398C28.5397 75.0696 28.271 75.0696 28.262 75.2398V75.2398Z" fill="#E8E8E8"/>
<path d="M18.255 83.0967C19.8228 83.3745 21.4086 83.4999 23.0032 83.4551C24.5262 83.4103 26.1926 83.2938 27.6439 82.8101C27.8052 82.7563 27.7335 82.4965 27.5723 82.5502C26.1299 83.0251 24.5083 83.1415 23.0032 83.1863C21.4354 83.2311 19.8676 83.1057 18.3267 82.8369C18.1565 82.8011 18.0848 83.0609 18.255 83.0967V83.0967Z" fill="#E8E8E8"/>
<path d="M16.3649 75.1323C18.2194 75.6519 20.2351 75.6609 22.1523 75.6698C24.2129 75.6877 26.2734 75.5713 28.316 75.3383C28.4862 75.3204 28.4862 75.0517 28.316 75.0696C26.3272 75.3025 24.3293 75.41 22.3315 75.4011C20.3874 75.3921 18.3269 75.3921 16.4366 74.8725C16.2664 74.8277 16.1947 75.0875 16.3649 75.1323V75.1323Z" fill="#E8E8E8"/>
<path d="M15.5941 74.2095C15.612 74.3798 15.63 74.5589 15.6479 74.7291C15.6568 74.8367 15.6568 74.971 15.7016 75.0696C15.8091 75.3025 16.1675 75.2219 16.3735 75.2219C16.5438 75.2219 16.5438 74.9531 16.3735 74.9531C16.275 74.9531 16.1764 74.9531 16.0689 74.9531C15.9346 74.9531 15.9346 74.9262 15.9256 74.7919C15.9077 74.5948 15.8898 74.4066 15.8718 74.2095C15.845 74.0393 15.5762 74.0304 15.5941 74.2095V74.2095Z" fill="#E8E8E8"/>
<path d="M15.7736 74.3529C18.0133 74.6127 20.2619 74.7381 22.5196 74.756C23.6305 74.765 24.7414 74.7471 25.8612 74.7112C26.4167 74.6933 26.9721 74.6664 27.5276 74.6396C27.7874 74.6306 28.1457 74.541 28.4055 74.5948C28.7191 74.6485 28.7012 74.9173 28.737 75.195C28.7639 75.1413 28.7997 75.0875 28.8266 75.0337C28.7101 75.0337 28.5937 75.0337 28.4772 75.0337C28.307 74.9979 28.2353 75.2577 28.4055 75.2936C28.5847 75.3294 28.7191 75.3294 28.8893 75.2936C28.9699 75.2756 28.9968 75.195 28.9789 75.1323C28.9341 74.8187 28.9699 74.4245 28.5937 74.3439C28.3697 74.2902 28.092 74.3529 27.859 74.3618C27.5634 74.3798 27.2767 74.3887 26.9811 74.4066C25.7268 74.4604 24.4636 74.4962 23.2004 74.4962C20.7099 74.4962 18.2283 74.3798 15.7556 74.0841C15.6033 74.0662 15.6033 74.335 15.7736 74.3529V74.3529Z" fill="#E8E8E8"/>
<path d="M17.7177 80.866C18.4344 81.8066 19.2765 82.6219 20.2262 83.3207C20.3695 83.4192 20.5039 83.1863 20.3605 83.0878C19.4467 82.4158 18.6315 81.6275 17.9416 80.7226C17.8431 80.5882 17.6102 80.7226 17.7177 80.866V80.866Z" fill="#E8E8E8"/>
<path d="M17.1171 78.1335C18.5147 80.1492 20.2348 81.9141 22.2236 83.3565C22.367 83.4551 22.5013 83.2221 22.358 83.1236C20.4139 81.7081 18.7207 79.9701 17.35 77.9991C17.2515 77.8558 17.0185 77.9902 17.1171 78.1335V78.1335Z" fill="#E8E8E8"/>
<path d="M16.5712 75.7326C18.9901 78.5994 21.6777 81.2781 24.885 83.2669C25.0283 83.3565 25.1717 83.1236 25.0194 83.034C21.83 81.0631 19.1603 78.4023 16.7593 75.5444C16.6518 75.41 16.4637 75.6071 16.5712 75.7326V75.7326Z" fill="#E8E8E8"/>
<path d="M19.1421 75.5803C21.4445 78.2589 23.9978 80.8033 26.8467 82.8996C26.9901 82.9982 27.1245 82.7653 26.9811 82.6667C24.1501 80.5883 21.6148 78.0439 19.3303 75.3921C19.2138 75.2577 19.0257 75.4459 19.1421 75.5803V75.5803Z" fill="#E8E8E8"/>
<path d="M22.0809 75.7684C23.6398 77.6766 25.4315 79.3788 27.4204 80.8391C27.5637 80.9377 27.6981 80.7047 27.5548 80.6062C25.5838 79.1638 23.81 77.4706 22.2691 75.5803C22.1616 75.4459 21.9734 75.634 22.0809 75.7684V75.7684Z" fill="#E8E8E8"/>
<path d="M24.4815 75.6698C25.4849 76.7986 26.6316 77.7662 27.9038 78.5814C28.0471 78.671 28.1815 78.4381 28.0381 78.3485C26.7839 77.5512 25.6551 76.5836 24.6696 75.4817C24.5531 75.3473 24.365 75.5354 24.4815 75.6698V75.6698Z" fill="#E8E8E8"/>
<path d="M12.0825 60.9056C12.6648 62.133 13.059 63.4231 13.2829 64.7669C13.2919 64.8296 13.3546 64.8654 13.4084 64.8654C13.4621 64.8654 13.7488 64.8565 13.7667 64.9461C13.7757 64.9819 13.5965 65.188 13.5786 65.2328C13.5248 65.3761 13.5248 65.5463 13.5786 65.6897C13.6503 65.8599 13.7846 65.9763 13.9459 66.0391C13.9997 66.0659 14.0624 66.0749 14.1251 66.0839C14.1788 66.0928 14.2326 66.0928 14.2863 66.0839C14.358 66.0749 14.3491 66.0838 14.2684 66.1197C14.1788 66.2541 14.0534 66.272 14.0176 66.4691C13.9907 66.6572 14.0803 66.8364 14.152 66.9977C14.4476 67.6248 14.6178 68.2877 14.8597 68.9417C15.6929 71.1635 17.2876 73.0001 19.0883 74.5141C19.2227 74.6216 19.4108 74.4335 19.2764 74.326C17.4219 72.7672 15.7735 70.8589 14.9941 68.5207C14.8955 68.2161 14.806 67.9115 14.6984 67.6158C14.6089 67.356 14.4386 67.0872 14.358 66.8274C14.2684 66.6841 14.2774 66.5228 14.3938 66.3616C14.4297 66.3347 14.4655 66.3078 14.5014 66.2809C14.5282 66.2362 14.582 66.2093 14.6089 66.1555C14.6447 66.057 14.6178 65.9674 14.5461 65.8957C14.4297 65.7792 14.2505 65.842 14.0982 65.7972C13.5159 65.6269 13.9907 65.2328 14.0355 64.9461C14.0982 64.5698 13.6323 64.6146 13.3815 64.5967C13.4263 64.6325 13.4711 64.6594 13.5069 64.6952C13.2829 63.3335 12.8708 62.0165 12.2796 60.7713C12.2437 60.61 12.0108 60.7444 12.0825 60.9056V60.9056Z" fill="#E8E8E8"/>
<path d="M12.1812 60.8429C15.0929 61.6223 17.6461 63.6022 19.5006 65.9495C21.4716 68.44 22.6989 71.4323 23.3619 74.5231C23.3977 74.6933 23.6575 74.6216 23.6217 74.4514C22.9498 71.3158 21.6955 68.2877 19.6977 65.7613C17.8164 63.3872 15.2183 61.3804 12.2619 60.5921C12.0827 60.5383 12.011 60.7981 12.1812 60.8429V60.8429Z" fill="#E8E8E8"/>
<path d="M13.238 61.9538C16.8036 65.4209 19.554 69.6764 21.2472 74.3618C21.31 74.5231 21.5698 74.4514 21.507 74.2902C19.7959 69.5689 17.0276 65.2686 13.4262 61.7657C13.3097 61.6403 13.1126 61.8284 13.238 61.9538V61.9538Z" fill="#E8E8E8"/>
<path d="M14.8241 67.589C15.5767 67.6696 16.3113 67.8398 17.0101 68.1175C17.691 68.3863 18.4345 68.7267 18.8646 69.3449C18.9631 69.4882 19.196 69.3539 19.0975 69.2105C18.6675 68.5923 17.9956 68.243 17.3147 67.9563C16.5173 67.6158 15.6842 67.4098 14.8152 67.3202C14.6539 67.3023 14.6539 67.571 14.8241 67.589V67.589Z" fill="#E8E8E8"/>
<path d="M16.159 62.6795C16.1501 63.7098 16.3203 64.7221 16.6518 65.6986C16.7055 65.8599 16.9653 65.7882 16.9116 65.6269C16.5891 64.6773 16.4278 63.6918 16.4278 62.6795C16.4278 62.5093 16.159 62.5093 16.159 62.6795V62.6795Z" fill="#E8E8E8"/>
<path d="M21.077 67.5531C21.516 65.9136 22.9763 64.9371 24.2216 63.9337C25.5475 62.8676 26.8286 61.7299 28.047 60.5473C27.9753 60.5025 27.8947 60.4577 27.823 60.4129C27.4199 61.4969 27.3393 62.6347 27.3572 63.7814C27.3751 64.9282 27.6349 66.2451 27.2676 67.356C27.3124 67.3202 27.3572 67.2933 27.393 67.2575C27.1063 67.2754 26.8197 67.3023 26.533 67.3202C26.4434 67.3291 26.3538 67.4366 26.4165 67.5262C26.6226 67.804 26.8645 67.8936 26.8555 68.3057C26.8555 68.5923 26.7838 68.9238 26.6853 69.1926C26.5867 69.4703 26.3269 69.6584 26.2373 69.9183C26.1657 70.1512 26.3448 70.3483 26.3448 70.5812C26.3538 70.9664 26.0761 71.289 25.879 71.5936C25.6908 71.8802 25.5206 72.1759 25.3683 72.4805C25.0637 73.0807 24.8218 73.6989 24.6427 74.3439C24.5979 74.5141 24.8577 74.5858 24.9025 74.4156C25.1264 73.6183 25.449 72.8478 25.87 72.1311C26.1567 71.6473 26.6942 71.0829 26.6315 70.4737C26.6046 70.2318 26.4792 70.1601 26.5867 69.8824C26.5957 69.8735 26.7569 69.6584 26.7659 69.6405C26.9361 69.3628 27.0168 69.0492 27.0705 68.7357C27.1063 68.5028 27.178 68.2161 27.1422 67.9831C27.0884 67.6517 26.8376 67.6248 26.6494 67.3739C26.6136 67.4456 26.5688 67.5083 26.533 67.58C26.8197 67.5621 27.1063 67.5352 27.393 67.5173C27.4557 67.5083 27.5005 67.4814 27.5184 67.4187C27.8589 66.3795 27.6528 65.1701 27.617 64.095C27.5812 62.8676 27.626 61.6313 28.0649 60.4667C28.1187 60.3323 27.9306 60.2516 27.841 60.3323C26.5419 61.5955 25.1802 62.8049 23.7557 63.9337C22.5373 64.9013 21.2204 65.8868 20.7993 67.4635C20.7724 67.6517 21.0322 67.7233 21.077 67.5531V67.5531Z" fill="#E8E8E8"/>
<path d="M27.0528 61.7119C26.1748 63.2439 25.2789 64.7579 24.4368 66.3078C23.6484 67.7412 22.9496 69.2284 22.6181 70.832C22.5823 71.0023 22.8421 71.0739 22.8779 70.9037C23.2184 69.2642 23.944 67.7592 24.7503 66.2989C25.5746 64.8027 26.4436 63.3335 27.2857 61.8463C27.3663 61.703 27.1334 61.5596 27.0528 61.7119V61.7119Z" fill="#E8E8E8"/>
<path d="M24.4097 64.2025C24.5262 64.7132 24.58 65.2238 24.562 65.7434C24.5531 65.9136 24.8218 65.9136 24.8308 65.7434C24.8487 65.1969 24.795 64.6684 24.6695 64.1308C24.6248 63.9606 24.3739 64.0323 24.4097 64.2025V64.2025Z" fill="#E8E8E8"/>
<path d="M25.8699 62.4914C25.9685 62.8766 25.9864 63.2529 25.9416 63.6381C25.9237 63.8083 26.1924 63.8083 26.2104 63.6381C26.2641 63.226 26.2372 62.8228 26.1297 62.4197C26.0849 62.2584 25.8251 62.3301 25.8699 62.4914V62.4914Z" fill="#E8E8E8"/>
<path d="M25.9329 64.2742C26.4615 63.9606 27.008 63.6829 27.5724 63.4499C27.7336 63.3872 27.662 63.1274 27.5007 63.1901C26.9094 63.432 26.345 63.7187 25.7896 64.0412C25.6462 64.1308 25.7806 64.3637 25.9329 64.2742V64.2742Z" fill="#E8E8E8"/>
<path d="M23.6216 68.7715C23.962 68.4848 24.3024 68.2071 24.6518 67.9383C25.0192 67.6517 25.4223 67.2664 25.8702 67.0872C26.0315 67.0245 25.9598 66.7647 25.7986 66.8274C25.3954 66.9797 25.0639 67.2754 24.7235 67.5441C24.2845 67.8846 23.8545 68.225 23.4334 68.5834C23.2991 68.6909 23.4872 68.879 23.6216 68.7715V68.7715Z" fill="#E8E8E8"/>
<path d="M13.2468 63.7456C13.8739 63.8083 14.501 63.871 15.1282 63.9248C15.2984 63.9427 15.2984 63.6739 15.1282 63.656C14.501 63.5933 13.8739 63.5306 13.2468 63.4768C13.0766 63.4589 13.0766 63.7277 13.2468 63.7456V63.7456Z" fill="#E8E8E8"/>
<path d="M29.6866 81.6185C40.9121 81.6185 52.1286 81.6185 63.354 81.6185C66.5165 81.6185 69.6789 81.6185 72.8414 81.6185C73.0116 81.6185 73.0116 81.3497 72.8414 81.3497C61.616 81.3497 50.3995 81.3497 39.1741 81.3497C36.0116 81.3497 32.8491 81.3497 29.6866 81.3497C29.5075 81.3497 29.5075 81.6185 29.6866 81.6185V81.6185Z" fill="#E8E8E8"/>
<path d="M67.6543 59.6693C67.6543 60.9773 67.6543 62.2853 67.6543 63.5933C67.6543 63.7635 67.9231 63.7635 67.9231 63.5933C67.9231 62.2853 67.9231 60.9773 67.9231 59.6693C67.9231 59.4991 67.6543 59.4991 67.6543 59.6693V59.6693Z" fill="#E8E8E8"/>
<path d="M61.4728 64.1935C65.8179 64.1935 70.1629 64.1935 74.508 64.1935C74.6782 64.1935 74.6782 63.9248 74.508 63.9248C70.1629 63.9248 65.8179 63.9248 61.4728 63.9248C61.3026 63.9248 61.2937 64.1935 61.4728 64.1935V64.1935Z" fill="#E8E8E8"/>
<path d="M64.3931 64.2652C64.3931 65.394 64.3931 66.5228 64.3931 67.6606C64.3931 67.8308 64.6618 67.8308 64.6618 67.6606C64.6618 66.5318 64.6618 65.403 64.6618 64.2652C64.6618 64.086 64.3931 64.086 64.3931 64.2652V64.2652Z" fill="#E8E8E8"/>
<path d="M71.1123 64.1936C71.1123 65.188 71.1123 66.1914 71.1123 67.1858C71.1123 67.356 71.3811 67.356 71.3811 67.1858C71.3811 66.1914 71.3811 65.188 71.3811 64.1936C71.3811 64.0233 71.1123 64.0233 71.1123 64.1936V64.1936Z" fill="#E8E8E8"/>
<path d="M66.8572 67.9204C70.1809 67.9204 73.5046 67.9204 76.8284 67.9204C76.9986 67.9204 76.9986 67.6517 76.8284 67.6517C73.5046 67.6517 70.1809 67.6517 66.8572 67.6517C66.6869 67.6517 66.6869 67.9204 66.8572 67.9204V67.9204Z" fill="#E8E8E8"/>
<path d="M59.3406 84.2166C66.6779 84.2166 74.0152 84.2166 81.3525 84.2166C81.5227 84.2166 81.5227 83.9478 81.3525 83.9478C74.0152 83.9478 66.6779 83.9478 59.3406 83.9478C59.1703 83.9478 59.1703 84.2166 59.3406 84.2166V84.2166Z" fill="#E8E8E8"/>
<path d="M89.6838 81.8962C96.8867 81.8962 104.099 81.8962 111.302 81.8962C113.326 81.8962 115.351 81.8962 117.376 81.8962C117.546 81.8962 117.546 81.6275 117.376 81.6275C110.173 81.6275 102.961 81.6275 95.7579 81.6275C93.7332 81.6275 91.7085 81.6275 89.6838 81.6275C89.5136 81.6275 89.5136 81.8962 89.6838 81.8962V81.8962Z" fill="#E8E8E8"/>
<path d="M0.373269 86.4832C7.75536 86.4832 15.1464 86.4832 22.5285 86.4832C22.6987 86.4832 22.6987 86.2144 22.5285 86.2144C15.1464 86.2144 7.75536 86.2144 0.373269 86.2144C0.203051 86.2144 0.203051 86.4832 0.373269 86.4832V86.4832Z" fill="#E8E8E8"/>
<path d="M15.2628 89.1708C21.2921 89.1708 27.3214 89.1708 33.3507 89.1708C33.5209 89.1708 33.5209 88.9021 33.3507 88.9021C27.3214 88.9021 21.2921 88.9021 15.2628 88.9021C15.0836 88.9021 15.0836 89.1708 15.2628 89.1708V89.1708Z" fill="#E8E8E8"/>
<path d="M106.921 12.5726C106.921 10.0731 106.921 7.58254 106.921 5.08302C106.921 4.9128 106.652 4.9128 106.652 5.08302C106.652 7.58254 106.652 10.0731 106.652 12.5726C106.652 12.7428 106.921 12.7428 106.921 12.5726V12.5726Z" fill="#E8E8E8"/>
<path d="M106.876 5.02926C110.11 5.02926 113.344 5.02926 116.578 5.02926C116.748 5.02926 116.748 4.7605 116.578 4.7605C113.344 4.7605 110.11 4.7605 106.876 4.7605C106.705 4.7605 106.705 5.02926 106.876 5.02926V5.02926Z" fill="#E8E8E8"/>
<path d="M116.444 4.91282C116.426 7.44818 116.408 9.98353 116.381 12.5189C116.381 12.6891 116.65 12.6891 116.65 12.5189C116.668 9.98353 116.686 7.44818 116.713 4.91282C116.713 4.7426 116.444 4.7426 116.444 4.91282V4.91282Z" fill="#E8E8E8"/>
<path d="M106.921 12.707C110.11 12.707 113.3 12.707 116.489 12.707C116.659 12.707 116.659 12.4383 116.489 12.4383C113.3 12.4383 110.11 12.4383 106.921 12.4383C106.751 12.4383 106.751 12.707 106.921 12.707V12.707Z" fill="#E8E8E8"/>
<path d="M107.181 5.60264C107.181 7.70797 107.181 9.80434 107.181 11.9097C107.181 12.0799 107.449 12.0799 107.449 11.9097C107.449 9.80434 107.449 7.70797 107.449 5.60264C107.449 5.43242 107.181 5.43242 107.181 5.60264V5.60264Z" fill="#E8E8E8"/>
<path d="M107.378 5.73703C110.209 5.73703 113.031 5.73703 115.862 5.73703C116.032 5.73703 116.032 5.46826 115.862 5.46826C113.031 5.46826 110.209 5.46826 107.378 5.46826C107.199 5.46826 107.199 5.73703 107.378 5.73703V5.73703Z" fill="#E8E8E8"/>
<path d="M115.718 5.66535C115.709 7.72589 115.7 9.78643 115.691 11.8559C115.691 12.0261 115.96 12.0261 115.96 11.8559C115.969 9.79538 115.978 7.73485 115.987 5.66535C115.987 5.49513 115.718 5.49513 115.718 5.66535V5.66535Z" fill="#E8E8E8"/>
<path d="M107.432 12.0799C110.218 12.0799 113.004 12.0799 115.79 12.0799C115.961 12.0799 115.961 11.8111 115.79 11.8111C113.004 11.8111 110.218 11.8111 107.432 11.8111C107.262 11.8111 107.262 12.0799 107.432 12.0799V12.0799Z" fill="#E8E8E8"/>
<path d="M107.377 10.2254C108.408 9.86707 109.492 10.1896 110.495 10.4852C111.516 10.7809 112.52 11.1392 113.496 11.5513C113.658 11.614 113.729 11.3542 113.568 11.2915C112.484 10.8346 111.373 10.4494 110.244 10.1358C109.286 9.87602 108.273 9.62518 107.306 9.96561C107.144 10.0194 107.216 10.2792 107.377 10.2254V10.2254Z" fill="#E8E8E8"/>
<path d="M110.782 10.53C112.475 10.4315 114.061 9.75061 115.736 9.56247C115.906 9.54455 115.906 9.27579 115.736 9.2937C114.061 9.48184 112.475 10.1538 110.782 10.2613C110.603 10.2792 110.603 10.5479 110.782 10.53V10.53Z" fill="#E8E8E8"/>
<path d="M113.99 7.25109C113.613 7.03607 113.954 6.32832 114.357 6.49854C114.572 6.58813 114.617 6.84794 114.5 7.03607C114.375 7.24213 114.115 7.27796 113.9 7.21525C113.73 7.17046 113.658 7.43026 113.828 7.47506C114.187 7.5736 114.59 7.4661 114.769 7.1167C114.93 6.80314 114.805 6.39104 114.464 6.24769C113.766 5.95205 113.192 7.1167 113.855 7.48402C113.999 7.56465 114.142 7.33172 113.99 7.25109V7.25109Z" fill="#E8E8E8"/>
<path d="M111.248 4.85011C111.257 4.6978 111.266 4.5455 111.311 4.40216C111.347 4.2857 111.436 4.00797 111.571 3.95422C111.813 3.86463 111.902 4.71572 111.92 4.87698C111.938 5.0472 112.207 5.0472 112.189 4.87698C112.162 4.56342 112.09 3.57795 111.589 3.64962C111.374 3.6765 111.221 3.91838 111.141 4.09756C111.033 4.33049 110.997 4.5903 110.989 4.84115C110.98 5.02032 111.248 5.02032 111.248 4.85011V4.85011Z" fill="#E8E8E8"/>
<path d="M112.753 46.6431C112.753 47.7182 112.753 48.8022 112.753 49.8773C112.753 50.0475 113.022 50.0475 113.022 49.8773C113.022 48.8022 113.022 47.7182 113.022 46.6431C113.022 46.4729 112.753 46.4729 112.753 46.6431V46.6431Z" fill="#E8E8E8"/>
<path d="M109.501 50.2715C111.938 50.2715 114.384 50.2715 116.821 50.2715C116.991 50.2715 116.991 50.0027 116.821 50.0027C114.384 50.0027 111.938 50.0027 109.501 50.0027C109.331 50.0027 109.331 50.2715 109.501 50.2715V50.2715Z" fill="#E8E8E8"/>
<path d="M110.531 50.3521C110.531 50.8628 110.531 51.3645 110.531 51.8751C110.531 52.0453 110.8 52.0453 110.8 51.8751C110.8 51.3645 110.8 50.8628 110.8 50.3521C110.8 50.1819 110.531 50.1819 110.531 50.3521V50.3521Z" fill="#E8E8E8"/>
<path d="M114.446 50.4327C114.446 51.033 114.446 51.6422 114.446 52.2424C114.446 52.4126 114.715 52.4126 114.715 52.2424C114.715 51.6422 114.715 51.033 114.715 50.4327C114.715 50.2535 114.446 50.2535 114.446 50.4327V50.4327Z" fill="#E8E8E8"/>
<path d="M112.547 52.5918C114.24 52.5918 115.934 52.5918 117.627 52.5918C117.797 52.5918 117.797 52.3231 117.627 52.3231C115.934 52.3231 114.24 52.3231 112.547 52.3231C112.377 52.3231 112.377 52.5918 112.547 52.5918V52.5918Z" fill="#E8E8E8"/>
<path d="M50.5608 78.7875C53.3828 76.8793 54.7983 75.9207 55.1656 75.8042C56.0615 75.5175 58.9642 74.5948 61.4995 76.1447C63.3182 77.2556 64.9935 79.6655 64.2947 81.2781C63.793 82.4248 62.261 82.7832 60.8724 83.1146C58.8208 83.5984 57.0649 83.3297 56.0794 83.0967C55.6942 83.473 55.076 83.9747 54.207 84.3062C52.7646 84.8616 51.0983 84.7631 51.0177 84.4316C50.9818 84.2614 51.3402 83.9299 53.0782 83.249C52.8721 83.0251 52.5675 82.7563 52.1375 82.5682C50.8654 81.9858 49.5932 82.5502 49.3513 82.6667C50.5966 83.3924 50.8654 83.7686 50.8027 83.9747C50.6414 84.4943 48.106 84.6645 47.4252 83.473C47.3535 83.3565 47.1564 82.9534 47.3177 82.1919C47.6402 80.7943 48.8048 79.979 50.5608 78.7875Z" fill="#161616"/>
<path d="M62.8523 80.7764C63.1389 80.1851 64.429 80.3284 64.9307 80.3822C65.5758 80.4539 66.1491 80.5166 66.6687 80.9735C67.0629 81.3139 67.6363 82.0575 67.4302 82.6577C67.2421 83.2311 66.5343 83.1863 65.1636 83.8582C64.9307 83.9747 62.691 85.0766 62.8433 85.8023C62.906 86.0979 63.3092 86.089 64.5903 86.6355C65.7012 87.1013 66.3552 87.388 66.9017 88.0151C67.1704 88.3287 67.708 88.9469 67.5646 89.574C67.2959 90.7297 64.8949 90.9268 64.8322 90.7476C64.7784 90.5953 66.4627 90.1742 66.4806 89.3858C66.4985 88.7856 65.5578 88.3018 64.9666 87.9883C63.2285 87.0834 62.0549 87.4059 61.598 86.5369C61.3382 86.0442 61.4816 85.5156 61.5084 85.4171C61.6428 84.9333 62.0191 84.5212 63.8557 83.5984C65.531 82.7563 66.2745 82.5592 66.2656 82.1829C66.2566 81.8335 65.6116 81.5468 65.2174 81.4483C64.1065 81.1527 63.2912 81.8514 62.915 81.4573C62.7537 81.2781 62.7627 80.9735 62.8523 80.7764Z" fill="#161616"/>
<path d="M47.5503 76.4403C48.1147 76.8613 48.6791 77.2824 49.2435 77.7035C50.0498 77.6228 50.8472 77.5512 51.6534 77.4705C52.1551 76.9868 52.6568 76.494 53.1585 76.0103C53.1944 76.3149 53.266 77.0047 53.2929 77.3362C53.6065 80.3195 53.6334 80.5793 53.4452 80.9197C52.8271 82.0216 50.7396 82.4696 49.5392 81.6991C48.9568 81.3229 48.7329 80.7584 48.3118 79.6744C47.8011 78.3664 47.622 77.2197 47.5503 76.4403Z" fill="#161616"/>
<path d="M49.8262 79.54C49.6918 79.8178 49.3961 79.988 49.0915 79.9342C49.0109 79.9163 48.9751 80.0507 49.0557 80.0597C49.423 80.1224 49.7903 79.9432 49.9426 79.6028C49.9785 79.5311 49.871 79.4594 49.8262 79.54V79.54Z" fill="white"/>
<path d="M51.0711 79.4504C51.3668 79.7371 51.7609 79.8625 52.1641 79.7998C52.2537 79.7909 52.2089 79.6565 52.1283 79.6744C51.7699 79.7282 51.4205 79.6117 51.1607 79.3609C51.098 79.2981 51.0084 79.3877 51.0711 79.4504V79.4504Z" fill="white"/>
<path d="M50.5966 80.3015V80.3015C50.5697 80.3015 50.5518 80.2926 50.5249 80.2926C50.5339 80.2836 50.5339 80.2657 50.5428 80.2568C50.5608 80.2747 50.5876 80.2926 50.6055 80.3105C50.6055 80.2926 50.5966 80.2836 50.5966 80.2657C50.5697 80.1851 50.4443 80.2209 50.4712 80.3015C50.516 80.4986 50.5876 80.8032 50.3457 80.9018C50.2651 80.9376 50.3009 81.0631 50.3816 81.0272C50.7041 80.8928 50.6683 80.5434 50.6055 80.2568C50.5608 80.2657 50.516 80.2836 50.4801 80.2926C50.4801 80.3105 50.4891 80.3195 50.4891 80.3374C50.498 80.3643 50.5249 80.3911 50.5518 80.3911C50.7847 80.3732 50.5966 80.0507 50.4891 80.2388C50.4443 80.3015 50.5518 80.3732 50.5966 80.3015V80.3015Z" fill="white"/>
<path d="M50.5071 80.3642C50.5519 80.5165 50.5609 80.6868 50.6594 80.8211C50.74 80.9287 50.8655 80.9824 50.9999 80.9555C51.0805 80.9376 51.0446 80.8122 50.964 80.8301C50.7132 80.8839 50.6773 80.4897 50.6325 80.3284C50.6146 80.2478 50.4892 80.2836 50.5071 80.3642V80.3642Z" fill="white"/>
<path d="M50.0768 80.4897C49.817 80.3732 49.5482 80.3195 49.2615 80.3374C49.1719 80.3464 49.1719 80.4807 49.2615 80.4718C49.5213 80.4539 49.7722 80.4987 50.0051 80.6062C50.0857 80.642 50.1574 80.5255 50.0768 80.4897V80.4897Z" fill="white"/>
<path d="M49.8439 80.6689C49.62 80.6868 49.4229 80.7764 49.2706 80.9287C49.2079 80.9914 49.3064 81.081 49.3691 81.0272C49.5035 80.9018 49.6648 80.8212 49.8529 80.8032C49.9246 80.7943 49.9246 80.6599 49.8439 80.6689V80.6689Z" fill="white"/>
<path d="M51.1254 80.427C51.3852 80.3284 51.645 80.2926 51.9227 80.3195C52.0123 80.3284 52.0123 80.194 51.9227 80.1851C51.636 80.1582 51.3583 80.203 51.0896 80.3015C51.0089 80.3284 51.0358 80.4628 51.1254 80.427V80.427Z" fill="white"/>
<path d="M51.3045 80.6688C51.5016 80.642 51.6897 80.6599 51.8779 80.7316C51.9585 80.7584 51.9943 80.633 51.9137 80.6061C51.7166 80.5345 51.5105 80.5165 51.3045 80.5434C51.2149 80.5434 51.2149 80.6868 51.3045 80.6688V80.6688Z" fill="white"/>
<path d="M49.1901 79.1459C49.3245 79.0652 49.4858 79.0652 49.6202 79.1459C49.6918 79.1906 49.7635 79.0742 49.6918 79.0294C49.5126 78.9308 49.3066 78.9308 49.1274 79.0294C49.0468 79.0742 49.1185 79.1906 49.1901 79.1459V79.1459Z" fill="white"/>
<path d="M51.0715 78.9667C51.2059 78.895 51.3582 78.8771 51.5194 78.895C51.6001 78.904 51.6448 78.7785 51.5553 78.7696C51.3671 78.7427 51.179 78.7696 51.0088 78.8592C50.9192 78.8861 50.9909 79.0025 51.0715 78.9667V78.9667Z" fill="white"/>
<path d="M48.9301 76.1536C49.2079 76.0371 49.4856 75.9207 49.7543 75.7952C49.7006 75.7594 49.6558 75.7236 49.602 75.6788C49.4945 76.0192 49.3333 76.3238 49.1183 76.6105C49.0645 76.6822 49.1541 76.7897 49.2347 76.7628C49.5393 76.6463 49.8439 76.5388 50.1485 76.4224C50.265 76.3776 50.2202 76.1805 50.0948 76.2253C49.7902 76.3417 49.4856 76.4492 49.181 76.5657C49.2168 76.6194 49.2526 76.6642 49.2974 76.718C49.5304 76.4224 49.6916 76.0998 49.8081 75.7415C49.835 75.6519 49.7364 75.5981 49.6558 75.625C49.3781 75.7415 49.1003 75.8579 48.8316 75.9834C48.7062 76.0371 48.8137 76.2073 48.9301 76.1536V76.1536Z" fill="#161616"/>
<path d="M49.3783 74.5231C49.5664 74.4156 49.7546 74.3439 49.9606 74.2991C49.9248 74.2454 49.889 74.2006 49.8442 74.1468C49.7635 74.326 49.665 74.5052 49.5485 74.6664C49.5037 74.7381 49.5664 74.8098 49.6381 74.8187C49.88 74.8366 50.104 74.7739 50.2921 74.6306C50.3907 74.55 50.2921 74.3797 50.1936 74.4604C50.0323 74.5858 49.8531 74.6395 49.6471 74.6216C49.6739 74.6754 49.7008 74.7202 49.7367 74.7739C49.8531 74.6037 49.9517 74.4335 50.0323 74.2543C50.0681 74.1737 50.0054 74.0841 49.9158 74.102C49.6919 74.1468 49.4769 74.2274 49.2798 74.3439C49.1633 74.4156 49.2618 74.5858 49.3783 74.5231V74.5231Z" fill="#161616"/>
<path d="M50.8567 76.6911C50.561 76.3955 51.0717 76.2253 51.1254 75.9655C51.1792 75.6609 50.8208 75.3742 51.224 75.1412C51.3405 75.0785 51.2329 74.8993 51.1254 74.971C50.9821 75.0516 50.8656 75.1771 50.8298 75.3473C50.776 75.634 51.0269 75.8042 50.8119 76.064C50.7133 76.1894 50.5969 76.2253 50.561 76.3955C50.5252 76.5657 50.5969 76.709 50.7133 76.8345C50.8119 76.9241 50.9552 76.7807 50.8567 76.6911V76.6911Z" fill="#161616"/>
<path d="M75.5916 51.1136C53.1317 52.7352 30.6719 54.3478 8.22099 55.9693C7.61179 39.6821 7.00259 23.3949 6.40234 7.10774C28.9607 6.80314 51.5191 6.49854 74.0775 6.19394C74.5792 21.1642 75.0809 36.1344 75.5916 51.1136Z" fill="white" stroke="#161616" stroke-width="1.5"/>
<path d="M25.4851 15.0363C29.8391 15.0363 34.202 15.0363 38.556 15.0363C38.7263 15.0363 38.7263 14.7675 38.556 14.7675C34.202 14.7675 29.8391 14.7675 25.4851 14.7675C25.3149 14.7675 25.3149 15.0363 25.4851 15.0363V15.0363Z" fill="#161616"/>
<path d="M30.3766 16.1383C34.865 16.1383 39.3533 16.1383 43.8417 16.1383C44.0119 16.1383 44.0119 15.8695 43.8417 15.8695C39.3533 15.8695 34.865 15.8695 30.3766 15.8695C30.1974 15.8695 30.1974 16.1383 30.3766 16.1383V16.1383Z" fill="#161616"/>
<path d="M9.1262 42.4235C9.28745 46.1683 9.44871 49.9221 9.60997 53.6669C9.61893 53.8371 9.8877 53.8371 9.87874 53.6669C9.71748 49.9221 9.55622 46.1683 9.39496 42.4235C9.386 42.2533 9.11724 42.2533 9.1262 42.4235V42.4235Z" fill="#161616"/>
<path d="M28.8625 40.2376C29.2478 40.2376 29.633 40.2376 30.0272 40.2376C30.1974 40.2376 30.1974 39.9688 30.0272 39.9688C29.6419 39.9688 29.2567 39.9688 28.8625 39.9688C28.6923 39.9688 28.6923 40.2376 28.8625 40.2376V40.2376Z" fill="#161616"/>
<path d="M31.0393 40.2376C32.0337 40.2376 33.0192 40.2376 34.0136 40.2376C34.1838 40.2376 34.1838 39.9688 34.0136 39.9688C33.0192 39.9688 32.0337 39.9688 31.0393 39.9688C30.8691 39.9688 30.8691 40.2376 31.0393 40.2376V40.2376Z" fill="#161616"/>
<path d="M36.2624 40.0942C37.445 40.0942 38.6276 40.0942 39.8191 40.0942C39.9893 40.0942 39.9893 39.8255 39.8191 39.8255C38.6365 39.8255 37.454 39.8255 36.2624 39.8255C36.0922 39.8255 36.0922 40.0942 36.2624 40.0942V40.0942Z" fill="#161616"/>
<path d="M30.4664 42.1189C31.9177 42.1189 33.3691 42.1189 34.8204 42.1189C34.9906 42.1189 34.9906 41.8502 34.8204 41.8502C33.3691 41.8502 31.9177 41.8502 30.4664 41.8502C30.2872 41.8502 30.2872 42.1189 30.4664 42.1189V42.1189Z" fill="#161616"/>
<path d="M32.5627 41.1066C34.2559 41.1066 35.9492 41.1066 37.6424 41.1066C37.8126 41.1066 37.8126 40.8378 37.6424 40.8378C35.9492 40.8378 34.2559 40.8378 32.5627 40.8378C32.3925 40.8378 32.3925 41.1066 32.5627 41.1066V41.1066Z" fill="#161616"/>
<path d="M41.5569 50.6836C44.4058 50.6836 47.2637 50.6836 50.1126 50.6836C50.2828 50.6836 50.2828 50.4148 50.1126 50.4148C47.2637 50.4148 44.4058 50.4148 41.5569 50.4148C41.3866 50.4148 41.3866 50.6836 41.5569 50.6836V50.6836Z" fill="#161616"/>
<path d="M48.5896 51.4093C50.0857 51.4093 51.5908 51.4093 53.0869 51.4093C53.2571 51.4093 53.2571 51.1405 53.0869 51.1405C51.5908 51.1405 50.0857 51.1405 48.5896 51.1405C48.4194 51.1405 48.4194 51.4093 48.5896 51.4093V51.4093Z" fill="#161616"/>
<path d="M52.5051 50.3163C53.9833 50.3163 55.4526 50.3163 56.9308 50.3163C57.101 50.3163 57.101 50.0475 56.9308 50.0475C55.4526 50.0475 53.9833 50.0475 52.5051 50.0475C52.3349 50.0475 52.3349 50.3163 52.5051 50.3163V50.3163Z" fill="#161616"/>
<path d="M60.0486 26.0288C62.781 26.0288 65.5135 26.0288 68.2459 26.0288C68.4161 26.0288 68.4161 25.7601 68.2459 25.7601C65.5135 25.7601 62.781 25.7601 60.0486 25.7601C59.8783 25.7601 59.8783 26.0288 60.0486 26.0288V26.0288Z" fill="#161616"/>
<path d="M57.5128 26.4589C58.3818 26.4589 59.2508 26.4589 60.1198 26.4589C60.29 26.4589 60.29 26.1901 60.1198 26.1901C59.2508 26.1901 58.3818 26.1901 57.5128 26.1901C57.3336 26.1901 57.3336 26.4589 57.5128 26.4589V26.4589Z" fill="#161616"/>
<path d="M58.0149 27.1845C60.9355 27.1845 63.865 27.1845 66.7856 27.1845C66.9558 27.1845 66.9558 26.9157 66.7856 26.9157C63.865 26.9157 60.9355 26.9157 58.0149 26.9157C57.8447 26.9157 57.8447 27.1845 58.0149 27.1845V27.1845Z" fill="#161616"/>
<path d="M68.8277 26.5305C69.3832 26.5305 69.9386 26.5305 70.4941 26.5305C70.6643 26.5305 70.6643 26.2618 70.4941 26.2618C69.9386 26.2618 69.3832 26.2618 68.8277 26.2618C68.6486 26.2618 68.6486 26.5305 68.8277 26.5305V26.5305Z" fill="#161616"/>
<path d="M66.6505 37.4783C67.4747 37.4783 68.29 37.4783 69.1142 37.4783C69.2844 37.4783 69.2844 37.2095 69.1142 37.2095C68.29 37.2095 67.4747 37.2095 66.6505 37.2095C66.4713 37.2095 66.4713 37.4783 66.6505 37.4783V37.4783Z" fill="#161616"/>
<path d="M65.0563 38.2039C65.9521 38.2039 66.848 38.2039 67.735 38.2039C67.9052 38.2039 67.9052 37.9352 67.735 37.9352C66.8391 37.9352 65.9432 37.9352 65.0563 37.9352C64.8771 37.9352 64.8771 38.2039 65.0563 38.2039V38.2039Z" fill="#161616"/>
<path d="M66.3552 38.9296C68.1201 38.9296 69.885 38.9296 71.6499 38.9296C71.8201 38.9296 71.8201 38.6608 71.6499 38.6608C69.885 38.6608 68.1201 38.6608 66.3552 38.6608C66.185 38.6608 66.185 38.9296 66.3552 38.9296V38.9296Z" fill="#161616"/>
<path d="M69.6969 38.0605C70.2255 38.0605 70.763 38.0605 71.2916 38.0605C71.4618 38.0605 71.4618 37.7918 71.2916 37.7918C70.763 37.7918 70.2255 37.7918 69.6969 37.7918C69.5177 37.7918 69.5177 38.0605 69.6969 38.0605V38.0605Z" fill="#161616"/>
<path d="M32.7951 26.8889C34.0494 26.8889 35.2947 26.8889 36.5489 26.8889C36.7191 26.8889 36.7191 26.6201 36.5489 26.6201C35.2947 26.6201 34.0494 26.6201 32.7951 26.6201C32.6249 26.6201 32.6249 26.8889 32.7951 26.8889V26.8889Z" fill="#161616"/>
<path d="M35.528 27.6593C37.3735 27.6593 39.228 27.6593 41.0735 27.6593C41.2438 27.6593 41.2438 27.3906 41.0735 27.3906C39.228 27.3906 37.3735 27.3906 35.528 27.3906C35.3578 27.3906 35.3488 27.6593 35.528 27.6593V27.6593Z" fill="#161616"/>
<path d="M40.3923 26.6291C41.4405 26.6291 42.4976 26.6291 43.5458 26.6291C43.716 26.6291 43.716 26.3603 43.5458 26.3603C42.4976 26.3603 41.4405 26.3603 40.3923 26.3603C40.2221 26.3603 40.2221 26.6291 40.3923 26.6291V26.6291Z" fill="#161616"/>
<path d="M8.32861 12.3307C8.52571 19.1305 8.7228 25.9392 8.9199 32.739C8.97365 34.6741 9.0274 36.6003 9.09012 38.5354C9.09907 38.7056 9.36784 38.7056 9.35888 38.5354C9.16179 31.7356 8.96469 24.9269 8.7676 18.1271C8.71384 16.192 8.66009 14.2658 8.59738 12.3307C8.59738 12.1605 8.32861 12.1605 8.32861 12.3307V12.3307Z" fill="#161616"/>
<path d="M73.4507 34.5577C73.5851 39.055 73.7194 43.5434 73.8538 48.0407C73.8628 48.2109 74.1316 48.2109 74.1226 48.0407C73.9882 43.5434 73.8538 39.055 73.7194 34.5577C73.7194 34.3874 73.4507 34.3874 73.4507 34.5577V34.5577Z" fill="#161616"/>
<path d="M54.897 32.4971C54.9507 33.0436 55.0045 33.5991 55.0493 34.1456C55.5689 34.0112 56.0795 33.8678 56.5992 33.7335C56.5275 33.187 56.4648 32.6315 56.3931 32.085C55.8914 32.2194 55.3987 32.3627 54.897 32.4971Z" fill="#EC615B"/>
<path d="M54.583 36.6809C55.1205 36.6092 55.6491 36.5465 56.1866 36.4749C56.2583 37.1288 56.321 37.7828 56.3927 38.4368C55.9089 38.4548 55.4251 38.4727 54.9503 38.4906C54.8249 37.8814 54.7084 37.2812 54.583 36.6809Z" fill="#EC615B"/>
<path d="M56.5449 40.6497C56.7151 41.2141 56.8854 41.7874 57.0645 42.3518C57.5483 42.1279 58.0321 41.9039 58.5069 41.6799C58.3546 41.1782 58.1934 40.6855 58.0411 40.1838C57.5483 40.3451 57.0466 40.4974 56.5449 40.6497Z" fill="#EC615B"/>
<path d="M21.1309 45.9891C21.2473 47.7272 21.3638 49.4652 21.4803 51.1942C24.5263 50.9971 27.5723 50.809 30.6183 50.6119C30.672 49.0531 30.7347 47.4853 30.7885 45.9264C27.5723 45.9533 24.3471 45.9712 21.1309 45.9891Z" fill="#5222D0"/>
<ellipse cx="58.9998" cy="10.1" rx="0.636078" ry="0.528572" fill="#5222D0"/>
<ellipse cx="15.7737" cy="14.239" rx="0.528572" ry="0.349395" fill="#EC615B"/>
<ellipse cx="24.186" cy="24.237" rx="0.412107" ry="0.483778" fill="#EC615B"/>
<path opacity="0.21" d="M20.4053 12.6532C20.5665 12.6264 20.8801 14.1225 21.6506 16.837C22.6629 20.4116 23.6663 23.2964 24.392 25.2673C23.29 25.9482 20.8263 27.2472 17.4668 27.292C15.0927 27.3189 13.2203 26.7097 12.1094 26.2438C14.2864 26.4857 16.0423 26.423 17.2697 26.3065C19.2137 26.1274 18.8733 25.9213 20.3426 25.8496C20.9518 25.8228 21.7491 25.8228 22.5644 25.33C22.86 25.1508 23.075 24.9538 23.2184 24.8104C22.645 23.6278 21.9104 21.8898 21.3191 19.7128C20.3784 16.1741 20.1723 12.698 20.4053 12.6532Z" fill="#6D6C6C"/>
<path opacity="0.25" d="M28.8 22.3736C28.9433 23.5114 29.2031 24.7835 29.6331 26.1453C30.8605 30.0155 32.93 32.7748 34.4888 34.477C33.5571 35.1668 32.4014 35.8835 31.0128 36.4838C26.8021 38.3024 22.8692 38.0337 20.7639 37.7112C20.6832 37.2363 20.6026 36.7615 20.522 36.2867C21.4179 36.3136 22.3675 36.2957 23.3619 36.2419C26.9096 36.0179 29.9556 35.2206 32.3835 34.3337C31.613 33.0257 31.0576 31.8969 30.6724 31.0458C29.7406 29.0121 29.0508 27.4801 28.8089 25.4106C28.6566 24.1474 28.7193 23.0813 28.8 22.3736Z" fill="#6D6C6C"/>
<path opacity="0.14" d="M57.2796 28.3044C57.3692 30.347 57.5842 32.0402 57.7723 33.2586C58.2113 36.0538 58.5338 37.9889 59.6806 40.1659C60.3973 41.5187 61.2036 42.5131 61.7859 43.1582C60.7736 44.0272 59.4118 45.0126 57.6648 45.801C53.275 47.7988 49.1539 47.3957 47.2278 47.0732C47.1292 46.6342 47.0307 46.1952 46.9321 45.7473C47.174 45.7652 47.5503 45.7831 48.0072 45.7921C49.5302 45.8279 52.7016 45.8817 56.3389 44.6632C57.3602 44.3228 58.7936 43.7494 60.4062 42.7998C59.7702 41.9487 59.143 40.9364 58.5966 39.7628C56.4375 35.131 56.8675 30.6337 57.2796 28.3044Z" fill="#6D6C6C"/>
<path opacity="0.18" d="M64.1424 8.20966C64.3215 9.04283 64.5813 10.315 64.8411 11.9007C65.3249 14.9646 65.2891 16.0755 65.8535 17.8852C66.1491 18.8259 66.6777 20.1608 67.6721 21.6838C66.839 22.3646 65.7997 23.0724 64.5186 23.6637C60.3259 25.6077 56.3123 25.0613 54.4668 24.676C54.4847 24.3177 54.5026 23.9593 54.5205 23.6099C54.7535 23.6726 55.1029 23.7533 55.5329 23.8249C56.0973 23.9145 58.1847 24.2191 62.1087 23.2337C63.1927 22.9649 64.653 22.5349 66.3283 21.845C66.0058 21.2717 65.531 20.3758 65.101 19.229C63.8467 15.9053 63.8557 13.0206 63.8736 11.5334C63.8826 10.7181 63.9363 9.58036 64.1424 8.20966Z" fill="#6D6C6C"/>
<path d="M10.5865 12.1426C9.69957 16.8371 10.5955 21.5852 11.4913 26.208C11.5272 26.3782 11.787 26.3066 11.7512 26.1363C10.8642 21.5673 9.9773 16.8639 10.8463 12.2143C10.8732 12.053 10.6134 11.9724 10.5865 12.1426V12.1426Z" fill="#161616"/>
<path d="M10.8372 12.1068C12.1183 12.9668 13.6682 13.1191 15.1822 13.0116C16.9113 12.8862 18.6224 12.5189 20.3335 12.2322C20.5038 12.2053 20.4321 11.9455 20.2619 11.9724C18.6224 12.2411 16.9829 12.5905 15.3255 12.7249C13.8115 12.8503 12.2616 12.7339 10.9715 11.8649C10.8282 11.7753 10.6938 12.0082 10.8372 12.1068V12.1068Z" fill="#161616"/>
<path d="M20.1545 12.4203C20.4054 16.7027 21.0504 21.0746 23.2184 24.8373C23.308 24.9896 23.541 24.8552 23.4514 24.7029C21.3102 20.976 20.6741 16.6489 20.4233 12.4203C20.4143 12.2501 20.1456 12.2501 20.1545 12.4203V12.4203Z" fill="#161616"/>
<path d="M11.7155 26.2797C13.7492 26.8709 15.9351 26.5126 18.0046 26.3424C19.8412 26.1901 21.8121 26.1184 23.3889 25.0433C23.5322 24.9448 23.3978 24.7119 23.2545 24.8104C21.6688 25.8944 19.6799 25.9303 17.8344 26.0826C15.8455 26.2438 13.7492 26.5753 11.7872 26.0109C11.6169 25.9751 11.5453 26.2349 11.7155 26.2797V26.2797Z" fill="#161616"/>
<path d="M15.1557 14.2927C14.9765 14.2121 15.1736 14.0419 15.2811 14.015C15.4155 13.9792 15.6753 13.9612 15.738 14.1135C15.7828 14.23 15.7112 14.3823 15.6037 14.4271C15.4334 14.5077 15.2453 14.4092 15.1288 14.2927C15.0034 14.1673 14.8153 14.3554 14.9407 14.4809C15.1647 14.7048 15.532 14.8213 15.8097 14.6152C16.0337 14.454 16.1143 14.0956 15.9262 13.8806C15.7112 13.6387 15.2543 13.6656 15.0124 13.8448C14.7974 14.006 14.7526 14.3913 15.0303 14.5167C15.1826 14.5973 15.317 14.3644 15.1557 14.2927V14.2927Z" fill="#161616"/>
<path d="M18.7477 26.3155C18.1027 29.5855 18.7925 32.8913 19.4913 36.0986C19.5271 36.2688 19.7869 36.1971 19.7511 36.0269C19.0613 32.8734 18.3804 29.6124 19.0075 26.3872C19.0433 26.217 18.7835 26.1453 18.7477 26.3155V26.3155Z" fill="#161616"/>
<path d="M22.4483 22.8843C24.5178 22.4901 26.6142 22.3467 28.7105 22.4274C28.6657 22.3826 28.6209 22.3378 28.5762 22.293C28.1551 26.6112 30.0006 30.7233 32.2403 34.2979C32.3299 34.4412 32.5628 34.3068 32.4733 34.1635C30.2604 30.6247 28.4239 26.5664 28.8449 22.293C28.8539 22.2213 28.7732 22.1586 28.7105 22.1586C26.5873 22.078 24.464 22.2303 22.3766 22.6245C22.2064 22.6603 22.2781 22.9201 22.4483 22.8843V22.8843Z" fill="#161616"/>
<path d="M19.6345 36.2867C23.9885 36.7974 28.4052 36.1434 32.4367 34.4233C32.598 34.3516 32.4546 34.1276 32.3023 34.1903C28.3246 35.8925 23.9347 36.5196 19.6345 36.0179C19.4643 36 19.4643 36.2688 19.6345 36.2867V36.2867Z" fill="#161616"/>
<path d="M24.1322 23.9862C24.1322 23.9772 24.1591 23.9325 24.1591 23.9145C24.1681 23.8787 24.1949 23.8429 24.2218 23.816C24.2756 23.7712 24.3383 23.7354 24.4099 23.7264C24.5443 23.7085 24.6698 23.7802 24.7056 23.9145C24.7325 24.022 24.6877 24.1654 24.5622 24.1833C24.4458 24.2012 24.3383 24.1206 24.3204 24.0041C24.2935 23.8339 24.0337 23.9056 24.0606 24.0758C24.1053 24.3894 24.5085 24.5417 24.7683 24.3894C25.055 24.2191 25.0371 23.7802 24.7952 23.5741C24.5264 23.3501 24.0785 23.4666 23.9262 23.7712C23.8545 23.9235 23.8545 24.1295 24.0247 24.2191C24.1591 24.2908 24.3562 24.2281 24.392 24.0579C24.4189 23.8877 24.1591 23.816 24.1322 23.9862V23.9862Z" fill="#161616"/>
<path d="M11.4733 17.0162C13.8564 17.3477 16.2215 16.8549 18.506 16.201C18.6762 16.1562 18.6046 15.8963 18.4343 15.9411C16.1946 16.5772 13.8743 17.0789 11.545 16.7564C11.3748 16.7295 11.3031 16.9893 11.4733 17.0162V17.0162Z" fill="#161616"/>
<path d="M11.9211 18.7721C13.1574 18.9065 14.3938 18.7811 15.5853 18.4048C15.7466 18.3511 15.6838 18.0913 15.5136 18.145C14.349 18.5123 13.1395 18.6288 11.9211 18.5034C11.7509 18.4854 11.7509 18.7542 11.9211 18.7721V18.7721Z" fill="#161616"/>
<path d="M11.9211 20.9402C14.2863 21.2179 16.6693 21.0477 18.9628 20.4474C19.133 20.4026 19.0613 20.1428 18.8911 20.1876C16.6156 20.7879 14.2594 20.9491 11.9211 20.6714C11.7509 20.6445 11.7509 20.9133 11.9211 20.9402V20.9402Z" fill="#161616"/>
<path d="M20.7726 34.692C23.1467 34.7995 25.5208 34.5129 27.7963 33.832C27.9576 33.7872 27.8949 33.5274 27.7246 33.5722C25.467 34.2441 23.1287 34.5308 20.7726 34.4233C20.5934 34.4143 20.5934 34.6831 20.7726 34.692V34.692Z" fill="#161616"/>
<path d="M21.2297 32.6405C22.2869 32.6046 23.344 32.524 24.4011 32.4075C24.5714 32.3896 24.5714 32.1208 24.4011 32.1388C23.344 32.2552 22.2958 32.3359 21.2297 32.3717C21.0595 32.3807 21.0595 32.6494 21.2297 32.6405V32.6405Z" fill="#161616"/>
<path d="M22.0896 28.9494C22.7884 29.039 23.514 28.8598 24.2039 28.7613C24.9654 28.6448 25.7179 28.5373 26.4794 28.4208C26.6496 28.394 26.578 28.1342 26.4077 28.161C25.709 28.2685 25.0012 28.376 24.3024 28.4746C23.5767 28.5821 22.8242 28.7792 22.0896 28.6806C21.9194 28.6538 21.9194 28.9225 22.0896 28.9494V28.9494Z" fill="#161616"/>
<path d="M53.7501 8.86366C52.7736 13.6566 52.6751 18.584 53.4545 23.4128C53.4814 23.5831 53.7412 23.5114 53.7143 23.3412C52.9438 18.5661 53.0513 13.6746 54.0099 8.93533C54.0458 8.76511 53.786 8.69344 53.7501 8.86366V8.86366Z" fill="#161616"/>
<path d="M54.0547 8.92638C57.3067 8.1828 60.6663 8.0305 63.9811 8.47844C64.1513 8.50532 64.223 8.24551 64.0527 8.21863C60.6932 7.76173 57.2888 7.91403 53.983 8.66658C53.8217 8.71137 53.8934 8.97118 54.0547 8.92638V8.92638Z" fill="#161616"/>
<path d="M63.9004 8.23652C63.8018 12.8503 63.8645 17.7239 66.2028 21.854C66.2924 22.0063 66.5163 21.8719 66.4357 21.7196C64.1243 17.6344 64.0706 12.8055 64.1691 8.23652C64.1781 8.0663 63.9093 8.0663 63.9004 8.23652V8.23652Z" fill="#161616"/>
<path d="M53.6608 23.5562C54.6642 23.8608 55.7392 23.8787 56.7784 23.8877C57.8983 23.8966 59.0182 23.8249 60.138 23.6726C62.2792 23.386 64.3666 22.8036 66.3644 21.9615C66.5257 21.8988 66.3823 21.6659 66.23 21.7286C64.2322 22.5707 62.1269 23.1441 59.9767 23.4218C58.9734 23.5472 57.961 23.6189 56.9487 23.6099C55.8826 23.6099 54.7627 23.601 53.7414 23.2874C53.5622 23.2516 53.4995 23.5114 53.6608 23.5562V23.5562Z" fill="#161616"/>
<path d="M59.143 9.21306C58.8384 9.32057 58.7041 9.66996 58.8116 9.96561C58.937 10.2971 59.3222 10.3777 59.6089 10.1806C59.8866 9.98352 59.9762 9.58933 59.7075 9.33849C59.4745 9.12347 59.0714 9.11452 58.8564 9.34745C58.7399 9.47287 58.928 9.66101 59.0445 9.53558C59.3133 9.2489 59.8418 9.65205 59.4745 9.93873C59.3312 10.0462 59.1251 10.0462 59.0624 9.8581C59.0176 9.71476 59.0624 9.51766 59.2147 9.46391C59.376 9.41016 59.3043 9.15035 59.143 9.21306V9.21306Z" fill="#161616"/>
<path d="M53.8844 13.0295C56.3301 13.0922 58.767 13.0474 61.2038 12.8862C61.374 12.8772 61.374 12.6084 61.2038 12.6174C58.767 12.7787 56.3212 12.8324 53.8844 12.7607C53.7052 12.7607 53.7052 13.0295 53.8844 13.0295V13.0295Z" fill="#161616"/>
<path d="M54.1261 14.3913C55.0399 14.4271 55.9537 14.4629 56.8585 14.4988C57.0287 14.5077 57.0287 14.239 56.8585 14.23C55.9447 14.1942 55.0309 14.1583 54.1261 14.1225C53.9469 14.1135 53.9469 14.3823 54.1261 14.3913V14.3913Z" fill="#161616"/>
<path d="M53.8752 16.2906C56.1776 16.416 58.5069 16.5235 60.7735 16.0218C60.9438 15.986 60.8721 15.7262 60.7019 15.762C58.4532 16.2547 56.1508 16.1472 53.8752 16.0218C53.705 16.0128 53.705 16.2816 53.8752 16.2906V16.2906Z" fill="#161616"/>
<path d="M20.4767 45.4158C20.2707 47.2076 20.199 49.0083 20.2617 50.809C20.2707 50.9792 20.5394 50.9792 20.5305 50.809C20.4677 49.0083 20.5394 47.2076 20.7455 45.4158C20.7634 45.2456 20.4946 45.2456 20.4767 45.4158V45.4158Z" fill="#161616"/>
<path d="M20.5661 45.5233C23.7555 45.5233 26.9538 45.4785 30.1432 45.3799C30.3134 45.371 30.3134 45.1022 30.1432 45.1112C26.9538 45.2097 23.7555 45.2545 20.5661 45.2545C20.3959 45.2545 20.3959 45.5233 20.5661 45.5233V45.5233Z" fill="#161616"/>
<path d="M30.1169 45.2545C30.1438 46.8134 30.1707 48.3632 30.1975 49.9221C30.1975 50.0923 30.4663 50.0923 30.4663 49.9221C30.4394 48.3632 30.4126 46.8134 30.3857 45.2545C30.3857 45.0843 30.108 45.0843 30.1169 45.2545V45.2545Z" fill="#161616"/>
<path d="M20.2349 50.6119C20.2528 51.1942 21.2651 50.9344 21.5966 50.9165C22.5462 50.8538 23.4959 50.7911 24.4366 50.7194C26.3627 50.585 28.2889 50.4596 30.215 50.3252C30.3852 50.3162 30.3852 50.0475 30.215 50.0564C28.5756 50.1639 26.945 50.2804 25.3056 50.3879C24.5262 50.4417 23.7467 50.4954 22.9673 50.5492C22.7344 50.5671 20.5036 50.7821 20.4947 50.6119C20.5036 50.4417 20.2349 50.4417 20.2349 50.6119V50.6119Z" fill="#161616"/>
<path d="M21.2921 46.7327C23.4422 46.6342 25.5923 46.7148 27.7246 46.9836C27.8948 47.0015 27.8948 46.7327 27.7246 46.7148C25.5923 46.446 23.4422 46.3654 21.2921 46.464C21.1129 46.4729 21.1129 46.7417 21.2921 46.7327V46.7327Z" fill="#161616"/>
<path d="M21.3728 48.0945C22.5733 48.0049 23.7827 47.9063 24.9832 47.8167C25.1534 47.8078 25.1534 47.539 24.9832 47.548C23.7827 47.6376 22.5733 47.7361 21.3728 47.8257C21.2026 47.8347 21.2026 48.1034 21.3728 48.0945V48.0945Z" fill="#161616"/>
<path d="M21.7762 49.4652C23.5052 49.2412 25.3866 48.7843 27.1246 49.0979C27.2948 49.1247 27.3665 48.8739 27.1963 48.838C25.4224 48.5155 23.5411 48.9635 21.7762 49.1964C21.6149 49.2233 21.606 49.492 21.7762 49.4652V49.4652Z" fill="#161616"/>
<path d="M45.0781 30.1678C43.6537 35.2385 43.8328 40.6676 45.5798 45.6398C45.6336 45.801 45.8934 45.7294 45.8396 45.5681C44.1106 40.6407 43.9314 35.2654 45.3379 30.2395C45.3827 30.0693 45.1229 29.9976 45.0781 30.1678V30.1678Z" fill="#161616"/>
<path d="M45.2569 30.2574C49.2436 30.2395 53.2124 29.7199 57.0737 28.7075C57.2439 28.6627 57.1722 28.4029 57.002 28.4477C53.1676 29.4511 49.2257 29.9707 45.2569 29.9886C45.0778 29.9886 45.0778 30.2574 45.2569 30.2574V30.2574Z" fill="#161616"/>
<path d="M57.0024 28.5463C56.8411 31.0368 56.9486 33.5453 57.3966 36.009C57.6205 37.2543 57.8893 38.4996 58.382 39.6642C58.8748 40.8199 59.5557 41.8681 60.353 42.8267C60.4605 42.9611 60.6576 42.7729 60.5411 42.6385C59.7259 41.662 59.036 40.578 58.5523 39.3954C58.0954 38.2666 57.8445 37.0572 57.6385 35.8657C57.2084 33.4557 57.1099 30.992 57.2622 28.5463C57.2801 28.3761 57.0113 28.3761 57.0024 28.5463V28.5463Z" fill="#161616"/>
<path d="M45.6155 45.7831C50.6862 46.1414 55.9808 45.5681 60.4244 42.9521C60.5767 42.8625 60.4424 42.6296 60.2901 42.7192C55.8733 45.3172 50.6324 45.8637 45.6155 45.5143C45.4452 45.4964 45.4452 45.7652 45.6155 45.7831V45.7831Z" fill="#161616"/>
<path d="M51.0088 31.0637C50.8565 30.8039 51.1611 30.4814 51.4209 30.6874C51.6986 30.9114 51.403 31.2698 51.1073 31.1533C50.9461 31.0906 50.8744 31.3504 51.0356 31.4131C51.2775 31.5116 51.5732 31.4041 51.7165 31.1891C51.8778 30.9472 51.8061 30.6426 51.5821 30.4724C51.0984 30.0872 50.4892 30.6874 50.7758 31.1981C50.8654 31.3504 51.0984 31.216 51.0088 31.0637V31.0637Z" fill="#161616"/>
<path d="M45.3469 34.1545C48.0256 34.1097 50.7043 33.9216 53.374 33.5991C53.5443 33.5811 53.5443 33.3124 53.374 33.3303C50.7133 33.6618 48.0346 33.8409 45.3469 33.8857C45.1767 33.8947 45.1767 34.1635 45.3469 34.1545V34.1545Z" fill="#161616"/>
<path d="M54.3325 32.3538C54.4131 32.7659 54.4938 33.187 54.5744 33.5991C54.6102 33.7693 54.87 33.6976 54.8342 33.5274C54.7536 33.1153 54.6729 32.6942 54.5923 32.2821C54.5654 32.1119 54.3056 32.1836 54.3325 32.3538V32.3538Z" fill="#161616"/>
<path d="M54.5118 32.3179C55.0045 32.2463 55.4972 32.1746 55.9989 32.094C56.1692 32.0671 56.0975 31.8073 55.9273 31.8342C55.4345 31.9058 54.9418 31.9775 54.4401 32.0581C54.2699 32.085 54.3416 32.3448 54.5118 32.3179V32.3179Z" fill="#161616"/>
<path d="M55.9185 32.0133C55.9901 32.3986 56.0528 32.7838 56.1245 33.1601C56.1514 33.3303 56.4112 33.2586 56.3843 33.0884C56.3126 32.7032 56.2499 32.3179 56.1783 31.9417C56.1514 31.7804 55.8916 31.8521 55.9185 32.0133V32.0133Z" fill="#161616"/>
<path d="M54.7984 33.8051C55.327 33.6976 55.8287 33.5542 56.3304 33.3571C56.4916 33.2944 56.4199 33.0346 56.2587 33.0973C55.757 33.2855 55.2463 33.4378 54.7267 33.5453C54.5565 33.5811 54.6282 33.8409 54.7984 33.8051V33.8051Z" fill="#161616"/>
<path d="M54.8431 32.6225C54.9417 32.8465 55.0761 33.0257 55.2731 33.178C55.3448 33.2317 55.4792 33.2317 55.4971 33.1153C55.5688 32.6315 55.739 32.2015 56.0257 31.7983C56.1242 31.655 55.8913 31.5206 55.7928 31.6639C55.4971 32.076 55.309 32.5419 55.2373 33.0436C55.309 33.0257 55.3896 33.0078 55.4613 32.9809C55.2911 32.8465 55.1656 32.6853 55.0761 32.4792C55.0044 32.3269 54.7715 32.4613 54.8431 32.6225V32.6225Z" fill="#161616"/>
<path d="M54.9419 36.4659C54.7985 37.1109 54.8612 37.738 55.121 38.3383C55.1927 38.4995 55.4167 38.3562 55.354 38.2039C55.121 37.6753 55.0763 37.1019 55.2017 36.5375C55.2375 36.3673 54.9777 36.2956 54.9419 36.4659V36.4659Z" fill="#161616"/>
<path d="M55.1212 36.5555C55.6587 36.4659 56.1963 36.3852 56.7338 36.2956C56.68 36.2419 56.6263 36.1881 56.5725 36.1344C56.4829 36.7078 56.5457 37.2542 56.7696 37.7918C56.8323 37.953 57.0921 37.8814 57.0294 37.7201C56.8234 37.2363 56.7517 36.7257 56.8323 36.2061C56.8503 36.0986 56.7786 36.0269 56.6711 36.0448C56.1335 36.1254 55.596 36.215 55.0585 36.3046C54.8793 36.3225 54.951 36.5823 55.1212 36.5555V36.5555Z" fill="#161616"/>
<path d="M55.237 38.3473C55.8283 38.3293 56.3927 38.2129 56.9482 38.0158C57.1094 37.9531 57.0378 37.6933 56.8765 37.756C56.3479 37.9531 55.8014 38.0606 55.237 38.0785C55.0668 38.0785 55.0668 38.3473 55.237 38.3473V38.3473Z" fill="#161616"/>
<path d="M55.3178 37.102C55.3984 37.3349 55.5328 37.4962 55.7478 37.6216C55.8464 37.6753 55.936 37.6037 55.9539 37.5051C56.0077 37.0303 56.1331 36.5734 56.3302 36.1344C56.4018 35.9821 56.1689 35.8388 56.0972 36C55.8822 36.4838 55.7478 36.9855 55.6851 37.5051C55.7568 37.4693 55.8195 37.4245 55.8912 37.3887C55.7389 37.2991 55.6493 37.1916 55.5866 37.0214C55.5239 36.8691 55.2641 36.9407 55.3178 37.102V37.102Z" fill="#161616"/>
<path d="M55.4974 40.6228C55.5602 41.223 55.7214 41.7874 55.9902 42.325C56.0618 42.4773 56.2948 42.3429 56.2231 42.1906C55.9812 41.6978 55.8289 41.1693 55.7752 40.6228C55.7483 40.4526 55.4795 40.4526 55.4974 40.6228V40.6228Z" fill="#161616"/>
<path d="M55.6228 40.5959C56.3126 40.6586 56.9576 40.5332 57.5758 40.2286C57.5131 40.2017 57.4414 40.1748 57.3787 40.148C57.4952 40.6944 57.7371 41.1693 58.1133 41.5903C58.2298 41.7158 58.4179 41.5276 58.3015 41.4022C57.961 41.017 57.746 40.5869 57.6385 40.0852C57.6206 39.9957 57.5131 39.9688 57.4414 40.0046C56.8681 40.2823 56.2589 40.3898 55.6228 40.3361C55.4526 40.3182 55.4526 40.5869 55.6228 40.5959V40.5959Z" fill="#161616"/>
<path d="M56.2319 42.4235C56.9307 42.1637 57.6205 41.886 58.2924 41.5814C58.4537 41.5097 58.3104 41.2768 58.1581 41.3485C57.5041 41.6441 56.8321 41.9129 56.1602 42.1637C55.999 42.2264 56.0706 42.4862 56.2319 42.4235V42.4235Z" fill="#161616"/>
<path d="M56.0882 41.0707C56.3033 41.2589 56.796 41.9039 57.0468 41.4291C57.1633 41.2141 57.1364 40.9184 57.2081 40.6765C57.3156 40.3361 57.4948 40.0225 57.7277 39.7538C57.8352 39.6194 57.6471 39.4313 57.5396 39.5656C57.2887 39.8613 57.0916 40.1838 56.9752 40.5601C56.9214 40.7303 56.8766 40.9095 56.8497 41.0886C56.8139 41.3126 56.7512 41.2589 56.581 41.1514C56.4735 41.0797 56.3749 40.9722 56.2764 40.8826C56.1509 40.7661 55.9628 40.9543 56.0882 41.0707V41.0707Z" fill="#161616"/>
<path d="M45.5886 38.5354C48.0971 38.5085 50.5966 38.3025 53.0692 37.9083C53.2395 37.8814 53.1678 37.6216 52.9976 37.6485C50.5428 38.0337 48.0702 38.2397 45.5886 38.2577C45.4184 38.2666 45.4184 38.5354 45.5886 38.5354V38.5354Z" fill="#161616"/>
<path d="M45.3015 34.8981C46.923 34.9429 48.5356 34.8891 50.1482 34.7547C50.3184 34.7368 50.3184 34.468 50.1482 34.486C48.5356 34.6203 46.9141 34.6651 45.3015 34.6293C45.1313 34.6203 45.1313 34.8891 45.3015 34.8981V34.8981Z" fill="#161616"/>
<path d="M45.6872 39.0639C47.3894 39.1446 49.0916 39.0819 50.7759 38.8669C50.9461 38.8489 50.9461 38.5802 50.7759 38.5981C49.0826 38.8041 47.3805 38.8758 45.6872 38.7952C45.517 38.7862 45.517 39.055 45.6872 39.0639V39.0639Z" fill="#161616"/>
<path d="M51.3493 38.7415C51.8331 38.7504 52.3079 38.6877 52.7738 38.5354C52.9351 38.4816 52.8634 38.2218 52.7021 38.2756C52.2631 38.4189 51.8152 38.4816 51.3493 38.4727C51.1791 38.4727 51.1791 38.7415 51.3493 38.7415V38.7415Z" fill="#161616"/>
<path d="M46.6007 42.4325C48.6433 42.307 50.677 42.1189 52.7017 41.8412C52.8719 41.8143 52.8719 41.5455 52.7017 41.5724C50.677 41.8412 48.6433 42.0383 46.6007 42.1637C46.4215 42.1727 46.4215 42.4414 46.6007 42.4325V42.4325Z" fill="#161616"/>
<path d="M46.8337 43.0596C47.5056 43.0596 48.1775 43.0596 48.8495 43.0596C49.0197 43.0596 49.0197 42.7908 48.8495 42.7908C48.1775 42.7908 47.5056 42.7908 46.8337 42.7908C46.6635 42.7908 46.6635 43.0596 46.8337 43.0596V43.0596Z" fill="#161616"/>
<path d="M47.4161 43.6598C48.4643 43.5971 49.5125 43.4986 50.5607 43.3732C51.4028 43.2656 52.3077 43.2209 53.0333 42.7281C53.1767 42.6296 53.0423 42.3966 52.8989 42.4952C52.1374 43.0148 51.1161 43.0417 50.2292 43.1402C49.2975 43.2477 48.3568 43.3284 47.4251 43.3911C47.2459 43.4 47.2369 43.6688 47.4161 43.6598V43.6598Z" fill="#161616"/>
<path d="M57.6474 36.4211C59.278 36.3404 60.8995 36.1254 62.5031 35.785C62.4494 35.7581 62.3956 35.7223 62.3419 35.6954C63.0944 37.9351 64.2053 40.0225 65.6298 41.9129C65.7283 42.0472 65.9702 41.9129 65.8627 41.7785C64.4562 39.915 63.3542 37.8455 62.6017 35.6327C62.5748 35.561 62.5121 35.5252 62.4404 35.5431C60.8637 35.8835 59.269 36.0896 57.6564 36.1702C57.4683 36.1613 57.4683 36.43 57.6474 36.4211V36.4211Z" fill="#161616"/>
<path d="M57.9252 43.9824C58.1671 44.3228 58.3642 44.6812 58.5344 45.0664C58.5523 45.1201 58.6329 45.147 58.6867 45.1291C60.0036 44.6901 61.3027 44.2063 62.5748 43.6598C63.2199 43.3821 63.8559 43.0954 64.492 42.7908C64.7966 42.6475 65.1012 42.4952 65.3969 42.3429C65.576 42.2533 65.7821 42.1995 65.8448 42.0025C65.8627 41.9487 65.8358 41.877 65.7821 41.8502C65.7015 41.8054 65.6567 41.8054 65.576 41.8502C65.5223 41.877 65.4954 41.9487 65.5133 42.0025C65.5133 42.0114 65.5223 42.0204 65.5223 42.0293C65.5671 42.1995 65.8269 42.1279 65.7821 41.9577C65.7821 41.9487 65.7731 41.9397 65.7731 41.9308C65.7552 41.9845 65.7283 42.0293 65.7104 42.0831C65.6925 42.0831 65.6656 42.0831 65.6477 42.0831C65.6298 42.0293 65.6029 41.9845 65.585 41.9308C65.5312 42.092 64.9668 42.2623 64.8145 42.3429C64.5637 42.4683 64.3128 42.5848 64.053 42.7102C63.4528 42.9969 62.8436 43.2657 62.2254 43.5255C61.0429 44.0272 59.8334 44.4751 58.615 44.8782C58.6688 44.8962 58.7136 44.923 58.7673 44.941C58.6061 44.5557 58.4 44.1974 58.1581 43.8569C58.0596 43.7046 57.8266 43.839 57.9252 43.9824V43.9824Z" fill="#161616"/>
<path d="M59.4838 37.1199C59.4658 37.0034 59.6809 36.8959 59.7615 36.9765C59.869 37.084 59.6898 37.2811 59.5644 37.2363C59.4031 37.1736 59.3315 37.4334 59.4927 37.4961C59.8779 37.6395 60.2542 37.084 59.9586 36.7884C59.8242 36.654 59.6181 36.663 59.4569 36.7436C59.2867 36.8332 59.1971 37.0034 59.2329 37.1915C59.2508 37.3617 59.5106 37.2811 59.4838 37.1199V37.1199Z" fill="#161616"/>
<path d="M19.7875 29.9528C20.7819 29.9707 21.7853 29.9259 22.7708 29.7915C23.8011 29.6482 24.8224 29.3525 25.8706 29.3973C26.0408 29.4063 26.0408 29.1375 25.8706 29.1286C24.912 29.0927 23.9802 29.3346 23.0396 29.478C21.9645 29.6482 20.8715 29.7109 19.7785 29.684C19.6173 29.684 19.6173 29.9528 19.7875 29.9528V29.9528Z" fill="#161616"/>
<path d="M19.9304 26.9874C21.4534 27.1039 22.9764 26.9695 24.4546 26.5843C24.6248 26.5395 24.5532 26.2797 24.3829 26.3244C22.9227 26.7007 21.4355 26.8351 19.9304 26.7186C19.7602 26.7097 19.7602 26.9784 19.9304 26.9874V26.9874Z" fill="#161616"/>
<path d="M54.4044 19.4441C54.2521 20.4295 54.1267 21.4956 54.7448 22.3557C54.8434 22.499 55.0763 22.3647 54.9778 22.2213C54.4044 21.424 54.5298 20.4295 54.6642 19.5157C54.6911 19.3455 54.4313 19.2739 54.4044 19.4441V19.4441Z" fill="#161616"/>
<path d="M54.485 19.4351C56.6172 19.5157 58.7494 19.3097 60.8278 18.8169C60.7741 18.7901 60.7203 18.7542 60.6666 18.7273C60.8547 19.6501 61.2131 20.5102 61.7148 21.2985C61.8043 21.4419 62.0373 21.3075 61.9477 21.1642C61.455 20.3937 61.1145 19.5516 60.9264 18.6557C60.9085 18.584 60.8278 18.5482 60.7651 18.5661C58.7135 19.0499 56.6082 19.2559 54.4939 19.1753C54.3147 19.1574 54.3147 19.4261 54.485 19.4351V19.4351Z" fill="#161616"/>
<path d="M54.9684 22.3467C57.2798 22.275 59.5643 21.9346 61.7861 21.3254C61.9563 21.2806 61.8846 21.0208 61.7144 21.0656C59.5105 21.6748 57.2529 22.0152 54.9684 22.0779C54.7892 22.0869 54.7892 22.3557 54.9684 22.3467V22.3467Z" fill="#161616"/>
<path d="M86.5575 84.9243C86.5575 85.9367 86.5575 86.9401 86.5575 87.9524C79.3904 90.7924 77.9301 91.8047 78.0376 92.172C78.0645 92.2616 78.2526 92.5304 82.0153 92.0914C85.7422 91.6524 88.7613 91.0163 90.8577 90.4967C90.4904 88.4272 90.1141 86.3577 89.7468 84.2882C88.6807 84.5033 87.6146 84.7183 86.5575 84.9243Z" fill="#161616"/>
<path d="M89.7739 42.0741C89.5679 42.4593 89.4962 42.7729 89.4783 42.8446C88.1972 48.2916 86.5219 51.5078 85.4289 57.8238C83.3415 69.9899 85.1422 83.8134 85.3124 85.1124C85.8858 85.3633 86.9877 85.7396 88.3943 85.6858C89.6306 85.6321 90.5892 85.2647 91.1357 85.0049C90.9296 81.0362 91.1357 76.1357 92.5064 70.7335C94.1817 64.1129 96.3049 61.918 98.2132 54.1775C99.6287 48.4439 101.268 41.7695 98.4371 39.7896C96.2691 38.2487 91.1894 39.3775 89.7739 42.0741Z" fill="#EC615B"/>
<path opacity="0.2" d="M94.7283 44.932C93.2949 51.472 91.96 58.442 90.8312 65.8151C89.7651 72.7492 88.9677 79.3878 88.3765 85.6948C89.2813 85.5066 90.1772 85.3185 91.082 85.1304C90.9656 82.3442 91.091 79.9701 91.2702 78.1514C91.4852 75.8938 92.0317 70.635 94.2266 65.3851C94.5133 64.7131 94.8806 63.8979 95.4808 62.3659C96.4932 59.8306 97.2278 57.6625 97.5593 56.6412C99.1181 51.7676 99.8975 46.1146 100.139 44.2511C98.3297 44.4661 96.529 44.6991 94.7283 44.932Z" fill="#6D6C6C"/>
<path opacity="0.19" d="M97.6847 56.3187C94.1728 60.8967 92.5333 65.0446 91.7091 67.8308C90.9566 70.3662 90.6251 72.6059 90.1951 75.5086C89.5859 79.6296 89.3529 83.1057 89.2544 85.5783C89.8457 85.435 90.428 85.2827 91.0193 85.1393C90.9207 81.6722 91.1626 78.7069 91.4583 76.3955C91.8166 73.6541 92.2287 70.4737 93.6621 66.6483C94.1818 65.2596 94.4326 64.8654 95.6152 61.8642C96.529 59.517 97.2278 57.5909 97.6847 56.3187Z" fill="#6D6C6C"/>
<path d="M105.908 83.8941C106.41 85.1393 106.921 86.3846 107.422 87.6389C103.212 90.3175 101.223 91.8764 101.447 92.3333C101.724 92.8977 105.362 91.7778 112.359 88.9916C111.615 86.5727 110.871 84.1628 110.128 81.7439C108.721 82.4606 107.315 83.1773 105.908 83.8941Z" fill="#161616"/>
<path d="M102.45 42.1816C104.645 44.1884 104.573 47.0015 104.851 51.6601C104.851 51.6601 105.532 63.1185 107.816 72.3282C108.39 74.6306 109.429 78.2052 111.355 82.4875C111.033 82.8996 110.155 83.903 108.614 84.4316C107.037 84.9691 105.693 84.6824 105.192 84.548C102.45 79.8715 100.506 75.8848 99.2518 73.1255C93.4375 60.386 92.9717 53.6758 92.9717 50.1729C92.9717 46.5715 93.0344 42.2533 95.7131 40.8109C97.7288 39.7269 100.685 40.569 102.45 42.1816Z" fill="#EC615B"/>
<path opacity="0.15" d="M96.2329 43.5523C97.2273 47.3778 98.3024 51.2659 99.4491 55.2078C102.441 65.4388 105.693 75.1054 109.107 84.1718C109.438 84.0016 109.841 83.7686 110.254 83.4551C110.675 83.1326 111.006 82.81 111.257 82.5234C110.791 81.4393 110.146 79.8715 109.465 77.9454C108.435 74.9979 106.76 69.5778 105.891 62.357C105.057 55.4228 104.636 51.9558 104.672 49.7698C104.699 47.9691 104.86 44.3049 102.531 42.3339C102.047 41.9308 101.572 41.6889 101.241 41.5456C99.5656 42.2175 97.8993 42.8894 96.2329 43.5523Z" fill="#6D6C6C"/>
<path opacity="0.22" d="M104.78 52.0991C104.368 56.265 104.233 61.8463 105.237 68.2967C106.249 74.7829 108.085 80.0776 109.743 83.9299C110.253 83.5088 110.764 83.0878 111.275 82.6577C110.666 81.2154 109.868 79.2086 109.071 76.7539C107.539 72.0325 106.876 68.3504 106.303 65.0446C105.72 61.6582 105.111 57.2773 104.78 52.0991Z" fill="#6D6C6C"/>
<path d="M62.8341 9.45496C62.4758 9.63413 61.9831 9.94769 61.5978 10.4852C61.3918 10.7629 61.1409 11.1303 61.1051 11.6499C61.0961 11.8559 61.0693 12.3039 61.3559 12.5995C61.4366 12.6891 61.6516 12.8593 62.7087 12.8235C63.6494 12.7876 64.1242 12.7697 64.3661 12.5189C64.832 12.0351 64.6618 11.1213 64.3661 10.5748C63.9003 9.7058 62.9865 9.49079 62.8341 9.45496Z" fill="white" stroke="#161616" stroke-width="0.4"/>
<path d="M68.2453 11.7036C69.5085 13.146 71.5332 14.0061 75.2511 15.538C79.9366 17.4731 82.2838 18.4407 85.0611 18.7811C88.0623 19.1484 89.6659 18.7632 90.2214 19.7397C90.947 21.0029 89.2449 23.3681 87.4889 25.348C86.1809 25.0613 84.8281 24.7029 83.4306 24.2371C75.7707 21.7017 70.2342 17.2402 66.5969 13.5312C66.14 13.6298 65.3606 13.7283 64.4736 13.4596C63.7121 13.2356 62.6371 12.6622 62.6998 12.2053C62.7804 11.6499 64.7245 11.5513 64.8409 11.5424C64.2497 11.3005 63.3986 10.8884 62.4758 10.2165C62.207 10.0194 60.6661 8.88159 60.8543 8.52324C61.0155 8.20968 62.4131 8.6397 63.73 9.04285C64.9305 9.41016 65.7637 9.66997 66.6775 10.2971C67.5555 10.8884 68.0661 11.4976 68.2453 11.7036Z" fill="white" stroke="#161616" stroke-width="0.4"/>
<path d="M62.0459 9.55351C62.2609 9.7954 62.3057 10.1179 62.4939 10.3688C62.6551 10.5927 62.8881 10.754 63.1299 10.8884C63.8556 11.2915 64.6261 11.623 65.3697 11.9903C65.4951 12.053 65.6563 11.8828 65.5309 11.7753C65.1457 11.4438 64.7336 11.1482 64.3036 10.8794C64.1602 10.7898 64.0169 11.0228 64.1692 11.1124C64.5813 11.3722 64.9755 11.6499 65.3428 11.9634C65.3965 11.8918 65.4503 11.8201 65.504 11.7484C64.7963 11.408 64.0885 11.0765 63.3898 10.7092C63.0583 10.539 62.7626 10.3419 62.5924 10.0015C62.4759 9.76852 62.4132 9.54455 62.2341 9.34746C62.1176 9.23995 61.9295 9.42809 62.0459 9.55351V9.55351Z" fill="white"/>
<path d="M62.7447 10.4942C63.1568 10.6734 63.551 10.9063 63.9093 11.184C64.0437 11.2915 64.2318 11.1034 64.0975 10.9959C63.7212 10.7002 63.318 10.4583 62.8791 10.2612C62.7178 10.1896 62.5834 10.4225 62.7447 10.4942V10.4942Z" fill="white"/>
<path d="M61.6876 9.39223C62.0281 9.93872 62.476 10.3867 63.0046 10.745C63.1479 10.8436 63.2823 10.6106 63.139 10.5121C62.6462 10.1806 62.2341 9.75955 61.9206 9.24889C61.831 9.11451 61.598 9.24889 61.6876 9.39223V9.39223Z" fill="white"/>
<path d="M62.0905 10.1269C62.2697 10.3688 62.4668 10.5927 62.6907 10.7898C62.852 10.9332 63.5598 11.4438 63.1924 11.7036C63.1208 11.7484 63.1924 11.8649 63.2641 11.8201C63.515 11.6499 63.4164 11.3453 63.2641 11.1392C63.1476 10.9869 62.9864 10.8705 62.8341 10.7361C62.6012 10.53 62.3951 10.306 62.207 10.0642C62.1532 9.98352 62.0367 10.0552 62.0905 10.1269V10.1269Z" fill="#161616"/>
<path d="M61.9025 11.0586C62.1713 11.4259 62.6819 11.9455 63.1836 11.7932C63.2643 11.7663 63.2284 11.6409 63.1478 11.6678C62.7178 11.8022 62.2429 11.3094 62.019 10.9959C61.9652 10.9242 61.8488 10.9869 61.9025 11.0586V11.0586Z" fill="#161616"/>
<path d="M61.5085 11.6857C61.8041 12.0889 62.2341 12.3218 62.7358 12.3487C62.8254 12.3576 62.8254 12.2232 62.7358 12.2143C62.2879 12.1874 61.8937 11.9724 61.6249 11.614C61.5712 11.5424 61.4547 11.614 61.5085 11.6857V11.6857Z" fill="#161616"/>
<path d="M61.2217 12.492C61.6428 12.931 62.3416 12.9399 62.7627 12.492C62.8254 12.4293 62.7268 12.3307 62.6641 12.3934C62.2968 12.7876 61.6876 12.7787 61.3203 12.3934C61.2576 12.3307 61.159 12.4293 61.2217 12.492V12.492Z" fill="#161616"/>
<path d="M61.3117 9.37429C62.3061 10.0283 63.0228 11.1302 64.2681 11.3452C64.3487 11.3632 64.3935 11.2288 64.3039 11.2198C63.0765 11.0138 62.3598 9.91182 61.3833 9.26678C61.3027 9.20407 61.24 9.32054 61.3117 9.37429V9.37429Z" fill="#161616"/>
<path opacity="0.2" d="M61.2039 12.3039C60.8814 11.8649 61.1502 10.9242 61.9296 10.0373C62.8076 10.5479 63.6766 11.0675 64.5545 11.5782C64.3933 11.5782 62.9778 11.5961 62.8792 12.0351C62.8613 12.1068 62.8792 12.2143 63.0136 12.3666C63.4616 12.5816 64.2141 12.8683 65.1817 12.8951C65.6834 12.9041 66.1223 12.8414 66.4628 12.7608C68.2904 14.6063 71.5066 17.3925 76.2369 19.4172C80.3938 21.191 84.1207 21.7017 86.5844 21.845C86.5037 22.9022 86.4231 23.9504 86.3425 25.0075C82.2841 23.9324 76.7834 21.8898 71.3185 17.7867C69.455 16.3891 67.8604 14.9467 66.4986 13.5581C65.2444 13.7641 64.465 13.5491 63.9722 13.2983C63.5512 13.0833 63.2824 12.8145 62.7269 12.7697C62.3596 12.7428 62.0461 12.8324 61.6429 12.6353C61.5981 12.6174 61.3383 12.483 61.2039 12.3039Z" fill="#6D6C6C"/>
<path opacity="0.14" d="M72.7432 18.6288C73.9974 19.3007 75.4487 19.9816 77.1061 20.5639C80.7165 21.845 83.9865 22.2482 86.486 22.3378C86.4502 23.2516 86.4233 24.1743 86.3875 25.0881C83.7894 24.4789 80.5284 23.4128 77.0703 21.4777C75.4129 20.555 73.9795 19.5785 72.7432 18.6288Z" fill="#6D6C6C"/>
<path d="M86.9068 21.1821C86.3962 22.3378 86.3693 23.2964 86.3245 25.0165C86.2887 26.3155 86.3783 27.7131 87.0771 31.3862C87.9282 35.8298 88.3313 36.5465 88.4657 38.9027C88.5732 40.7482 88.4299 42.2623 88.2955 43.2657C89.4243 43.8838 91.3146 44.726 93.7872 44.9141C98.1592 45.2456 101.393 43.3194 102.504 42.5848C102.639 39.7717 102.773 36.9497 102.916 34.1366C102.424 31.7356 101.841 29.8543 101.42 28.6179C100.094 24.7208 98.858 22.8753 99.6463 20.9223C100.085 19.8383 100.954 19.1753 101.555 18.808C101.134 18.4855 96.7168 15.2155 91.8969 16.9087C91.3952 17.0789 88.2238 18.1988 86.9068 21.1821Z" fill="white" stroke="#161616" stroke-width="0.4"/>
<path opacity="0.19" d="M91.8789 16.8997C93.2227 19.0499 93.9753 20.9491 94.4053 22.2751C94.4053 22.2751 96.5106 28.6717 94.9697 37.2543C94.6382 39.0819 94.0469 41.6799 92.8823 44.6543C93.3302 44.7528 93.8678 44.8334 94.477 44.8603C94.477 44.8603 95.4177 44.9051 96.4748 44.7707C97.7649 44.6005 99.9777 43.9107 102.585 42.5848C102.63 39.5836 102.674 36.5913 102.719 33.5901C102.056 31.0547 101.384 29.0211 100.883 27.5966C99.6731 24.2012 98.822 22.6065 99.5208 20.9223C99.9777 19.8203 100.909 19.1395 101.635 18.7453C100.685 18.1181 98.9295 17.1416 96.5286 16.7654C94.5486 16.4608 92.9181 16.6758 91.8789 16.8997Z" fill="#6D6C6C"/>
<path opacity="0.11" d="M93.1064 16.6937C94.5488 18.4675 96.2331 21.0567 97.2723 24.47C100.22 34.2172 95.373 42.764 94.2532 44.6364C95.1939 44.6274 96.2958 44.5468 97.4963 44.3138C99.6374 43.9017 101.349 43.1671 102.576 42.5131C102.621 39.7179 102.666 36.9228 102.71 34.1366C101.949 31.5475 101.232 29.0927 100.256 25.7601C99.5927 23.4755 99.073 21.6031 100.05 20.107C100.524 19.3814 101.187 18.9782 101.689 18.7453C98.8312 18.0554 95.9643 17.3746 93.1064 16.6937Z" fill="#6D6C6C"/>
<path d="M92.4437 34.9966C92.4169 33.0794 92.3989 31.1712 92.3721 29.254C96.968 29.0211 101.564 28.7881 106.169 28.5552C106.33 30.3291 106.491 32.1029 106.661 33.8768C101.922 34.253 97.183 34.6203 92.4437 34.9966Z" fill="white" stroke="#161616" stroke-width="0.4"/>
<path d="M91.0459 34.3695C91.0459 33.6707 91.0459 32.9719 91.0459 32.2731C96.9498 31.8342 102.854 31.3862 108.758 30.9472C108.802 31.8073 108.847 32.6763 108.901 33.5363C102.952 33.8051 96.9946 34.0918 91.0459 34.3695Z" fill="white" stroke="#161616" stroke-width="0.4"/>
<path d="M91.5391 31.216C91.6107 32.2463 91.6824 33.2676 91.7451 34.2978C97.21 33.8589 102.666 33.4109 108.131 32.9719C108.176 32.0402 108.22 31.1085 108.274 30.1678C102.693 30.5172 97.1115 30.8666 91.5391 31.216Z" fill="white" stroke="#161616" stroke-width="0.4"/>
<path d="M90.2041 33.5274C90.3654 37.6126 90.5266 41.6978 90.6968 45.7831C96.7889 45.1022 102.881 44.4303 108.973 43.7494C109.161 39.7358 109.349 35.7223 109.537 31.7087C103.087 32.3179 96.6455 32.9182 90.2041 33.5274Z" fill="white" stroke="#161616" stroke-width="0.4"/>
<path d="M91.243 35.1221C94.0113 34.7547 96.7796 34.4949 99.5658 34.3337C99.6912 34.3247 99.6912 34.1276 99.5658 34.1276C96.7796 34.2889 94.0023 34.5487 91.243 34.916C91.1176 34.9339 91.1176 35.14 91.243 35.1221V35.1221Z" fill="#161616"/>
<path d="M94.3338 35.6685C96.4571 35.3998 98.5803 35.1221 100.713 34.8533C100.838 34.8354 100.838 34.6383 100.713 34.6472C98.5893 34.916 96.466 35.1937 94.3338 35.4625C94.2084 35.4894 94.2084 35.6865 94.3338 35.6685V35.6685Z" fill="#161616"/>
<path d="M104.538 41.4022C104.502 41.9666 104.502 42.54 104.556 43.1044C104.565 43.2298 104.771 43.2298 104.762 43.1044C104.708 42.54 104.699 41.9666 104.744 41.4022C104.753 41.2768 104.547 41.2768 104.538 41.4022V41.4022Z" fill="#161616"/>
<path d="M104.628 41.4201C105.738 41.447 106.84 41.3843 107.942 41.241C107.906 41.2051 107.871 41.1693 107.844 41.1424C107.826 41.662 107.844 42.1727 107.88 42.6833C107.889 42.8088 108.095 42.8088 108.086 42.6833C108.041 42.1727 108.032 41.6531 108.05 41.1424C108.05 41.0887 108.005 41.0349 107.951 41.0439C106.849 41.1872 105.747 41.241 104.636 41.223C104.493 41.2141 104.493 41.4112 104.628 41.4201V41.4201Z" fill="#161616"/>
<path d="M104.708 43.2657C105.81 43.2836 106.894 43.1671 107.969 42.9252C108.095 42.8983 108.041 42.7013 107.916 42.7281C106.858 42.9611 105.792 43.0775 104.708 43.0596C104.583 43.0596 104.583 43.2567 104.708 43.2657V43.2657Z" fill="#161616"/>
<path d="M105.13 42.0473C105.811 42.0921 106.482 42.0562 107.163 41.9487C107.289 41.9308 107.235 41.7337 107.11 41.7516C106.456 41.8591 105.793 41.886 105.13 41.8412C105.004 41.8323 105.004 42.0383 105.13 42.0473V42.0473Z" fill="#161616"/>
<path d="M105.559 42.6117C106.267 42.5937 106.948 42.4594 107.62 42.2175C107.736 42.1727 107.692 41.9756 107.566 42.0204C106.921 42.2623 106.249 42.3877 105.559 42.4146C105.434 42.4056 105.425 42.6117 105.559 42.6117V42.6117Z" fill="#161616"/>
<path opacity="0.2" d="M93.0977 45.3172C93.2589 41.5366 93.4202 37.756 93.5725 33.9664C98.8044 33.5453 104.045 33.1332 109.277 32.7121C109.161 36.2957 109.035 39.8792 108.919 43.4628C103.642 44.0809 98.3744 44.6991 93.0977 45.3172Z" fill="#6D6C6C"/>
<path opacity="0.2" d="M107.307 30.2664C107.334 31.3056 107.28 32.5419 107.011 33.9126C106.348 37.2811 104.753 39.709 103.669 41.0797C104.404 42.0562 105.139 43.0327 105.882 44.0092C103.634 44.269 101.385 44.5289 99.1362 44.7887C99.4946 40.6855 99.8529 36.5823 100.211 32.4882C100.095 31.9506 99.9694 31.4131 99.8529 30.8756C102.335 30.6605 104.825 30.4635 107.307 30.2664Z" fill="#6D6C6C"/>
<path d="M101.071 18.5661C102.943 18.3152 105.174 22.6155 106.061 25.7063C107.082 29.263 106.634 32.3359 106.267 33.9574C105.55 37.1378 104.063 39.3775 103.131 40.587C103.275 41.0618 103.606 42.3519 103.06 43.7673C102.253 45.8368 100.067 46.8313 99.8972 46.6431C99.8434 46.5804 99.9509 46.3206 100.802 45.3441C100.623 45.5322 99.3328 46.8134 97.8814 46.5088C97.6306 46.455 97.317 46.3923 97.1379 46.1414C96.7168 45.5322 97.4156 44.1526 98.9028 42.6206C97.2812 43.0238 96.8512 42.9163 96.7705 42.7371C96.5645 42.3071 98.2219 41.0887 98.8221 40.6407C99.7091 39.9867 100.506 39.5388 101.053 39.261C102.585 36.0807 102.504 33.5991 102.37 32.4344C102.173 30.7143 101.528 28.8419 101.402 28.4835C101.044 27.4533 100.874 27.2203 100.157 25.3659C99.0013 22.3915 99.0013 21.8809 99.0461 21.4867C99.2074 20.3041 100.005 18.7094 101.071 18.5661Z" fill="white" stroke="#161616" stroke-width="0.4"/>
<path d="M97.1735 45.8906C98.168 45.3262 99.037 44.6005 99.7627 43.7226C99.8702 43.5882 99.682 43.4 99.5745 43.5344C98.8668 44.3945 98.0157 45.1112 97.0392 45.6666C96.8869 45.7383 97.0212 45.9712 97.1735 45.8906V45.8906Z" fill="#161616"/>
<path d="M98.0515 46.4908C99.037 45.9802 99.8791 45.2724 100.56 44.3945C100.667 44.2601 100.435 44.1257 100.327 44.2601C99.682 45.1022 98.8578 45.7741 97.9171 46.2579C97.7648 46.3385 97.8992 46.5715 98.0515 46.4908V46.4908Z" fill="#161616"/>
<path opacity="0.17" d="M100.318 18.9961C98.5355 20.546 105.81 27.3458 104.565 35.0683C103.714 40.363 100.184 43.8211 100.184 43.8211C99.1984 44.8066 97.3439 46.016 97.5679 46.4371C97.7292 46.7417 98.849 46.464 99.2522 46.3386C100.014 46.1056 100.542 45.7114 100.838 45.4516C100.39 45.9533 99.8793 46.5715 99.9868 46.6969C100.139 46.8582 101.411 46.1952 102.209 45.2635C103.588 43.6509 103.391 41.4112 103.257 40.4974C103.579 40.0763 104 39.485 104.43 38.7325C104.825 38.0606 105.962 35.9642 106.455 33.1153C107.324 28.0715 105.541 24.0937 104.825 22.5349C104.18 21.1463 103.087 18.8438 101.429 18.7453C101.214 18.7184 100.668 18.6915 100.318 18.9961Z" fill="#6D6C6C"/>
<path opacity="0.22" d="M106.356 32.9719C105.873 34.3785 105.299 35.8567 104.618 37.4066C104.135 38.5085 103.642 39.5388 103.14 40.5153C102.889 41.3216 102.415 42.531 101.474 43.7763C100.488 45.0843 99.4044 45.8816 98.6787 46.3385C98.8848 46.3475 99.1356 46.3296 99.4133 46.2579C100.112 46.0966 100.578 45.7114 100.811 45.4785C100.542 45.8189 100.264 46.1504 99.9957 46.4908C100.211 46.455 100.551 46.3923 100.927 46.2221C102.898 45.3351 103.31 42.9252 103.337 42.7639C103.409 42.325 103.454 41.5724 103.185 40.6407C103.83 39.8792 104.645 38.7414 105.299 37.2095C106.025 35.5252 106.267 34.0112 106.356 32.9719Z" fill="#6D6C6C"/>
<path d="M84.8467 12.6712C83.4043 14.3196 84.3987 16.622 84.5331 16.9356C85.0348 18.1002 86.3339 19.7576 87.9823 19.6232C89.1828 19.5157 89.9443 18.5034 90.1324 18.2346C91.4583 16.3264 91.0193 12.6801 88.7796 11.7395C87.5433 11.2198 85.8411 11.5244 84.8467 12.6712Z" fill="#5222D0"/>
<path d="M88.4835 14.1404C88.5463 14.8482 89.2898 15.0005 89.7915 16.1651C90.1499 17.0072 90.1499 17.8315 90.0872 18.4227C90.6695 18.4765 91.7446 18.5034 92.963 18.0375C93.9216 17.6702 94.5935 17.1416 94.9966 16.7743C94.8085 16.3532 94.5308 15.7351 94.1993 15.0005C92.7659 11.8738 92.5329 11.6051 92.1836 11.4707C90.786 10.9421 88.3671 12.8235 88.4835 14.1404Z" fill="white" stroke="#161616" stroke-width="0.4"/>
<path d="M83.3233 4.88595C83.0187 5.31597 82.8306 5.84455 82.8037 8.11114C82.7858 10.0462 82.8933 11.8111 83.0725 13.3789C83.4756 13.146 83.8788 12.9131 84.2819 12.6802C84.4611 13.1191 84.7657 13.7194 85.2853 14.3017C86.3156 15.4574 87.5698 15.8516 88.1253 15.9949C88.7076 15.8516 90.1589 15.4036 91.2609 14.0329C91.9865 13.1191 92.2195 12.2143 92.2732 12.0082C92.6047 10.6555 92.2822 9.53559 92.1119 9.06973C92.327 8.97119 92.6584 8.78305 92.9093 8.44261C93.4379 7.72591 93.5812 6.44479 92.9272 6.01476C92.4434 5.69225 91.5834 5.88038 90.9383 6.54334C90.795 6.21186 90.571 5.75496 90.2127 5.28014C90.1231 5.16367 89.4512 4.28571 88.627 3.8288C87.0412 2.915 84.4163 3.34503 83.3233 4.88595Z" fill="white" stroke="#161616" stroke-width="0.4"/>
<path d="M82.6693 7.69901C82.3109 7.6363 81.648 7.44816 81.3344 6.90168C80.7969 5.97891 81.5853 4.57237 81.7824 4.22298C81.9436 3.92734 82.3737 3.21959 84.2013 1.93847C85.5899 0.961956 86.2887 0.478178 87.0412 0.245248C89.711 -0.55209 92.1567 0.827573 92.6136 1.08738C93.5722 1.63387 94.1814 2.22515 94.6652 2.69101C95.4088 3.40772 96.242 4.23194 97.1737 5.18158C99.5657 8.28134 100.408 11.1123 100.748 12.8056C101.133 14.7228 101.528 16.6758 100.381 17.8225C99.2342 18.9692 97.1378 18.7363 95.8567 18.1898C94.0739 17.4283 93.3124 15.8157 92.7211 14.5705C91.7177 12.4382 91.655 10.3956 91.7536 9.06972C92.6495 8.80991 93.1064 7.96778 92.9003 7.3317C92.739 6.83 92.1388 6.32831 91.5206 6.50749C91.0458 6.64187 90.7054 7.13461 90.7323 7.70797C90.3022 7.69901 89.1555 7.60047 88.0625 6.77625C87.2652 6.17601 86.862 5.4593 86.6739 5.06511C86.1812 5.12782 85.1957 5.307 84.2013 6.02371C83.3681 6.59707 82.9022 7.28691 82.6693 7.69901Z" fill="#5222D0"/>
<path opacity="0.24" d="M88.6003 9.41015C89.6754 10.7092 90.0158 12.0799 90.0158 12.0799C90.3652 13.6208 89.8635 14.9288 89.6395 15.4574C90.204 15.0273 90.7773 14.5973 91.3417 14.1673C91.7359 15.4753 92.1212 16.7743 92.5153 18.0823C92.811 18.0554 93.4202 17.9479 94.0294 17.5179C94.4952 17.1864 94.773 16.8012 94.9253 16.5593C94.1996 15.8874 92.811 14.4002 92.1749 12.062C91.8703 10.9332 91.8255 9.92976 91.8613 9.17722C92.6766 8.84574 93.0977 8.0484 92.9274 7.38545C92.802 6.90167 92.3093 6.31934 91.6732 6.40893C91.1446 6.48956 90.7057 7.00918 90.7146 7.64525C90.3115 7.64525 89.3618 7.60046 88.3674 7.00022C87.3371 6.38206 86.8444 5.52201 86.6562 5.15469C86.701 6.87479 87.2296 7.86923 87.7044 8.46051C88.018 8.86366 88.1613 8.88158 88.6003 9.41015Z" fill="#6D6C6C"/>
<path d="M84.4343 9.03387C84.3357 9.39223 84.3447 9.75954 84.4791 10.1089C84.5239 10.2344 84.6941 10.2433 84.7389 10.1089C84.8464 9.78642 84.8464 9.44598 84.7478 9.12346C84.6941 8.9622 84.4343 9.02491 84.488 9.19513C84.5776 9.48181 84.5687 9.75954 84.4791 10.0462C84.5687 10.0462 84.6493 10.0462 84.7389 10.0462C84.6224 9.74162 84.6045 9.42806 84.6941 9.1145C84.7389 8.93532 84.488 8.86365 84.4343 9.03387V9.03387Z" fill="#161616"/>
<path d="M84.1117 8.47844C84.3446 8.3351 84.6313 8.36197 84.8284 8.55011C84.9538 8.66657 85.1419 8.47844 85.0165 8.36197C84.7388 8.09321 84.3088 8.03946 83.9773 8.24551C83.834 8.3351 83.9683 8.56803 84.1117 8.47844V8.47844Z" fill="#161616"/>
<path d="M85.0797 10.754C85.2499 10.754 85.2499 10.4852 85.0797 10.4852C84.9005 10.4852 84.9005 10.754 85.0797 10.754V10.754Z" fill="#161616"/>
<path d="M85.6709 9.97456C85.6709 9.98352 85.6709 9.99248 85.6709 10.0014C85.6709 10.0731 85.7336 10.1358 85.8053 10.1358C85.877 10.1358 85.9397 10.0731 85.9397 10.0014C85.9397 9.99248 85.9397 9.98352 85.9397 9.97456C85.9397 9.90289 85.877 9.84018 85.8053 9.84018C85.7336 9.84018 85.6709 9.89393 85.6709 9.97456V9.97456Z" fill="#161616"/>
<path d="M85.6975 10.6465C85.8677 10.6465 85.8677 10.3777 85.6975 10.3777C85.5273 10.3777 85.5273 10.6465 85.6975 10.6465V10.6465Z" fill="#161616"/>
<path d="M82.0066 9.44599C81.8991 9.80435 81.908 10.1717 82.0334 10.5211C82.0782 10.6465 82.2484 10.6465 82.2932 10.5211C82.4007 10.1985 82.4097 9.8581 82.3201 9.53558C82.2753 9.36536 82.0155 9.43703 82.0603 9.60725C82.1409 9.89394 82.132 10.1717 82.0334 10.4494C82.123 10.4494 82.2037 10.4494 82.2932 10.4494C82.1857 10.1448 82.1678 9.83122 82.2664 9.51766C82.3112 9.34745 82.0514 9.27577 82.0066 9.44599V9.44599Z" fill="#161616"/>
<path d="M81.8547 8.77407C82.0428 8.67553 82.3026 8.72032 82.4281 8.8995C82.5266 9.03388 82.7595 8.8995 82.661 8.76511C82.437 8.46947 82.0518 8.37092 81.7203 8.54114C81.568 8.62177 81.7024 8.8547 81.8547 8.77407V8.77407Z" fill="#161616"/>
<path d="M84.8732 13.6477C85.563 13.5223 86.1633 13.155 86.6112 12.6085C86.6918 12.5099 86.5485 12.3666 86.4679 12.4651C86.0468 12.9847 85.4824 13.3252 84.8194 13.4506C84.694 13.4775 84.7478 13.6746 84.8732 13.6477V13.6477Z" fill="#161616"/>
<path d="M86.2711 12.483C86.4324 12.5368 86.5667 12.6174 86.6832 12.7339C86.7728 12.8235 86.9161 12.6801 86.8265 12.5906C86.6832 12.4472 86.513 12.3487 86.3248 12.286C86.1994 12.2501 86.1457 12.4472 86.2711 12.483V12.483Z" fill="#161616"/>
<path opacity="0.45" d="M91.8525 0.764862C92.9903 2.34162 94.4506 4.57237 95.8392 7.42129C97.3085 10.4315 98.3835 12.6981 97.5504 13.5939C96.4484 14.7855 92.6409 12.8951 92.0317 12.5816C92.1571 13.3968 92.4707 14.6959 93.3935 15.9949C93.8593 16.6489 94.6746 17.8046 96.1797 18.3421C97.0845 18.6646 97.8908 18.6467 98.2044 18.6199C98.6254 18.593 99.1092 18.5571 99.6378 18.2705C99.6378 18.2705 100.328 17.9031 100.793 17.1506C101.501 16.0039 101.125 14.454 100.623 12.5099C100.023 10.1806 99.2167 8.63073 98.4283 7.09877C98.2312 6.7225 97.9983 6.28352 97.622 5.77286C97.2458 5.25325 96.968 4.97552 95.8034 3.85567C94.0743 2.18036 93.8056 1.93847 93.286 1.58908C92.7126 1.19489 92.2019 0.93508 91.8525 0.764862Z" fill="#371B9B"/>
<path opacity="0.43" d="M89.6933 16.0039C89.765 16.2099 89.9262 16.7923 89.6933 17.4373C89.3439 18.3959 88.3763 18.7184 88.224 18.7632C87.1221 19.1216 85.7335 18.5571 84.8018 17.3298C84.9272 17.6523 85.2049 18.2257 85.7783 18.7274C86.065 18.9782 86.8444 19.6501 87.9463 19.5695C88.1345 19.5516 89.3439 19.462 89.8993 18.4138C90.3025 17.6702 90.2129 16.7385 89.6933 16.0039Z" fill="#371B9B"/>
</svg>
