<svg width="156" height="105" viewBox="0 0 156 105" fill="none" xmlns="http://www.w3.org/2000/svg">
<path d="M66.367 84.3908C66.367 79.7945 66.367 75.1859 66.367 70.5896C66.367 70.3549 65.9963 70.3549 65.9963 70.5896C65.9963 75.1859 65.9963 79.7945 65.9963 84.3908C65.9963 84.638 66.367 84.638 66.367 84.3908V84.3908Z" fill="#E8E8E8"/>
<path d="M66.2806 70.5649C73.3109 70.5649 80.3289 70.5649 87.3593 70.5649C87.594 70.5649 87.594 70.1942 87.3593 70.1942C80.3289 70.1942 73.3109 70.1942 66.2806 70.1942C66.0458 70.1942 66.0458 70.5649 66.2806 70.5649V70.5649Z" fill="#E8E8E8"/>
<path d="M87.1738 70.7008C87.1738 75.05 87.1738 79.4115 87.1738 83.7607C87.1738 83.9954 87.5445 83.9954 87.5445 83.7607C87.5445 79.4115 87.5445 75.05 87.5445 70.7008C87.5445 70.466 87.1738 70.4537 87.1738 70.7008V70.7008Z" fill="#E8E8E8"/>
<path d="M67.6772 72.307C67.2818 71.9981 67.566 71.3556 68.0726 71.5163C68.3073 71.5904 68.468 71.8499 68.3444 72.0846C68.2085 72.3441 67.8502 72.3688 67.6772 72.1341C67.5413 71.9487 67.22 72.1341 67.356 72.3194C67.6401 72.6901 68.1838 72.8013 68.5297 72.4429C68.8757 72.097 68.8016 71.5163 68.4062 71.2568C68.0602 71.022 67.5413 71.0591 67.2818 71.4051C67.0224 71.751 67.0718 72.2823 67.4177 72.5541C67.6031 72.7148 67.8625 72.4553 67.6772 72.307V72.307Z" fill="#E8E8E8"/>
<path d="M85.0736 71.9982C84.7524 71.4174 85.5926 70.812 85.9756 71.4298C86.3339 72.0105 85.5061 72.48 85.0983 72.0352C84.9377 71.8622 84.6782 72.1217 84.8389 72.2947C85.1601 72.6406 85.7038 72.6777 86.0868 72.4059C86.4945 72.1217 86.5439 71.5781 86.2598 71.1827C85.9756 70.7873 85.4443 70.639 85.0366 70.9356C84.6535 71.2198 84.5053 71.7634 84.7524 72.1835C84.8636 72.3935 85.1848 72.2082 85.0736 71.9982V71.9982Z" fill="#E8E8E8"/>
<path d="M68.6531 73.382C73.3112 73.382 77.9569 73.382 82.615 73.382C82.8497 73.382 82.8497 73.0113 82.615 73.0113C77.9569 73.0113 73.3112 73.0113 68.6531 73.0113C68.4184 73.0113 68.4184 73.382 68.6531 73.382V73.382Z" fill="#E8E8E8"/>
<path d="M69.0359 74.148C72.2237 74.148 75.4114 74.148 78.5992 74.148C78.8339 74.148 78.8339 73.7773 78.5992 73.7773C75.4114 73.7773 72.2237 73.7773 69.0359 73.7773C68.8012 73.7773 68.8012 74.148 69.0359 74.148V74.148Z" fill="#E8E8E8"/>
<path d="M79.6863 74.2345C80.6871 74.2345 81.6879 74.2345 82.6887 74.2345C82.9235 74.2345 82.9235 73.8638 82.6887 73.8638C81.6879 73.8638 80.6871 73.8638 79.6863 73.8638C79.4392 73.8638 79.4392 74.2345 79.6863 74.2345V74.2345Z" fill="#E8E8E8"/>
<path d="M133.656 31.4964C140.242 31.4964 146.827 31.4964 153.4 31.4964C153.635 31.4964 153.635 31.1257 153.4 31.1257C146.815 31.1257 140.229 31.1257 133.656 31.1257C133.421 31.1257 133.421 31.4964 133.656 31.4964V31.4964Z" fill="#E8E8E8"/>
<path d="M144.171 31.1628C144.171 32.6949 144.171 34.227 144.171 35.7714C144.171 36.0062 144.541 36.0062 144.541 35.7714C144.541 34.2393 144.541 32.7072 144.541 31.1628C144.541 30.928 144.171 30.928 144.171 31.1628V31.1628Z" fill="#E8E8E8"/>
<path d="M138.536 36.1792C143.479 36.1792 148.433 36.1792 153.376 36.1792C153.61 36.1792 153.61 35.8085 153.376 35.8085C148.433 35.8085 143.479 35.8085 138.536 35.8085C138.302 35.8085 138.302 36.1792 138.536 36.1792V36.1792Z" fill="#E8E8E8"/>
<path d="M149.508 36.4263C149.508 37.9461 149.508 39.4534 149.508 40.9732C149.508 41.2079 149.879 41.2079 149.879 40.9732C149.879 39.4534 149.879 37.9461 149.879 36.4263C149.879 36.1916 149.508 36.1916 149.508 36.4263V36.4263Z" fill="#E8E8E8"/>
<path d="M55.4449 14.5939C55.0372 13.9761 55.2596 13.1483 55.9762 12.8765C56.6434 12.6294 57.4218 13.0247 57.6195 13.7167C57.8049 14.3468 57.3601 15.0511 56.7299 15.224C55.9639 15.4341 55.2596 14.7792 55.2225 14.0379C55.2102 13.8031 54.8395 13.8031 54.8519 14.0379C54.8889 14.9522 55.692 15.7677 56.6434 15.6194C57.5454 15.4835 58.2249 14.5074 57.9655 13.6178C57.706 12.7282 56.7176 12.1846 55.8403 12.5182C54.9136 12.8641 54.5677 13.9514 55.1113 14.7792C55.2472 14.9769 55.5685 14.7916 55.4449 14.5939V14.5939Z" fill="#E8E8E8"/>
<path d="M53.394 12.2216C53.8017 11.5297 54.3948 10.9984 55.1608 10.739C55.3832 10.6648 55.2844 10.3065 55.062 10.3806C54.2094 10.6648 53.5175 11.2579 53.0727 12.0363C52.9492 12.2463 53.2704 12.4317 53.394 12.2216V12.2216Z" fill="#E8E8E8"/>
<path d="M54.8147 9.52807C54.9012 9.87403 55.0001 10.2076 55.0866 10.5536C55.1483 10.7883 55.5067 10.6895 55.4449 10.4547C55.3584 10.1088 55.2595 9.77518 55.1731 9.42923C55.1113 9.20682 54.753 9.30567 54.8147 9.52807V9.52807Z" fill="#E8E8E8"/>
<path d="M55.1113 9.45394C55.5191 9.41688 55.9268 9.37981 56.3345 9.36745C56.3839 9.36745 56.5693 9.33039 56.6064 9.3551C56.6558 9.39217 56.6558 9.5775 56.6681 9.62692C56.7052 9.83697 56.7299 10.047 56.7546 10.2571C56.7793 10.4918 57.1624 10.4918 57.1253 10.2571C57.0882 9.96052 57.0512 9.66399 57.0141 9.36745C56.9894 9.21919 56.9523 9.08328 56.804 9.00914C56.594 8.9103 56.2975 8.98443 56.0751 8.99679C55.7538 9.00914 55.4449 9.04621 55.1237 9.07092C54.8766 9.10799 54.8766 9.47865 55.1113 9.45394V9.45394Z" fill="#E8E8E8"/>
<path d="M53.1344 11.9992C52.8749 11.9004 52.3065 11.5297 52.0965 11.8633C51.9729 12.061 51.9977 12.407 51.9606 12.6294C51.8988 13.0124 51.837 13.3954 51.7753 13.7908C51.7629 13.8773 51.7876 13.9514 51.8617 14.0008C52.1459 14.1738 52.4177 14.2479 52.7513 14.1985C52.9861 14.1738 52.9861 13.8031 52.7513 13.8279C52.4919 13.8649 52.2818 13.8155 52.0471 13.6796C52.0718 13.7537 52.1089 13.8155 52.1336 13.8896C52.2077 13.4201 52.2818 12.9506 52.356 12.4811C52.3683 12.3699 52.393 12.2587 52.4054 12.1475C52.4301 12.0116 52.2942 12.0857 52.4054 12.1228C52.6154 12.1846 52.8255 12.2834 53.0355 12.3575C53.2579 12.444 53.3568 12.0857 53.1344 11.9992V11.9992Z" fill="#E8E8E8"/>
<path d="M52.6028 14.1368C52.6152 14.8905 52.9241 15.5947 53.5048 16.0889C53.6901 16.2372 53.9496 15.9777 53.7643 15.8295C53.2577 15.397 52.9859 14.804 52.9735 14.1368C52.9612 13.902 52.5905 13.902 52.6028 14.1368V14.1368Z" fill="#E8E8E8"/>
<path d="M53.5546 15.9283C53.1963 16.2001 52.5786 16.5214 52.9863 17.0156C53.394 17.5098 54.0859 17.8805 54.6419 18.1647C54.852 18.2759 55.0373 17.9546 54.8273 17.8434C54.4319 17.6457 54.0612 17.4233 53.7153 17.1515C53.567 17.0403 53.184 16.8179 53.2952 16.5955C53.357 16.4472 53.6906 16.2866 53.8141 16.1878C53.9995 16.0519 53.74 15.7924 53.5546 15.9283V15.9283Z" fill="#E8E8E8"/>
<path d="M54.8765 18.14C55.0989 17.8311 55.2966 17.5222 55.4819 17.1886C55.6055 16.9785 55.2843 16.7932 55.1607 17.0033C54.9754 17.3369 54.7653 17.6457 54.5553 17.9546C54.407 18.14 54.7406 18.3253 54.8765 18.14V18.14Z" fill="#E8E8E8"/>
<path d="M55.2104 17.028C55.3463 17.3863 55.7417 17.411 56.0876 17.4604C56.5819 17.5469 57.0637 17.5593 57.5333 17.3986C57.7557 17.3245 57.6568 16.9662 57.4344 17.0403C57.1379 17.1392 56.829 17.1639 56.5077 17.1392C56.3595 17.1268 55.6305 17.0897 55.5564 16.9168C55.4822 16.7191 55.1239 16.8056 55.2104 17.028V17.028Z" fill="#E8E8E8"/>
<path d="M57.2117 17.2751C57.2982 17.5716 57.3476 18.1523 57.5947 18.3624C57.7924 18.5353 58.1631 18.3871 58.3608 18.3376C58.7808 18.2388 59.1886 18.0905 59.584 17.9176C59.8434 17.794 60.1276 17.7199 60.1647 17.411C60.1894 17.1762 59.8187 17.1762 59.794 17.411C59.7816 17.4851 59.0774 17.7322 59.0403 17.7446C58.8426 17.8187 58.6449 17.8805 58.4472 17.9299C58.2125 17.9917 57.9901 18.1152 57.8047 17.8681C57.6812 17.7075 57.6441 17.3492 57.5947 17.1639C57.4959 16.9415 57.1375 17.0403 57.2117 17.2751V17.2751Z" fill="#E8E8E8"/>
<path d="M60.1523 17.411C60.0411 17.0033 59.8682 16.6202 59.6087 16.2866C59.4604 16.1013 59.1392 16.2866 59.2874 16.472C59.5222 16.7809 59.6952 17.1268 59.794 17.5098C59.8558 17.7446 60.2141 17.6458 60.1523 17.411V17.411Z" fill="#E8E8E8"/>
<path d="M59.3494 16.509C59.6212 16.4843 59.7324 16.2743 59.8189 16.0395C59.9672 15.6565 60.0907 15.2611 60.1772 14.8534C60.2267 14.6186 59.8683 14.5198 59.8189 14.7545C59.7695 14.9893 59.7077 15.224 59.6336 15.4588C59.6089 15.5576 59.4606 16.126 59.3494 16.1384C59.1147 16.1631 59.1147 16.5337 59.3494 16.509V16.509Z" fill="#E8E8E8"/>
<path d="M56.8903 10.4919C57.434 10.6031 57.8788 10.8872 58.2371 11.3073C58.3854 11.4927 58.6572 11.2332 58.4966 11.0479C58.1012 10.5783 57.5823 10.2571 56.9892 10.1335C56.7544 10.0965 56.6556 10.4548 56.8903 10.4919V10.4919Z" fill="#E8E8E8"/>
<path d="M58.4718 11.1467C58.6077 10.9737 58.7313 10.7884 58.8672 10.6154C58.9413 10.5042 59.0278 10.4053 59.102 10.2941C59.2132 10.2447 59.2997 10.2818 59.3614 10.4053C59.7074 10.6401 60.0039 11.0849 60.2881 11.3938C60.2758 11.3197 60.2634 11.2455 60.2634 11.1714C60.0781 11.5421 59.8433 11.8757 59.5468 12.1598C59.3738 12.3328 59.6333 12.5923 59.8062 12.4193C60.1275 12.0981 60.387 11.7521 60.5846 11.3444C60.6217 11.2702 60.6094 11.1837 60.5599 11.122C60.2881 10.8378 60.0163 10.5413 59.7568 10.2571C59.6209 10.1088 59.4726 9.88641 59.2626 9.84934C58.7931 9.77521 58.3853 10.6648 58.1753 10.949C58.0147 11.1467 58.3359 11.332 58.4718 11.1467V11.1467Z" fill="#E8E8E8"/>
<path d="M59.3001 12.4811C59.3989 12.617 59.4607 12.7653 59.4978 12.9259C59.5596 13.1607 59.9179 13.0618 59.8561 12.8271C59.8067 12.6418 59.7325 12.4564 59.6213 12.2958C59.5596 12.2093 59.4607 12.1722 59.3619 12.234C59.2877 12.2711 59.2507 12.3946 59.3001 12.4811V12.4811Z" fill="#E8E8E8"/>
<path d="M59.7941 13C60.1648 12.9506 60.5231 12.8765 60.8814 12.7776C61.1162 12.7158 61.0173 12.3575 60.7826 12.4193C60.4242 12.5181 60.0536 12.5923 59.6953 12.6417C59.4605 12.6788 59.5594 13.0371 59.7941 13V13Z" fill="#E8E8E8"/>
<path d="M60.6587 12.7406C60.8317 13.3336 60.9182 13.939 60.9429 14.5692C60.9553 14.8039 61.3259 14.8039 61.3136 14.5692C61.2889 13.9143 61.19 13.2718 61.017 12.6417C60.9429 12.407 60.5846 12.5058 60.6587 12.7406V12.7406Z" fill="#E8E8E8"/>
<path d="M60.968 14.5321C60.6714 14.6557 60.3749 14.668 60.066 14.5568C59.8436 14.4827 59.7448 14.841 59.9672 14.9152C60.3255 15.0387 60.7085 15.0264 61.0668 14.8904C61.2892 14.804 61.1904 14.4456 60.968 14.5321V14.5321Z" fill="#E8E8E8"/>
<path d="M46.8576 10.4301C45.2637 10.3312 44.4606 8.55201 45.3008 7.22996C45.9556 6.17974 47.5371 5.90791 48.5256 6.62454C49.4646 7.31645 49.6994 8.81148 48.9951 9.73815C48.2538 10.7142 46.7958 10.8131 45.8568 10.0965C45.6714 9.9482 45.4861 10.2694 45.6714 10.4177C46.8081 11.2826 48.6121 11.0479 49.4028 9.82464C50.1936 8.60144 49.7241 6.77281 48.4144 6.11796C47.1047 5.47546 45.3873 6.05618 44.8065 7.40294C44.1393 8.97211 45.1772 10.7019 46.8699 10.8131C47.0923 10.8131 47.0923 10.4424 46.8576 10.4301V10.4301Z" fill="#E8E8E8"/>
<path d="M41.4953 10.5907C40.9763 9.26864 40.9146 7.87246 41.3964 6.53805C41.4829 6.31565 41.1246 6.2168 41.0381 6.43921C40.5315 7.83539 40.5933 9.31807 41.137 10.6895C41.2235 10.9119 41.5818 10.8131 41.4953 10.5907V10.5907Z" fill="#E8E8E8"/>
<path d="M39.5554 5.66081C40.1114 5.89557 40.655 6.14268 41.211 6.37744C41.4334 6.47628 41.6188 6.15504 41.3964 6.05619C40.8404 5.82143 40.2967 5.57432 39.7407 5.33957C39.5307 5.25308 39.333 5.56197 39.5554 5.66081V5.66081Z" fill="#E8E8E8"/>
<path d="M39.6423 5.216C40.0006 4.64764 40.3589 4.00515 40.816 3.49857C40.9396 3.36265 41.1249 3.11554 41.335 3.14025C41.4338 3.15261 41.6192 3.31323 41.7057 3.36265C42.0145 3.54799 42.3234 3.73332 42.6323 3.91866C42.8424 4.04221 43.0277 3.72097 42.8177 3.59741C42.3852 3.33794 41.9651 3.04141 41.508 2.81901C41.2856 2.70781 41.1249 2.65838 40.9025 2.78194C40.6184 2.95492 40.396 3.42443 40.2106 3.6839C39.9017 4.1287 39.6052 4.5735 39.3087 5.03066C39.1975 5.22835 39.5187 5.41369 39.6423 5.216V5.216Z" fill="#E8E8E8"/>
<path d="M41.1247 10.7266C40.8035 10.9243 40.161 11.159 39.9386 11.4679C39.8397 11.6038 39.8397 11.7027 39.8892 11.8633C40.0127 12.1969 40.5564 12.6046 40.7911 12.8641C41.2236 13.3336 41.656 13.8031 42.0885 14.2726C42.1255 14.3221 42.212 14.3468 42.2738 14.3221C42.7927 14.1491 43.1757 13.8402 43.4476 13.3707C43.5711 13.1606 43.2499 12.9753 43.1263 13.1853C43.0028 13.3954 42.8298 13.6425 42.6074 13.766C42.3232 13.9143 42.2491 13.8649 42.0267 13.6672C41.6684 13.3707 41.3718 12.9506 41.0506 12.6046C40.89 12.4316 40.7293 12.2463 40.5564 12.0733C40.4946 12.0115 40.2228 11.7644 40.2228 11.715C40.2228 11.6162 41.2112 11.1096 41.2977 11.0602C41.5201 10.9243 41.3348 10.603 41.1247 10.7266V10.7266Z" fill="#E8E8E8"/>
<path d="M43.4104 13.519C44.4113 14.2727 45.6345 14.5816 46.87 14.3344C47.1048 14.285 47.0059 13.9267 46.7712 13.9761C45.6345 14.1985 44.5225 13.8896 43.6081 13.1977C43.4104 13.0495 43.2251 13.3707 43.4104 13.519V13.519Z" fill="#E8E8E8"/>
<path d="M46.8205 14.1985C46.8081 14.9275 46.561 16.0766 47.6112 16.0025C48.6985 15.916 49.8229 15.4712 50.799 15.014C51.009 14.9152 50.8237 14.5939 50.6137 14.6928C49.9218 15.014 49.2051 15.2735 48.4761 15.4588C48.1055 15.5453 47.673 15.743 47.3765 15.4835C47.08 15.2241 47.2035 14.5816 47.2035 14.1985C47.1912 13.9514 46.8205 13.9514 46.8205 14.1985V14.1985Z" fill="#E8E8E8"/>
<path d="M50.9104 14.8657C50.7374 14.248 50.5273 13.6425 50.2926 13.0495C50.2061 12.8271 49.8478 12.9259 49.9343 13.1483C50.169 13.7414 50.3791 14.3468 50.552 14.9646C50.6138 15.187 50.9721 15.0881 50.9104 14.8657V14.8657Z" fill="#E8E8E8"/>
<path d="M49.9838 13.0741C50.5645 13.2965 51.1575 12.5552 51.5282 12.1969C52.0595 11.6903 52.5043 11.122 52.7514 10.4177C52.8256 10.1953 52.4672 10.0964 52.3931 10.3188C52.2078 10.8625 51.8865 11.3073 51.4911 11.715C51.2317 11.9745 50.478 12.8641 50.0826 12.7158C49.8602 12.6293 49.7614 12.9877 49.9838 13.0741V13.0741Z" fill="#E8E8E8"/>
<path d="M52.4054 10.6772C52.7514 10.8131 53.0973 10.949 53.4433 11.0973C53.641 11.1714 53.9375 11.3567 54.1599 11.3073C54.5924 11.2085 54.8024 10.4301 54.9507 10.0841C55.2102 9.47869 55.4202 8.86091 55.5685 8.21841C55.655 7.87246 55.8774 7.34116 55.5067 7.11876C55.309 6.99521 55.1237 7.31645 55.3214 7.44001C55.4573 7.5265 55.099 8.58908 55.0495 8.7497C54.9136 9.20686 54.7406 9.66402 54.5429 10.0965C54.4565 10.2818 54.3823 10.5166 54.2588 10.6648C54.0611 10.9119 54.0734 10.8996 53.7398 10.8254C53.3197 10.7266 52.8873 10.4918 52.4919 10.3312C52.2819 10.2324 52.183 10.5907 52.4054 10.6772V10.6772Z" fill="#E8E8E8"/>
<path d="M55.6053 7.14346C54.9381 6.84693 54.2586 6.68631 53.5296 6.67395C53.2948 6.67395 53.2948 7.04462 53.5296 7.04462C54.1844 7.05697 54.8146 7.19289 55.42 7.46471C55.63 7.5512 55.8154 7.24231 55.6053 7.14346V7.14346Z" fill="#E8E8E8"/>
<path d="M53.4926 7.01992C53.7521 6.6369 53.4308 6.20445 53.2208 5.87085C52.8995 5.3272 52.5165 4.82062 52.1211 4.32639C51.9729 4.14106 51.7134 4.40053 51.8617 4.58586C52.1458 4.93182 52.4177 5.30249 52.6771 5.68551C52.8377 5.93262 53.369 6.55041 53.1837 6.83459C53.0478 7.03228 53.369 7.21761 53.4926 7.01992V7.01992Z" fill="#E8E8E8"/>
<path d="M42.9285 3.94336C43.6452 3.33794 44.5101 3.0414 45.4491 3.01669C45.6838 3.00434 45.6838 2.63367 45.4491 2.64602C44.4112 2.67073 43.4598 3.01669 42.6691 3.6839C42.4837 3.83216 42.7556 4.09163 42.9285 3.94336V3.94336Z" fill="#E8E8E8"/>
<path d="M45.4121 2.7078C45.2639 2.16415 45.0785 1.63286 44.955 1.07686C44.7943 0.3973 45.7334 0.520856 46.1905 0.48379C46.623 0.446723 47.4384 0.211966 47.7103 0.632057C47.9821 1.0645 48.0562 1.78113 48.1057 2.263C48.1304 2.49776 48.501 2.49776 48.4763 2.263C48.4022 1.49695 48.1921 0.780324 47.8709 0.0884096C47.8462 0.0389872 47.7721 -0.0104353 47.7103 0.00192028C47.0801 0.0513428 46.4624 0.100765 45.8322 0.150188C45.511 0.174899 45.0044 0.113121 44.7202 0.323166C44.4978 0.496145 44.5102 0.780325 44.5472 1.02744C44.6337 1.62051 44.8808 2.22593 45.0415 2.80665C45.1156 3.02905 45.4739 2.94256 45.4121 2.7078V2.7078Z" fill="#E8E8E8"/>
<path d="M48.2166 2.80664C48.4884 2.819 48.7479 2.89313 48.995 3.00433C49.205 3.10317 49.4027 2.78193 49.1803 2.68308C48.8714 2.54717 48.5502 2.46068 48.2166 2.43597C47.9818 2.42362 47.9818 2.79428 48.2166 2.80664V2.80664Z" fill="#E8E8E8"/>
<path d="M49.2547 2.819C49.5759 2.27535 49.8601 1.70699 50.1072 1.12628C50.2061 0.903875 49.8848 0.71854 49.786 0.940941C49.5389 1.52166 49.2547 2.09001 48.9335 2.63366C48.8223 2.83135 49.1435 3.02904 49.2547 2.819V2.819Z" fill="#E8E8E8"/>
<path d="M50.0206 1.31161C50.9967 1.71934 51.911 2.25063 52.7759 2.88077C52.9736 3.02904 53.1466 2.69543 52.9613 2.55952C52.084 1.90468 51.1326 1.37338 50.1195 0.953292C49.8971 0.854447 49.7982 1.21276 50.0206 1.31161V1.31161Z" fill="#E8E8E8"/>
<path d="M52.776 2.97963C52.6154 3.49857 52.3065 3.93101 51.837 4.22755C51.6393 4.3511 51.8246 4.67235 52.0223 4.54879C52.5659 4.20284 52.949 3.69626 53.1219 3.07848C53.2084 2.84372 52.8501 2.74487 52.776 2.97963V2.97963Z" fill="#E8E8E8"/>
<path d="M137.572 72.4429C137.906 76.0261 138.499 79.5721 139.352 83.0688C139.413 83.3035 139.772 83.2047 139.71 82.9699C138.87 79.5103 138.277 75.989 137.943 72.4429C137.918 72.1958 137.548 72.1958 137.572 72.4429V72.4429Z" fill="#E8E8E8"/>
<path d="M137.758 72.5047C139.513 72.9742 141.452 72.8136 143.244 72.826C145.221 72.8383 147.198 72.826 149.175 72.8013C149.409 72.8013 149.409 72.4306 149.175 72.4306C147.272 72.4553 145.381 72.4677 143.479 72.4553C141.638 72.4429 139.636 72.6283 137.845 72.1464C137.622 72.0846 137.523 72.4429 137.758 72.5047V72.5047Z" fill="#E8E8E8"/>
<path d="M149.076 72.5788C148.989 76.162 148.483 79.708 147.581 83.18C147.519 83.4147 147.877 83.5136 147.939 83.2788C148.853 79.7822 149.36 76.1867 149.446 72.5788C149.446 72.3441 149.076 72.3441 149.076 72.5788V72.5788Z" fill="#E8E8E8"/>
<path d="M139.327 83.1552C139.883 83.5012 140.501 83.6124 141.144 83.6742C142.058 83.7607 142.972 83.7977 143.886 83.8225C144.776 83.8472 145.666 83.8348 146.555 83.7977C147.111 83.773 147.667 83.7236 148.063 83.2788C148.223 83.1058 147.964 82.834 147.803 83.0193C147.346 83.5383 146.469 83.4271 145.839 83.4518C145.11 83.4641 144.381 83.4641 143.664 83.4394C142.367 83.4024 140.674 83.5259 139.537 82.834C139.315 82.7104 139.13 83.0317 139.327 83.1552V83.1552Z" fill="#E8E8E8"/>
<path d="M137.968 72.4306C141.687 73.0236 145.455 72.4182 149.187 72.863C149.422 72.8877 149.422 72.5171 149.187 72.4924C145.493 72.0599 141.749 72.6653 138.067 72.0723C137.832 72.0352 137.733 72.3935 137.968 72.4306V72.4306Z" fill="#E8E8E8"/>
<path d="M138.055 76.0508C138.722 77.4964 139.439 78.9049 140.242 80.2888C140.934 81.4873 141.675 82.6487 142.663 83.6248C142.836 83.7978 143.096 83.526 142.923 83.3653C141.91 82.3522 141.156 81.1413 140.452 79.9058C139.698 78.5961 139.019 77.2493 138.388 75.8778C138.277 75.6431 137.956 75.8284 138.055 76.0508V76.0508Z" fill="#E8E8E8"/>
<path d="M138.833 72.4429C140.686 76.372 142.91 80.1281 145.455 83.6495C145.591 83.8348 145.913 83.6618 145.777 83.4641C143.219 79.9428 141.007 76.1867 139.154 72.2576C139.055 72.0352 138.734 72.2329 138.833 72.4429V72.4429Z" fill="#E8E8E8"/>
<path d="M142.045 72.8012C143.528 76.1743 145.394 79.3497 147.618 82.278C147.766 82.4633 148.087 82.278 147.939 82.0927C145.715 79.1644 143.849 75.989 142.367 72.6159C142.28 72.3935 141.959 72.5788 142.045 72.8012V72.8012Z" fill="#E8E8E8"/>
<path d="M144.665 72.7395C145.653 74.9388 146.876 77.0145 148.322 78.942C148.458 79.1273 148.779 78.942 148.643 78.7567C147.198 76.8292 145.974 74.7535 144.986 72.5542C144.887 72.3441 144.566 72.5294 144.665 72.7395V72.7395Z" fill="#E8E8E8"/>
<path d="M147.222 72.9619C147.704 73.938 148.235 74.8894 148.816 75.816C148.94 76.0137 149.261 75.8284 149.137 75.6307C148.557 74.704 148.025 73.7526 147.544 72.7765C147.432 72.5665 147.111 72.7518 147.222 72.9619V72.9619Z" fill="#E8E8E8"/>
<path d="M140.908 72.2576C139.364 71.0962 138.227 69.5147 137.609 67.686C137.585 67.7602 137.548 67.8219 137.523 67.8961C137.758 67.7725 137.992 67.649 138.227 67.5254C138.338 67.4636 138.338 67.3277 138.264 67.2289C137.115 65.8327 137.375 63.5716 137.251 61.8665C137.103 59.8773 136.893 57.9004 136.633 55.9235C136.535 55.9729 136.448 56.0347 136.349 56.0841C138.771 57.6903 140.241 60.2603 141.304 62.8921C142.502 65.8574 143.553 69.0575 143.478 72.2947C143.478 72.5294 143.849 72.5294 143.849 72.2947C143.923 68.9092 142.811 65.5238 141.514 62.4349C140.427 59.8402 138.932 57.3444 136.535 55.7629C136.423 55.6887 136.238 55.7876 136.25 55.9235C136.547 58.1475 136.769 60.3715 136.918 62.6079C137.029 64.2512 136.88 66.1416 137.98 67.5007C137.992 67.4019 138.005 67.303 138.017 67.2042C137.782 67.3277 137.548 67.4513 137.313 67.5748C137.239 67.6119 137.202 67.7107 137.226 67.7849C137.881 69.7124 139.08 71.368 140.698 72.5789C140.908 72.7148 141.094 72.3935 140.908 72.2576V72.2576Z" fill="#E8E8E8"/>
<path d="M143.12 66.5617C143.466 65.7833 143.825 64.9925 144.171 64.2141C144.331 63.8558 144.492 63.4975 144.652 63.1515C144.776 62.8797 145.221 61.5823 145.752 62.1631C145.851 62.2743 146.024 62.2125 146.061 62.0766C146.58 60.5198 147.766 59.383 148.841 58.2093C149.978 56.9737 151.04 55.664 152.004 54.3049C151.893 54.2678 151.769 54.2431 151.658 54.206C151.633 59.1483 151.497 64.8195 147.494 68.3409C147.383 68.4397 147.457 68.6127 147.581 68.6498C148.693 69.0204 147.914 70.3425 147.469 70.9108C147.062 71.4298 146.592 71.8993 146.098 72.3317C145.913 72.4924 146.185 72.7518 146.357 72.5912C147.124 71.924 148.1 71.0344 148.433 70.0336C148.668 69.3293 148.421 68.5386 147.692 68.2914C147.717 68.3903 147.741 68.5015 147.778 68.6003C151.856 65.0048 152.029 59.2348 152.053 54.1937C152.053 53.996 151.806 53.9589 151.707 54.0948C150.633 55.6022 149.459 57.0108 148.198 58.3575C147.185 59.4325 146.197 60.5321 145.727 61.953C145.826 61.9283 145.937 61.9036 146.036 61.8665C145.443 61.224 144.801 61.953 144.541 62.4967C143.948 63.7693 143.392 65.0543 142.811 66.3393C142.7 66.5864 143.021 66.7841 143.12 66.5617V66.5617Z" fill="#E8E8E8"/>
<path d="M137.536 58.3946C139.834 62.855 141.452 67.6366 142.354 72.5789C142.391 72.8136 142.75 72.7148 142.713 72.48C141.811 67.5131 140.167 62.6944 137.857 58.2093C137.746 57.9992 137.424 58.1846 137.536 58.3946V58.3946Z" fill="#E8E8E8"/>
<path d="M144.035 72.0352C145.344 67.9331 147.618 64.2511 149.879 60.6062C150.002 60.4085 149.681 60.2109 149.558 60.4209C147.284 64.0905 144.998 67.7972 143.676 71.9363C143.615 72.1587 143.96 72.2576 144.035 72.0352V72.0352Z" fill="#E8E8E8"/>
<path d="M147.507 59.0989C146.827 61.4588 146.407 63.8681 146.222 66.3269C146.209 66.5617 146.58 66.5617 146.592 66.3269C146.778 63.9176 147.198 61.5329 147.865 59.1977C147.927 58.9753 147.581 58.8765 147.507 59.0989V59.0989Z" fill="#E8E8E8"/>
<path d="M137.128 63.1515C138.907 64.0411 140.303 65.462 141.156 67.2659C141.255 67.476 141.576 67.2906 141.477 67.0806C140.6 65.2396 139.142 63.7446 137.313 62.8426C137.103 62.7314 136.918 63.0527 137.128 63.1515V63.1515Z" fill="#E8E8E8"/>
<path d="M140.143 60.668C140.007 61.6688 139.92 62.682 139.871 63.6952C139.859 63.9299 140.229 63.9299 140.242 63.6952C140.291 62.682 140.39 61.6812 140.513 60.668C140.55 60.4209 140.18 60.4333 140.143 60.668V60.668Z" fill="#E8E8E8"/>
<path d="M150.286 56.1212C149.792 57.5544 149.496 59.0371 149.397 60.5445C149.384 60.7792 149.755 60.7792 149.767 60.5445C149.866 59.0618 150.163 57.6162 150.645 56.22C150.731 55.9976 150.373 55.8988 150.286 56.1212V56.1212Z" fill="#E8E8E8"/>
<path d="M18.0444 33.3745C19.4035 33.9922 20.9727 34.437 22.3936 33.7698C23.6909 33.1644 24.5435 31.8547 25.8902 31.3605C27.62 30.7427 29.2757 32.0524 30.8819 32.4972C32.5376 32.9544 34.2921 32.8185 35.8736 32.176C36.096 32.0895 35.9971 31.7312 35.7747 31.8177C34.1191 32.4972 32.2781 32.5961 30.573 32.0153C29.1892 31.5458 27.8301 30.6192 26.3103 30.8786C25.0501 31.0887 24.1605 32.0895 23.1967 32.8308C22.5419 33.3374 21.8252 33.6957 20.9851 33.7328C20.0337 33.7698 19.0947 33.4362 18.2421 33.0532C18.0197 32.9544 17.8344 33.2756 18.0444 33.3745V33.3745Z" fill="#E8E8E8"/>
<path d="M28.2008 28.8276C29.3869 29.4948 30.7337 29.7913 32.0928 29.6554C33.5508 29.5072 34.6751 28.8152 35.8983 28.0616C38.5795 26.4183 41.9155 26.1835 44.8191 27.3696C45.0415 27.4561 45.1404 27.0978 44.918 27.0113C42.3974 25.9735 39.5062 25.9858 36.998 27.0607C35.5895 27.6662 34.428 28.7535 32.9206 29.1241C31.3885 29.5072 29.7576 29.26 28.3861 28.494C28.1761 28.3952 27.9908 28.7164 28.2008 28.8276V28.8276Z" fill="#E8E8E8"/>
<path d="M56.0628 39.6388C61.8576 39.6388 67.6647 39.6388 73.4595 39.6388C73.6943 39.6388 73.6943 39.2681 73.4595 39.2681C67.6647 39.2681 61.8576 39.2681 56.0628 39.2681C55.828 39.2681 55.828 39.6388 56.0628 39.6388V39.6388Z" fill="#E8E8E8"/>
<path d="M61.8944 42.7524C61.8944 41.6404 61.8944 40.5284 61.8944 39.4164C61.8944 39.1816 61.5237 39.1816 61.5237 39.4164C61.5237 40.5284 61.5237 41.6404 61.5237 42.7524C61.5237 42.9995 61.8944 42.9995 61.8944 42.7524V42.7524Z" fill="#E8E8E8"/>
<path d="M68.0599 39.1198C68.0599 37.736 68.0599 36.3522 68.0599 34.9807C68.0599 34.7459 67.6892 34.7459 67.6892 34.9807C67.6892 36.3645 67.6892 37.7484 67.6892 39.1198C67.6892 39.3546 68.0599 39.3546 68.0599 39.1198V39.1198Z" fill="#E8E8E8"/>
<path d="M62.8211 34.2517C65.8482 34.2517 68.8877 34.2517 71.9148 34.2517C72.1496 34.2517 72.1496 33.881 71.9148 33.881C68.8877 33.881 65.8482 33.881 62.8211 33.881C62.5863 33.881 62.5863 34.2517 62.8211 34.2517V34.2517Z" fill="#E8E8E8"/>
<path d="M80.6625 6.06853C78.5744 3.7951 82.4911 -0.615858 84.7275 2.11473C85.6418 3.22674 85.753 4.89475 85.0364 6.13031C84.2951 7.42765 82.417 7.92188 81.3174 6.7728C81.1567 6.59983 80.8849 6.85929 81.0579 7.03227C81.9228 7.93423 83.356 8.02072 84.3939 7.35352C85.5677 6.59983 86.0249 5.08008 85.8395 3.74568C85.6665 2.53483 84.8634 1.27455 83.6526 0.916239C82.3552 0.54557 81.0703 1.45989 80.3783 2.51011C79.6246 3.67154 79.427 5.25306 80.4154 6.328C80.5637 6.50098 80.8231 6.24151 80.6625 6.06853V6.06853Z" fill="#EC615B"/>
<path d="M85.012 10.4177C84.8761 10.0965 85.012 9.70108 85.2962 9.50339C85.6298 9.26863 86.0499 9.4169 86.26 9.73814C86.7048 10.4177 85.8399 11.0849 85.2221 10.6895C85.0244 10.5536 84.8391 10.8749 85.0368 11.0108C85.4692 11.295 86.0499 11.2208 86.4329 10.8749C86.853 10.4918 86.8407 9.8617 86.4947 9.42925C85.6669 8.42845 84.2213 9.47868 84.6908 10.603C84.7773 10.8131 85.0985 10.6277 85.012 10.4177V10.4177Z" fill="#EC615B"/>
<path d="M5.50322 82.068C5.42909 81.5861 5.79975 81.1537 6.25691 81.0919C6.66465 81.0425 6.91176 81.3637 7.19594 81.5738C7.49247 81.7962 7.88785 81.9939 8.27088 81.8209C8.71568 81.5985 8.60448 80.9684 9.08635 80.7707C9.86475 80.4371 10.4949 81.2278 10.915 81.7591C11.0138 81.8827 11.2362 81.7838 11.2362 81.6232C11.1992 80.5359 13.0031 81.2278 13.5838 81.2155C13.8186 81.2155 13.8186 80.8448 13.5838 80.8448C12.9042 80.8571 12.2247 80.4618 11.5451 80.7089C11.125 80.8571 10.8408 81.1784 10.8532 81.6232C10.9644 81.5738 11.0632 81.5367 11.1744 81.4873C10.7049 80.8942 10.1366 80.2394 9.29639 80.3135C9.04928 80.3382 8.80217 80.4247 8.61684 80.5977C8.33266 80.8571 8.30795 81.5491 7.78901 81.4749C7.39363 81.4132 7.10945 80.9066 6.73878 80.7583C6.46696 80.6471 6.17042 80.6595 5.8986 80.783C5.35495 81.0178 5.05842 81.5614 5.15726 82.1421C5.18197 82.4016 5.54029 82.3028 5.50322 82.068V82.068Z" fill="#EC615B"/>
<path d="M4.97201 80.437C5.15734 79.9428 5.40445 79.3374 6.00988 79.3127C6.3929 79.3003 6.78828 79.5474 7.12188 79.6957C7.61611 79.8934 8.13505 80.0046 8.56749 79.6216C9.08643 79.1644 9.30883 78.003 10.1614 78.6949C10.5815 79.0409 10.8903 79.4733 11.4834 79.5104C11.5946 79.5104 11.6564 79.4239 11.6688 79.325C11.7182 78.769 12.1259 78.3366 12.6819 78.2748C12.9167 78.2501 12.9167 77.8794 12.6819 77.9041C11.9035 78.003 11.3722 78.5466 11.2981 79.325C11.3599 79.2633 11.4216 79.2015 11.4834 79.1397C10.7668 79.1026 10.4703 78.176 9.75363 78.0895C9.01229 77.9906 8.80225 78.7814 8.41922 79.2385C7.76438 80.0046 6.7265 78.9173 5.92339 78.9544C5.15734 78.9914 4.82374 79.7204 4.60134 80.3505C4.5272 80.5606 4.88552 80.6594 4.97201 80.437V80.437Z" fill="#EC615B"/>
<path d="M50.1444 59.1235C49.5883 58.1722 50.5768 56.8872 51.627 57.4679C52.8255 58.1227 52.1213 59.8649 50.8239 59.6054C50.5892 59.556 50.4903 59.9143 50.7251 59.9637C52.3437 60.285 53.3815 58.1598 51.9236 57.2084C50.5521 56.3188 49.0447 57.9621 49.8231 59.3089C49.9467 59.5189 50.2679 59.3336 50.1444 59.1235V59.1235Z" fill="#5222D0"/>
<path d="M52.566 61.5576C52.5412 61.187 52.7389 60.7051 53.1837 60.7298C53.3814 60.7422 53.6038 60.8657 53.6162 61.0758C53.6285 61.2734 53.4308 61.4835 53.2332 61.4464C52.9984 61.397 52.8996 61.7553 53.1343 61.8047C53.9127 61.9654 54.2957 60.8781 53.6162 60.4827C52.8625 60.0379 52.1459 60.8163 52.1953 61.5576C52.2076 61.8047 52.5783 61.8047 52.566 61.5576V61.5576Z" fill="#5222D0"/>
<path d="M51.1204 84.7738C62.5123 84.7738 73.9042 84.7738 85.2961 84.7738C88.4962 84.7738 91.6839 84.7738 94.884 84.7738C95.1188 84.7738 95.1188 84.4032 94.884 84.4032C83.4921 84.4032 72.1002 84.4032 60.7084 84.4032C57.5083 84.4032 54.3205 84.4032 51.1204 84.4032C50.8856 84.4032 50.8856 84.7738 51.1204 84.7738V84.7738Z" fill="#161616"/>
<path d="M76.0415 86.516C86.3585 86.516 96.6754 86.516 106.992 86.516C109.908 86.516 112.824 86.516 115.753 86.516C115.987 86.516 115.987 86.1453 115.753 86.1453C105.436 86.1453 95.1186 86.1453 84.8017 86.1453C81.8858 86.1453 78.9698 86.1453 76.0415 86.1453C75.8068 86.1453 75.8068 86.516 76.0415 86.516V86.516Z" fill="#161616"/>
<path d="M106.473 84.4773C118.878 84.4773 131.284 84.4773 143.689 84.4773C147.222 84.4773 150.756 84.4773 154.29 84.4773C154.524 84.4773 154.524 84.1067 154.29 84.1067C141.885 84.1067 129.48 84.1067 117.075 84.1067C113.541 84.1067 110.007 84.1067 106.473 84.1067C106.239 84.1067 106.239 84.4773 106.473 84.4773V84.4773Z" fill="#161616"/>
<path d="M133.137 86.3677C140.526 86.3677 147.914 86.3677 155.303 86.3677C155.538 86.3677 155.538 85.997 155.303 85.997C147.914 85.997 140.526 85.997 133.137 85.997C132.902 85.997 132.902 86.3677 133.137 86.3677V86.3677Z" fill="#161616"/>
<path d="M0.697064 87.3809C9.75373 87.3809 18.8104 87.3809 27.8671 87.3809C30.4494 87.3809 33.0317 87.3809 35.614 87.3809C35.8488 87.3809 35.8488 87.0102 35.614 87.0102C26.5574 87.0102 17.5007 87.0102 8.44404 87.0102C5.86171 87.0102 3.27939 87.0102 0.697064 87.0102C0.462307 87.0102 0.462307 87.3809 0.697064 87.3809V87.3809Z" fill="#161616"/>
<path d="M12.2867 89.5555C20.2066 89.5555 28.1266 89.5555 36.0465 89.5555C36.2813 89.5555 36.2813 89.1848 36.0465 89.1848C28.1266 89.1848 20.2066 89.1848 12.2867 89.1848C12.0519 89.1848 12.0519 89.5555 12.2867 89.5555V89.5555Z" fill="#161616"/>
<path d="M54.8887 90.4204C64.3531 90.4204 73.8175 90.4204 83.2943 90.4204C83.529 90.4204 83.529 90.0497 83.2943 90.0497C73.8299 90.0497 64.3655 90.0497 54.8887 90.0497C54.654 90.0497 54.654 90.4204 54.8887 90.4204V90.4204Z" fill="#161616"/>
<path d="M35.0332 96.2152C43.5339 96.2152 52.0346 96.2152 60.5352 96.2152C60.77 96.2152 60.77 95.8445 60.5352 95.8445C52.0346 95.8445 43.5339 95.8445 35.0332 95.8445C34.7985 95.8445 34.7985 96.2152 35.0332 96.2152V96.2152Z" fill="#161616"/>
<path d="M94.4514 92.1625C101.988 92.1625 109.525 92.1625 117.05 92.1625C117.285 92.1625 117.285 91.7918 117.05 91.7918C109.513 91.7918 101.976 91.7918 94.4514 91.7918C94.2043 91.7918 94.2043 92.1625 94.4514 92.1625V92.1625Z" fill="#161616"/>
<path opacity="0.15" d="M85.6668 90.4574C85.1726 93.4846 91.6716 96.87 95.0076 98.6121C103.101 102.838 118.026 106.47 128.145 97.8214C129.949 96.2769 134.113 92.1996 135.905 84.2796C95.8478 83.6989 86.2228 87.0226 85.6668 90.4574Z" fill="#6D6C6C"/>
<path opacity="0.13" d="M93.5619 94.3989C93.6484 95.8816 96.5149 96.9194 98.2941 97.5496C104.101 99.6377 109.525 97.7967 113.158 96.4993C121.461 93.5463 130.864 87.0226 129.85 84.6626C128.071 80.4864 93.2654 89.1354 93.5619 94.3989Z" fill="#6D6C6C"/>
<path opacity="0.15" d="M51.8864 84.1437C44.992 91.0999 38.0852 98.0438 31.1907 105C23.7156 102.529 16.2281 100.045 8.75293 97.5743C23.1225 93.0892 37.5045 88.6164 51.8864 84.1437Z" fill="#6D6C6C"/>
<path d="M23.7774 53.1064C23.4562 53.7859 23.8021 54.6879 24.494 56.43C24.8647 57.3691 25.2354 58.1227 25.5072 58.6293C26.4586 58.271 27.41 57.9127 28.3614 57.5544C28.0772 57.2331 27.6571 56.6771 27.3482 55.8864C26.5822 53.8971 27.41 52.5009 26.6934 51.9573C26.0014 51.4507 24.2716 52.0438 23.7774 53.1064Z" fill="white"/>
<path d="M33.6002 93.1386C34.5886 93.8428 36.5902 91.6683 37.7393 92.3849C38.2583 92.7061 38.0111 93.2621 38.5919 93.6328C39.2096 94.0405 39.9016 93.6575 41.6808 93.188C43.843 92.6196 44.955 92.3355 45.7705 92.8915C46.4871 93.3733 46.5612 94.2382 46.9195 94.1888C47.2408 94.1394 47.5497 93.361 47.3149 92.842C46.8454 91.8289 44.3496 92.0513 43.8801 92.0883C41.4707 92.3107 40.4823 93.361 39.6421 92.7803C38.876 92.249 39.3455 91.1246 38.5424 90.6922C37.9741 90.3833 37.5787 90.8898 35.6018 91.3347C34.1685 91.6559 33.4396 91.6065 33.2542 92.0883C33.1307 92.4096 33.2666 92.9162 33.6002 93.1386Z" fill="white" stroke="#161616" stroke-width="0.4"/>
<path d="M43.1139 88.011C44.127 88.4311 44.8313 87.838 45.9063 87.7145C48.1797 87.4426 49.0569 89.6049 50.6385 89.0612C51.7505 88.6782 52.4918 87.2079 52.2323 86.8743C52.1211 86.726 51.8246 86.7631 51.5898 86.8248C51.5651 86.9978 51.3798 88.1963 50.589 88.4681C50.1689 88.6164 49.7489 88.4434 48.9952 88.1222C48.0932 87.7392 48.0067 87.5044 47.4013 87.2696C46.8453 87.0596 46.6105 87.1584 45.2143 87.1708C43.1509 87.1955 42.3478 87.0225 42.2737 87.2696C42.2119 87.4673 42.6691 87.8257 43.1139 88.011Z" fill="white" stroke="#161616" stroke-width="0.4"/>
<path d="M41.2976 89.7902C42.7803 89.5554 44.2259 89.3454 45.5479 88.6041C46.6723 87.9739 47.6237 87.072 48.3527 86.0094C48.4886 85.8117 48.1673 85.6264 48.0314 85.824C47.3024 86.8866 46.3387 87.7639 45.202 88.3693C43.9541 89.0365 42.5826 89.2095 41.2111 89.4319C40.964 89.469 41.0628 89.8273 41.2976 89.7902V89.7902Z" fill="#161616"/>
<path d="M13.3242 43.3824C12.83 43.7778 12.3358 44.1732 11.8416 44.5562C13.0895 48.8066 14.325 53.0445 15.573 57.2949C21.4048 55.355 27.2367 53.4152 33.0685 51.4754C33.1674 51.0924 33.2662 50.7093 33.3774 50.3387C26.6807 48.0158 19.9963 45.7053 13.3242 43.3824Z" fill="#161616" stroke="#161616" stroke-width="0.4"/>
<path d="M12.3608 65.2643C14.2389 64.0534 16.1293 62.8426 18.0074 61.6441C22.5542 72.7024 27.0887 83.773 31.6356 94.8313C29.6587 95.795 27.6695 96.7587 25.6926 97.7348C23.0237 93.015 20.2561 87.492 17.7232 81.2154C15.4127 75.4947 13.6829 70.1324 12.3608 65.2643Z" fill="#161616" stroke="#161616" stroke-width="0.4"/>
<path d="M17.7356 61.6441C18.6128 65.3508 19.7001 69.2799 21.0716 73.382C23.9011 81.8826 27.2865 89.2466 30.6349 95.412C38.3695 91.1617 46.0917 86.9114 53.8264 82.661C51.207 76.8168 48.6246 70.083 46.4377 62.5214C45.1774 58.1598 44.1766 53.9836 43.3982 50.0545C34.8358 53.9218 26.2857 57.7768 17.7356 61.6441Z" fill="white" stroke="#161616" stroke-width="0.4"/>
<path d="M29.6092 74.8275C30.4123 77.6817 31.5737 80.3999 33.0564 82.9575C33.18 83.1676 33.5012 82.9823 33.3776 82.7722C31.895 80.2393 30.7583 77.5458 29.9675 74.7287C29.9057 74.5063 29.5474 74.6051 29.6092 74.8275V74.8275Z" fill="#161616"/>
<path d="M29.8068 74.6916C33.9212 72.7518 38.0727 70.8985 42.2736 69.144C42.496 69.0575 42.3972 68.6992 42.1748 68.7856C37.9492 70.5525 33.7606 72.4058 29.6091 74.3704C29.3991 74.4816 29.5844 74.7905 29.8068 74.6916V74.6916Z" fill="#161616"/>
<path d="M42.1626 69.1316C43.114 71.8375 44.1889 74.494 45.3751 77.101C45.4739 77.3234 45.7952 77.1257 45.6963 76.9157C44.5102 74.3333 43.46 71.7139 42.5209 69.0328C42.4468 68.8104 42.0885 68.9092 42.1626 69.1316V69.1316Z" fill="#161616"/>
<path d="M33.4024 83.0935C34.0943 82.5993 34.8357 82.2286 35.6511 81.9938C35.8735 81.9321 35.7871 81.5737 35.5523 81.6355C34.7121 81.8826 33.9214 82.2657 33.2171 82.7722C33.0194 82.9081 33.2047 83.2294 33.4024 83.0935V83.0935Z" fill="#161616"/>
<path d="M34.9222 81.8579C34.9964 80.993 35.3053 80.1034 36.0466 79.5845C36.7879 79.0655 37.7517 79.0779 38.4189 79.708C39.5556 80.7953 39.8151 82.8216 39.8027 84.3043C39.8027 84.5391 40.1734 84.5391 40.1734 84.3043C40.1857 82.6116 39.8151 79.7204 37.9741 78.979C36.0713 78.213 34.6875 80.2022 34.5516 81.8579C34.5392 82.0927 34.9099 82.0927 34.9222 81.8579V81.8579Z" fill="#161616"/>
<path d="M35.9227 81.6972C35.9722 80.8818 37.0224 79.9922 37.739 80.5976C38.1962 80.9806 38.4062 81.6602 38.5298 82.2285C38.8016 83.4394 38.641 84.6997 38.4186 85.9105C38.3815 86.1453 38.7275 86.2441 38.7769 86.0093C39.0858 84.329 39.3823 82.1173 38.2703 80.647C37.8996 80.1651 37.3189 79.8315 36.7258 80.1034C36.1575 80.3505 35.5891 81.0918 35.5521 81.7219C35.5397 81.932 35.9104 81.932 35.9227 81.6972V81.6972Z" fill="#161616"/>
<path d="M38.3693 85.997C38.5547 86.4542 39.0612 86.3924 39.3578 86.0712C39.8026 85.6016 40.062 84.9097 40.1732 84.2796C40.2103 84.0448 39.852 83.946 39.8149 84.1807C39.7532 84.5391 39.6543 84.8727 39.4937 85.1939C39.4443 85.2927 38.8759 86.2441 38.7276 85.8858C38.6411 85.6758 38.2828 85.7746 38.3693 85.997V85.997Z" fill="#161616"/>
<path d="M38.1594 79.3003C38.703 78.559 39.3332 77.7929 40.2228 77.4346C41.2359 77.0392 42.0514 77.3358 42.7804 78.0771C43.2252 78.5219 43.6329 78.8555 44.2878 78.9173C44.8314 78.9667 45.3627 78.9049 45.7952 79.325C46.1411 79.6586 46.3388 80.1281 46.5118 80.5606C46.5983 80.783 46.9566 80.6841 46.8701 80.4617C46.5859 79.7575 46.2153 78.9296 45.4369 78.6578C44.7944 78.4478 44.1272 78.6702 43.5464 78.2501C43.1634 77.9782 42.8916 77.5829 42.5086 77.2987C40.7541 76.0013 38.8637 77.7311 37.8505 79.1026C37.7022 79.3127 38.0235 79.498 38.1594 79.3003V79.3003Z" fill="#161616"/>
<path d="M38.8389 79.7451C39.4444 78.9419 40.9147 77.5087 41.8908 78.5466C42.3356 79.0161 42.6074 79.6091 43.3117 79.6956C43.9048 79.7698 44.4484 79.4485 45.0044 79.8192C45.4492 80.1157 45.4863 80.6841 45.9064 80.9806C46.3265 81.2772 46.9195 81.0548 46.8577 80.4988C46.833 80.264 46.4624 80.264 46.4871 80.4988C46.1658 80.7212 45.9558 80.6717 45.8569 80.3258C45.7952 80.1899 45.721 80.0663 45.6469 79.9428C45.5604 79.8192 45.4739 79.7203 45.3504 79.6215C45.0909 79.3991 44.7449 79.2632 44.399 79.2508C43.8306 79.2261 43.287 79.4979 42.7927 79.0531C42.5456 78.8307 42.3727 78.5219 42.1503 78.2747C40.9765 77.0021 39.2837 78.5466 38.5177 79.5474C38.3818 79.7451 38.703 79.9304 38.8389 79.7451V79.7451Z" fill="#161616"/>
<path d="M39.0738 80.1652C39.9881 79.498 40.9766 78.979 42.0515 78.6084C42.2739 78.5342 42.1751 78.1759 41.9527 78.2501C40.853 78.6207 39.8275 79.152 38.8885 79.8439C38.6908 79.9798 38.8761 80.3011 39.0738 80.1652V80.1652Z" fill="#161616"/>
<path d="M43.1512 78.2253C44.0161 77.8917 44.8686 77.5211 45.6841 77.0886C45.8942 76.9774 45.7088 76.6562 45.4988 76.7674C44.708 77.1751 43.8925 77.5458 43.0524 77.867C42.83 77.9535 42.9288 78.3118 43.1512 78.2253V78.2253Z" fill="#161616"/>
<path d="M38.9751 78.0647C39.7164 75.5812 41.1249 73.246 43.4107 71.9116C43.6208 71.788 43.4354 71.4668 43.2254 71.5904C40.8531 72.9742 39.3952 75.3835 38.6167 77.9659C38.555 78.2006 38.9133 78.2995 38.9751 78.0647V78.0647Z" fill="#161616"/>
<path d="M40.0372 77.2616C40.865 75.47 41.8535 73.6414 43.6079 72.6035C43.818 72.48 43.6327 72.1587 43.4226 72.2823C41.6063 73.3572 40.5685 75.2229 39.7159 77.0763C39.6171 77.2863 39.9383 77.4716 40.0372 77.2616V77.2616Z" fill="#161616"/>
<path d="M32.2782 80.6841C33.2296 80.61 34.181 80.5111 35.1447 80.647C35.2559 80.6594 35.3177 80.4864 35.1941 80.4741C34.218 80.3382 33.2543 80.4246 32.2906 80.4988C32.167 80.5111 32.167 80.6965 32.2782 80.6841V80.6841Z" fill="#161616"/>
<path d="M31.8458 79.9799C33.032 79.6833 34.2181 79.708 35.4043 80.0416C35.5155 80.0787 35.5649 79.8934 35.4537 79.8687C34.2428 79.5227 33.0196 79.498 31.7964 79.8069C31.6729 79.8316 31.7223 80.0169 31.8458 79.9799V79.9799Z" fill="#161616"/>
<path d="M38.814 77.7929C38.6534 78.1018 38.4804 78.3983 38.3198 78.7072C38.258 78.8061 38.4186 78.9049 38.4804 78.8061C38.641 78.4972 38.814 78.2006 38.9747 77.8917C39.0241 77.7805 38.8635 77.6817 38.814 77.7929V77.7929Z" fill="#161616"/>
<path d="M43.6698 72.8754C43.9787 73.8762 43.9045 74.8276 43.5215 75.7913C43.398 76.1002 43.2373 76.4338 43.2497 76.7797C43.2621 77.1381 43.5092 77.3728 43.5586 77.7188C43.5709 77.8423 43.7563 77.7805 43.7316 77.6693C43.6945 77.4469 43.6698 77.4469 43.608 77.2493C43.4597 76.7921 43.4103 76.6562 43.5462 76.2114C43.6821 75.8036 43.8798 75.433 43.9663 75.0129C44.1269 74.2716 44.0775 73.5302 43.8428 72.8136C43.8057 72.7147 43.6327 72.7642 43.6698 72.8754V72.8754Z" fill="#161616"/>
<path d="M44.3124 74.5186C44.5224 75.5071 43.3487 76.6561 44.2136 77.521C44.3 77.6075 44.4236 77.4716 44.3495 77.3851C43.5711 76.6067 44.6954 75.3959 44.4977 74.4568C44.4607 74.3456 44.2877 74.3951 44.3124 74.5186V74.5186Z" fill="#161616"/>
<path d="M32.9452 82.068C33.5012 81.895 34.0572 81.8208 34.6256 81.8456C34.7491 81.8456 34.7491 81.6602 34.6256 81.6602C34.0325 81.6479 33.4641 81.722 32.8958 81.895C32.7722 81.9197 32.8217 82.0927 32.9452 82.068V82.068Z" fill="#161616"/>
<path d="M32.5871 81.722C33.3037 81.5737 34.0203 81.4872 34.7493 81.4872C34.8728 81.4872 34.8728 81.3019 34.7493 81.3019C33.9956 81.3143 33.2666 81.3884 32.5376 81.549C32.4141 81.5737 32.4635 81.7467 32.5871 81.722V81.722Z" fill="#161616"/>
<path d="M35.9353 81.722C36.6396 81.3266 37.3686 80.993 38.1099 80.6964C38.2211 80.6594 38.1717 80.474 38.0605 80.5235C37.2945 80.82 36.5531 81.1659 35.8365 81.5613C35.7376 81.6231 35.8241 81.7837 35.9353 81.722V81.722Z" fill="#161616"/>
<path d="M35.787 81.6602C36.5778 81.3142 37.3562 80.9806 38.1469 80.6347C38.2581 80.5853 38.1593 80.4246 38.0481 80.4741C37.2573 80.82 36.4789 81.1536 35.6882 81.4996C35.577 81.549 35.6758 81.7096 35.787 81.6602V81.6602Z" fill="#161616"/>
<path d="M35.8366 81.759C36.6273 81.4007 37.4181 81.0301 38.2212 80.6718C38.3324 80.6223 38.2336 80.4617 38.1223 80.5111C37.3316 80.8694 36.5408 81.2401 35.7377 81.5984C35.6265 81.6478 35.7254 81.8085 35.8366 81.759V81.759Z" fill="#161616"/>
<path d="M35.2189 74.7164C34.6999 76.3473 34.8358 78.0771 35.6142 79.6092C35.6637 79.7204 35.8243 79.6215 35.7749 79.5103C35.0212 78.0277 34.8976 76.3473 35.3918 74.7534C35.4413 74.6422 35.2559 74.5928 35.2189 74.7164V74.7164Z" fill="#161616"/>
<path d="M35.3177 74.7534C35.5154 74.6916 35.7007 74.6793 35.8984 74.704C36.0219 74.7163 36.0096 74.531 35.8984 74.5186C35.6883 74.4939 35.4659 74.5063 35.2682 74.5804C35.157 74.6175 35.2065 74.7905 35.3177 74.7534V74.7534Z" fill="#161616"/>
<path d="M35.7251 74.5681C35.4409 76.162 35.305 77.8053 36.1576 79.2509C36.2193 79.3497 36.38 79.2632 36.3182 79.152C35.4904 77.7558 35.6263 76.1496 35.8981 74.6052C35.9228 74.5063 35.7375 74.4569 35.7251 74.5681V74.5681Z" fill="#161616"/>
<path d="M35.1694 74.2468C35.0458 74.148 34.9223 74.0368 34.8111 73.938C34.7246 73.8638 34.5887 73.9874 34.6752 74.0739C34.7987 74.1727 34.9223 74.2839 35.0335 74.3828C35.1323 74.4569 35.2682 74.321 35.1694 74.2468V74.2468Z" fill="#161616"/>
<path d="M35.4414 73.8514C35.4043 73.7526 35.3549 73.6538 35.3178 73.5426C35.3055 73.4931 35.256 73.4684 35.2066 73.4808C35.1572 73.4931 35.1201 73.5426 35.1448 73.592C35.1819 73.6908 35.2313 73.7897 35.2684 73.9009C35.2807 73.9503 35.3302 73.975 35.3796 73.9626C35.4167 73.9626 35.4661 73.9009 35.4414 73.8514V73.8514Z" fill="#161616"/>
<path d="M35.9478 74.0862C35.9601 73.9626 36.0219 73.8391 36.1331 73.7649C36.2319 73.6908 36.1331 73.5302 36.0342 73.6043C35.886 73.7155 35.7871 73.8638 35.7624 74.0368C35.7501 74.0862 35.7748 74.1356 35.8242 74.148C35.8736 74.1603 35.9354 74.1356 35.9478 74.0862V74.0862Z" fill="#161616"/>
<path d="M36.2072 74.4322C36.3061 74.5187 36.4173 74.5434 36.5408 74.5187C36.652 74.4939 36.6026 74.3086 36.4914 74.3457C36.442 74.358 36.3802 74.3457 36.3431 74.3086C36.2443 74.2221 36.1084 74.358 36.2072 74.4322V74.4322Z" fill="#161616"/>
<path d="M33.1553 56.0964C33.4642 56.9119 33.7855 57.7273 34.0943 58.5428C34.1314 58.654 34.3167 58.6046 34.2673 58.4934C33.9584 57.6779 33.6372 56.8624 33.3283 56.047C33.2912 55.9358 33.1183 55.9852 33.1553 56.0964V56.0964Z" fill="#161616"/>
<path d="M33.2664 56.0346C35.5027 55.108 37.7267 54.1442 39.9137 53.1311C40.0249 53.0817 39.926 52.921 39.8148 52.9705C37.6279 53.9836 35.4286 54.9474 33.2046 55.8617C33.1057 55.8987 33.1552 56.0841 33.2664 56.0346V56.0346Z" fill="#161616"/>
<path d="M34.3165 58.6294C36.5406 57.678 38.7028 56.603 40.8156 55.4169C40.9144 55.3551 40.828 55.1945 40.7168 55.2563C38.6039 56.4424 36.4417 57.5173 34.2177 58.4687C34.1189 58.5181 34.2177 58.6788 34.3165 58.6294V58.6294Z" fill="#161616"/>
<path d="M39.9017 53.0817C40.26 53.7859 40.5565 54.5025 40.816 55.2439C40.8531 55.3551 41.0384 55.3057 40.989 55.1945C40.7295 54.4408 40.4206 53.6994 40.05 52.9828C40.0129 52.884 39.8523 52.9828 39.9017 53.0817V53.0817Z" fill="#161616"/>
<path d="M37.4551 56.5412C38.4683 56.1211 39.4197 55.6022 40.3463 55.0091C40.4452 54.9474 40.3587 54.7867 40.2475 54.8485C39.3455 55.4416 38.3941 55.9358 37.4057 56.3559C37.2945 56.4053 37.3439 56.5783 37.4551 56.5412V56.5412Z" fill="#161616"/>
<path d="M52.072 82.3521C51.862 82.315 51.7137 82.105 51.8125 81.895C51.9237 81.6726 52.2203 81.6726 52.3932 81.8208C52.5415 81.9567 52.6033 82.1791 52.455 82.3398C52.3438 82.451 52.1338 82.5004 51.9979 82.3892C51.9114 82.315 51.7755 82.451 51.862 82.5251C52.0844 82.6981 52.3932 82.661 52.5909 82.4633C52.8257 82.2162 52.7145 81.8455 52.4674 81.6602C52.1956 81.4625 51.7878 81.5119 51.6396 81.8332C51.4913 82.1421 51.689 82.4757 52.0226 82.5374C52.1461 82.5498 52.1956 82.3768 52.072 82.3521V82.3521Z" fill="#161616"/>
<path d="M31.1042 94.127C30.7953 94.0158 30.8077 93.6328 30.993 93.4104C31.0672 93.3239 31.1784 93.2498 31.2772 93.2004C31.4873 93.1015 31.6108 93.2992 31.6726 93.4722C31.7591 93.7069 31.7714 94.0282 31.549 94.2012C31.3637 94.3371 31.0672 94.3494 30.9436 94.1394C30.8818 94.0405 30.7212 94.127 30.783 94.2382C30.956 94.5471 31.3761 94.5718 31.6479 94.3618C32.0062 94.09 31.9444 93.534 31.722 93.188C31.4749 92.7926 30.993 93.0521 30.7706 93.361C30.5482 93.6822 30.6471 94.1641 31.0301 94.2876C31.1784 94.3371 31.2154 94.1641 31.1042 94.127V94.127Z" fill="#161616"/>
<path d="M19.1193 62.3855C18.9463 62.4472 18.9216 62.2372 18.9587 62.126C18.9957 62.0395 19.0575 61.9777 19.1316 61.9283C19.2923 61.8418 19.5023 61.8542 19.6135 62.0024C19.7124 62.126 19.7371 62.336 19.6012 62.4349C19.4776 62.5337 19.2923 62.509 19.1811 62.3855C19.1069 62.2866 18.971 62.4225 19.0452 62.5214C19.2181 62.7438 19.5888 62.7314 19.7741 62.5214C19.9718 62.2866 19.873 61.9159 19.6259 61.7553C19.354 61.5947 18.9834 61.7059 18.8228 61.9654C18.7363 62.1013 18.6992 62.299 18.798 62.4349C18.8845 62.5584 19.0204 62.6079 19.1564 62.5584C19.2799 62.5214 19.2305 62.3484 19.1193 62.3855V62.3855Z" fill="#161616"/>
<path d="M42.1502 52.2662C42.002 52.0932 41.8908 51.8214 42.0143 51.6114C42.1008 51.4631 42.3232 51.3642 42.4715 51.4631C42.6321 51.5743 42.6692 51.8461 42.595 52.0191C42.5085 52.2291 42.2367 52.3403 42.0637 52.1674C41.9772 52.0809 41.8413 52.2168 41.9278 52.3033C42.1379 52.5133 42.5085 52.4763 42.6815 52.2291C42.8668 51.982 42.8545 51.5372 42.6074 51.3395C42.385 51.1542 42.0514 51.253 41.8908 51.4631C41.6684 51.7596 41.8043 52.1427 42.0143 52.4021C42.1008 52.4886 42.2367 52.3527 42.1502 52.2662V52.2662Z" fill="#161616"/>
<path d="M28.8431 75.0994C29.6956 77.9288 31.0053 80.5729 32.3274 83.2047C32.3768 83.3159 32.5374 83.217 32.488 83.1058C31.1659 80.4864 29.8562 77.867 29.016 75.05C28.979 74.9388 28.806 74.9882 28.8431 75.0994V75.0994Z" fill="#161616"/>
<path d="M28.6207 74.0862C30.4864 73.2213 32.3521 72.3564 34.2055 71.4792C34.3167 71.4297 34.2178 71.2691 34.1066 71.3185C32.2409 72.1958 30.3876 73.0607 28.5219 73.9256C28.4231 73.975 28.5219 74.1356 28.6207 74.0862V74.0862Z" fill="#161616"/>
<path d="M31.4377 72.1711C32.4633 71.7386 33.4394 71.2444 34.3784 70.6514C34.4772 70.5896 34.3907 70.429 34.2795 70.4907C33.3529 71.0714 32.3891 71.5657 31.376 71.9858C31.2771 72.0475 31.3265 72.2205 31.4377 72.1711V72.1711Z" fill="#161616"/>
<path d="M32.4881 55.8987C32.7105 56.5042 32.9452 57.1096 33.1676 57.715C33.2047 57.8262 33.39 57.7768 33.3406 57.6656C33.1182 57.0602 32.8835 56.4547 32.6611 55.8493C32.624 55.7381 32.451 55.7875 32.4881 55.8987V55.8987Z" fill="#161616"/>
<path d="M40.0004 89.296C43.2128 87.4056 46.4624 85.5646 49.7366 83.7854C49.8355 83.7236 49.749 83.563 49.6378 83.6247C46.3635 85.4039 43.114 87.2449 39.9015 89.1353C39.8027 89.1971 39.9015 89.3577 40.0004 89.296V89.296Z" fill="#161616"/>
<path d="M41.2114 88.3817C41.4091 88.6535 41.6068 88.9377 41.8045 89.2095C41.8786 89.3084 42.0392 89.2095 41.9651 89.1107C41.7674 88.8388 41.5697 88.5547 41.372 88.2828C41.3102 88.1963 41.1496 88.2828 41.2114 88.3817V88.3817Z" fill="#161616"/>
<path d="M47.6238 84.8233C47.8215 85.1198 48.0192 85.4163 48.2169 85.7129C48.2787 85.8117 48.4393 85.7129 48.3775 85.614C48.1798 85.3175 47.9821 85.0209 47.7844 84.7244C47.7103 84.6256 47.5497 84.7244 47.6238 84.8233V84.8233Z" fill="#161616"/>
<path d="M13.2996 43.506C14.461 47.5957 15.6101 51.6731 16.7715 55.7628C22.3192 53.9465 27.8668 52.1426 33.4145 50.3263C32.2778 46.5949 31.1411 42.8512 30.0044 39.1198C24.4443 40.5777 18.8719 42.0481 13.2996 43.506Z" fill="white" stroke="#161616" stroke-width="0.4"/>
<path d="M23.6907 54.4407C23.9255 55.7628 24.3332 57.0231 24.9263 58.2339C25.0375 58.444 25.3464 58.2586 25.2475 58.0486C24.6668 56.8748 24.2714 55.6392 24.049 54.3419C23.9996 54.1071 23.6413 54.206 23.6907 54.4407V54.4407Z" fill="#161616"/>
<path d="M26.471 53.6129C26.6934 54.8361 26.9405 56.0593 27.6448 57.1096C27.7807 57.3073 28.102 57.1219 27.9661 56.9242C27.2741 55.8987 27.0394 54.7002 26.8293 53.5141C26.7799 53.2793 26.434 53.3782 26.471 53.6129V53.6129Z" fill="#161616"/>
<path d="M24.4074 55.8864C24.7781 55.1327 26.0631 54.589 26.8662 54.6508C27.0392 54.6632 27.0392 54.3913 26.8662 54.3666C26.2855 54.3172 25.7665 54.552 25.26 54.7991C24.8152 55.0215 24.4074 55.2686 24.1727 55.7381C24.0862 55.9111 24.3333 56.047 24.4074 55.8864V55.8864Z" fill="#161616"/>
<path d="M24.741 57.1219C25.0252 56.7266 25.4329 56.4918 25.8777 56.3188C26.2484 56.1706 26.8167 55.8987 27.2121 56.0964C27.3727 56.1706 27.5086 55.9358 27.348 55.8617C26.8538 55.6146 26.2854 55.8617 25.8036 56.0594C25.2846 56.2694 24.8398 56.5289 24.5062 56.986C24.395 57.1219 24.6298 57.2702 24.741 57.1219V57.1219Z" fill="#161616"/>
<path d="M16.8334 45.7301C18.1184 46.1749 19.4033 46.632 20.6883 47.0768C20.9107 47.151 21.0096 46.7927 20.7872 46.7185C19.5022 46.2737 18.2172 45.8166 16.9322 45.3718C16.7098 45.2853 16.611 45.6436 16.8334 45.7301V45.7301Z" fill="#161616"/>
<path d="M17.7603 48.0529C18.6252 46.978 19.5271 45.9401 20.4415 44.9269C20.6021 44.7539 20.3426 44.4821 20.182 44.6675C19.2553 45.6806 18.3657 46.7308 17.5008 47.7934C17.3525 47.9664 17.612 48.2382 17.7603 48.0529V48.0529Z" fill="#161616"/>
<path d="M26.0263 43.2589C27.1506 43.9385 28.2873 44.5933 29.424 45.2482C29.6341 45.3717 29.8194 45.0505 29.6094 44.9269C28.4727 44.2721 27.3359 43.6172 26.2116 42.9377C26.0139 42.8141 25.8162 43.1354 26.0263 43.2589V43.2589Z" fill="#161616"/>
<path d="M28.7693 42.357C27.8921 43.3578 27.0519 44.3956 26.2364 45.4582C26.0881 45.6436 26.4094 45.8289 26.5577 45.6436C27.3484 44.6057 28.1762 43.6049 29.0288 42.6164C29.1894 42.4435 28.9176 42.184 28.7693 42.357V42.357Z" fill="#161616"/>
<path d="M22.0106 49.7457C23.6415 49.2638 25.2725 48.7943 26.9158 48.3124C27.1382 48.2506 27.0517 47.8923 26.8169 47.9541C25.186 48.436 23.555 48.9055 21.9117 49.3873C21.6893 49.4615 21.7882 49.8198 22.0106 49.7457V49.7457Z" fill="#161616"/>
<path d="M17.5256 54.8732C17.3897 54.7867 17.3526 54.5767 17.4514 54.4531C17.5626 54.3172 17.785 54.3296 17.8962 54.4531C18.0074 54.5767 17.9704 54.8115 17.8345 54.9103C17.6862 55.0092 17.5009 54.9597 17.3897 54.8238C17.3155 54.7373 17.1796 54.8609 17.2537 54.9597C17.4267 55.1698 17.785 55.2192 17.9951 55.0215C18.1928 54.8362 18.2051 54.4902 18.0074 54.3049C17.8097 54.1195 17.4638 54.1443 17.3032 54.3543C17.1302 54.5767 17.2043 54.8979 17.4391 55.0462C17.5379 55.0956 17.6244 54.935 17.5256 54.8732V54.8732Z" fill="#161616"/>
<path d="M29.9304 50.7094C30.0046 50.87 30.0663 51.043 30.1405 51.2036C30.1899 51.3148 30.3629 51.2654 30.3134 51.1542C30.2393 50.9935 30.1775 50.8206 30.1034 50.6599C30.054 50.5611 29.881 50.5982 29.9304 50.7094V50.7094Z" fill="#161616"/>
<path d="M30.0415 50.7835C31.0794 50.4252 32.1049 50.0792 33.1428 49.7209C33.254 49.6838 33.2046 49.4985 33.0934 49.5479C32.0555 49.9062 31.03 50.2522 29.9921 50.6105C29.8809 50.6352 29.9303 50.8206 30.0415 50.7835V50.7835Z" fill="#161616"/>
<path opacity="0.23" d="M31.697 55.5651C30.7951 57.3196 29.6089 60.0008 28.7441 63.4109C27.4961 68.3161 25.8281 74.877 28.9665 80.9189C32.0801 86.899 38.2702 89.1848 40.556 89.9014C37.3312 91.6806 34.1187 93.4598 30.8939 95.239C28.4228 90.9393 25.8405 85.8611 23.5053 80.0045C20.787 73.209 19.0078 66.9199 17.8093 61.4835C22.455 59.5189 27.076 57.542 31.697 55.5651Z" fill="#6D6C6C"/>
<path opacity="0.2" d="M29.7205 74.6298C30.8942 77.3851 32.0557 80.1404 33.2295 82.8957C37.3562 80.8941 41.4707 78.8925 45.5974 76.8909C44.4854 74.2097 43.3734 71.5409 42.2738 68.8597C38.0852 70.7749 33.8967 72.7023 29.7205 74.6298Z" fill="#6D6C6C"/>
<path opacity="0.21" d="M36.6767 79.6215C37.4057 79.3991 38.0852 79.881 38.2211 79.9798C39.0984 80.6223 39.2219 81.7961 39.3455 83.0687C39.4196 83.7483 39.4443 84.7862 39.2219 86.0464C38.9995 86.0835 38.7895 86.1206 38.5671 86.17C38.6906 85.7375 39.642 82.1915 38.0976 80.82C37.937 80.6841 37.4922 80.2887 36.9732 80.3505C35.9971 80.4617 35.5523 82.0061 35.4288 81.9567C35.2929 81.8826 35.4782 79.9798 36.6767 79.6215Z" fill="#6D6C6C"/>
<path opacity="0.23" d="M38.3942 79.4362C38.32 79.3744 38.9625 78.0029 40.2969 77.657C40.4699 77.6075 41.1989 77.4346 41.965 77.7805C42.8051 78.1512 42.6816 78.6948 43.4476 79.0902C44.3496 79.5474 44.8562 78.979 45.6469 79.4485C46.4871 79.9428 46.6354 81.1165 46.5365 81.1783C46.413 81.2401 45.9064 79.7451 44.8685 79.6339C44.4731 79.5968 44.2507 79.7821 43.5588 79.6956C43.2623 79.6586 43.0028 79.6215 42.731 79.4609C42.2121 79.152 42.2615 78.769 41.8414 78.4477C41.3719 78.0894 40.7541 78.1759 40.4699 78.213C39.1849 78.3612 38.4683 79.5103 38.3942 79.4362Z" fill="#6D6C6C"/>
<path opacity="0.2" d="M22.1094 41.3315C21.7882 41.6527 19.7001 43.8149 19.9719 46.978C20.2067 49.7209 22.1094 52.1426 24.8524 53.1558C22.2206 53.9713 19.5765 54.7867 16.9448 55.5898C15.7957 51.5496 14.6466 47.5093 13.4976 43.4566C16.3641 42.7647 19.2306 42.0481 22.1094 41.3315Z" fill="#6D6C6C"/>
<path d="M109.451 88.5053C111.589 87.0596 113.714 85.614 115.851 84.1684C117.149 84.2673 119.113 84.292 121.424 83.8101C123.895 83.2912 127.058 82.1174 126.947 81.3884C126.934 81.2772 126.823 81.0672 125.353 80.7212C123.166 80.2023 121.436 80.2023 120.188 80.1529C119.2 80.1158 117.754 80.0169 115.963 79.7451C113.294 81.3143 110.637 82.8711 107.969 84.4403C108.45 85.787 108.945 87.1461 109.451 88.5053Z" fill="#161616"/>
<path d="M103.99 60.6433C102.829 61.7059 102.94 63.0527 102.26 65.1037C101.568 67.2042 100.407 68.934 94.884 73.938C86.3092 81.7097 84.2211 81.9815 83.5045 85.1322C82.8496 88.0234 83.7763 91.3965 85.8768 93.4228C88.6568 96.0916 92.7218 95.6592 95.7119 95.3379C103.224 94.5224 108.685 90.3092 111.552 87.6033C111.342 85.9353 111.132 84.2673 110.909 82.5993C112.182 81.3019 113.838 79.2385 114.912 76.3103C117.557 69.1069 114.455 62.5461 113.726 61.1005C110.279 59.7537 106.115 58.7159 103.99 60.6433Z" fill="#EC615B"/>
<path opacity="0.18" d="M108.66 59.4077C107.981 62.2619 106.968 64.4365 106.177 65.8697C104.879 68.2173 103.508 69.8112 102.137 71.368C100.654 73.0731 99.8754 73.7156 97.5526 75.9519C90.5716 82.6734 90.2875 83.9089 90.2133 84.6626C90.1268 85.7376 90.2998 88.0728 93.8212 91.1741C96.0699 89.4072 98.0592 88.3693 99.4183 87.7515C102.853 86.1824 104.546 86.2936 107.882 84.3908C109.303 83.5877 110.588 82.8711 111.873 81.5243C115.32 77.9041 115.715 73.2955 115.864 71.6522C116.296 66.6234 114.542 62.7314 113.627 61.014C111.972 60.4827 110.316 59.939 108.66 59.4077Z" fill="#6D6C6C"/>
<path opacity="0.17" d="M113.071 79.9552C108.846 81.2154 103.422 83.4395 98.0468 87.5662C96.4529 88.7894 95.0444 90.0497 93.8088 91.2729C98.0839 90.5934 102.507 89.7532 107.079 88.7153C108.611 88.3693 110.106 88.011 111.589 87.6404C111.341 85.9847 111.094 84.3167 110.847 82.6611C111.589 81.7467 112.33 80.8448 113.071 79.9552Z" fill="#6D6C6C"/>
<path opacity="0.12" d="M111.391 60.285C112.243 61.4464 113.516 63.4975 114.159 66.3516C114.912 69.7247 114.381 72.4182 114.097 73.765C112.898 79.3868 109.414 83.0317 107.771 84.5391C108.833 84.0325 110.452 83.0935 111.947 81.4378C114.097 79.0779 114.801 76.5944 115.184 75.1735C116.877 68.9216 114.517 63.1392 113.64 61.2364C112.874 60.9151 112.132 60.5939 111.391 60.285Z" fill="#6D6C6C"/>
<path d="M115.765 90.0003C117.902 88.5547 120.028 87.1091 122.165 85.6635C123.462 85.7623 125.427 85.787 127.738 85.3051C130.209 84.7862 133.372 83.6124 133.26 82.8834C133.248 82.7722 133.137 82.5622 131.667 82.2162C129.48 81.6973 127.75 81.6973 126.502 81.6479C125.513 81.6108 124.068 81.512 122.276 81.2401C119.607 82.8093 116.951 84.3661 114.282 85.9353C114.776 87.282 115.271 88.6412 115.765 90.0003Z" fill="#161616"/>
<path d="M110.316 62.1383C109.254 63.5345 110.909 65.3755 110.341 68.242C109.785 71.0344 107.598 72.3441 102.446 76.0137C91.8816 83.563 90.8066 85.4287 90.3742 87.1585C89.7193 89.7655 90.3 92.9409 92.1904 94.9178C94.8098 97.6484 99.0478 97.1542 102.026 96.8329C109.538 96.0174 114.999 91.8042 117.865 89.0983C117.655 87.4303 117.445 85.7623 117.223 84.0943C118.496 82.7969 120.151 80.7335 121.226 77.8053C123.87 70.6019 120.769 64.0411 120.04 62.5955C113.504 60.458 111.144 61.0387 110.316 62.1383Z" fill="#EC615B"/>
<path opacity="0.18" d="M114.986 60.9028C115.481 61.6812 120.719 70.0089 117.507 75.7419C116.333 77.8423 113.813 79.9428 113.244 80.4247C110.971 82.3274 109.303 82.9946 107.783 83.9213C105.534 85.2804 102.656 87.7639 100.16 92.6691C102.408 90.9022 104.398 89.8643 105.757 89.2466C109.192 87.6774 110.884 87.7886 114.22 85.8858C115.641 85.0827 116.926 84.3661 118.211 83.0193C121.658 79.3991 122.054 74.7905 122.202 73.1472C122.635 68.1185 120.88 64.2264 119.966 62.509C118.298 61.9654 116.642 61.4341 114.986 60.9028Z" fill="#6D6C6C"/>
<path opacity="0.17" d="M119.397 81.4378C115.172 82.6981 109.748 84.9221 104.373 89.0489C102.779 90.2721 101.371 91.5324 100.135 92.7556C104.41 92.076 108.833 91.2358 113.405 90.198C114.937 89.852 116.432 89.4937 117.915 89.123C117.668 87.4674 117.421 85.7994 117.173 84.1437C117.915 83.2418 118.656 82.3398 119.397 81.4378Z" fill="#6D6C6C"/>
<path opacity="0.12" d="M117.717 61.78C118.57 62.9415 119.842 64.9925 120.485 67.8466C121.238 71.2197 120.707 73.9133 120.423 75.26C119.225 80.8818 115.74 84.5267 114.097 86.0341C115.16 85.5275 116.778 84.5885 118.273 82.9329C120.423 80.5729 121.127 78.0895 121.51 76.6686C123.203 70.4166 120.843 64.6342 119.966 62.7314C119.2 62.4102 118.458 62.0889 117.717 61.78Z" fill="#6D6C6C"/>
<path d="M109.044 32.2254C108.364 31.8918 107.215 32.9173 106.745 33.3374C104.484 35.3637 104.027 37.736 102.532 41.5539C102.05 42.7771 101.309 44.5439 100.234 46.6567C99.0355 47.9664 97.281 49.585 94.9087 51.0183C93.4755 51.8832 92.104 52.5009 90.9179 52.9457C90.2136 52.7233 88.8421 52.3897 87.2235 52.7233C86.2351 52.921 85.1725 53.1434 84.6288 53.9836C83.6651 55.4786 84.9501 58.0363 86.5563 59.3089C87.0629 59.7166 87.9154 60.3838 89.0027 60.2726C90.3989 60.1244 91.6468 58.7158 92.0299 56.7266C94.1674 56.2941 98.5166 55.108 102.458 51.4754C103.335 50.66 105.522 48.5101 107.19 45.0381C108.574 42.1716 108.858 39.96 109.34 36.3151C109.735 33.2879 109.501 32.4601 109.044 32.2254Z" fill="white" stroke="#161616" stroke-width="0.4"/>
<path opacity="0.08" d="M108.685 32.1018C108.08 32.1018 107.956 35.4996 106.955 38.848C105.559 43.5431 102.903 46.6444 101.704 48.0282C100.37 49.5479 96.4038 53.9713 89.707 55.7999C87.6189 56.3682 85.815 56.5412 84.53 56.5783C84.703 57.0478 85.5555 59.2224 87.6684 59.9514C88.0637 60.0873 88.7927 60.3344 89.6329 60.112C90.9426 59.766 91.9434 58.4069 92.2276 56.6648C94.5752 56.1211 99.3321 54.6879 103.125 50.7835C104.793 49.0784 105.881 47.2992 106.189 46.7803C107.524 44.5316 108.067 42.7029 108.698 40.5778C109.822 36.8093 109.674 35.1166 109.476 34.0664C109.402 33.708 109.105 32.1018 108.685 32.1018Z" fill="#6D6C6C"/>
<path opacity="0.15" d="M108.524 40.0959C108.364 40.0341 107.635 42.5794 105.077 46.1378C103.755 47.9665 102.087 50.277 99.2701 52.2539C97.4909 53.5018 95.0568 54.5767 90.1764 56.7266C87.7052 57.8139 86.2843 58.3699 86.3338 59.0742C86.3832 59.7908 87.9029 60.4456 89.1632 60.2479C90.5841 60.0255 91.7826 58.6911 92.0668 56.8749C93.3641 56.4918 95.1186 55.874 97.0832 54.9103C97.8986 54.5149 100.654 53.1558 102.73 51.3766C107.746 47.0768 108.784 40.2071 108.524 40.0959Z" fill="#6D6C6C"/>
<path d="M108.809 31.2493C106.004 33.0903 105.127 36.1792 104.212 39.3669C104.027 39.997 103.286 42.74 103.236 46.6073C103.199 50.3758 103.866 51.4013 103.941 54.552C103.99 56.6648 103.768 59.7043 102.446 63.4727C103.459 64.4488 106.523 67.1176 111.366 67.7972C116.407 68.5138 120.225 66.6111 121.436 65.9439C121.547 64.4982 121.696 62.2495 121.696 59.4942C121.708 47.8429 119.2 41.7392 122.845 37.5136C123.327 36.9576 124.154 36.1668 125.489 35.4872C124.537 34.3999 120.299 29.7666 114.183 29.8407C113.022 29.8407 110.872 29.8901 108.809 31.2493Z" fill="white" stroke="#161616" stroke-width="0.4"/>
<path opacity="0.1" d="M116.766 30.1496C115.32 33.0161 113.603 37.3777 113.504 42.7771C113.405 47.8552 114.814 50.104 114.431 54.6261C114.171 57.7397 113.034 62.163 108.969 67.3277C109.884 67.6119 110.959 67.859 112.157 67.9702C116.395 68.3532 119.793 66.8582 121.523 65.9068C121.795 62.4102 121.782 59.5931 121.733 57.7521C121.572 52.1426 121.09 47.8182 121.09 47.8182C120.843 46.0513 120.831 44.5439 120.88 43.4196C120.954 41.8133 121.004 40.862 121.449 39.7252C121.758 38.9468 122.462 37.5754 124.142 36.3151C124.612 36.0556 125.094 35.7961 125.563 35.5367C124.352 34.0293 122.153 31.7682 118.755 30.6439C118.063 30.4091 117.396 30.2485 116.766 30.1496Z" fill="#6D6C6C"/>
<path opacity="0.12" d="M125.563 35.4625C124.599 34.5853 123.623 33.708 122.66 32.8431C119.459 36.0927 118.051 39.1939 117.408 41.7145C116.828 44.0126 117.223 44.4945 116.988 52.6368C116.803 59.0494 116.494 60.9645 115.432 62.9909C114.221 65.3137 112.516 66.8458 111.317 67.7478C112.38 67.9702 113.998 68.1679 115.926 67.8837C118.459 67.513 120.312 66.4875 121.313 65.8203C121.535 62.6696 121.572 59.9514 121.523 57.8015C121.325 47.5093 119.385 42.4064 122.511 38.1561C123.487 36.834 124.661 35.9938 125.563 35.4625Z" fill="#6D6C6C"/>
<path d="M84.5791 52.8963C86.7166 57.2702 88.8418 61.6441 90.9793 66.018C94.7848 63.7816 98.578 61.5329 102.384 59.2965C100.394 55.318 98.405 51.3395 96.4158 47.361C92.4743 49.202 88.5329 51.0553 84.5791 52.8963Z" fill="white" stroke="#161616" stroke-width="0.4"/>
<ellipse cx="92.8822" cy="55.6763" rx="3.36073" ry="3.41015" fill="white" stroke="#161616" stroke-width="0.4"/>
<path d="M96.7866 56.1211C96.243 56.9984 96.3542 58.098 96.9967 58.7529C97.7751 59.556 98.9241 59.3089 98.9859 59.2965C100.419 62.0271 101.852 64.7453 103.286 67.4759C104.015 67.1918 104.756 66.9076 105.485 66.611C103.805 63.9422 102.112 61.2734 100.432 58.5922C100.493 58.5428 101.408 57.8756 101.346 56.813C101.296 55.8616 100.469 55.0091 99.3566 54.8732C99.8508 55.4045 99.9497 56.1458 99.6284 56.7018C99.2577 57.3567 98.4917 57.3937 98.4423 57.4061C97.7504 57.4555 97.0584 56.9366 96.7866 56.1211Z" fill="white" stroke="#161616" stroke-width="0.4"/>
<path d="M91.0415 53.8354C91.0415 53.8477 91.0415 53.8601 91.0415 53.8724C91.0415 53.9713 91.128 54.0578 91.2268 54.0578C91.3257 54.0578 91.4122 53.9713 91.4122 53.8724C91.4122 53.8601 91.4122 53.8477 91.4122 53.8354C91.4122 53.7365 91.3257 53.65 91.2268 53.65C91.128 53.65 91.0415 53.7242 91.0415 53.8354V53.8354Z" fill="#161616"/>
<ellipse cx="98.2943" cy="55.8987" rx="1.43325" ry="1.45796" fill="white" stroke="#161616" stroke-width="0.4"/>
<path d="M90.5471 53.304C90.7201 53.4894 90.9178 53.6747 91.1031 53.8477C91.2885 54.0083 91.5479 53.7365 91.3626 53.5882C91.1649 53.4152 90.9796 53.2423 90.8066 53.0446C90.646 52.8716 90.3865 53.1311 90.5471 53.304V53.304Z" fill="#161616"/>
<path d="M89.6822 56.8254C90.0035 56.7018 90.3 56.5536 90.5965 56.3682C90.7942 56.2323 90.6089 55.9111 90.4112 56.047C90.1517 56.22 89.8799 56.3559 89.5957 56.4671C89.361 56.5536 89.4598 56.9119 89.6822 56.8254V56.8254Z" fill="#161616"/>
<path d="M91.5974 58.7529C91.8075 58.4934 92.0175 58.2216 92.2029 57.9374C92.3388 57.7397 92.0175 57.5544 91.8816 57.7521C91.7086 58.0115 91.5233 58.2586 91.338 58.4934C91.1897 58.6664 91.4492 58.9382 91.5974 58.7529V58.7529Z" fill="#161616"/>
<path d="M94.3773 57.6285C94.6615 57.715 94.921 57.8509 95.1434 58.0362C95.3287 58.1845 95.5882 57.925 95.4029 57.7768C95.131 57.542 94.8222 57.369 94.4638 57.2702C94.2538 57.1961 94.1549 57.5544 94.3773 57.6285V57.6285Z" fill="#161616"/>
<path d="M95.1435 55.491C95.3535 55.3675 95.5759 55.2686 95.7983 55.1821C96.0207 55.108 95.9219 54.7497 95.6995 54.8238C95.44 54.9103 95.1929 55.0339 94.9581 55.1698C94.7481 55.281 94.9334 55.6022 95.1435 55.491V55.491Z" fill="#161616"/>
<path d="M93.982 52.4515C93.8955 52.6245 93.809 52.7975 93.7225 52.9581C93.6113 53.1682 93.9326 53.3535 94.0438 53.1434C94.1303 52.9705 94.2167 52.7975 94.3032 52.6369C94.4021 52.4268 94.0932 52.2415 93.982 52.4515V52.4515Z" fill="#161616"/>
<path d="M96.8606 55.7752C97.0583 55.7999 97.256 55.8123 97.4537 55.837C97.5525 55.8493 97.639 55.7505 97.639 55.6516C97.639 55.5404 97.5525 55.4787 97.4537 55.4663C97.256 55.4416 97.0583 55.4292 96.8606 55.4045C96.7618 55.3922 96.6753 55.491 96.6753 55.5899C96.6753 55.7011 96.7618 55.7628 96.8606 55.7752V55.7752Z" fill="#161616"/>
<path d="M98.146 54.5396C98.1831 54.6508 98.2201 54.762 98.2572 54.8732C98.2943 54.9721 98.3808 55.0338 98.4796 54.9968C98.5661 54.9721 98.6402 54.8609 98.6032 54.7744C98.5661 54.6632 98.529 54.552 98.492 54.4408C98.4549 54.3419 98.3684 54.2801 98.2696 54.3172C98.1831 54.3419 98.1089 54.4408 98.146 54.5396V54.5396Z" fill="#161616"/>
<path d="M97.7877 57.2331C97.8865 57.0602 97.9977 56.8995 98.1213 56.7513C98.183 56.6771 98.1954 56.5659 98.1213 56.4918C98.0595 56.43 97.9236 56.4177 97.8618 56.4918C97.7135 56.6648 97.5776 56.8501 97.4664 57.0478C97.3552 57.2455 97.6765 57.4432 97.7877 57.2331V57.2331Z" fill="#161616"/>
<path d="M99.0602 55.8864C99.2579 55.9111 99.4433 55.8617 99.6286 55.7876C99.7151 55.7505 99.7398 55.6146 99.6904 55.5281C99.641 55.4292 99.5298 55.4169 99.4309 55.4663C99.3074 55.5157 99.1714 55.5281 99.0479 55.5157C98.949 55.5034 98.8625 55.6146 98.8625 55.7011C98.8749 55.8123 98.9614 55.8741 99.0602 55.8864V55.8864Z" fill="#161616"/>
<path d="M98.6771 56.7883C98.7759 56.9119 98.8748 57.0354 98.9736 57.159C99.0354 57.2331 99.1713 57.2208 99.2331 57.159C99.3072 57.0849 99.2949 56.9737 99.2331 56.8995C99.1342 56.776 99.0354 56.6524 98.9365 56.5289C98.8748 56.4547 98.7389 56.4671 98.6771 56.5289C98.5906 56.603 98.6153 56.7142 98.6771 56.7883V56.7883Z" fill="#161616"/>
<path d="M84.3324 53.0322C86.3216 57.4308 88.4345 61.78 90.6708 66.055C90.782 66.2651 91.1033 66.0798 90.9921 65.8697C88.7433 61.5947 86.6305 57.2455 84.6536 52.8469C84.5548 52.6368 84.2335 52.8222 84.3324 53.0322V53.0322Z" fill="#161616"/>
<path d="M84.2582 52.9704C86.2227 57.4308 88.3479 61.8047 90.646 66.0921C90.7572 66.3021 91.0785 66.1168 90.9673 65.9068C88.6691 61.6194 86.5316 57.2331 84.5794 52.7851C84.4806 52.5627 84.1593 52.7604 84.2582 52.9704V52.9704Z" fill="#161616"/>
<path d="M91.3378 64.5477C91.0907 64.4612 91.0907 64.0905 91.239 63.9175C91.3873 63.7569 91.6714 63.7198 91.8321 63.8928C92.2027 64.2635 91.6961 64.7577 91.2884 64.5477C91.1772 64.4982 91.0907 64.6589 91.1896 64.7083C91.4737 64.8566 91.8444 64.7948 92.0421 64.523C92.2274 64.2635 92.1409 63.8681 91.8691 63.6951C91.5973 63.5221 91.2019 63.621 91.0413 63.8928C90.8683 64.177 90.9548 64.6218 91.2884 64.7454C91.3996 64.7577 91.449 64.5847 91.3378 64.5477V64.5477Z" fill="#161616"/>
<path d="M91.3629 64.3005C91.4865 64.3005 91.4865 64.1152 91.3629 64.1152C91.2394 64.1152 91.2394 64.3005 91.3629 64.3005V64.3005Z" fill="#161616"/>
<path d="M91.6592 64.0287C91.6592 64.0164 91.6592 64.0164 91.6592 64.004C91.6592 63.8805 91.4739 63.8805 91.4739 64.004C91.4739 64.0164 91.4739 64.0164 91.4739 64.0287C91.4739 64.1399 91.6592 64.1399 91.6592 64.0287V64.0287Z" fill="#161616"/>
<path d="M91.5481 64.3376C91.5481 64.35 91.5481 64.35 91.5481 64.3623C91.5481 64.4859 91.7334 64.4859 91.7334 64.3623C91.7334 64.35 91.7334 64.35 91.7334 64.3376C91.7334 64.2141 91.5481 64.2141 91.5481 64.3376V64.3376Z" fill="#161616"/>
<path d="M84.5301 52.8345C86.5317 51.8955 88.5456 50.9565 90.5473 50.0051C92.4871 49.1032 94.4022 48.1147 96.3915 47.3363C96.5027 47.2992 96.4532 47.1139 96.342 47.1633C94.4146 47.9294 92.5489 48.8684 90.6708 49.7456C88.5951 50.7217 86.507 51.6978 84.4312 52.6739C84.3324 52.7233 84.4189 52.884 84.5301 52.8345V52.8345Z" fill="#161616"/>
<path d="M85.7654 53.3535C85.4813 53.2176 85.8272 52.8098 86.062 53.0075C86.2844 53.2052 86.0249 53.5388 85.7778 53.3905C85.6789 53.3288 85.5801 53.4894 85.6789 53.5512C85.8766 53.6624 86.1361 53.6129 86.272 53.4276C86.3956 53.2423 86.3338 52.9704 86.1608 52.8345C85.9755 52.6986 85.716 52.7604 85.5801 52.9334C85.4318 53.1187 85.4813 53.4029 85.6913 53.5017C85.7778 53.5635 85.8766 53.4029 85.7654 53.3535V53.3535Z" fill="#161616"/>
<path d="M97.3304 54.6137C96.725 54.9474 96.4531 55.6022 96.6385 56.2694C96.6755 56.3806 96.8485 56.3312 96.8115 56.22C96.6385 55.6269 96.8856 55.0586 97.4169 54.7744C97.5281 54.7126 97.4292 54.552 97.3304 54.6137V54.6137Z" fill="#161616"/>
<path d="M96.799 55.7752C96.8978 54.9473 97.8986 53.9836 98.7264 54.6014C98.8253 54.6755 98.9118 54.5149 98.8253 54.4408C97.8739 53.7365 96.7372 54.8238 96.6136 55.7752C96.6013 55.8987 96.7866 55.8864 96.799 55.7752V55.7752Z" fill="#161616"/>
<path d="M89.7562 57.1837C89.089 55.3551 89.6697 53.0693 91.7455 52.5504C91.8567 52.5256 91.8073 52.3403 91.6961 52.3774C89.5215 52.921 88.879 55.318 89.5709 57.2455C89.6203 57.3443 89.8057 57.2949 89.7562 57.1837V57.1837Z" fill="#161616"/>
<path d="M89.3364 55.3551C89.3488 56.7636 89.8183 58.3328 91.3504 58.7158C91.4616 58.7405 91.511 58.5675 91.3998 58.5428C89.9666 58.1721 89.5341 56.6771 89.5218 55.3551C89.5218 55.2315 89.3364 55.2315 89.3364 55.3551V55.3551Z" fill="#161616"/>
<path d="M89.3238 56.4548C89.6821 58.0857 91.0412 59.1853 92.7092 59.2101C92.8328 59.2101 92.8328 59.0247 92.7092 59.0247C91.1277 59 89.8427 57.9498 89.5091 56.4053C89.4844 56.2941 89.2991 56.3436 89.3238 56.4548V56.4548Z" fill="#161616"/>
<path opacity="0.18" d="M96.3915 56.8254C96.478 57.0231 96.9599 58.0239 98.1089 58.4193C98.8009 58.654 99.4186 58.5552 99.7028 58.481C99.9252 58.9258 100.148 59.3583 100.382 59.8031C101.667 62.2866 102.977 64.7083 104.299 67.0682C103.966 67.2288 103.62 67.3894 103.286 67.5377C101.828 64.7824 100.382 62.0147 98.9244 59.2594C98.702 59.3089 98.0966 59.4077 97.5035 59.0865C96.7498 58.6911 96.3174 57.8015 96.3915 56.8254Z" fill="#6D6C6C"/>
<path opacity="0.29" d="M96.7249 58.3822C97.4909 58.6417 98.257 58.9011 99.023 59.1606C100.728 61.7924 102.421 64.4365 104.126 67.0682C103.829 67.1423 103.545 67.2288 103.249 67.303C101.803 64.6589 100.37 62.0148 98.9242 59.3583C98.7265 59.383 98.2322 59.4448 97.6762 59.1853C97.1326 58.9506 96.8361 58.5428 96.7249 58.3822Z" fill="#6D6C6C"/>
<path opacity="0.17" d="M90.2135 53.3164C89.917 53.4647 88.1131 54.4408 87.6065 56.5659C87.5694 56.7018 87.0134 59.2471 88.4467 60.4209C89.7564 61.4835 92.3757 61.1499 94.2291 59.0371C93.9449 59.0247 92.1904 58.8888 90.9796 57.3814C89.5834 55.6022 90.1517 53.5141 90.2135 53.3164Z" fill="#6D6C6C"/>
<path opacity="0.18" d="M90.1766 53.5141C90.0283 53.6871 88.5209 55.4787 89.1264 57.6038C89.2129 57.9004 89.7565 59.7661 91.4245 60.0997C92.6354 60.3468 93.8091 59.6549 94.4022 58.7776C95.366 57.3444 94.8223 55.2563 93.525 54.1813C92.1535 53.0693 90.399 53.4647 90.1766 53.5141Z" fill="#6D6C6C"/>
<path d="M122.536 36.3151C123.005 35.8085 123.969 34.7583 124.859 34.9807C126.551 35.3884 126.761 39.96 126.836 41.3191C126.971 44.198 126.675 48.9796 123.734 54.9844C122.375 56.5906 120.485 58.5428 117.952 60.4085C115.024 62.5708 112.219 63.8928 110.069 64.7206C108.982 65.6967 107.993 66.3886 107.264 66.8335C106.202 67.5007 105.658 67.8343 104.843 67.9702C104.422 68.0443 103.014 68.2791 101.717 67.3771C100.481 66.5122 100.184 65.2025 100.123 64.8689C99.925 63.8928 100.123 63.0897 100.246 62.6943C101.581 62.4596 102.903 62.2248 104.237 61.99C101.803 61.607 101.296 61.2981 101.296 61.0881C101.296 60.6433 103.298 60.1367 105.114 60.2232C106.795 60.2973 108.117 60.878 108.945 61.3228C110.847 59.6054 112.417 58.2586 113.516 57.3443C115.085 56.0346 115.963 55.3674 117.136 54.1689C118.434 52.8469 119.36 51.6484 119.941 50.8453C119.991 48.4359 120.114 46.3973 120.238 44.8528C120.67 39.441 121.288 37.6618 122.536 36.3151Z" fill="white" stroke="#161616" stroke-width="0.4"/>
<path d="M100.024 63.7816C101.235 64.3747 102.582 64.35 103.792 63.7569C104.002 63.6581 103.817 63.3368 103.607 63.4357C102.52 63.9546 101.297 63.9793 100.209 63.4604C99.9992 63.3615 99.8015 63.6828 100.024 63.7816V63.7816Z" fill="#161616"/>
<path d="M100.036 64.8071C101.099 65.8944 102.619 65.9562 104.003 65.5237C104.225 65.4496 104.126 65.0913 103.904 65.1654C102.643 65.5608 101.272 65.5485 100.308 64.5476C100.135 64.3747 99.8634 64.6341 100.036 64.8071V64.8071Z" fill="#161616"/>
<path d="M100.741 66.6111C101.964 67.3648 103.496 67.3648 104.731 66.6111C104.929 66.4875 104.744 66.1663 104.546 66.2898C103.434 66.9694 102.05 66.9694 100.938 66.2898C100.728 66.1663 100.53 66.4875 100.741 66.6111V66.6111Z" fill="#161616"/>
<path opacity="0.17" d="M124.167 35.0919C124.278 35.7714 124.389 36.4633 124.5 37.1552C124.698 38.4155 124.883 39.6634 125.056 40.899C125.056 40.899 125.563 45.866 123.611 50.7341C121.881 55.0338 118.878 57.4432 115.851 59.8772C113.108 62.0765 110.526 64.1646 106.523 64.733C103.792 65.1284 101.482 64.6589 100.024 64.2264C100.048 64.6465 100.172 65.4743 100.716 66.3022C100.975 66.6852 101.778 67.7848 103.174 68.069C103.557 68.1431 104.262 68.2173 105.633 67.686C106.609 67.3153 108.265 66.5122 109.921 64.7206C112.046 63.9422 113.751 63.065 115.023 62.3236C115.975 61.7676 118.372 60.3097 121.016 57.8509C122.177 56.7636 123.092 55.7628 123.722 55.0091C124.451 53.6129 125.217 51.8584 125.798 49.7703C126.724 46.5208 126.761 44.1238 126.811 41.0102C126.811 41.0102 126.835 39.7005 126.242 37.1058C126.008 36.0803 125.748 35.2525 125.106 35.0301C124.76 34.9065 124.401 34.993 124.167 35.0919Z" fill="#6D6C6C"/>
<path opacity="0.17" d="M100.814 66.5493C101.457 66.7222 102.495 66.9323 103.706 66.747C105.015 66.5493 105.46 66.0798 108.042 64.943C109.748 64.1893 109.76 64.3129 111.181 63.6581C112.787 62.9167 113.936 62.2372 114.838 61.6935C118.261 59.6301 121.547 57.0725 122.869 56.0223C121.053 57.9868 118.446 60.3591 114.912 62.4101C113.158 63.4357 111.477 64.2017 109.97 64.7824C109.575 65.2025 108.932 65.8203 108.042 66.4257C106.745 67.3153 105.473 68.1926 103.866 68.069C103.434 68.0443 102.137 67.8713 100.814 66.5493Z" fill="#6D6C6C"/>
<path d="M99.5049 14.0379C98.5782 14.3715 97.6762 16.1136 98.2817 23.0328C97.0832 26.7518 97.8245 30.5697 100.234 32.7567C102.05 34.4 104.225 34.5729 104.645 34.5976C107.499 34.7706 110.39 33.1767 111.515 30.8539C111.712 30.4585 112.095 29.6307 112.021 28.5681C111.885 26.7148 110.427 25.4668 109.896 24.9973C104.682 20.3269 101.704 13.2471 99.5049 14.0379Z" fill="#5222D0"/>
<path d="M109.118 27.0607C109.105 27.8639 110.044 28.321 110.687 30.0632C110.996 30.9157 111.095 31.6694 111.119 32.1265C111.577 32.2254 112.899 32.4354 114.32 31.7559C115.32 31.274 115.913 30.5697 116.198 30.1867C115.197 28.1851 114.196 26.1835 113.195 24.1695C109.822 25.3804 109.13 26.3812 109.118 27.0607Z" fill="white" stroke="#161616" stroke-width="0.4"/>
<path d="M99.752 13.1854C98.677 15.4711 99.1589 17.8064 99.4925 19.3632C99.8137 20.8953 100.753 23.8853 103.508 26.27C105.423 27.9256 107.412 28.5805 108.5 28.8646C109.451 28.4569 110.909 27.7032 112.281 26.2947C113.689 24.8491 114.319 23.4158 114.912 22.0814C116.024 19.5238 116.79 17.7693 116.494 15.5576C116.173 13.0371 114.542 10.3559 111.947 9.03386C107.487 6.74807 101.605 9.26862 99.752 13.1854Z" fill="white" stroke="#161616" stroke-width="0.4"/>
<path d="M103.867 18.0411C104.052 18.8813 104.262 19.7215 104.509 20.5493C104.744 21.3524 104.966 22.2544 105.337 23.0081C105.868 24.083 106.844 22.1803 107.079 21.7478C107.19 21.5378 106.881 21.3524 106.758 21.5625C106.659 21.7478 105.979 22.9957 105.794 22.9463C105.473 22.8598 105.201 21.5378 105.114 21.2536C104.768 20.1663 104.472 19.0666 104.225 17.9546C104.163 17.7199 103.805 17.8187 103.867 18.0411V18.0411Z" fill="#161616"/>
<path d="M99.9869 18.8689C100.876 18.8689 101.754 18.7454 102.619 18.523C102.853 18.4612 102.755 18.1029 102.52 18.1647C101.692 18.3871 100.839 18.4983 99.9869 18.4983C99.7521 18.4983 99.7398 18.8689 99.9869 18.8689V18.8689Z" fill="#161616"/>
<path d="M106.684 17.1268C107.437 16.2248 108.685 15.9901 109.698 16.6326C109.896 16.7561 110.081 16.4349 109.884 16.3113C108.747 15.5824 107.289 15.8295 106.424 16.855C106.276 17.0403 106.535 17.3121 106.684 17.1268V17.1268Z" fill="#161616"/>
<path d="M101.618 20.4134C101.47 20.3763 101.346 19.845 101.482 19.7709C101.618 19.7091 101.618 20.0304 101.618 20.0798C101.63 20.191 101.618 20.3763 101.655 20.4875C101.655 20.5122 101.655 20.5246 101.655 20.5493C101.68 20.5369 101.704 20.5122 101.729 20.4999C101.729 20.4875 101.618 20.3763 101.593 20.3392C101.544 20.2528 101.531 20.1539 101.544 20.0551C101.544 20.018 101.556 19.9933 101.568 19.9562C101.519 19.9562 101.47 19.9562 101.408 19.9562C101.395 19.9686 101.457 20.1168 101.457 20.1416C101.47 20.191 101.482 20.2898 101.507 20.3269C101.519 20.3516 101.519 20.3763 101.531 20.401C101.643 20.401 101.692 20.3516 101.655 20.2775C101.618 20.0427 101.26 20.1416 101.297 20.3763C101.334 20.5864 101.507 20.8211 101.754 20.7099C102.026 20.5864 101.877 20.2404 101.816 20.0427C101.754 19.845 101.68 19.5238 101.395 19.635C101.173 19.7215 101.148 20.0304 101.173 20.228C101.21 20.4504 101.334 20.6852 101.531 20.8088C101.766 20.957 102.013 20.8088 102.026 20.5493C102.026 20.401 102.001 20.2404 101.989 20.0798C101.976 19.9315 101.976 19.7709 101.914 19.635C101.828 19.4249 101.606 19.3014 101.383 19.4002C100.877 19.6103 100.988 20.6605 101.519 20.7717C101.754 20.8211 101.853 20.4628 101.618 20.4134V20.4134Z" fill="#161616"/>
<path d="M108.265 18.906C108.142 18.8319 108.117 18.696 108.105 18.5601C108.105 18.523 108.092 18.2265 108.105 18.2265C108.129 18.2141 108.216 18.5477 108.228 18.6218C108.253 18.8072 108.24 18.9925 108.203 19.1778C108.302 19.1531 108.413 19.1284 108.512 19.0914C108.278 18.8937 108.142 18.5971 108.203 18.2882C108.179 18.3253 108.142 18.3624 108.117 18.3994C108.142 18.3871 108.166 18.7207 108.166 18.7577C108.179 18.8566 108.203 18.9431 108.265 19.0296C108.389 19.2273 108.71 19.0419 108.586 18.8442C108.451 18.6342 108.574 18.3747 108.389 18.177C108.265 18.0411 108.03 17.9546 107.882 18.1029C107.746 18.2388 107.808 18.5971 107.857 18.7577C107.932 18.9925 108.055 19.1902 108.24 19.3508C108.339 19.4373 108.525 19.4126 108.549 19.2643C108.624 18.906 108.611 18.5353 108.488 18.1894C108.401 17.9546 108.203 17.6952 107.932 17.8434C107.697 17.9793 107.697 18.3129 107.722 18.5477C107.746 18.8195 107.833 19.0666 108.068 19.2149C108.278 19.3508 108.463 19.0296 108.265 18.906V18.906Z" fill="#161616"/>
<path d="M109.253 21.0559C109.488 21.0559 109.488 20.6852 109.253 20.6852C109.006 20.6852 109.006 21.0559 109.253 21.0559V21.0559Z" fill="#161616"/>
<path d="M110.353 19.845C110.366 19.845 110.378 19.845 110.39 19.845C110.489 19.845 110.576 19.7585 110.576 19.6597C110.576 19.5609 110.489 19.4744 110.39 19.4744C110.378 19.4744 110.366 19.4744 110.353 19.4744C110.254 19.4744 110.168 19.5609 110.168 19.6597C110.168 19.7585 110.242 19.845 110.353 19.845V19.845Z" fill="#161616"/>
<path d="M110.131 20.7964C110.131 20.8088 110.131 20.8212 110.131 20.8335C110.131 20.9324 110.217 21.0188 110.316 21.0188C110.415 21.0188 110.501 20.9324 110.501 20.8335C110.501 20.8212 110.501 20.8088 110.501 20.7964C110.501 20.6976 110.415 20.6111 110.316 20.6111C110.205 20.6111 110.131 20.6976 110.131 20.7964V20.7964Z" fill="#161616"/>
<path d="M105.399 25.4792C106.498 25.1703 107.536 25.5657 108.549 25.9858C108.772 26.0723 108.87 25.714 108.648 25.6275C107.573 25.1827 106.461 24.7873 105.3 25.1209C105.077 25.195 105.176 25.5533 105.399 25.4792V25.4792Z" fill="#161616"/>
<path d="M97.8494 17.3369C96.5768 13.9391 99.0355 10.5166 99.3568 10.0717C99.5915 9.76286 102.26 6.26622 106.671 6.36506C108.599 6.40213 110.057 7.1064 110.81 7.5512C111.898 7.62534 113.961 7.92187 116.025 9.33041C119.744 11.851 120.473 15.953 120.596 16.7561C121.56 17.6334 122.919 19.0543 124.043 21.1177C124.377 21.7355 124.921 22.7363 125.267 23.9965C125.501 24.8985 126.91 30.1002 123.586 32.8802C121.671 34.4865 118.792 34.783 116.618 33.8069C114.406 32.8184 113.257 30.6562 113.109 30.372C113.01 30.1867 112.948 30.0384 112.899 29.9396C110.897 25.4298 114.085 20.8706 114.295 20.5864C114.394 20.5493 115.654 20.0674 115.913 18.869C116.136 17.8558 115.617 16.5337 114.789 16.4472C114.245 16.3855 113.652 16.8797 113.282 17.5716C112.367 17.1145 111.255 16.4596 110.106 15.5329C108.562 14.2727 107.511 12.9506 106.82 11.9251C105.535 12.3081 102.94 13.2966 100.79 15.7924C99.8016 16.9415 99.1838 18.1029 98.8008 19.0172C98.5166 18.6342 98.1336 18.0782 97.8494 17.3369Z" fill="#5222D0"/>
<path opacity="0.13" d="M104.979 12.6046C106.066 13.1854 108.315 14.6063 109.834 17.3616C110.452 18.4859 111.725 20.7841 111.23 23.7865C110.786 26.48 109.155 28.1974 108.5 28.8276C108.846 28.6793 109.328 28.531 109.933 28.4569C110.464 28.3951 110.922 28.4322 111.268 28.4816C111.576 28.9511 111.91 29.5566 112.207 30.2855C112.515 31.0516 112.688 31.7559 112.787 32.3242C113.294 32.1636 113.8 32.0153 114.307 31.8547C114.406 32.04 114.554 32.2995 114.789 32.5713C115.889 33.9057 117.532 34.1529 118.199 34.2517C120.176 34.5482 121.708 33.844 122.276 33.5845C122.276 33.5845 123.45 33.0285 124.29 32.1883C126.144 30.3597 126.292 26.0846 124.389 21.6366C124.278 22.0691 123.796 23.7247 122.178 24.7502C120.46 25.8375 118.125 25.8128 116.42 24.5525C114.48 23.1193 114.369 20.8335 114.356 20.5246C114.566 20.4628 114.925 20.3146 115.271 19.9933C115.345 19.9315 115.975 19.3014 115.975 18.3377C115.975 17.7446 115.74 16.5584 114.925 16.4102C114.344 16.299 113.652 16.7438 113.319 17.5098C112.169 16.9538 110.613 16.0395 109.093 14.5692C108.104 13.6178 107.376 12.6664 106.832 11.851C106.436 11.9622 105.992 12.1104 105.535 12.3205C105.324 12.4317 105.151 12.5182 104.979 12.6046Z" fill="#6D6C6C"/>
<path opacity="0.15" d="M114.258 20.5987C113.936 20.8582 113.455 21.303 113.022 21.9578C112.034 23.4282 112.231 24.5278 111.379 26.2205C111.132 26.7271 110.699 27.4437 109.946 28.2345C110.551 28.0739 111.156 27.9009 111.774 27.7403C111.91 28.2963 112.071 28.8646 112.244 29.4453C112.54 30.4462 112.849 31.3852 113.183 32.2748C113.516 32.1389 113.838 31.9906 114.171 31.8547C113.739 31.3358 113.109 30.4832 112.701 29.2847C112.021 27.2955 112.343 25.578 112.54 24.6019C112.886 22.798 113.665 21.4513 114.258 20.5987Z" fill="#6D6C6C"/>
<path opacity="0.33" d="M103.372 26.27C103.533 26.5171 104.126 27.4685 103.866 28.6176C103.545 30.0261 102.149 30.8539 100.938 30.9651C99.7272 31.0887 98.8128 30.4833 98.541 30.2856C98.7387 30.8045 99.097 31.5706 99.7642 32.3119C101.605 34.3629 104.793 35.1043 107.462 34.2147C109.278 33.6092 110.415 32.3984 110.983 31.6818C110.946 31.2864 110.86 30.8045 110.687 30.2732C110.415 29.4454 110.019 28.8276 109.698 28.4199C109.34 28.6052 108.994 28.7905 108.636 28.9882C107.931 28.8523 106.968 28.5928 105.917 28.0616C104.756 27.4932 103.928 26.8013 103.372 26.27Z" fill="#6D6C6C"/>
<path d="M109.982 28.4569C110.687 28.0615 111.317 27.592 111.897 27.0484C112.07 26.8878 111.811 26.6159 111.638 26.7889C111.082 27.3202 110.464 27.765 109.797 28.148C109.587 28.2469 109.772 28.5681 109.982 28.4569V28.4569Z" fill="#161616"/>
<path d="M110.143 28.6299C110.835 28.0615 111.49 27.4561 112.12 26.8259C112.293 26.653 112.021 26.3935 111.86 26.5665C111.23 27.1966 110.563 27.802 109.884 28.3704C109.698 28.531 109.958 28.7905 110.143 28.6299V28.6299Z" fill="#161616"/>
</svg>
