<svg width="1293" height="112" viewBox="0 0 1293 112" fill="none" xmlns="http://www.w3.org/2000/svg">
<g clip-path="url(#clip0_5_189)">
<path d="M1301.13 63.459L1301.13 71.1146C1301.13 71.1146 1287.25 78.5007 1232.13 80.1395C1197.63 81.1652 1156.23 40.0182 1116.63 41.1395C1077.13 41.1395 1084.08 55.4114 1057.13 65.6395C1047.68 69.226 1024.63 76.1395 1011.13 77.1395C983.128 80.1395 979.823 76.5276 978.128 72.6395C972.628 60.0178 1032.58 35.6489 983.128 44.6395C949.405 50.7709 926.891 56.8156 902.628 62.6395C878.619 68.4027 855.128 76.0434 817.628 83.1395C764.173 93.2549 760.628 103.14 679.128 98.1395C619.237 94.4652 568.207 42.8491 529.128 38.6395C490.198 34.446 508.784 87.1426 464.128 82.2107C404.628 75.6395 393.062 38.7058 341.128 37.6395C284.96 36.4863 221.128 100.64 202.234 83.8762C183.339 67.1129 188.054 19.9373 171.139 25.4071C162.474 28.209 199.966 89.9493 176.663 98.8286C160.344 105.047 128.793 99.9988 111.942 83.1481C96.7844 67.9901 133.476 37.2414 121.599 26.3172C109.722 15.393 -11.372 44.1313 -11.372 44.1313L-3.87363 35.9789C13.7042 29.2036 117.042 7.66267 128.147 19.1977C148.72 40.5671 102.456 68.1548 122.354 82.2107C131.683 88.8006 150.754 95.5481 169.097 91.8697C194.245 86.8267 144.944 25.0118 169.584 17.8833C195.065 10.5115 190.096 81.9916 212.16 80.2221C238.128 78.1395 289.331 30.0715 344.628 32.1395C392.68 33.9366 412.013 69.4321 459.628 76.1395C501.628 82.056 483.628 27.9354 528.128 32.6395C568.391 36.8957 617.628 83.8762 680.628 91.8697C732.438 97.096 763.348 90.5559 816.628 77.6395C844.731 70.8267 875.147 62.5758 902.128 56.1395C938.513 47.4602 969.06 41.2641 983.128 38.6395C1007.63 34.0687 1019.63 40.4796 1003.63 52.6395C993.078 60.6574 983.282 67.8566 984.628 71.1395C985.976 74.4244 998.473 73.7902 1011.13 72.1395C1033.58 69.2115 1046.63 63.8118 1057.63 60.1395C1078.13 52.1395 1073.2 36.7517 1116.13 35.9789C1155.72 35.2661 1202.96 75.0249 1232.13 74.4925C1287.23 73.4866 1301.13 63.459 1301.13 63.459Z" fill="url(#paint0_linear_5_189)"/>
<path d="M1301.13 63.459L1301.13 71.1146C1301.13 71.1146 1287.25 78.5006 1232.13 80.1395C1197.63 81.1652 1156.23 40.0182 1116.63 41.1395C1077.13 41.1395 1084.08 55.4114 1057.13 65.6395C1047.68 69.226 1024.63 76.1395 1011.13 77.1395C983.128 80.1395 979.823 76.5276 978.128 72.6395C972.628 60.0178 1032.58 35.6489 983.128 44.6395C949.405 50.7709 926.891 56.8157 902.628 62.6395C878.619 68.4028 855.128 76.0434 817.628 83.1395C764.173 93.2549 760.628 103.14 679.128 98.1395C619.237 94.4652 568.207 42.8491 529.128 38.6395C490.198 34.446 508.784 87.1425 464.128 82.2107C404.628 75.6395 393.062 38.7058 341.128 37.6395C284.96 36.4863 221.128 100.64 202.234 83.8762C183.339 67.1129 188.054 19.9373 171.139 25.4071C162.474 28.209 199.966 89.9493 176.663 98.8286C160.344 105.047 128.793 99.9988 111.942 83.1481C96.7844 67.9901 133.476 37.2414 121.599 26.3172C109.722 15.393 -11.372 44.1313 -11.372 44.1313L-3.87363 35.9789C13.7042 29.2035 117.042 7.66268 128.147 19.1977C148.72 40.5672 102.456 68.1548 122.354 82.2107C131.683 88.8006 150.754 95.5481 169.097 91.8697C194.245 86.8267 144.944 25.0118 169.584 17.8833C195.065 10.5115 190.096 81.9916 212.16 80.2221C238.128 78.1395 289.331 30.0715 344.628 32.1395C392.68 33.9366 412.013 69.4321 459.628 76.1395C501.628 82.056 483.628 27.9354 528.128 32.6395C568.391 36.8957 617.628 83.8762 680.628 91.8697C732.438 97.096 763.348 90.5559 816.628 77.6395C844.731 70.8267 875.147 62.5758 902.128 56.1395C938.513 47.4602 969.061 41.2641 983.128 38.6395C1007.63 34.0686 1019.63 40.4796 1003.63 52.6395C993.078 60.6574 983.282 67.8566 984.628 71.1395C985.976 74.4244 998.473 73.7902 1011.13 72.1395C1033.58 69.2115 1046.63 63.8118 1057.63 60.1395C1078.13 52.1395 1073.2 36.7517 1116.13 35.9789C1155.72 35.2662 1202.96 75.0249 1232.13 74.4925C1287.23 73.4865 1301.13 63.459 1301.13 63.459Z" fill="url(#paint1_linear_5_189)"/>
</g>
<defs>
<linearGradient id="paint0_linear_5_189" x1="1117.13" y1="12.1395" x2="119.632" y2="108.266" gradientUnits="userSpaceOnUse">
<stop stop-color="#64A70B"/>
<stop offset="1" stop-color="#009CDE"/>
</linearGradient>
<linearGradient id="paint1_linear_5_189" x1="1117.13" y1="12.1395" x2="119.632" y2="108.266" gradientUnits="userSpaceOnUse">
<stop stop-color="#64A70B"/>
<stop offset="1" stop-color="#009CDE"/>
</linearGradient>
<clipPath id="clip0_5_189">
<rect width="1292" height="112" fill="white" transform="translate(0.156982)"/>
</clipPath>
</defs>
</svg>
