<svg width="152" height="122" viewBox="0 0 152 122" fill="none" xmlns="http://www.w3.org/2000/svg">
<path d="M29.6212 100.746C40.3316 100.746 51.042 100.746 61.7524 100.746C72.4278 100.746 83.1031 100.746 93.7667 100.746C99.8001 100.746 105.845 100.746 111.879 100.746C112.101 100.746 112.101 100.395 111.879 100.395C101.168 100.395 90.4577 100.395 79.7473 100.395C69.072 100.395 58.3967 100.395 47.733 100.395C41.6996 100.395 35.6546 100.395 29.6212 100.395C29.3991 100.395 29.3991 100.746 29.6212 100.746V100.746Z" fill="#E8E8E8"/>
<path d="M114.042 93.473C113.948 96.8405 114.287 100.208 115.059 103.494C115.106 103.716 115.445 103.622 115.398 103.4C114.638 100.149 114.299 96.8171 114.404 93.473C114.392 93.2509 114.042 93.2509 114.042 93.473V93.473Z" fill="#E8E8E8"/>
<path d="M127.968 93.7419C128.295 96.8522 128.096 99.9975 127.383 103.038C127.336 103.26 127.664 103.353 127.722 103.131C128.447 100.056 128.658 96.8872 128.319 93.7419C128.295 93.5198 127.944 93.5198 127.968 93.7419V93.7419Z" fill="#E8E8E8"/>
<path d="M115.199 103.821C119.245 104.85 123.524 104.71 127.488 103.4C127.698 103.33 127.605 102.991 127.394 103.061C123.477 104.347 119.28 104.499 115.293 103.482C115.07 103.435 114.977 103.774 115.199 103.821V103.821Z" fill="#E8E8E8"/>
<path d="M114.205 93.6367C118.754 94.6072 123.466 94.5838 128.003 93.5782C128.225 93.5315 128.131 93.1924 127.909 93.2392C123.431 94.233 118.777 94.2447 114.299 93.2976C114.077 93.2509 113.983 93.5899 114.205 93.6367V93.6367Z" fill="#E8E8E8"/>
<path d="M116.977 93.7653C116.369 92.3973 116.918 90.7253 117.374 89.3806C117.842 87.9892 118.508 86.6679 119.327 85.4519C119.233 85.4636 119.14 85.4753 119.046 85.487C119.315 85.791 119.608 86.0014 119.97 86.1768C120.11 86.2353 120.262 86.1418 120.227 85.9781C120.087 85.3467 119.841 84.727 120.122 84.0956C120.321 83.6512 120.601 83.2069 120.835 82.786C120.753 82.8094 120.672 82.8328 120.59 82.8444C120.835 82.9965 121.081 83.1368 121.326 83.2888C121.49 83.394 121.63 83.1952 121.572 83.0432C121.326 82.5054 121.163 81.9675 121.502 81.4296C121.7 81.1023 121.958 80.8099 122.18 80.5059C122.671 79.8511 123.185 79.1964 123.7 78.5533C124.682 77.3256 125.699 76.1329 126.752 74.9636C126.658 74.952 126.565 74.9403 126.471 74.9286C127.968 76.8929 128.915 79.2431 129.172 81.6986C129.301 82.8795 129.266 84.0956 129.055 85.2648C128.95 85.8611 128.798 86.4458 128.611 87.0187C128.576 87.1356 128.529 87.2526 128.494 87.3578C128.365 87.6852 128.155 87.8255 127.816 87.8956C127.582 87.9424 127.453 87.9073 127.254 88.0593C127.161 88.1295 127.138 88.2464 127.219 88.34C127.477 88.6089 127.582 88.6557 127.488 89.0181C127.43 89.252 127.29 89.4975 127.184 89.7314C126.974 90.1991 126.74 90.6551 126.494 91.0994C125.992 92.0114 125.419 92.8767 124.776 93.6952C124.635 93.8706 124.881 94.1161 125.021 93.9407C126.261 92.3505 127.243 90.6083 127.979 88.7375C128.003 88.679 127.979 88.6089 127.933 88.5621C127.781 88.4101 127.629 88.2464 127.465 88.0944C127.453 88.188 127.442 88.2815 127.43 88.375C127.699 88.188 128.003 88.3166 128.283 88.1997C128.506 88.1178 128.622 87.9541 128.716 87.7436C128.973 87.1941 129.137 86.5627 129.277 85.9781C129.57 84.6919 129.663 83.3706 129.57 82.061C129.371 79.4185 128.4 76.8578 126.787 74.7532C126.728 74.6713 126.6 74.6246 126.506 74.7181C125.208 76.1563 123.957 77.6413 122.765 79.1613C122.227 79.8395 121.654 80.5176 121.186 81.2543C120.765 81.9207 120.964 82.5521 121.256 83.2303C121.338 83.1485 121.42 83.0666 121.502 82.9848C121.256 82.8328 121.011 82.6924 120.765 82.5404C120.683 82.4937 120.566 82.5171 120.52 82.5989C120.227 83.1368 119.771 83.7331 119.608 84.3294C119.467 84.8556 119.76 85.5454 119.876 86.0599C119.958 85.9898 120.052 85.9313 120.134 85.8611C119.795 85.7091 119.526 85.5104 119.28 85.2297C119.198 85.1362 119.058 85.1713 118.999 85.2648C118.087 86.6212 117.374 88.1061 116.883 89.6729C116.462 91.0293 116.053 92.5727 116.649 93.929C116.766 94.1395 117.07 93.9641 116.977 93.7653V93.7653Z" fill="#E8E8E8"/>
<path d="M126.495 77.6179C126.027 82.9146 122.402 87.1591 120.894 92.1401C120.824 92.3623 121.163 92.4441 121.233 92.2336C122.741 87.2175 126.378 82.9614 126.845 77.6179C126.869 77.384 126.506 77.3957 126.495 77.6179V77.6179Z" fill="#E8E8E8"/>
<path d="M122.074 80.4358C122.448 82.3651 122.881 84.271 123.372 86.1652C123.431 86.3873 123.77 86.2938 123.711 86.0716C123.22 84.1774 122.788 82.2599 122.413 80.3423C122.378 80.1201 122.039 80.2137 122.074 80.4358V80.4358Z" fill="#E8E8E8"/>
<path d="M126.027 81.6752C127.044 80.9386 127.921 80.0616 128.681 79.0444C128.821 78.869 128.517 78.6936 128.377 78.869C127.664 79.8278 126.822 80.6696 125.851 81.3712C125.676 81.5115 125.851 81.8155 126.027 81.6752V81.6752Z" fill="#E8E8E8"/>
<path d="M124.939 76.6708C125.255 77.6764 125.442 78.9041 126.214 79.6641C126.377 79.8278 126.623 79.5706 126.459 79.4186C125.746 78.7053 125.559 77.501 125.267 76.5773C125.208 76.3668 124.869 76.4603 124.939 76.6708V76.6708Z" fill="#E8E8E8"/>
<path d="M116.275 93.6718C115.562 93.1106 115.129 92.3272 114.767 91.5087C114.357 90.5499 114.007 89.5677 113.691 88.5738C113.095 86.6679 112.662 84.7036 112.405 82.7275C111.879 78.5884 112.3 74.4024 111.797 70.2516C111.692 70.2866 111.575 70.31 111.469 70.3451C112.779 73.2916 115.842 75.0572 118.391 76.8111C118.368 76.7292 118.345 76.6474 118.333 76.5655C117.982 77.0683 117.631 77.5711 117.281 78.0739C117.199 78.1908 117.304 78.3428 117.433 78.3428C117.889 78.3428 118.286 78.2844 118.719 78.1324C118.649 78.109 118.59 78.0739 118.52 78.0505C118.953 78.717 119.385 79.3835 119.818 80.0499C119.83 79.9798 119.841 79.9096 119.841 79.8395C119.631 80.0382 119.455 80.2604 119.28 80.5059C119.222 80.5878 119.28 80.7515 119.385 80.7632C120.344 80.9035 120.683 81.8155 120.929 82.634C120.999 82.8445 121.338 82.7626 121.268 82.5405C120.975 81.6167 120.554 80.5761 119.479 80.4241C119.514 80.5059 119.549 80.5995 119.584 80.6813C119.736 80.4475 119.888 80.2838 120.087 80.0967C120.145 80.0499 120.157 79.9447 120.11 79.8862C119.678 79.2198 119.245 78.5533 118.812 77.8868C118.777 77.8283 118.695 77.7816 118.614 77.805C118.216 77.9336 117.83 78.0037 117.421 77.992C117.468 78.0856 117.526 78.1674 117.573 78.261C117.924 77.7582 118.274 77.2554 118.625 76.7526C118.684 76.6708 118.637 76.5655 118.567 76.5071C116.065 74.7883 113.06 73.0695 111.773 70.1697C111.703 70.0177 111.423 70.0879 111.446 70.2632C111.96 74.5661 111.504 78.9158 112.112 83.2069C112.405 85.2765 112.884 87.311 113.551 89.2871C114.088 90.889 114.65 92.8416 116.018 93.929C116.205 94.0577 116.45 93.8121 116.275 93.6718V93.6718Z" fill="#E8E8E8"/>
<path d="M111.54 70.6023C112.487 73.2215 113.282 75.9809 114.556 78.4714C115.188 79.6992 115.877 80.9035 116.474 82.1546C117.117 83.5109 117.69 84.8907 118.274 86.2587C118.356 86.4692 118.66 86.2821 118.578 86.0833C118.029 84.7737 117.468 83.4642 116.871 82.178C116.287 80.9152 115.609 79.7109 114.954 78.4831C113.644 75.9809 112.837 73.1747 111.867 70.5205C111.797 70.2983 111.458 70.3919 111.54 70.6023V70.6023Z" fill="#E8E8E8"/>
<path d="M111.984 79.4887C113.247 79.6407 114.626 79.7109 115.585 80.658C115.749 80.8217 115.994 80.5644 115.831 80.4124C114.802 79.4069 113.34 79.3133 111.984 79.1496C111.762 79.1145 111.762 79.4653 111.984 79.4887V79.4887Z" fill="#E8E8E8"/>
<path d="M115.363 74.7532C115.152 75.5132 115.012 76.2966 114.954 77.0917C114.907 77.7699 114.825 78.565 115.059 79.2198C115.129 79.4302 115.468 79.3367 115.398 79.1262C115.176 78.5065 115.258 77.7348 115.304 77.08C115.363 76.32 115.503 75.5717 115.702 74.8351C115.76 74.6246 115.421 74.5311 115.363 74.7532V74.7532Z" fill="#E8E8E8"/>
<path d="M112.779 85.8611C113.691 85.8845 114.568 85.8962 115.457 86.1418C116.333 86.3873 117.199 86.6445 118.076 86.9018C118.298 86.9602 118.391 86.6212 118.169 86.5627C117.234 86.2938 116.31 86.0015 115.363 85.7559C114.509 85.5337 113.656 85.5454 112.779 85.5221C112.557 85.4987 112.557 85.8494 112.779 85.8611V85.8611Z" fill="#E8E8E8"/>
<path d="M125.571 93.3444C126.354 93.2392 127.126 93.2392 127.909 93.3444C127.874 93.2626 127.839 93.169 127.804 93.0872C127.734 93.1924 127.032 93.2041 126.892 93.2158C126.576 93.2626 126.249 93.3093 125.933 93.3795C125.886 93.3912 125.571 93.4263 125.559 93.4613C125.582 93.4029 126.05 93.4146 126.12 93.4146C126.459 93.4146 126.798 93.4496 127.137 93.473C127.137 93.3561 127.137 93.2392 127.137 93.1222C126.845 93.1106 126.588 93.1456 126.296 93.2275C126.109 93.2743 126.144 93.5666 126.342 93.5666C126.798 93.5666 127.208 93.473 127.652 93.3561C127.874 93.2976 127.781 92.9586 127.558 93.017C127.161 93.1222 126.763 93.2158 126.342 93.2158C126.354 93.3327 126.377 93.4496 126.389 93.5549C126.635 93.4847 126.88 93.4613 127.137 93.4613C127.36 93.4613 127.36 93.1222 127.137 93.1106C126.623 93.0872 125.875 92.9001 125.407 93.1924C125.22 93.3093 124.951 93.6133 125.197 93.8004C125.302 93.8823 125.419 93.8355 125.547 93.8238C125.898 93.7536 126.237 93.6718 126.588 93.6133C126.997 93.5432 127.816 93.6484 128.096 93.2626C128.155 93.1807 128.096 93.017 127.991 93.0053C127.173 92.8884 126.377 92.8884 125.559 92.9936C125.349 93.017 125.349 93.3678 125.571 93.3444V93.3444Z" fill="#E8E8E8"/>
<path d="M114.358 93.5666C114.521 93.5198 114.685 93.4847 114.849 93.473C114.93 93.473 115.001 93.4613 115.082 93.473C115.118 93.473 115.281 93.4613 115.293 93.473C115.281 93.4146 115.258 93.3561 115.246 93.2976C115.246 93.3093 115.234 93.321 115.234 93.321C115.305 93.2859 115.375 93.2392 115.445 93.2041C115.433 93.2041 115.422 93.2041 115.422 93.2041C115.457 93.2392 115.503 93.2859 115.538 93.321C115.538 93.3093 115.538 93.2976 115.527 93.2976C115.468 93.0755 115.141 93.169 115.188 93.3912C115.188 93.4029 115.188 93.4146 115.199 93.4146C115.211 93.473 115.27 93.5198 115.316 93.5315C115.328 93.5315 115.34 93.5315 115.34 93.5315C115.433 93.5549 115.515 93.5081 115.55 93.4146C115.55 93.4029 115.562 93.3912 115.562 93.3912C115.585 93.3327 115.562 93.2626 115.515 93.2158C115.386 93.0872 115.106 93.1105 114.942 93.1105C114.708 93.1105 114.463 93.1573 114.241 93.2158C114.054 93.2859 114.147 93.625 114.358 93.5666V93.5666Z" fill="#E8E8E8"/>
<path d="M114.627 95.9168C118.894 96.6534 123.326 97.0042 127.535 95.7414C127.746 95.6712 127.664 95.3438 127.442 95.4023C123.302 96.6417 118.929 96.3026 114.72 95.5777C114.498 95.5426 114.404 95.8817 114.627 95.9168V95.9168Z" fill="#E8E8E8"/>
<path d="M129.324 100.722C136.819 100.722 144.326 100.722 151.821 100.722C152.043 100.722 152.043 100.372 151.821 100.372C144.326 100.372 136.819 100.372 129.324 100.372C129.09 100.372 129.09 100.722 129.324 100.722V100.722Z" fill="#E8E8E8"/>
<path d="M123.653 108.241C130.715 108.241 137.789 108.241 144.852 108.241C145.074 108.241 145.074 107.89 144.852 107.89C137.789 107.89 130.715 107.89 123.653 107.89C123.431 107.89 123.431 108.241 123.653 108.241V108.241Z" fill="#E8E8E8"/>
<path d="M126.868 108.206C126.027 108.907 125.185 109.597 124.355 110.299C124.179 110.439 124.425 110.685 124.6 110.544C125.442 109.843 126.284 109.153 127.114 108.451C127.289 108.311 127.032 108.054 126.868 108.206V108.206Z" fill="#E8E8E8"/>
<path d="M124.46 110.673C124.682 110.673 124.682 110.322 124.46 110.322C124.238 110.322 124.238 110.673 124.46 110.673V110.673Z" fill="#E8E8E8"/>
<path d="M128.026 110.322C120.905 110.322 113.784 110.322 106.664 110.322C106.442 110.322 106.442 110.673 106.664 110.673C113.784 110.673 120.905 110.673 128.026 110.673C128.248 110.673 128.248 110.322 128.026 110.322V110.322Z" fill="#E8E8E8"/>
<path d="M106.629 113.947C107.891 112.894 109.189 111.889 110.522 110.918C110.698 110.79 110.534 110.486 110.347 110.614C108.991 111.597 107.669 112.625 106.383 113.689C106.208 113.841 106.453 114.087 106.629 113.947V113.947Z" fill="#E8E8E8"/>
<path d="M0.179315 107.563C8.43428 107.563 16.6892 107.563 24.9442 107.563C27.2827 107.563 29.6212 107.563 31.9598 107.563C32.1819 107.563 32.1819 107.212 31.9598 107.212C23.7048 107.212 15.4498 107.212 7.19487 107.212C4.85635 107.212 2.51783 107.212 0.179315 107.212C-0.0428445 107.212 -0.0428445 107.563 0.179315 107.563V107.563Z" fill="#E8E8E8"/>
<path d="M4.4938 110.614C5.6046 109.667 6.72709 108.72 7.83788 107.773C8.01327 107.621 7.75603 107.376 7.59234 107.528C6.48154 108.475 5.35905 109.422 4.24826 110.369C4.07287 110.509 4.33011 110.766 4.4938 110.614V110.614Z" fill="#E8E8E8"/>
<path d="M0.471551 110.953C8.14189 110.953 15.8122 110.953 23.4826 110.953C23.7047 110.953 23.7047 110.603 23.4826 110.603C15.8122 110.603 8.14189 110.603 0.471551 110.603C0.249392 110.603 0.249392 110.953 0.471551 110.953V110.953Z" fill="#E8E8E8"/>
<path d="M20.805 110.883C19.9281 111.865 19.0277 112.824 18.1157 113.783C17.9637 113.947 18.2092 114.192 18.3612 114.029C19.2733 113.07 20.1619 112.111 21.0505 111.129C21.2142 110.965 20.957 110.72 20.805 110.883V110.883Z" fill="#E8E8E8"/>
<path d="M14.8185 114.344C21.5651 114.344 28.3 114.344 35.0466 114.344C35.2688 114.344 35.2688 113.993 35.0466 113.993C28.3 113.993 21.5651 113.993 14.8185 113.993C14.5963 113.993 14.5963 114.344 14.8185 114.344V114.344Z" fill="#E8E8E8"/>
<path d="M10.0362 101.681C12.8892 101.681 15.7422 101.681 18.6069 101.681C18.8291 101.681 18.8291 101.33 18.6069 101.33C15.7539 101.33 12.9009 101.33 10.0362 101.33C9.81409 101.33 9.81409 101.681 10.0362 101.681V101.681Z" fill="#E8E8E8"/>
<path d="M20.7699 102.827C21.6468 102.827 22.5355 102.827 23.4124 102.827C23.6346 102.827 23.6346 102.476 23.4124 102.476C22.5355 102.476 21.6468 102.476 20.7699 102.476C20.536 102.476 20.536 102.827 20.7699 102.827V102.827Z" fill="#E8E8E8"/>
<path d="M14.4209 40.3068C14.4209 42.2127 14.4209 44.1303 14.4209 46.0362C14.4209 46.2583 14.7717 46.2583 14.7717 46.0362C14.7717 44.1303 14.7717 42.2127 14.7717 40.3068C14.7717 40.0847 14.4209 40.0847 14.4209 40.3068V40.3068Z" fill="#E8E8E8"/>
<path d="M8.53942 46.3168C13.2398 46.3168 17.9403 46.3168 22.6407 46.3168C22.8628 46.3168 22.8628 45.9661 22.6407 45.9661C17.9403 45.9661 13.2398 45.9661 8.53942 45.9661C8.31726 45.9661 8.31726 46.3168 8.53942 46.3168V46.3168Z" fill="#E8E8E8"/>
<path d="M18.3848 46.4805C18.3848 47.9538 18.3848 49.4153 18.3848 50.8886C18.3848 51.1108 18.7355 51.1108 18.7355 50.8886C18.7355 49.4153 18.7355 47.9538 18.7355 46.4805C18.7355 46.2467 18.3848 46.2467 18.3848 46.4805V46.4805Z" fill="#E8E8E8"/>
<path d="M14.4911 51.4967C18.2327 51.4967 21.986 51.4967 25.7276 51.4967C25.9498 51.4967 25.9498 51.1459 25.7276 51.1459C21.986 51.1459 18.2327 51.1459 14.4911 51.1459C14.2572 51.1459 14.2572 51.4967 14.4911 51.4967V51.4967Z" fill="#E8E8E8"/>
<path d="M108.85 36.2028C108.85 36.6705 108.85 37.1265 108.85 37.5942C108.85 37.8163 109.201 37.8163 109.201 37.5942C109.201 37.1265 109.201 36.6705 109.201 36.2028C109.201 35.9806 108.85 35.9806 108.85 36.2028V36.2028Z" fill="#E8E8E8"/>
<path d="M109.131 36.4834C117.175 36.4834 125.22 36.4834 133.264 36.4834C133.486 36.4834 133.486 36.1326 133.264 36.1326C125.22 36.1326 117.175 36.1326 109.131 36.1326C108.909 36.1326 108.909 36.4834 109.131 36.4834V36.4834Z" fill="#E8E8E8"/>
<path d="M109.341 37.7695C117.316 37.7695 125.29 37.7695 133.253 37.7695C133.475 37.7695 133.475 37.4188 133.253 37.4188C125.278 37.4188 117.304 37.4188 109.341 37.4188C109.119 37.4188 109.119 37.7695 109.341 37.7695V37.7695Z" fill="#E8E8E8"/>
<path d="M133.206 36.2028C133.159 36.6821 133.182 37.1615 133.264 37.6409C133.299 37.8631 133.638 37.7696 133.603 37.5474C133.521 37.1031 133.51 36.6471 133.556 36.2028C133.58 35.9806 133.229 35.9806 133.206 36.2028V36.2028Z" fill="#E8E8E8"/>
<path d="M110.779 36.2144C110.779 32.9522 110.779 29.69 110.779 26.4277C110.779 26.2056 110.428 26.2056 110.428 26.4277C110.428 29.69 110.428 32.9522 110.428 36.2144C110.428 36.4483 110.779 36.4483 110.779 36.2144V36.2144Z" fill="#E8E8E8"/>
<path d="M110.78 26.4862C111.773 26.0886 112.826 26.1471 113.749 26.6966C113.948 26.8136 114.124 26.5096 113.925 26.3926C112.931 25.808 111.75 25.7145 110.686 26.1471C110.476 26.2289 110.569 26.568 110.78 26.4862V26.4862Z" fill="#E8E8E8"/>
<path d="M113.691 26.6149C113.691 29.7485 113.691 32.8938 113.691 36.0274C113.691 36.2496 114.042 36.2496 114.042 36.0274C114.042 32.8938 114.042 29.7485 114.042 26.6149C114.042 26.3927 113.691 26.3927 113.691 26.6149V26.6149Z" fill="#E8E8E8"/>
<path d="M114.088 29.2339C114.802 28.9416 115.55 28.9884 116.216 29.3976C116.415 29.5146 116.591 29.2105 116.392 29.0936C115.655 28.6493 114.79 28.5675 113.995 28.8948C113.784 28.9767 113.878 29.3158 114.088 29.2339V29.2339Z" fill="#E8E8E8"/>
<path d="M116.146 29.386C116.146 31.5842 116.146 33.7707 116.146 35.9689C116.146 36.1911 116.497 36.1911 116.497 35.9689C116.497 33.7707 116.497 31.5842 116.497 29.386C116.497 29.1638 116.146 29.1638 116.146 29.386V29.386Z" fill="#E8E8E8"/>
<path d="M110.826 29.1755C111.82 28.9533 112.802 29.0235 113.761 29.3626C113.971 29.4327 114.065 29.0937 113.855 29.0235C112.837 28.661 111.785 28.6143 110.733 28.8364C110.522 28.8832 110.616 29.2223 110.826 29.1755V29.1755Z" fill="#E8E8E8"/>
<path d="M113.843 33.2329C114.591 33.0341 115.34 33.0107 116.1 33.1744C116.322 33.2212 116.415 32.8821 116.193 32.8353C115.375 32.6599 114.568 32.6716 113.749 32.8938C113.539 32.9522 113.621 33.2913 113.843 33.2329V33.2329Z" fill="#E8E8E8"/>
<path d="M120.566 36.0975C120.566 35.4427 120.566 34.7879 120.566 34.1331C120.566 33.911 120.215 33.911 120.215 34.1331C120.215 34.7879 120.215 35.4427 120.215 36.0975C120.215 36.3196 120.566 36.3196 120.566 36.0975V36.0975Z" fill="#E8E8E8"/>
<path d="M120.391 34.2384C124.191 34.2384 127.979 34.2384 131.779 34.2384C132.001 34.2384 132.001 33.8876 131.779 33.8876C127.979 33.8876 124.191 33.8876 120.391 33.8876C120.157 33.8876 120.157 34.2384 120.391 34.2384V34.2384Z" fill="#E8E8E8"/>
<path d="M131.896 34.4255C132.118 34.4255 132.118 34.0747 131.896 34.0747C131.662 34.0747 131.662 34.4255 131.896 34.4255V34.4255Z" fill="#E8E8E8"/>
<path d="M131.721 34.2501C131.721 34.8464 131.721 35.4428 131.721 36.0391C131.721 36.2612 132.072 36.2612 132.072 36.0391C132.072 35.4428 132.072 34.8464 132.072 34.2501C132.072 34.028 131.721 34.028 131.721 34.2501V34.2501Z" fill="#E8E8E8"/>
<path d="M122.776 34.0046C122.776 33.3849 122.776 32.7769 122.776 32.1572C122.776 31.935 122.425 31.935 122.425 32.1572C122.425 32.7769 122.425 33.3849 122.425 34.0046C122.425 34.2267 122.776 34.2267 122.776 34.0046V34.0046Z" fill="#E8E8E8"/>
<path d="M122.601 32.274C126.331 32.274 130.061 32.274 133.802 32.274C134.024 32.274 134.024 31.9232 133.802 31.9232C130.072 31.9232 126.342 31.9232 122.601 31.9232C122.379 31.9232 122.379 32.274 122.601 32.274V32.274Z" fill="#E8E8E8"/>
<path d="M133.685 32.0986C133.685 32.6131 133.685 33.1276 133.685 33.642C133.685 33.8642 134.036 33.8642 134.036 33.642C134.036 33.1276 134.036 32.6131 134.036 32.0986C134.036 31.8648 133.685 31.8648 133.685 32.0986V32.0986Z" fill="#E8E8E8"/>
<path d="M131.651 34.2969C132.329 34.2969 133.007 34.2969 133.685 34.2969C133.907 34.2969 133.907 33.9461 133.685 33.9461C133.007 33.9461 132.329 33.9461 131.651 33.9461C131.417 33.9461 131.417 34.2969 131.651 34.2969V34.2969Z" fill="#E8E8E8"/>
<path d="M133.662 33.6537C133.638 33.7823 133.638 33.8993 133.673 34.0162C133.697 34.1097 133.802 34.1682 133.884 34.1331C133.978 34.1097 134.036 34.0045 134.001 33.9226C133.989 33.8642 133.978 33.794 133.989 33.7472C134.001 33.6537 133.966 33.5485 133.872 33.5368C133.79 33.5134 133.673 33.5602 133.662 33.6537V33.6537Z" fill="#E8E8E8"/>
<path d="M125.267 32.1805C125.419 32.7768 125.454 33.3848 125.372 34.0045C125.348 34.2267 125.699 34.2267 125.723 34.0045C125.804 33.3614 125.758 32.7184 125.606 32.087C125.547 31.8765 125.208 31.97 125.267 32.1805V32.1805Z" fill="#E8E8E8"/>
<path d="M127.909 34.215C127.991 34.7996 127.944 35.3725 127.804 35.9338C127.745 36.1559 128.084 36.2495 128.143 36.0273C128.307 35.3959 128.342 34.7645 128.248 34.1214C128.225 33.8993 127.886 33.9928 127.909 34.215V34.215Z" fill="#E8E8E8"/>
<path d="M125.617 48.4449C125.617 49.3686 125.617 50.2806 125.617 51.2043C125.617 51.4265 125.968 51.4265 125.968 51.2043C125.968 50.2806 125.968 49.3686 125.968 48.4449C125.968 48.211 125.617 48.211 125.617 48.4449V48.4449Z" fill="#E8E8E8"/>
<path d="M122.905 51.2511C125.243 51.2511 127.582 51.2511 129.92 51.2511C130.143 51.2511 130.143 50.9003 129.92 50.9003C127.582 50.9003 125.243 50.9003 122.905 50.9003C122.683 50.9003 122.683 51.2511 122.905 51.2511V51.2511Z" fill="#E8E8E8"/>
<path d="M118.917 11.9172C118.917 14.0219 118.917 16.1383 118.917 18.2429C118.917 18.4651 119.268 18.4651 119.268 18.2429C119.268 16.1383 119.268 14.0219 119.268 11.9172C119.268 11.6951 118.917 11.6951 118.917 11.9172V11.9172Z" fill="#E8E8E8"/>
<path d="M119.362 11.9056C122.028 11.9056 124.682 11.9056 127.348 11.9056C127.57 11.9056 127.57 11.5548 127.348 11.5548C124.682 11.5548 122.028 11.5548 119.362 11.5548C119.14 11.5548 119.14 11.9056 119.362 11.9056V11.9056Z" fill="#E8E8E8"/>
<path d="M127.36 11.8588C127.36 13.8933 127.36 15.9278 127.36 17.9506C127.36 18.1728 127.71 18.1728 127.71 17.9506C127.71 15.9161 127.71 13.8816 127.71 11.8588C127.71 11.6366 127.36 11.6366 127.36 11.8588V11.8588Z" fill="#E8E8E8"/>
<path d="M119.046 18.4417C121.876 18.4417 124.705 18.4417 127.535 18.4417C127.757 18.4417 127.757 18.0909 127.535 18.0909C124.705 18.0909 121.876 18.0909 119.046 18.0909C118.824 18.0909 118.824 18.4417 119.046 18.4417V18.4417Z" fill="#E8E8E8"/>
<path d="M119.701 12.6422C119.701 14.2441 119.701 15.8343 119.701 17.4362C119.701 17.6583 120.052 17.6583 120.052 17.4362C120.052 15.8343 120.052 14.2441 120.052 12.6422C120.052 12.42 119.701 12.42 119.701 12.6422V12.6422Z" fill="#E8E8E8"/>
<path d="M119.958 12.7825C122.145 12.7825 124.343 12.7825 126.529 12.7825C126.752 12.7825 126.752 12.4317 126.529 12.4317C124.343 12.4317 122.145 12.4317 119.958 12.4317C119.736 12.4317 119.736 12.7825 119.958 12.7825V12.7825Z" fill="#E8E8E8"/>
<path d="M126.401 12.6422C126.401 14.1272 126.401 15.6004 126.401 17.0854C126.401 17.3075 126.752 17.3075 126.752 17.0854C126.752 15.6004 126.752 14.1272 126.752 12.6422C126.752 12.42 126.401 12.42 126.401 12.6422V12.6422Z" fill="#E8E8E8"/>
<path d="M119.958 17.6115C122.133 17.6115 124.308 17.6115 126.494 17.6115C126.716 17.6115 126.716 17.2607 126.494 17.2607C124.319 17.2607 122.145 17.2607 119.958 17.2607C119.736 17.2607 119.736 17.6115 119.958 17.6115V17.6115Z" fill="#E8E8E8"/>
<path d="M124.097 15.5068C123.174 14.8053 124.553 13.3437 125.196 14.2206C125.793 15.0157 124.822 15.9745 123.992 15.5302C123.793 15.425 123.618 15.729 123.817 15.8342C124.355 16.1265 125.068 16.0447 125.454 15.5419C125.851 15.0391 125.804 14.244 125.302 13.8231C124.775 13.3905 124.027 13.6828 123.665 14.1739C123.279 14.7117 123.396 15.4133 123.922 15.8108C124.109 15.9395 124.273 15.6354 124.097 15.5068V15.5068Z" fill="#E8E8E8"/>
<path d="M122.987 17.2374C122.94 16.3137 124.074 15.9629 124.787 15.9629C125.664 15.9629 125.945 16.7463 126.307 17.4128C126.413 17.6116 126.717 17.4362 126.611 17.2374C126.366 16.7931 126.132 16.2084 125.723 15.8811C125.349 15.5887 124.881 15.6004 124.437 15.6472C123.618 15.7407 122.577 16.2435 122.636 17.2374C122.648 17.4596 122.998 17.4596 122.987 17.2374V17.2374Z" fill="#E8E8E8"/>
<path d="M120.11 16.3956C120.367 15.9162 121.314 16.1033 121.665 16.2903C122.028 16.4891 122.238 16.8165 122.332 17.214C122.379 17.4362 122.718 17.3427 122.671 17.1205C122.531 16.5125 122.11 16.0331 121.502 15.8343C120.987 15.6706 120.11 15.6589 119.818 16.2085C119.701 16.419 120.005 16.5943 120.11 16.3956V16.3956Z" fill="#E8E8E8"/>
<path d="M120.788 15.5303C120.402 15.5186 120.496 14.9456 120.66 14.7469C120.87 14.4896 121.291 14.4545 121.537 14.7001C121.735 14.8872 121.794 15.2379 121.63 15.4601C121.513 15.6238 121.338 15.6589 121.151 15.6589C121.081 15.6589 120.788 15.6706 120.742 15.6121C120.613 15.425 120.309 15.6004 120.438 15.7875C120.578 15.998 120.87 16.0097 121.104 16.0097C121.385 16.0213 121.654 15.9512 121.852 15.7407C122.226 15.3315 122.098 14.6416 121.654 14.3376C121.174 14.0219 120.508 14.1973 120.262 14.7118C120.052 15.1678 120.204 15.8576 120.788 15.8693C121.022 15.8927 121.022 15.5419 120.788 15.5303V15.5303Z" fill="#E8E8E8"/>
<path d="M49.2295 42.9961C49.779 43.4405 50.4572 43.2534 50.9717 42.8207C51.6966 42.2244 52.0591 41.2072 52.1994 40.3068C52.5618 38.0151 51.6381 35.8403 51.2757 33.6187C50.6209 29.4912 52.4215 25.0714 55.7656 22.5926C57.3909 21.3765 60.0685 20.0787 59.4371 17.5881C59.3786 17.366 59.0395 17.4595 59.098 17.6817C59.6943 20.0553 56.9349 21.2596 55.4265 22.4055C54.0702 23.4461 52.9711 24.7908 52.1877 26.2991C51.416 27.7607 50.9483 29.386 50.8197 31.0346C50.6676 33.0341 51.1938 34.8932 51.6264 36.8225C51.8837 37.9917 52.0474 39.2194 51.8252 40.4121C51.72 40.9616 51.5329 41.4995 51.2406 41.9789C50.9132 42.4934 50.1298 43.2885 49.475 42.7623C49.3113 42.6103 49.0541 42.8558 49.2295 42.9961V42.9961Z" fill="#E8E8E8"/>
<path d="M59.3088 17.4479C57.9875 17.5063 56.8299 16.4774 56.9001 15.121C56.9702 13.7062 58.6423 12.3967 60.0571 12.7708C61.3199 13.1099 62.2904 14.5013 61.9747 15.7992C61.659 17.0971 60.1974 17.3777 59.0749 17.5648C58.8527 17.5999 58.9463 17.9389 59.1684 17.9039C60.6183 17.67 62.3021 17.1555 62.3956 15.4017C62.4658 13.9752 61.1913 12.4317 59.7297 12.3733C58.1863 12.3031 56.6312 13.5659 56.5493 15.1327C56.4791 16.6761 57.8004 17.8688 59.3088 17.8103C59.5309 17.7869 59.5309 17.4362 59.3088 17.4479V17.4479Z" fill="#E8E8E8"/>
<path d="M57.5783 16.5359C58.1395 15.1211 61.1328 14.8872 61.4836 16.5709C61.5304 16.7931 61.8695 16.6996 61.8227 16.4774C61.3901 14.4195 57.9174 14.7235 57.2392 16.4423C57.1574 16.6528 57.4964 16.7346 57.5783 16.5359V16.5359Z" fill="#E8E8E8"/>
<path d="M59.3321 14.9573C59.0865 14.7819 58.993 14.4428 59.1567 14.1856C59.3438 13.8699 59.7413 13.8348 60.0453 13.9985C60.2792 14.1271 60.326 14.4194 60.1857 14.6416C60.0103 14.9105 59.6361 14.9456 59.3438 14.8754C59.1216 14.8287 59.0281 15.1677 59.2502 15.2145C59.7179 15.3197 60.2792 15.2145 60.513 14.7585C60.7235 14.3493 60.5715 13.8582 60.1506 13.6594C59.6829 13.4489 59.1216 13.5425 58.8527 13.9985C58.5838 14.4311 58.7592 14.969 59.1567 15.2496C59.3438 15.4016 59.5192 15.0976 59.3321 14.9573V14.9573Z" fill="#E8E8E8"/>
<path d="M64.2895 11.356C65.5172 8.10543 69.0483 6.44509 72.334 6.22293C74.5088 6.07092 76.6836 6.41001 78.8117 6.81925C80.8228 7.2168 82.9158 7.8482 84.9737 7.77804C86.6691 7.71958 88.4113 7.01802 89.2064 5.43952C89.3116 5.24075 89.0076 5.06536 88.9024 5.26414C87.9786 7.08818 85.8506 7.55588 83.9681 7.40388C81.7699 7.22849 79.6068 6.57371 77.4436 6.21124C73.9359 5.62661 70.1942 5.54476 67.0723 7.5208C65.6575 8.42113 64.535 9.68393 63.9387 11.2624C63.8685 11.4729 64.2076 11.5664 64.2895 11.356V11.356Z" fill="#E8E8E8"/>
<path d="M90.6214 5.24079C93.7083 5.24079 96.8068 5.24079 99.8937 5.24079C100.116 5.24079 100.116 4.89001 99.8937 4.89001C96.8068 4.89001 93.7083 4.89001 90.6214 4.89001C90.3876 4.89001 90.3876 5.24079 90.6214 5.24079V5.24079Z" fill="#E8E8E8"/>
<path d="M90.4927 4.86665C89.9432 4.32879 90.5395 3.41677 90.9721 3.00753C91.4983 2.49305 92.2232 2.29428 92.9248 2.5749C92.9832 2.59829 93.1002 2.56321 93.1236 2.49305C93.5445 1.51088 94.5384 0.797629 95.6258 0.8444C96.7599 0.89117 97.7187 1.74473 97.9994 2.82045C98.0227 2.92568 98.1631 2.98414 98.2566 2.92568C98.7711 2.60998 99.2972 2.98414 99.5077 3.46354C99.6948 3.90786 99.648 4.41064 99.6012 4.89003C99.5779 5.11219 99.9286 5.11219 99.952 4.89003C100.022 4.18848 100.069 3.3583 99.5077 2.82045C99.1102 2.44628 98.5606 2.32936 98.0929 2.62167C98.1747 2.65675 98.2683 2.69183 98.3501 2.72691C98.0344 1.55765 97.0289 0.622241 95.8012 0.505315C94.5384 0.376696 93.3223 1.1601 92.8312 2.31767C92.9014 2.29428 92.9599 2.2592 93.03 2.23582C92.0946 1.86165 91.1124 2.2592 90.5044 3.03091C90.0484 3.60385 89.6509 4.52756 90.2706 5.12389C90.4109 5.27589 90.6564 5.03034 90.4927 4.86665V4.86665Z" fill="#E8E8E8"/>
<path d="M97.1459 6.5854C98.5841 6.4217 99.4259 7.93004 99.6481 9.14607C99.8819 10.3972 99.6598 11.6483 99.5312 12.8994C99.3324 14.7819 99.461 17.0503 101.25 18.1494C101.437 18.2663 101.624 17.9623 101.425 17.8454C98.9816 16.3487 99.9989 13.0163 100.092 10.7246C100.163 8.98238 99.4727 5.97738 97.1459 6.23462C96.9237 6.258 96.9237 6.60878 97.1459 6.5854V6.5854Z" fill="#E8E8E8"/>
<path d="M103.191 16.1733C102.139 18.8275 101.098 21.4818 100.046 24.1243C99.9638 24.3347 100.303 24.4283 100.385 24.2178C101.437 21.5636 102.478 18.9094 103.53 16.2669C103.612 16.0564 103.273 15.9745 103.191 16.1733V16.1733Z" fill="#E8E8E8"/>
<path d="M103.355 16.3955C105.179 16.302 106.991 16.3487 108.803 16.5592C108.745 16.489 108.686 16.4072 108.64 16.337C107.774 19.1082 107.073 21.9144 106.512 24.7557C106.465 24.9779 106.804 25.0714 106.851 24.8492C107.412 22.0079 108.125 19.2017 108.979 16.4306C109.014 16.3136 108.92 16.2201 108.815 16.2084C107.003 15.9979 105.19 15.9512 103.366 16.0447C103.132 16.0564 103.132 16.4072 103.355 16.3955V16.3955Z" fill="#E8E8E8"/>
<path d="M100.127 24.4634C101.203 24.5101 102.267 24.5686 103.343 24.6388C104.383 24.6972 105.494 24.6738 106.476 25.0714C106.687 25.1532 106.78 24.8142 106.57 24.7323C105.635 24.3464 104.57 24.3698 103.577 24.3114C102.431 24.2412 101.285 24.1828 100.127 24.1243C99.9052 24.1009 99.9052 24.4517 100.127 24.4634V24.4634Z" fill="#E8E8E8"/>
<path d="M103.518 17.5647C104.641 17.5881 105.763 17.67 106.874 17.822C107.096 17.8571 107.19 17.518 106.968 17.4829C105.822 17.3192 104.676 17.2257 103.518 17.2023C103.285 17.2023 103.285 17.553 103.518 17.5647V17.5647Z" fill="#E8E8E8"/>
<path d="M103.179 18.3599C103.811 18.3365 104.442 18.3482 105.074 18.4066C105.296 18.43 105.296 18.0793 105.074 18.0559C104.442 17.9974 103.811 17.974 103.179 18.0091C102.957 18.0208 102.957 18.3716 103.179 18.3599V18.3599Z" fill="#E8E8E8"/>
<path d="M102.408 19.9383C103.752 19.8565 105.027 19.7396 106.348 20.067C106.57 20.1254 106.664 19.7863 106.442 19.7279C105.085 19.4005 103.787 19.5057 102.408 19.5876C102.174 19.5993 102.174 19.95 102.408 19.9383V19.9383Z" fill="#E8E8E8"/>
<path d="M102.466 20.9673C103.238 20.9088 104.009 20.9088 104.781 20.979C105.003 21.0024 105.003 20.6516 104.781 20.6282C104.009 20.5581 103.238 20.5581 102.466 20.6165C102.244 20.6399 102.232 20.9907 102.466 20.9673V20.9673Z" fill="#E8E8E8"/>
<path d="M101.858 22.3236C102.91 22.2534 103.939 22.2885 104.98 22.4288C105.202 22.4639 105.202 22.1131 104.98 22.0781C103.939 21.9377 102.899 21.9027 101.858 21.9728C101.636 21.9845 101.636 22.3353 101.858 22.3236V22.3236Z" fill="#E8E8E8"/>
<path d="M43.6759 6.63213C44.1436 7.26353 44.8217 7.52077 45.5116 7.83647C46.3301 8.21063 47.0784 8.71341 47.6864 9.37989C49.0661 10.8648 49.5221 12.8643 49.5572 14.8403C49.6391 18.5469 48.388 22.4288 50.0717 25.9366C50.1652 26.1354 50.4692 25.96 50.3757 25.7612C48.6101 22.0663 50.1769 17.9272 49.8729 14.0452C49.7443 12.3615 49.2649 10.7128 48.1775 9.40327C47.663 8.78357 47.0316 8.24571 46.3301 7.84816C45.5467 7.40384 44.5294 7.20507 43.9799 6.45674C43.8512 6.28135 43.5472 6.45674 43.6759 6.63213V6.63213Z" fill="#E8E8E8"/>
<path d="M39.6767 1.68623C39.3727 1.30037 39.3961 1.03144 39.7469 0.879439C39.8989 0.797591 40.0509 0.739128 40.2263 0.70405C40.4484 0.65728 40.694 0.645587 40.9278 0.65728C41.6294 0.692357 42.3426 0.879439 42.3075 1.733C42.2725 2.73856 42.0854 3.73243 41.8398 4.70291C41.5826 5.69678 41.2669 6.66727 40.9278 7.63775C40.8577 7.84822 40.7992 8.09376 40.694 8.29254C40.4835 8.65501 40.1561 8.64331 39.8053 8.64331C39.3727 8.64331 38.8231 8.70178 38.4022 8.58485C37.9345 8.45623 37.8293 7.98853 38.2853 7.68452C38.4958 7.54421 38.7881 7.52083 39.0336 7.52083C39.3493 7.52083 39.6299 7.59098 39.8989 7.38052C40.4133 6.98297 40.4952 5.90725 40.6121 5.33431C40.7875 4.50414 41.0798 3.48688 41.0214 2.64502C40.9746 2.00193 40.3432 1.97854 39.8872 1.70961C39.6884 1.59269 39.513 1.89669 39.7118 2.01362C40.0743 2.22409 40.6004 2.24747 40.6706 2.72687C40.7524 3.28811 40.5186 4.04813 40.4133 4.60937C40.3081 5.14723 40.1912 5.68509 40.0509 6.21126C39.9456 6.60881 39.8989 7.0882 39.3727 7.19343C39.1622 7.2402 38.905 7.17005 38.6828 7.20513C38.1216 7.28698 37.572 7.68452 37.6539 8.31592C37.7591 9.11102 38.7062 8.97071 39.2908 8.99409C40.0158 9.01748 40.7407 9.12271 41.0681 8.351C41.4774 7.39221 41.7697 6.33988 42.0503 5.34601C42.3426 4.31706 42.5648 3.25303 42.6466 2.18901C42.7168 1.35883 42.7519 0.692357 41.8281 0.470198C41.0214 0.271424 39.9106 0.177884 39.2792 0.832668C38.8582 1.26529 38.9635 2.11885 39.6884 2.06039C39.8989 2.01362 39.8989 1.66284 39.6767 1.68623V1.68623Z" fill="#E8E8E8"/>
<path d="M38.2622 2.93732C38.2505 2.92563 38.2388 2.91394 38.2271 2.90224C38.1803 2.85547 38.1102 2.84378 38.0517 2.85547C37.7126 2.9724 37.584 3.52195 37.4905 3.82596C37.3268 4.3872 37.2917 4.96014 37.3735 5.54477C37.3969 5.76693 37.7477 5.76693 37.7243 5.54477C37.6775 5.13553 37.6659 4.73798 37.736 4.32874C37.7711 4.11827 38.1336 3.29979 38.0049 3.18287C38.1686 3.34656 38.4142 3.10102 38.2622 2.93732V2.93732Z" fill="#E8E8E8"/>
<path d="M37.0813 1.6511C36.0055 3.01913 35.3157 4.66778 35.7717 6.42167C35.8301 6.64383 36.1692 6.55029 36.1108 6.32813C35.6898 4.71455 36.3446 3.15944 37.3268 1.89664C37.4671 1.72125 37.2216 1.47571 37.0813 1.6511V1.6511Z" fill="#E8E8E8"/>
<path d="M35.608 0.0726484C33.819 2.42286 32.9772 5.39277 33.2812 8.33931C33.3046 8.56146 33.6553 8.56146 33.632 8.33931C33.3396 5.45124 34.1464 2.56317 35.912 0.248037C36.0406 0.0726484 35.7366 -0.10274 35.608 0.0726484V0.0726484Z" fill="#E8E8E8"/>
<path d="M33.1173 12.0224C32.217 12.4551 31.3751 13.0514 30.7087 13.7997C30.0305 14.5714 29.82 15.4016 29.7148 16.4072C29.4809 18.7106 28.6274 21.2362 26.3122 22.2067C26.1018 22.2885 26.1953 22.6276 26.4058 22.5458C28.2532 21.7741 29.3289 20.0202 29.7849 18.126C30.0539 16.9918 29.9252 15.6471 30.5216 14.6299C31.1296 13.5893 32.2287 12.8292 33.2927 12.3148C33.5032 12.2329 33.3278 11.9289 33.1173 12.0224V12.0224Z" fill="#E8E8E8"/>
<path d="M21.3664 28.4155C20.5947 28.4389 19.7178 28.1115 19.4372 27.3164C19.1098 26.381 19.8113 25.469 20.5597 24.9896C22.0095 24.0542 23.9622 23.6917 25.6459 23.6683C26.4995 23.6566 27.47 23.6683 28.2183 24.1243C29.1771 24.709 29.3408 25.8081 28.5925 26.6383C27.4583 27.9011 25.5056 28.0297 23.9388 28.1466C23.7167 28.1583 23.7167 28.5091 23.9388 28.4974C25.5056 28.3804 27.2595 28.2401 28.5223 27.1878C29.6799 26.229 29.7617 24.6388 28.4054 23.8086C27.0023 22.9551 24.8625 23.2357 23.3425 23.5631C21.8809 23.8788 19.8815 24.4517 19.2267 25.9601C18.5485 27.5035 19.8464 28.7897 21.3898 28.7429C21.6003 28.7546 21.6003 28.4038 21.3664 28.4155V28.4155Z" fill="#E8E8E8"/>
<path d="M21.3078 28.5557C21.0155 29.0235 20.7349 29.4912 20.4426 29.9472C20.349 30.0992 20.5361 30.2629 20.6881 30.1927C21.4014 29.8069 22.1731 29.5613 22.898 29.2222C23.2956 29.0468 23.6814 28.8364 24.0556 28.6025C24.1842 28.5207 24.3362 28.4739 24.3713 28.3102C24.3947 28.2284 24.3479 28.1114 24.2544 28.0997C24.2427 28.0997 24.231 28.0997 24.2193 28.088C24.1374 28.0764 24.0205 28.1114 24.0088 28.205C24.0088 28.2167 24.0088 28.2167 24.0088 28.2284C23.9621 28.4505 24.3011 28.5441 24.3479 28.3219C24.3479 28.3102 24.3479 28.3102 24.3479 28.2985C24.2777 28.3336 24.2076 28.3804 24.1374 28.4154C24.1491 28.4154 24.1608 28.4154 24.1725 28.4271C24.1374 28.357 24.0907 28.2868 24.0556 28.2167C24.0205 28.3336 23.3657 28.6025 23.2254 28.6844C22.8746 28.8714 22.5122 29.0235 22.138 29.1755C21.5885 29.3976 21.0506 29.6081 20.5361 29.8887C20.618 29.9706 20.6998 30.0524 20.7817 30.1342C21.074 29.6665 21.3546 29.1988 21.6469 28.7428C21.7288 28.5441 21.4248 28.3687 21.3078 28.5557V28.5557Z" fill="#E8E8E8"/>
<path d="M21.6936 26.533C21.682 26.5096 21.682 26.4628 21.717 26.4628C21.8106 26.4628 21.7053 26.5797 21.6936 26.5914C21.6352 26.6265 21.4364 26.6733 21.4481 26.5564C21.4598 26.416 21.7287 26.264 21.7755 26.4745C21.7872 26.533 21.7404 26.6031 21.682 26.6148C21.6469 26.6265 21.6235 26.6265 21.6001 26.6031C21.5884 26.5914 21.565 26.5797 21.5884 26.5797C21.8106 26.5914 21.8106 26.2407 21.5884 26.229C21.3546 26.2056 21.1792 26.4511 21.2376 26.6733C21.2961 26.8954 21.5533 27.0124 21.7638 26.9539C21.9743 26.8954 22.138 26.7084 22.138 26.4862C22.138 26.264 21.9626 26.077 21.7638 26.0302C21.3312 25.925 20.8752 26.5564 21.2493 26.8721C21.5533 27.1293 22.1614 26.8954 22.1263 26.4628C22.1029 26.229 21.8457 26.0419 21.6118 26.1237C21.3779 26.2056 21.2844 26.4979 21.4013 26.7084C21.4949 26.9071 21.7989 26.7317 21.6936 26.533V26.533Z" fill="#E8E8E8"/>
<path d="M24.2778 26.2173C24.2661 26.1472 24.231 26.0536 24.3012 25.9952C24.3363 25.9601 24.3947 25.9601 24.4415 25.9601C24.5584 25.9835 24.535 26.1121 24.4532 26.1705C24.4064 26.2056 24.3597 26.2056 24.3246 26.1588C24.2895 26.1121 24.3012 26.1004 24.3363 26.077C24.3597 26.0653 24.2895 26.077 24.348 26.0653C24.4883 26.0419 24.2544 26.2056 24.2895 26.0887C24.2193 26.3109 24.5584 26.3927 24.6286 26.1822C24.687 25.9718 24.4883 25.7613 24.2778 25.7964C24.0323 25.8431 23.9738 26.1355 24.1258 26.3109C24.2661 26.4745 24.5234 26.4395 24.6286 26.2524C24.7338 26.0653 24.6637 25.8198 24.4532 25.7496C24.2427 25.6795 24.0089 25.8081 23.9621 26.0185C23.9036 26.2524 24.0673 26.4862 24.3012 26.5447C24.7221 26.6382 25.0729 26.0653 24.7689 25.7496C24.6169 25.5976 24.3713 25.5859 24.1843 25.6678C23.927 25.7964 23.9153 26.0653 23.9621 26.3109C23.9738 26.533 24.3129 26.4395 24.2778 26.2173V26.2173Z" fill="#E8E8E8"/>
<path d="M26.8734 25.4338C26.9202 25.4338 26.967 25.4455 27.0254 25.4455V25.4338C27.0371 25.4221 27.0371 25.3988 27.0488 25.3871C27.0605 25.3637 27.0956 25.3403 27.119 25.3286C27.1774 25.3052 27.2359 25.3052 27.271 25.3637C27.3177 25.4572 27.2359 25.6326 27.119 25.5625C27.0488 25.5157 27.0371 25.3988 27.1424 25.4221C27.1657 25.4221 27.1774 25.4338 27.1891 25.4455C27.1891 25.4455 27.1891 25.4689 27.1891 25.4455C27.1891 25.4221 27.1891 25.4572 27.1774 25.4572C27.1424 25.4806 27.1307 25.504 27.0956 25.4806C27.0137 25.4221 26.8968 25.4689 26.85 25.5391C26.8033 25.6326 26.8384 25.7262 26.9085 25.7846C27.2476 26.0302 27.7036 25.5391 27.4347 25.2117C27.1891 24.9194 26.663 25.1064 26.6863 25.4923C26.698 25.6911 26.85 25.8665 27.0371 25.9132C27.2242 25.96 27.423 25.8665 27.5282 25.7028C27.7621 25.3403 27.4347 24.8375 27.002 24.9778C26.8033 25.048 26.6279 25.2468 26.6513 25.4689C26.6747 25.7145 27.0254 25.8431 27.1541 25.5975C27.271 25.4105 26.9787 25.2351 26.8734 25.4338V25.4338Z" fill="#E8E8E8"/>
<path d="M33.9359 15.2379C35.3741 14.4428 36.6252 13.3905 37.6659 12.116C37.8062 11.9406 37.5606 11.6951 37.4203 11.8705C36.4031 13.1216 35.1753 14.1505 33.7605 14.9339C33.5618 15.0391 33.7371 15.3432 33.9359 15.2379V15.2379Z" fill="#E8E8E8"/>
<path d="M51.4281 15.5419C51.1708 17.0152 51.0656 18.5002 51.1357 19.9968C51.1474 20.219 51.4982 20.219 51.4865 19.9968C51.4164 18.5352 51.5099 17.0737 51.7671 15.6355C51.8022 15.4133 51.4631 15.3198 51.4281 15.5419V15.5419Z" fill="#E8E8E8"/>
<path d="M49.6389 49.7193C49.6389 47.9304 50.4808 46.235 51.919 45.1592C52.0944 45.0306 51.919 44.7266 51.7436 44.8552C50.2002 46.0011 49.2998 47.7901 49.2998 49.7193C49.2882 49.9415 49.6389 49.9415 49.6389 49.7193V49.7193Z" fill="#E8E8E8"/>
<path d="M69.224 96.934C69.411 98.6177 69.7034 100.465 70.1711 102.465C70.8025 105.166 71.6092 107.527 72.416 109.515C72.1939 109.714 71.5274 110.24 70.5452 110.31C69.9255 110.357 69.4344 110.205 69.1538 110.1C68.7329 108.638 68.3236 107.118 67.9495 105.54C67.1778 102.289 66.6165 99.1907 66.2073 96.3026C67.2245 96.513 68.2301 96.7235 69.224 96.934Z" fill="#191919"/>
<path d="M95.4741 95.8349C95.3221 97.5069 95.0648 99.366 94.6322 101.365C94.0242 104.195 93.2174 106.65 92.3989 108.72C92.5159 108.825 93.1823 109.457 94.2113 109.41C95.0999 109.375 95.6728 108.849 95.8132 108.72C96.0821 107.305 96.3393 105.879 96.5966 104.452C97.1578 101.33 97.6606 98.2552 98.14 95.2151C97.2513 95.4139 96.3627 95.6244 95.4741 95.8349Z" fill="#191919"/>
<path d="M74.5677 91.1695C74.8367 92.9585 75.1524 94.8059 75.5148 96.7001C76.041 99.4479 76.6373 102.067 77.2687 104.546C76.9998 104.71 76.4619 104.978 75.7253 105.025C75.1056 105.06 74.6145 104.92 74.3339 104.815C73.9831 103.154 73.644 101.471 73.3049 99.787C72.6852 96.6651 72.1123 93.5899 71.5627 90.5498C72.5683 90.7486 73.5622 90.9591 74.5677 91.1695Z" fill="#191919"/>
<path d="M91.0656 90.8187C90.7499 92.5843 90.4693 94.4318 90.2237 96.3493C89.8847 98.9919 89.6508 101.517 89.5105 103.926C89.7093 104.055 90.177 104.324 90.8435 104.359C91.5567 104.382 92.0829 104.102 92.2816 103.985C92.1647 102.605 92.1179 101.073 92.1881 99.4362C92.3284 95.7998 92.9949 92.6662 93.7315 90.199C92.8429 90.3978 91.9542 90.6083 91.0656 90.8187Z" fill="#191919"/>
<path d="M111.843 51.6954C113.89 55.3435 112.311 59.3774 108.476 69.398C106.628 74.2153 103.249 83.0666 98.4788 95.6829C93.79 97.39 86.0262 99.4947 76.4265 98.8282C70.8492 98.4423 66.1721 97.238 62.6293 95.9986C62.1031 95.0515 60.2791 91.5086 61.6471 88.071C62.4071 86.1651 63.9389 84.7971 67.1894 83.1835C70.3932 81.5933 76.0407 79.36 84.2489 78.9508C81.0334 62.9436 86.5406 49.8246 95.1113 46.7962C100.735 44.8201 109.025 46.6793 111.843 51.6954Z" fill="white" stroke="#191919" stroke-width="0.4"/>
<path d="M111.095 53.0167C107.704 57.3078 106.933 63.0723 105.635 68.2287C104.243 73.7476 102.641 79.2548 100.244 84.4346C98.9231 87.2759 97.368 90.012 95.5089 92.5376C95.3802 92.7247 95.6842 92.9001 95.8129 92.713C99.0751 88.2698 101.379 83.2303 103.156 78.0388C104.956 72.7537 106.149 67.305 107.552 61.9147C108.347 58.8513 109.365 55.7878 111.352 53.2739C111.481 53.0868 111.235 52.8413 111.095 53.0167V53.0167Z" fill="#191919"/>
<path d="M62.6994 93.4613C70.4984 96.326 78.9989 97.1678 87.2071 95.8933C89.5573 95.5309 91.8841 94.993 94.1642 94.2915C94.3747 94.2213 94.2928 93.8822 94.0706 93.9524C86.1197 96.4078 77.5841 96.782 69.4461 95.0515C67.1894 94.5721 64.9561 93.9173 62.793 93.1222C62.5825 93.0404 62.489 93.3794 62.6994 93.4613V93.4613Z" fill="#191919"/>
<path d="M90.1536 84.2709C92.118 84.914 93.79 86.2119 94.9125 87.9658C95.0294 88.1529 95.3335 87.9775 95.2165 87.7904C94.0473 85.9663 92.3051 84.61 90.2472 83.9318C90.025 83.8617 89.9315 84.2008 90.1536 84.2709V84.2709Z" fill="#191919"/>
<path d="M54.9823 99.4128C55.9177 100.816 56.8531 102.231 57.7768 103.634C51.7902 109.012 51.0185 110.544 51.4628 110.918C52.3514 111.655 58.7239 108.381 59.3787 108.042C61.7523 106.826 63.5412 105.645 64.7339 104.803C64.313 103.657 63.7517 102.371 62.98 101.015C61.9627 99.2257 60.8403 97.7173 59.7762 96.4896C58.1744 97.4484 56.5725 98.4306 54.9823 99.4128Z" fill="#191919"/>
<path d="M89.9666 71.8534C90.3875 72.7654 90.8318 74.0633 90.902 75.6301C91.0072 77.992 90.2355 79.8745 89.6509 80.9619C89.3352 81.3712 88.7739 82.0493 87.9437 82.786C87.9437 82.786 86.0612 84.4463 83.0679 85.7208C80.0162 87.0304 71.1415 88.6089 59.0864 88.9129C59.4372 90.4095 60.0686 92.2453 61.1911 94.2213C61.8108 95.3087 62.489 96.2675 63.1555 97.0977C62.7111 97.6823 61.4483 99.1673 58.9344 100.103C56.5141 101.003 54.2925 100.898 53.4155 100.828C52.1527 99.6701 50.8549 98.2903 49.6505 96.6417C46.1077 91.7659 45.2775 87.0538 45.1255 84.0254C46.0024 83.394 47.2886 82.5287 48.9723 81.605C52.4801 79.6757 55.6956 78.6234 58.3381 77.84C62.8865 76.507 67.2362 75.5833 77.245 73.8879C80.3786 73.3617 84.7166 72.6368 89.9666 71.8534Z" fill="white" stroke="#191919" stroke-width="0.4"/>
<path opacity="0.19" d="M78.8588 73.8645C78.5197 76.0978 77.5609 78.9975 74.591 80.7982C71.7029 82.5521 69.2826 81.8388 63.4948 83.242C59.3322 84.2475 53.825 85.5805 52.2933 88.5387C50.6914 91.6489 53.7198 96.0336 59.0165 99.635C59.4608 99.5765 60.0221 99.4596 60.6184 99.2257C62.1501 98.6177 62.8984 97.6238 63.1791 97.1912C62.5009 96.3727 61.7993 95.4256 61.1562 94.3382C59.9402 92.3037 59.2854 90.4095 58.9113 88.8778C65.1083 88.6205 70.3115 88.0827 74.2636 87.5682C79.0225 86.9485 82.3198 86.3288 85.4651 84.5515C88.0959 83.0666 89.1483 81.605 89.5224 81.0437C90.6566 79.3249 90.7502 77.7581 90.7969 76.8812C90.9139 74.7414 90.2123 72.9992 89.6277 71.9001C86.0381 72.5549 82.4484 73.2097 78.8588 73.8645Z" fill="#6C6D6D"/>
<path opacity="0.19" d="M89.7446 72.1457C89.5108 74.3205 88.6806 77.7581 85.3716 80.4708C83.3371 82.1429 81.1506 82.8912 72.5682 85.2063C68.7798 86.2236 64.1963 87.4279 58.9814 88.7375C65.6111 88.6673 71.0014 88.1178 74.8717 87.5916C78.8822 87.042 80.8466 86.5626 82.8811 85.6857C84.8104 84.8555 88.704 83.1718 90.2942 79.6289C91.8259 76.1913 90.2825 73.1045 89.7446 72.1457Z" fill="#6C6D6D"/>
<path opacity="0.22" d="M59.0162 88.9128C58.9694 90.4563 59.0396 92.2218 59.3319 94.1628C59.6125 96.0804 60.0685 97.7992 60.5596 99.2959C60.9572 99.062 61.4132 98.7463 61.8575 98.3605C62.3954 97.8927 62.7929 97.4484 63.0852 97.0626C62.4071 96.1739 61.7172 95.145 61.0741 93.9874C60.0335 92.1166 59.4138 90.3861 59.0162 88.9128Z" fill="#6C6D6D"/>
<path d="M58.4786 106.124C59.3789 107.89 60.2675 109.656 61.1679 111.433C55.4151 118.191 54.6668 120.109 55.0994 120.576C55.953 121.512 62.0799 117.384 62.7113 116.963C64.9913 115.432 66.7218 113.947 67.8677 112.894C67.4585 111.456 66.9206 109.843 66.1723 108.124C65.2018 105.879 64.1144 103.985 63.0971 102.43C61.5537 103.669 60.0103 104.897 58.4786 106.124Z" fill="#191919"/>
<path d="M92.1065 71.491C92.5157 72.6485 92.9367 74.2621 93.0068 76.2382C93.112 79.2081 92.3637 81.57 91.8025 82.938C91.4985 83.4525 90.9606 84.306 90.1655 85.2414C90.1655 85.2414 88.3649 87.3344 85.4885 88.9363C82.5536 90.5733 74.0181 92.5727 62.4424 92.9469C62.7815 94.8294 63.3778 97.1328 64.4652 99.6116C65.0615 100.98 65.7163 102.184 66.3594 103.225C65.9385 103.961 64.7225 105.82 62.3021 107.001C59.9753 108.136 57.8472 108.007 56.9937 107.902C55.7776 106.452 54.5265 104.71 53.3806 102.64C49.9664 96.5131 49.1713 90.585 49.031 86.7849C49.8729 86.0015 51.1123 84.9024 52.7259 83.7448C56.105 81.3244 59.1802 79.9915 61.7292 79.0093C66.0905 77.3373 70.2881 76.1797 79.9111 74.0399C82.881 73.3735 87.067 72.4731 92.1065 71.491Z" fill="white" stroke="#191919" stroke-width="0.4"/>
<path opacity="0.19" d="M81.4311 74.0166C81.1037 76.8228 80.18 80.4592 77.327 82.7276C74.5558 84.9375 72.2173 84.0371 66.6633 85.8027C62.6645 87.0655 57.3677 88.7493 55.8945 92.4675C54.3511 96.3728 57.2625 101.892 62.3488 106.405C62.7814 106.335 63.3193 106.183 63.8922 105.891C65.3655 105.131 66.0787 103.879 66.3476 103.33C65.6929 102.301 65.0147 101.108 64.395 99.7403C63.2257 97.1796 62.5943 94.806 62.2436 92.8767C68.2068 92.5493 73.1995 91.8829 77.0113 91.2398C81.5948 90.4681 84.7518 89.6847 87.7802 87.4514C90.3058 85.5806 91.323 83.7448 91.6738 83.0433C92.7612 80.8801 92.8547 78.9158 92.9015 77.8167C93.0067 75.1274 92.3403 72.9409 91.779 71.5612C88.3297 72.3679 84.8804 73.1864 81.4311 74.0166Z" fill="#6C6D6D"/>
<path opacity="0.19" d="M91.8843 71.8535C91.6621 74.5778 90.867 78.9041 87.6867 82.3183C85.7223 84.423 83.6293 85.3584 75.3861 88.2698C71.738 89.556 67.3416 91.0644 62.3254 92.713C68.6979 92.6195 73.8894 91.9413 77.6076 91.2748C81.4662 90.585 83.3604 89.9887 85.3014 88.8895C87.1605 87.8372 90.8904 85.7326 92.4338 81.266C93.8954 76.9397 92.4105 73.0695 91.8843 71.8535Z" fill="#6C6D6D"/>
<path opacity="0.22" d="M62.3605 92.9352C62.3138 94.8761 62.3839 97.0977 62.6645 99.5298C62.9452 101.95 63.3661 104.102 63.8455 105.972C64.2313 105.668 64.664 105.283 65.0966 104.791C65.6111 104.207 65.9969 103.646 66.2775 103.166C65.6228 102.044 64.9563 100.758 64.3483 99.2959C63.3427 96.9574 62.7347 94.7709 62.3605 92.9352Z" fill="#6C6D6D"/>
<path d="M57.8122 53.3207C57.5901 53.2155 57.1458 53.0167 57.1575 52.7945C57.1808 52.4321 58.3852 52.1865 59.2855 52.1982C59.8935 52.1982 61.016 52.3268 62.3256 53.2389C61.0979 53.6247 59.2855 53.9755 57.8122 53.3207Z" fill="white" stroke="#191919" stroke-width="0.4"/>
<path d="M85.9325 38.1554C83.711 37.8631 81.7115 41.1955 81.5244 41.4995C80.8463 42.6571 80.7644 43.4288 80.2967 45.5451C79.1625 50.7016 78.5545 53.3207 76.8708 54.8992C75.3508 56.314 73.5735 56.6531 73.1058 56.7232C71.1063 57.0389 69.294 56.2906 65.7628 54.7823C62.7812 53.5078 62.4188 53.0401 60.7935 52.853C59.9633 52.7594 57.543 52.4905 55.9411 54.0456C54.9121 55.0395 54.4561 56.6297 54.8303 56.9571C55.3097 57.378 57.274 55.8931 57.2974 55.9281C57.3091 55.9515 56.7128 56.2321 56.2217 56.8402C55.9761 57.1325 55.5552 57.7639 55.7072 57.9276C55.9761 58.255 57.6248 56.2672 59.4371 56.618C60.6766 56.8519 60.9104 57.9743 62.3486 58.1848C63.1905 58.3134 63.9271 58.0562 64.3948 57.834C65.2133 58.7227 66.5462 59.9855 68.4755 61.0144C69.6214 61.6224 73.667 63.7154 78.613 62.4994C83.863 61.2132 86.5055 57.1091 87.3357 55.8229C87.8034 55.0863 91.241 49.5908 89.5806 43.4288C89.2883 42.4349 88.2243 38.4594 85.9325 38.1554Z" fill="white" stroke="#191919" stroke-width="0.4"/>
<path opacity="0.25" d="M85.6987 38.1905C84.9387 38.588 86.412 41.3475 86.2249 45.2996C86.0495 49.0997 84.4242 51.9059 83.6993 53.1921C82.7171 54.9109 81.4192 57.1559 78.8352 58.6174C75.3625 60.5818 71.0596 60.2895 67.9961 58.9565C67.0841 58.559 66.1604 57.2728 64.1493 56.4894C63.2723 56.1503 62.5825 56.01 61.7757 55.8463C59.7996 55.4604 58.0458 55.1097 56.4205 55.9281C55.6488 56.3257 55.0057 56.9337 55.0524 57.0155C55.0992 57.0974 55.9995 56.6414 56.7946 56.2088C55.8359 57.4832 55.6838 57.8457 55.754 57.9159C55.8359 57.986 56.1282 57.7171 56.8765 57.2962C57.6833 56.8518 58.2679 56.5361 58.9812 56.5946C59.3436 56.6297 59.6242 56.7466 59.7879 56.8168C60.431 57.0974 60.583 57.4248 61.2261 57.7522C61.6237 57.951 61.9511 58.0328 62.1265 58.0679C62.5006 58.1497 63.2723 58.255 64.2896 57.8925C65.1782 58.8279 69.2589 62.9671 75.2338 62.8852C78.309 62.8385 80.5657 61.6926 81.4543 61.2366C86.3301 58.6993 88.2711 54.1976 88.7622 52.9582C90.2822 49.1231 90.8201 43.4405 88.0372 39.8742C87.3708 39.009 86.2249 37.9216 85.6987 38.1905Z" fill="#6C6D6D"/>
<path d="M55.0408 56.9571C55.4968 56.2789 56.0932 55.7411 56.8064 55.3552C56.9584 55.2734 56.8181 55.0512 56.6778 55.133C55.9295 55.5423 55.2981 56.1152 54.8187 56.8285C54.7134 56.9688 54.9473 57.0974 55.0408 56.9571V56.9571Z" fill="#191919"/>
<path d="M55.1811 55.4488C55.6371 54.7355 56.3737 54.3614 57.1103 53.9989C57.2623 53.9287 57.1337 53.6949 56.9817 53.7767C56.1983 54.1509 55.4266 54.5601 54.9472 55.3202C54.8654 55.4605 55.0875 55.5891 55.1811 55.4488V55.4488Z" fill="#191919"/>
<path opacity="0.29" d="M89.0547 42.3998C88.8793 43.5807 88.5636 45.2878 88.0024 47.299C86.9033 51.2745 85.9094 54.8524 83.3136 57.6937C80.0982 61.2015 75.7368 62.1602 73.2346 62.4526C75.0937 62.8852 76.5553 62.8033 77.479 62.6747C84.4946 61.6925 88.283 54.1508 89.3119 50.8535C89.4873 50.2689 89.8615 49.0646 89.9082 47.4159C89.9901 45.2177 89.4522 43.4521 89.0547 42.3998Z" fill="#6C6D6D"/>
<path opacity="0.26" d="M59.6711 56.4777C60.3376 56.8051 61.2496 57.1675 62.3721 57.378C63.2608 57.5417 64.0559 57.5768 64.6873 57.5534C63.0854 58.4069 62.2552 58.3017 61.7875 58.0211C61.4952 57.8457 61.1678 57.4949 60.2675 56.8752C60.0219 56.6998 59.8115 56.5595 59.6711 56.4777Z" fill="#6C6D6D"/>
<path d="M36.0288 75.7002C36.0288 81.3127 36.0288 86.9368 36.0288 92.5493C36.0288 93.2274 37.0811 93.2274 37.0811 92.5493C37.0811 86.9368 37.0811 81.3127 37.0811 75.7002C37.0811 75.0338 36.0288 75.0221 36.0288 75.7002V75.7002Z" fill="#161616"/>
<path d="M55.158 75.4781C55.158 76.3784 55.158 77.2788 55.158 78.1791C55.158 78.8573 56.2103 78.8573 56.2103 78.1791C56.2103 77.2788 56.2103 76.3784 56.2103 75.4781C56.2103 74.7999 55.158 74.7999 55.158 75.4781V75.4781Z" fill="#161616"/>
<path d="M21.5066 75.0104C27.1775 69.6669 32.8484 64.3117 38.531 58.9681C47.7097 59.1318 56.8767 59.2955 66.0553 59.4592C64.5587 64.6507 63.062 69.8306 61.5654 75.0221C48.2125 75.0104 34.8595 75.0104 21.5066 75.0104Z" fill="white" stroke="#191919" stroke-width="2"/>
<path d="M21.8455 75.6184C32.0999 75.6184 42.3426 75.6184 52.597 75.6184C55.4734 75.6184 58.3381 75.6184 61.2145 75.6184C61.8926 75.6184 61.8926 74.566 61.2145 74.566C50.9601 74.566 40.7174 74.566 30.463 74.566C27.5866 74.566 24.7219 74.566 21.8455 74.566C21.1674 74.566 21.1674 75.6184 21.8455 75.6184V75.6184Z" fill="#161616"/>
<path d="M24.8506 75.443C24.8506 87.0771 24.8506 98.7113 24.8506 110.334C24.8506 113.596 24.8506 116.846 24.8506 120.109C24.8506 120.787 25.9029 120.787 25.9029 120.109C25.9029 108.475 25.9029 96.8404 25.9029 85.218C25.9029 81.9558 25.9029 78.7052 25.9029 75.443C25.9029 74.7648 24.8506 74.7648 24.8506 75.443V75.443Z" fill="#161616"/>
<path d="M56.9236 75.443C56.9236 87.0771 56.9236 98.7113 56.9236 110.334C56.9236 113.596 56.9236 116.846 56.9236 120.109C56.9236 120.787 57.9759 120.787 57.9759 120.109C57.9759 108.475 57.9759 96.8404 57.9759 85.218C57.9759 81.9558 57.9759 78.7052 57.9759 75.443C57.9759 74.7648 56.9236 74.7648 56.9236 75.443V75.443Z" fill="#161616"/>
<path d="M25.3768 97.1561C33.6318 97.1561 41.8867 97.1561 50.1417 97.1561C52.4802 97.1561 54.8187 97.1561 57.1572 97.1561C57.8354 97.1561 57.8354 96.1038 57.1572 96.1038C48.9023 96.1038 40.6473 96.1038 32.3923 96.1038C30.0538 96.1038 27.7153 96.1038 25.3768 96.1038C24.6986 96.1038 24.6986 97.1561 25.3768 97.1561V97.1561Z" fill="#161616"/>
<path d="M65.915 59.4593C64.5821 64.6625 63.0504 69.8189 61.2965 74.8935C61.1445 75.3261 61.8226 75.5015 61.9746 75.0806C63.7285 69.9943 65.2603 64.8496 66.5932 59.6464C66.6984 59.2137 66.032 59.0267 65.915 59.4593V59.4593Z" fill="#161616"/>
<path d="M9.93099 121.255C16.1398 121.255 22.3368 121.255 28.5456 121.255C29.2238 121.255 29.2238 120.202 28.5456 120.202C22.3368 120.202 16.1398 120.202 9.93099 120.202C9.25282 120.202 9.25282 121.255 9.93099 121.255V121.255Z" fill="#161616"/>
<path d="M31.1532 121.021C32.5797 121.021 34.0178 121.021 35.4443 121.021C36.1225 121.021 36.1225 119.968 35.4443 119.968C34.0178 119.968 32.5797 119.968 31.1532 119.968C30.475 119.968 30.475 121.021 31.1532 121.021V121.021Z" fill="#161616"/>
<path d="M49.7674 121.173C55.3565 121.173 60.9455 121.173 66.5463 121.173C67.2244 121.173 67.2244 120.12 66.5463 120.12C60.9572 120.12 55.3682 120.12 49.7674 120.12C49.0892 120.12 49.0892 121.173 49.7674 121.173V121.173Z" fill="#161616"/>
<path d="M70.3697 120.799C71.3636 120.799 72.3575 120.799 73.363 120.799C74.0412 120.799 74.0412 119.746 73.363 119.746C72.3691 119.746 71.3753 119.746 70.3697 119.746C69.6915 119.746 69.6915 120.799 70.3697 120.799V120.799Z" fill="#161616"/>
<path d="M4.295 117.548C6.71537 117.548 9.13573 117.548 11.5444 117.548C12.2226 117.548 12.2226 116.496 11.5444 116.496C9.12404 116.496 6.70368 116.496 4.295 116.496C3.61683 116.496 3.61683 117.548 4.295 117.548V117.548Z" fill="#161616"/>
<path d="M55.4384 72.8006C48.224 72.6135 40.998 72.4381 33.7837 72.251C38.0632 68.1586 42.331 64.0545 46.6105 59.9621C51.5447 60.2193 56.4907 60.4766 61.425 60.7338C59.4255 64.7677 57.4378 68.7783 55.4384 72.8006Z" fill="white" stroke="#191919" stroke-width="0.4"/>
<path d="M46.3651 59.8802C42.1674 63.9375 37.9698 68.0066 33.7722 72.0639C33.5851 65.5628 33.3863 59.05 33.1992 52.549C37.4553 49.8597 41.7114 47.1704 45.9675 44.4811C46.0844 49.6141 46.2248 54.7472 46.3651 59.8802Z" fill="white" stroke="#191919" stroke-width="0.4"/>
<path d="M33.585 53.1687C33.9241 58.9565 34.1463 64.7561 34.2632 70.5556C34.2632 70.6725 34.4386 70.6725 34.4386 70.5556C34.3217 64.7561 34.0995 58.9565 33.7604 53.1687C33.7487 53.0635 33.5733 53.0635 33.585 53.1687V53.1687Z" fill="#191919"/>
<path d="M33.6784 53.192C37.5955 50.6431 41.5125 48.0941 45.4295 45.5451C45.523 45.4866 45.4412 45.3346 45.336 45.3931C41.4189 47.9421 37.5019 50.4911 33.5849 53.04C33.4914 53.1102 33.5732 53.2622 33.6784 53.192V53.192Z" fill="#191919"/>
<path d="M45.383 45.5334C45.3713 50.1987 45.5116 54.8758 45.8156 59.5294C45.8273 59.6463 46.0027 59.6463 45.991 59.5294C45.6987 54.8641 45.5467 50.1987 45.5584 45.5334C45.5584 45.4282 45.383 45.4282 45.383 45.5334V45.5334Z" fill="#191919"/>
<path d="M34.3801 70.8011C38.2153 67.0945 42.0621 63.388 45.8973 59.6931C45.9792 59.6113 45.8505 59.4943 45.7687 59.5645C41.9335 63.271 38.0867 66.9776 34.2515 70.6724C34.1813 70.7543 34.2983 70.8829 34.3801 70.8011V70.8011Z" fill="#191919"/>
<path d="M52.1413 68.8133C52.8545 67.6791 53.5678 66.5333 54.2576 65.3757C54.3161 65.2822 54.1641 65.1886 54.1056 65.2822C53.4157 66.4397 52.7025 67.5856 51.9893 68.7198C51.9191 68.8133 52.0711 68.9069 52.1413 68.8133V68.8133Z" fill="#191919"/>
<path d="M54.2107 65.3407C55.1345 65.3758 56.0582 65.3758 56.9819 65.329C57.0988 65.329 57.0988 65.1536 56.9819 65.1536C56.0582 65.1887 55.1345 65.1887 54.2107 65.1653C54.0938 65.1653 54.0938 65.3407 54.2107 65.3407V65.3407Z" fill="#191919"/>
<path d="M56.8649 65.2822C56.3387 66.4281 55.8008 67.5739 55.263 68.7198C55.2162 68.825 55.3682 68.9069 55.415 68.8133C55.9528 67.6675 56.4907 66.5216 57.0169 65.3757C57.0636 65.2588 56.9116 65.1769 56.8649 65.2822V65.2822Z" fill="#191919"/>
<path d="M52.0826 68.9069C53.1116 69.0589 54.199 68.9887 55.2396 68.9419C55.3565 68.9419 55.3565 68.7666 55.2396 68.7666C54.2224 68.8133 53.1466 68.8835 52.1294 68.7432C52.0125 68.7198 51.9657 68.8952 52.0826 68.9069V68.9069Z" fill="#191919"/>
<path d="M55.918 65.2939C55.4503 66.4631 54.9124 67.5973 54.3044 68.6964C54.2459 68.79 54.3979 68.8835 54.4564 68.79C55.0644 67.6675 55.614 66.5216 56.0934 65.3406C56.1285 65.2354 55.9648 65.1886 55.918 65.2939V65.2939Z" fill="#191919"/>
<path d="M38.9753 70.5906C41.5477 67.4102 44.2136 64.3 46.9614 61.2599C47.0315 61.1781 46.9146 61.0495 46.8328 61.1313C44.085 64.1597 41.4191 67.2699 38.8467 70.462C38.7766 70.5555 38.9052 70.6725 38.9753 70.5906V70.5906Z" fill="#191919"/>
<path d="M42.0853 70.7894C44.3888 67.574 46.8208 64.4638 49.3698 61.4471C49.44 61.3652 49.3231 61.2366 49.2412 61.3184C46.6805 64.3468 44.2485 67.4687 41.9333 70.6959C41.8632 70.7894 42.0152 70.883 42.0853 70.7894V70.7894Z" fill="#191919"/>
<path d="M45.4296 71.2688C47.429 67.9247 49.6155 64.6976 51.9774 61.599C52.0476 61.5055 51.8956 61.4236 51.8254 61.5055C49.4635 64.604 47.277 67.8312 45.2776 71.1752C45.2191 71.2688 45.3711 71.3623 45.4296 71.2688V71.2688Z" fill="#191919"/>
<path d="M48.2357 71.5611C50.2001 67.9013 52.5269 64.452 55.1928 61.2717C55.263 61.1898 55.1461 61.0612 55.0642 61.143C52.3866 64.3351 50.0481 67.7961 48.072 71.4676C48.0253 71.5728 48.1773 71.6664 48.2357 71.5611V71.5611Z" fill="#191919"/>
<path d="M40.4722 68.6964C43.4655 68.3807 46.4588 68.7549 49.4404 69.1524C49.5574 69.1641 49.5457 68.9887 49.4404 68.977C46.4705 68.5795 43.4772 68.1936 40.4722 68.521C40.367 68.5327 40.367 68.7081 40.4722 68.6964V68.6964Z" fill="#191919"/>
<path d="M41.9803 66.9893C44.8099 66.8841 47.6395 67.0946 50.4223 67.6324C50.5276 67.6558 50.5743 67.4804 50.4691 67.4687C47.6746 66.9309 44.8216 66.7204 41.9803 66.8256C41.8751 66.8139 41.8751 66.9893 41.9803 66.9893V66.9893Z" fill="#191919"/>
<path d="M43.3367 65.3407C46.0611 65.1653 48.7855 65.4108 51.4397 66.0656C51.5449 66.089 51.5917 65.9253 51.4864 65.9019C48.8205 65.2354 46.0845 64.9899 43.3367 65.1653C43.2198 65.177 43.2198 65.3524 43.3367 65.3407V65.3407Z" fill="#191919"/>
<path d="M44.7398 63.692C47.359 63.7037 49.9547 63.9726 52.5154 64.4988C52.6206 64.5222 52.6674 64.3468 52.5622 64.3351C49.9898 63.809 47.3706 63.54 44.7398 63.5283C44.6346 63.5166 44.6346 63.692 44.7398 63.692V63.692Z" fill="#191919"/>
<path d="M46.1312 62.1603C48.6217 62.2071 51.1005 62.4994 53.5209 63.0489C53.6261 63.0723 53.6729 62.9086 53.5676 62.8852C51.1239 62.3357 48.6334 62.0317 46.1312 61.9966C46.0142 61.9849 46.0142 62.1603 46.1312 62.1603V62.1603Z" fill="#191919"/>
<path d="M54.1522 63.9375C53.0063 65.6212 51.8722 67.305 50.7263 68.9887C50.6678 69.0822 50.8198 69.1758 50.8783 69.0822C52.0242 67.3985 53.1583 65.7148 54.3042 64.031C54.3744 63.9258 54.2224 63.844 54.1522 63.9375V63.9375Z" fill="#191919"/>
<path d="M34.7893 61.3886C36.2509 60.7689 37.8294 61.1196 39.3728 61.0963C40.6707 61.0846 41.9101 60.7221 43.0209 60.0673C43.1144 60.0089 43.0326 59.8568 42.9273 59.9153C41.5593 60.7221 40.1094 60.9793 38.5426 60.9092C37.233 60.8507 35.9352 60.7221 34.6957 61.2483C34.6022 61.2833 34.6841 61.4353 34.7893 61.3886V61.3886Z" fill="#191919"/>
<path d="M38.7297 60.6636C41.2319 59.2488 42.3895 56.2672 44.9969 55.0161C45.1022 54.9693 45.0086 54.8173 44.9034 54.8641C42.2843 56.1269 41.1384 59.0968 38.6362 60.5116C38.5426 60.5701 38.6245 60.7221 38.7297 60.6636V60.6636Z" fill="#191919"/>
<path d="M41.9101 52.3268C41.4775 51.9877 41.5476 51.4382 41.7932 51.0056C41.9101 50.7951 42.0855 50.5729 42.2843 50.4443C42.6467 50.2105 42.9858 50.3975 43.2664 50.6431C43.3483 50.7132 43.4769 50.5963 43.3951 50.5145C42.8104 50.0234 42.2609 50.0701 41.7815 50.7015C41.3956 51.216 41.1969 51.9877 41.7815 52.4554C41.875 52.5256 42.0036 52.397 41.9101 52.3268V52.3268Z" fill="#191919"/>
<path d="M77.9234 43.7795C74.7196 47.3341 73.8544 51.2394 73.3867 53.4493C72.5331 57.5417 73.4335 59.1787 73.4919 66.9542C73.5153 70.2632 73.375 72.9408 73.2698 74.6246C73.9947 75.1858 78.4847 78.5299 84.4829 77.4308C88.9261 76.624 91.6037 73.8412 92.4456 72.8941C92.6444 71.7833 92.925 70.1463 93.2524 68.1586C94.9829 57.4365 95.8364 51.9994 94.7607 48.1058C94.1176 45.7439 92.5274 42.0023 88.0141 38.132C86.1199 38.5296 81.5715 39.7456 77.9234 43.7795Z" fill="#EC615B"/>
<path opacity="0.19" d="M81.1855 41.6281C82.2963 44.9488 82.8926 47.7901 83.2434 49.8714C84.1671 55.3786 85.5585 63.6335 81.6415 71.6313C80.3904 74.1802 78.9288 76.0511 77.8999 77.2086C79.2562 77.5243 81.9455 77.9569 85.1493 77.1268C88.9611 76.1446 91.3464 73.9347 92.3286 72.9291C93.0886 68.5795 93.6966 64.8496 94.1643 61.9381C94.9711 56.8168 95.1582 55.2616 95.0763 53.0751C94.9828 50.2689 94.8542 47.3224 93.1704 44.142C91.5568 41.1019 89.2885 39.2779 87.8971 38.3425C86.7629 38.5412 85.161 38.9622 83.4656 39.9444C82.5302 40.5056 81.7701 41.1019 81.1855 41.6281Z" fill="#6C6D6D"/>
<path opacity="0.18" d="M94.4681 47.2054C94.2576 47.2171 94.7019 50.456 94.0121 54.9226C92.7376 63.1892 88.6452 68.9186 87.0667 70.9531C85.7454 72.6485 83.6758 74.987 80.6475 77.2905C81.7349 77.4542 83.1848 77.5243 84.8451 77.2086C88.7855 76.472 91.2877 74.0516 92.2465 73.011C92.492 71.5845 92.8896 69.3512 93.3924 66.5918C94.5733 60.1374 94.8072 59.3657 94.9943 57.3546C95.5087 51.8708 94.7136 47.2054 94.4681 47.2054Z" fill="#6C6D6D"/>
<path d="M57.3211 55.8931C57.099 55.7411 56.6546 55.4604 56.7014 55.2266C56.795 54.8524 58.1396 54.794 59.1101 54.9577C59.7649 55.0629 60.9575 55.402 62.2086 56.5829C60.8055 56.7817 58.7827 56.8402 57.3211 55.8931Z" fill="white" stroke="#191919" stroke-width="0.4"/>
<path d="M90.3293 44.6915C87.9791 44.0017 85.2313 47.1704 84.9858 47.4744C84.0504 48.5852 83.8282 49.3803 82.9512 51.5317C80.8232 56.7934 79.7124 59.4476 77.6077 60.8273C75.7252 62.0667 73.7492 62.1135 73.223 62.1135C71.0131 62.1018 69.1891 61.0027 65.6345 58.8045C62.6412 56.9454 62.3372 56.3841 60.6067 55.9164C59.7298 55.6826 57.1574 54.981 55.158 56.349C53.8835 57.2143 53.1001 58.8279 53.4509 59.2371C53.8952 59.7633 56.2805 58.5239 56.2922 58.5706C56.3038 58.594 55.6023 58.7928 54.9709 59.354C54.6552 59.623 54.094 60.2076 54.2226 60.4181C54.4564 60.8156 56.5845 58.9916 58.4787 59.6697C59.7649 60.1258 59.835 61.3535 61.3434 61.8329C62.232 62.1135 63.0739 61.9615 63.6117 61.8095C64.3367 62.8969 65.5644 64.452 67.4586 65.8668C68.5928 66.7087 72.5916 69.6084 78.1456 69.1758C84.0387 68.7198 87.6166 64.8262 88.7274 63.6218C89.3705 62.932 94.0358 57.7054 93.3226 50.9003C93.2173 49.7895 92.7613 45.4165 90.3293 44.6915Z" fill="white" stroke="#191919" stroke-width="0.4"/>
<path opacity="0.25" d="M90.0721 44.6915C89.1835 44.9838 90.2943 48.1525 89.3939 52.3034C88.5404 56.2906 86.2954 58.9799 85.2781 60.2076C83.9101 61.8562 82.1211 64.0077 79.0694 65.1068C74.977 66.58 70.3818 65.5394 67.3066 63.6101C66.3946 63.0255 65.6229 61.5172 63.5767 60.3362C62.6881 59.8217 61.9748 59.5645 61.1213 59.2488C59.0634 58.5005 57.2159 57.8223 55.3334 58.4186C54.4331 58.6992 53.6263 59.2371 53.6731 59.3306C53.7199 59.4359 54.7605 59.0968 55.6959 58.7811C54.4448 59.962 54.2109 60.3245 54.2694 60.4181C54.3396 60.5116 54.7137 60.2661 55.5907 59.962C56.5495 59.623 57.2159 59.4008 57.9876 59.5879C58.3735 59.6814 58.6541 59.8568 58.8295 59.962C59.4726 60.3596 59.5778 60.7454 60.2092 61.2015C60.5951 61.4821 60.9459 61.6224 61.1329 61.6925C61.5188 61.8446 62.3373 62.0901 63.4949 61.8796C64.2899 63.0255 67.9731 68.1001 74.4391 69.0355C77.7715 69.5149 80.4023 68.6964 81.443 68.3573C87.149 66.5099 90.037 62.0901 90.7853 60.8624C93.1005 57.074 94.679 51.1575 92.2937 46.9014C91.7324 45.8374 90.6801 44.4928 90.0721 44.6915Z" fill="#6C6D6D"/>
<path d="M53.6614 59.2722C54.2811 58.6291 55.006 58.1614 55.8479 57.8808C56.0116 57.8223 55.9414 57.5768 55.7777 57.6236C54.9008 57.9276 54.1174 58.4187 53.4743 59.0851C53.3573 59.2138 53.5444 59.4008 53.6614 59.2722V59.2722Z" fill="#191919"/>
<path d="M54.0821 57.7054C54.7018 57.0155 55.567 56.7466 56.4323 56.5011C56.596 56.4543 56.5258 56.197 56.3621 56.2438C55.4618 56.5127 54.5498 56.8051 53.9067 57.5183C53.7781 57.6469 53.9651 57.8223 54.0821 57.7054V57.7054Z" fill="#191919"/>
<path opacity="0.29" d="M92.9598 49.7194C92.5622 50.9354 91.9191 52.6893 90.972 54.7238C89.0895 58.7343 87.3941 62.3474 84.0851 64.908C80.0044 68.065 75.1169 68.334 72.3691 68.2053C74.2984 68.9887 75.9003 69.1524 76.9176 69.1758C84.658 69.3395 90.0834 62.0083 91.7671 58.711C92.0595 58.1263 92.6675 56.9103 93.0182 55.1798C93.4743 52.853 93.2053 50.9003 92.9598 49.7194Z" fill="#6C6D6D"/>
<path opacity="0.26" d="M58.759 59.5529C59.4138 60.0089 60.3375 60.5467 61.5185 60.9677C62.4539 61.2951 63.3074 61.4587 63.9856 61.5406C62.1031 62.1603 61.2262 61.9148 60.7702 61.5406C60.4895 61.3067 60.1972 60.8741 59.3203 60.0673C59.0981 59.8452 58.8993 59.6698 58.759 59.5529Z" fill="#6C6D6D"/>
<path d="M72.2055 21.1076C72.0769 21.8559 71.9483 22.6042 71.843 23.3876C71.387 26.568 71.1999 29.573 71.1882 32.3675C71.8313 32.2974 72.4627 32.2272 73.1058 32.1688C73.0357 32.7885 72.8369 35.0568 74.2868 37.3018C75.6548 39.4182 77.6192 40.1899 78.2272 40.4003C78.157 41.5462 78.0985 42.6804 78.0284 43.8263C79.2912 42.7038 81.01 41.3825 83.1965 40.2016C84.8686 39.3012 86.4471 38.6815 87.7917 38.2606C86.2834 36.3898 85.7104 34.6242 85.4649 33.607C85.0439 31.8531 85.1258 30.3447 85.2076 29.0118C85.2895 27.6437 85.4883 26.5096 85.6637 25.7145C86.2132 23.2122 84.775 19.2485 81.9103 17.822C79.0807 16.4072 74.8597 17.5998 72.2055 21.1076Z" fill="white" stroke="#161616" stroke-width="0.4"/>
<path d="M72.837 32.2506C73.1644 32.2038 73.5035 32.1687 73.8309 32.1337C73.9478 32.122 73.9478 31.9466 73.8309 31.9583C73.4801 31.9933 73.1411 32.0401 72.7903 32.0869C72.685 32.0869 72.7318 32.2623 72.837 32.2506V32.2506Z" fill="#161616"/>
<path d="M83.3837 22.9199C81.9689 23.2824 81.7117 24.5101 79.9227 27.0708C78.1104 29.6665 76.9645 31.2918 74.9183 32.2389C73.597 32.8469 72.9422 32.6832 72.3576 33.4666C71.352 34.823 72.0302 37.0562 72.6265 38.2021C73.3164 39.5234 74.3687 40.3185 75.234 40.9733C76.0642 41.593 76.8242 42.0022 77.362 42.2477C76.7891 41.3708 76.754 41.1019 76.8242 41.02C77.0113 40.8329 77.8063 41.8385 78.7418 41.7099C79.0107 41.6748 79.4901 41.5228 80.5541 39.8508C81.279 38.7166 81.7701 37.9332 82.0975 36.8107C82.8108 34.402 81.8052 33.7472 82.0975 30.5785C82.1443 30.0991 82.4717 26.3458 83.8046 26.1003C84.284 26.0067 84.7751 26.4043 85.009 26.7083C85.5001 27.3514 85.4416 28.3803 84.8336 29.269C85.0324 29.1287 86.9383 27.8425 86.9149 25.7495C86.9149 25.4221 86.9032 24.2178 85.9912 23.4344C84.9505 22.5457 83.5006 22.8965 83.3837 22.9199Z" fill="#161616" stroke="#161616" stroke-width="0.4"/>
<ellipse cx="73.9596" cy="27.3631" rx="0.491089" ry="0.876944" fill="#161616"/>
<ellipse cx="70.2177" cy="27.7724" rx="0.491089" ry="0.876944" fill="#161616"/>
<path d="M69.4813 26.3342C69.797 25.9718 70.2881 25.9367 70.6389 26.2875C70.8026 26.4512 71.0481 26.1939 70.8845 26.0419C70.4051 25.5742 69.6684 25.5859 69.2241 26.0887C69.0955 26.2641 69.341 26.5096 69.4813 26.3342V26.3342Z" fill="#161616"/>
<path d="M73.3164 25.7261C73.7257 25.387 74.2635 25.4338 74.6143 25.8197C74.7663 25.9833 75.0119 25.7378 74.8599 25.5741C74.3688 25.0479 73.6088 25.0246 73.0592 25.4806C72.8955 25.6209 73.1411 25.8664 73.3164 25.7261V25.7261Z" fill="#161616"/>
<path d="M71.8079 22.499C71.9365 21.6571 72.2639 20.2774 73.1642 18.8509C73.4799 18.3481 74.1581 17.2841 75.2338 16.5592C77.2917 15.1911 80.4604 15.2964 82.7638 16.9801C85.0205 18.6287 86.143 21.5753 85.6519 24.4984C81.0333 23.8436 76.4264 23.1772 71.8079 22.499Z" fill="#5222D0"/>
<path d="M64.2545 22.6042C71.3519 23.5163 78.461 24.4283 85.5584 25.3286C86.2249 25.4105 86.2249 24.3581 85.5584 24.2763C78.461 23.3642 71.3519 22.4522 64.2545 21.5519C63.588 21.4584 63.588 22.5107 64.2545 22.6042V22.6042Z" fill="#161616"/>
<path d="M77.8181 15.7056C79.6422 16.1032 81.0219 17.5764 81.2557 19.342C81.4662 20.8854 80.788 22.4522 79.5018 23.411C81.5247 23.68 83.5592 23.9606 85.582 24.2295C85.6872 23.6916 85.7808 22.8732 85.6521 21.9144C85.3481 19.6694 84.0503 18.2312 83.6293 17.7986C83.1733 17.3309 81.5597 15.7641 79.1628 15.6238C78.6132 15.6004 78.1455 15.6471 77.8181 15.7056Z" fill="#321693"/>
</svg>
