<svg width="150" height="122" viewBox="0 0 150 122" fill="none" xmlns="http://www.w3.org/2000/svg">
<circle cx="103.465" cy="25.6467" r="1.88392" fill="#EC615B"/>
<circle cx="105.465" cy="21.4281" r="0.87839" fill="#EC615B"/>
<circle cx="47.872" cy="9.97432" r="0.901506" fill="#EC615B"/>
<circle cx="106.863" cy="114.861" r="1.52563" fill="#EC615B"/>
<circle cx="37.4352" cy="120.906" r="0.705024" fill="#EC615B"/>
<circle cx="46.2425" cy="68.8033" r="0.728139" fill="#EC615B"/>
<circle cx="47.6755" cy="72.5366" r="0.705024" fill="#5222D0"/>
<circle cx="46.832" cy="91.5722" r="1.31759" fill="#5222D0"/>
<circle cx="102.413" cy="17.1749" r="0.832159" fill="#5222D0"/>
<circle cx="70.7565" cy="18.7351" r="0.728139" fill="#5222D0"/>
<circle cx="5.83651" cy="75.8652" r="0.554773" fill="#5222D0"/>
<circle cx="104.933" cy="118.814" r="1.38693" fill="#5222D0"/>
<circle cx="119.785" cy="0.728139" r="0.728139" fill="#5222D0"/>
<path d="M49.0392 33.4597C48.9236 32.7432 48.8196 31.31 49.9638 31.4256C50.3799 31.4718 50.6111 31.8417 51.0734 31.6798C51.9402 31.3793 51.7437 30.2582 52.102 29.611C52.6915 28.5708 53.8357 30.0849 54.7141 29.5879C55.003 29.4261 55.0724 29.1256 55.0608 28.8135C55.0377 27.6462 56.0663 27.7271 56.9101 27.9582C57.1297 28.016 57.2221 27.6809 57.0025 27.6231C56.1472 27.3919 54.7256 27.311 54.691 28.5477C54.6794 28.8482 54.8412 29.1487 54.402 29.3336C54.2633 29.3914 54.0322 29.3221 53.905 29.2874C53.6045 29.1949 53.3387 28.9869 53.0266 28.906C52.6221 28.7904 52.2292 28.8713 51.9518 29.1949C51.605 29.611 51.6166 30.1773 51.4548 30.6628C51.2814 31.1829 50.9462 31.4834 50.3799 31.2291C50.1488 31.1251 49.9407 31.0326 49.6749 31.0673C48.4844 31.2291 48.5422 32.6738 48.6925 33.5522C48.7387 33.7718 49.0739 33.6793 49.0392 33.4597V33.4597Z" fill="#5222D0"/>
<path d="M50.4031 34.1301C50.4956 33.4135 51.0735 33.1014 51.7438 33.1014C52.1021 33.1014 52.4604 33.1592 52.8071 33.0321C53.5931 32.7316 53.4428 31.8763 53.6277 31.206C53.9745 29.9346 55.581 30.7205 56.4709 30.5125C57.072 30.3622 57.5805 29.7612 57.3262 29.1256C57.2453 28.9175 56.9101 29.01 56.991 29.218C57.384 30.1773 56.0433 30.2351 55.477 30.1658C55.0609 30.1195 54.6564 30.0502 54.2403 30.1542C53.5815 30.3276 53.3272 30.813 53.2348 31.4371C53.1539 32.015 53.1654 32.6507 52.4142 32.7431C52.0097 32.7894 51.6051 32.6738 51.2006 32.7663C50.5534 32.9165 50.1373 33.4597 50.0564 34.107C50.0217 34.3497 50.3684 34.3497 50.4031 34.1301V34.1301Z" fill="#5222D0"/>
<path d="M74.2814 5.74419C73.8769 6.25274 73.4492 6.87686 73.6457 7.55876C73.8075 8.11354 74.2467 8.32158 74.7784 8.2869C75.0904 8.26379 75.4141 8.18288 75.6683 8.46027C75.8648 8.66831 75.7377 9.10751 75.6799 9.33866C75.5874 9.69695 75.4141 10.0437 75.4487 10.4251C75.5065 10.9452 75.9226 11.3497 76.4543 11.2341C76.6739 11.1879 76.5814 10.8527 76.3618 10.899C75.3563 11.1301 76.0497 9.45424 76.096 9.04972C76.1306 8.71454 76.0729 8.34469 75.8186 8.10198C75.5643 7.85927 75.2523 7.88238 74.9286 7.91706C74.4201 7.97484 73.9462 7.81304 73.9231 7.20047C73.9116 6.73816 74.2352 6.32208 74.5126 5.97535C74.6744 5.8251 74.4201 5.57083 74.2814 5.74419V5.74419Z" fill="#5222D0"/>
<path d="M77.0092 5.57085C76.466 5.802 76.1192 6.36833 76.2579 6.95778C76.3273 7.22361 76.4891 7.47788 76.7202 7.63969C76.9976 7.84773 77.3212 7.8015 77.5986 7.97486C78.1187 8.28692 77.7026 8.89949 77.7258 9.38491C77.7373 9.62763 77.7951 9.84722 78.0031 9.99747C78.3152 10.2402 78.7775 10.1593 78.9046 9.76632C78.974 9.55828 78.6388 9.46582 78.5695 9.67386C78.1303 9.61607 77.98 9.41959 78.1072 9.08441C78.1303 8.96883 78.1534 8.85325 78.1765 8.73768C78.1996 8.6221 78.2112 8.50652 78.2112 8.39094C78.2112 8.14823 78.1418 7.89396 77.9569 7.72059C77.6795 7.46632 77.2519 7.57034 76.9514 7.3623C76.3388 6.93467 76.5584 6.12562 77.1825 5.85979C77.3906 5.77889 77.2057 5.48994 77.0092 5.57085V5.57085Z" fill="#5222D0"/>
<path d="M1.43291 73.8888C1.16708 73.4728 1.16708 72.9642 1.43291 72.5366C1.69874 72.1205 2.06859 72.1089 2.49623 71.9471C3.08567 71.7044 3.09723 71.0919 3.06256 70.5371C3.051 70.3406 3.03944 70.1326 3.09723 69.9361C3.24748 69.4738 3.64045 69.6009 3.99874 69.6587C4.20678 69.6934 4.40326 69.6587 4.57663 69.5431C4.79622 69.3929 4.93492 69.127 5.00426 68.8728C5.06205 68.6647 5.07361 68.4451 5.11984 68.2371C5.14296 68.0868 5.18919 67.9481 5.25853 67.821C5.44346 67.5321 5.66306 67.5089 5.92888 67.7632C5.98667 67.9828 6.32185 67.8903 6.26406 67.6708C6.05602 66.9195 5.1314 67.2547 4.90024 67.7863C4.79622 68.029 4.78467 68.2949 4.72688 68.5491C4.6922 68.6994 4.66909 68.8612 4.58818 68.9999C4.41482 69.312 4.0912 69.2542 3.7907 69.2195C3.43241 69.1848 3.15502 69.1501 2.92386 69.4853C2.65804 69.8667 2.72738 70.3175 2.72738 70.7567C2.73894 71.2883 2.62336 71.4964 2.10326 71.6697C1.89522 71.7391 1.72186 71.7738 1.53693 71.9125C0.866582 72.3863 0.693216 73.3687 1.13241 74.0506C1.24799 74.2471 1.54849 74.0738 1.43291 73.8888V73.8888Z" fill="#EC615B"/>
<path d="M2.8776 74.6863C2.39217 74.617 2.5771 74.0853 2.79669 73.8773C2.9585 73.727 3.1781 73.6346 3.38614 73.5305C3.64041 73.4034 3.89468 73.2532 4.07961 73.0336C4.57659 72.4094 3.86001 71.5773 4.55347 71.0803C5.24694 70.5949 7.10774 70.3753 6.56453 69.0808C6.48362 68.8728 6.18312 69.0577 6.26402 69.2542C6.65699 70.1904 4.74996 70.4677 4.26453 70.8607C4.09116 70.9994 3.94091 71.1843 3.87157 71.4039C3.73287 71.8893 4.13739 72.3863 3.7791 72.8486C3.36302 73.3572 2.47308 73.3572 2.26504 74.0738C2.1379 74.4783 2.3575 74.9637 2.79669 75.0331C3.00473 75.0562 3.0972 74.721 2.8776 74.6863V74.6863Z" fill="#EC615B"/>
<path d="M129.574 47.8261C129.423 47.5602 129.447 47.2713 129.608 47.017C129.863 46.6472 130.163 46.7281 130.556 46.7627C130.822 46.7859 131.065 46.8436 131.319 46.6934C131.77 46.416 131.7 45.8381 131.781 45.3989C131.966 44.3703 132.856 45.3065 133.457 44.9828C133.677 44.8673 133.758 44.6477 133.804 44.4165C133.885 43.9658 133.908 42.6251 134.775 43.1683C134.96 43.2838 135.145 42.9833 134.948 42.8678C134.174 42.3939 133.55 43.1798 133.48 43.908C133.434 44.324 133.48 44.7286 132.925 44.6708C132.729 44.6477 132.533 44.5436 132.336 44.5205C132.024 44.4859 131.747 44.5783 131.573 44.8557C131.377 45.1793 131.446 45.5838 131.365 45.9306C131.192 46.7165 130.521 46.2773 129.978 46.3698C129.25 46.4969 128.915 47.3753 129.262 47.9879C129.377 48.1959 129.678 48.0225 129.574 47.8261V47.8261Z" fill="#EC615B"/>
<path d="M131.296 48.5542C131.099 48.0226 131.712 47.4331 132.244 47.7105C132.313 47.7452 132.405 47.7452 132.452 47.6874C132.717 47.3984 132.787 47.0633 132.902 46.6934C133.11 46.0231 133.607 45.9306 134.208 45.7457C134.798 45.5607 135.457 45.0753 135.214 44.3819C135.133 44.1738 134.798 44.2663 134.879 44.4743C135.214 45.3874 133.573 45.4567 133.087 45.7919C132.498 46.208 132.671 46.9592 132.22 47.4447C132.29 47.4331 132.359 47.4215 132.428 47.4215C131.654 47.017 130.672 47.8145 130.972 48.6582C131.042 48.8547 131.377 48.7738 131.296 48.5542V48.5542Z" fill="#EC615B"/>
<path d="M84.6143 51.5823C84.6374 51.5823 84.8916 52.2064 84.9957 52.2873C85.1575 52.4144 85.3539 52.426 85.5504 52.3913C85.8972 52.3335 86.1168 52.0793 86.4173 51.9175C87.0645 51.5476 87.0645 52.1833 87.3188 52.5416C87.6077 52.9692 87.9198 52.7612 88.2549 52.5531C88.4745 52.4144 88.6826 52.322 88.8791 52.5185C88.9831 52.6225 89.0524 52.7959 89.1333 52.923C89.2605 53.1079 89.3992 53.2582 89.6072 53.3506C89.8037 53.4431 89.9886 53.1426 89.7806 53.0501C89.3067 52.8421 89.2489 52.0562 88.6826 51.9753C88.4168 51.9406 88.3012 52.0908 88.0931 52.2064C87.8389 52.3567 87.6886 52.4607 87.5268 52.1717C87.4575 52.0562 87.4459 51.8943 87.365 51.7788C86.9952 51.1662 86.4173 51.5014 85.955 51.8019C85.874 51.8597 85.7931 51.9175 85.7007 51.9637C85.5042 51.9059 85.2962 51.8481 85.0997 51.7903C85.0188 51.7094 85.0188 51.5129 84.9494 51.4089C84.8339 51.2471 84.7183 51.2009 84.5333 51.2356C84.3022 51.2818 84.3947 51.617 84.6143 51.5823V51.5823Z" fill="#EC615B"/>
<path d="M87.3301 50.4728C87.6768 49.9295 88.4743 51.0622 88.7979 51.2009C88.9944 51.2818 89.1793 51.2818 89.3874 51.224C89.4798 51.2009 89.5607 51.1547 89.6416 51.12C89.9537 50.9929 90.2195 51.0738 90.4738 51.2934C90.8437 51.6054 90.9477 52.0215 91.4793 52.1371C91.7914 52.2064 92.0803 52.114 92.219 51.8135C92.3115 51.617 92.011 51.4321 91.9185 51.6401C91.5949 52.3336 90.705 50.9697 90.4738 50.8195C90.0462 50.5421 89.7803 50.7733 89.3527 50.8657C88.6708 51.0044 88.4512 50.2416 87.8849 50.0567C87.5497 49.9411 87.2261 49.9989 87.0411 50.311C86.9025 50.4959 87.203 50.6692 87.3301 50.4728V50.4728Z" fill="#EC615B"/>
<path d="M130.522 70.6758C136.659 70.6758 142.796 70.6758 148.945 70.6758C149.164 70.6758 149.164 70.329 148.945 70.329C142.808 70.329 136.67 70.329 130.522 70.329C130.302 70.329 130.302 70.6758 130.522 70.6758V70.6758Z" fill="#E8E8E8"/>
<path d="M135.549 70.5949C135.549 72.3863 135.549 74.1662 135.549 75.9577C135.549 76.1773 135.896 76.1773 135.896 75.9577C135.896 74.1662 135.896 72.3863 135.896 70.5949C135.896 70.3753 135.549 70.3753 135.549 70.5949V70.5949Z" fill="#E8E8E8"/>
<path d="M144.125 70.4215C144.125 67.925 144.125 65.4285 144.125 62.932C144.125 62.7124 143.778 62.7124 143.778 62.932C143.778 65.4285 143.778 67.925 143.778 70.4215C143.778 70.6526 144.125 70.6526 144.125 70.4215V70.4215Z" fill="#E8E8E8"/>
<path d="M140.045 63.0707C142.368 63.0707 144.691 63.0707 147.014 63.0707C147.234 63.0707 147.234 62.724 147.014 62.724C144.691 62.724 142.368 62.724 140.045 62.724C139.825 62.724 139.825 63.0707 140.045 63.0707V63.0707Z" fill="#E8E8E8"/>
<path d="M135.48 21.4513C135.48 23.6126 135.48 25.7739 135.48 27.9236C135.48 28.1432 135.827 28.1432 135.827 27.9236C135.827 25.7623 135.827 23.601 135.827 21.4513C135.827 21.2317 135.48 21.2317 135.48 21.4513V21.4513Z" fill="#E8E8E8"/>
<path d="M130.083 28.4206C134.255 28.4206 138.416 28.4206 142.588 28.4206C142.808 28.4206 142.808 28.0739 142.588 28.0739C138.416 28.0739 134.255 28.0739 130.083 28.0739C129.851 28.0739 129.851 28.4206 130.083 28.4206V28.4206Z" fill="#E8E8E8"/>
<path d="M142.472 28.3744C142.472 29.8075 142.472 31.2407 142.472 32.6738C142.472 32.8934 142.819 32.8934 142.819 32.6738C142.819 31.2407 142.819 29.8075 142.819 28.3744C142.819 28.1548 142.472 28.1548 142.472 28.3744V28.3744Z" fill="#E8E8E8"/>
<path d="M26.3976 14.7131C30.4775 14.7131 34.5689 14.7131 38.6488 14.7131C38.8684 14.7131 38.8684 14.3663 38.6488 14.3663C34.5689 14.3663 30.4775 14.3663 26.3976 14.3663C26.178 14.3663 26.1664 14.7131 26.3976 14.7131V14.7131Z" fill="#E8E8E8"/>
<path d="M38.1406 14.6784C38.1406 15.7879 38.1406 16.8975 38.1406 18.007C38.1406 18.2266 38.4874 18.2266 38.4874 18.007C38.4874 16.8975 38.4874 15.7879 38.4874 14.6784C38.4874 14.4472 38.1406 14.4472 38.1406 14.6784V14.6784Z" fill="#E8E8E8"/>
<path d="M34.4305 14.401C34.4305 12.6211 34.4305 10.8527 34.4305 9.07284C34.4305 8.85324 34.0837 8.85324 34.0837 9.07284C34.0837 10.8527 34.0837 12.6211 34.0837 14.401C34.0837 14.6321 34.4305 14.6321 34.4305 14.401V14.401Z" fill="#E8E8E8"/>
<path d="M2.16079 50.3342C4.98089 50.3342 7.80098 50.3342 10.6211 50.3342C10.8407 50.3342 10.8407 49.9874 10.6211 49.9874C7.80098 49.9874 4.98089 49.9874 2.16079 49.9874C1.94119 49.9874 1.94119 50.3342 2.16079 50.3342V50.3342Z" fill="#E8E8E8"/>
<path d="M7.32739 46.8552C7.32739 47.8954 7.32739 48.9356 7.32739 49.9758C7.32739 50.1954 7.67413 50.1954 7.67413 49.9758C7.67413 48.9356 7.67413 47.8954 7.67413 46.8552C7.67413 46.6356 7.32739 46.6356 7.32739 46.8552V46.8552Z" fill="#E8E8E8"/>
<path d="M5.29324 47.0286C6.79575 47.0286 8.29826 47.0286 9.80077 47.0286C10.0204 47.0286 10.0204 46.6818 9.80077 46.6818C8.29826 46.6818 6.79575 46.6818 5.29324 46.6818C5.06208 46.6818 5.06208 47.0286 5.29324 47.0286V47.0286Z" fill="#E8E8E8"/>
<path d="M56.1936 119.9C59.9615 119.9 63.7293 119.9 67.4971 119.9C67.7167 119.9 67.7167 119.554 67.4971 119.554C63.7293 119.554 59.9615 119.554 56.1936 119.554C55.9625 119.554 55.9625 119.9 56.1936 119.9V119.9Z" fill="#E8E8E8"/>
<path d="M63.1514 119.554C63.1514 118.745 63.1514 117.935 63.1514 117.115C63.1514 116.895 62.8047 116.895 62.8047 117.115C62.8047 117.924 62.8047 118.733 62.8047 119.554C62.8047 119.785 63.1514 119.785 63.1514 119.554V119.554Z" fill="#E8E8E8"/>
<path d="M62.0998 117.126C63.6601 117.126 65.2319 117.126 66.7922 117.126C67.0118 117.126 67.0118 116.78 66.7922 116.78C65.2319 116.78 63.6601 116.78 62.0998 116.78C61.8802 116.78 61.8802 117.126 62.0998 117.126V117.126Z" fill="#E8E8E8"/>
<path d="M2.42691 113.821C6.19474 113.821 9.96257 113.821 13.7304 113.821C13.95 113.821 13.95 113.474 13.7304 113.474C9.96257 113.474 6.19474 113.474 2.42691 113.474C2.20731 113.474 2.20731 113.821 2.42691 113.821V113.821Z" fill="#E8E8E8"/>
<path d="M7.65112 109.29C7.65112 110.619 7.65112 111.96 7.65112 113.289C7.65112 113.509 7.99786 113.509 7.99786 113.289C7.99786 111.96 7.99786 110.619 7.99786 109.29C7.99786 109.071 7.65112 109.071 7.65112 109.29V109.29Z" fill="#E8E8E8"/>
<path d="M7.65083 108.77C6.14832 108.77 4.63425 108.77 3.13174 108.77C2.91214 108.77 2.91214 109.117 3.13174 109.117C4.63425 109.117 6.14832 109.117 7.65083 109.117C7.87042 109.117 7.87042 108.77 7.65083 108.77V108.77Z" fill="#E8E8E8"/>
<path d="M128.071 103.65C127.69 103.269 127.783 102.529 128.372 102.402C128.684 102.333 128.985 102.529 129.285 102.564C129.516 102.598 129.759 102.575 129.909 102.367C130.14 102.067 129.955 101.72 129.944 101.385C129.921 100.333 131.169 100.402 131.793 100.772C131.932 100.853 132.082 100.714 132.047 100.576C131.747 99.131 133.4 98.1371 134.532 99.0964C134.706 99.2351 134.948 98.9924 134.775 98.8537C133.377 97.6748 131.331 98.8768 131.712 100.68C131.793 100.61 131.886 100.553 131.966 100.483C131.435 100.16 130.753 99.9979 130.187 100.356C129.979 100.483 129.794 100.68 129.701 100.911C129.632 101.073 129.597 101.223 129.609 101.396C129.62 101.708 129.724 101.685 129.493 101.986C129.239 102.321 129.216 102.171 128.857 102.09C128.73 102.055 128.615 102.032 128.476 102.044C128.187 102.055 127.921 102.194 127.736 102.402C127.332 102.853 127.436 103.488 127.84 103.893C127.991 104.055 128.233 103.812 128.071 103.65V103.65Z" fill="#E8E8E8"/>
<path d="M130.325 103.997C130.198 102.945 131.92 102.934 132.406 102.205C132.533 102.02 132.579 101.812 132.66 101.616C132.81 101.258 133.076 101.026 133.469 100.922C134.105 100.761 134.763 101.05 135.341 101.292C135.549 101.373 135.642 101.038 135.434 100.957C134.37 100.518 132.937 100.183 132.348 101.477C132.14 101.94 132.07 102.194 131.585 102.437C131.296 102.575 130.995 102.656 130.718 102.818C130.279 103.072 129.932 103.465 129.99 103.997C130.013 104.216 130.36 104.216 130.325 103.997V103.997Z" fill="#E8E8E8"/>
<path d="M80.6152 70.3868C80.8464 70.9647 81.0775 71.5542 81.3087 72.1321C81.3318 72.0627 81.3665 72.0049 81.3896 71.9356C81.2624 72.0165 81.1353 72.0974 81.0082 72.1899C80.8117 71.7275 80.8926 71.612 81.2624 71.82C81.482 71.9587 81.586 72.2592 81.6323 72.5019C81.7363 73.0567 81.6207 73.6346 81.4358 74.1662C81.3896 74.3049 81.5283 74.3974 81.6438 74.3743C82.3373 74.2356 82.6147 75.0677 82.476 75.5878C82.372 75.9692 82.1639 76.3044 81.9559 76.6396C81.8403 76.8245 82.1408 76.9979 82.2564 76.813C82.6262 76.2351 83.0539 75.5185 82.7996 74.8019C82.6031 74.2703 82.1177 73.9351 81.5514 74.0391C81.6207 74.1084 81.6901 74.1778 81.7594 74.2471C81.9906 73.5768 82.1408 72.7331 81.8519 72.0512C81.6554 71.6004 81.2046 71.2537 80.6961 71.4039C80.3031 71.5195 80.1067 71.9125 80.2916 72.2939C80.6036 72.9296 81.1469 72.5019 81.5514 72.2361C81.6092 72.2014 81.6554 72.109 81.6323 72.0396C81.4011 71.4617 81.17 70.8723 80.9388 70.2944C80.8695 70.0979 80.5343 70.1788 80.6152 70.3868V70.3868Z" fill="#E8E8E8"/>
<path d="M12.2626 15.7071C12.043 15.1523 12.7827 15.0021 13.1294 15.1985C13.3952 15.3488 13.5686 15.6146 13.7304 15.8573C13.8807 16.0769 14.0425 16.3196 14.1234 16.5739C14.2158 16.7935 14.2043 17.0016 14.0887 17.2096C13.6842 17.3945 13.4761 17.3483 13.4646 17.0825C13.3606 16.7011 13.7651 16.4468 14.1118 16.4583C14.4701 16.4699 14.8053 16.6779 15.048 16.9322C15.4641 17.3714 15.6143 17.9493 15.5565 18.5387C15.6606 18.5041 15.7761 18.481 15.8802 18.4463C15.649 18.1111 15.8686 17.7528 16.1807 17.5794C16.4465 17.4408 16.747 17.4754 17.0013 17.6141C17.4173 17.8337 17.7063 18.2382 17.9721 18.6081C18.0993 18.793 18.3998 18.6196 18.2726 18.4347C17.8334 17.8222 17.1746 16.9669 16.3078 17.1634C15.6721 17.3021 15.1636 18.0418 15.5797 18.6196C15.6837 18.7699 15.8802 18.7005 15.9033 18.5272C16.0073 17.4292 15.1983 15.9267 13.9038 16.1116C13.4415 16.181 13.1063 16.5046 13.1063 16.9784C13.1063 17.3483 13.3375 17.7297 13.7304 17.7528C14.1927 17.7875 14.5048 17.3367 14.5279 16.9207C14.5626 16.3428 14.1118 15.7186 13.7651 15.291C13.4415 14.9096 12.9676 14.586 12.4591 14.7825C12.043 14.9327 11.7656 15.3488 11.939 15.7764C12.0083 16.0076 12.3435 15.9151 12.2626 15.7071V15.7071Z" fill="#E8E8E8"/>
<path d="M73.1489 32.6623C72.6634 32.3734 73.0102 31.5181 73.5534 31.8764C74.0735 32.2231 73.38 32.8126 73.0449 32.4081C72.9062 32.2347 72.6634 32.4774 72.8021 32.6508C73.068 32.9744 73.5765 32.9513 73.877 32.6854C74.2237 32.3734 74.1313 31.8648 73.773 31.6106C73.4147 31.3563 72.8946 31.4025 72.675 31.8186C72.4554 32.2116 72.6057 32.7432 72.9871 32.9628C73.1604 33.0668 73.3338 32.7779 73.1489 32.6623V32.6623Z" fill="#E8E8E8"/>
<path d="M109.972 7.38539C109.718 7.0271 110.157 6.48388 110.561 6.64569C110.527 6.62258 110.492 6.5879 110.457 6.56479C110.677 6.94619 110.353 7.46629 109.926 7.44318C109.984 7.48941 110.041 7.52408 110.088 7.57031C110.018 7.37383 109.937 7.16579 109.868 6.96931C109.787 6.76127 109.452 6.85373 109.533 7.06177C109.602 7.25825 109.683 7.46629 109.752 7.66277C109.775 7.74368 109.833 7.78991 109.914 7.78991C110.284 7.81303 110.608 7.58187 110.769 7.25825C110.897 7.00398 110.966 6.47232 110.654 6.31052C109.972 5.97534 109.267 6.99242 109.671 7.55875C109.799 7.74368 110.099 7.57031 109.972 7.38539V7.38539Z" fill="#E8E8E8"/>
<path d="M119.38 24.5719C119.322 24.306 119.519 24.0171 119.785 23.9593C120.027 23.9131 120.247 24.1095 120.305 24.3291C120.455 24.8492 119.773 25.092 119.449 24.7337C119.299 24.5719 119.056 24.8146 119.207 24.9764C119.808 25.6467 120.963 24.9879 120.594 24.1327C120.432 23.7513 120.027 23.5085 119.623 23.6357C119.195 23.7744 118.941 24.2251 119.033 24.6643C119.103 24.8839 119.438 24.7915 119.38 24.5719V24.5719Z" fill="#E8E8E8"/>
<path d="M81.8633 120.236C81.4241 120.027 81.4588 119.426 81.8633 119.195C82.2563 118.976 82.6261 119.172 82.9844 119.334C83.2849 119.473 83.6317 119.6 83.8975 119.334C84.1402 119.103 84.094 118.745 84.1055 118.444C84.1518 117.277 85.2844 117.508 86.0588 117.797C86.2668 117.878 86.3593 117.543 86.1513 117.462C85.4693 117.196 84.5216 116.942 83.9784 117.612C83.8166 117.808 83.7704 118.04 83.7588 118.282C83.7472 118.444 83.8166 118.802 83.7241 118.953C83.4699 119.334 83.1231 118.987 82.8573 118.872C82.3488 118.652 81.6206 118.71 81.3086 119.242C81.0427 119.692 81.2045 120.305 81.6784 120.524C81.8864 120.628 82.0598 120.328 81.8633 120.236V120.236Z" fill="#E8E8E8"/>
<path d="M87.4572 92.9937C87.1105 97.2354 87.2954 101.489 88.012 105.684C88.0466 105.904 88.3818 105.811 88.3471 105.592C87.6421 101.431 87.4572 97.2008 87.8039 92.9937C87.827 92.7741 87.4803 92.7741 87.4572 92.9937V92.9937Z" fill="#E8E8E8"/>
<path d="M87.6884 93.2597C89.4915 93.8838 91.3523 94.2999 93.2477 94.5079C95.0276 94.6928 97.0734 94.8893 98.7839 94.219C98.9919 94.1381 98.8995 93.8029 98.6914 93.8838C97.0271 94.5426 95.0045 94.3461 93.2477 94.1612C91.3869 93.9647 89.5492 93.537 87.7809 92.9245C87.5613 92.8436 87.4804 93.1788 87.6884 93.2597V93.2597Z" fill="#E8E8E8"/>
<path d="M90.4392 93.7335C89.8382 92.7973 89.3412 91.8033 88.9944 90.74C88.8326 90.2314 88.6939 89.7229 88.5899 89.2028C88.5321 88.8907 88.4743 88.5787 88.4397 88.2666C88.4397 88.232 88.3125 87.4114 88.5552 87.5269C88.6708 87.5847 88.8673 87.4807 88.8095 87.3305C88.1738 85.7239 87.8271 84.0365 87.7924 82.3028C87.7346 82.3606 87.6769 82.4184 87.6191 82.4762C87.7115 82.5109 87.7924 82.5455 87.8849 82.5802C88.0005 82.7189 88.2201 82.5686 88.1738 82.4068C87.9427 81.6671 87.7924 80.9043 87.7462 80.1184C87.7346 79.9335 87.7693 77.8531 87.8964 77.8878C88.0351 77.9224 88.1276 77.7953 88.1045 77.6797C87.8849 76.3737 87.7809 75.0445 87.8387 73.727C87.8618 73.0682 87.9196 72.4209 88.0236 71.7737C88.116 71.1842 88.1623 70.4677 88.6246 70.04C88.5321 70.0285 88.4397 70.0169 88.3472 70.0054C89.3181 71.8315 89.8613 73.831 90.3583 75.8189C90.8437 77.7722 91.2713 79.7486 91.6412 81.7365C92.3924 85.8395 92.8663 89.9887 93.0743 94.1611C93.0859 94.3807 93.4326 94.3807 93.4211 94.1611C93.213 89.9656 92.7392 85.7817 91.9763 81.644C91.5949 79.5867 91.1557 77.541 90.6472 75.5069C90.1502 73.5536 89.607 71.6119 88.6477 69.8204C88.5899 69.7164 88.4512 69.7164 88.3703 69.7858C87.9774 70.144 87.8618 70.6179 87.7693 71.1149C87.6422 71.8199 87.5497 72.5481 87.5035 73.2646C87.411 74.7672 87.5035 76.2697 87.7578 77.7606C87.8271 77.6913 87.8964 77.6219 87.9658 77.5526C87.2954 77.3677 87.3763 78.8124 87.3648 79.136C87.3186 80.2687 87.4919 81.4013 87.8271 82.4877C87.9196 82.43 88.0236 82.3722 88.116 82.3144C87.9658 82.141 87.8387 82.0832 87.6075 82.1063C87.515 82.1179 87.4341 82.1757 87.4341 82.2797C87.4688 84.0365 87.8155 85.7586 88.4628 87.3998C88.5437 87.3304 88.6361 87.2727 88.717 87.2033C87.5613 86.6485 88.2316 89.2606 88.3241 89.6536C88.6708 91.1561 89.2949 92.5892 90.1271 93.8837C90.2658 94.0917 90.5663 93.9184 90.4392 93.7335V93.7335Z" fill="#E8E8E8"/>
<path d="M92.2769 82.1873C92.1729 81.4476 92.1497 80.6963 92.2422 79.9566C92.2653 79.7717 92.7045 77.5988 92.9241 77.6913C93.0397 77.7491 93.1784 77.6797 93.1899 77.5411C93.2593 76.0617 93.7216 74.7441 94.2648 73.3803C94.808 72.028 95.3397 70.722 96.2412 69.5546C96.1603 69.5546 96.0794 69.5546 95.9985 69.5546C96.6573 70.3059 96.5764 71.4501 96.611 72.3863C96.6573 73.438 96.692 74.4898 96.7035 75.5416C96.7266 77.6104 96.692 79.6792 96.5995 81.7481C96.403 85.9782 95.9291 90.1968 95.2126 94.3692C95.1779 94.5888 95.5131 94.6812 95.5477 94.4616C96.299 90.1159 96.7729 85.7124 96.9693 81.2973C97.0618 79.0782 97.0849 76.8591 97.0387 74.6401C97.0156 73.5305 96.9925 72.421 96.9115 71.3114C96.8653 70.5833 96.7497 69.8667 96.2412 69.3004C96.1834 69.231 96.0563 69.231 95.9985 69.3004C95.1085 70.4561 94.5538 71.7275 94.0221 73.0798C93.4327 74.536 92.9357 75.9461 92.8548 77.5411C92.9472 77.4948 93.0281 77.437 93.1206 77.3908C92.4156 77.0787 92.1844 78.5812 92.092 78.9858C91.8377 80.0722 91.8146 81.1702 91.9764 82.2682C91.9648 82.4993 92.3 82.4069 92.2769 82.1873V82.1873Z" fill="#E8E8E8"/>
<path d="M88.1741 105.973C91.7917 107.141 95.7098 107.083 99.2927 105.811C99.5008 105.742 99.4083 105.407 99.2003 105.476C95.6751 106.724 91.8264 106.782 88.2666 105.638C88.047 105.569 87.9546 105.904 88.1741 105.973V105.973Z" fill="#E8E8E8"/>
<path d="M98.7378 94.1034C98.8765 95.9757 99.0268 97.8481 99.1539 99.7204C99.281 101.627 99.3273 103.558 99.0152 105.453C98.9805 105.673 99.3157 105.765 99.3504 105.546C99.6625 103.685 99.6393 101.812 99.5122 99.94C99.3851 97.9983 99.2348 96.0451 99.0846 94.1034C99.073 93.8838 98.7263 93.8838 98.7378 94.1034V94.1034Z" fill="#E8E8E8"/>
<path d="M37.054 108.944C39.4117 107.684 41.7811 106.424 44.1389 105.164C45.2484 105.349 46.774 105.592 48.6002 105.846C52.2524 106.355 58.1353 107.175 65.5785 107.395C73.0217 107.614 78.6041 107.141 80.7308 106.933C85.8508 106.447 88.9483 105.788 91.4795 105.106C93.7795 104.482 95.675 103.8 97.0272 103.28C98.1368 103.65 99.3734 104.147 100.691 104.829C101.442 105.222 102.136 105.627 102.748 106.031C100.575 106.655 97.6513 107.453 94.1724 108.262C86.8448 109.972 81.2277 110.781 80.0488 110.955C73.3107 111.914 63.7062 113.266 51.6283 111.868C47.872 111.417 42.8675 110.596 37.054 108.944Z" fill="white"/>
<path d="M36.927 108.955C36.9848 109.44 37.0541 109.914 37.1119 110.4C37.9788 110.642 39.2501 110.989 40.822 111.336C43.827 112.006 46.8782 112.469 50.8657 112.781C65.5903 113.936 77.3561 112.908 77.3561 112.908C83.239 112.388 88.9485 111.856 96.3224 109.706C99.0962 108.897 101.362 108.077 102.98 107.441C102.853 106.898 102.725 106.355 102.598 105.811C102.147 105.996 101.477 106.262 100.657 106.563C95.0857 108.597 90.4973 109.267 86.4058 109.764C77.4139 110.874 72.9179 111.417 66.3184 111.521C58.8059 111.648 48.7275 111.197 36.927 108.955Z" fill="#161616"/>
<path d="M36.8459 109.175C36.8459 109.544 36.8459 109.914 36.8459 110.284C36.8459 110.504 37.1927 110.504 37.1927 110.284C37.1927 109.914 37.1927 109.544 37.1927 109.175C37.1927 108.943 36.8459 108.943 36.8459 109.175V109.175Z" fill="#161616"/>
<path d="M36.973 110.608C45.6066 112.943 54.6217 113.243 63.5096 113.37C72.0508 113.486 80.6498 113.116 89.0638 111.556C93.8025 110.677 98.4719 109.394 102.979 107.649C103.187 107.568 103.095 107.233 102.887 107.314C94.9352 110.4 86.4865 111.972 77.9915 112.63C69.4272 113.289 60.782 113.139 52.2177 112.619C47.0976 112.295 42.0237 111.625 37.0654 110.284C36.8458 110.215 36.7534 110.55 36.973 110.608V110.608Z" fill="#161616"/>
<path d="M102.98 107.406C103.049 106.921 103.072 106.424 103.026 105.939C103.003 105.719 102.656 105.719 102.679 105.939C102.714 106.401 102.714 106.863 102.644 107.314C102.61 107.522 102.945 107.626 102.98 107.406V107.406Z" fill="#161616"/>
<path d="M37.1232 109.14C39.5504 107.984 41.9313 106.748 44.2659 105.407C44.4624 105.291 44.2891 105.002 44.0926 105.106C41.7579 106.435 39.377 107.684 36.9499 108.839C36.7418 108.932 36.9152 109.232 37.1232 109.14V109.14Z" fill="#161616"/>
<path d="M44.1737 105.245C57.9621 107.869 72.2937 108.354 86.1977 106.366C89.8962 105.835 93.5716 105.014 96.9927 103.488C97.2007 103.396 97.0158 103.095 96.8193 103.188C93.7449 104.552 90.4625 105.349 87.1454 105.869C83.7706 106.401 80.361 106.724 76.9515 106.944C70.0284 107.383 63.0706 107.268 56.1706 106.609C52.1716 106.228 48.2073 105.65 44.2661 104.91C44.0465 104.875 43.9541 105.21 44.1737 105.245V105.245Z" fill="#161616"/>
<path d="M96.9232 103.431C98.9805 104.101 100.911 105.037 102.714 106.227C102.899 106.355 103.072 106.054 102.887 105.927C101.061 104.725 99.096 103.777 97.0156 103.095C96.796 103.026 96.7036 103.361 96.9232 103.431V103.431Z" fill="#161616"/>
<path d="M37.1463 108.955C41.2262 110.331 45.4795 110.978 49.7558 111.324C54.09 111.671 58.4588 111.775 62.8046 111.775C71.4382 111.775 80.095 111.186 88.6015 109.637C93.4326 108.759 98.2176 107.568 102.875 106.008C103.083 105.939 102.991 105.603 102.783 105.673C94.5884 108.4 86.0703 109.995 77.4714 110.781C68.9186 111.567 60.2734 111.613 51.6975 111.105C46.797 110.804 41.885 110.192 37.2157 108.62C37.0307 108.551 36.9383 108.886 37.1463 108.955V108.955Z" fill="#161616"/>
<path d="M43.8037 42.9486C57.9273 39.6778 72.467 38.9612 86.9142 38.8225C91.0056 38.7763 95.0971 38.7878 99.1885 38.7878C99.4081 38.7878 99.4081 38.4411 99.1885 38.4411C84.6951 38.418 70.1323 38.4064 55.7429 40.4059C51.6977 40.9723 47.6871 41.6888 43.7113 42.6135C43.4917 42.6713 43.5841 43.0064 43.8037 42.9486V42.9486Z" fill="#161616"/>
<path d="M99.9051 38.4758C100.055 43.8502 100.148 50.0798 100.113 57.003C100.09 61.0251 100.055 59.1065 99.6971 75.8421C99.489 85.4813 99.4312 89.1104 98.7493 94.6813C98.3101 98.3104 97.7785 101.292 97.3855 103.315C100.367 104.147 103.211 104.933 105.707 105.626C109.567 106.701 110.596 106.99 112.133 107.21C114.514 107.534 117.415 107.58 120.767 106.898C122.004 96.7732 122.685 88.1396 123.078 81.5285C124.488 58.2974 123.171 47.5949 122.662 43.8387C121.969 38.7764 121.114 34.6156 120.455 31.7377C117.981 32.2115 115.97 32.7201 114.56 33.1015C109.718 34.4306 105.88 35.9909 102.667 37.3085C101.477 37.8055 100.518 38.21 99.9051 38.4758Z" fill="white"/>
<path d="M20.226 31.9457C20.1335 32.9397 20.0295 34.1648 19.937 35.2281C18.0184 57.107 17.0592 68.0522 16.7471 75.0909C16.4235 82.6497 16.4004 93.6064 18.0069 107.233C18.134 107.51 18.3652 107.892 18.7813 108.204C19.3245 108.608 19.8215 108.597 20.8039 108.874C21.5782 109.094 21.9828 109.313 22.3526 109.452C23.4159 109.868 25.7968 110.342 28.825 110.227C33.1707 110.053 36.5109 108.724 38.9611 107.718C41.2611 106.782 43.0988 105.777 44.3702 105.014C43.6536 98.5763 43.1219 91.7803 42.8214 84.6492C42.2089 69.4854 42.8214 55.5583 44.0812 43.1452C43.5496 42.9372 42.7752 42.6482 41.8621 42.2784C40.2903 41.6427 36.5224 40.1055 29.8883 36.8693C27.2647 35.598 23.9823 33.9452 20.226 31.9457Z" fill="white"/>
<path d="M120.385 31.6915C120.524 32.4543 120.709 33.506 120.917 34.7658C121.206 36.5573 121.853 40.799 122.327 46.3698C122.813 52.1718 122.928 57.1648 122.94 61.1407C122.974 69.208 122.674 75.1256 121.888 88.9255C121.645 93.225 121.287 99.524 120.836 107.21C121.31 107.175 121.772 107.152 122.246 107.117C122.477 105.199 122.79 102.344 123.032 98.8537C123.217 96.3341 123.298 94.4964 123.379 92.52C123.783 83.4587 123.853 83.5627 123.992 79.8642C124.269 72.5713 124.211 66.9658 124.165 61.9266C124.13 58.4477 124.026 55.1537 123.818 48.5658C123.668 44.0814 123.518 40.1055 122.501 34.9392C122.235 33.6216 121.98 32.5236 121.796 31.7724C121.322 31.7493 120.859 31.7261 120.385 31.6915Z" fill="#161616"/>
<path d="M18.4576 32.1537C18.3767 32.5583 18.2496 33.1824 18.1224 33.9452C17.7526 36.1527 17.6601 37.8171 17.6254 38.3603C17.3712 42.2899 16.8626 44.2085 16.1229 52.9346C15.9842 54.5296 15.8802 55.9281 15.6722 58.7366C15.2445 64.4693 15.0365 67.3356 14.8863 70.5718C14.7244 74.1894 14.7013 76.7436 14.6667 81.8522C14.632 86.2672 14.6089 89.4572 14.7244 93.6295C14.8169 96.9582 15.0018 101.477 15.4526 106.863C16.3888 107.141 17.3134 107.418 18.2496 107.695C18.238 107.175 18.2033 106.239 18.134 105.072C17.8566 99.8823 17.4058 97.7788 17.3018 93.4562C17.2672 92.127 17.2903 91.2486 17.3018 89.9888C17.429 80.9506 17.2787 76.8245 17.3596 70.9532C17.4983 61.3718 18.1455 53.8824 18.7003 47.5025C19.2204 41.4693 19.8099 36.303 20.3184 32.2578C19.6827 32.2231 19.0702 32.1884 18.4576 32.1537Z" fill="#161616"/>
<path d="M99.6279 38.6723C100.055 47.1557 99.9977 55.6622 99.8821 64.1456C99.755 72.4441 99.6972 80.7657 99.0615 89.0526C98.7032 93.7682 98.1369 98.4722 97.2585 103.13C97.2123 103.35 97.5475 103.442 97.5937 103.222C99.1309 95.0742 99.6972 86.7873 99.9515 78.512C100.217 70.0632 100.333 61.5914 100.321 53.1311C100.31 48.3115 100.229 43.4919 99.9861 38.6723C99.963 38.4527 99.6163 38.4527 99.6279 38.6723V38.6723Z" fill="#161616"/>
<path d="M100.055 38.6724C106.47 35.494 113.278 33.2055 120.305 31.8533C120.524 31.807 120.432 31.4719 120.212 31.5181C113.162 32.8819 106.32 35.1935 99.8821 38.3719C99.6856 38.4759 99.859 38.7764 100.055 38.6724V38.6724Z" fill="#161616"/>
<path d="M120.189 31.7492C122.096 41.3537 122.674 51.1663 122.662 60.9441C122.639 70.722 122.061 80.4768 121.587 90.2431C121.31 95.8717 121.033 101.489 120.755 107.117C120.744 107.337 121.09 107.337 121.102 107.117C121.599 97.1546 122.119 87.1918 122.57 77.2175C123.009 67.4396 123.286 57.6386 122.628 47.8723C122.258 42.4286 121.599 37.008 120.536 31.6683C120.478 31.4371 120.143 31.5296 120.189 31.7492V31.7492Z" fill="#161616"/>
<path d="M97.3162 103.199C97.8363 103.8 98.7609 103.916 99.4891 104.136C100.483 104.436 101.489 104.737 102.483 105.037C104.494 105.638 106.493 106.274 108.527 106.782C112.503 107.753 116.583 107.95 120.617 107.256C120.836 107.221 120.744 106.886 120.524 106.921C116.548 107.603 112.526 107.406 108.62 106.447C106.759 105.996 104.933 105.418 103.107 104.864C102.182 104.586 101.257 104.309 100.333 104.031C99.8705 103.893 99.4082 103.754 98.9458 103.615C98.4604 103.465 97.9172 103.361 97.5705 102.957C97.4087 102.795 97.1659 103.038 97.3162 103.199V103.199Z" fill="#161616"/>
<path d="M120.42 31.7607C120.848 31.8648 121.276 31.9688 121.715 32.0728C121.934 32.1306 122.027 31.7954 121.807 31.7376C121.38 31.6336 120.952 31.5296 120.513 31.4256C120.293 31.3793 120.201 31.7145 120.42 31.7607V31.7607Z" fill="#161616"/>
<path d="M121.691 31.9573C122.847 36.6266 123.159 41.504 123.494 46.3005C123.841 51.201 124.026 56.113 124.107 61.0366C124.246 70.8029 123.91 80.5692 123.356 90.324C123.043 95.8486 122.651 101.373 122.246 106.898C122.234 107.117 122.581 107.117 122.593 106.898C123.321 97.0737 123.98 87.2496 124.292 77.4024C124.604 67.5783 124.581 57.7311 123.957 47.907C123.621 42.5673 123.321 37.0889 122.038 31.8764C121.969 31.6452 121.633 31.7377 121.691 31.9573V31.9573Z" fill="#161616"/>
<path d="M120.94 107.314C121.449 107.268 121.946 107.221 122.454 107.175C122.674 107.152 122.674 106.805 122.454 106.828C121.946 106.875 121.449 106.921 120.94 106.967C120.721 106.99 120.721 107.337 120.94 107.314V107.314Z" fill="#161616"/>
<path d="M43.7921 43.0527C43.0177 51.0622 42.5554 59.0949 42.4052 67.1391C42.2549 75.218 42.4167 83.3084 42.9022 91.3757C43.168 95.9064 43.5494 100.425 44.0117 104.933C44.0348 105.153 44.3815 105.153 44.3584 104.933C43.5263 96.935 43.0062 88.9024 42.7981 80.8582C42.5901 72.7793 42.6941 64.6888 43.1218 56.6215C43.3645 52.0909 43.6996 47.5718 44.1273 43.0527C44.162 42.8331 43.8152 42.8331 43.7921 43.0527V43.0527Z" fill="#161616"/>
<path d="M20.4456 32.2231C27.9466 36.3955 35.7365 40.0477 43.7345 43.1568C43.9425 43.2377 44.035 42.9025 43.8269 42.8216C35.8521 39.7241 28.0968 36.0834 20.6189 31.9226C20.4224 31.807 20.2491 32.1075 20.4456 32.2231V32.2231Z" fill="#161616"/>
<path d="M20.0872 32.1422C18.8043 41.92 17.9144 51.7557 17.429 61.6145C16.9435 71.4733 16.8742 81.3436 17.1978 91.2024C17.3827 96.7385 17.6948 102.275 18.134 107.799C18.1571 108.019 18.5038 108.019 18.4807 107.799C17.6948 97.9637 17.3249 88.0933 17.3481 78.2346C17.3712 68.3642 17.8104 58.5054 18.6425 48.6698C19.1164 43.1452 19.7174 37.6437 20.434 32.1422C20.4571 31.9226 20.1104 31.9226 20.0872 32.1422V32.1422Z" fill="#161616"/>
<path d="M18.1225 108.019C24.5602 111.521 32.2692 110.77 38.8109 107.996C40.7757 107.164 42.6712 106.158 44.4973 105.06C44.6822 104.945 44.5089 104.644 44.324 104.76C38.233 108.447 31.0903 111.024 23.8898 109.683C21.9366 109.325 20.0411 108.666 18.2959 107.718C18.1109 107.614 17.926 107.915 18.1225 108.019V108.019Z" fill="#161616"/>
<path d="M15.568 107.06C16.3771 107.441 17.2092 107.765 18.053 108.054C18.261 108.123 18.3535 107.788 18.1454 107.718C17.3248 107.441 16.5273 107.129 15.7414 106.759C15.5334 106.667 15.36 106.967 15.568 107.06V107.06Z" fill="#161616"/>
<path d="M18.2263 32.2231C16.978 41.9085 15.9378 51.617 15.2559 61.3602C14.5856 71.0572 14.2619 80.7772 14.47 90.4973C14.5856 95.9988 14.863 101.5 15.3368 106.979C15.3599 107.198 15.7067 107.198 15.6836 106.979C14.8514 97.2586 14.6087 87.5039 14.8398 77.7491C15.0594 68.029 15.7298 58.3205 16.6891 48.6351C17.2323 43.1567 17.868 37.6783 18.573 32.2115C18.6077 32.0035 18.2609 32.0035 18.2263 32.2231V32.2231Z" fill="#161616"/>
<path d="M18.4229 32.4658C19.0932 32.3271 19.7636 32.2809 20.457 32.3155C20.6766 32.3271 20.6766 31.9804 20.457 31.9688C19.7404 31.9341 19.0354 31.9919 18.3304 32.1306C18.1108 32.1769 18.2033 32.512 18.4229 32.4658V32.4658Z" fill="#161616"/>
<path d="M104.055 39.4582C104.54 52.8652 104.517 66.2838 103.962 79.6908C103.812 83.4471 103.615 87.1918 103.373 90.9481C103.361 91.1677 103.708 91.1677 103.719 90.9481C104.563 77.5642 104.887 64.1456 104.69 50.727C104.632 46.9708 104.54 43.2145 104.401 39.4582C104.39 39.2386 104.043 39.2386 104.055 39.4582V39.4582Z" fill="#161616"/>
<path d="M109.66 34.6502C110.122 43.9773 110.354 53.3275 110.342 62.6662C110.342 72.0049 110.111 81.3551 109.649 90.6822C109.394 95.9641 109.059 101.234 108.655 106.505C108.643 106.724 108.99 106.724 109.001 106.505C109.718 97.1893 110.203 87.8621 110.469 78.5235C110.723 69.1848 110.758 59.8345 110.562 50.4959C110.446 45.214 110.261 39.9321 110.007 34.6502C109.995 34.4306 109.649 34.4306 109.66 34.6502V34.6502Z" fill="#161616"/>
<path d="M116.387 32.593C117.034 42.29 117.427 52.01 117.531 61.7417C117.635 71.508 117.473 81.2628 117.034 91.0175C116.791 96.4843 116.456 101.951 116.028 107.406C116.017 107.626 116.364 107.626 116.375 107.406C117.115 97.7095 117.6 87.9894 117.797 78.2693C117.993 68.5145 117.924 58.7482 117.577 48.9819C117.381 43.5151 117.103 38.0483 116.733 32.5814C116.722 32.3618 116.375 32.3618 116.387 32.593V32.593Z" fill="#161616"/>
<path d="M102.864 95.2823C102.598 98.3104 102.112 101.315 101.407 104.274C101.361 104.494 101.685 104.586 101.743 104.367C102.459 101.373 102.945 98.3451 103.21 95.2823C103.233 95.0627 102.887 95.0627 102.864 95.2823V95.2823Z" fill="#161616"/>
<path d="M24.2364 34.4768C22.8494 44.1738 22.26 53.9748 22.1675 63.7642C22.0866 73.6114 22.4911 83.4471 23.0921 93.2712C23.4273 98.8305 23.8203 104.378 24.2132 109.938C24.2248 110.157 24.5715 110.157 24.56 109.938C23.8665 100.148 23.173 90.3587 22.7916 80.5577C22.4102 70.7798 22.3524 60.9788 22.9188 51.2009C23.2424 45.6416 23.774 40.0824 24.56 34.5693C24.6062 34.3613 24.271 34.2572 24.2364 34.4768V34.4768Z" fill="#161616"/>
<path d="M30.8823 37.713C30.0039 47.0864 29.4144 56.4944 29.218 65.914C29.033 75.322 29.2526 84.73 30.027 94.1149C30.4546 99.3275 31.0556 104.517 31.8416 109.683C31.8763 109.903 32.2114 109.81 32.1768 109.591C30.7667 100.275 29.9577 90.8672 29.6572 81.4476C29.3567 72.1552 29.53 62.8396 30.0386 53.5587C30.3275 48.2768 30.732 42.9949 31.229 37.7246C31.2521 37.4934 30.9054 37.4934 30.8823 37.713V37.713Z" fill="#161616"/>
<path d="M37.5395 40.4754C36.4068 49.2246 35.748 58.0316 35.5747 66.8502C35.4013 75.6688 35.7018 84.4989 36.4762 93.2828C36.9154 98.1833 37.4933 103.061 38.2214 107.927C38.2561 108.146 38.5912 108.054 38.5566 107.834C37.2505 99.1195 36.4184 90.3471 36.0601 81.5517C35.7018 72.7793 35.8289 63.9839 36.4184 55.2115C36.7536 50.2879 37.239 45.3643 37.8747 40.4638C37.9209 40.2558 37.5742 40.2558 37.5395 40.4754V40.4754Z" fill="#161616"/>
<path opacity="0.12" d="M113.797 33.3789C115.08 38.6145 116.12 44.7517 116.467 51.6286C117.334 69.127 113.219 83.424 109.637 92.6009C107.105 96.6576 104.586 100.714 102.055 104.771C104.516 105.835 108.169 107.071 112.723 107.441C115.866 107.695 118.594 107.464 120.72 107.117C120.744 106.609 121.125 98.8767 121.148 98.3682C122.408 72.4672 122.489 70.6989 122.535 68.919C122.743 61.6723 122.708 51.2703 121.472 38.2909C121.044 36.0834 120.616 33.8758 120.189 31.6799C118.074 32.2346 115.936 32.801 113.797 33.3789Z" fill="#3F3F3F"/>
<path opacity="0.13" d="M33.1359 39.0306C32.8354 40.2904 32.3847 42.1743 31.853 44.4743C29.4952 54.7376 27.7616 62.2848 26.8369 69.2311C25.1957 81.4707 23.6123 93.329 30.3621 103.061C32.3269 105.892 34.4766 107.799 35.9098 108.932C34.5229 109.475 32.8008 109.972 30.7897 110.215C25.1957 110.874 20.7113 109.059 18.5154 107.973C17.6832 100.31 17.1053 92.1039 16.9204 83.424C16.5043 64.215 18.0646 46.9477 20.4455 32.0959C24.6641 34.4075 28.8942 36.7191 33.1359 39.0306Z" fill="#3F3F3F"/>
<path d="M21.0118 26.5944C20.8616 26.71 20.9771 27.1608 21.1852 27.9351C21.2661 28.2356 21.347 28.4668 21.3932 28.617C21.3007 29.2412 21.2198 29.8653 21.1274 30.4894C20.9425 30.5125 20.4686 30.6165 20.0294 30.9979C19.6249 31.3562 19.4631 31.7723 19.4053 31.9572C19.7751 31.9919 20.2259 32.0728 20.7113 32.2231C21.4163 32.4427 21.9711 32.7432 22.3756 32.9974C22.3756 33.1361 22.3987 33.402 22.5837 33.5984C22.7455 33.7602 22.942 33.7834 23.0575 33.8065C23.4736 33.8758 23.9706 33.9683 24.6063 34.107C24.8837 34.2688 25.346 34.5346 25.9123 34.8467C27.8309 35.8869 28.5244 36.0602 30.4429 37.0773C31.6796 37.7361 31.5756 37.7592 32.4424 38.1753C33.7716 38.8225 34.9158 39.204 35.6902 39.4236C36.0138 39.0653 36.5339 38.3718 36.8228 37.3663C37.054 36.5688 37.0424 35.8753 36.9962 35.4246C37.1927 35.5286 37.5047 35.6442 37.863 35.5979C38.7876 35.4939 39.3771 34.4422 39.562 33.6909C39.7238 33.0321 39.5736 32.616 39.4464 31.8417C39.1575 30.108 38.9032 28.5593 39.6198 27.5768C40.2208 26.7562 41.4575 26.3748 42.4515 25.2768C42.5439 25.1728 42.7173 24.9763 42.6595 24.8839C42.5555 24.7105 41.7464 25.011 41.3535 25.1844C41.0992 25.3 39.1922 26.1784 38.6143 28.1663C38.5218 28.4783 38.5103 29.3799 38.4987 31.1713C38.4871 32.4773 38.5103 33.217 37.9902 33.6447C37.7243 33.8643 37.3314 33.9914 36.9731 33.9105C36.4414 33.7949 36.1872 33.2748 35.956 32.9281C35.355 32.015 34.4997 31.6336 33.448 31.1135C32.6274 30.709 31.9223 30.5587 30.5007 30.2467C29.16 29.9577 28.7555 29.9924 28.1776 29.5648C27.5304 29.0794 27.1721 28.3974 26.9872 28.016C26.8022 27.6577 26.5133 27.0914 26.3862 26.2824C26.3168 25.8085 26.3284 25.4733 26.2128 25.4502C26.0048 25.404 25.9007 26.3633 25.1957 26.6985C24.7681 26.9065 24.4907 26.71 23.7394 26.7331C23.254 26.7447 22.6992 26.8487 22.0751 27.1261C21.8671 26.9758 21.2198 26.4442 21.0118 26.5944Z" fill="black"/>
<path d="M21.3585 30.3969C21.1158 28.4899 22.8495 26.7562 24.7681 26.9527C26.5826 27.1376 27.7846 29.3451 27.7269 30.9979C27.7153 31.2175 28.062 31.2175 28.0736 30.9979C28.1314 29.1718 26.7676 26.7678 24.7681 26.606C22.6646 26.4326 20.746 28.2934 21.0118 30.3969C21.0465 30.6049 21.3932 30.6165 21.3585 30.3969V30.3969Z" fill="black"/>
<path d="M21.3236 31.5989C22.0286 32.9743 23.5427 33.9452 25.1261 33.7371C26.5708 33.5407 27.7959 32.3733 28.0155 30.9286C28.0502 30.709 27.715 30.6165 27.6803 30.8361C27.4839 32.1537 26.3974 33.217 25.0798 33.3904C23.6351 33.5869 22.2713 32.6854 21.6241 31.4256C21.5201 31.2291 21.2195 31.4025 21.3236 31.5989V31.5989Z" fill="black"/>
<path d="M22.5721 33.2748C22.5375 32.8356 23.7857 32.6507 24.0978 32.5814C24.6641 32.4542 25.242 32.3849 25.8199 32.3849C26.8947 32.3849 27.9234 32.6623 28.8364 33.2286C29.0214 33.3442 29.2063 33.0437 29.0098 32.9281C27.8309 32.1999 26.4555 31.9457 25.0917 32.0728C24.3751 32.1422 23.6701 32.2924 22.9882 32.5236C22.6184 32.6507 22.1792 32.8125 22.2138 33.2748C22.237 33.4944 22.5953 33.4944 22.5721 33.2748V33.2748Z" fill="black"/>
<path d="M27.5418 29.2759C28.2699 30.1543 29.4488 30.3623 30.5006 30.5935C31.899 30.9171 33.3438 31.206 34.5689 31.9804C37.1 33.5754 37.5739 37.0543 35.5744 39.2849C35.4242 39.4467 35.6669 39.701 35.8171 39.5276C37.597 37.5512 37.6433 34.5231 35.8056 32.5583C34.8347 31.5181 33.4478 30.9749 32.0955 30.6166C30.7202 30.2583 28.7438 30.2005 27.7729 29.0216C27.6458 28.8598 27.4031 29.1025 27.5418 29.2759V29.2759Z" fill="black"/>
<path d="M35.6324 35.3205C35.0545 34.5577 34.0374 34.2919 33.1474 34.6617C32.0494 35.1125 31.9917 36.4648 32.1188 37.4934C32.1419 37.713 32.4886 37.713 32.4655 37.4934C32.3615 36.6844 32.3499 35.4361 33.1821 35.0316C33.8987 34.6733 34.8349 34.8582 35.3203 35.5055C35.459 35.6788 35.7595 35.5055 35.6324 35.3205V35.3205Z" fill="black"/>
<path d="M32.4194 37.3316C31.7837 36.8462 31.1249 36.4301 30.3043 36.6497C30.2119 36.6728 30.1656 36.7768 30.1888 36.8577C30.3968 37.6668 31.6681 38.002 32.3385 38.2909C33.3671 38.7416 34.4189 39.1231 35.4822 39.4582C35.6903 39.5276 35.7827 39.1924 35.5747 39.1231C34.7194 38.8572 33.8872 38.5683 33.0551 38.2215C32.6043 38.0366 32.1651 37.8401 31.7259 37.6321C31.333 37.4472 30.6279 37.2276 30.5124 36.7653C30.4777 36.8346 30.4315 36.904 30.3968 36.9733C31.1134 36.7768 31.7028 37.2045 32.2345 37.6205C32.4194 37.7708 32.5928 37.4703 32.4194 37.3316V37.3316Z" fill="black"/>
<path d="M22.2599 33.2401C22.7107 33.9798 23.6237 34.107 24.4212 34.2226C25.6001 34.3959 26.779 34.3959 27.9579 34.2688C28.1775 34.2457 28.1775 33.8989 27.9579 33.9221C27.0102 34.0261 26.0624 34.0492 25.1147 33.9567C24.3172 33.8758 23.0343 33.8296 22.5489 33.0668C22.4449 32.8703 22.1443 33.0437 22.2599 33.2401V33.2401Z" fill="black"/>
<path d="M19.567 32.0612C19.7173 31.2522 20.4223 30.8361 21.2082 30.8014C21.1504 30.7552 21.0926 30.7205 21.0464 30.6743C21.1042 30.9517 21.1851 31.2175 21.3007 31.4718C21.3816 31.6798 21.7167 31.5874 21.6358 31.3793C21.5318 31.1135 21.4509 30.8592 21.3816 30.5818C21.37 30.5125 21.2891 30.4547 21.2198 30.4547C20.2951 30.5009 19.4167 31.0095 19.2434 31.9688C19.1972 32.1884 19.5323 32.2808 19.567 32.0612V32.0612Z" fill="black"/>
<path d="M21.5781 28.4784C21.4047 27.9814 21.2776 27.4613 21.2313 26.9296C21.2313 26.8834 21.2198 26.8372 21.2198 26.7909C21.2082 26.6869 21.2198 26.6985 21.266 26.8256C21.37 26.895 21.474 26.9759 21.5781 27.0568C21.7514 27.207 21.9132 27.3688 22.0519 27.5422C22.2022 27.7156 22.4449 27.4613 22.2947 27.2995C22.0982 27.0683 21.2776 26.1206 20.9308 26.4904C20.7575 26.6754 20.8846 27.103 20.9193 27.311C20.9771 27.7387 21.0926 28.1663 21.2313 28.5708C21.3238 28.7789 21.659 28.698 21.5781 28.4784V28.4784Z" fill="black"/>
<path d="M25.4845 26.8603C25.5885 26.6754 25.6925 26.4905 25.8081 26.3055C25.8543 26.2246 25.9005 26.1553 25.9352 26.0744C26.0046 25.9588 26.0046 25.8548 26.1432 25.8894C26.3051 25.9241 26.2473 26.3055 26.2473 26.4442C26.2473 26.6638 26.2588 26.8834 26.2588 27.103C26.2588 27.3226 26.6056 27.3226 26.6056 27.103C26.6056 26.7447 26.6171 26.3864 26.594 26.0281C26.5824 25.797 26.5015 25.5427 26.2473 25.4618C26.0161 25.3925 25.8543 25.5427 25.7387 25.7161C25.5422 26.0281 25.3689 26.3633 25.184 26.6754C25.0684 26.8834 25.3689 27.0568 25.4845 26.8603V26.8603Z" fill="black"/>
<path d="M36.5569 34.419C36.6263 35.2974 37.6087 35.5863 38.2906 35.1587C39.2961 34.5346 39.5157 33.1245 39.3886 32.0612C39.2152 30.6049 38.8685 29.2527 39.3655 27.808C39.8393 26.4326 41.0182 25.3115 42.5092 25.219C42.7288 25.2075 42.7288 24.8607 42.5092 24.8723C40.475 24.9994 39.0881 26.7331 38.7991 28.6517C38.6258 29.7959 38.88 30.8592 39.0303 31.9803C39.1227 32.72 39.0765 33.425 38.7413 34.1069C38.5911 34.3959 38.3831 34.6848 38.1057 34.8698C37.678 35.1356 36.9383 35.0547 36.8921 34.4306C36.8921 34.1994 36.5454 34.1879 36.5569 34.419V34.419Z" fill="black"/>
<path d="M36.7417 35.0432C37.1 36.0025 38.3483 35.5748 38.8915 35.0201C39.7814 34.1186 39.585 32.616 39.5156 31.4718C39.5041 31.2522 39.1573 31.2522 39.1689 31.4718C39.2151 32.2 39.2845 32.9859 39.1573 33.714C39.0995 34.0608 38.9724 34.3844 38.7412 34.6618C38.487 34.9738 37.3774 35.7598 37.0769 34.9507C36.996 34.7427 36.6608 34.8351 36.7417 35.0432V35.0432Z" fill="black"/>
<path d="M42.5208 24.8608C41.2032 25.3693 39.8741 26.0859 39.3424 27.4728C38.7299 29.0678 39.1691 30.8015 39.1344 32.4542C39.1344 32.6738 39.4811 32.6738 39.4811 32.4542C39.5158 31.0095 39.1691 29.5301 39.5158 28.0969C39.8972 26.5251 41.2032 25.7392 42.6133 25.1959C42.8213 25.115 42.7289 24.7799 42.5208 24.8608V24.8608Z" fill="black"/>
<path d="M42.2549 25.0572C41.0413 25.612 39.9318 26.5828 39.3655 27.8195C39.065 28.4667 39.1112 29.1833 39.1112 29.8883C39.1112 30.7898 39.1459 31.7029 39.2152 32.6044C39.2268 32.824 39.5735 32.824 39.562 32.6044C39.5157 31.8763 39.4811 31.1597 39.4695 30.4316C39.4579 29.6687 39.3539 28.7672 39.6429 28.0507C40.1398 26.8371 41.2609 25.9009 42.4283 25.3577C42.6363 25.2652 42.463 24.9647 42.2549 25.0572V25.0572Z" fill="black"/>
<path d="M22.0403 29.2412C22.364 29.8075 23.1846 29.611 23.2655 28.9869C23.277 28.8713 23.1037 28.8829 23.0921 28.9869C23.0343 29.4608 22.4333 29.5532 22.1906 29.1603C22.1328 29.0562 21.9826 29.1487 22.0403 29.2412V29.2412Z" fill="white"/>
<path d="M24.4905 28.7904C24.8488 29.403 25.7619 29.1603 25.7734 28.4553C25.7734 28.3397 25.6001 28.3397 25.6001 28.4553C25.5885 28.9985 24.9182 29.1719 24.6408 28.7095C24.583 28.6055 24.4327 28.6864 24.4905 28.7904V28.7904Z" fill="white"/>
<path d="M23.7971 29.5532C23.878 29.8883 23.8087 30.2235 23.6006 30.5009C23.5313 30.5934 23.6815 30.6743 23.7509 30.5934C23.982 30.2813 24.0514 29.8883 23.9705 29.5069C23.9358 29.4029 23.7624 29.4491 23.7971 29.5532V29.5532Z" fill="white"/>
<path d="M23.8668 29.5416C23.8321 29.9808 24.0748 30.3969 24.4794 30.5818C24.5834 30.6281 24.6643 30.4778 24.5718 30.4316C24.2251 30.2698 24.0055 29.923 24.0402 29.5416C24.0402 29.4261 23.8668 29.4261 23.8668 29.5416V29.5416Z" fill="white"/>
<path d="M21.0463 30.5703C22.0634 30.4894 22.7106 31.3215 23.3925 31.9341C23.4734 32.0034 23.6005 31.8879 23.5196 31.807C22.8031 31.1597 22.1096 30.316 21.0463 30.3854C20.9423 30.3969 20.9423 30.5703 21.0463 30.5703V30.5703Z" fill="white"/>
<path d="M22.9418 32.6045C24.2478 31.7723 25.7966 31.4949 27.3106 31.8301C27.4147 31.8532 27.4609 31.6914 27.3569 31.6683C25.7966 31.3331 24.2016 31.6105 22.8609 32.4658C22.7569 32.512 22.8493 32.6623 22.9418 32.6045V32.6045Z" fill="white"/>
<path d="M26.2245 34.1878C27.2994 34.2572 28.3165 33.922 29.1371 33.217C29.218 33.1476 29.1024 33.0205 29.0099 33.0898C28.224 33.7602 27.2531 34.0838 26.2245 34.0145C26.1205 34.0145 26.1205 34.1878 26.2245 34.1878V34.1878Z" fill="white"/>
<path d="M25.9124 25.9819C25.6582 26.4095 25.6004 26.9065 25.7506 27.3804C25.7853 27.4844 25.9471 27.4382 25.9124 27.3341C25.7738 26.9065 25.82 26.4557 26.0511 26.0743C26.1205 25.9703 25.9702 25.8779 25.9124 25.9819V25.9819Z" fill="white"/>
<path d="M21.3353 27.0567C21.6127 27.2301 21.786 27.4959 21.8554 27.808C21.8785 27.912 22.0403 27.8658 22.0172 27.7618C21.9363 27.4035 21.7282 27.103 21.4162 26.9065C21.3237 26.8487 21.2428 26.999 21.3353 27.0567V27.0567Z" fill="white"/>
<path d="M27.4495 28.906C27.6691 29.1718 27.9234 29.403 28.2123 29.5763C28.3048 29.6341 28.3972 29.4839 28.3048 29.4261C28.0274 29.2527 27.7731 29.0331 27.5766 28.7788C27.4957 28.6979 27.3801 28.8251 27.4495 28.906V28.906Z" fill="white"/>
<path d="M34.5806 34.5809C34.3379 33.9683 33.1706 34.3844 32.7892 34.6271C32.1073 35.0779 31.8068 35.9216 32.061 36.696C32.0957 36.8 32.2575 36.7538 32.2229 36.6497C32.0264 36.0372 32.1882 35.3784 32.6736 34.9276C32.8816 34.7312 33.159 34.5925 33.4364 34.5231C33.6329 34.4653 34.3033 34.3382 34.4073 34.6156C34.4535 34.7312 34.6153 34.6849 34.5806 34.5809V34.5809Z" fill="white"/>
<path d="M32.1996 36.7075C31.2981 36.3261 30.3388 36.2914 29.4026 36.5803C29.2986 36.615 29.3448 36.7768 29.4489 36.7421C30.3619 36.4532 31.275 36.4994 32.1534 36.8693C32.2574 36.9155 32.3036 36.7421 32.1996 36.7075V36.7075Z" fill="white"/>
<path d="M63.9488 84.7762C63.4749 85.9089 63.4749 86.7526 63.4056 88.9255C63.3247 91.6069 63.0935 94.2767 63.0704 96.9466C63.0473 99.2003 63.0126 102.61 62.9202 107.048C66.6187 107.256 70.7101 107.302 75.1483 107.083C79.3784 106.875 83.285 106.447 86.8101 105.915C85.1458 100.287 84.0478 96.1837 83.2618 93.0054C82.8458 91.3064 82.2332 88.7637 80.5458 85.7933C79.6211 84.1637 78.6618 82.9385 77.9568 82.1179C77.7719 81.9561 73.692 78.5235 68.9764 80.1416C68.7453 80.234 65.3126 81.4823 63.9488 84.7762Z" fill="#EC615B"/>
<path d="M70.7564 91.5144C71.5308 92.8897 72.3052 94.2651 73.068 95.6405C73.172 95.837 73.4725 95.6636 73.3685 95.4671C72.5941 94.0918 71.8197 92.7164 71.0569 91.341C70.9529 91.1445 70.6524 91.3179 70.7564 91.5144V91.5144Z" fill="#C64F4F"/>
<path d="M70.6639 91.4451C72.4438 93.6642 73.4725 96.1953 74.0272 98.9692C74.5473 101.593 74.8825 104.251 75.079 106.921C75.0905 107.141 75.4373 107.141 75.4257 106.921C75.2177 104.182 74.8709 101.443 74.3393 98.7496C73.7845 95.9642 72.6981 93.4215 70.9182 91.2024C70.7795 91.0174 70.5252 91.2717 70.6639 91.4451V91.4451Z" fill="#C64F4F"/>
<path opacity="0.19" d="M73.4495 79.8757C73.854 80.6848 74.4319 81.8752 75.0791 83.3084C76.963 87.4923 78.9163 91.9074 79.9565 97.3395C80.3841 99.5355 80.7886 102.714 80.6153 106.678C81.5861 106.632 82.6148 106.551 83.6896 106.435C84.7645 106.32 85.7932 106.181 86.764 106.019C86.4635 105.002 85.9781 103.384 85.4349 101.385C83.9208 95.7908 83.7128 94.0456 82.4183 90.3586C81.459 87.6194 80.569 85.7586 79.2861 83.9787C78.1304 82.3722 77.0439 81.3667 75.6686 80.6617C74.8133 80.2225 74.0158 80.0029 73.4495 79.8757Z" fill="#3F3F3F"/>
<path opacity="0.11" d="M70.687 91.5721C71.1378 93.2596 71.5307 95.2706 71.7157 97.536C72.0393 101.454 71.6232 104.794 71.1146 107.291C72.4438 107.21 73.7614 107.129 75.0905 107.048C74.9518 104.424 74.6513 102.217 74.3624 100.541C73.6342 96.2762 72.8714 94.6927 72.2589 93.6757C71.681 92.7395 71.1031 92.0345 70.687 91.5721Z" fill="#3F3F3F"/>
<path d="M55.8813 65.0818C55.4999 65.3361 55.2688 65.8215 54.818 66.7808C54.4482 67.5667 54.2748 68.1793 53.9974 69.0923C53.2346 71.6813 53.3155 71.2421 53.0497 72.2245C52.7029 73.5305 52.0788 75.819 51.7321 78.8355C51.3969 81.7596 51.4663 84.0134 51.4778 84.5566C51.605 87.9893 52.206 90.5436 52.6105 92.1848C53.3271 95.132 54.2864 97.5822 56.1934 102.471C56.6095 103.523 56.9562 104.39 57.1989 104.991C57.0256 105.014 56.7482 105.049 56.413 105.095C54.6678 105.303 54.4251 105.257 53.72 105.407C52.8185 105.603 52.0095 105.8 51.6974 106.482C51.5587 106.794 51.5009 107.233 51.6743 107.383C51.8939 107.568 52.3215 107.152 53.0612 106.909C53.6854 106.713 54.2401 106.724 54.6215 106.782C54.321 107.372 54.1477 107.903 54.0436 108.285C53.7894 109.163 53.5929 109.88 53.9165 110.388C54.0783 110.643 54.3904 110.874 54.6447 110.804C54.7833 110.77 54.9105 110.643 55.2572 109.729C55.5924 108.816 55.6155 108.527 55.8929 108.169C56.1356 107.869 56.413 107.707 56.5979 107.614C56.5055 107.903 56.4014 108.331 56.3552 108.851C56.3321 109.163 56.2974 109.452 56.3552 109.822C56.4014 110.157 56.5055 110.874 57.0371 111.267C57.1296 111.336 57.511 111.625 57.7421 111.475C57.9386 111.359 57.8808 111.035 57.9617 109.995C58.0311 109.117 58.1004 108.874 58.1582 108.735C58.3085 108.331 58.5396 108.042 58.713 107.869C58.6552 108.701 58.6668 109.394 58.6899 109.903C58.7361 110.723 58.817 111.093 59.0828 111.324C59.2331 111.452 59.4874 111.579 59.6954 111.486C59.9034 111.394 59.9728 111.105 60.0306 110.747C60.2848 109.394 60.1346 109.001 60.4235 108.319C60.5391 108.054 60.6662 107.73 60.9783 107.499C61.6371 107.013 62.5733 107.302 62.7004 107.337C63.2552 107.51 63.4632 107.811 63.7406 107.684C63.9718 107.58 64.0989 107.245 64.1105 106.967C64.122 106.285 63.3708 105.765 62.7235 105.337C62.3999 105.118 61.9145 104.829 61.2673 104.598C60.7009 103.477 59.9843 101.847 59.3949 99.7782C59.0019 98.3913 58.817 97.328 58.6436 96.3224C58.0311 92.7973 58.2507 91.4451 57.5688 87.9431C57.407 87.0993 57.2451 86.429 57.1527 86.0476C57.1989 85.4697 57.2798 84.5682 57.3954 83.4702C57.7768 79.8873 58.0311 77.6451 58.8054 75.0099C59.418 72.9411 60.0421 71.2421 60.0421 71.2421C60.8281 69.127 61.0823 68.8381 60.9899 68.1562C60.6662 66.0064 57.3029 64.1341 55.8813 65.0818Z" fill="white"/>
<path d="M54.9915 66.1798C52.9342 70.93 51.6398 76.0039 51.3624 81.1817C51.0734 86.4636 51.9865 91.63 53.6971 96.6229C54.6679 99.4777 55.8468 102.252 57.0488 105.025C57.1413 105.233 57.4302 105.049 57.3493 104.852C55.2689 100.044 53.2347 95.1666 52.2639 90.0119C51.3046 84.9265 51.5011 79.6677 52.6106 74.6169C53.2347 71.7853 54.1363 69.023 55.292 66.3647C55.3729 66.1567 55.084 65.9717 54.9915 66.1798V66.1798Z" fill="#161616"/>
<path d="M59.3027 72.7792C57.8464 77.1827 57.0836 81.7943 57.0027 86.4289C57.0027 86.6485 57.3494 86.6485 57.3494 86.4289C57.4303 81.8174 58.1931 77.2521 59.6379 72.8717C59.7072 72.6636 59.372 72.5712 59.3027 72.7792V72.7792Z" fill="#161616"/>
<path d="M55.789 84.3254C56.8177 85.7586 57.2337 87.4692 57.4765 89.1797C57.7307 90.9249 57.8463 92.6933 58.1006 94.4385C58.6091 97.9867 59.4413 101.523 61.1171 104.702C61.2212 104.898 61.5217 104.725 61.4177 104.528C59.6724 101.223 58.8518 97.536 58.3664 93.8606C57.9388 90.636 58.0659 86.9028 56.0895 84.1521C55.9624 83.9787 55.6619 84.1521 55.789 84.3254V84.3254Z" fill="#161616"/>
<path d="M57.0027 104.864C55.9278 104.921 54.853 105.025 53.8012 105.222C53.0499 105.372 52.2525 105.615 51.7324 106.216C51.4319 106.574 51.0505 107.43 51.7092 107.672C51.9982 107.776 52.2525 107.58 52.4952 107.441C53.0962 107.094 53.7203 106.736 54.4369 106.933C54.6565 106.99 54.7489 106.655 54.5293 106.597C53.9399 106.436 53.4082 106.574 52.8766 106.84C52.7148 106.921 52.5645 107.002 52.4143 107.094C52.3218 107.141 52.2409 107.198 52.1484 107.256C52.0444 107.071 51.9288 106.886 51.8248 106.701C51.8479 106.412 52.4258 106.077 52.6339 105.962C53.2002 105.661 53.859 105.557 54.4831 105.465C55.3268 105.338 56.1705 105.257 57.0143 105.21C57.2339 105.199 57.2339 104.852 57.0027 104.864V104.864Z" fill="#161616"/>
<path d="M56.0548 105.892C55.1417 106.043 54.3905 106.667 54.0438 107.51C53.6739 108.389 53.3619 109.695 53.7895 110.596C54.1131 111.278 54.9106 111.521 55.2111 110.689C55.396 110.169 55.3613 109.602 55.5463 109.082C55.7774 108.435 56.1704 107.88 56.7483 107.499C56.9332 107.372 56.7598 107.071 56.5749 107.198C56.0317 107.557 55.6272 108.042 55.3613 108.631C55.2227 108.932 55.1186 109.244 55.0493 109.568C54.9915 109.833 54.9568 111.174 54.3211 110.781C53.9629 110.562 53.9282 109.857 53.9397 109.498C53.9629 108.967 54.1016 108.354 54.2749 107.846C54.5639 106.99 55.2458 106.378 56.1357 106.227C56.3669 106.193 56.2744 105.858 56.0548 105.892V105.892Z" fill="#161616"/>
<path d="M57.1412 106.748C56.4247 107.21 56.1704 108.215 56.101 109.024C56.0317 109.891 56.2744 110.827 56.9216 111.44C57.303 111.798 57.8925 111.983 57.9965 111.313C58.1699 110.192 57.7191 108.608 58.9442 107.938C59.1407 107.834 58.9674 107.533 58.7709 107.637C58.3317 107.88 58.0543 108.273 57.8809 108.747C57.6382 109.44 57.7769 110.145 57.6729 110.862C57.6267 111.186 57.5342 111.532 57.1759 111.197C57.0488 111.082 56.9332 110.931 56.8407 110.781C56.6211 110.434 56.494 110.041 56.4593 109.637C56.3784 108.828 56.5865 107.533 57.3262 107.048C57.4995 106.921 57.3262 106.62 57.1412 106.748V106.748Z" fill="#161616"/>
<path d="M58.7827 107.672C58.5631 108.504 58.3551 109.371 58.4938 110.238C58.5515 110.654 58.7943 111.671 59.3259 111.775C59.9269 111.891 60.1696 110.827 60.2274 110.434C60.3546 109.579 60.1927 108.551 60.8631 107.892C61.0249 107.73 60.7822 107.487 60.6204 107.649C59.8113 108.446 60.0887 109.602 59.846 110.619C59.7651 110.989 59.5339 111.544 59.1525 111.116C58.9445 110.897 58.8867 110.469 58.8405 110.18C58.7249 109.371 58.9214 108.562 59.1294 107.776C59.1757 107.557 58.8405 107.464 58.7827 107.672V107.672Z" fill="#161616"/>
<path d="M61.279 104.898C61.9609 105.176 62.666 105.476 63.1976 106.008C63.4403 106.251 63.7408 106.62 63.8102 106.967C63.9835 107.926 63.267 107.314 63.0011 107.198C62.273 106.875 60.8283 107.106 60.4122 107.846C60.3082 108.042 60.6087 108.215 60.7127 108.019C60.9323 107.614 61.5333 107.51 61.9494 107.453C62.2036 107.418 62.4926 107.395 62.7353 107.464C63.0127 107.545 63.1861 107.788 63.4519 107.869C63.8333 107.984 64.1222 107.718 64.18 107.349C64.284 106.748 63.7639 106.077 63.3594 105.684C62.7931 105.141 62.065 104.841 61.3484 104.552C61.1634 104.482 61.0825 104.817 61.279 104.898V104.898Z" fill="#161616"/>
<path opacity="0.13" d="M58.9445 69.0461C57.6153 69.127 56.8178 72.525 56.3786 74.4089C55.8817 76.524 55.4309 79.4365 55.5234 83.6782C55.6043 87.4692 56.0897 90.3586 56.2515 91.3642C56.9796 95.6868 58.1239 99.3159 59.245 102.159C59.6148 103.199 59.9731 104.24 60.3429 105.268C60.1349 106.123 59.9269 107.002 59.7304 107.915C59.4761 109.117 59.245 110.296 59.06 111.428C59.2796 111.452 59.5801 111.44 59.7882 111.232C60.054 110.966 60.0193 110.538 60.0309 110.169C60.0424 109.822 60.0771 108.146 60.8284 107.522C61.2907 107.141 62.0304 107.141 62.5389 107.325C63.059 107.522 63.2902 107.903 63.6369 107.788C63.9027 107.707 64.0877 107.383 64.1223 107.129C64.2379 106.285 62.6198 105.418 62.354 105.28C61.8339 105.002 61.5912 104.968 61.256 104.621C60.8399 104.182 60.7012 103.662 60.6435 103.43C59.6842 99.7782 59.2103 100.009 58.5631 95.8139C58.0776 92.6471 58.3897 92.832 57.8927 90.3124C57.546 88.5325 57.257 87.8044 57.1646 86.2672C57.0605 84.5797 57.257 83.2622 57.4651 82.0948C58.3319 77.3215 59.9962 71.5426 60.4007 70.1672C60.0309 69.5893 59.5223 69.0114 58.9445 69.0461Z" fill="#3F3F3F"/>
<path d="M82.534 21.5323C82.1757 21.5207 81.8983 22.168 81.829 22.3413C81.7249 22.5956 81.5631 23.0926 81.6787 23.7976C81.6787 23.7976 81.7481 24.2831 81.9792 27.2187C82.037 27.8775 82.0486 28.8368 81.8752 30.0388C81.4129 31.3102 80.9737 32.3041 80.6732 32.9514C79.6561 35.1242 78.9742 35.9911 77.5526 38.7418C77.0209 39.7705 76.9747 39.9323 76.3506 41.2036C74.7903 44.3589 73.6461 46.3353 72.4787 48.4503C71.4501 50.2996 70.0054 53.0157 68.3064 56.5061C68.2255 56.8066 67.8209 58.4131 68.7571 59.8232C69.7511 61.3141 71.8315 61.9845 73.8425 61.3373C74.1546 60.8981 74.5938 60.2161 74.9983 59.3262C75.3913 58.4594 75.5762 57.789 75.7033 57.3614C75.8305 56.9337 76.339 55.489 77.3677 52.5765C77.6913 51.675 78.0842 50.6001 78.8817 48.4966C80.0953 45.272 80.6963 43.6654 81.1008 42.6599C82.0139 40.3715 82.7074 38.788 84.0712 35.7137C84.7878 34.0956 85.6661 32.1423 86.6832 29.9232C87.2727 29.5881 88.0817 29.068 88.9485 28.3167C90.1968 27.2418 90.8209 26.3288 92.0229 24.5951C92.7973 23.4624 93.3867 22.4685 93.2249 21.4745C93.2018 21.3358 93.144 20.9313 92.9244 20.8735C92.647 20.7926 92.3003 21.3474 91.9189 21.8328C91.5259 22.3298 90.9365 22.977 90.0581 23.6474C90.3586 22.8152 90.6591 22.168 90.8671 21.7403C91.341 20.7695 91.734 20.1454 91.9767 19.0705C92.2425 17.9263 91.9998 17.7182 91.9305 17.6604C91.6184 17.4293 91.0867 17.8685 90.7747 17.6142C90.4973 17.3715 90.74 16.8398 90.5204 16.7127C90.3008 16.5856 89.8154 16.967 89.4686 17.3715C88.8676 18.065 88.729 18.7353 88.5094 19.3826C88.3013 20.0182 87.9199 20.8851 87.2033 21.8444C87.03 21.8675 86.7988 21.879 86.6948 21.7403C86.5792 21.5785 86.741 21.3127 86.8913 20.8851C86.9259 20.781 86.9028 20.8388 87.1455 19.7755C87.238 19.371 87.4114 18.6197 87.5501 18.0187C87.7465 17.1519 87.839 16.7936 87.6541 16.4122C87.6194 16.3313 87.4692 16.0192 87.2496 16.0077C86.9953 15.9961 86.7988 16.4007 86.6486 16.7127C86.036 17.9725 85.7239 18.6082 85.643 18.8278C85.2385 19.9258 84.6953 21.6016 84.6144 22.1795C84.6028 22.2489 84.5797 22.4916 84.4641 22.8037C84.4063 22.9539 84.3717 23.0117 84.337 23.1042C84.0481 23.7514 84.2908 24.179 83.9903 24.4102C83.9556 24.4333 83.7822 24.5604 83.6435 24.5142C83.4933 24.468 83.4239 24.2715 83.343 23.6127C83.2275 22.7112 83.2968 22.4454 83.0888 22.0524C82.9501 21.879 82.7767 21.5439 82.534 21.5323Z" fill="white"/>
<path d="M81.9791 26.8833C82.06 26.0396 81.9328 25.219 81.8866 24.3753C81.8635 23.9708 81.8635 23.5547 81.9213 23.1502C81.956 22.919 82.0022 22.6879 82.0715 22.4683C82.1871 22.1331 82.1987 21.8557 82.5685 21.8441C82.9153 21.8326 82.8921 22.0406 82.9499 22.3296C83.0077 22.5838 83.0193 22.8497 83.0308 23.1039C83.0539 23.4622 83.0655 23.8321 83.1464 24.1788C83.2273 24.5371 83.4469 24.8376 83.8514 24.7105C84.0595 24.6411 83.9786 24.3059 83.759 24.3753C83.3544 24.4909 83.3891 23.1271 83.366 22.8959C83.3313 22.5261 83.2967 22.1446 83.158 21.7979C82.9615 21.3125 82.5107 21.0698 82.1293 21.5205C81.6323 22.0984 81.5283 23.1386 81.5283 23.8552C81.5283 24.8723 81.7248 25.8662 81.6323 26.8833C81.6208 27.1029 81.9675 27.1029 81.9791 26.8833V26.8833Z" fill="#161616"/>
<path d="M83.99 24.5718C84.5679 23.4507 84.7413 22.1793 85.0765 20.9773C85.4348 19.6829 85.8855 18.4115 86.5559 17.2557C86.7061 17.0015 86.8564 16.6432 87.076 16.4467C87.5036 16.0537 87.5036 16.805 87.4689 17.1286C87.3996 17.8452 87.2147 18.5733 87.0528 19.2783C86.9026 19.9256 86.6946 20.5497 86.5443 21.1969C86.4634 21.5552 86.4634 21.8673 86.7177 22.1447C86.8679 22.3065 87.1106 22.0638 86.9604 21.902C86.6714 21.5899 86.9719 20.9658 87.0644 20.6306C87.1684 20.2492 87.2724 19.8678 87.3533 19.4864C87.5152 18.7814 87.677 18.0648 87.781 17.3366C87.8388 16.9552 87.9197 16.2849 87.5845 15.9959C87.2956 15.7532 87.0066 15.9844 86.8101 16.2155C85.9664 17.2673 85.4463 18.6542 85.0302 19.9256C84.5564 21.3934 84.4061 23.0346 83.6895 24.41C83.5855 24.5949 83.886 24.7683 83.99 24.5718V24.5718Z" fill="#161616"/>
<path d="M86.7985 22.1794C87.1453 22.214 87.2724 21.9598 87.4342 21.6824C87.6885 21.2432 87.9196 20.7809 88.1392 20.3301C88.5669 19.4517 88.8674 18.4924 89.3875 17.6718C89.5031 17.4869 89.6417 17.2558 89.8267 17.1171C89.9769 16.9437 90.1734 16.8859 90.4277 16.9668C90.4623 17.1286 90.4855 17.2904 90.4855 17.4522C90.497 18.0186 90.3121 18.5849 90.1156 19.1166C89.7227 20.1683 89.2835 21.2085 88.8558 22.2603C88.7749 22.4683 89.1101 22.5608 89.191 22.3527C89.4337 21.7517 91.9302 16.4814 90.3005 16.4467C89.9769 16.4352 89.6071 16.8397 89.4221 17.0593C89.0985 17.4407 88.8674 17.8799 88.6593 18.3306C88.4166 18.8738 88.197 19.4171 87.9428 19.9487C87.7925 20.2723 87.6191 20.6075 87.4573 20.9196C87.3533 21.1276 87.099 21.8442 86.8101 21.8211C86.5789 21.8095 86.5789 22.1563 86.7985 22.1794V22.1794Z" fill="#161616"/>
<path d="M90.8902 17.9261C91.0173 17.2558 91.7455 17.7181 91.8379 18.1457C91.9188 18.504 91.7801 18.8623 91.6646 19.1975C91.4912 19.706 91.2947 20.203 91.0867 20.6884C90.6822 21.6361 90.2083 22.5377 89.6766 23.4276C89.5611 23.6241 89.8616 23.7974 89.9771 23.601C90.4741 22.7804 90.9133 21.9251 91.3063 21.0583C91.6415 20.307 92.046 19.4748 92.1731 18.6542C92.254 18.1341 92.1038 17.4638 91.5259 17.2789C91.0982 17.1402 90.6359 17.406 90.555 17.8452C90.5203 18.0532 90.8555 18.1457 90.8902 17.9261V17.9261Z" fill="#161616"/>
<path d="M90.2197 23.7397C90.6589 23.2427 91.0865 22.7457 91.5257 22.2487C91.7568 21.9829 91.9649 21.6939 92.2192 21.4628C92.3001 21.3934 92.381 21.3356 92.4503 21.2663C92.6468 21.3356 92.8433 21.405 93.0513 21.4743C93.1091 21.5783 92.9704 21.8789 92.9357 21.9713C92.5774 23.0693 92.0573 24.1095 91.4448 25.0804C90.2081 27.0336 88.5091 28.6748 86.5212 29.8653C86.3247 29.9808 86.5096 30.2813 86.6945 30.1658C89.1679 28.6864 91.2021 26.5135 92.485 23.9361C92.797 23.312 93.0975 22.6532 93.294 21.9829C93.4096 21.5899 93.479 21.0582 93.0282 20.8502C92.589 20.6422 92.1267 21.0467 91.8493 21.3356C91.1905 22.0175 90.5895 22.7804 89.9654 23.4969C89.8267 23.6587 90.0694 23.9015 90.2197 23.7397V23.7397Z" fill="#161616"/>
<path d="M81.6784 26.525C81.7594 27.5884 81.8403 28.6748 81.6669 29.7381C81.4935 30.7899 81.0543 31.7607 80.5689 32.7085C79.5865 34.627 78.5579 36.5225 77.5523 38.4296C75.5413 42.2436 73.5302 46.0461 71.5192 49.8602C70.3634 52.0446 69.2076 54.2406 68.0518 56.425C67.9478 56.6215 68.2483 56.7948 68.3523 56.5984C72.5016 48.7275 76.7317 40.8914 80.8116 32.9743C81.297 32.0381 81.7478 31.0788 81.9443 30.0502C82.1754 28.8828 82.0945 27.7039 82.0021 26.525C82.0136 26.3055 81.6669 26.3055 81.6784 26.525V26.525Z" fill="#161616"/>
<path d="M86.4981 29.7844C82.7996 37.5974 79.5749 45.5954 76.7317 53.7552C75.8996 56.1245 75.0674 58.4939 74.0619 60.7939C73.9694 61.0019 74.2699 61.1753 74.3624 60.9672C76.0845 57.0491 77.3443 52.9461 78.8237 48.9471C80.3378 44.8326 81.979 40.7527 83.7242 36.7306C84.7182 34.4537 85.7352 32.1999 86.7986 29.9577C86.891 29.7613 86.5905 29.5879 86.4981 29.7844V29.7844Z" fill="#161616"/>
<path opacity="0.1" d="M91.7221 17.7874C91.2483 17.718 90.6126 19.6598 90.2427 20.6306C89.1216 23.6125 88.1739 23.9592 85.7699 28.0045C84.8799 29.4954 83.6548 31.7376 82.4181 34.6617C78.7196 42.4517 75.0327 50.2532 71.3342 58.0431C72.2357 59.1411 73.1257 60.2506 74.0272 61.3486C74.4779 60.0657 75.1367 58.1818 75.9573 55.9049C77.4483 51.8019 79.3784 46.52 82.1061 40.0939C83.1925 37.5512 84.695 34.1185 86.6252 30.0849C87.1568 29.7497 87.8965 29.2296 88.7056 28.513C89.792 27.5653 91.2251 26.2824 92.2076 24.1904C92.5196 23.5432 92.9126 22.5492 93.1206 21.2432C92.9704 21.1738 92.7508 21.0929 92.5081 21.1391C92.092 21.22 91.8724 21.6246 91.699 21.902C91.0287 22.9306 90.0463 23.6125 89.9191 23.5316C89.8498 23.4738 90.0463 23.1386 90.5779 22.0522C91.6643 19.8216 91.2136 20.411 91.6412 19.6598C91.8839 19.2321 92.1267 18.8623 92.0457 18.3884C92.0457 18.1804 91.9186 17.8221 91.7221 17.7874Z" fill="#3F3F3F"/>
<path opacity="0.13" d="M91.0173 25.6698C90.4394 26.0396 89.6188 26.5829 88.6826 27.2994C87.6077 28.1085 86.4519 28.9869 85.4811 30.0964C84.1635 31.5989 83.5856 33.0899 83.2389 33.9567C80.0605 42.0703 76.2811 50.8773 75.2062 53.3275C74.6168 54.6682 73.6922 56.6908 72.467 59.118C73.0218 59.8461 73.5881 60.5743 74.1429 61.3024C75.7379 56.4366 77.5756 51.3396 79.6791 46.0577C81.9444 40.3828 84.2906 35.0778 86.6484 30.1427C87.2841 29.715 88.0007 29.1718 88.7288 28.4668C89.7575 27.4844 90.4972 26.4904 91.0173 25.6698Z" fill="#3F3F3F"/>
<path d="M60.2851 59.1295C59.8574 59.4185 58.8981 60.0888 57.9157 61.1752C56.8987 62.2963 56.3092 63.3481 55.8238 64.2381C55.4424 64.92 55.165 65.521 54.9685 65.9602C55.269 66.538 55.7544 67.428 56.4248 68.4913C57.6152 70.3752 58.5399 71.3923 60.1348 73.438C60.8052 74.2933 61.776 75.5762 62.9318 77.1943C63.1167 78.0611 63.2785 78.9742 63.4172 79.9335C63.6946 81.8983 63.7986 83.7244 63.7986 85.3657C64.2263 85.828 64.966 86.4983 66.0524 86.9722C67.8554 87.7697 69.4966 87.5385 70.3519 87.3998C72.2474 87.1109 73.5418 86.2672 74.4318 85.6777C76.0499 84.6144 77.1479 83.343 77.876 82.2913C77.7258 80.4883 77.5293 78.6275 77.2866 76.6973C77.0785 75.0561 76.8474 73.4612 76.5931 71.9124C76.57 70.6988 76.4544 69.0461 76.0614 67.1275C75.7378 65.521 75.3449 63.6486 74.1775 61.4295C72.7212 58.6672 70.9067 56.9913 70.2016 56.3788C69.5775 55.8356 69.0112 55.431 68.5951 55.1421C66.9077 56.217 65.4514 56.8873 64.4574 57.2918C62.6082 58.0546 61.7414 58.1702 60.2851 59.1295Z" fill="white"/>
<path d="M55.1535 66.0064C55.5118 64.6426 56.5058 63.3712 57.3611 62.2617C58.2626 61.1059 59.2797 60.0541 60.4932 59.2104C60.6781 59.0833 60.5048 58.7828 60.3199 58.9099C59.0716 59.7768 58.0199 60.8516 57.0952 62.0421C56.2053 63.1863 55.1998 64.4808 54.8299 65.9024C54.7721 66.1335 55.1073 66.2144 55.1535 66.0064V66.0064Z" fill="#161616"/>
<path d="M54.899 66.122C57.2799 70.2828 60.1 74.1893 63.3015 77.7607C63.4518 77.9225 63.6945 77.6797 63.5443 77.5179C60.3659 73.9697 57.5689 70.0863 55.1995 65.9486C55.084 65.7521 54.7835 65.9255 54.899 66.122V66.122Z" fill="#161616"/>
<path d="M64.677 57.4536C65.9715 56.5406 67.3931 55.8587 68.9071 55.4195C69.1267 55.3617 69.0343 55.0265 68.8147 55.0843C67.2659 55.5351 65.8212 56.2285 64.5036 57.1531C64.3187 57.2803 64.4921 57.5808 64.677 57.4536V57.4536Z" fill="#161616"/>
<path d="M68.6182 55.512C74.1428 59.3607 76.5122 66.1105 76.2463 72.6406C76.2348 72.8602 76.5815 72.8602 76.5931 72.6406C76.8704 65.9718 74.4202 59.1296 68.7916 55.2115C68.6182 55.0844 68.4448 55.3849 68.6182 55.512V55.512Z" fill="#161616"/>
<path d="M62.5502 77.0788C63.1512 78.3155 63.2206 79.8527 63.3477 81.1934C63.4864 82.5572 63.5326 83.9326 63.5326 85.3079C63.5326 85.5275 63.8794 85.5275 63.8794 85.3079C63.8909 83.7823 63.8216 82.2567 63.6482 80.7426C63.5095 79.4597 63.417 78.0728 62.8507 76.8939C62.7467 76.6974 62.4578 76.8708 62.5502 77.0788V77.0788Z" fill="#161616"/>
<path d="M63.7525 85.3772C65.4861 87.5039 68.4449 88.1049 71.0223 87.4461C72.4555 87.0762 73.7846 86.3712 74.975 85.4928C76.1655 84.6144 77.2982 83.5973 77.9685 82.2566C78.0725 82.0601 77.772 81.8868 77.668 82.0833C77.0208 83.3662 75.9343 84.3486 74.7901 85.1923C73.6806 86.0129 72.4439 86.6832 71.1032 87.0647C68.5836 87.7697 65.6826 87.2265 63.9836 85.1345C63.8565 84.9611 63.6138 85.2039 63.7525 85.3772V85.3772Z" fill="#161616"/>
<path d="M76.3734 72.1205C76.9397 75.5069 77.4945 78.8933 77.6909 82.3144C77.7025 82.534 78.0492 82.534 78.0377 82.3144C77.8296 78.8587 77.2749 75.4376 76.7085 72.028C76.6739 71.8084 76.3387 71.9009 76.3734 72.1205V72.1205Z" fill="#161616"/>
<path opacity="0.13" d="M65.1162 56.9914C66.3991 58.5055 68.1559 60.8632 69.6237 64.0532C71.7735 68.7225 72.2011 72.7562 72.5247 76.1888C72.779 78.8009 72.9177 82.4416 72.4092 86.7873C73.3916 86.3597 74.7785 85.62 76.1192 84.3371C76.8589 83.6205 77.4137 82.9039 77.8298 82.2798C77.4483 79.0552 77.0669 75.819 76.6855 72.5944C76.7549 69.9361 76.3388 67.7863 75.9458 66.3301C74.7323 61.8225 72.3976 58.9215 71.6117 58.0085C70.5368 56.7487 69.485 55.824 68.7107 55.2115C67.5087 55.8125 66.3182 56.4019 65.1162 56.9914Z" fill="#3F3F3F"/>
<path opacity="0.14" d="M73.7271 61.0366C73.519 61.0944 74.0044 62.9783 74.4667 65.7637C74.4667 65.7637 75.1718 69.9938 75.322 74.0853C75.426 76.7898 75.2874 80.7426 74.0738 85.6546C74.6286 85.3772 75.3105 84.9727 76.0155 84.4064C76.8708 83.7129 77.4833 82.9848 77.8994 82.4069C77.7492 77.7491 77.3562 75.3335 76.9863 73.9697C76.917 73.7039 76.7321 73.0798 76.5818 72.2014C76.3044 70.5602 76.4431 69.8551 76.2929 68.4913C76.1773 67.4049 75.9577 66.6883 75.5532 65.3592C74.9406 63.3597 73.9582 60.9672 73.7271 61.0366Z" fill="#3F3F3F"/>
<path d="M60.1235 40.117C59.3607 40.5447 58.3898 41.1919 57.4536 42.1743C55.5119 44.2431 54.8878 46.5547 54.6682 47.6989C54.4948 47.6758 54.021 47.6411 53.6396 47.9416C53.0732 48.3808 53.0617 49.2477 53.2813 49.7562C53.3622 49.9411 53.4777 50.0914 53.7205 50.3919C54.0094 50.7502 54.1943 50.9698 54.4948 51.0969C54.622 51.1547 54.9109 51.2356 55.327 51.1431C55.4541 51.5245 55.6622 52.0562 55.9742 52.6688C56.3787 53.4547 56.9913 54.622 58.2164 55.6391C58.5747 55.9396 59.1295 56.3326 59.8807 56.6909C60.1581 57.0491 60.6667 57.8004 60.7245 58.8175C60.84 60.6089 59.534 62.0999 58.2973 62.7587C56.1476 63.9029 53.8129 62.7587 52.9576 62.331C52.4953 62.0999 50.1722 60.8979 49.2014 58.2627C48.0225 55.0843 49.5597 51.9059 50.4727 50.0105C51.3973 48.1034 51.825 48.2306 52.53 46.3698C53.4662 43.908 52.9692 43.0411 54.0441 41.1572C54.4602 40.4175 55.3039 38.9381 57.0722 38.2447C58.5863 37.6552 59.9848 37.9557 60.5858 38.1291C61.0828 37.8286 61.9611 37.4009 63.0707 37.4009C65.7059 37.4009 67.3933 39.8974 67.7978 40.4984C68.9998 42.2668 68.3642 42.81 69.439 45.2949C70.7913 48.4271 72.1089 48.2421 73.3224 51.1778C73.9119 52.611 74.8943 54.9803 73.8079 57.2456C72.6868 59.5803 70.1325 60.2622 69.8089 60.3431C69.2194 60.4934 67.636 60.8863 66.0526 60.0426C65.9023 59.9617 63.9144 58.8753 63.7526 57.0145C63.6948 56.3326 63.8913 55.6969 63.9375 55.5582C64.1802 54.8069 64.5963 54.3215 64.7235 54.1597C65.2204 53.5471 65.8214 52.4145 66.2375 50.1607C66.434 50.1492 66.7576 50.1029 67.0812 49.918C67.7631 49.525 68.0868 48.7276 68.0521 48.0341C68.0405 47.8723 67.9943 46.9477 67.324 46.6356C67.0466 46.5085 66.7576 46.5431 66.5958 46.5778C64.4461 44.4049 62.2848 42.2668 60.1235 40.117Z" fill="#5222D0"/>
<path d="M60.1233 40.1054C58.8404 40.8567 57.9504 41.6888 57.3841 42.3014C55.5002 44.3471 54.8992 46.4853 54.772 46.9823C54.6911 47.2943 54.6333 47.5486 54.6102 47.7335C54.4831 47.6873 54.1941 47.6064 53.9052 47.7335C53.466 47.93 53.3735 48.4617 53.3273 48.7275C53.2117 49.3401 53.4429 49.8255 53.5354 50.0104C53.6625 50.2762 53.8705 50.7039 54.3675 50.9235C54.772 51.1084 55.1534 51.0391 55.3153 51.0044C55.4771 51.4205 55.7082 51.9984 56.0665 52.6571C56.6097 53.6973 57.1183 54.6566 58.1007 55.5119C58.4821 55.8471 59.1062 56.3094 60.0077 56.6677C60.1926 56.9566 60.4469 57.4074 60.5856 57.9968C60.7012 58.4591 60.7243 58.8521 60.7127 59.1526C61.0132 59.3029 61.5796 59.534 62.2846 59.5225C63.6368 59.4993 64.5268 58.6556 64.7348 58.4476C64.5152 57.7888 64.3188 56.9797 64.2378 56.0436C64.2032 55.6159 64.1916 55.2114 64.1916 54.8416C64.5499 54.4602 64.9891 53.9169 65.3474 53.1888C65.9831 51.929 66.0871 50.7617 66.0987 50.0798C66.2605 50.1029 66.5841 50.1375 66.9308 49.9989C67.4162 49.8024 67.6358 49.3747 67.763 49.132C67.7976 49.0742 68.2831 48.0803 67.8439 47.0979C67.7399 46.8783 67.5665 46.4737 67.2198 46.4391C66.9655 46.4159 66.7574 46.6124 66.6765 46.6933C66.2027 46.127 65.3127 45.0752 64.0645 43.6305C62.9896 42.3707 62.3077 41.5848 61.1635 40.7758C60.7474 40.4753 60.3776 40.2557 60.1233 40.1054Z" fill="white"/>
<path d="M58.5284 52.3683C58.4128 52.6341 58.956 53.108 59.2103 53.3044C59.7419 53.6974 60.3083 53.7552 60.5163 53.7667C60.759 53.7899 61.5565 53.8477 62.2846 53.3276C62.458 53.2004 62.9434 52.8652 63.1284 52.2411C63.2555 51.7904 63.2208 51.1662 62.9781 51.0622C62.7932 50.9929 62.6198 51.224 62.2269 51.5014C61.5334 51.9753 60.8168 52.0909 60.2042 52.1833C59.164 52.3451 58.6439 52.1371 58.5284 52.3683Z" fill="black"/>
<path d="M54.8646 49.6984C55.2807 51.4321 55.951 53.1311 57.0606 54.5411C58.043 55.8009 59.4992 57.0145 61.1982 56.8527C62.7701 56.7024 64.053 55.4773 64.8852 54.2291C65.8676 52.7728 66.3414 51.0276 66.2952 49.2708C66.2837 49.0512 65.9369 49.0512 65.9485 49.2708C65.9947 50.8773 65.5786 52.4492 64.7349 53.813C63.9374 55.0959 62.6198 56.4482 61.0133 56.5175C59.3143 56.5868 57.9158 55.1999 57.0143 53.9054C56.1128 52.611 55.5581 51.12 55.1882 49.5944C55.142 49.3864 54.8068 49.4788 54.8646 49.6984V49.6984Z" fill="#161616"/>
<path d="M59.7765 56.6909C60.2619 57.4306 60.5046 58.2396 60.5046 59.1296C60.5046 59.3492 60.8514 59.3492 60.8514 59.1296C60.8514 58.1934 60.5855 57.3035 60.077 56.5175C59.9614 56.321 59.6609 56.4944 59.7765 56.6909V56.6909Z" fill="#161616"/>
<path d="M60.6665 59.2683C62.0766 60.0773 63.9027 59.6844 64.862 58.3899C65.0007 58.2165 64.7002 58.0432 64.5615 58.2165C63.7062 59.3607 62.065 59.6844 60.8399 58.9678C60.6434 58.8638 60.47 59.1643 60.6665 59.2683V59.2683Z" fill="#161616"/>
<path d="M63.9949 55.1421C64.0064 56.1939 64.1682 57.2341 64.5034 58.2396C64.5728 58.4476 64.9079 58.3552 64.8386 58.1471C64.5265 57.1647 64.3532 56.1708 64.3416 55.1421C64.3416 54.911 63.9949 54.911 63.9949 55.1421V55.1421Z" fill="#161616"/>
<path d="M55.2111 50.7963C55.0608 50.9582 54.691 50.9004 54.5176 50.8079C54.3789 50.7386 54.2518 50.6345 54.1478 50.5305C53.9166 50.3109 53.7317 50.0451 53.6161 49.7561C53.385 49.2129 53.2809 47.6526 54.3096 47.93C54.5292 47.9878 54.6216 47.6526 54.4021 47.5948C53.1307 47.2597 52.9342 48.9471 53.2578 49.7908C53.5121 50.4727 54.6794 51.8828 55.4654 51.0391C55.6041 50.8772 55.3613 50.6345 55.2111 50.7963V50.7963Z" fill="#161616"/>
<path d="M66.8267 46.7512C66.9654 46.2889 67.5664 47.1788 67.6357 47.3406C67.7744 47.7105 67.8207 48.115 67.7629 48.508C67.6704 49.2939 67.0463 50.0451 66.1795 49.8255C65.9599 49.7678 65.8674 50.1029 66.087 50.1607C67.4855 50.519 68.2367 49.0627 68.1096 47.8723C68.0518 47.3522 67.8438 46.6818 67.3468 46.4044C67.0232 46.2311 66.6071 46.2773 66.4915 46.6472C66.4222 46.8783 66.7573 46.9592 66.8267 46.7512V46.7512Z" fill="#161616"/>
<path d="M56.4478 44.3008C56.8292 43.5727 57.4996 43.0988 58.3086 42.9833C58.5282 42.9486 58.4357 42.6134 58.2161 42.6481C57.3262 42.7752 56.5634 43.33 56.1473 44.1275C56.0433 44.324 56.3438 44.4973 56.4478 44.3008V44.3008Z" fill="#161616"/>
<path d="M61.7876 42.521C62.7585 42.2898 63.7293 42.7752 64.1685 43.6536C64.2725 43.8501 64.5615 43.6767 64.469 43.4802C63.9605 42.4516 62.8047 41.9199 61.6951 42.1858C61.4755 42.2436 61.568 42.5787 61.7876 42.521V42.521Z" fill="#161616"/>
<path d="M59.2679 43.9426C59.4875 45.1677 59.5453 46.4275 59.4181 47.6758C59.3719 48.0572 59.187 48.6004 59.3604 48.9818C59.5453 49.3979 60.0423 49.7562 60.3543 50.0798C60.5046 50.2416 60.7588 49.9989 60.597 49.8371C60.389 49.6175 60.181 49.4094 59.9729 49.1898C59.6493 48.8547 59.6146 48.7507 59.684 48.2652C59.7418 47.826 59.7996 47.3753 59.8227 46.9245C59.8689 45.8959 59.788 44.8672 59.6031 43.8617C59.5684 43.6306 59.2332 43.723 59.2679 43.9426V43.9426Z" fill="#161616"/>
<path d="M57.8116 46.913C57.6382 46.6356 57.5573 46.3351 57.5805 46.0115C57.5805 45.9421 57.6267 45.6416 57.6845 45.6301C57.7192 45.6301 57.7769 46.0346 57.7885 46.0808C57.8116 46.2311 57.8232 46.3929 57.8232 46.5431C57.8232 46.5894 57.8116 46.9708 57.8116 46.7396C57.8001 46.4044 57.8232 46.0693 57.8347 45.7341C57.7192 45.7457 57.6036 45.7688 57.4996 45.7803C57.5573 46.1386 57.592 46.4969 57.592 46.8668C57.7076 46.8668 57.8232 46.8668 57.9387 46.8668C57.9387 46.8205 57.9387 46.7743 57.9387 46.7281C57.9387 46.5085 57.592 46.5085 57.592 46.7281C57.592 46.7743 57.592 46.8205 57.592 46.8668C57.592 47.0864 57.9387 47.0864 57.9387 46.8668C57.9387 46.4738 57.9041 46.0808 57.8347 45.6879C57.8001 45.4914 57.4996 45.5492 57.4996 45.7341C57.488 46.1039 57.4418 46.5085 57.488 46.8783C57.5111 47.0517 57.592 47.2135 57.7885 47.2482C58.3664 47.3637 58.193 46.2311 58.1468 45.9537C58.1121 45.7341 58.0774 45.3989 57.8694 45.2718C57.696 45.1678 57.5111 45.2718 57.4071 45.4336C57.1181 45.919 57.28 46.6356 57.5458 47.0748C57.6267 47.2713 57.9272 47.0979 57.8116 46.913V46.913Z" fill="#161616"/>
<path d="M63.1515 46.3004C62.9781 46.023 62.8972 45.7225 62.9203 45.3989C62.9203 45.3295 62.9665 45.029 63.0243 45.0175C63.059 45.0175 63.1168 45.422 63.1283 45.4682C63.1515 45.6185 63.163 45.7803 63.163 45.9305C63.163 45.9768 63.1515 46.3582 63.1515 46.127C63.1399 45.7918 63.163 45.4567 63.1746 45.1215C63.059 45.133 62.9434 45.1562 62.8394 45.1677C62.8972 45.526 62.9319 45.8843 62.9319 46.2541C63.0474 46.2541 63.163 46.2541 63.2786 46.2541C63.2786 46.2079 63.2786 46.1617 63.2786 46.1155C63.2786 45.8959 62.9319 45.8959 62.9319 46.1155C62.9319 46.1617 62.9319 46.2079 62.9319 46.2541C62.9319 46.4737 63.2786 46.4737 63.2786 46.2541C63.2786 45.8612 63.2439 45.4682 63.1746 45.0753C63.1399 44.8788 62.8394 44.9366 62.8394 45.1215C62.8278 45.4913 62.7816 45.8959 62.8278 46.2657C62.851 46.4391 62.9319 46.6009 63.1283 46.6356C63.7062 46.7511 63.5329 45.6185 63.4866 45.3411C63.452 45.1215 63.4173 44.7863 63.2092 44.6592C63.0359 44.5552 62.851 44.6592 62.7469 44.821C62.458 45.3064 62.6198 46.023 62.8856 46.4622C62.9665 46.6702 63.267 46.4969 63.1515 46.3004V46.3004Z" fill="#161616"/>
<path d="M56.1015 47.9769C56.3215 47.9769 56.3215 47.6295 56.1015 47.6295C55.8815 47.6295 55.8815 47.9769 56.1015 47.9769V47.9769Z" fill="#161616"/>
<path d="M57.4654 48.2312C57.477 48.2312 57.4886 48.2312 57.5118 48.2312C57.6044 48.2312 57.6855 48.1501 57.6855 48.0575C57.6855 47.9648 57.6044 47.8838 57.5118 47.8838C57.5002 47.8838 57.4886 47.8838 57.4654 47.8838C57.3728 47.8838 57.2917 47.9648 57.2917 48.0575C57.2917 48.1501 57.3612 48.2312 57.4654 48.2312V48.2312Z" fill="#161616"/>
<path d="M56.6562 49.2945C56.8762 49.2945 56.8762 48.9471 56.6562 48.9471C56.4362 48.9471 56.4246 49.2945 56.6562 49.2945V49.2945Z" fill="#161616"/>
<path d="M63.2213 47.8036C63.2329 47.8036 63.2445 47.8036 63.2676 47.8036C63.3603 47.8036 63.4413 47.7225 63.4413 47.6299C63.4413 47.5372 63.3603 47.4562 63.2676 47.4562C63.256 47.4562 63.2445 47.4562 63.2213 47.4562C63.1287 47.4562 63.0476 47.5372 63.0476 47.6299C63.0476 47.7225 63.1171 47.8036 63.2213 47.8036V47.8036Z" fill="#161616"/>
<path d="M64.4926 46.9483C64.7127 46.9483 64.7127 46.6009 64.4926 46.6009C64.2726 46.6009 64.2726 46.9483 64.4926 46.9483V46.9483Z" fill="#161616"/>
<path d="M64.319 47.8844C64.3305 47.8844 64.3421 47.8844 64.3653 47.8844C64.4579 47.8844 64.539 47.8034 64.539 47.7107C64.539 47.6181 64.4579 47.537 64.3653 47.537C64.3537 47.537 64.3421 47.537 64.319 47.537C64.2263 47.537 64.1453 47.6181 64.1453 47.7107C64.1568 47.8034 64.2263 47.8844 64.319 47.8844V47.8844Z" fill="#161616"/>
<path d="M58.8172 52.6341C58.6322 52.3682 58.3317 51.9868 58.4589 51.6401C58.6091 51.2471 59.083 51.3049 59.395 51.3512C59.7765 51.4089 60.0885 51.4783 60.4584 51.3627C60.7589 51.2703 61.0247 51.0738 61.3021 50.9235C61.9609 50.5537 62.7352 50.519 62.9433 51.3858C63.5327 53.7552 59.3488 54.4255 58.7016 52.3451C58.6322 52.1371 58.2971 52.218 58.3664 52.4376C59.1639 54.9919 64.1106 54.0441 63.2438 51.2125C63.0935 50.7386 62.7352 50.3341 62.2267 50.2763C61.3945 50.1954 60.8513 51.0275 60.0538 51.0853C59.4644 51.1316 58.7478 50.6808 58.2739 51.2356C57.8463 51.7326 58.193 52.3682 58.5051 52.8074C58.6438 52.9924 58.9443 52.819 58.8172 52.6341V52.6341Z" fill="#161616"/>
<path d="M58.147 51.9752C58.4013 52.6803 59.6726 52.4607 60.2274 52.3798C61.2907 52.218 62.2616 51.7556 63.0822 51.0737C63.2555 50.935 63.0128 50.6808 62.8395 50.831C62.2385 51.3396 61.545 51.7094 60.7822 51.9174C60.447 52.0099 58.6787 52.4029 58.4937 51.8943C58.4013 51.6747 58.0661 51.7672 58.147 51.9752V51.9752Z" fill="#161616"/>
<path d="M60.2042 57.0491C61.5564 57.3959 63.3594 56.5406 64.1223 55.4195C64.2494 55.2346 63.9489 55.0612 63.8218 55.2461C63.1514 56.2285 61.4755 57.0145 60.2966 56.7139C60.077 56.6562 59.9846 56.9913 60.2042 57.0491V57.0491Z" fill="#161616"/>
<path d="M60.3313 57.1531C61.5333 57.9044 63.5097 56.8411 64.0876 55.6969C64.1916 55.5004 63.8911 55.327 63.7871 55.5235C63.3017 56.4944 61.5333 57.4999 60.5047 56.8642C60.3082 56.7371 60.1348 57.0376 60.3313 57.1531V57.1531Z" fill="#161616"/>
<path opacity="0.2" d="M65.1279 44.9019C65.2088 45.3179 65.3128 45.9767 65.3822 46.7742C65.544 48.9008 65.8214 52.4606 63.6716 54.83C63.2093 55.3385 62.2269 56.24 60.4124 56.7486C60.9902 56.7255 61.6953 56.6561 62.4581 56.4596C62.8395 56.3672 63.1862 56.2516 63.4983 56.1244C63.5445 57.1531 63.5792 58.1817 63.6254 59.2104C64.0184 58.9561 64.3998 58.7134 64.7927 58.4591C64.2611 57.2802 64.2611 56.3672 64.3304 55.7893C64.4345 54.9802 64.735 54.3214 65.0355 53.6626C65.3013 53.0848 65.5787 52.6224 65.7983 52.2988C65.8214 52.5415 65.8792 52.7958 66.041 53.0385C66.746 54.0903 68.9535 54.1943 70.3405 53.2928C71.6234 52.4606 72.2475 50.7732 71.9239 49.0395C72.1435 49.2245 72.3746 49.4441 72.5942 49.7099C72.7676 49.9179 73.2184 50.5189 73.8425 52.634C74.039 53.2928 74.1314 53.628 74.1892 53.9631C74.2586 54.4255 74.3857 55.3038 74.143 56.2978C73.7269 58.0084 72.4902 58.9908 72.1204 59.2682C71.8545 59.4646 71.0455 60.0541 69.8319 60.3315C69.254 60.4586 67.5204 60.8747 65.8907 59.927C65.2782 59.5687 64.943 59.3028 64.7581 58.9792C64.5616 58.6209 64.5385 58.2858 64.5154 58.0315C64.4113 56.4481 64.3651 55.6506 64.4691 55.1074C64.7812 53.5355 65.4862 53.3737 65.8792 51.5822C66.0179 50.935 66.0525 50.3918 66.0641 50.0451C66.2144 50.0682 66.4455 50.0913 66.7229 50.0219C67.3008 49.8717 67.5897 49.3978 67.6937 49.2245C68.1098 48.5657 68.2948 47.3868 67.6475 46.8436C67.5551 46.7627 67.2314 46.5199 66.6073 46.5662C66.1334 46.0114 65.6365 45.4566 65.1279 44.9019Z" fill="#3F3F3F"/>
<path opacity="0.13" d="M59.6494 48.6467C60.2389 48.82 60.8399 49.005 61.4293 49.1783C61.2791 49.317 61.1288 49.4442 60.967 49.5828C60.8167 49.71 60.6781 49.814 60.5278 49.9296C60.3429 49.7909 60.0771 49.5482 59.869 49.1783C59.7534 48.9818 59.6841 48.7969 59.6494 48.6467Z" fill="#3F3F3F"/>
<path opacity="0.16" d="M50.38 50.0914C49.1202 54.5411 50.0564 58.1356 51.9403 58.9215C53.4197 59.5341 56.0895 58.6673 56.5865 57.1532C56.6559 56.9567 56.7252 56.61 56.4594 55.5467C56.2282 54.6105 55.7544 53.2004 54.691 51.5939C54.5061 51.4783 54.2634 51.2934 54.0322 51.016C53.6277 50.519 53.5121 49.9874 53.4775 49.7331C53.8126 50.0798 54.2981 50.519 54.6101 50.3803C54.9106 50.2416 55.0956 49.8256 54.9915 49.4095C55.0956 49.9411 55.2574 50.6693 55.5579 51.513C55.9508 52.6341 56.3438 53.7205 57.2569 54.7492C57.6729 55.223 58.4935 55.9974 59.8805 56.5522C60.1116 56.8411 60.5393 57.4652 60.678 58.3783C60.7011 58.517 60.782 59.1527 60.5739 59.9502C60.5277 60.1351 60.2503 61.1406 59.3373 62.0075C58.2739 63.0245 57.0026 63.2095 56.5865 63.2672C53.4544 63.6833 51.0272 60.9441 50.5996 60.4703C50.172 59.9848 49.4669 59.1758 49.0624 57.9276C48.4152 55.9396 48.9122 54.1482 49.2704 52.8421C49.6056 51.617 50.0564 50.6924 50.38 50.0914Z" fill="#3F3F3F"/>
</svg>
