<svg width="954" height="845" viewBox="0 0 954 845" fill="none" xmlns="http://www.w3.org/2000/svg">
<path d="M255.292 234.6C377.492 206.3 503.292 200.1 628.292 198.9C663.692 198.5 699.092 198.6 734.492 198.6C736.392 198.6 736.392 195.6 734.492 195.6C609.092 195.4 483.092 195.3 358.592 212.6C323.592 217.5 288.892 223.7 254.492 231.7C252.592 232.2 253.392 235.1 255.292 234.6V234.6Z" fill="#161616"/>
<path d="M58.092 93.1C56.792 94.1 57.792 98 59.592 104.7C60.292 107.3 60.992 109.3 61.392 110.6C60.592 116 59.892 121.4 59.092 126.8C57.492 127 53.392 127.9 49.592 131.2C46.092 134.3 44.692 137.9 44.192 139.5C47.392 139.8 51.292 140.5 55.492 141.8C61.592 143.7 66.392 146.3 69.892 148.5C69.892 149.7 70.092 152 71.692 153.7C73.092 155.1 74.792 155.3 75.792 155.5C79.392 156.1 83.692 156.9 89.192 158.1C91.592 159.5 95.592 161.8 100.492 164.5C117.092 173.5 123.092 175 139.692 183.8C150.392 189.5 149.492 189.7 156.992 193.3C168.492 198.9 178.392 202.2 185.092 204.1C187.892 201 192.392 195 194.892 186.3C196.892 179.4 196.792 173.4 196.392 169.5C198.092 170.4 200.792 171.4 203.892 171C211.892 170.1 216.992 161 218.592 154.5C219.992 148.8 218.692 145.2 217.592 138.5C215.092 123.5 212.892 110.1 219.092 101.6C224.292 94.5 234.992 91.2 243.592 81.7C244.392 80.8 245.892 79.1 245.392 78.3C244.492 76.8 237.492 79.4 234.092 80.9C231.892 81.9 215.392 89.5 210.392 106.7C209.592 109.4 209.492 117.2 209.392 132.7C209.292 144 209.492 150.4 204.992 154.1C202.692 156 199.292 157.1 196.192 156.4C191.592 155.4 189.392 150.9 187.392 147.9C182.192 140 174.792 136.7 165.692 132.2C158.592 128.7 152.492 127.4 140.192 124.7C128.592 122.2 125.092 122.5 120.092 118.8C114.492 114.6 111.392 108.7 109.792 105.4C108.192 102.3 105.692 97.4 104.592 90.4C103.992 86.3 104.092 83.4 103.092 83.2C101.292 82.8 100.392 91.1 94.292 94C90.592 95.8 88.192 94.1 81.692 94.3C77.492 94.4 72.692 95.3 67.292 97.7C65.492 96.4 59.892 91.8 58.092 93.1Z" fill="black"/>
<path d="M61.092 126C58.992 109.5 73.992 94.5 90.592 96.2C106.292 97.8 116.692 116.9 116.192 131.2C116.092 133.1 119.092 133.1 119.192 131.2C119.692 115.4 107.892 94.6 90.592 93.2C72.392 91.7 55.792 107.8 58.092 126C58.392 127.8 61.392 127.9 61.092 126V126Z" fill="black"/>
<path d="M60.792 136.4C66.892 148.3 79.992 156.7 93.692 154.9C106.192 153.2 116.792 143.1 118.692 130.6C118.992 128.7 116.092 127.9 115.792 129.8C114.092 141.2 104.692 150.4 93.292 151.9C80.792 153.6 68.992 145.8 63.392 134.9C62.492 133.2 59.892 134.7 60.792 136.4V136.4Z" fill="black"/>
<path d="M71.592 150.9C71.292 147.1 82.092 145.5 84.792 144.9C89.692 143.8 94.692 143.2 99.692 143.2C108.992 143.2 117.892 145.6 125.792 150.5C127.392 151.5 128.992 148.9 127.292 147.9C117.092 141.6 105.192 139.4 93.392 140.5C87.192 141.1 81.092 142.4 75.192 144.4C71.992 145.5 68.192 146.9 68.492 150.9C68.692 152.8 71.792 152.8 71.592 150.9V150.9Z" fill="black"/>
<path d="M114.592 116.3C120.892 123.9 131.092 125.7 140.192 127.7C152.292 130.5 164.792 133 175.392 139.7C197.292 153.5 201.392 183.6 184.092 202.9C182.792 204.3 184.892 206.5 186.192 205C201.592 187.9 201.992 161.7 186.092 144.7C177.692 135.7 165.692 131 153.992 127.9C142.092 124.8 124.992 124.3 116.592 114.1C115.492 112.7 113.392 114.8 114.592 116.3V116.3Z" fill="black"/>
<path d="M184.592 168.6C179.592 162 170.792 159.7 163.092 162.9C153.592 166.8 153.092 178.5 154.192 187.4C154.392 189.3 157.392 189.3 157.192 187.4C156.292 180.4 156.192 169.6 163.392 166.1C169.592 163 177.692 164.6 181.892 170.2C183.092 171.7 185.692 170.2 184.592 168.6V168.6Z" fill="black"/>
<path d="M156.792 186C151.292 181.8 145.592 178.2 138.492 180.1C137.692 180.3 137.292 181.2 137.492 181.9C139.292 188.9 150.292 191.8 156.092 194.3C164.992 198.2 174.092 201.5 183.292 204.4C185.092 205 185.892 202.1 184.092 201.5C176.692 199.2 169.492 196.7 162.292 193.7C158.392 192.1 154.592 190.4 150.792 188.6C147.392 187 141.292 185.1 140.292 181.1C139.992 181.7 139.592 182.3 139.292 182.9C145.492 181.2 150.592 184.9 155.192 188.5C156.792 189.8 158.292 187.2 156.792 186V186Z" fill="black"/>
<path d="M68.892 150.6C72.792 157 80.692 158.1 87.592 159.1C97.792 160.6 107.992 160.6 118.192 159.5C120.092 159.3 120.092 156.3 118.192 156.5C109.992 157.4 101.792 157.6 93.592 156.8C86.692 156.1 75.592 155.7 71.392 149.1C70.492 147.4 67.892 148.9 68.892 150.6V150.6Z" fill="black"/>
<path d="M45.592 140.4C46.892 133.4 52.992 129.8 59.792 129.5C59.292 129.1 58.792 128.8 58.392 128.4C58.892 130.8 59.592 133.1 60.592 135.3C61.292 137.1 64.192 136.3 63.492 134.5C62.592 132.2 61.892 130 61.292 127.6C61.192 127 60.492 126.5 59.892 126.5C51.892 126.9 44.292 131.3 42.792 139.6C42.392 141.5 45.292 142.3 45.592 140.4V140.4Z" fill="black"/>
<path d="M62.992 109.4C61.492 105.1 60.392 100.6 59.992 96C59.992 95.6 59.892 95.2 59.892 94.8C59.792 93.9 59.892 94 60.292 95.1C61.192 95.7 62.092 96.4 62.992 97.1C64.492 98.4 65.892 99.8 67.092 101.3C68.392 102.8 70.492 100.6 69.192 99.2C67.492 97.2 60.392 89 57.392 92.2C55.892 93.8 56.992 97.5 57.292 99.3C57.792 103 58.792 106.7 59.992 110.2C60.792 112 63.692 111.3 62.992 109.4V109.4Z" fill="black"/>
<path d="M96.792 95.4C97.692 93.8 98.592 92.2 99.592 90.6C99.992 89.9 100.392 89.3 100.692 88.6C101.292 87.6 101.292 86.7 102.492 87C103.892 87.3 103.392 90.6 103.392 91.8C103.392 93.7 103.492 95.6 103.492 97.5C103.492 99.4 106.492 99.4 106.492 97.5C106.492 94.4 106.592 91.3 106.392 88.2C106.292 86.2 105.592 84 103.392 83.3C101.392 82.7 99.992 84 98.992 85.5C97.292 88.2 95.792 91.1 94.192 93.8C93.192 95.6 95.792 97.1 96.792 95.4V95.4Z" fill="black"/>
<path d="M192.592 160.8C193.192 168.4 201.692 170.9 207.592 167.2C216.292 161.8 218.192 149.6 217.092 140.4C215.592 127.8 212.592 116.1 216.892 103.6C220.992 91.7 231.192 82 244.092 81.2C245.992 81.1 245.992 78.1 244.092 78.2C226.492 79.3 214.492 94.3 211.992 110.9C210.492 120.8 212.692 130 213.992 139.7C214.792 146.1 214.392 152.2 211.492 158.1C210.192 160.6 208.392 163.1 205.992 164.7C202.292 167 195.892 166.3 195.492 160.9C195.492 158.9 192.492 158.8 192.592 160.8V160.8Z" fill="black"/>
<path d="M194.192 166.2C197.292 174.5 208.092 170.8 212.792 166C220.492 158.2 218.792 145.2 218.192 135.3C218.092 133.4 215.092 133.4 215.192 135.3C215.592 141.6 216.192 148.4 215.092 154.7C214.592 157.7 213.492 160.5 211.492 162.9C209.292 165.6 199.692 172.4 197.092 165.4C196.392 163.6 193.492 164.4 194.192 166.2V166.2Z" fill="black"/>
<path d="M244.192 78.1C232.792 82.5 221.292 88.7 216.692 100.7C211.392 114.5 215.192 129.5 214.892 143.8C214.892 145.7 217.892 145.7 217.892 143.8C218.192 131.3 215.192 118.5 218.192 106.1C221.492 92.5 232.792 85.7 244.992 81C246.792 80.3 245.992 77.4 244.192 78.1V78.1Z" fill="black"/>
<path d="M241.892 79.8C231.392 84.6 221.792 93 216.892 103.7C214.292 109.3 214.692 115.5 214.692 121.6C214.692 129.4 214.992 137.3 215.592 145.1C215.692 147 218.692 147 218.592 145.1C218.192 138.8 217.892 132.6 217.792 126.3C217.692 119.7 216.792 111.9 219.292 105.7C223.592 95.2 233.292 87.1 243.392 82.4C245.192 81.6 243.692 79 241.892 79.8V79.8Z" fill="black"/>
<path d="M66.992 116C69.792 120.9 76.892 119.2 77.592 113.8C77.692 112.8 76.192 112.9 76.092 113.8C75.592 117.9 70.392 118.7 68.292 115.3C67.792 114.4 66.492 115.2 66.992 116V116Z" fill="white"/>
<path d="M88.192 112.1C91.292 117.4 99.192 115.3 99.292 109.2C99.292 108.2 97.792 108.2 97.792 109.2C97.692 113.9 91.892 115.4 89.492 111.4C88.992 110.5 87.692 111.2 88.192 112.1V112.1Z" fill="white"/>
<path d="M82.192 118.7C82.892 121.6 82.292 124.5 80.492 126.9C79.892 127.7 81.192 128.4 81.792 127.7C83.792 125 84.392 121.6 83.692 118.3C83.392 117.4 81.892 117.8 82.192 118.7V118.7Z" fill="white"/>
<path d="M82.792 118.6C82.492 122.4 84.592 126 88.092 127.6C88.992 128 89.692 126.7 88.892 126.3C85.892 124.9 83.992 121.9 84.292 118.6C84.292 117.6 82.792 117.6 82.792 118.6V118.6Z" fill="white"/>
<path d="M58.392 127.5C67.192 126.8 72.792 134 78.692 139.3C79.392 139.9 80.492 138.9 79.792 138.2C73.592 132.6 67.592 125.3 58.392 125.9C57.492 126 57.492 127.5 58.392 127.5V127.5Z" fill="white"/>
<path d="M74.792 145.1C86.092 137.9 99.492 135.5 112.592 138.4C113.492 138.6 113.892 137.2 112.992 137C99.492 134.1 85.692 136.5 74.092 143.9C73.192 144.3 73.992 145.6 74.792 145.1V145.1Z" fill="white"/>
<path d="M103.192 158.8C112.492 159.4 121.292 156.5 128.392 150.4C129.092 149.8 128.092 148.7 127.292 149.3C120.492 155.1 112.092 157.9 103.192 157.3C102.292 157.3 102.292 158.8 103.192 158.8V158.8Z" fill="white"/>
<path d="M100.492 87.8C98.292 91.5 97.792 95.8 99.092 99.9C99.392 100.8 100.792 100.4 100.492 99.5C99.292 95.8 99.692 91.9 101.692 88.6C102.292 87.7 100.992 86.9 100.492 87.8V87.8Z" fill="white"/>
<path d="M60.892 97.1C63.292 98.6 64.792 100.9 65.392 103.6C65.592 104.5 66.992 104.1 66.792 103.2C66.092 100.1 64.292 97.5 61.592 95.8C60.792 95.3 60.092 96.6 60.892 97.1V97.1Z" fill="white"/>
<path d="M113.792 113.1C115.692 115.4 117.892 117.4 120.392 118.9C121.192 119.4 121.992 118.1 121.192 117.6C118.792 116.1 116.592 114.2 114.892 112C114.192 111.3 113.192 112.4 113.792 113.1V113.1Z" fill="white"/>
<path d="M175.492 162.2C173.392 156.9 163.292 160.5 159.992 162.6C154.092 166.5 151.492 173.8 153.692 180.5C153.992 181.4 155.392 181 155.092 180.1C153.392 174.8 154.792 169.1 158.992 165.2C160.792 163.5 163.192 162.3 165.592 161.7C167.292 161.2 173.092 160.1 173.992 162.5C174.392 163.5 175.792 163.1 175.492 162.2V162.2Z" fill="white"/>
<path d="M154.892 180.6C147.092 177.3 138.792 177 130.692 179.5C129.792 179.8 130.192 181.2 131.092 180.9C138.992 178.4 146.892 178.8 154.492 182C155.392 182.4 155.792 180.9 154.892 180.6V180.6Z" fill="white"/>
<path d="M429.592 596.5C425.492 606.3 425.492 613.6 424.892 632.4C424.192 655.6 422.192 678.7 421.992 701.8C421.792 721.3 421.492 750.8 420.692 789.2C452.692 791 488.092 791.4 526.492 789.5C563.092 787.7 596.892 784 627.392 779.4C612.992 730.7 603.492 695.2 596.692 667.7C593.092 653 587.792 631 573.192 605.3C565.192 591.2 556.892 580.6 550.792 573.5C549.192 572.1 513.892 542.4 473.092 556.4C471.092 557.2 441.392 568 429.592 596.5Z" fill="#5E5E5E"/>
<path d="M488.492 654.8C495.192 666.7 501.892 678.6 508.492 690.5C509.392 692.2 511.992 690.7 511.092 689C504.392 677.1 497.692 665.2 491.092 653.3C490.192 651.6 487.592 653.1 488.492 654.8V654.8Z" fill="#282828"/>
<path d="M487.692 654.2C503.092 673.4 511.992 695.3 516.792 719.3C521.292 742 524.192 765 525.892 788.1C525.992 790 528.992 790 528.892 788.1C527.092 764.4 524.092 740.7 519.492 717.4C514.692 693.3 505.292 671.3 489.892 652.1C488.692 650.5 486.492 652.7 487.692 654.2V654.2Z" fill="#282828"/>
<path opacity="0.19" d="M511.792 554.1C515.292 561.1 520.292 571.4 525.892 583.8C542.192 620 559.092 658.2 568.092 705.2C571.792 724.2 575.292 751.7 573.792 786C582.192 785.6 591.092 784.9 600.392 783.9C609.692 782.9 618.592 781.7 626.992 780.3C624.392 771.5 620.192 757.5 615.492 740.2C602.392 691.8 600.592 676.7 589.392 644.8C581.092 621.1 573.392 605 562.292 589.6C552.292 575.7 542.892 567 530.992 560.9C523.592 557.1 516.692 555.2 511.792 554.1Z" fill="#3F3F3F"/>
<path opacity="0.11" d="M487.892 655.3C491.792 669.9 495.192 687.3 496.792 706.9C499.592 740.8 495.992 769.7 491.592 791.3C503.092 790.6 514.492 789.9 525.992 789.2C524.792 766.5 522.192 747.4 519.692 732.9C513.392 696 506.792 682.3 501.492 673.5C496.492 665.4 491.492 659.3 487.892 655.3Z" fill="#3F3F3F"/>
<path d="M359.792 426.1C356.492 428.3 354.492 432.5 350.592 440.8C347.392 447.6 345.892 452.9 343.492 460.8C336.892 483.2 337.592 479.4 335.292 487.9C332.292 499.2 326.892 519 323.892 545.1C320.992 570.4 321.592 589.9 321.692 594.6C322.792 624.3 327.992 646.4 331.492 660.6C337.692 686.1 345.992 707.3 362.492 749.6C366.092 758.7 369.092 766.2 371.192 771.4C369.692 771.6 367.292 771.9 364.392 772.3C349.292 774.1 347.192 773.7 341.092 775C333.292 776.7 326.292 778.4 323.592 784.3C322.392 787 321.892 790.8 323.392 792.1C325.292 793.7 328.992 790.1 335.392 788C340.792 786.3 345.592 786.4 348.892 786.9C346.292 792 344.792 796.6 343.892 799.9C341.692 807.5 339.992 813.7 342.792 818.1C344.192 820.3 346.892 822.3 349.092 821.7C350.292 821.4 351.392 820.3 354.392 812.4C357.292 804.5 357.492 802 359.892 798.9C361.992 796.3 364.392 794.9 365.992 794.1C365.192 796.6 364.292 800.3 363.892 804.8C363.692 807.5 363.392 810 363.892 813.2C364.292 816.1 365.192 822.3 369.792 825.7C370.592 826.3 373.892 828.8 375.892 827.5C377.592 826.5 377.092 823.7 377.792 814.7C378.392 807.1 378.992 805 379.492 803.8C380.792 800.3 382.792 797.8 384.292 796.3C383.792 803.5 383.892 809.5 384.092 813.9C384.492 821 385.192 824.2 387.492 826.2C388.792 827.3 390.992 828.4 392.792 827.6C394.592 826.8 395.192 824.3 395.692 821.2C397.892 809.5 396.592 806.1 399.092 800.2C400.092 797.9 401.192 795.1 403.892 793.1C409.592 788.9 417.692 791.4 418.792 791.7C423.592 793.2 425.392 795.8 427.792 794.7C429.792 793.8 430.892 790.9 430.992 788.5C431.092 782.6 424.592 778.1 418.992 774.4C416.192 772.5 411.992 770 406.392 768C401.492 758.3 395.292 744.2 390.192 726.3C386.792 714.3 385.192 705.1 383.692 696.4C378.392 665.9 380.292 654.2 374.392 623.9C372.992 616.6 371.592 610.8 370.792 607.5C371.192 602.5 371.892 594.7 372.892 585.2C376.192 554.2 378.392 534.8 385.092 512C390.392 494.1 395.792 479.4 395.792 479.4C402.592 461.1 404.792 458.6 403.992 452.7C401.192 434.1 372.092 417.9 359.792 426.1Z" fill="white"/>
<path d="M352.092 435.6C334.292 476.7 323.092 520.6 320.692 565.4C318.192 611.1 326.092 655.8 340.892 699C349.292 723.7 359.492 747.7 369.892 771.7C370.692 773.5 373.192 771.9 372.492 770.2C354.492 728.6 336.892 686.4 328.492 641.8C320.192 597.8 321.892 552.3 331.492 508.6C336.892 484.1 344.692 460.2 354.692 437.2C355.392 435.4 352.892 433.8 352.092 435.6V435.6Z" fill="#161616"/>
<path d="M389.392 492.7C376.792 530.8 370.192 570.7 369.492 610.8C369.492 612.7 372.492 612.7 372.492 610.8C373.192 570.9 379.792 531.4 392.292 493.5C392.892 491.7 389.992 490.9 389.392 492.7V492.7Z" fill="#161616"/>
<path d="M358.992 592.6C367.892 605 371.492 619.8 373.592 634.6C375.792 649.7 376.792 665 378.992 680.1C383.392 710.8 390.592 741.4 405.092 768.9C405.992 770.6 408.592 769.1 407.692 767.4C392.592 738.8 385.492 706.9 381.292 675.1C377.592 647.2 378.692 614.9 361.592 591.1C360.492 589.6 357.892 591.1 358.992 592.6V592.6Z" fill="#161616"/>
<path d="M369.492 770.3C360.192 770.8 350.892 771.7 341.792 773.4C335.292 774.7 328.392 776.8 323.892 782C321.292 785.1 317.992 792.5 323.692 794.6C326.192 795.5 328.392 793.8 330.492 792.6C335.692 789.6 341.092 786.5 347.292 788.2C349.192 788.7 349.992 785.8 348.092 785.3C342.992 783.9 338.392 785.1 333.792 787.4C332.392 788.1 331.092 788.8 329.792 789.6C328.992 790 328.292 790.5 327.492 791C326.592 789.4 325.592 787.8 324.692 786.2C324.892 783.7 329.892 780.8 331.692 779.8C336.592 777.2 342.292 776.3 347.692 775.5C354.992 774.4 362.292 773.7 369.592 773.3C371.492 773.2 371.492 770.2 369.492 770.3V770.3Z" fill="#161616"/>
<path d="M361.292 779.2C353.392 780.5 346.892 785.9 343.892 793.2C340.692 800.8 337.992 812.1 341.692 819.9C344.492 825.8 351.392 827.9 353.992 820.7C355.592 816.2 355.292 811.3 356.892 806.8C358.892 801.2 362.292 796.4 367.292 793.1C368.892 792 367.392 789.4 365.792 790.5C361.092 793.6 357.592 797.8 355.292 802.9C354.092 805.5 353.192 808.2 352.592 811C352.092 813.3 351.792 824.9 346.292 821.5C343.192 819.6 342.892 813.5 342.992 810.4C343.192 805.8 344.392 800.5 345.892 796.1C348.392 788.7 354.292 783.4 361.992 782.1C363.992 781.8 363.192 778.9 361.292 779.2V779.2Z" fill="#161616"/>
<path d="M370.692 786.6C364.492 790.6 362.292 799.3 361.692 806.3C361.092 813.8 363.192 821.9 368.792 827.2C372.092 830.3 377.192 831.9 378.092 826.1C379.592 816.4 375.692 802.7 386.292 796.9C387.992 796 386.492 793.4 384.792 794.3C380.992 796.4 378.592 799.8 377.092 803.9C374.992 809.9 376.192 816 375.292 822.2C374.892 825 374.092 828 370.992 825.1C369.892 824.1 368.892 822.8 368.092 821.5C366.192 818.5 365.092 815.1 364.792 811.6C364.092 804.6 365.892 793.4 372.292 789.2C373.792 788.1 372.292 785.5 370.692 786.6V786.6Z" fill="#161616"/>
<path d="M384.892 794.6C382.992 801.8 381.192 809.3 382.392 816.8C382.892 820.4 384.992 829.2 389.592 830.1C394.792 831.1 396.892 821.9 397.392 818.5C398.492 811.1 397.092 802.2 402.892 796.5C404.292 795.1 402.192 793 400.792 794.4C393.792 801.3 396.192 811.3 394.092 820.1C393.392 823.3 391.392 828.1 388.092 824.4C386.292 822.5 385.792 818.8 385.392 816.3C384.392 809.3 386.092 802.3 387.892 795.5C388.292 793.6 385.392 792.8 384.892 794.6V794.6Z" fill="#161616"/>
<path d="M406.492 770.6C412.392 773 418.492 775.6 423.092 780.2C425.192 782.3 427.792 785.5 428.392 788.5C429.892 796.8 423.692 791.5 421.392 790.5C415.092 787.7 402.592 789.7 398.992 796.1C398.092 797.8 400.692 799.3 401.592 797.6C403.492 794.1 408.692 793.2 412.292 792.7C414.492 792.4 416.992 792.2 419.092 792.8C421.492 793.5 422.992 795.6 425.292 796.3C428.592 797.3 431.092 795 431.592 791.8C432.492 786.6 427.992 780.8 424.492 777.4C419.592 772.7 413.292 770.1 407.092 767.6C405.492 767 404.792 769.9 406.492 770.6V770.6Z" fill="#161616"/>
<path opacity="0.13" d="M386.292 460.4C374.792 461.1 367.892 490.5 364.092 506.8C359.792 525.1 355.892 550.3 356.692 587C357.392 619.8 361.592 644.8 362.992 653.5C369.292 690.9 379.192 722.3 388.892 746.9C392.092 755.9 395.192 764.9 398.392 773.8C396.592 781.2 394.792 788.8 393.092 796.7C390.892 807.1 388.892 817.3 387.292 827.1C389.192 827.3 391.792 827.2 393.592 825.4C395.892 823.1 395.592 819.4 395.692 816.2C395.792 813.2 396.092 798.7 402.592 793.3C406.592 790 412.992 790 417.392 791.6C421.892 793.3 423.892 796.6 426.892 795.6C429.192 794.9 430.792 792.1 431.092 789.9C432.092 782.6 418.092 775.1 415.792 773.9C411.292 771.5 409.192 771.2 406.292 768.2C402.692 764.4 401.492 759.9 400.992 757.9C392.692 726.3 388.592 728.3 382.992 692C378.792 664.6 381.492 666.2 377.192 644.4C374.192 629 371.692 622.7 370.892 609.4C369.992 594.8 371.692 583.4 373.492 573.3C380.992 532 395.392 482 398.892 470.1C395.692 465.1 391.292 460.1 386.292 460.4Z" fill="#3F3F3F"/>
<path d="M590.392 49.2999C587.292 49.1999 584.892 54.7999 584.292 56.2999C583.392 58.4999 581.992 62.7999 582.992 68.8999C582.992 68.8999 583.592 73.0999 585.592 98.4999C586.092 104.2 586.192 112.5 584.692 122.9C580.692 133.9 576.892 142.5 574.292 148.1C565.492 166.9 559.592 174.4 547.292 198.2C542.692 207.1 542.292 208.5 536.892 219.5C523.392 246.8 513.492 263.9 503.392 282.2C494.492 298.2 481.992 321.7 467.292 351.9C466.592 354.5 463.092 368.4 471.192 380.6C479.792 393.5 497.792 399.3 515.192 393.7C517.892 389.9 521.692 384 525.192 376.3C528.592 368.8 530.192 363 531.292 359.3C532.392 355.6 536.792 343.1 545.692 317.9C548.492 310.1 551.892 300.8 558.792 282.6C569.292 254.7 574.492 240.8 577.992 232.1C585.892 212.3 591.892 198.6 603.692 172C609.892 158 617.492 141.1 626.292 121.9C631.392 119 638.392 114.5 645.892 108C656.692 98.6999 662.092 90.7999 672.492 75.7999C679.192 65.9999 684.292 57.3999 682.892 48.7999C682.692 47.5999 682.192 44.0999 680.292 43.5999C677.892 42.8999 674.892 47.6999 671.592 51.8999C668.192 56.1999 663.092 61.7999 655.492 67.5999C658.092 60.3999 660.692 54.7999 662.492 51.0999C666.592 42.6999 669.992 37.2999 672.092 27.9999C674.392 18.0999 672.292 16.2999 671.692 15.7999C668.992 13.7999 664.392 17.5999 661.692 15.3999C659.292 13.2999 661.392 8.6999 659.492 7.5999C657.592 6.4999 653.392 9.7999 650.392 13.2999C645.192 19.2999 643.992 25.0999 642.092 30.6999C640.292 36.1999 636.992 43.6999 630.792 51.9999C629.292 52.1999 627.292 52.2999 626.392 51.0999C625.392 49.6999 626.792 47.3999 628.092 43.6999C628.392 42.7999 628.192 43.2999 630.292 34.0999C631.092 30.5999 632.592 24.0999 633.792 18.8999C635.492 11.3999 636.292 8.2999 634.692 4.9999C634.392 4.2999 633.092 1.5999 631.192 1.4999C628.992 1.3999 627.292 4.8999 625.992 7.5999C620.692 18.4999 617.992 23.9999 617.292 25.8999C613.792 35.3999 609.092 49.8999 608.392 54.8999C608.292 55.4999 608.092 57.5999 607.092 60.2999C606.592 61.5999 606.292 62.0999 605.992 62.8999C603.492 68.4999 605.592 72.1999 602.992 74.1999C602.692 74.3999 601.192 75.4999 599.992 75.0999C598.692 74.6999 598.092 72.9999 597.392 67.2999C596.392 59.4999 596.992 57.1999 595.192 53.7999C593.992 52.2999 592.492 49.3999 590.392 49.2999Z" fill="white"/>
<path d="M585.592 95.5999C586.292 88.2999 585.192 81.1999 584.792 73.8999C584.592 70.3999 584.592 66.7999 585.092 63.2999C585.392 61.2999 585.792 59.2999 586.392 57.3999C587.392 54.4999 587.492 52.0999 590.692 51.9999C593.692 51.8999 593.492 53.6999 593.992 56.1999C594.492 58.3999 594.592 60.6999 594.692 62.8999C594.892 65.9999 594.992 69.1999 595.692 72.1999C596.392 75.2999 598.292 77.8999 601.792 76.7999C603.592 76.1999 602.892 73.2999 600.992 73.8999C597.492 74.8999 597.792 63.0999 597.592 61.0999C597.292 57.8999 596.992 54.5999 595.792 51.5999C594.092 47.3999 590.192 45.2999 586.892 49.1999C582.592 54.1999 581.692 63.1999 581.692 69.3999C581.692 78.1999 583.392 86.7999 582.592 95.5999C582.492 97.4999 585.492 97.4999 585.592 95.5999V95.5999Z" fill="#161616"/>
<path d="M602.992 75.5999C607.992 65.8999 609.492 54.8999 612.392 44.4999C615.492 33.2999 619.392 22.2999 625.192 12.2999C626.492 10.0999 627.792 6.99995 629.692 5.29995C633.392 1.89995 633.392 8.39995 633.092 11.1999C632.492 17.3999 630.892 23.6999 629.492 29.7999C628.192 35.3999 626.392 40.7999 625.092 46.3999C624.392 49.4999 624.392 52.1999 626.592 54.5999C627.892 55.9999 629.992 53.8999 628.692 52.4999C626.192 49.7999 628.792 44.3999 629.592 41.4999C630.492 38.1999 631.392 34.8999 632.092 31.5999C633.492 25.4999 634.892 19.2999 635.792 12.9999C636.292 9.69995 636.992 3.89995 634.092 1.39995C631.592 -0.700053 629.092 1.29995 627.392 3.29995C620.092 12.3999 615.592 24.3999 611.992 35.3999C607.892 48.0999 606.592 62.2999 600.392 74.1999C599.492 75.7999 602.092 77.2999 602.992 75.5999V75.5999Z" fill="#161616"/>
<path d="M627.292 54.8999C630.292 55.1999 631.392 52.9999 632.792 50.5999C634.992 46.7999 636.992 42.7999 638.892 38.8999C642.592 31.2999 645.192 22.9999 649.692 15.8999C650.692 14.2999 651.892 12.2999 653.492 11.0999C654.792 9.59995 656.492 9.09995 658.692 9.79995C658.992 11.1999 659.192 12.5999 659.192 13.9999C659.292 18.8999 657.692 23.7999 655.992 28.3999C652.592 37.4999 648.792 46.4999 645.092 55.5999C644.392 57.3999 647.292 58.1999 647.992 56.3999C650.092 51.1999 671.692 5.59995 657.592 5.29995C654.792 5.19995 651.592 8.69995 649.992 10.5999C647.192 13.8999 645.192 17.6999 643.392 21.5999C641.292 26.2999 639.392 30.9999 637.192 35.5999C635.892 38.3999 634.392 41.3 632.992 44C632.092 45.8 629.892 51.9999 627.392 51.7999C625.392 51.6999 625.392 54.6999 627.292 54.8999V54.8999Z" fill="#161616"/>
<path d="M662.692 18.0999C663.792 12.2999 670.092 16.2999 670.892 19.9999C671.592 23.0999 670.392 26.1999 669.392 29.0999C667.892 33.4999 666.192 37.7999 664.392 41.9999C660.892 50.1999 656.792 57.9999 652.192 65.6999C651.192 67.3999 653.792 68.8999 654.792 67.1999C659.092 60.0999 662.892 52.6999 666.292 45.1999C669.192 38.6999 672.692 31.4999 673.792 24.3999C674.492 19.8999 673.192 14.0999 668.192 12.4999C664.492 11.2999 660.492 13.5999 659.792 17.3999C659.492 19.1999 662.392 19.9999 662.692 18.0999V18.0999Z" fill="#161616"/>
<path d="M656.892 68.3999C660.692 64.0999 664.392 59.7999 668.192 55.4999C670.192 53.1999 671.992 50.6999 674.192 48.6999C674.892 48.0999 675.592 47.5999 676.192 46.9999C677.892 47.5999 679.592 48.1999 681.392 48.7999C681.892 49.6999 680.692 52.2999 680.392 53.0999C677.292 62.5999 672.792 71.5999 667.492 79.9999C656.792 96.8999 642.092 111.1 624.892 121.4C623.192 122.4 624.792 125 626.392 124C647.792 111.2 665.392 92.3999 676.492 70.0999C679.192 64.6999 681.792 58.9999 683.492 53.1999C684.492 49.7999 685.092 45.1999 681.192 43.3999C677.392 41.5999 673.392 45.0999 670.992 47.5999C665.292 53.4999 660.092 60.0999 654.692 66.2999C653.492 67.6999 655.592 69.7999 656.892 68.3999V68.3999Z" fill="#161616"/>
<path d="M582.992 92.5C583.692 101.7 584.392 111.1 582.892 120.3C581.392 129.4 577.592 137.8 573.392 146C564.892 162.6 555.992 179 547.292 195.5C529.892 228.5 512.492 261.4 495.092 294.4C485.092 313.3 475.092 332.3 465.092 351.2C464.192 352.9 466.792 354.4 467.692 352.7C503.592 284.6 540.192 216.8 575.492 148.3C579.692 140.2 583.592 131.9 585.292 123C587.292 112.9 586.592 102.7 585.792 92.5C585.892 90.6 582.892 90.6 582.992 92.5V92.5Z" fill="#161616"/>
<path d="M624.692 120.7C592.692 188.3 564.792 257.5 540.192 328.1C532.992 348.6 525.792 369.1 517.092 389C516.292 390.8 518.892 392.3 519.692 390.5C534.592 356.6 545.492 321.1 558.292 286.5C571.392 250.9 585.592 215.6 600.692 180.8C609.292 161.1 618.092 141.6 627.292 122.2C628.092 120.5 625.492 119 624.692 120.7V120.7Z" fill="#161616"/>
<path opacity="0.1" d="M669.892 16.8999C665.792 16.2999 660.292 33.0999 657.092 41.4999C647.392 67.2999 639.192 70.2999 618.392 105.3C610.692 118.2 600.092 137.6 589.392 162.9C557.392 230.3 525.492 297.8 493.492 365.2C501.292 374.7 508.992 384.3 516.792 393.8C520.692 382.7 526.392 366.4 533.492 346.7C546.392 311.2 563.092 265.5 586.692 209.9C596.092 187.9 609.092 158.2 625.792 123.3C630.392 120.4 636.792 115.9 643.792 109.7C653.192 101.5 665.592 90.3999 674.092 72.2999C676.792 66.6999 680.192 58.0999 681.992 46.7999C680.692 46.1999 678.792 45.4999 676.692 45.8999C673.092 46.5999 671.192 50.0999 669.692 52.4999C663.892 61.3999 655.392 67.2999 654.292 66.5999C653.692 66.0999 655.392 63.1999 659.992 53.7999C669.392 34.4999 665.492 39.5999 669.192 33.0999C671.292 29.3999 673.392 26.1999 672.692 22.0999C672.692 20.2999 671.592 17.1999 669.892 16.8999Z" fill="#3F3F3F"/>
<path opacity="0.13" d="M663.792 85.1C658.792 88.3 651.692 93 643.592 99.2C634.292 106.2 624.292 113.8 615.892 123.4C604.492 136.4 599.492 149.3 596.492 156.8C568.992 227 536.292 303.2 526.992 324.4C521.892 336 513.892 353.5 503.292 374.5C508.092 380.8 512.992 387.1 517.792 393.4C531.592 351.3 547.492 307.2 565.692 261.5C585.292 212.4 605.592 166.5 625.992 123.8C631.492 120.1 637.692 115.4 643.992 109.3C652.892 100.8 659.292 92.2 663.792 85.1Z" fill="#3F3F3F"/>
<path d="M397.892 374.6C394.192 377.1 385.892 382.9 377.392 392.3C368.592 402 363.492 411.1 359.292 418.8C355.992 424.7 353.592 429.9 351.892 433.7C354.492 438.7 358.692 446.4 364.492 455.6C374.792 471.9 382.792 480.7 396.592 498.4C402.392 505.8 410.792 516.9 420.792 530.9C422.392 538.4 423.792 546.3 424.992 554.6C427.392 571.6 428.292 587.4 428.292 601.6C431.992 605.6 438.392 611.4 447.792 615.5C463.392 622.4 477.592 620.4 484.992 619.2C501.392 616.7 512.592 609.4 520.292 604.3C534.292 595.1 543.792 584.1 550.092 575C548.792 559.4 547.092 543.3 544.992 526.6C543.192 512.4 541.192 498.6 538.992 485.2C538.792 474.7 537.792 460.4 534.392 443.8C531.592 429.9 528.192 413.7 518.092 394.5C505.492 370.6 489.792 356.1 483.692 350.8C478.292 346.1 473.392 342.6 469.792 340.1C455.192 349.4 442.592 355.2 433.992 358.7C417.992 365.3 410.492 366.3 397.892 374.6Z" fill="white"/>
<path d="M353.492 434.1C356.592 422.3 365.192 411.3 372.592 401.7C380.392 391.7 389.192 382.6 399.692 375.3C401.292 374.2 399.792 371.6 398.192 372.7C387.392 380.2 378.292 389.5 370.292 399.8C362.592 409.7 353.892 420.9 350.692 433.2C350.192 435.2 353.092 435.9 353.492 434.1V434.1Z" fill="#161616"/>
<path d="M351.292 435.1C371.892 471.1 396.292 504.9 423.992 535.8C425.292 537.2 427.392 535.1 426.092 533.7C398.592 503 374.392 469.4 353.892 433.6C352.892 431.9 350.292 433.4 351.292 435.1V435.1Z" fill="#161616"/>
<path d="M435.892 360.1C447.092 352.2 459.392 346.3 472.492 342.5C474.392 342 473.592 339.1 471.692 339.6C458.292 343.5 445.792 349.5 434.392 357.5C432.792 358.6 434.292 361.2 435.892 360.1V360.1Z" fill="#161616"/>
<path d="M469.992 343.3C517.792 376.6 538.292 435 535.992 491.5C535.892 493.4 538.892 493.4 538.992 491.5C541.392 433.8 520.192 374.6 471.492 340.7C469.992 339.6 468.492 342.2 469.992 343.3V343.3Z" fill="#161616"/>
<path d="M417.492 529.9C422.692 540.6 423.292 553.9 424.392 565.5C425.592 577.3 425.992 589.2 425.992 601.1C425.992 603 428.992 603 428.992 601.1C429.092 587.9 428.492 574.7 426.992 561.6C425.792 550.5 424.992 538.5 420.092 528.3C419.192 526.6 416.692 528.1 417.492 529.9V529.9Z" fill="#161616"/>
<path d="M427.892 601.7C442.892 620.1 468.492 625.3 490.792 619.6C503.192 616.4 514.692 610.3 524.992 602.7C535.292 595.1 545.092 586.3 550.892 574.7C551.792 573 549.192 571.5 548.292 573.2C542.692 584.3 533.292 592.8 523.392 600.1C513.792 607.2 503.092 613 491.492 616.3C469.692 622.4 444.592 617.7 429.892 599.6C428.792 598.1 426.692 600.2 427.892 601.7V601.7Z" fill="#161616"/>
<path d="M537.092 487C541.992 516.3 546.792 545.6 548.492 575.2C548.592 577.1 551.592 577.1 551.492 575.2C549.692 545.3 544.892 515.7 539.992 486.2C539.692 484.3 536.792 485.1 537.092 487V487Z" fill="#161616"/>
<path opacity="0.13" d="M439.692 356.1C450.792 369.2 465.992 389.6 478.692 417.2C497.292 457.6 500.992 492.5 503.792 522.2C505.992 544.8 507.192 576.3 502.792 613.9C511.292 610.2 523.292 603.8 534.892 592.7C541.292 586.5 546.092 580.3 549.692 574.9C546.392 547 543.092 519 539.792 491.1C540.392 468.1 536.792 449.5 533.392 436.9C522.892 397.9 502.692 372.8 495.892 364.9C486.592 354 477.492 346 470.792 340.7C460.392 345.9 450.092 351 439.692 356.1Z" fill="#3F3F3F"/>
<path opacity="0.14" d="M514.192 391.1C512.392 391.6 516.592 407.9 520.592 432C520.592 432 526.692 468.6 527.992 504C528.892 527.4 527.692 561.6 517.192 604.1C521.992 601.7 527.892 598.2 533.992 593.3C541.392 587.3 546.692 581 550.292 576C548.992 535.7 545.592 514.8 542.392 503C541.792 500.7 540.192 495.3 538.892 487.7C536.492 473.5 537.692 467.4 536.392 455.6C535.392 446.2 533.492 440 529.992 428.5C524.692 411.2 516.192 390.5 514.192 391.1Z" fill="#3F3F3F"/>
<path d="M396.492 210.1C389.892 213.8 381.492 219.4 373.392 227.9C356.592 245.8 351.192 265.8 349.292 275.7C347.792 275.5 343.692 275.2 340.392 277.8C335.492 281.6 335.392 289.1 337.292 293.5C337.992 295.1 338.992 296.4 341.092 299C343.592 302.1 345.192 304 347.792 305.1C348.892 305.6 351.392 306.3 354.992 305.5C356.092 308.8 357.892 313.4 360.592 318.7C364.092 325.5 369.392 335.6 379.992 344.4C383.092 347 387.892 350.4 394.392 353.5C396.792 356.6 401.192 363.1 401.692 371.9C402.692 387.4 391.392 400.3 380.692 406C362.092 415.9 341.892 406 334.492 402.3C330.492 400.3 310.392 389.9 301.992 367.1C291.792 339.6 305.092 312.1 312.992 295.7C320.992 279.2 324.692 280.3 330.792 264.2C338.892 242.9 334.592 235.4 343.892 219.1C347.492 212.7 354.792 199.9 370.092 193.9C383.192 188.8 395.292 191.4 400.492 192.9C404.792 190.3 412.392 186.6 421.992 186.6C444.792 186.6 459.392 208.2 462.892 213.4C473.292 228.7 467.792 233.4 477.092 254.9C488.792 282 500.192 280.4 510.692 305.8C515.792 318.2 524.292 338.7 514.892 358.3C505.192 378.5 483.092 384.4 480.292 385.1C475.192 386.4 461.492 389.8 447.792 382.5C446.492 381.8 429.292 372.4 427.892 356.3C427.392 350.4 429.092 344.9 429.492 343.7C431.592 337.2 435.192 333 436.292 331.6C440.592 326.3 445.792 316.5 449.392 297C451.092 296.9 453.892 296.5 456.692 294.9C462.592 291.5 465.392 284.6 465.092 278.6C464.992 277.2 464.592 269.2 458.792 266.5C456.392 265.4 453.892 265.7 452.492 266C433.892 247.2 415.192 228.7 396.492 210.1Z" fill="#212121"/>
<path d="M396.492 210C385.392 216.5 377.692 223.7 372.792 229C356.492 246.7 351.292 265.2 350.192 269.5C349.492 272.2 348.992 274.4 348.792 276C347.692 275.6 345.192 274.9 342.692 276C338.892 277.7 338.092 282.3 337.692 284.6C336.692 289.9 338.692 294.1 339.492 295.7C340.592 298 342.392 301.7 346.692 303.6C350.192 305.2 353.492 304.6 354.892 304.3C356.292 307.9 358.292 312.9 361.392 318.6C366.092 327.6 370.492 335.9 378.992 343.3C382.292 346.2 387.692 350.2 395.492 353.3C397.092 355.8 399.292 359.7 400.492 364.8C401.492 368.8 401.692 372.2 401.592 374.8C404.192 376.1 409.092 378.1 415.192 378C426.892 377.8 434.592 370.5 436.392 368.7C434.492 363 432.792 356 432.092 347.9C431.792 344.2 431.692 340.7 431.692 337.5C434.792 334.2 438.592 329.5 441.692 323.2C447.192 312.3 448.092 302.2 448.192 296.3C449.592 296.5 452.392 296.8 455.392 295.6C459.592 293.9 461.492 290.2 462.592 288.1C462.892 287.6 467.092 279 463.292 270.5C462.392 268.6 460.892 265.1 457.892 264.8C455.692 264.6 453.892 266.3 453.192 267C449.092 262.1 441.392 253 430.592 240.5C421.292 229.6 415.392 222.8 405.492 215.8C401.892 213.2 398.692 211.3 396.492 210Z" fill="white"/>
<path d="M382.692 316.1C381.692 318.4 386.392 322.5 388.592 324.2C393.192 327.6 398.092 328.1 399.892 328.2C401.992 328.4 408.892 328.9 415.192 324.4C416.692 323.3 420.892 320.4 422.492 315C423.592 311.1 423.292 305.7 421.192 304.8C419.592 304.2 418.092 306.2 414.692 308.6C408.692 312.7 402.492 313.7 397.192 314.5C388.192 315.9 383.692 314.1 382.692 316.1Z" fill="black"/>
<path d="M350.992 293C354.592 308 360.392 322.7 369.992 334.9C378.492 345.8 391.092 356.3 405.792 354.9C419.392 353.6 430.492 343 437.692 332.2C446.192 319.6 450.292 304.5 449.892 289.3C449.792 287.4 446.792 287.4 446.892 289.3C447.292 303.2 443.692 316.8 436.392 328.6C429.492 339.7 418.092 351.4 404.192 352C389.492 352.6 377.392 340.6 369.592 329.4C361.792 318.2 356.992 305.3 353.792 292.1C353.392 290.3 350.492 291.1 350.992 293V293Z" fill="#161616"/>
<path d="M393.492 353.5C397.692 359.9 399.792 366.9 399.792 374.6C399.792 376.5 402.792 376.5 402.792 374.6C402.792 366.5 400.492 358.8 396.092 352C395.092 350.3 392.492 351.8 393.492 353.5V353.5Z" fill="#161616"/>
<path d="M401.192 375.8C413.392 382.8 429.192 379.4 437.492 368.2C438.692 366.7 436.092 365.2 434.892 366.7C427.492 376.6 413.292 379.4 402.692 373.2C400.992 372.3 399.492 374.9 401.192 375.8V375.8Z" fill="#161616"/>
<path d="M429.992 340.1C430.092 349.2 431.492 358.2 434.392 366.9C434.992 368.7 437.892 367.9 437.292 366.1C434.592 357.6 433.092 349 432.992 340.1C432.992 338.1 429.992 338.1 429.992 340.1V340.1Z" fill="#161616"/>
<path d="M353.992 302.5C352.692 303.9 349.492 303.4 347.992 302.6C346.792 302 345.692 301.1 344.792 300.2C342.792 298.3 341.192 296 340.192 293.5C338.192 288.8 337.292 275.3 346.192 277.7C348.092 278.2 348.892 275.3 346.992 274.8C335.992 271.9 334.292 286.5 337.092 293.8C339.292 299.7 349.392 311.9 356.192 304.6C357.392 303.2 355.292 301.1 353.992 302.5V302.5Z" fill="#161616"/>
<path d="M454.492 267.5C455.692 263.5 460.892 271.2 461.492 272.6C462.692 275.8 463.092 279.3 462.592 282.7C461.792 289.5 456.392 296 448.892 294.1C446.992 293.6 446.192 296.5 448.092 297C460.192 300.1 466.692 287.5 465.592 277.2C465.092 272.7 463.292 266.9 458.992 264.5C456.192 263 452.592 263.4 451.592 266.6C450.992 268.6 453.892 269.3 454.492 267.5V267.5Z" fill="#161616"/>
<path d="M364.692 246.3C367.992 240 373.792 235.9 380.792 234.9C382.692 234.6 381.892 231.7 379.992 232C372.292 233.1 365.692 237.9 362.092 244.8C361.192 246.5 363.792 248 364.692 246.3V246.3Z" fill="#161616"/>
<path d="M410.892 230.9C419.292 228.9 427.692 233.1 431.492 240.7C432.392 242.4 434.892 240.9 434.092 239.2C429.692 230.3 419.692 225.7 410.092 228C408.192 228.5 408.992 231.4 410.892 230.9V230.9Z" fill="#161616"/>
<path d="M389.092 243.2C390.992 253.8 391.492 264.7 390.392 275.5C389.992 278.8 388.392 283.5 389.892 286.8C391.492 290.4 395.792 293.5 398.492 296.3C399.792 297.7 401.992 295.6 400.592 294.2C398.792 292.3 396.992 290.5 395.192 288.6C392.392 285.7 392.092 284.8 392.692 280.6C393.192 276.8 393.692 272.9 393.892 269C394.292 260.1 393.592 251.2 391.992 242.5C391.692 240.5 388.792 241.3 389.092 243.2V243.2Z" fill="#161616"/>
<path d="M376.492 268.9C374.992 266.5 374.292 263.9 374.492 261.1C374.492 260.5 374.892 257.9 375.392 257.8C375.692 257.8 376.192 261.3 376.292 261.7C376.492 263 376.592 264.4 376.592 265.7C376.592 266.1 376.492 269.4 376.492 267.4C376.392 264.5 376.592 261.6 376.692 258.7C375.692 258.8 374.692 259 373.792 259.1C374.292 262.2 374.592 265.3 374.592 268.5C375.592 268.5 376.592 268.5 377.592 268.5C377.592 268.1 377.592 267.7 377.592 267.3C377.592 265.4 374.592 265.4 374.592 267.3C374.592 267.7 374.592 268.1 374.592 268.5C374.592 270.4 377.592 270.4 377.592 268.5C377.592 265.1 377.292 261.7 376.692 258.3C376.392 256.6 373.792 257.1 373.792 258.7C373.692 261.9 373.292 265.4 373.692 268.6C373.892 270.1 374.592 271.5 376.292 271.8C381.292 272.8 379.792 263 379.392 260.6C379.092 258.7 378.792 255.8 376.992 254.7C375.492 253.8 373.892 254.7 372.992 256.1C370.492 260.3 371.892 266.5 374.192 270.3C374.892 272 377.492 270.5 376.492 268.9V268.9Z" fill="#161616"/>
<path d="M422.692 263.6C421.192 261.2 420.492 258.6 420.692 255.8C420.692 255.2 421.092 252.6 421.592 252.5C421.892 252.5 422.392 256 422.492 256.4C422.692 257.7 422.792 259.1 422.792 260.4C422.792 260.8 422.692 264.1 422.692 262.1C422.592 259.2 422.792 256.3 422.892 253.4C421.892 253.5 420.892 253.7 419.992 253.8C420.492 256.9 420.792 260 420.792 263.2C421.792 263.2 422.792 263.2 423.792 263.2C423.792 262.8 423.792 262.4 423.792 262C423.792 260.1 420.792 260.1 420.792 262C420.792 262.4 420.792 262.8 420.792 263.2C420.792 265.1 423.792 265.1 423.792 263.2C423.792 259.8 423.492 256.4 422.892 253C422.592 251.3 419.992 251.8 419.992 253.4C419.892 256.6 419.492 260.1 419.892 263.3C420.092 264.8 420.792 266.2 422.492 266.5C427.492 267.5 425.992 257.7 425.592 255.3C425.292 253.4 424.992 250.5 423.192 249.4C421.692 248.5 420.092 249.4 419.192 250.8C416.692 255 418.092 261.2 420.392 265C421.092 266.8 423.692 265.3 422.692 263.6V263.6Z" fill="#161616"/>
<path d="M361.692 278.1C363.592 278.1 363.592 275.1 361.692 275.1C359.792 275.1 359.792 278.1 361.692 278.1V278.1Z" fill="#161616"/>
<path d="M373.492 280.3C373.592 280.3 373.692 280.3 373.892 280.3C374.692 280.3 375.392 279.6 375.392 278.8C375.392 278 374.692 277.3 373.892 277.3C373.792 277.3 373.692 277.3 373.492 277.3C372.692 277.3 371.992 278 371.992 278.8C371.992 279.6 372.592 280.3 373.492 280.3V280.3Z" fill="#161616"/>
<path d="M366.492 289.5C368.392 289.5 368.392 286.5 366.492 286.5C364.592 286.5 364.492 289.5 366.492 289.5V289.5Z" fill="#161616"/>
<path d="M423.292 276.6C423.392 276.6 423.492 276.6 423.692 276.6C424.492 276.6 425.192 275.9 425.192 275.1C425.192 274.3 424.492 273.6 423.692 273.6C423.592 273.6 423.492 273.6 423.292 273.6C422.492 273.6 421.792 274.3 421.792 275.1C421.792 275.9 422.392 276.6 423.292 276.6V276.6Z" fill="#161616"/>
<path d="M434.292 269.2C436.192 269.2 436.192 266.2 434.292 266.2C432.392 266.2 432.392 269.2 434.292 269.2V269.2Z" fill="#161616"/>
<path d="M432.792 277.3C432.892 277.3 432.992 277.3 433.192 277.3C433.992 277.3 434.692 276.6 434.692 275.8C434.692 275 433.992 274.3 433.192 274.3C433.092 274.3 432.992 274.3 432.792 274.3C431.992 274.3 431.292 275 431.292 275.8C431.392 276.6 431.992 277.3 432.792 277.3V277.3Z" fill="#161616"/>
<path d="M385.192 318.4C383.592 316.1 380.992 312.8 382.092 309.8C383.392 306.4 387.492 306.9 390.192 307.3C393.492 307.8 396.192 308.4 399.392 307.4C401.992 306.6 404.292 304.9 406.692 303.6C412.392 300.4 419.092 300.1 420.892 307.6C425.992 328.1 389.792 333.9 384.192 315.9C383.592 314.1 380.692 314.8 381.292 316.7C388.192 338.8 430.992 330.6 423.492 306.1C422.192 302 419.092 298.5 414.692 298C407.492 297.3 402.792 304.5 395.892 305C390.792 305.4 384.592 301.5 380.492 306.3C376.792 310.6 379.792 316.1 382.492 319.9C383.692 321.5 386.292 320 385.192 318.4V318.4Z" fill="#161616"/>
<path d="M379.392 312.7C381.592 318.8 392.592 316.9 397.392 316.2C406.592 314.8 414.992 310.8 422.092 304.9C423.592 303.7 421.492 301.5 419.992 302.8C414.792 307.2 408.792 310.4 402.192 312.2C399.292 313 383.992 316.4 382.392 312C381.592 310.1 378.692 310.9 379.392 312.7V312.7Z" fill="#161616"/>
<path d="M397.192 356.6C408.892 359.6 424.492 352.2 431.092 342.5C432.192 340.9 429.592 339.4 428.492 341C422.692 349.5 408.192 356.3 397.992 353.7C396.092 353.2 395.292 356.1 397.192 356.6V356.6Z" fill="#161616"/>
<path d="M398.292 357.5C408.692 364 425.792 354.8 430.792 344.9C431.692 343.2 429.092 341.7 428.192 343.4C423.992 351.8 408.692 360.5 399.792 355C398.092 353.9 396.592 356.5 398.292 357.5V357.5Z" fill="#161616"/>
<path opacity="0.2" d="M439.792 251.5C440.492 255.1 441.392 260.8 441.992 267.7C443.392 286.1 445.792 316.9 427.192 337.4C423.192 341.8 414.692 349.6 398.992 354C403.992 353.8 410.092 353.2 416.692 351.5C419.992 350.7 422.992 349.7 425.692 348.6C426.092 357.5 426.392 366.4 426.792 375.3C430.192 373.1 433.492 371 436.892 368.8C432.292 358.6 432.292 350.7 432.892 345.7C433.792 338.7 436.392 333 438.992 327.3C441.292 322.3 443.692 318.3 445.592 315.5C445.792 317.6 446.292 319.8 447.692 321.9C453.792 331 472.892 331.9 484.892 324.1C495.992 316.9 501.392 302.3 498.592 287.3C500.492 288.9 502.492 290.8 504.392 293.1C505.892 294.9 509.792 300.1 515.192 318.4C516.892 324.1 517.692 327 518.192 329.9C518.792 333.9 519.892 341.5 517.792 350.1C514.192 364.9 503.492 373.4 500.292 375.8C497.992 377.5 490.992 382.6 480.492 385C475.492 386.1 460.492 389.7 446.392 381.5C441.092 378.4 438.192 376.1 436.592 373.3C434.892 370.2 434.692 367.3 434.492 365.1C433.592 351.4 433.192 344.5 434.092 339.8C436.792 326.2 442.892 324.8 446.292 309.3C447.492 303.7 447.792 299 447.892 296C449.192 296.2 451.192 296.4 453.592 295.8C458.592 294.5 461.092 290.4 461.992 288.9C465.592 283.2 467.192 273 461.592 268.3C460.792 267.6 457.992 265.5 452.592 265.9C448.492 261.1 444.192 256.3 439.792 251.5Z" fill="#3F3F3F"/>
<path opacity="0.13" d="M392.392 283.9C397.492 285.4 402.692 287 407.792 288.5C406.492 289.7 405.192 290.8 403.792 292C402.492 293.1 401.292 294 399.992 295C398.392 293.8 396.092 291.7 394.292 288.5C393.292 286.8 392.692 285.2 392.392 283.9Z" fill="#3F3F3F"/>
<path opacity="0.16" d="M312.192 296.4C301.292 334.9 309.392 366 325.692 372.8C338.492 378.1 361.592 370.6 365.892 357.5C366.492 355.8 367.092 352.8 364.792 343.6C362.792 335.5 358.692 323.3 349.492 309.4C347.892 308.4 345.792 306.8 343.792 304.4C340.292 300.1 339.292 295.5 338.992 293.3C341.892 296.3 346.092 300.1 348.792 298.9C351.392 297.7 352.992 294.1 352.092 290.5C352.992 295.1 354.392 301.4 356.992 308.7C360.392 318.4 363.792 327.8 371.692 336.7C375.292 340.8 382.392 347.5 394.392 352.3C396.392 354.8 400.092 360.2 401.292 368.1C401.492 369.3 402.192 374.8 400.392 381.7C399.992 383.3 397.592 392 389.692 399.5C380.492 408.3 369.492 409.9 365.892 410.4C338.792 414 317.792 390.3 314.092 386.2C310.392 382 304.292 375 300.792 364.2C295.192 347 299.492 331.5 302.592 320.2C305.492 309.6 309.392 301.6 312.192 296.4Z" fill="#3F3F3F"/>
<path d="M196.892 805.6C217.292 794.7 237.792 783.8 258.192 772.9C267.792 774.5 280.992 776.6 296.792 778.8C328.392 783.2 379.292 790.3 443.692 792.2C508.092 794.1 556.392 790 574.792 788.2C619.092 784 645.892 778.3 667.792 772.4C687.692 767 704.092 761.1 715.792 756.6C725.392 759.8 736.092 764.1 747.492 770C753.992 773.4 759.992 776.9 765.292 780.4C746.492 785.8 721.192 792.7 691.092 799.7C627.692 814.5 579.092 821.5 568.892 823C510.592 831.3 427.492 843 322.992 830.9C290.492 827 247.192 819.9 196.892 805.6Z" fill="white"/>
<path d="M195.792 805.7C196.292 809.9 196.892 814 197.392 818.2C204.892 820.3 215.892 823.3 229.492 826.3C255.492 832.1 281.892 836.1 316.392 838.8C443.792 848.8 545.592 839.9 545.592 839.9C596.492 835.4 645.892 830.8 709.692 812.2C733.692 805.2 753.292 798.1 767.292 792.6C766.192 787.9 765.092 783.2 763.992 778.5C760.092 780.1 754.292 782.4 747.192 785C698.992 802.6 659.292 808.4 623.892 812.7C546.092 822.3 507.192 827 450.092 827.9C385.092 829 297.892 825.1 195.792 805.7Z" fill="#161616"/>
<path d="M195.092 807.6C195.092 810.8 195.092 814 195.092 817.2C195.092 819.1 198.092 819.1 198.092 817.2C198.092 814 198.092 810.8 198.092 807.6C198.092 805.6 195.092 805.6 195.092 807.6V807.6Z" fill="#161616"/>
<path d="M196.192 820C270.892 840.2 348.892 842.8 425.792 843.9C499.692 844.9 574.092 841.7 646.892 828.2C687.892 820.6 728.292 809.5 767.292 794.4C769.092 793.7 768.292 790.8 766.492 791.5C697.692 818.2 624.592 831.8 551.092 837.5C476.992 843.2 402.192 841.9 328.092 837.4C283.792 834.6 239.892 828.8 196.992 817.2C195.092 816.6 194.292 819.5 196.192 820V820Z" fill="#161616"/>
<path d="M767.292 792.3C767.892 788.1 768.092 783.8 767.692 779.6C767.492 777.7 764.492 777.7 764.692 779.6C764.992 783.6 764.992 787.6 764.392 791.5C764.092 793.3 766.992 794.2 767.292 792.3V792.3Z" fill="#161616"/>
<path d="M197.492 807.3C218.492 797.3 239.092 786.6 259.292 775C260.992 774 259.492 771.5 257.792 772.4C237.592 783.9 216.992 794.7 195.992 804.7C194.192 805.5 195.692 808.1 197.492 807.3V807.3Z" fill="#161616"/>
<path d="M258.492 773.6C377.792 796.3 501.792 800.5 622.092 783.3C654.092 778.7 685.892 771.6 715.492 758.4C717.292 757.6 715.692 755 713.992 755.8C687.392 767.6 658.992 774.5 630.292 779C601.092 783.6 571.592 786.4 542.092 788.3C482.192 792.1 421.992 791.1 362.292 785.4C327.692 782.1 293.392 777.1 259.292 770.7C257.392 770.4 256.592 773.3 258.492 773.6V773.6Z" fill="#161616"/>
<path d="M714.892 757.9C732.692 763.7 749.392 771.8 764.992 782.1C766.592 783.2 768.092 780.6 766.492 779.5C750.692 769.1 733.692 760.9 715.692 755C713.792 754.4 712.992 757.3 714.892 757.9V757.9Z" fill="#161616"/>
<path d="M197.692 805.7C232.992 817.6 269.792 823.2 306.792 826.2C344.292 829.2 382.092 830.1 419.692 830.1C494.392 830.1 569.292 825 642.892 811.6C684.692 804 726.092 793.7 766.392 780.2C768.192 779.6 767.392 776.7 765.592 777.3C694.692 800.9 620.992 814.7 546.592 821.5C472.592 828.3 397.792 828.7 323.592 824.3C281.192 821.7 238.692 816.4 198.292 802.8C196.692 802.2 195.892 805.1 197.692 805.7V805.7Z" fill="#161616"/>
<path d="M740.692 195.9C741.992 242.4 742.792 296.3 742.492 356.2C742.292 391 741.992 374.4 738.892 519.2C737.092 602.6 736.592 634 730.692 682.2C726.892 713.6 722.292 739.4 718.892 756.9C744.692 764.1 769.292 770.9 790.892 776.9C824.292 786.2 833.192 788.7 846.492 790.6C867.092 793.4 892.192 793.8 921.192 787.9C931.892 700.3 937.792 625.6 941.192 568.4C953.392 367.4 941.992 274.8 937.592 242.3C931.592 198.5 924.192 162.5 918.492 137.6C897.092 141.7 879.692 146.1 867.492 149.4C825.592 160.9 792.392 174.4 764.592 185.8C754.292 190.1 745.992 193.6 740.692 195.9Z" fill="white"/>
<path d="M51.292 139.4C50.492 148 49.592 158.6 48.792 167.8C32.192 357.1 23.892 451.8 21.192 512.7C18.392 578.1 18.192 672.9 32.092 790.8C33.192 793.2 35.192 796.5 38.792 799.2C43.492 802.7 47.792 802.6 56.292 805C62.992 806.9 66.492 808.8 69.692 810C78.892 813.6 99.492 817.7 125.692 816.7C163.292 815.2 192.192 803.7 213.392 795C233.292 786.9 249.192 778.2 260.192 771.6C253.992 715.9 249.392 657.1 246.792 595.4C241.492 464.2 246.792 343.7 257.692 236.3C253.092 234.5 246.392 232 238.492 228.8C224.892 223.3 192.292 210 134.892 182C112.192 171 83.792 156.7 51.292 139.4Z" fill="white"/>
<path d="M917.892 137.2C919.092 143.8 920.692 152.9 922.492 163.8C924.992 179.3 930.592 216 934.692 264.2C938.892 314.4 939.892 357.6 939.992 392C940.292 461.8 937.692 513 930.892 632.4C928.792 669.6 925.692 724.1 921.792 790.6C925.892 790.3 929.892 790.1 933.992 789.8C935.992 773.2 938.692 748.5 940.792 718.3C942.392 696.5 943.092 680.6 943.792 663.5C947.292 585.1 947.892 586 949.092 554C951.492 490.9 950.992 442.4 950.592 398.8C950.292 368.7 949.392 340.2 947.592 283.2C946.292 244.4 944.992 210 936.192 165.3C933.892 153.9 931.692 144.4 930.092 137.9C925.992 137.7 921.992 137.5 917.892 137.2Z" fill="#161616"/>
<path d="M35.992 141.2C35.292 144.7 34.192 150.1 33.092 156.7C29.892 175.8 29.092 190.2 28.792 194.9C26.592 228.9 22.192 245.5 15.792 321C14.592 334.8 13.692 346.9 11.892 371.2C8.19203 420.8 6.39203 445.6 5.09203 473.6C3.69203 504.9 3.49203 527 3.19203 571.2C2.89203 609.4 2.69203 637 3.69203 673.1C4.49203 701.9 6.09203 741 9.99203 787.6C18.092 790 26.092 792.4 34.192 794.8C34.092 790.3 33.792 782.2 33.192 772.1C30.792 727.2 26.892 709 25.992 671.6C25.692 660.1 25.892 652.5 25.992 641.6C27.092 563.4 25.792 527.7 26.492 476.9C27.692 394 33.292 329.2 38.092 274C42.592 221.8 47.692 177.1 52.092 142.1C46.592 141.8 41.292 141.5 35.992 141.2Z" fill="#161616"/>
<path d="M738.292 197.6C741.992 271 741.492 344.6 740.492 418C739.392 489.8 738.892 561.8 733.392 633.5C730.292 674.3 725.392 715 717.792 755.3C717.392 757.2 720.292 758 720.692 756.1C733.992 685.6 738.892 613.9 741.092 542.3C743.392 469.2 744.392 395.9 744.292 322.7C744.192 281 743.492 239.3 741.392 197.6C741.192 195.7 738.192 195.7 738.292 197.6V197.6Z" fill="#161616"/>
<path d="M741.992 197.6C797.492 170.1 856.392 150.3 917.192 138.6C919.092 138.2 918.292 135.3 916.392 135.7C855.392 147.5 796.192 167.5 740.492 195C738.792 195.9 740.292 198.5 741.992 197.6V197.6Z" fill="#161616"/>
<path d="M916.192 137.7C932.692 220.8 937.692 305.7 937.592 390.3C937.392 474.9 932.392 559.3 928.292 643.8C925.892 692.5 923.492 741.1 921.092 789.8C920.992 791.7 923.992 791.7 924.092 789.8C928.392 703.6 932.892 617.4 936.792 531.1C940.592 446.5 942.992 361.7 937.292 277.2C934.092 230.1 928.392 183.2 919.192 137C918.692 135 915.792 135.8 916.192 137.7V137.7Z" fill="#161616"/>
<path d="M718.292 755.9C722.792 761.1 730.792 762.1 737.092 764C745.692 766.6 754.392 769.2 762.992 771.8C780.392 777 797.692 782.5 815.292 786.9C849.692 795.3 884.992 797 919.892 791C921.792 790.7 920.992 787.8 919.092 788.1C884.692 794 849.892 792.3 816.092 784C799.992 780.1 784.192 775.1 768.392 770.3C760.392 767.9 752.392 765.5 744.392 763.1C740.392 761.9 736.392 760.7 732.392 759.5C728.192 758.2 723.492 757.3 720.492 753.8C719.092 752.4 716.992 754.5 718.292 755.9V755.9Z" fill="#161616"/>
<path d="M918.192 137.8C921.892 138.7 925.592 139.6 929.392 140.5C931.292 141 932.092 138.1 930.192 137.6C926.492 136.7 922.792 135.8 918.992 134.9C917.092 134.5 916.292 137.4 918.192 137.8V137.8Z" fill="#161616"/>
<path d="M929.192 139.5C939.192 179.9 941.892 222.1 944.792 263.6C947.792 306 949.392 348.5 950.092 391.1C951.292 475.6 948.392 560.1 943.592 644.5C940.892 692.3 937.492 740.1 933.992 787.9C933.892 789.8 936.892 789.8 936.992 787.9C943.292 702.9 948.992 617.9 951.692 532.7C954.392 447.7 954.192 362.5 948.792 277.5C945.892 231.3 943.292 183.9 932.192 138.8C931.592 136.8 928.692 137.6 929.192 139.5V139.5Z" fill="#161616"/>
<path d="M922.692 791.5C927.092 791.1 931.392 790.7 935.792 790.3C937.692 790.1 937.692 787.1 935.792 787.3C931.392 787.7 927.092 788.1 922.692 788.5C920.792 788.7 920.792 791.7 922.692 791.5V791.5Z" fill="#161616"/>
<path d="M255.192 235.5C248.492 304.8 244.492 374.3 243.192 443.9C241.892 513.8 243.292 583.8 247.492 653.6C249.792 692.8 253.092 731.9 257.092 770.9C257.292 772.8 260.292 772.8 260.092 770.9C252.892 701.7 248.392 632.2 246.592 562.6C244.792 492.7 245.692 422.7 249.392 352.9C251.492 313.7 254.392 274.6 258.092 235.5C258.392 233.6 255.392 233.6 255.192 235.5V235.5Z" fill="#161616"/>
<path d="M53.192 141.8C118.092 177.9 185.492 209.5 254.692 236.4C256.492 237.1 257.292 234.2 255.492 233.5C186.492 206.7 119.392 175.2 54.692 139.2C52.992 138.2 51.492 140.8 53.192 141.8V141.8Z" fill="#161616"/>
<path d="M50.092 141.1C38.992 225.7 31.292 310.8 27.092 396.1C22.892 481.4 22.292 566.8 25.092 652.1C26.692 700 29.392 747.9 33.192 795.7C33.392 797.6 36.392 797.6 36.192 795.7C29.392 710.6 26.192 625.2 26.392 539.9C26.592 454.5 30.392 369.2 37.592 284.1C41.692 236.3 46.892 188.7 53.092 141.1C53.292 139.2 50.292 139.2 50.092 141.1V141.1Z" fill="#161616"/>
<path d="M33.092 797.6C88.792 827.9 155.492 821.4 212.092 797.4C229.092 790.2 245.492 781.5 261.292 772C262.892 771 261.392 768.4 259.792 769.4C207.092 801.3 145.292 823.6 82.992 812C66.092 808.9 49.692 803.2 34.592 795C32.992 794.1 31.392 796.7 33.092 797.6V797.6Z" fill="#161616"/>
<path d="M10.992 789.3C17.992 792.6 25.192 795.4 32.492 797.9C34.292 798.5 35.092 795.6 33.292 795C26.192 792.6 19.292 789.9 12.492 786.7C10.692 785.9 9.19199 788.5 10.992 789.3V789.3Z" fill="#161616"/>
<path d="M33.992 141.8C23.192 225.6 14.192 309.6 8.29201 393.9C2.49201 477.8 -0.307988 561.9 1.49201 646C2.49201 693.6 4.89201 741.2 8.99201 788.6C9.19201 790.5 12.192 790.5 11.992 788.6C4.79201 704.5 2.69201 620.1 4.69201 535.7C6.59201 451.6 12.392 367.6 20.692 283.8C25.392 236.4 30.892 189 36.992 141.7C37.292 139.9 34.292 139.9 33.992 141.8V141.8Z" fill="#161616"/>
<path d="M35.692 143.9C41.492 142.7 47.292 142.3 53.292 142.6C55.192 142.7 55.192 139.7 53.292 139.6C47.092 139.3 40.992 139.8 34.892 141C32.992 141.4 33.792 144.3 35.692 143.9V143.9Z" fill="#161616"/>
<path d="M776.592 204.4C780.792 320.4 780.592 436.5 775.792 552.5C774.492 585 772.792 617.4 770.692 649.9C770.592 651.8 773.592 651.8 773.692 649.9C780.992 534.1 783.792 418 782.092 301.9C781.592 269.4 780.792 236.9 779.592 204.4C779.492 202.5 776.492 202.5 776.592 204.4V204.4Z" fill="#161616"/>
<path d="M825.092 162.8C829.092 243.5 831.092 324.4 830.992 405.2C830.992 486 828.992 566.9 824.992 647.6C822.792 693.3 819.892 738.9 816.392 784.5C816.292 786.4 819.292 786.4 819.392 784.5C825.592 703.9 829.792 623.2 832.092 542.4C834.292 461.6 834.592 380.7 832.892 299.9C831.892 254.2 830.292 208.5 828.092 162.8C827.992 160.9 824.992 160.9 825.092 162.8V162.8Z" fill="#161616"/>
<path d="M883.292 145C888.892 228.9 892.292 313 893.192 397.2C894.092 481.7 892.692 566.1 888.892 650.5C886.792 697.8 883.892 745.1 880.192 792.3C880.092 794.2 883.092 794.2 883.192 792.3C889.592 708.4 893.792 624.3 895.492 540.2C897.192 455.8 896.592 371.3 893.592 286.8C891.892 239.5 889.492 192.2 886.292 144.9C886.192 143 883.192 143 883.292 145V145Z" fill="#161616"/>
<path d="M766.292 687.4C763.992 713.6 759.792 739.6 753.692 765.2C753.292 767.1 756.092 767.9 756.592 766C762.792 740.1 766.992 713.9 769.292 687.4C769.492 685.5 766.492 685.5 766.292 687.4V687.4Z" fill="#161616"/>
<path d="M85.992 161.3C73.992 245.2 68.892 330 68.092 414.7C67.392 499.9 70.892 585 76.092 670C78.992 718.1 82.392 766.1 85.792 814.2C85.892 816.1 88.892 816.1 88.792 814.2C82.792 729.5 76.792 644.8 73.492 560C70.192 475.4 69.692 390.6 74.592 306C77.392 257.9 81.992 209.8 88.792 162.1C89.192 160.3 86.292 159.4 85.992 161.3V161.3Z" fill="#161616"/>
<path d="M143.492 189.3C135.892 270.4 130.792 351.8 129.092 433.3C127.492 514.7 129.392 596.1 136.092 677.3C139.792 722.4 144.992 767.3 151.792 812C152.092 813.9 154.992 813.1 154.692 811.2C142.492 730.6 135.492 649.2 132.892 567.7C130.292 487.3 131.792 406.7 136.192 326.4C138.692 280.7 142.192 235 146.492 189.4C146.692 187.4 143.692 187.4 143.492 189.3V189.3Z" fill="#161616"/>
<path d="M201.092 213.2C191.292 288.9 185.592 365.1 184.092 441.4C182.592 517.7 185.192 594.1 191.892 670.1C195.692 712.5 200.692 754.7 206.992 796.8C207.292 798.7 210.192 797.9 209.892 796C198.592 720.6 191.392 644.7 188.292 568.6C185.192 492.7 186.292 416.6 191.392 340.7C194.292 298.1 198.492 255.5 203.992 213.1C204.392 211.3 201.392 211.3 201.092 213.2V213.2Z" fill="#161616"/>
<path opacity="0.12" d="M860.892 151.8C871.992 197.1 880.992 250.2 883.992 309.7C891.492 461.1 855.892 584.8 824.892 664.2C802.992 699.3 781.192 734.4 759.292 769.5C780.592 778.7 812.192 789.4 851.592 792.6C878.792 794.8 902.392 792.8 920.792 789.8C920.992 785.4 924.292 718.5 924.492 714.1C935.392 490 936.092 474.7 936.492 459.3C938.292 396.6 937.992 306.6 927.292 194.3C923.592 175.2 919.892 156.1 916.192 137.1C897.892 141.9 879.392 146.8 860.892 151.8Z" fill="#3F3F3F"/>
<path opacity="0.13" d="M162.992 200.7C160.392 211.6 156.492 227.9 151.892 247.8C131.492 336.6 116.492 401.9 108.492 462C94.292 567.9 80.592 670.5 138.992 754.7C155.992 779.2 174.592 795.7 186.992 805.5C174.992 810.2 160.092 814.5 142.692 816.6C94.292 822.3 55.492 806.6 36.492 797.2C29.292 730.9 24.292 659.9 22.692 584.8C19.092 418.6 32.592 269.2 53.192 140.7C89.692 160.7 126.292 180.7 162.992 200.7Z" fill="#3F3F3F"/>
</svg>
