<svg width="783" height="655" viewBox="0 0 783 655" fill="none" xmlns="http://www.w3.org/2000/svg">
<path d="M71.6794 186.871C137.961 123.289 492.135 -66.3757 646.969 99.0121C761.507 221.357 752.428 461.05 686.525 525.612C620.622 590.175 215.075 667.022 121.589 594.741C28.102 522.46 5.3981 250.452 71.6794 186.871Z" fill="#FFCD00"/>
<mask id="mask0_812_921" style="mask-type:alpha" maskUnits="userSpaceOnUse" x="52" y="30" width="702" height="592">
<path d="M90.1215 183.959C156.403 120.377 510.577 -69.2876 665.411 96.1002C779.949 218.445 770.871 458.138 704.967 522.701C639.064 587.263 233.517 664.11 140.031 591.829C46.5441 519.548 23.8402 247.54 90.1215 183.959Z" fill="#FFCD00"/>
</mask>
<g mask="url(#mask0_812_921)">
<circle cx="737.58" cy="617.131" r="12.8124" fill="#6D6D6D"/>
<circle cx="228.48" cy="230.332" r="6.11502" fill="#EC615B"/>
<circle cx="240.516" cy="261.684" r="5.92089" fill="#333333"/>
<circle cx="233.431" cy="421.547" r="11.0653" fill="#333333"/>
<path d="M550.732 85.7069C550.926 85.7069 553.061 90.9484 553.935 91.6278C555.294 92.6955 556.944 92.7926 558.594 92.5014C561.506 92.0161 563.35 89.8807 565.874 88.5218C571.309 85.4157 571.309 90.7542 573.445 93.7632C575.871 97.3546 578.492 95.6074 581.307 93.8603C583.151 92.6955 584.898 91.919 586.548 93.5691C587.422 94.4427 588.004 95.8986 588.684 96.9663C589.752 98.5193 590.916 99.7812 592.664 100.558C594.314 101.334 595.867 98.8105 594.119 98.034C590.14 96.2869 589.655 89.6865 584.898 89.0071C582.666 88.7159 581.695 89.9777 579.948 90.9484C577.813 92.2102 576.551 93.0838 575.192 90.6572C574.61 89.6865 574.513 88.3276 573.833 87.357C570.727 82.2126 565.874 85.0275 561.991 87.5511C561.312 88.0365 560.632 88.5218 559.856 88.91C558.206 88.4247 556.459 87.9394 554.809 87.4541C554.129 86.7746 554.129 85.1245 553.547 84.251C552.576 82.8921 551.606 82.5038 550.053 82.795C548.111 83.1833 548.888 85.9981 550.732 85.7069V85.7069Z" fill="#3F3F3F"/>
<path d="M573.542 76.3888C576.454 71.8268 583.151 81.339 585.869 82.5038C587.519 83.1832 589.072 83.1832 590.819 82.6979C591.596 82.5038 592.275 82.1155 592.955 81.8243C595.575 80.7566 597.808 81.4361 599.943 83.2803C603.049 85.901 603.923 89.3953 608.388 90.3659C611.009 90.9483 613.435 90.1718 614.6 87.6482C615.376 85.9981 612.853 84.4451 612.076 86.1922C609.358 92.016 601.885 80.5625 599.943 79.3007C596.352 76.9711 594.119 78.9124 590.528 79.6889C584.801 80.8537 582.957 74.4475 578.201 72.8945C575.386 71.9238 572.668 72.4091 571.115 75.0299C569.951 76.5829 572.474 78.0388 573.542 76.3888V76.3888Z" fill="#3F3F3F"/>
<path d="M343.03 340.471C344.971 345.324 346.913 350.275 348.854 355.128C349.048 354.545 349.339 354.06 349.533 353.478C348.466 354.157 347.398 354.837 346.33 355.613C344.68 351.731 345.36 350.76 348.466 352.507C350.31 353.672 351.183 356.196 351.572 358.234C352.445 362.893 351.475 367.746 349.922 372.211C349.533 373.376 350.698 374.152 351.669 373.958C357.493 372.793 359.822 379.782 358.657 384.15C357.784 387.353 356.037 390.168 354.289 392.983C353.319 394.536 355.842 395.992 356.813 394.439C359.919 389.585 363.51 383.568 361.375 377.55C359.725 373.085 355.648 370.27 350.892 371.143C351.475 371.726 352.057 372.308 352.639 372.89C354.581 367.261 355.842 360.175 353.416 354.448C351.766 350.663 347.98 347.751 343.709 349.013C340.409 349.983 338.759 353.284 340.312 356.487C342.933 361.825 347.495 358.234 350.892 356.001C351.377 355.71 351.766 354.934 351.572 354.351C349.63 349.498 347.689 344.548 345.748 339.695C345.165 338.045 342.351 338.724 343.03 340.471V340.471Z" fill="#E8E8E8"/>
<path d="M499.361 493.52C496.449 529.143 498.002 564.862 504.02 600.096C504.312 601.94 507.126 601.164 506.835 599.32C500.914 564.377 499.361 528.851 502.273 493.52C502.467 491.676 499.555 491.676 499.361 493.52V493.52Z" fill="#E8E8E8"/>
<path d="M501.303 495.753C516.445 500.994 532.072 504.489 547.99 506.236C562.938 507.789 580.118 509.439 594.484 503.809C596.231 503.13 595.454 500.315 593.707 500.994C579.73 506.527 562.744 504.877 547.99 503.324C532.363 501.674 516.93 498.082 502.079 492.938C500.235 492.259 499.555 495.073 501.303 495.753V495.753Z" fill="#E8E8E8"/>
<path d="M524.404 499.732C519.357 491.87 515.183 483.523 512.271 474.593C510.912 470.322 509.747 466.051 508.874 461.683C508.388 459.063 507.903 456.442 507.612 453.821C507.612 453.53 506.544 446.639 508.582 447.609C509.553 448.095 511.203 447.221 510.718 445.959C505.379 432.467 502.467 418.296 502.176 403.736C501.691 404.222 501.206 404.707 500.72 405.192C501.497 405.484 502.176 405.775 502.953 406.066C503.923 407.231 505.768 405.969 505.379 404.61C503.438 398.398 502.176 391.992 501.788 385.391C501.691 383.838 501.982 366.367 503.05 366.658C504.215 366.949 504.991 365.882 504.797 364.911C502.953 353.943 502.079 342.78 502.564 331.715C502.759 326.182 503.244 320.747 504.117 315.311C504.894 310.361 505.282 304.343 509.165 300.752C508.388 300.655 507.612 300.558 506.835 300.461C514.989 315.797 519.551 332.589 523.724 349.284C527.801 365.687 531.392 382.285 534.498 398.98C540.808 433.438 544.787 468.284 546.534 503.324C546.631 505.168 549.543 505.168 549.446 503.324C547.699 468.09 543.72 432.953 537.313 398.204C534.11 380.926 530.422 363.746 526.151 346.663C521.977 330.259 517.415 313.952 509.359 298.908C508.874 298.034 507.709 298.034 507.029 298.616C503.729 301.625 502.759 305.605 501.982 309.779C500.914 315.7 500.138 321.815 499.75 327.833C498.973 340.451 499.75 353.069 501.885 365.59C502.467 365.008 503.05 364.426 503.632 363.843C498.002 362.29 498.682 374.423 498.585 377.141C498.197 386.653 499.653 396.165 502.467 405.289C503.244 404.804 504.117 404.319 504.894 403.833C503.632 402.377 502.564 401.892 500.623 402.086C499.847 402.183 499.167 402.669 499.167 403.542C499.458 418.296 502.37 432.758 507.806 446.541C508.485 445.959 509.262 445.474 509.941 444.891C500.235 440.232 505.865 462.169 506.641 465.469C509.553 478.087 514.795 490.123 521.783 500.994C522.948 502.741 525.472 501.285 524.404 499.732V499.732Z" fill="#E8E8E8"/>
<path d="M539.837 402.766C538.963 396.554 538.769 390.244 539.546 384.032C539.74 382.479 543.428 364.231 545.272 365.008C546.243 365.493 547.408 364.911 547.505 363.746C548.087 351.322 551.97 340.257 556.532 328.803C561.094 317.447 565.559 306.478 573.13 296.675C572.45 296.675 571.771 296.675 571.091 296.675C576.624 302.984 575.945 312.593 576.236 320.456C576.624 329.288 576.915 338.121 577.012 346.954C577.206 364.328 576.915 381.703 576.139 399.077C574.489 434.603 570.509 470.031 564.491 505.071C564.2 506.915 567.015 507.692 567.306 505.847C573.615 469.351 577.595 432.37 579.245 395.292C580.021 376.655 580.215 358.019 579.827 339.383C579.633 330.065 579.439 320.747 578.759 311.429C578.371 305.314 577.401 299.296 573.13 294.54C572.644 293.957 571.577 293.957 571.091 294.54C563.618 304.246 558.958 314.923 554.494 326.279C549.543 338.509 545.37 350.351 544.69 363.746C545.467 363.358 546.146 362.872 546.923 362.484C541.002 359.863 539.06 372.482 538.284 375.879C536.149 385.003 535.954 394.224 537.313 403.445C537.216 405.386 540.031 404.61 539.837 402.766V402.766Z" fill="#E8E8E8"/>
<path d="M505.379 602.523C535.76 612.326 568.665 611.841 598.755 601.164C600.502 600.582 599.725 597.767 597.978 598.349C568.374 608.832 536.051 609.317 506.156 599.708C504.312 599.126 503.535 601.94 505.379 602.523V602.523Z" fill="#E8E8E8"/>
<path d="M594.096 502.838C595.26 518.563 596.522 534.287 597.59 550.011C598.658 566.027 599.046 582.236 596.425 598.155C596.134 599.999 598.949 600.776 599.24 598.931C601.861 583.304 601.667 567.58 600.599 551.855C599.531 535.549 598.269 519.145 597.007 502.838C596.91 500.994 593.999 500.994 594.096 502.838V502.838Z" fill="#E8E8E8"/>
</g>
</svg>
